<svg width="1073" height="235" viewBox="0 0 1073 235" fill="none" xmlns="http://www.w3.org/2000/svg">
<g clip-path="url(#clip0)">
<path d="M332.336 178.38L395.963 74.5551H339.427V51.564H438.693V55.0309L376.371 158.856H436.454V182.03H332.336V178.38Z" fill="#2962EF"/>
<path d="M468.483 51.564H555.434V74.5551H498.524V105.028H544.052V126.559H498.524V159.039H558.419V182.03H468.483V51.564Z" fill="#2962EF"/>
<path d="M589.976 51.564H637.743C645.58 51.564 652.67 52.3547 659.014 53.9361C665.358 55.5175 670.77 57.9504 675.248 61.2348C679.726 64.5193 683.147 68.6553 685.51 73.6428C687.998 78.6303 689.242 84.4693 689.242 91.1599V91.8898C689.242 96.8773 688.558 101.257 687.19 105.028C685.821 108.799 683.893 112.083 681.405 114.881C678.917 117.679 675.994 120.051 672.635 121.997C669.277 123.944 665.669 125.464 661.813 126.559L697.079 182.03H664.985L633.078 131.668H620.017V182.03H589.976V51.564ZM636.997 111.597C644.585 111.597 650.245 110.015 653.976 106.852C657.833 103.689 659.761 99.0061 659.761 92.8021V92.0723C659.761 85.3817 657.77 80.7591 653.79 78.2046C649.934 75.5283 644.336 74.1902 636.997 74.1902H620.017V111.597H636.997Z" fill="#2962EF"/>
<path d="M726.428 51.564H756.843V182.03H726.428V51.564Z" fill="#2962EF"/>
<path d="M858.836 160.498C864.433 160.498 869.471 159.464 873.95 157.396C878.552 155.328 882.471 152.409 885.705 148.638C888.815 144.989 891.24 140.488 892.982 135.135C894.723 129.783 895.594 123.822 895.594 117.253V115.793C895.594 109.468 894.723 103.689 892.982 98.4587C891.365 93.2279 889.001 88.727 885.891 84.9559C882.657 81.1849 878.739 78.2654 874.136 76.1974C869.534 74.1294 864.309 73.0954 858.463 73.0954C852.616 73.0954 847.392 74.1294 842.789 76.1974C838.311 78.1437 834.455 80.9416 831.22 84.591C827.986 88.362 825.498 92.9238 823.757 98.2762C822.14 103.507 821.331 109.407 821.331 115.976V117.436C821.331 124.126 822.264 130.148 824.13 135.5C825.996 140.731 828.608 145.171 831.967 148.82C835.201 152.591 839.119 155.511 843.722 157.579C848.324 159.525 853.362 160.498 858.836 160.498ZM858.276 184.037C847.827 184.037 838.373 182.395 829.914 179.11C821.455 175.704 814.303 171.021 808.456 165.06C802.485 159.221 797.883 152.226 794.649 144.076C791.414 135.926 789.797 127.106 789.797 117.618V116.158C789.797 106.427 791.477 97.4855 794.835 89.3352C798.318 81.1849 803.17 74.1902 809.389 68.3512C815.484 62.5121 822.699 57.9504 831.034 54.6659C839.368 51.3815 848.511 49.7393 858.463 49.7393C868.538 49.7393 877.744 51.3207 886.078 54.4835C894.537 57.6463 901.814 62.0864 907.909 67.8038C913.88 73.6428 918.545 80.5767 921.903 88.6053C925.386 96.634 927.128 105.575 927.128 115.428V116.888C927.128 126.62 925.449 135.622 922.09 143.894C918.856 152.044 914.253 159.1 908.282 165.06C902.311 171.021 895.097 175.704 886.638 179.11C878.179 182.395 868.725 184.037 858.276 184.037Z" fill="#2962EF"/>
<path d="M959.375 51.564H994.455L1045.21 137.507V51.564H1072.08V182.03H1041.85L986.244 89.1527V182.03H959.375V51.564Z" fill="#2962EF"/>
<rect width="235.593" height="235.021" rx="45.5777" fill="#2962EF"/>
<path fill-rule="evenodd" clip-rule="evenodd" d="M101.87 162.516C101.971 162.377 108.515 153.019 117.712 139.862L84.5696 139.989C70.5867 159.597 58.984 175.864 58.6254 176.357C56.8526 179.137 57.5813 182.431 57.5813 182.431C57.5813 184.424 59.4698 186.216 61.5665 186.216H176.848C177.62 186.216 178.248 185.621 178.248 184.886C178.248 184.515 178.086 184.161 177.799 183.912L154.305 163.27C154.047 163.042 153.706 162.916 153.353 162.916L101.87 162.913C101.87 162.913 101.525 162.981 101.87 162.516ZM133.673 72.3757C133.494 72.6236 126.842 81.8205 117.564 94.6511L149.852 94.8249C164.351 74.3541 176.648 56.9844 177.242 56.1022C178.518 54.2149 178.194 52.204 178.194 52.204C178.194 50.2384 176.304 48.4706 174.205 48.4706H101.982H58.8195C57.5748 48.4706 56.9466 49.8778 57.8266 50.7047L79.4124 71.0741C79.6758 71.323 80.0347 71.4629 80.4081 71.4629H101.982L133.673 71.59C133.673 71.59 134.276 71.5434 133.673 72.3757Z" fill="#FEFFFE"/>
</g>
<defs>
<clipPath id="clip0">
<rect width="1073" height="235" fill="white"/>
</clipPath>
</defs>
</svg>
