<svg width="37" height="35" viewBox="0 0 37 35" fill="none" xmlns="http://www.w3.org/2000/svg">
<path d="M32.8741 13.4033C31.7043 13.4033 30.6749 13.8875 29.9185 14.6452C27.1345 12.7159 23.3834 11.474 19.2268 11.3412L21.387 1.59339L28.2652 3.13992C28.2652 4.82705 29.6377 6.20174 31.3222 6.20174C33.0379 6.20174 34.4182 4.78799 34.4182 3.10087C34.4182 1.41375 33.0457 0 31.3222 0C30.1213 0 29.0841 0.7264 28.5694 1.71837L20.9737 0.031243C20.5916 -0.0702968 20.2172 0.20308 20.1159 0.585807L17.7451 11.3334C13.6198 11.5052 9.9077 12.7472 7.11586 14.6764C6.35941 13.8875 5.29102 13.4033 4.12125 13.4033C-0.214678 13.4033 -1.63399 19.2301 2.33541 21.2218C2.19504 21.8389 2.13265 22.495 2.13265 23.1511C2.13265 29.6965 9.49438 35 18.5328 35C27.6102 35 34.9719 29.6965 34.9719 23.1511C34.9719 22.495 34.9017 21.8076 34.7301 21.1906C38.6216 19.191 37.1866 13.4033 32.8741 13.4033ZM8.62875 21.6358C8.62875 19.9174 10.0013 18.5349 11.7247 18.5349C13.4092 18.5349 14.7817 19.9096 14.7817 21.6358C14.7817 23.3229 13.4092 24.6976 11.7247 24.6976C10.0091 24.7054 8.62875 23.3229 8.62875 21.6358ZM25.3408 28.9389C22.5022 31.782 14.4932 31.782 11.6545 28.9389C11.3426 28.6655 11.3426 28.1812 11.6545 27.8688C11.9275 27.5954 12.411 27.5954 12.6839 27.8688C14.8519 30.0948 22.0421 30.1339 24.3036 27.8688C24.5766 27.5954 25.0601 27.5954 25.333 27.8688C25.6527 28.1812 25.6527 28.6655 25.3408 28.9389ZM25.2784 24.7054C23.594 24.7054 22.2214 23.3307 22.2214 21.6436C22.2214 19.9252 23.594 18.5427 25.2784 18.5427C26.9941 18.5427 28.3744 19.9174 28.3744 21.6436C28.3666 23.3229 26.9941 24.7054 25.2784 24.7054Z" fill="white"/>
</svg>
