<svg width="35" height="35" viewBox="0 0 35 35" fill="none" xmlns="http://www.w3.org/2000/svg">
<path d="M7.35313 22.1172C7.35313 24.1406 5.7 25.7938 3.67656 25.7938C1.65313 25.7938 0 24.1406 0 22.1172C0 20.0938 1.65313 18.4406 3.67656 18.4406H7.35313V22.1172ZM9.20625 22.1172C9.20625 20.0938 10.8594 18.4406 12.8828 18.4406C14.9062 18.4406 16.5594 20.0938 16.5594 22.1172V31.3234C16.5594 33.3469 14.9062 35 12.8828 35C10.8594 35 9.20625 33.3469 9.20625 31.3234V22.1172ZM12.8828 7.35313C10.8594 7.35313 9.20625 5.7 9.20625 3.67656C9.20625 1.65312 10.8594 0 12.8828 0C14.9062 0 16.5594 1.65312 16.5594 3.67656V7.35313H12.8828ZM12.8828 9.20625C14.9062 9.20625 16.5594 10.8594 16.5594 12.8828C16.5594 14.9062 14.9062 16.5594 12.8828 16.5594H3.67656C1.65313 16.5594 0 14.9062 0 12.8828C0 10.8594 1.65313 9.20625 3.67656 9.20625H12.8828ZM27.6469 12.8828C27.6469 10.8594 29.3 9.20625 31.3234 9.20625C33.3469 9.20625 35 10.8594 35 12.8828C35 14.9062 33.3469 16.5594 31.3234 16.5594H27.6469V12.8828ZM25.7938 12.8828C25.7938 14.9062 24.1406 16.5594 22.1172 16.5594C20.0938 16.5594 18.4406 14.9062 18.4406 12.8828V3.67656C18.4406 1.65312 20.0938 0 22.1172 0C24.1406 0 25.7938 1.65312 25.7938 3.67656V12.8828ZM22.1172 27.6469C24.1406 27.6469 25.7938 29.3 25.7938 31.3234C25.7938 33.3469 24.1406 35 22.1172 35C20.0938 35 18.4406 33.3469 18.4406 31.3234V27.6469H22.1172ZM22.1172 25.7938C20.0938 25.7938 18.4406 24.1406 18.4406 22.1172C18.4406 20.0938 20.0938 18.4406 22.1172 18.4406H31.3234C33.3469 18.4406 35 20.0938 35 22.1172C35 24.1406 33.3469 25.7938 31.3234 25.7938H22.1172Z" fill="white"/>
</svg>
