<svg width="98" height="145" viewBox="0 0 98 145" fill="none" xmlns="http://www.w3.org/2000/svg">
<path d="M97.4375 145H0.660156V127.617L37.4766 90.6055C48.349 79.4727 55.543 71.5951 59.0586 66.9727C62.6393 62.2852 65.2435 57.8906 66.8711 53.7891C68.4987 49.6875 69.3125 45.293 69.3125 40.6055C69.3125 34.1602 67.3594 29.082 63.4531 25.3711C59.612 21.6602 54.2734 19.8047 47.4375 19.8047C41.9688 19.8047 36.6628 20.8138 31.5195 22.832C26.4414 24.8503 20.5495 28.4961 13.8438 33.7695L1.44141 18.6328C9.38411 11.9271 17.099 7.17448 24.5859 4.375C32.0729 1.57552 40.0482 0.175781 48.5117 0.175781C61.793 0.175781 72.4375 3.65885 80.4453 10.625C88.4531 17.526 92.457 26.8359 92.457 38.5547C92.457 45 91.2852 51.1198 88.9414 56.9141C86.6628 62.7083 83.1146 68.6979 78.2969 74.8828C73.5443 81.0026 65.6016 89.3034 54.4688 99.7852L29.6641 123.809V124.785H97.4375V145Z" fill="#4D00B4"/>
</svg>
