<svg width="97" height="147" viewBox="0 0 97 147" fill="none" xmlns="http://www.w3.org/2000/svg">
<path d="M92.0664 35.0391C92.0664 44.0885 89.4297 51.6406 84.1562 57.6953C78.8828 63.6849 71.4609 67.7214 61.8906 69.8047V70.5859C73.349 72.0182 81.9427 75.599 87.6719 81.3281C93.401 86.9922 96.2656 94.5443 96.2656 103.984C96.2656 117.721 91.4154 128.333 81.7148 135.82C72.0143 143.242 58.2122 146.953 40.3086 146.953C24.4883 146.953 11.1419 144.382 0.269531 139.238V118.828C6.32422 121.823 12.737 124.134 19.5078 125.762C26.2786 127.389 32.7891 128.203 39.0391 128.203C50.1068 128.203 58.375 126.152 63.8438 122.051C69.3125 117.949 72.0469 111.602 72.0469 103.008C72.0469 95.3906 69.0195 89.7917 62.9648 86.2109C56.9102 82.6302 47.4049 80.8398 34.4492 80.8398H22.0469V62.1875H34.6445C57.431 62.1875 68.8242 54.3099 68.8242 38.5547C68.8242 32.4349 66.8385 27.7148 62.8672 24.3945C58.8958 21.0742 53.0365 19.4141 45.2891 19.4141C39.8854 19.4141 34.6771 20.1953 29.6641 21.7578C24.651 23.2552 18.7266 26.2174 11.8906 30.6445L0.660156 14.6289C13.7461 4.99349 28.9479 0.175781 46.2656 0.175781C60.6536 0.175781 71.8841 3.26823 79.957 9.45312C88.0299 15.638 92.0664 24.1667 92.0664 35.0391Z" fill="#4D00B4"/>
</svg>
