<?xml version="1.0" encoding="UTF-8"?>
<svg width="1654px" height="1185px" viewBox="0 0 1654 1185" version="1.1" xmlns="http://www.w3.org/2000/svg" xmlns:xlink="http://www.w3.org/1999/xlink">
    <!-- Generator: Sketch 58 (84663) - https://sketch.com -->
    <title>Group 2 Copy</title>
    <desc>Created with Sketch.</desc>
    <defs>
        <linearGradient x1="50%" y1="0%" x2="50%" y2="100%" id="linearGradient1">
            <stop stop-color="#FFFFFF" stop-opacity="0" offset="0%"></stop>
            <stop stop-color="#9013FE" stop-opacity="0.0616258741" offset="100%"></stop>
        </linearGradient>
        <linearGradient x1="50%" y1="0%" x2="50%" y2="100%" id="linearGradient2">
            <stop stop-color="#9013FE" offset="0%"></stop>
            <stop stop-color="#FFFFFF" offset="100%"></stop>
        </linearGradient>
    </defs>
    <g id="Documents-Headers,-Fellowship-Reports,-Book-Cover" stroke="none" stroke-width="1" fill="none" fill-rule="evenodd">
        <g id="Group-2-Copy" transform="translate(-1.000000, -2.000000)">
            <g id="Group" transform="translate(0.000000, 716.000000)" fill="#9013FE" fill-opacity="0.307746941">
                <polygon id="Rectangle" transform="translate(827.614286, 236.500000) rotate(-270.000000) translate(-827.614286, -236.500000) " points="593.614286 -267 1061.61429 -590 1061.61429 1063 593.614286 740"></polygon>
                <polygon id="Rectangle" transform="translate(827.614286, 172.000000) rotate(-270.000000) translate(-827.614286, -172.000000) " points="657.614286 -192.298851 997.614286 -426 997.614286 770 657.614286 536.298851"></polygon>
                <polygon id="Rectangle" transform="translate(827.114286, 110.000000) rotate(-270.000000) translate(-827.114286, -110.000000) " points="719.614286 -120.275862 934.614286 -268 934.614286 488 719.614286 340.275862"></polygon>
                <polygon id="Rectangle" transform="translate(827.614286, 47.500000) rotate(-270.000000) translate(-827.614286, -47.500000) " points="780.614286 -49.6666667 874.614286 -112 874.614286 207 780.614286 144.666667"></polygon>
            </g>
            <g id="Crowd" opacity="0.607212612" transform="translate(124.000000, 1108.000000)" fill="#20175F">
                <rect id="Rectangle" x="-0.385714286" y="0" width="57" height="15" rx="2"></rect>
                <rect id="Rectangle" x="148.614286" y="0" width="57" height="15" rx="2"></rect>
                <rect id="Rectangle" x="301.614286" y="0" width="57" height="15" rx="2"></rect>
                <rect id="Rectangle" x="451.614286" y="0" width="57" height="15" rx="2"></rect>
                <rect id="Rectangle" x="598.614286" y="0" width="57" height="15" rx="2"></rect>
                <rect id="Rectangle" x="749.614286" y="0" width="57" height="15" rx="2"></rect>
                <rect id="Rectangle" x="898.614286" y="0" width="57" height="15" rx="2"></rect>
                <rect id="Rectangle" x="1053.61429" y="0" width="57" height="15" rx="2"></rect>
                <rect id="Rectangle" x="1202.61429" y="0" width="57" height="15" rx="2"></rect>
                <rect id="Rectangle" x="1350.61429" y="0" width="57" height="15" rx="2"></rect>
            </g>
            <g id="Crowd" opacity="0.607212612" transform="translate(198.000000, 978.000000)" fill="#20175F">
                <rect id="Rectangle" x="-0.385714286" y="0" width="49" height="15" rx="2"></rect>
                <rect id="Rectangle" x="134.614286" y="0" width="49" height="15" rx="2"></rect>
                <rect id="Rectangle" x="271.614286" y="0" width="49" height="15" rx="2"></rect>
                <rect id="Rectangle" x="406.614286" y="0" width="49" height="15" rx="2"></rect>
                <rect id="Rectangle" x="538.614286" y="0" width="49" height="15" rx="2"></rect>
                <rect id="Rectangle" x="670.614286" y="0" width="49" height="15" rx="2"></rect>
                <rect id="Rectangle" x="804.614286" y="0" width="49" height="15" rx="2"></rect>
                <rect id="Rectangle" x="944.614286" y="0" width="49" height="15" rx="2"></rect>
                <rect id="Rectangle" x="1078.61429" y="0" width="49" height="15" rx="2"></rect>
                <rect id="Rectangle" x="1210.61429" y="0" width="49" height="15" rx="2"></rect>
            </g>
            <g id="Crowd" opacity="0.607212612" transform="translate(296.000000, 851.000000)" fill="#20175F">
                <rect id="Rectangle" x="-0.385714286" y="0" width="42" height="12" rx="2"></rect>
                <rect id="Rectangle" x="111.614286" y="0" width="42" height="12" rx="2"></rect>
                <rect id="Rectangle" x="228.614286" y="0" width="42" height="12" rx="2"></rect>
                <rect id="Rectangle" x="343.614286" y="0" width="42" height="12" rx="2"></rect>
                <rect id="Rectangle" x="453.614286" y="0" width="42" height="12" rx="2"></rect>
                <rect id="Rectangle" x="566.614286" y="0" width="42" height="12" rx="2"></rect>
                <rect id="Rectangle" x="678.614286" y="0" width="42" height="12" rx="2"></rect>
                <rect id="Rectangle" x="797.614286" y="0" width="42" height="12" rx="2"></rect>
                <rect id="Rectangle" x="910.614286" y="0" width="42" height="12" rx="2"></rect>
                <rect id="Rectangle" x="1022.61429" y="0" width="42" height="12" rx="2"></rect>
            </g>
            <g id="Crowd" opacity="0.607212612" transform="translate(362.000000, 755.000000)" fill="#20175F">
                <rect id="Rectangle" x="-0.385714286" y="0" width="34" height="11" rx="2"></rect>
                <rect id="Rectangle" x="98.6142857" y="0" width="34" height="11" rx="2"></rect>
                <rect id="Rectangle" x="198.614286" y="0" width="34" height="11" rx="2"></rect>
                <rect id="Rectangle" x="296.614286" y="0" width="34" height="11" rx="2"></rect>
                <rect id="Rectangle" x="392.614286" y="0" width="34" height="11" rx="2"></rect>
                <rect id="Rectangle" x="489.614286" y="0" width="34" height="11" rx="2"></rect>
                <rect id="Rectangle" x="587.614286" y="0" width="34" height="11" rx="2"></rect>
                <rect id="Rectangle" x="687.614286" y="0" width="34" height="11" rx="2"></rect>
                <rect id="Rectangle" x="785.614286" y="0" width="34" height="11" rx="2"></rect>
                <rect id="Rectangle" x="883.614286" y="0" width="34" height="11" rx="2"></rect>
            </g>
            <g id="Group-3" transform="translate(205.000000, 802.000000)" fill="#FFFFFF">
                <rect id="Rectangle" x="1131.61429" y="230" width="38" height="85" rx="2"></rect>
                <rect id="Rectangle" x="982.614286" y="230" width="38" height="85" rx="2"></rect>
                <rect id="Rectangle" x="379.614286" y="230" width="38" height="85" rx="2"></rect>
                <rect id="Rectangle" x="230.614286" y="230" width="38" height="85" rx="2"></rect>
                <rect id="Rectangle" opacity="0.756766183" x="945.614286" y="113" width="32" height="72" rx="2"></rect>
                <rect id="Rectangle" opacity="0.756766183" x="805.614286" y="113" width="32" height="72" rx="2"></rect>
                <rect id="Rectangle" opacity="0.756766183" x="670.614286" y="113" width="32" height="72" rx="2"></rect>
                <rect id="Rectangle" opacity="0.756766183" x="-0.385714286" y="113" width="32" height="72" rx="2"></rect>
                <rect id="Rectangle" opacity="0.756766183" x="134.614286" y="113" width="32" height="72" rx="2"></rect>
                <rect id="Rectangle" opacity="0.525902158" x="209.614286" y="0" width="25" height="57" rx="2"></rect>
                <rect id="Rectangle" opacity="0.525902158" x="328.614286" y="0" width="25" height="57" rx="2"></rect>
                <rect id="Rectangle" opacity="0.525902158" x="441.614286" y="0" width="25" height="57" rx="2"></rect>
                <rect id="Rectangle" opacity="0.525902158" x="1122.61429" y="0" width="25" height="57" rx="2"></rect>
            </g>
            <rect id="Rectangle" fill="#FFFFFF" opacity="0.525902158" x="1057" y="713" width="21" height="48" rx="2"></rect>
            <rect id="Rectangle" fill="#FFFFFF" opacity="0.525902158" x="368" y="713" width="20" height="48" rx="2"></rect>
            <rect id="Rectangle" fill="#FFFFFF" opacity="0.525902158" x="1156" y="713" width="20" height="48" rx="2"></rect>
            <rect id="Rectangle" fill="#FFFFFF" opacity="0.525902158" x="1252" y="713" width="21" height="48" rx="2"></rect>
            <polygon id="Path-56" fill="url(#linearGradient1)" points="322 716 822.841752 0 1333 716"></polygon>
            <path d="M784.750882,400 L884.307639,404.402973 L924.614286,493.014737 L867.749093,574 L767.651127,567.657468 L726.614286,471.647175 L784.750882,400 Z M857.614286,451 L785.614286,482.03924 L847.169799,529 L857.614286,451 Z M849.614286,435.256314 L791.766023,411 L779.614286,462 L849.614286,435.256314 Z M834.614286,541.016473 L772.614286,496 L774.114016,557 L834.614286,541.016473 Z M915.614286,492.162689 L872.099595,449 L860.614286,532 L915.614286,492.162689 Z M849.33562,551 L796.614286,564.197604 L858.614286,568 L849.33562,551 Z M905.614286,512 L858.614286,546.838989 L867.953296,565 L905.614286,512 Z M884.748718,417 L875.614286,435.641784 L909.614286,470 L884.748718,417 Z M871.614286,408.362585 L813.614286,406 L861.457384,427 L871.614286,408.362585 Z M777.614286,417 L736.614286,468.252142 L764.026149,474 L777.614286,417 Z M761.449061,483.684609 L734.614286,478 L762.614286,544 L761.449061,483.684609 Z" id="Combined-Shape" fill="url(#linearGradient2)" fill-rule="nonzero"></path>
        </g>
    </g>
</svg>