<?xml version="1.0" encoding="UTF-8"?>
<svg width="205px" height="208px" viewBox="0 0 205 208" version="1.1" xmlns="http://www.w3.org/2000/svg" xmlns:xlink="http://www.w3.org/1999/xlink">
    <!-- Generator: Sketch 58 (84663) - https://sketch.com -->
    <title>crowdfunding-icon</title>
    <desc>Created with Sketch.</desc>
    <g id="Logos,-Icons,-Illustrations" stroke="none" stroke-width="1" fill="none" fill-rule="evenodd">
        <g id="crowdfunding-icon">
            <ellipse id="Oval" fill="#9013FE" cx="102.5" cy="103.75" rx="102.5" ry="103.75"></ellipse>
            <path d="M86.1242187,107.142857 C91.120625,109.53125 96.6190625,110.964286 102.5,110.964286 C108.380937,110.964286 113.903281,109.53125 118.875781,107.142857 L118.875781,107.142857 L120.86,107.142857 C136.064375,107.142857 148.4,119.466964 148.4,134.657143 L148.4,134.657143 L148.4,141.535714 C148.4,147.864955 114.898828,179.520898 102.5,179.520898 C91.9488281,179.520898 56.6,147.864955 56.6,141.535714 L56.6,141.535714 L56.6,134.657143 C56.6,119.466964 68.935625,107.142857 84.14,107.142857 L84.14,107.142857 Z M103.558553,128 L101.664113,128 L101.664113,131.365044 C100.342404,131.365044 99.0794566,131.551989 97.875233,131.925885 C96.6710094,132.299781 95.6063155,132.839045 94.6811193,133.543695 C93.7559231,134.248344 93.0216515,135.125548 92.4782823,136.175332 C91.9349131,137.225116 91.6632326,138.440259 91.6632326,139.820796 C91.6632326,141.402663 91.9569413,142.725658 92.5443674,143.789823 C93.1317935,144.853988 93.9027788,145.738381 94.8573463,146.443031 C95.8119138,147.147681 96.8839504,147.722896 98.0734883,148.168695 C99.2630263,148.614493 100.459889,148.995574 101.664113,149.311947 L101.664113,149.311947 L101.664113,159.752212 C99.6374925,159.69469 98.1836346,159.119474 97.3024954,158.026549 C96.4213562,156.933623 95.9954786,155.438063 96.0248499,153.539823 L96.0248499,153.539823 L91.0023815,153.539823 C90.9730102,155.150451 91.2153198,156.574109 91.7293177,157.810841 C92.2433156,159.047573 92.9702445,160.090151 93.9101264,160.938606 C94.8500082,161.787062 95.9807865,162.441369 97.3024954,162.901549 C98.6242042,163.361728 100.078062,163.606195 101.664113,163.634956 L101.664113,163.634956 L101.664113,167 L103.558553,167 L103.558553,163.634956 C105.027118,163.577433 106.392863,163.340157 107.655829,162.923119 C108.918796,162.506082 110.020203,161.902106 110.960085,161.111173 C111.899967,160.320239 112.641581,159.327993 113.18495,158.134403 C113.728319,156.940813 114,155.538725 114,153.928097 C114,152.374992 113.706291,151.066377 113.118865,150.002212 C112.531439,148.938048 111.753111,148.046464 110.783858,147.327434 C109.814605,146.608403 108.698512,146.018808 107.435546,145.558628 C106.172579,145.098449 104.880261,144.695798 103.558553,144.350664 L103.558553,144.350664 L103.558553,135.247788 C105.144603,135.247788 106.29741,135.636058 107.017007,136.412611 C107.736604,137.189163 108.125768,138.310833 108.18451,139.777655 L108.18451,139.777655 L113.206979,139.777655 C113.206979,138.368356 112.949984,137.131642 112.435986,136.067478 C111.921988,135.003313 111.231772,134.12611 110.365319,133.435841 C109.498865,132.745572 108.478228,132.227878 107.303375,131.882743 C106.128523,131.537609 104.880261,131.365044 103.558553,131.365044 L103.558553,131.365044 L103.558553,128 Z M103,149 C103.623309,149.171675 104.233059,149.371959 104.829268,149.600858 C105.425477,149.829758 105.960702,150.130184 106.434959,150.502146 C106.909216,150.874108 107.288616,151.3319 107.573171,151.875536 C107.857725,152.419173 108,153.091555 108,153.892704 C108,155.609451 107.532525,156.861226 106.597561,157.648069 C105.662597,158.434911 104.463422,158.88555 103,159 L103,159 Z M101,135 L101,144 C100.380528,143.849999 99.7684396,143.662501 99.1637168,143.4375 C98.558994,143.212499 98.0280259,142.920002 97.5707965,142.56 C97.113567,142.199998 96.7374631,141.765003 96.4424779,141.255 C96.1474912,140.744997 96,140.130004 96,139.41 C96,137.819992 96.4350989,136.687503 97.3053097,136.0125 C98.1755206,135.337497 99.4070717,135 101,135 L101,135 Z M163.7,99.5 C172.138906,99.5 179,106.354687 179,114.785714 L179,114.785714 L179,122.428571 C179,126.656027 175.581406,130.071429 171.35,130.071429 L171.35,130.071429 L155.571875,130.071429 C154.089687,118.750446 147.2525,109.220759 137.618281,103.942411 C140.391406,101.195759 144.1925,99.5 148.4,99.5 L148.4,99.5 Z M56.6,99.5 C60.8075,99.5 64.6085937,101.195759 67.3817187,103.942411 C57.7475,109.220759 50.9103125,118.750446 49.4042187,130.071429 L49.4042187,130.071429 L33.65,130.071429 C29.4185937,130.071429 26,126.656027 26,122.428571 L26,122.428571 L26,114.785714 C26,106.354687 32.8610937,99.5 41.3,99.5 L41.3,99.5 Z M102.5,46 C117.297969,46 129.275,57.9658482 129.275,72.75 C129.275,87.5341518 117.297969,99.5 102.5,99.5 C87.7020313,99.5 75.725,87.5341518 75.725,72.75 C75.725,57.9658482 87.7020313,46 102.5,46 Z M48.95,61.2857143 C57.3889063,61.2857143 64.25,68.1404018 64.25,76.5714286 C64.25,85.0024554 57.3889063,91.8571429 48.95,91.8571429 C40.5110937,91.8571429 33.65,85.0024554 33.65,76.5714286 C33.65,68.1404018 40.5110937,61.2857143 48.95,61.2857143 Z M156.05,61.2857143 C164.488906,61.2857143 171.35,68.1404018 171.35,76.5714286 C171.35,85.0024554 164.488906,91.8571429 156.05,91.8571429 C147.611094,91.8571429 140.75,85.0024554 140.75,76.5714286 C140.75,68.1404018 147.611094,61.2857143 156.05,61.2857143 Z" id="Combined-Shape" fill="#FFFFFF" fill-rule="nonzero"></path>
        </g>
    </g>
</svg>