<?xml version="1.0" encoding="UTF-8"?>
<svg width="205px" height="208px" viewBox="0 0 205 208" version="1.1" xmlns="http://www.w3.org/2000/svg" xmlns:xlink="http://www.w3.org/1999/xlink">
    <!-- Generator: Sketch 58 (84663) - https://sketch.com -->
    <title>fake-news-icon</title>
    <desc>Created with Sketch.</desc>
    <g id="Logos,-Icons,-Illustrations" stroke="none" stroke-width="1" fill="none" fill-rule="evenodd">
        <g id="fake-news-icon">
            <ellipse id="Oval" fill="#9013FE" cx="102.5" cy="103.75" rx="102.5" ry="103.75"></ellipse>
            <g id="Group-75" transform="translate(48.000000, 34.000000)" fill="#FFFFFF">
                <g id="Group-72">
                    <path d="M7,-2 L88.257248,-2 L111,21.7896014 L111,134 C111,138.970563 106.970563,143 102,143 L7,143 C2.02943725,143 -2,138.970563 -2,134 L-2,7 C-2,2.02943725 2.02943725,-2 7,-2 Z M86.5474395,2 L7,2 C4.23857625,2 2,4.23857625 2,7 L2,134 C2,136.761424 4.23857625,139 7,139 L102,139 C104.761424,139 107,136.761424 107,134 L107,23.3939924 L86.5474395,2 Z" id="Rectangle" fill-rule="nonzero"></path>
                    <polygon id="Path-16" points="86.9746094 0 86.9746094 22.7597656 109 22.7597656"></polygon>
                </g>
                <path d="M9.0283415,54.296 L26.7763415,54.296 L26.7763415,58.184 L13.5283415,58.184 L13.5283415,64.916 L25.1563415,64.916 L25.1563415,68.588 L13.5283415,68.588 L13.5283415,80 L9.0283415,80 L9.0283415,54.296 Z M36.6961707,54.296 L41.4841707,54.296 L51.3841707,80 L46.5601707,80 L44.1481707,73.196 L33.8881707,73.196 L31.4761707,80 L26.8321707,80 L36.6961707,54.296 Z M35.1121707,69.776 L42.9601707,69.776 L39.1081707,58.724 L39.0001707,58.724 L35.1121707,69.776 Z M55.256,54.296 L59.756,54.296 L59.756,65.996 L71.204,54.296 L76.748,54.296 L66.488,64.556 L77.468,80 L71.852,80 L63.428,67.724 L59.756,71.36 L59.756,80 L55.256,80 L55.256,54.296 Z M81.3398292,54.296 L99.8438292,54.296 L99.8438292,58.184 L85.8398292,58.184 L85.8398292,64.916 L98.7998292,64.916 L98.7998292,68.588 L85.8398292,68.588 L85.8398292,76.112 L100.095829,76.112 L100.095829,80 L81.3398292,80 L81.3398292,54.296 Z" id="FAKE" fill-rule="nonzero"></path>
            </g>
        </g>
    </g>
</svg>