<?xml version="1.0" encoding="UTF-8"?>
<svg width="205px" height="208px" viewBox="0 0 205 208" version="1.1" xmlns="http://www.w3.org/2000/svg" xmlns:xlink="http://www.w3.org/1999/xlink">
    <!-- Generator: Sketch 58 (84663) - https://sketch.com -->
    <title>hotel-listings-icon</title>
    <desc>Created with Sketch.</desc>
    <g id="Logos,-Icons,-Illustrations" stroke="none" stroke-width="1" fill="none" fill-rule="evenodd">
        <g id="hotel-listings-icon">
            <ellipse id="Oval" fill="#9013FE" cx="102.5" cy="103.75" rx="102.5" ry="103.75"></ellipse>
            <path d="M77,101 C85.270625,101 92,94.270625 92,86 C92,77.729375 85.270625,71 77,71 C68.729375,71 62,77.729375 62,86 C62,94.270625 68.729375,101 77,101 Z M143.65,77.1666667 L100.95,77.1666667 C99.264875,77.1666667 97.9,78.5278125 97.9,80.2083333 L97.9,107.583333 L55.2,107.583333 L55.2,68.0416667 C55.2,66.3611458 53.835125,65 52.15,65 L46.05,65 C44.364875,65 43,66.3611458 43,68.0416667 L43,134.958333 C43,136.638854 44.364875,138 46.05,138 L52.15,138 C53.835125,138 55.2,136.638854 55.2,134.958333 L55.2,125.833333 L152.8,125.833333 L152.8,134.958333 C152.8,136.638854 154.164875,138 155.85,138 L161.95,138 C163.635125,138 165,136.638854 165,134.958333 L165,98.4583333 C165,86.6984896 155.442063,77.1666667 143.65,77.1666667 Z" id="Shape" fill="#FFFFFF" fill-rule="nonzero"></path>
        </g>
    </g>
</svg>