<?xml version="1.0" encoding="UTF-8"?>
<svg width="232px" height="229px" viewBox="0 0 232 229" version="1.1" xmlns="http://www.w3.org/2000/svg" xmlns:xlink="http://www.w3.org/1999/xlink">
    <!-- Generator: Sketch 58 (84663) - https://sketch.com -->
    <title>STATUTESbo</title>
    <desc>Created with Sketch.</desc>
    <g id="Logos,-Icons,-Illustrations" stroke="none" stroke-width="1" fill="none" fill-rule="evenodd">
        <g id="STATUTESbo" transform="translate(-15.000000, 0.000000)">
            <polygon id="Polygon" fill="#9013FE" opacity="0.217889695" points="114.5 0 213.659909 57.25 213.659909 171.75 114.5 229 15.3400913 171.75 15.3400913 57.25"></polygon>
            <polygon id="Polygon" fill="#9013FE" opacity="0.343424479" points="140.5 14 225.803502 63 225.803502 161 140.5 210 55.1964977 161 55.1964977 63"></polygon>
            <polygon id="Polygon" fill="#9013FE" points="172.5 29 246.545172 71.75 246.545172 157.25 172.5 200 98.454828 157.25 98.454828 71.75"></polygon>
            <path d="M205,129.625 L205,82.375 C205,80.5046875 203.495313,79 201.625,79 L155.5,79 C148.046875,79 142,85.046875 142,92.5 L142,137.5 C142,144.953125 148.046875,151 155.5,151 L201.625,151 C203.495313,151 205,149.495313 205,147.625 L205,145.375 C205,144.320312 204.507812,143.364062 203.748438,142.745313 C203.157813,140.579688 203.157813,134.40625 203.748438,132.240625 C204.507812,131.635938 205,130.679688 205,129.625 Z M160,97.84375 C160,97.3796875 160.379687,97 160.84375,97 L190.65625,97 C191.120312,97 191.5,97.3796875 191.5,97.84375 L191.5,100.65625 C191.5,101.120313 191.120312,101.5 190.65625,101.5 L160.84375,101.5 C160.379687,101.5 160,101.120313 160,100.65625 L160,97.84375 Z M160,106.84375 C160,106.379688 160.379687,106 160.84375,106 L190.65625,106 C191.120312,106 191.5,106.379688 191.5,106.84375 L191.5,109.65625 C191.5,110.120313 191.120312,110.5 190.65625,110.5 L160.84375,110.5 C160.379687,110.5 160,110.120313 160,109.65625 L160,106.84375 Z M195.634375,142 L155.5,142 C153.010937,142 151,139.989063 151,137.5 C151,135.025 153.025,133 155.5,133 L195.634375,133 C195.367188,135.404688 195.367188,139.595313 195.634375,142 Z" id="Shape" fill="#FFFFFF" fill-rule="nonzero"></path>
        </g>
    </g>
</svg>