<?xml version="1.0" encoding="UTF-8"?>
<svg width="232px" height="229px" viewBox="0 0 232 229" version="1.1" xmlns="http://www.w3.org/2000/svg" xmlns:xlink="http://www.w3.org/1999/xlink">
    <!-- Generator: Sketch 58 (84663) - https://sketch.com -->
    <title>Group 53</title>
    <desc>Created with Sketch.</desc>
    <g id="Logos,-Icons,-Illustrations" stroke="none" stroke-width="1" fill="none" fill-rule="evenodd">
        <g id="Group-53" transform="translate(-15.000000, 0.000000)">
            <g id="Group-42" fill="#9013FE">
                <g id="Group-185">
                    <g id="Group-182-Copy-2">
                        <g id="Group">
                            <polygon id="Polygon" opacity="0.217889695" points="114.5 0 213.659909 57.25 213.659909 171.75 114.5 229 15.3400913 171.75 15.3400913 57.25"></polygon>
                            <polygon id="Polygon" opacity="0.343424479" points="140.5 14 225.803502 63 225.803502 161 140.5 210 55.1964977 161 55.1964977 63"></polygon>
                            <polygon id="Polygon" points="172.5 29 246.545172 71.75 246.545172 157.25 172.5 200 98.454828 157.25 98.454828 71.75"></polygon>
                        </g>
                    </g>
                </g>
            </g>
            <g id="Group-46" transform="translate(121.000000, 68.000000)" fill="#FFFFFF" fill-rule="nonzero">
                <g id="ethereum-brands-(1)">
                    <path d="M33.9888158,29.54375 L17,40.05625 L0,29.54375 L17,0 L33.9888158,29.54375 Z M17,43.4320313 L0,32.9195313 L17,58 L34,32.9195313 L17,43.4320313 L17,43.4320313 Z" id="Shape"></path>
                </g>
                <g id="bitcoin-brands" transform="translate(58.000000, 34.000000)">
                    <path d="M48,24 C48,37.254871 37.254871,48 24,48 C10.745129,48 0,37.254871 0,24 C0,10.745129 10.745129,0 24,0 C37.254871,0 48,10.745129 48,24 Z M34.2918387,20.5809677 C34.7696129,17.3875161 32.337871,15.6707419 29.0128065,14.5255161 L30.0914516,10.1995161 L27.4579355,9.54329032 L26.4078387,13.7552903 C25.7155161,13.5827419 25.0044194,13.4200645 24.297871,13.2588387 L25.3555161,9.01916129 L22.7234516,8.36293548 L21.644129,12.6873871 C21.0710323,12.5568387 20.5084839,12.4278387 19.9624839,12.2921613 L19.9654839,12.2786129 L16.3335484,11.3718387 L15.633,14.1842903 C15.633,14.1842903 17.5869677,14.6320645 17.5457419,14.6597419 C18.6123871,14.9259677 18.8051613,15.6317419 18.7728387,16.1911935 L17.5441935,21.1194194 C17.6177419,21.1381935 17.7129677,21.1651935 17.8179677,21.2071935 C17.7301935,21.1854194 17.6364194,21.1614194 17.5396452,21.1381935 L15.8174516,28.041871 C15.6869032,28.365871 15.356129,28.851871 14.6105806,28.6674194 C14.6368065,28.7056452 12.6963871,28.1896452 12.6963871,28.1896452 L11.3889677,31.203871 L14.816129,32.0580968 C15.4536774,32.217871 16.0785484,32.3850968 16.6935484,32.5425484 L15.6036774,36.918 L18.2341935,37.5742258 L19.3135161,33.2452258 C20.0111177,33.4342855 20.7107391,33.6158122 21.4122581,33.7897742 L20.3366129,38.0984516 L22.970129,38.7546774 L24.06,34.3874516 C28.5507097,35.2372258 31.9276452,34.8944516 33.3489677,30.8332258 C34.4943871,27.5632258 33.2919677,25.677 30.9292258,24.447 C32.649871,24.0504194 33.9460645,22.9187419 34.2918387,20.5809677 Z M28.2747097,29.0176452 C27.4608387,32.2876452 21.9545806,30.519871 20.1693871,30.0766452 L21.6155806,24.2799677 C23.4006774,24.7254194 29.1252581,25.6074194 28.2747097,29.0176452 Z M29.0892581,20.5337419 C28.3467097,23.5081935 23.7636774,21.9969677 22.2770323,21.6265161 L23.588129,16.3690645 C25.074871,16.7395161 29.8625806,17.4309677 29.0892581,20.5337419 Z" id="Shape"></path>
                </g>
                <g id="sync-alt-solid" transform="translate(58.000000, 16.500000) rotate(19.000000) translate(-58.000000, -16.500000) translate(41.000000, 9.000000)">
                    <path d="M24.863871,8.58774194 C22.7209113,6.58119355 19.9399032,5.48126613 16.9895806,5.48387097 C11.6799597,5.48853226 7.09612903,9.1291371 5.83052016,14.1792339 C5.73839113,14.5468589 5.41086694,14.8064516 5.0318629,14.8064516 L1.10383468,14.8064516 C0.589858871,14.8064516 0.199407258,14.3398427 0.294483871,13.8347097 C1.77766532,5.9585 8.69282661,0 17,0 C21.5549032,0 25.6913185,1.79158065 28.7433669,4.70824597 L31.1915726,2.26004032 C32.2279556,1.22365726 34,1.95767339 34,3.423375 L34,12.6129032 C34,13.5215121 33.2634476,14.2580645 32.3548387,14.2580645 L23.1653105,14.2580645 C21.6996089,14.2580645 20.9655927,12.4860202 22.0019758,11.4495685 L24.863871,8.58774194 Z" id="Shape"></path>
                </g>
                <g id="sync-alt-solid" transform="translate(37.000000, 77.500000) scale(-1, -1) rotate(19.000000) translate(-37.000000, -77.500000) translate(20.000000, 70.000000)">
                    <path d="M24.863871,8.58774194 C22.7209113,6.58119355 19.9399032,5.48126613 16.9895806,5.48387097 C11.6799597,5.48853226 7.09612903,9.1291371 5.83052016,14.1792339 C5.73839113,14.5468589 5.41086694,14.8064516 5.0318629,14.8064516 L1.10383468,14.8064516 C0.589858871,14.8064516 0.199407258,14.3398427 0.294483871,13.8347097 C1.77766532,5.9585 8.69282661,0 17,0 C21.5549032,0 25.6913185,1.79158065 28.7433669,4.70824597 L31.1915726,2.26004032 C32.2279556,1.22365726 34,1.95767339 34,3.423375 L34,12.6129032 C34,13.5215121 33.2634476,14.2580645 32.3548387,14.2580645 L23.1653105,14.2580645 C21.6996089,14.2580645 20.9655927,12.4860202 22.0019758,11.4495685 L24.863871,8.58774194 Z" id="Shape"></path>
                </g>
            </g>
        </g>
    </g>
</svg>