<?xml version="1.0" encoding="UTF-8"?>
<svg width="232px" height="229px" viewBox="0 0 232 229" version="1.1" xmlns="http://www.w3.org/2000/svg" xmlns:xlink="http://www.w3.org/1999/xlink">
    <!-- Generator: Sketch 58 (84663) - https://sketch.com -->
    <title>attack-icon</title>
    <desc>Created with Sketch.</desc>
    <g id="Logos,-Icons,-Illustrations" stroke="none" stroke-width="1" fill="none" fill-rule="evenodd">
        <g id="attack-icon" transform="translate(-15.000000, 0.000000)">
            <g id="Group">
                <polygon id="Polygon" fill="#9013FE" opacity="0.217889695" points="114.5 0 213.659909 57.25 213.659909 171.75 114.5 229 15.3400913 171.75 15.3400913 57.25"></polygon>
                <polygon id="Polygon" fill="#9013FE" opacity="0.343424479" points="140.5 14 225.803502 63 225.803502 161 140.5 210 55.1964977 161 55.1964977 63"></polygon>
                <polygon id="Polygon" fill="#9013FE" points="172.5 29 246.545172 71.75 246.545172 157.25 172.5 200 98.454828 157.25 98.454828 71.75"></polygon>
                <path d="M185.668,152.322 L170.777365,157 L157.242,152.322 L185.668,152.322 Z M202.771,146.95 L194.219,149.636 L149.468,149.636 L141.695,146.95 L202.771,146.95 Z M212.808065,141.576702 C213.102961,142.033508 213.40509,142.501519 213.714453,142.980735 L214,143.423058 L211.322,144.264 L133.921,144.264 L130,142.909042 C130.246048,142.455099 130.486621,142.011257 130.721718,141.577516 L212.808065,141.576702 Z M209.339971,136.204483 C209.878815,137.039175 210.456905,137.93466 211.074241,138.890938 L132.177935,138.890886 C132.696064,137.934968 133.181267,137.039798 133.633543,136.205376 L209.339971,136.204483 Z M207.606839,133.519791 L135.089903,133.518481 C135.648239,132.488384 136.13358,131.592961 136.545923,130.832211 L164.940895,130.833883 C167.927378,131.549117 170.376826,131.604344 170.926559,131.607227 L171.157506,131.607226 C171.707239,131.604339 174.156688,131.549093 177.143171,130.833847 L205.87225,130.832842 C206.36348,131.593778 206.941677,132.489428 207.606839,133.519791 Z M152.886254,121.99965 C152.903179,122.166762 152.984832,122.293446 152.984832,122.293446 C154.256731,124.911724 156.195758,126.794273 158.338504,128.147739 L138.001216,128.147286 C138.195648,127.788571 138.292864,127.609213 138.292864,127.609213 C138.292864,127.609213 148.383486,125.017192 152.886254,121.99965 Z M189.197811,121.99965 C193.70058,125.017192 203.791202,127.609213 203.791202,127.609213 L203.799302,127.621761 C203.829226,127.668114 203.942053,127.842887 204.137782,128.14608 L183.745561,128.147692 C185.888307,126.794229 187.827335,124.911694 189.099234,122.293446 C189.099234,122.293446 189.136292,122.23595 189.166066,122.147056 L189.186338,122.074906 L189.197811,121.99965 Z" id="Combined-Shape" fill="#FFFFFF"></path>
                <path d="M192.967641,89.5634329 C193.193315,89.6149278 193.524448,89.7994261 194.092367,90.1398156 C195.724652,91.1180133 195.277502,99.6263977 191.748713,101.187167 C191.718946,101.597498 191.689071,102.008585 191.659305,102.421186 C189.397492,111.992646 188.412918,114.005482 185.15928,117.622878 C183.203893,119.797035 178.17812,126 171.001368,126 C163.824832,126 158.798735,119.796927 156.843456,117.622878 C153.589818,114.005482 152.623983,111.992646 150.343648,102.421186 C150.314314,102.0141 150.284656,101.608635 150.255322,101.20371 C146.699148,99.696354 146.281235,91.2849807 147.919474,90.3032149 C148.456774,89.9811936 148.788701,89.7894221 149.016134,89.7097978 C149.004682,89.8054452 149,89.9021758 149,90 L149,90 L149,94.6916368 C149,94.7893417 149.004773,94.8869884 149.014302,94.9842276 C149.175896,96.6331829 150.643636,97.8389279 152.292591,97.6773344 L152.292591,97.6773344 L168.731058,96.0664063 L171,98 L173.971325,96.0664063 L189.696718,97.6643378 C189.797487,97.6745775 189.898711,97.6797072 190,97.6797072 C191.656854,97.6797072 193,96.3365615 193,94.6797072 L193,94.6797072 L193,90 C193,89.8816533 192.993147,89.7649071 192.979817,89.6501366 Z M163.663032,90.1935484 C164.479582,90.1935484 165.141527,90.855493 165.141527,91.672043 C165.141527,92.488593 164.479582,93.1505376 163.663032,93.1505376 L163.663032,93.1505376 L154.575329,93.1505376 L154.43294,93.1437695 C153.683193,93.0721268 153.096834,92.4405607 153.096834,91.672043 C153.096834,90.855493 153.758779,90.1935484 154.575329,90.1935484 L154.575329,90.1935484 Z M187.260798,90.1935484 C188.077348,90.1935484 188.739292,90.855493 188.739292,91.672043 C188.739292,92.488593 188.077348,93.1505376 187.260798,93.1505376 L187.260798,93.1505376 L178.173094,93.1505376 L178.030705,93.1437695 C177.280959,93.0721268 176.6946,92.4405607 176.6946,91.672043 C176.6946,90.855493 177.356544,90.1935484 178.173094,90.1935484 L178.173094,90.1935484 Z M171.001368,59 C195.320572,59 193.831248,80.9486321 192.581652,88.4740999 C192.060486,87.591262 191.099291,87 190,87 L190,87 L152,87 C150.901959,87 149.941701,87.589918 149.418867,88.470112 C148.171199,80.9426793 146.685965,59 171.001368,59 Z" id="Combined-Shape" fill="#FFFFFF"></path>
            </g>
        </g>
    </g>
</svg>