<?xml version="1.0" encoding="UTF-8"?>
<svg width="232px" height="229px" viewBox="0 0 232 229" version="1.1" xmlns="http://www.w3.org/2000/svg" xmlns:xlink="http://www.w3.org/1999/xlink">
    <!-- Generator: Sketch 58 (84663) - https://sketch.com -->
    <title>photo-icon</title>
    <desc>Created with Sketch.</desc>
    <g id="Logos,-Icons,-Illustrations" stroke="none" stroke-width="1" fill="none" fill-rule="evenodd">
        <g id="photo-icon" transform="translate(-15.000000, 0.000000)">
            <polygon id="Polygon" fill="#9013FE" opacity="0.217889695" points="114.5 0 213.659909 57.25 213.659909 171.75 114.5 229 15.3400913 171.75 15.3400913 57.25"></polygon>
            <polygon id="Polygon" fill="#9013FE" opacity="0.343424479" points="140.5 14 225.803502 63 225.803502 161 140.5 210 55.1964977 161 55.1964977 63"></polygon>
            <polygon id="Polygon" fill="#9013FE" points="172.5 29 246.545172 71.75 246.545172 157.25 172.5 200 98.454828 157.25 98.454828 71.75"></polygon>
            <g id="camera-solid" transform="translate(133.000000, 78.000000)" fill="#FFFFFF" fill-rule="nonzero">
                <path d="M78,17 L78,60.7142857 C78,64.7366071 74.7246094,68 70.6875,68 L7.3125,68 C3.27539062,68 0,64.7366071 0,60.7142857 L0,17 C0,12.9776786 3.27539062,9.71428571 7.3125,9.71428571 L20.71875,9.71428571 L22.5925781,4.72053571 C23.6589844,1.88214286 26.3859375,0 29.4328125,0 L48.5519531,0 C51.5988281,0 54.3257813,1.88214286 55.3921875,4.72053571 L57.28125,9.71428571 L70.6875,9.71428571 C74.7246094,9.71428571 78,12.9776786 78,17 Z M57.28125,38.8571429 C57.28125,28.8089286 49.0851563,20.6428571 39,20.6428571 C28.9148438,20.6428571 20.71875,28.8089286 20.71875,38.8571429 C20.71875,48.9053571 28.9148438,57.0714286 39,57.0714286 C49.0851563,57.0714286 57.28125,48.9053571 57.28125,38.8571429 Z M52.40625,38.8571429 C52.40625,46.21875 46.3886719,52.2142857 39,52.2142857 C31.6113281,52.2142857 25.59375,46.21875 25.59375,38.8571429 C25.59375,31.4955357 31.6113281,25.5 39,25.5 C46.3886719,25.5 52.40625,31.4955357 52.40625,38.8571429 Z" id="Shape"></path>
            </g>
        </g>
    </g>
</svg>