<?xml version="1.0" encoding="UTF-8"?>
<svg width="232px" height="229px" viewBox="0 0 232 229" version="1.1" xmlns="http://www.w3.org/2000/svg" xmlns:xlink="http://www.w3.org/1999/xlink">
    <!-- Generator: Sketch 58 (84663) - https://sketch.com -->
    <title>Escrow</title>
    <desc>Created with Sketch.</desc>
    <g id="Logos,-Icons,-Illustrations" stroke="none" stroke-width="1" fill="none" fill-rule="evenodd">
        <g id="Escrow" transform="translate(-15.000000, 0.000000)">
            <g id="Group-182-Copy-3" fill="#9013FE">
                <g id="Group">
                    <polygon id="Polygon" opacity="0.217889695" points="114.5 0 213.659909 57.25 213.659909 171.75 114.5 229 15.3400913 171.75 15.3400913 57.25"></polygon>
                    <polygon id="Polygon" opacity="0.343424479" points="140.5 14 225.803502 63 225.803502 161 140.5 210 55.1964977 161 55.1964977 63"></polygon>
                    <polygon id="Polygon" points="172.5 29 246.545172 71.75 246.545172 157.25 172.5 200 98.454828 157.25 98.454828 71.75"></polygon>
                </g>
            </g>
            <g id="symbol-escrow" transform="translate(130.000000, 65.000000)" fill="#FFFFFF" fill-rule="nonzero">
                <path d="M0,24.5 C0.0493456063,57.2805733 14.077383,81.7805731 42.0841121,98 C70.694704,80.7414114 85,56.2414115 85,24.5 L42.5637019,0 L0,24.5 Z M42.5586026,8 L78,28.4872763 C76.9474681,54.5868254 65.0917664,74.9038296 42.022811,90 C19.5966792,75.757913 8.03686841,55.4696169 7,28.4935018 L42.5586026,8 Z" id="Path-104"></path>
            </g>
            <g id="kleros-symbol-white-flat" transform="translate(150.000000, 93.000000)" fill="#FFFFFF" fill-rule="nonzero">
                <path d="M12.6256245,0 L34.2465364,0.961568809 L43,20.3135633 L30.6504884,38 L8.91204125,36.6148494 L0,15.6470841 L12.6256245,0 Z M28.4766343,11.1549546 L12.8071919,17.9668436 L26.2035887,28.2728784 L28.4766343,11.1549546 Z M26.6624893,7.74158118 L14.1400275,2.37670526 L11.5095309,13.6566003 L26.6624893,7.74158118 Z M23.4884827,30.8659672 L9.87900058,21.1965209 L10.2082031,34.299196 L23.4884827,30.8659672 Z M40.8262106,20.2708808 L31.5520431,10.9070997 L29.1042105,28.913249 L40.8262106,20.2708808 Z M26.6793297,32.9721257 L15.2015155,35.9570546 L28.699362,36.8170503 L26.6793297,32.9721257 Z M39.0138312,24.5192618 L28.9666354,31.9663886 L30.9630368,35.8484576 L39.0138312,24.5192618 Z M34.261445,3.66541547 L32.3099968,7.65148896 L39.5736385,14.9981233 L34.261445,3.66541547 Z M31.8300455,1.75794606 L19.0749416,1.24278614 L29.5963846,5.82182033 L31.8300455,1.75794606 Z M10.7629854,3.60125686 L1.8288853,14.8261782 L7.80206405,16.0850377 L10.7629854,3.60125686 Z M7.44189693,18.2869614 L1.43992654,17.0225639 L7.70251561,31.7025954 L7.44189693,18.2869614 Z" id="Combined-Shape"></path>
            </g>
        </g>
    </g>
</svg>