<?xml version="1.0" encoding="UTF-8"?>
<svg width="232px" height="229px" viewBox="0 0 232 229" version="1.1" xmlns="http://www.w3.org/2000/svg" xmlns:xlink="http://www.w3.org/1999/xlink">
    <!-- Generator: Sketch 58 (84663) - https://sketch.com -->
    <title>Group</title>
    <desc>Created with Sketch.</desc>
    <g id="Logos,-Icons,-Illustrations" stroke="none" stroke-width="1" fill="none" fill-rule="evenodd">
        <g id="Group" transform="translate(-15.000000, 0.000000)">
            <polygon id="Polygon" fill="#9013FE" opacity="0.217889695" points="114.5 0 213.659909 57.25 213.659909 171.75 114.5 229 15.3400913 171.75 15.3400913 57.25"></polygon>
            <polygon id="Polygon" fill="#9013FE" opacity="0.343424479" points="140.5 14 225.803502 63 225.803502 161 140.5 210 55.1964977 161 55.1964977 63"></polygon>
            <polygon id="Polygon" fill="#9013FE" points="172.5 29 246.545172 71.75 246.545172 157.25 172.5 200 98.454828 157.25 98.454828 71.75"></polygon>
            <g id="balance" transform="translate(124.000000, 67.000000)" fill="#FFFFFF" fill-rule="nonzero">
                <g id="law-balance" transform="translate(4.000000, 0.000000)">
                    <g id="Layer_2">
                        <path d="M90.9420472,62.3343901 C90.9782011,62.2435794 90.9986107,62.1516081 90.9986107,62.0587663 C90.9986107,61.8008405 90.8542863,61.5510384 90.5866302,61.3131315 L80.5489457,32.4689583 C81.9752784,31.8071712 82.9660138,30.3716065 82.9660138,28.7021968 C82.9660138,26.4055255 81.0950457,24.5437594 78.7870226,24.5437594 C77.7420562,24.5437594 76.7886408,24.9281821 76.0562313,25.5589252 L47.9782967,17.1898269 L47.9782967,8.76299267 L43.3132676,4.70116861 L43.3132676,15.7995226 L16.3053741,7.74956756 C15.7802668,6.04998432 14.1909497,4.81431943 12.3106514,4.81431943 C10.0026284,4.81431943 8.13166018,6.67608549 8.13166018,8.97275687 C8.13166018,10.4367543 8.89380928,11.7214512 10.0428642,12.462444 L0.00168095327,41.3170619 L0.170496689,41.3750878 C0.103728462,41.4975228 0.0655335372,41.6222789 0.0655335372,41.7490658 C0.0655335372,43.3468133 5.54052816,44.641955 12.2943238,44.641955 C18.3221244,44.641955 23.3277004,43.6099615 24.3347635,42.2524419 L24.5231142,42.1874527 L24.4665507,42.0246896 C24.5029963,41.934169 24.5231142,41.8421977 24.5231142,41.7490658 C24.5231142,41.49114 24.3784982,41.2413378 24.1111338,41.0034309 L14.2466385,12.656251 C14.4988416,12.524822 14.7364665,12.3701826 14.9551397,12.1923327 C16.0904063,11.4050307 17.1971549,11.1720784 18.2753859,11.4934758 C21.1880789,12.3616867 25.6063503,15.3672287 27.820064,16.027089 C31.2629982,17.0533534 36.4273994,18.5927499 43.3132676,20.6452786 L43.3132676,49.5634351 C42.1464273,50.3009462 41.3697,51.5952174 41.3697,53.072851 C41.3697,53.9977864 41.6767172,54.8487386 42.1895788,55.5392486 C40.809605,56.5616677 39.9118785,58.1927803 39.9118785,60.0359779 C39.9118785,62.343094 41.3128449,64.3229432 43.3132676,65.1843399 L43.3132676,74.4519718 C28.2181086,74.6985826 16.3922602,76.975235 16.3922602,79.7483002 L16.4893512,82.6496031 C16.4893512,85.5871724 29.736284,87.9926425 46.1073284,87.9926425 C62.4783729,87.9926425 75.7255973,85.6356241 75.7255973,82.6980549 L75.6769062,79.7483002 C75.6769062,76.9279437 63.4431592,74.6208276 47.9782967,74.4409468 L47.9782967,65.0912081 C49.8737562,64.1877424 51.1857956,62.2667898 51.1857956,60.0356879 C51.1857956,58.1922 50.2880691,56.5613777 48.9080953,55.5389584 C49.4212484,54.8484484 49.727974,53.9972061 49.727974,53.0725608 C49.727974,51.6784848 49.0363834,50.4477522 47.9782967,49.6934134 L47.9782967,22.035583 C54.0162129,23.8351918 58.5446502,25.1848984 61.5636082,26.0847026 C66.5413216,27.5683165 69.5144564,26.6321154 72.6318581,27.5612609 C73.784119,27.9046938 74.5178726,28.7308393 74.8331191,30.0396975 C75.1593794,30.9945163 75.8238545,31.7917942 76.6857186,32.292269 L66.477469,61.6264723 L66.6462847,61.6844982 C66.5795165,61.8072234 66.5413216,61.9316893 66.5413216,62.0584762 C66.5413216,63.6562237 72.0160247,64.9513654 78.7698203,64.9513654 C84.7976208,64.9513654 89.8031969,63.9193719 90.8102601,62.5618523 L90.9986107,62.4968631 L90.9420472,62.3343901 Z M22.9504162,40.3309089 C20.8531942,39.4509437 16.8680932,38.8561767 12.2937407,38.8561767 C7.37884113,38.8561767 3.14357797,39.5423349 1.20030183,40.5316791 L10.830671,12.8578916 C11.2913426,13.0316796 11.7887513,13.1311943 12.3106514,13.1311943 C12.6993067,13.1311943 13.0739668,13.0743288 13.4308415,12.9756845 L22.9504162,40.3309089 Z M67.6769646,60.8410895 L77.4866457,32.6520305 C77.8962936,32.7854905 78.3330569,32.860054 78.7876058,32.860054 C79.1094927,32.860054 79.4214665,32.8203062 79.7223609,32.7518354 L89.4273706,60.6397392 C87.3301485,59.759774 83.344756,59.1652969 78.7704035,59.1652969 C73.8549207,59.1655871 69.6199491,59.8517453 67.6769646,60.8410895 Z" id="Shape"></path>
                        <path d="M45.5,18.6577629 C48.4731179,18.6577629 50.8833063,17.8754078 50.8833063,12.5609349 C50.8833063,9.01795292 49.0888708,4.83097462 45.5,0 C41.9111292,4.83097462 40.1166937,9.01795292 40.1166937,12.5609349 C40.1166937,17.8754078 42.5268821,18.6577629 45.5,18.6577629 Z" id="Oval"></path>
                    </g>
                </g>
                <path d="M16.5,48 C25.6126984,48 33,45.1507576 33,41.636039 C33,38.1213203 0,38.1213203 0,41.636039 C0,45.1507576 7.38730162,48 16.5,48 Z" id="Oval"></path>
                <path d="M82.5,67 C91.6126984,67 99,64.1507576 99,60.636039 C99,57.1213203 66,57.1213203 66,60.636039 C66,64.1507576 73.3873016,67 82.5,67 Z" id="Oval"></path>
                <ellipse id="Oval" cx="50" cy="75" rx="13" ry="4"></ellipse>
            </g>
        </g>
    </g>
</svg>