<?xml version="1.0" encoding="UTF-8"?>
<svg width="232px" height="229px" viewBox="0 0 232 229" version="1.1" xmlns="http://www.w3.org/2000/svg" xmlns:xlink="http://www.w3.org/1999/xlink">
    <!-- Generator: Sketch 58 (84663) - https://sketch.com -->
    <title>Yellowpaper</title>
    <desc>Created with Sketch.</desc>
    <g id="Logos,-Icons,-Illustrations" stroke="none" stroke-width="1" fill="none" fill-rule="evenodd">
        <g id="Yellowpaper" transform="translate(-15.000000, 0.000000)">
            <g id="Group" fill="#9013FE">
                <polygon id="Polygon" opacity="0.217889695" points="114.5 0 213.659909 57.25 213.659909 171.75 114.5 229 15.3400913 171.75 15.3400913 57.25"></polygon>
                <polygon id="Polygon" opacity="0.343424479" points="140.5 14 225.803502 63 225.803502 161 140.5 210 55.1964977 161 55.1964977 63"></polygon>
                <polygon id="Polygon" points="172.5 29 246.545172 71.75 246.545172 157.25 172.5 200 98.454828 157.25 98.454828 71.75"></polygon>
            </g>
            <g id="Group-181" transform="translate(145.000000, 76.000000)" fill="#FFFFFF" fill-rule="nonzero">
                <g id="file-alt-regular-(1)">
                    <path d="M56,19.3212891 L56,67.96875 C56,71.8505859 52.8645833,75 49,75 L7,75 C3.13541667,75 0,71.8505859 0,67.96875 L0,7.03125 C0,3.14941406 3.13541667,0 7,0 L36.7645833,0 C38.6166667,0 40.3958333,0.747070312 41.7083333,2.06542969 L53.94375,14.3554688 C55.25625,15.6591797 56,17.4609375 56,19.3212891 Z M37.3333333,7.60253906 L37.3333333,18.75 L48.43125,18.75 L37.3333333,7.60253906 Z M49,67.96875 L49,25.78125 L33.8333333,25.78125 C31.89375,25.78125 30.3333333,24.2138672 30.3333333,22.265625 L30.3333333,7.03125 L7,7.03125 L7,67.96875 L49,67.96875 Z" id="Shape"></path>
                </g>
                <polygon id="Y" points="25.456 47.104 17.072 33.152 22.704 33.152 28.048 42.176 33.36 33.152 38.96 33.152 30.48 47.232 30.48 56 25.456 56"></polygon>
            </g>
        </g>
    </g>
</svg>