<?xml version="1.0" encoding="UTF-8"?>
<svg width="232px" height="229px" viewBox="0 0 232 229" version="1.1" xmlns="http://www.w3.org/2000/svg" xmlns:xlink="http://www.w3.org/1999/xlink">
    <!-- Generator: Sketch 58 (84663) - https://sketch.com -->
    <title>Group 185</title>
    <desc>Created with Sketch.</desc>
    <g id="Logos,-Icons,-Illustrations" stroke="none" stroke-width="1" fill="none" fill-rule="evenodd">
        <g id="Group-185" transform="translate(-15.000000, 0.000000)">
            <g id="Group-182-Copy-2" fill="#9013FE">
                <g id="Group">
                    <polygon id="Polygon" opacity="0.217889695" points="114.5 0 213.659909 57.25 213.659909 171.75 114.5 229 15.3400913 171.75 15.3400913 57.25"></polygon>
                    <polygon id="Polygon" opacity="0.343424479" points="140.5 14 225.803502 63 225.803502 161 140.5 210 55.1964977 161 55.1964977 63"></polygon>
                    <polygon id="Polygon" points="172.5 29 246.545172 71.75 246.545172 157.25 172.5 200 98.454828 157.25 98.454828 71.75"></polygon>
                </g>
            </g>
            <path d="M216.80127,88.1339746 L216.80127,139.866025 L172,165.732051 L127.19873,139.866025 L127.19873,88.1339746 L172,62.2679492 L216.80127,88.1339746 Z M130.19873,89.8660254 L130.19873,138.133975 L172,162.267949 L213.80127,138.133975 L213.80127,89.8660254 L172,65.7320508 L130.19873,89.8660254 Z" id="Polygon" fill="#FFFFFF" fill-rule="nonzero"></path>
            <path d="M205.408965,94.7113249 L205.408965,133.288675 L172,152.57735 L138.591035,133.288675 L138.591035,94.7113249 L172,75.4226497 L205.408965,94.7113249 Z M172,76.5773503 L139.591035,95.2886751 L139.591035,132.711325 L172,151.42265 L204.408965,132.711325 L204.408965,95.2886751 L172,76.5773503 Z" id="Polygon" fill="#FFFFFF" fill-rule="nonzero"></path>
            <g id="kleros-symbol-white-flat" transform="translate(146.000000, 91.000000)" fill="#FFFFFF" fill-rule="nonzero">
                <path d="M15.2681971,0 L41.4144161,1.16400435 L52,24.5901029 L37.0657069,46 L10.7773522,44.3232387 L0,18.941207 L15.2681971,0 Z M34.43686,13.5033661 L15.4877669,21.749337 L31.6880607,34.2250634 L34.43686,13.5033661 Z M32.2430104,9.37138774 L17.0995681,2.87706426 L13.9185024,16.5316741 L32.2430104,9.37138774 Z M28.4046767,37.3640655 L11.9466984,25.6589463 L12.3448038,41.5200794 L28.4046767,37.3640655 Z M49.3712314,24.5384347 L38.1559591,13.2033313 L35.1957895,35.0002488 L49.3712314,24.5384347 Z M32.2633755,39.9136259 L18.383228,43.5269609 L34.7062053,44.5680082 L32.2633755,39.9136259 Z M47.1795168,29.6812116 L35.0294196,38.6961546 L37.4436724,43.3955013 L47.1795168,29.6812116 Z M41.4324452,4.43708189 L39.0725543,9.26232874 L47.8564931,18.1556229 L41.4324452,4.43708189 Z M38.4921481,2.12803997 L23.0673713,1.50442533 L35.7909767,7.04746672 L38.4921481,2.12803997 Z M13.0157033,4.3594162 L2.21167525,17.9474788 L9.4350542,19.4713614 L13.0157033,4.3594162 Z M8.99950327,22.136848 L1.74130652,20.6062616 L9.31467004,38.376826 L8.99950327,22.136848 Z" id="Combined-Shape"></path>
            </g>
        </g>
    </g>
</svg>