<?xml version="1.0" encoding="UTF-8"?>
<svg width="1314px" height="584px" viewBox="0 0 1314 584" version="1.1" xmlns="http://www.w3.org/2000/svg" xmlns:xlink="http://www.w3.org/1999/xlink">
    <!-- Generator: Sketch 58 (84663) - https://sketch.com -->
    <title>cases-disputes</title>
    <desc>Created with Sketch.</desc>
    <defs>
        <linearGradient x1="50%" y1="0%" x2="50%" y2="100%" id="linearGradient1">
            <stop stop-color="#8400DB" offset="0%"></stop>
            <stop stop-color="#4D00B4" offset="100%"></stop>
        </linearGradient>
        <linearGradient x1="0%" y1="49.9999777%" x2="100.000024%" y2="49.9999777%" id="linearGradient2">
            <stop stop-color="#A3A2A5" offset="0%"></stop>
            <stop stop-color="#9F9EA0" offset="27.05%"></stop>
            <stop stop-color="#929194" offset="56.07%"></stop>
            <stop stop-color="#7C7C80" offset="85.92%"></stop>
            <stop stop-color="#707073" offset="100%"></stop>
        </linearGradient>
        <linearGradient x1="-0.661193461%" y1="79.9148322%" x2="70.3915924%" y2="24.2689758%" id="linearGradient3">
            <stop stop-color="#969598" offset="0%"></stop>
            <stop stop-color="#908F92" offset="33.96%"></stop>
            <stop stop-color="#7F7F82" offset="79.17%"></stop>
            <stop stop-color="#757578" offset="100%"></stop>
        </linearGradient>
        <linearGradient x1="6.06021085%" y1="-2.83492963%" x2="50.00952%" y2="85.0511445%" id="linearGradient4">
            <stop stop-color="#9E9EA0" offset="0%"></stop>
            <stop stop-color="#9B9B9D" offset="27.59%"></stop>
            <stop stop-color="#919194" offset="49.4%"></stop>
            <stop stop-color="#808083" offset="69.23%"></stop>
            <stop stop-color="#69696D" offset="87.77%"></stop>
            <stop stop-color="#55565A" offset="100%"></stop>
        </linearGradient>
    </defs>
    <g id="cases-disputes" stroke="none" stroke-width="1" fill="none" fill-rule="evenodd">
        <g id="Group-3" transform="translate(36.000000, 39.000000)">
            <path d="M250.5,501 C388.84733,501 501,388.84733 501,250.5 C501,112.15267 388.84733,0 250.5,0 C112.15267,0 0,112.15267 0,250.5 C0,388.84733 112.15267,501 250.5,501 Z M250.5,495 C115.466379,495 6,385.533621 6,250.5 C6,115.466379 115.466379,6 250.5,6 C385.533621,6 495,115.466379 495,250.5 C495,385.533621 385.533621,495 250.5,495 Z" id="Oval" fill="#9013FE" fill-rule="nonzero"></path>
            <circle id="Oval" fill="url(#linearGradient1)" cx="250.5" cy="250.5" r="244.5"></circle>
            <g id="Group-2" transform="translate(863.000000, 116.000000)">
                <circle id="Oval" fill="#FFFFFF" cx="135" cy="135" r="135"></circle>
                <g id="kleros-symbol" transform="translate(51.000000, 60.000000)" fill-rule="nonzero">
                    <polygon id="Path" fill="#45464D" opacity="0.7" points="133.381411 3.77718897 49.0824928 0 0 61.5574073 34.3923467 143.824633 119.534475 149 168 79.7930126"></polygon>
                    <g id="Group">
                        <polygon id="Path" fill="#656569" points="167.847575 79.7154168 119.890532 30.9128112 107.277449 124.531491"></polygon>
                        <polygon id="Path" fill="url(#linearGradient2)" points="32.7506551 68.7388056 119.890532 30.9128112 107.277449 124.531491"></polygon>
                        <polygon id="Path" fill="url(#linearGradient3)" points="119.890532 30.9128112 49.0898492 0.0698111888 32.7506551 68.7388056"></polygon>
                        <polygon id="Path" fill="url(#linearGradient4)" points="32.7506551 68.7388056 34.4194413 143.629331 107.277449 124.531491"></polygon>
                        <polygon id="Path" fill="#757578" points="119.890532 30.9128112 133.275501 3.84003217 49.0898492 0.0698111888"></polygon>
                        <polygon id="Path" fill="#6C6D70" points="133.275501 3.84003217 167.847575 79.7154168 119.890532 30.9128112"></polygon>
                        <polygon id="Path" fill="#6C6D70" points="167.847575 79.7154168 119.447169 148.794734 107.277449 124.531491"></polygon>
                        <polygon id="Path" fill="#55565A" points="119.447169 148.794734 34.4194413 143.629331 107.277449 124.531491"></polygon>
                        <polygon id="Path" fill="#55565A" points="49.0898492 0.0698111888 0.0733053152 61.5134517 32.7506551 68.7388056"></polygon>
                        <polygon id="Path" fill="#656569" points="0.0733053152 61.5134517 34.4194413 143.629331 32.7506551 68.7388056"></polygon>
                        <polygon id="Path" fill="#151A22" opacity="0.7" points="110.972618 43.8064168 102.140262 110.92206 50.0835204 70.5143021"></polygon>
                        <polygon id="Path" fill="#151A22" opacity="0.7" points="103.923263 30.4235077 55.2628628 9.38866713 45.0412361 53.614993"></polygon>
                        <polygon id="Path" fill="#23262E" opacity="0.7" points="91.5896959 121.089695 38.7052064 83.1778434 39.9842077 134.550126"></polygon>
                        <polygon id="Path" fill="#23262E" opacity="0.7" points="158.961642 79.5478699 122.923461 42.8348951 113.411214 113.432971"></polygon>
                        <polygon id="Path" fill="#43444B" opacity="0.7" points="103.988885 129.346796 111.838368 144.42247 59.3874808 141.050694"></polygon>
                        <polygon id="Path" fill="#34363D" opacity="0.7" points="151.918517 96.2048196 112.876895 125.404027 120.634591 140.624533"></polygon>
                        <polygon id="Path" fill="#34363D" opacity="0.7" points="133.451392 14.4413301 154.093795 58.8747972 125.868756 30.0698671"></polygon>
                        <polygon id="Path" fill="#36383F" opacity="0.7" points="124.003728 6.96236364 115.323797 22.8964028 74.4391595 4.94284056"></polygon>
                        <polygon id="Path" fill="#3B3C43" opacity="0.7" points="42.1401731 14.1900098 30.6345612 63.136614 7.42335723 58.2006503"></polygon>
                        <polygon id="Path" fill="#45464D" opacity="0.7" points="29.2346996 71.7694448 30.2474759 124.369779 5.91177256 66.8122252"></polygon>
                    </g>
                </g>
            </g>
            <path d="M998.5,440 C1103.15796,440 1188,355.15796 1188,250.5 C1188,145.84204 1103.15796,61 998.5,61 C893.84204,61 809,145.84204 809,250.5 C809,355.15796 893.84204,440 998.5,440 Z M998.5,438 C894.946609,438 811,354.053391 811,250.5 C811,146.946609 894.946609,63 998.5,63 C1102.05339,63 1186,146.946609 1186,250.5 C1186,354.053391 1102.05339,438 998.5,438 Z" id="Oval" fill="#9013FE" fill-rule="nonzero"></path>
            <path d="M998.5,487 C1129.11534,487 1235,381.115343 1235,250.5 C1235,119.884657 1129.11534,14 998.5,14 C867.884657,14 762,119.884657 762,250.5 C762,381.115343 867.884657,487 998.5,487 Z M998.5,485 C868.989226,485 764,380.010774 764,250.5 C764,120.989226 868.989226,16 998.5,16 C1128.01077,16 1233,120.989226 1233,250.5 C1233,380.010774 1128.01077,485 998.5,485 Z" id="Oval" fill="#9013FE" fill-rule="nonzero"></path>
            <path d="M210.616,225.656 L210.616,239 L218.152,239 L218.152,225.848 L230.872,204.728 L222.472,204.728 L214.504,218.264 L206.488,204.728 L198.04,204.728 L210.616,225.656 Z M233.752,226.616 C233.752,225.623995 233.847999,224.648 234.04,223.688 C234.232001,222.727995 234.559998,221.880004 235.024,221.144 C235.488002,220.407996 236.103996,219.808002 236.872,219.344 C237.640004,218.879998 238.599994,218.648 239.752,218.648 C240.904006,218.648 241.871996,218.879998 242.656,219.344 C243.440004,219.808002 244.063998,220.407996 244.528,221.144 C244.992002,221.880004 245.319999,222.727995 245.512,223.688 C245.704001,224.648 245.8,225.623995 245.8,226.616 C245.8,227.608005 245.704001,228.575995 245.512,229.52 C245.319999,230.464005 244.992002,231.311996 244.528,232.064 C244.063998,232.816004 243.440004,233.415998 242.656,233.864 C241.871996,234.312002 240.904006,234.536 239.752,234.536 C238.599994,234.536 237.640004,234.312002 236.872,233.864 C236.103996,233.415998 235.488002,232.816004 235.024,232.064 C234.559998,231.311996 234.232001,230.464005 234.04,229.52 C233.847999,228.575995 233.752,227.608005 233.752,226.616 Z M226.936,226.616 C226.936,228.60001 227.239997,230.391992 227.848,231.992 C228.456003,233.592008 229.319994,234.959994 230.44,236.096 C231.560006,237.232006 232.903992,238.103997 234.472,238.712 C236.040008,239.320003 237.79999,239.624 239.752,239.624 C241.70401,239.624 243.471992,239.320003 245.056,238.712 C246.640008,238.103997 247.991994,237.232006 249.112,236.096 C250.232006,234.959994 251.095997,233.592008 251.704,231.992 C252.312003,230.391992 252.616,228.60001 252.616,226.616 C252.616,224.63199 252.312003,222.832008 251.704,221.216 C251.095997,219.599992 250.232006,218.224006 249.112,217.088 C247.991994,215.951994 246.640008,215.072003 245.056,214.448 C243.471992,213.823997 241.70401,213.512 239.752,213.512 C237.79999,213.512 236.040008,213.823997 234.472,214.448 C232.903992,215.072003 231.560006,215.951994 230.44,217.088 C229.319994,218.224006 228.456003,219.599992 227.848,221.216 C227.239997,222.832008 226.936,224.63199 226.936,226.616 Z M280.312,239 L280.312,214.184 L273.496,214.184 L273.496,227.192 C273.496,229.720013 273.080004,231.535994 272.248,232.64 C271.415996,233.744006 270.072009,234.296 268.216,234.296 C266.583992,234.296 265.448003,233.792005 264.808,232.784 C264.167997,231.775995 263.848,230.24801 263.848,228.2 L263.848,214.184 L257.032,214.184 L257.032,229.448 C257.032,230.984008 257.167999,232.383994 257.44,233.648 C257.712001,234.912006 258.183997,235.983996 258.856,236.864 C259.528003,237.744004 260.447994,238.423998 261.616,238.904 C262.784006,239.384002 264.279991,239.624 266.104,239.624 C267.544007,239.624 268.951993,239.304003 270.328,238.664 C271.704007,238.023997 272.823996,236.984007 273.688,235.544 L273.832,235.544 L273.832,239 L280.312,239 Z M285.496,214.184 L285.496,239 L292.312,239 L292.312,227.816 C292.312,226.695994 292.423999,225.656005 292.648,224.696 C292.872001,223.735995 293.247997,222.896004 293.776,222.176 C294.304003,221.455996 294.999996,220.888002 295.864,220.472 C296.728004,220.055998 297.783994,219.848 299.032,219.848 C299.448002,219.848 299.879998,219.872 300.328,219.92 C300.776002,219.968 301.159998,220.024 301.48,220.088 L301.48,213.752 C300.935997,213.591999 300.440002,213.512 299.992,213.512 C299.127996,213.512 298.296004,213.639999 297.496,213.896 C296.695996,214.152001 295.944004,214.512 295.24,214.976 C294.535996,215.440002 293.912003,215.999997 293.368,216.656 C292.823997,217.312003 292.392002,218.023996 292.072,218.792 L291.976,218.792 L291.976,214.184 L285.496,214.184 Z M162.688,277.856 L162.688,267.584 L168.544,267.584 C169.408004,267.584 170.239996,267.647999 171.04,267.776 C171.840004,267.904001 172.543997,268.151998 173.152,268.52 C173.760003,268.888002 174.247998,269.407997 174.616,270.08 C174.984002,270.752003 175.168,271.631995 175.168,272.72 C175.168,273.808005 174.984002,274.687997 174.616,275.36 C174.247998,276.032003 173.760003,276.551998 173.152,276.92 C172.543997,277.288002 171.840004,277.535999 171.04,277.664 C170.239996,277.792001 169.408004,277.856 168.544,277.856 L162.688,277.856 Z M155.152,261.728 L155.152,296 L162.688,296 L162.688,283.712 L170.608,283.712 C172.752011,283.712 174.575992,283.400003 176.08,282.776 C177.584008,282.151997 178.807995,281.328005 179.752,280.304 C180.696005,279.279995 181.383998,278.104007 181.816,276.776 C182.248002,275.447993 182.464,274.096007 182.464,272.72 C182.464,271.311993 182.248002,269.952007 181.816,268.64 C181.383998,267.327993 180.696005,266.160005 179.752,265.136 C178.807995,264.111995 177.584008,263.288003 176.08,262.664 C174.575992,262.039997 172.752011,261.728 170.608,261.728 L155.152,261.728 Z M186.64,261.728 L186.64,296 L193.456,296 L193.456,261.728 L186.64,261.728 Z M198.544,278.816 C198.64,277.215992 199.039996,275.888005 199.744,274.832 C200.448004,273.775995 201.343995,272.928003 202.432,272.288 C203.520005,271.647997 204.743993,271.192001 206.104,270.92 C207.464007,270.647999 208.831993,270.512 210.208,270.512 C211.456006,270.512 212.719994,270.599999 214,270.776 C215.280006,270.952001 216.447995,271.295997 217.504,271.808 C218.560005,272.320003 219.423997,273.031995 220.096,273.944 C220.768003,274.856005 221.104,276.063992 221.104,277.568 L221.104,290.48 C221.104,291.600006 221.167999,292.671995 221.296,293.696 C221.424001,294.720005 221.647998,295.487997 221.968,296 L215.056,296 C214.927999,295.615998 214.824,295.224002 214.744,294.824 C214.664,294.423998 214.608,294.016002 214.576,293.6 C213.487995,294.720006 212.208007,295.503998 210.736,295.952 C209.263993,296.400002 207.760008,296.624 206.224,296.624 C205.039994,296.624 203.936005,296.480001 202.912,296.192 C201.887995,295.903999 200.992004,295.456003 200.224,294.848 C199.455996,294.239997 198.856002,293.472005 198.424,292.544 C197.991998,291.615995 197.776,290.512 197.776,289.232 C197.776,287.823993 198.023998,286.664005 198.52,285.752 C199.016002,284.839995 199.655996,284.112003 200.44,283.568 C201.224004,283.023997 202.119995,282.616001 203.128,282.344 C204.136005,282.071999 205.151995,281.856001 206.176,281.696 C206.944004,281.575999 207.702999,281.474 208.452999,281.39 L209.2,281.312 C210.192005,281.216 211.071996,281.072001 211.84,280.88 C212.608004,280.687999 213.215998,280.408002 213.664,280.04 C214.071275,279.705453 214.280199,279.232069 214.290777,278.619835 L214.288,278.432 C214.288,277.695996 214.168001,277.112002 213.928,276.68 C213.687999,276.247998 213.368002,275.912001 212.968,275.672 C212.567998,275.431999 212.104003,275.272 211.576,275.192 C211.047997,275.112 210.480003,275.072 209.872,275.072 C208.527993,275.072 207.472004,275.359997 206.704,275.936 C205.935996,276.512 205.488001,277.471993 205.36,278.816 L198.544,278.816 Z M214.288,283.856 C213.999999,284.112001 213.640002,284.311999 213.208,284.456 C212.775998,284.600001 212.312002,284.72 211.816,284.816 C211.485332,284.88 211.144,284.936889 210.792001,284.986667 L210.256,285.056 C209.711997,285.12 209.168003,285.2 208.624,285.296 C208.111997,285.392 207.608002,285.519999 207.112,285.68 C206.615998,285.840001 206.184002,286.055999 205.816,286.328 C205.447998,286.600001 205.152001,286.943998 204.928,287.36 C204.703999,287.776002 204.592,288.303997 204.592,288.944 C204.592,289.552003 204.703999,290.063998 204.928,290.48 C205.152001,290.896002 205.455998,291.223999 205.84,291.464 C206.224002,291.704001 206.671997,291.872 207.184,291.968 C207.696003,292.064 208.223997,292.112 208.768,292.112 C210.112007,292.112 211.151996,291.888002 211.888,291.44 C212.624004,290.991998 213.167998,290.456003 213.52,289.832 C213.872002,289.207997 214.088,288.576003 214.168,287.936 L214.226776,287.418774 C214.267592,287.013877 214.288,286.674287 214.288,286.4 L214.288,283.856 Z M235.024,271.184 L235.024,263.744 L228.208,263.744 L228.208,271.184 L224.08,271.184 L224.08,275.744 L228.208,275.744 L228.208,290.384 C228.208,291.632006 228.415998,292.639996 228.832,293.408 C229.248002,294.176004 229.815996,294.767998 230.536,295.184 C231.256004,295.600002 232.087995,295.879999 233.032,296.024 C233.976005,296.168001 234.975995,296.24 236.032,296.24 C236.704003,296.24 237.391996,296.224 238.096,296.192 C238.800004,296.16 239.439997,296.096 240.016,296 L240.016,290.72 C239.695998,290.784 239.360002,290.832 239.008,290.864 C238.655998,290.896 238.288002,290.912 237.904,290.912 C236.751994,290.912 235.984002,290.720002 235.6,290.336 C235.215998,289.951998 235.024,289.184006 235.024,288.032 L235.024,275.744 L240.016,275.744 L240.016,271.184 L235.024,271.184 Z M244.768,275.744 L244.768,296 L251.584,296 L251.584,275.744 L256.288,275.744 L256.288,271.184 L251.584,271.184 L251.584,269.696 C251.584,268.671995 251.783998,267.944002 252.184,267.512 C252.584002,267.079998 253.247995,266.864 254.176,266.864 C255.040004,266.864 255.871996,266.912 256.672,267.008 L256.672,261.92 C256.095997,261.888 255.504003,261.848 254.896,261.8 C254.287997,261.752 253.680003,261.728 253.072,261.728 C250.287986,261.728 248.208007,262.431993 246.832,263.84 C245.455993,265.248007 244.768,267.055989 244.768,269.264 L244.768,271.184 L240.688,271.184 L240.688,275.744 L244.768,275.744 Z M265.312,283.616 C265.312,282.623995 265.407999,281.648 265.6,280.688 C265.792001,279.727995 266.119998,278.880004 266.584,278.144 C267.048002,277.407996 267.663996,276.808002 268.432,276.344 C269.200004,275.879998 270.159994,275.648 271.312,275.648 C272.464006,275.648 273.431996,275.879998 274.216,276.344 C275.000004,276.808002 275.623998,277.407996 276.088,278.144 C276.552002,278.880004 276.879999,279.727995 277.072,280.688 C277.264001,281.648 277.36,282.623995 277.36,283.616 C277.36,284.608005 277.264001,285.575995 277.072,286.52 C276.879999,287.464005 276.552002,288.311996 276.088,289.064 C275.623998,289.816004 275.000004,290.415998 274.216,290.864 C273.431996,291.312002 272.464006,291.536 271.312,291.536 C270.159994,291.536 269.200004,291.312002 268.432,290.864 C267.663996,290.415998 267.048002,289.816004 266.584,289.064 C266.119998,288.311996 265.792001,287.464005 265.6,286.52 C265.407999,285.575995 265.312,284.608005 265.312,283.616 Z M258.496,283.616 C258.496,285.60001 258.799997,287.391992 259.408,288.992 C260.016003,290.592008 260.879994,291.959994 262,293.096 C263.120006,294.232006 264.463992,295.103997 266.032,295.712 C267.600008,296.320003 269.35999,296.624 271.312,296.624 C273.26401,296.624 275.031992,296.320003 276.616,295.712 C278.200008,295.103997 279.551994,294.232006 280.672,293.096 C281.792006,291.959994 282.655997,290.592008 283.264,288.992 C283.872003,287.391992 284.176,285.60001 284.176,283.616 C284.176,281.63199 283.872003,279.832008 283.264,278.216 C282.655997,276.599992 281.792006,275.224006 280.672,274.088 C279.551994,272.951994 278.200008,272.072003 276.616,271.448 C275.031992,270.823997 273.26401,270.512 271.312,270.512 C269.35999,270.512 267.600008,270.823997 266.032,271.448 C264.463992,272.072003 263.120006,272.951994 262,274.088 C260.879994,275.224006 260.016003,276.599992 259.408,278.216 C258.799997,279.832008 258.496,281.63199 258.496,283.616 Z M288.592,271.184 L288.592,296 L295.408,296 L295.408,284.816 C295.408,283.695994 295.519999,282.656005 295.744,281.696 C295.968001,280.735995 296.343997,279.896004 296.872,279.176 C297.400003,278.455996 298.095996,277.888002 298.96,277.472 C299.824004,277.055998 300.879994,276.848 302.128,276.848 C302.544002,276.848 302.975998,276.872 303.424,276.92 C303.872002,276.968 304.255998,277.024 304.576,277.088 L304.576,270.752 C304.031997,270.591999 303.536002,270.512 303.088,270.512 C302.223996,270.512 301.392004,270.639999 300.592,270.896 C299.791996,271.152001 299.040004,271.512 298.336,271.976 C297.631996,272.440002 297.008003,272.999997 296.464,273.656 C295.919997,274.312003 295.488002,275.023996 295.168,275.792 L295.072,275.792 L295.072,271.184 L288.592,271.184 Z M307.456,271.184 L313.888,271.184 L313.888,274.544 L313.984,274.544 C314.880004,273.263994 315.959994,272.272004 317.224,271.568 C318.488006,270.863996 319.935992,270.512 321.568,270.512 C323.136008,270.512 324.567994,270.815997 325.864,271.424 C327.160006,272.032003 328.143997,273.103992 328.816,274.64 C329.552004,273.551995 330.551994,272.592004 331.816,271.76 C333.080006,270.927996 334.575991,270.512 336.304,270.512 C337.616007,270.512 338.831994,270.671998 339.952,270.992 C341.072006,271.312002 342.031996,271.823996 342.832,272.528 C343.632004,273.232004 344.255998,274.151994 344.704,275.288 C345.152002,276.424006 345.376,277.791992 345.376,279.392 L345.376,296 L338.56,296 L338.56,281.936 C338.56,281.103996 338.528,280.320004 338.464,279.584 C338.4,278.847996 338.224001,278.208003 337.936,277.664 C337.647999,277.119997 337.224003,276.688002 336.664,276.368 C336.103997,276.047998 335.344005,275.888 334.384,275.888 C333.423995,275.888 332.648003,276.071998 332.056,276.44 C331.463997,276.808002 331.000002,277.287997 330.664,277.88 C330.327998,278.472003 330.104001,279.143996 329.992,279.896 C329.879999,280.648004 329.824,281.407996 329.824,282.176 L329.824,296 L323.008,296 L323.008,282.08 C323.008,281.343996 322.992,280.616004 322.96,279.896 C322.928,279.175996 322.792001,278.512 322.552,277.904 C322.311999,277.295997 321.912003,276.808002 321.352,276.44 C320.791997,276.071998 319.968005,275.888 318.88,275.888 C318.559998,275.888 318.136003,275.959999 317.608,276.104 C317.079997,276.248001 316.568002,276.519998 316.072,276.92 C315.575998,277.320002 315.152002,277.895996 314.8,278.648 C314.447998,279.400004 314.272,280.383994 314.272,281.6 L314.272,296 L307.456,296 L307.456,271.184 Z" id="YourPlatform" fill="#FFFFFF" fill-rule="nonzero"></path>
            <path d="M584.048,116.248 L591.344,116.248 C591.119999,114.26399 590.576004,112.504008 589.712,110.968 C588.847996,109.431992 587.752007,108.144005 586.424,107.104 C585.095993,106.063995 583.592008,105.272003 581.912,104.728 C580.231992,104.183997 578.448009,103.912 576.56,103.912 C573.935987,103.912 571.57601,104.375995 569.48,105.304 C567.38399,106.232005 565.616007,107.511992 564.176,109.144 C562.735993,110.776008 561.632004,112.687989 560.864,114.88 C560.095996,117.072011 559.712,119.447987 559.712,122.008 C559.712,124.504012 560.095996,126.831989 560.864,128.992 C561.632004,131.152011 562.735993,133.031992 564.176,134.632 C565.616007,136.232008 567.38399,137.487995 569.48,138.4 C571.57601,139.312005 573.935987,139.768 576.56,139.768 C578.672011,139.768 580.607991,139.448003 582.368,138.808 C584.128009,138.167997 585.663993,137.240006 586.976,136.024 C588.288007,134.807994 589.343996,133.336009 590.144,131.608 C590.944004,129.879991 591.439999,127.944011 591.632,125.8 L584.336,125.8 C584.047999,128.104012 583.256006,129.959993 581.96,131.368 C580.663994,132.776007 578.864012,133.48 576.56,133.48 C574.863992,133.48 573.424006,133.152003 572.24,132.496 C571.055994,131.839997 570.096004,130.968005 569.36,129.88 C568.623996,128.791995 568.088002,127.568007 567.752,126.208 C567.415998,124.847993 567.248,123.448007 567.248,122.008 C567.248,120.503992 567.415998,119.048007 567.752,117.64 C568.088002,116.231993 568.623996,114.976006 569.36,113.872 C570.096004,112.767994 571.055994,111.888003 572.24,111.232 C573.424006,110.575997 574.863992,110.248 576.56,110.248 C577.488005,110.248 578.375996,110.399998 579.224,110.704 C580.072004,111.008002 580.831997,111.431997 581.504,111.976 C582.176003,112.520003 582.735998,113.151996 583.184,113.872 C583.632002,114.592004 583.919999,115.383996 584.048,116.248 Z M595.76,121.816 C595.856,120.215992 596.255996,118.888005 596.96,117.832 C597.664004,116.775995 598.559995,115.928003 599.648,115.288 C600.736005,114.647997 601.959993,114.192001 603.32,113.92 C604.680007,113.647999 606.047993,113.512 607.424,113.512 C608.672006,113.512 609.935994,113.599999 611.216,113.776 C612.496006,113.952001 613.663995,114.295997 614.72,114.808 C615.776005,115.320003 616.639997,116.031995 617.312,116.944 C617.984003,117.856005 618.32,119.063992 618.32,120.568 L618.32,133.48 C618.32,134.600006 618.383999,135.671995 618.512,136.696 C618.640001,137.720005 618.863998,138.487997 619.184,139 L612.272,139 C612.143999,138.615998 612.04,138.224002 611.96,137.824 C611.88,137.423998 611.824,137.016002 611.792,136.6 C610.703995,137.720006 609.424007,138.503998 607.952,138.952 C606.479993,139.400002 604.976008,139.624 603.44,139.624 C602.255994,139.624 601.152005,139.480001 600.128,139.192 C599.103995,138.903999 598.208004,138.456003 597.44,137.848 C596.671996,137.239997 596.072002,136.472005 595.64,135.544 C595.207998,134.615995 594.992,133.512 594.992,132.232 C594.992,130.823993 595.239998,129.664005 595.736,128.752 C596.232002,127.839995 596.871996,127.112003 597.656,126.568 C598.440004,126.023997 599.335995,125.616001 600.344,125.344 C601.352005,125.071999 602.367995,124.856001 603.392,124.696 C604.160004,124.575999 604.918999,124.474 605.668999,124.39 L606.416,124.312 C607.408005,124.216 608.287996,124.072001 609.056,123.88 C609.824004,123.687999 610.431998,123.408002 610.88,123.04 C611.287275,122.705453 611.496199,122.232069 611.506777,121.619835 L611.504,121.432 C611.504,120.695996 611.384001,120.112002 611.144,119.68 C610.903999,119.247998 610.584002,118.912001 610.184,118.672 C609.783998,118.431999 609.320003,118.272 608.792,118.192 C608.263997,118.112 607.696003,118.072 607.088,118.072 C605.743993,118.072 604.688004,118.359997 603.92,118.936 C603.151996,119.512 602.704001,120.471993 602.576,121.816 L595.76,121.816 Z M611.504,126.856 C611.215999,127.112001 610.856002,127.311999 610.424,127.456 C609.991998,127.600001 609.528002,127.72 609.032,127.816 C608.701332,127.88 608.36,127.936889 608.008001,127.986667 L607.472,128.056 C606.927997,128.12 606.384003,128.2 605.84,128.296 C605.327997,128.392 604.824002,128.519999 604.328,128.68 C603.831998,128.840001 603.400002,129.055999 603.032,129.328 C602.663998,129.600001 602.368001,129.943998 602.144,130.36 C601.919999,130.776002 601.808,131.303997 601.808,131.944 C601.808,132.552003 601.919999,133.063998 602.144,133.48 C602.368001,133.896002 602.671998,134.223999 603.056,134.464 C603.440002,134.704001 603.887997,134.872 604.4,134.968 C604.912003,135.064 605.439997,135.112 605.984,135.112 C607.328007,135.112 608.367996,134.888002 609.104,134.44 C609.840004,133.991998 610.383998,133.456003 610.736,132.832 C611.088002,132.207997 611.304,131.576003 611.384,130.936 L611.442776,130.418774 C611.483592,130.013877 611.504,129.674287 611.504,129.4 L611.504,126.856 Z M628.88,130.936 L622.4,130.936 C622.464,132.600008 622.839997,133.983994 623.528,135.088 C624.216003,136.192006 625.095995,137.079997 626.168,137.752 C627.240005,138.424003 628.463993,138.903999 629.84,139.192 C631.216007,139.480001 632.623993,139.624 634.064,139.624 C635.472007,139.624 636.855993,139.488001 638.216,139.216 C639.576007,138.943999 640.783995,138.472003 641.84,137.8 C642.896005,137.127997 643.751997,136.240006 644.408,135.136 C645.064003,134.031994 645.392,132.664008 645.392,131.032 C645.392,129.879994 645.168002,128.912004 644.72,128.128 C644.271998,127.343996 643.680004,126.688003 642.944,126.16 C642.207996,125.631997 641.368005,125.208002 640.424,124.888 C639.479995,124.567998 638.512005,124.296001 637.52,124.072 C636.559995,123.847999 635.616005,123.640001 634.688,123.448 C633.759995,123.255999 632.936004,123.040001 632.216,122.8 C631.495996,122.559999 630.912002,122.248002 630.464,121.864 C630.015998,121.479998 629.792,120.984003 629.792,120.376 C629.792,119.863997 629.919999,119.456002 630.176,119.152 C630.432001,118.847998 630.743998,118.616001 631.112,118.456 C631.480002,118.295999 631.887998,118.192 632.336,118.144 C632.784002,118.096 633.199998,118.072 633.584,118.072 C634.800006,118.072 635.855996,118.303998 636.752,118.768 C637.648004,119.232002 638.144,120.119993 638.24,121.432 L644.72,121.432 C644.591999,119.895992 644.200003,118.624005 643.544,117.616 C642.887997,116.607995 642.064005,115.800003 641.072,115.192 C640.079995,114.583997 638.952006,114.152001 637.688,113.896 C636.423994,113.639999 635.120007,113.512 633.776,113.512 C632.431993,113.512 631.120006,113.631999 629.84,113.872 C628.559994,114.112001 627.408005,114.527997 626.384,115.12 C625.359995,115.712003 624.536003,116.519995 623.912,117.544 C623.287997,118.568005 622.976,119.879992 622.976,121.48 C622.976,122.568005 623.199998,123.487996 623.648,124.24 C624.096002,124.992004 624.687996,125.615998 625.424,126.112 C626.160004,126.608002 626.999995,127.007998 627.944,127.312 C628.888005,127.616002 629.855995,127.879999 630.848,128.104 C633.280012,128.616003 635.175993,129.127997 636.536,129.64 C637.896007,130.152003 638.576,130.919995 638.576,131.944 C638.576,132.552003 638.432001,133.055998 638.144,133.456 C637.855999,133.856002 637.496002,134.175999 637.064,134.416 C636.631998,134.656001 636.152003,134.831999 635.624,134.944 C635.095997,135.056001 634.592002,135.112 634.112,135.112 C633.439997,135.112 632.792003,135.032001 632.168,134.872 C631.543997,134.711999 630.992002,134.464002 630.512,134.128 C630.031998,133.791998 629.640002,133.360003 629.336,132.832 C629.031998,132.303997 628.88,131.672004 628.88,130.936 Z M666.08,123.928 L654.992,123.928 C655.024,123.447998 655.127999,122.904003 655.304,122.296 C655.480001,121.687997 655.783998,121.112003 656.216,120.568 C656.648002,120.023997 657.223996,119.568002 657.944,119.2 C658.664004,118.831998 659.567995,118.648 660.656,118.648 C662.320008,118.648 663.559996,119.095996 664.376,119.992 C665.192004,120.888004 665.759998,122.199991 666.08,123.928 Z M654.992,128.248 L672.896,128.248 C673.024001,126.32799 672.864002,124.488009 672.416,122.728 C671.967998,120.967991 671.240005,119.400007 670.232,118.024 C669.223995,116.647993 667.936008,115.552004 666.368,114.736 C664.799992,113.919996 662.960011,113.512 660.848,113.512 C658.959991,113.512 657.240008,113.847997 655.688,114.52 C654.135992,115.192003 652.800006,116.111994 651.68,117.28 C650.559994,118.448006 649.696003,119.831992 649.088,121.432 C648.479997,123.032008 648.176,124.759991 648.176,126.616 C648.176,128.53601 648.471997,130.295992 649.064,131.896 C649.656003,133.496008 650.495995,134.871994 651.584,136.024 C652.672005,137.176006 653.999992,138.063997 655.568,138.688 C657.136008,139.312003 658.89599,139.624 660.848,139.624 C663.664014,139.624 666.06399,138.984006 668.048,137.704 C670.03201,136.423994 671.503995,134.296015 672.464,131.32 L666.464,131.32 C666.239999,132.088004 665.632005,132.815997 664.64,133.504 C663.647995,134.192003 662.464007,134.536 661.088,134.536 C659.16799,134.536 657.696005,134.040005 656.672,133.048 C655.647995,132.055995 655.088,130.456011 654.992,128.248 Z M682.208,130.936 C682.208,131.672004 682.359998,132.303997 682.664,132.832 C682.968002,133.360003 683.359998,133.791998 683.84,134.128 C684.320002,134.464002 684.871997,134.711999 685.496,134.872 C686.120003,135.032001 686.767997,135.112 687.44,135.112 C687.920002,135.112 688.423997,135.056001 688.952,134.944 C689.480003,134.831999 689.959998,134.656001 690.392,134.416 C690.824002,134.175999 691.183999,133.856002 691.472,133.456 C691.760001,133.055998 691.904,132.552003 691.904,131.944 C691.904,130.919995 691.224007,130.152003 689.864,129.64 C688.503993,129.127997 686.608012,128.616003 684.176,128.104 C683.183995,127.879999 682.216005,127.616002 681.272,127.312 C680.327995,127.007998 679.488004,126.608002 678.752,126.112 C678.015996,125.615998 677.424002,124.992004 676.976,124.24 C676.527998,123.487996 676.304,122.568005 676.304,121.48 C676.304,119.879992 676.615997,118.568005 677.24,117.544 C677.864003,116.519995 678.687995,115.712003 679.712,115.12 C680.736005,114.527997 681.887994,114.112001 683.168,113.872 C684.448006,113.631999 685.759993,113.512 687.104,113.512 C688.448007,113.512 689.751994,113.639999 691.016,113.896 C692.280006,114.152001 693.407995,114.583997 694.4,115.192 C695.392005,115.800003 696.215997,116.607995 696.872,117.616 C697.528003,118.624005 697.919999,119.895992 698.048,121.432 L691.568,121.432 C691.472,120.119993 690.976004,119.232002 690.08,118.768 C689.183996,118.303998 688.128006,118.072 686.912,118.072 C686.527998,118.072 686.112002,118.096 685.664,118.144 C685.215998,118.192 684.808002,118.295999 684.44,118.456 C684.071998,118.616001 683.760001,118.847998 683.504,119.152 C683.247999,119.456002 683.12,119.863997 683.12,120.376 C683.12,120.984003 683.343998,121.479998 683.792,121.864 C684.240002,122.248002 684.823996,122.559999 685.544,122.8 C686.264004,123.040001 687.087995,123.255999 688.016,123.448 C688.944005,123.640001 689.887995,123.847999 690.848,124.072 C691.840005,124.296001 692.807995,124.567998 693.752,124.888 C694.696005,125.208002 695.535996,125.631997 696.272,126.16 C697.008004,126.688003 697.599998,127.343996 698.048,128.128 C698.496002,128.912004 698.72,129.879994 698.72,131.032 C698.72,132.664008 698.392003,134.031994 697.736,135.136 C697.079997,136.240006 696.224005,137.127997 695.168,137.8 C694.111995,138.472003 692.904007,138.943999 691.544,139.216 C690.183993,139.488001 688.800007,139.624 687.392,139.624 C685.951993,139.624 684.544007,139.480001 683.168,139.192 C681.791993,138.903999 680.568005,138.424003 679.496,137.752 C678.423995,137.079997 677.544003,136.192006 676.856,135.088 C676.167997,133.983994 675.792,132.600008 675.728,130.936 L682.208,130.936 Z" id="Cases" fill="#FFFFFF" fill-rule="nonzero"></path>
            <path d="M527.456,351.664 L527.456,330.064 L532.832,330.064 C534.688009,330.064 536.247994,330.327997 537.512,330.856 C538.776006,331.384003 539.791996,332.143995 540.56,333.136 C541.328004,334.128005 541.879998,335.319993 542.216,336.712 C542.552002,338.104007 542.72,339.663991 542.72,341.392 C542.72,343.280009 542.480002,344.879993 542,346.192 C541.519998,347.504007 540.880004,348.567996 540.08,349.384 C539.279996,350.200004 538.368005,350.783998 537.344,351.136 C536.319995,351.488002 535.264005,351.664 534.176,351.664 L527.456,351.664 Z M519.92,323.728 L519.92,358 L534.704,358 C537.328013,358 539.60799,357.560004 541.544,356.68 C543.48001,355.799996 545.095994,354.592008 546.392,353.056 C547.688006,351.519992 548.655997,349.696011 549.296,347.584 C549.936003,345.471989 550.256,343.168012 550.256,340.672 C550.256,337.823986 549.864004,335.344011 549.08,333.232 C548.295996,331.119989 547.208007,329.360007 545.816,327.952 C544.423993,326.543993 542.77601,325.488004 540.872,324.784 C538.96799,324.079996 536.912011,323.728 534.704,323.728 L519.92,323.728 Z M571.472,342.928 L560.384,342.928 C560.416,342.447998 560.519999,341.904003 560.696,341.296 C560.872001,340.687997 561.175998,340.112003 561.608,339.568 C562.040002,339.023997 562.615996,338.568002 563.336,338.2 C564.056004,337.831998 564.959995,337.648 566.048,337.648 C567.712008,337.648 568.951996,338.095996 569.768,338.992 C570.584004,339.888004 571.151998,341.199991 571.472,342.928 Z M560.384,347.248 L578.288,347.248 C578.416001,345.32799 578.256002,343.488009 577.808,341.728 C577.359998,339.967991 576.632005,338.400007 575.624,337.024 C574.615995,335.647993 573.328008,334.552004 571.76,333.736 C570.191992,332.919996 568.352011,332.512 566.24,332.512 C564.351991,332.512 562.632008,332.847997 561.08,333.52 C559.527992,334.192003 558.192006,335.111994 557.072,336.28 C555.951994,337.448006 555.088003,338.831992 554.48,340.432 C553.871997,342.032008 553.568,343.759991 553.568,345.616 C553.568,347.53601 553.863997,349.295992 554.456,350.896 C555.048003,352.496008 555.887995,353.871994 556.976,355.024 C558.064005,356.176006 559.391992,357.063997 560.96,357.688 C562.528008,358.312003 564.28799,358.624 566.24,358.624 C569.056014,358.624 571.45599,357.984006 573.44,356.704 C575.42401,355.423994 576.895995,353.296015 577.856,350.32 L571.856,350.32 C571.631999,351.088004 571.024005,351.815997 570.032,352.504 C569.039995,353.192003 567.856007,353.536 566.48,353.536 C564.55999,353.536 563.088005,353.040005 562.064,352.048 C561.039995,351.055995 560.48,349.456011 560.384,347.248 Z M599.216,341.92 L605.888,341.92 C605.792,340.319992 605.408003,338.936006 604.736,337.768 C604.063997,336.599994 603.192005,335.624004 602.12,334.84 C601.047995,334.055996 599.832007,333.472002 598.472,333.088 C597.111993,332.703998 595.696007,332.512 594.224,332.512 C592.20799,332.512 590.416008,332.847997 588.848,333.52 C587.279992,334.192003 585.952005,335.127994 584.864,336.328 C583.775995,337.528006 582.952003,338.951992 582.392,340.6 C581.831997,342.248008 581.552,344.03199 581.552,345.952 C581.552,347.808009 581.855997,349.512 582.464,351.064 C583.072003,352.616008 583.919995,353.951994 585.008,355.072 C586.096005,356.192006 587.415992,357.063997 588.968,357.688 C590.520008,358.312003 592.223991,358.624 594.08,358.624 C597.376016,358.624 600.079989,357.760009 602.192,356.032 C604.304011,354.303991 605.583998,351.792016 606.032,348.496 L599.456,348.496 C599.231999,350.032008 598.680004,351.255995 597.8,352.168 C596.919996,353.080005 595.664008,353.536 594.032,353.536 C592.975995,353.536 592.080004,353.296002 591.344,352.816 C590.607996,352.335998 590.024002,351.720004 589.592,350.968 C589.159998,350.215996 588.848001,349.376005 588.656,348.448 C588.463999,347.519995 588.368,346.608004 588.368,345.712 C588.368,344.783995 588.463999,343.848005 588.656,342.904 C588.848001,341.959995 589.175998,341.096004 589.64,340.312 C590.104002,339.527996 590.703996,338.888002 591.44,338.392 C592.176004,337.895998 593.087995,337.648 594.176,337.648 C597.088015,337.648 598.767998,339.071986 599.216,341.92 Z M616.88,329.344 L616.88,323.728 L610.064,323.728 L610.064,329.344 L616.88,329.344 Z M610.064,333.184 L610.064,358 L616.88,358 L616.88,333.184 L610.064,333.184 Z M627.536,349.936 L621.056,349.936 C621.12,351.600008 621.495997,352.983994 622.184,354.088 C622.872003,355.192006 623.751995,356.079997 624.824,356.752 C625.896005,357.424003 627.119993,357.903999 628.496,358.192 C629.872007,358.480001 631.279993,358.624 632.72,358.624 C634.128007,358.624 635.511993,358.488001 636.872,358.216 C638.232007,357.943999 639.439995,357.472003 640.496,356.8 C641.552005,356.127997 642.407997,355.240006 643.064,354.136 C643.720003,353.031994 644.048,351.664008 644.048,350.032 C644.048,348.879994 643.824002,347.912004 643.376,347.128 C642.927998,346.343996 642.336004,345.688003 641.6,345.16 C640.863996,344.631997 640.024005,344.208002 639.08,343.888 C638.135995,343.567998 637.168005,343.296001 636.176,343.072 C635.215995,342.847999 634.272005,342.640001 633.344,342.448 C632.415995,342.255999 631.592004,342.040001 630.872,341.8 C630.151996,341.559999 629.568002,341.248002 629.12,340.864 C628.671998,340.479998 628.448,339.984003 628.448,339.376 C628.448,338.863997 628.575999,338.456002 628.832,338.152 C629.088001,337.847998 629.399998,337.616001 629.768,337.456 C630.136002,337.295999 630.543998,337.192 630.992,337.144 C631.440002,337.096 631.855998,337.072 632.24,337.072 C633.456006,337.072 634.511996,337.303998 635.408,337.768 C636.304004,338.232002 636.8,339.119993 636.896,340.432 L643.376,340.432 C643.247999,338.895992 642.856003,337.624005 642.2,336.616 C641.543997,335.607995 640.720005,334.800003 639.728,334.192 C638.735995,333.583997 637.608006,333.152001 636.344,332.896 C635.079994,332.639999 633.776007,332.512 632.432,332.512 C631.087993,332.512 629.776006,332.631999 628.496,332.872 C627.215994,333.112001 626.064005,333.527997 625.04,334.12 C624.015995,334.712003 623.192003,335.519995 622.568,336.544 C621.943997,337.568005 621.632,338.879992 621.632,340.48 C621.632,341.568005 621.855998,342.487996 622.304,343.24 C622.752002,343.992004 623.343996,344.615998 624.08,345.112 C624.816004,345.608002 625.655995,346.007998 626.6,346.312 C627.544005,346.616002 628.511995,346.879999 629.504,347.104 C631.936012,347.616003 633.831993,348.127997 635.192,348.64 C636.552007,349.152003 637.232,349.919995 637.232,350.944 C637.232,351.552003 637.088001,352.055998 636.8,352.456 C636.511999,352.856002 636.152002,353.175999 635.72,353.416 C635.287998,353.656001 634.808003,353.831999 634.28,353.944 C633.751997,354.056001 633.248002,354.112 632.768,354.112 C632.095997,354.112 631.448003,354.032001 630.824,353.872 C630.199997,353.711999 629.648002,353.464002 629.168,353.128 C628.687998,352.791998 628.296002,352.360003 627.992,351.832 C627.687998,351.303997 627.536,350.672004 627.536,349.936 Z M655.04,329.344 L655.04,323.728 L648.224,323.728 L648.224,329.344 L655.04,329.344 Z M648.224,333.184 L648.224,358 L655.04,358 L655.04,333.184 L648.224,333.184 Z M666.464,345.616 C666.464,344.623995 666.559999,343.648 666.752,342.688 C666.944001,341.727995 667.271998,340.880004 667.736,340.144 C668.200002,339.407996 668.815996,338.808002 669.584,338.344 C670.352004,337.879998 671.311994,337.648 672.464,337.648 C673.616006,337.648 674.583996,337.879998 675.368,338.344 C676.152004,338.808002 676.775998,339.407996 677.24,340.144 C677.704002,340.880004 678.031999,341.727995 678.224,342.688 C678.416001,343.648 678.512,344.623995 678.512,345.616 C678.512,346.608005 678.416001,347.575995 678.224,348.52 C678.031999,349.464005 677.704002,350.311996 677.24,351.064 C676.775998,351.816004 676.152004,352.415998 675.368,352.864 C674.583996,353.312002 673.616006,353.536 672.464,353.536 C671.311994,353.536 670.352004,353.312002 669.584,352.864 C668.815996,352.415998 668.200002,351.816004 667.736,351.064 C667.271998,350.311996 666.944001,349.464005 666.752,348.52 C666.559999,347.575995 666.464,346.608005 666.464,345.616 Z M659.648,345.616 C659.648,347.60001 659.951997,349.391992 660.56,350.992 C661.168003,352.592008 662.031994,353.959994 663.152,355.096 C664.272006,356.232006 665.615992,357.103997 667.184,357.712 C668.752008,358.320003 670.51199,358.624 672.464,358.624 C674.41601,358.624 676.183992,358.320003 677.768,357.712 C679.352008,357.103997 680.703994,356.232006 681.824,355.096 C682.944006,353.959994 683.807997,352.592008 684.416,350.992 C685.024003,349.391992 685.328,347.60001 685.328,345.616 C685.328,343.63199 685.024003,341.832008 684.416,340.216 C683.807997,338.599992 682.944006,337.224006 681.824,336.088 C680.703994,334.951994 679.352008,334.072003 677.768,333.448 C676.183992,332.823997 674.41601,332.512 672.464,332.512 C670.51199,332.512 668.752008,332.823997 667.184,333.448 C665.615992,334.072003 664.272006,334.951994 663.152,336.088 C662.031994,337.224006 661.168003,338.599992 660.56,340.216 C659.951997,341.832008 659.648,343.63199 659.648,345.616 Z M689.744,333.184 L689.744,358 L696.56,358 L696.56,344.992 C696.56,342.463987 696.975996,340.648006 697.808,339.544 C698.640004,338.439994 699.983991,337.888 701.84,337.888 C703.472008,337.888 704.607997,338.391995 705.248,339.4 C705.888003,340.408005 706.208,341.93599 706.208,343.984 L706.208,358 L713.024,358 L713.024,342.736 C713.024,341.199992 712.888001,339.800006 712.616,338.536 C712.343999,337.271994 711.872003,336.200004 711.2,335.32 C710.527997,334.439996 709.608006,333.752002 708.44,333.256 C707.271994,332.759998 705.776009,332.512 703.952,332.512 C702.511993,332.512 701.104007,332.839997 699.728,333.496 C698.351993,334.152003 697.232004,335.199993 696.368,336.64 L696.224,336.64 L696.224,333.184 L689.744,333.184 Z M723.488,349.936 C723.488,350.672004 723.639998,351.303997 723.944,351.832 C724.248002,352.360003 724.639998,352.791998 725.12,353.128 C725.600002,353.464002 726.151997,353.711999 726.776,353.872 C727.400003,354.032001 728.047997,354.112 728.72,354.112 C729.200002,354.112 729.703997,354.056001 730.232,353.944 C730.760003,353.831999 731.239998,353.656001 731.672,353.416 C732.104002,353.175999 732.463999,352.856002 732.752,352.456 C733.040001,352.055998 733.184,351.552003 733.184,350.944 C733.184,349.919995 732.504007,349.152003 731.144,348.64 C729.783993,348.127997 727.888012,347.616003 725.456,347.104 C724.463995,346.879999 723.496005,346.616002 722.552,346.312 C721.607995,346.007998 720.768004,345.608002 720.032,345.112 C719.295996,344.615998 718.704002,343.992004 718.256,343.24 C717.807998,342.487996 717.584,341.568005 717.584,340.48 C717.584,338.879992 717.895997,337.568005 718.52,336.544 C719.144003,335.519995 719.967995,334.712003 720.992,334.12 C722.016005,333.527997 723.167994,333.112001 724.448,332.872 C725.728006,332.631999 727.039993,332.512 728.384,332.512 C729.728007,332.512 731.031994,332.639999 732.296,332.896 C733.560006,333.152001 734.687995,333.583997 735.68,334.192 C736.672005,334.800003 737.495997,335.607995 738.152,336.616 C738.808003,337.624005 739.199999,338.895992 739.328,340.432 L732.848,340.432 C732.752,339.119993 732.256004,338.232002 731.36,337.768 C730.463996,337.303998 729.408006,337.072 728.192,337.072 C727.807998,337.072 727.392002,337.096 726.944,337.144 C726.495998,337.192 726.088002,337.295999 725.72,337.456 C725.351998,337.616001 725.040001,337.847998 724.784,338.152 C724.527999,338.456002 724.4,338.863997 724.4,339.376 C724.4,339.984003 724.623998,340.479998 725.072,340.864 C725.520002,341.248002 726.103996,341.559999 726.824,341.8 C727.544004,342.040001 728.367995,342.255999 729.296,342.448 C730.224005,342.640001 731.167995,342.847999 732.128,343.072 C733.120005,343.296001 734.087995,343.567998 735.032,343.888 C735.976005,344.208002 736.815996,344.631997 737.552,345.16 C738.288004,345.688003 738.879998,346.343996 739.328,347.128 C739.776002,347.912004 740,348.879994 740,350.032 C740,351.664008 739.672003,353.031994 739.016,354.136 C738.359997,355.240006 737.504005,356.127997 736.448,356.8 C735.391995,357.472003 734.184007,357.943999 732.824,358.216 C731.463993,358.488001 730.080007,358.624 728.672,358.624 C727.231993,358.624 725.824007,358.480001 724.448,358.192 C723.071993,357.903999 721.848005,357.424003 720.776,356.752 C719.703995,356.079997 718.824003,355.192006 718.136,354.088 C717.447997,352.983994 717.072,351.600008 717.008,349.936 L723.488,349.936 Z" id="Decisions" fill="#009AFF" fill-rule="nonzero"></path>
            <circle id="Oval" fill="#9013FE" cx="1122.5" cy="51.5" r="10.5"></circle>
            <circle id="Oval" fill="#9013FE" cx="810.5" cy="239.5" r="10.5"></circle>
            <circle id="Oval" fill="#9013FE" cx="1101.5" cy="409.5" r="10.5"></circle>
            <polygon id="Line-20" fill="#009AFF" fill-rule="nonzero" points="707.5 248.5 741.5 265.5 707.5 282.5 707.5 268.5 509.5 268.5 509.5 262.5 707.5 262.5"></polygon>
            <polygon id="Line-20" fill="#FFFFFF" fill-rule="nonzero" points="708.5 177.5 742.5 194.5 708.5 211.5 708.5 197.5 510.5 197.5 510.5 191.5 708.5 191.5"></polygon>
        </g>
    </g>
</svg>