<?xml version="1.0" encoding="UTF-8"?>
<svg width="1200px" height="790px" viewBox="0 0 1200 790" version="1.1" xmlns="http://www.w3.org/2000/svg" xmlns:xlink="http://www.w3.org/1999/xlink">
    <!-- Generator: Sketch 58 (84663) - https://sketch.com -->
    <title>website-integrations1B</title>
    <desc>Created with Sketch.</desc>
    <defs>
        <linearGradient x1="50%" y1="0%" x2="50%" y2="100%" id="linearGradient1">
            <stop stop-color="#8400DB" offset="0%"></stop>
            <stop stop-color="#4D00B4" offset="100%"></stop>
        </linearGradient>
        <linearGradient x1="0%" y1="49.9999777%" x2="100.000024%" y2="49.9999777%" id="linearGradient2">
            <stop stop-color="#A3A2A5" offset="0%"></stop>
            <stop stop-color="#9F9EA0" offset="27.05%"></stop>
            <stop stop-color="#929194" offset="56.07%"></stop>
            <stop stop-color="#7C7C80" offset="85.92%"></stop>
            <stop stop-color="#707073" offset="100%"></stop>
        </linearGradient>
        <linearGradient x1="-0.661193461%" y1="79.9148322%" x2="70.3915924%" y2="24.2689758%" id="linearGradient3">
            <stop stop-color="#969598" offset="0%"></stop>
            <stop stop-color="#908F92" offset="33.96%"></stop>
            <stop stop-color="#7F7F82" offset="79.17%"></stop>
            <stop stop-color="#757578" offset="100%"></stop>
        </linearGradient>
        <linearGradient x1="6.06021085%" y1="-2.83492963%" x2="50.00952%" y2="85.0511445%" id="linearGradient4">
            <stop stop-color="#9E9EA0" offset="0%"></stop>
            <stop stop-color="#9B9B9D" offset="27.59%"></stop>
            <stop stop-color="#919194" offset="49.4%"></stop>
            <stop stop-color="#808083" offset="69.23%"></stop>
            <stop stop-color="#69696D" offset="87.77%"></stop>
            <stop stop-color="#55565A" offset="100%"></stop>
        </linearGradient>
    </defs>
    <g id="website-integrations1B" stroke="none" stroke-width="1" fill="none" fill-rule="evenodd">
        <path d="M312.5,646 C450.84733,646 563,533.84733 563,395.5 C563,257.15267 450.84733,145 312.5,145 C174.15267,145 62,257.15267 62,395.5 C62,533.84733 174.15267,646 312.5,646 Z M312.5,640 C177.466379,640 68,530.533621 68,395.5 C68,260.466379 177.466379,151 312.5,151 C447.533621,151 557,260.466379 557,395.5 C557,530.533621 447.533621,640 312.5,640 Z" id="Oval" fill="#9013FE" fill-rule="nonzero"></path>
        <circle id="Oval" fill="url(#linearGradient1)" cx="312.5" cy="395.5" r="244.5"></circle>
        <g id="Group-2" transform="translate(758.000000, 261.000000)">
            <circle id="Oval" fill="#FFFFFF" cx="135" cy="135" r="135"></circle>
            <g id="kleros-symbol" transform="translate(51.000000, 60.000000)" fill-rule="nonzero">
                <polygon id="Path" fill="#45464D" opacity="0.7" points="133.381411 3.77718897 49.0824928 0 0 61.5574073 34.3923467 143.824633 119.534475 149 168 79.7930126"></polygon>
                <g id="Group">
                    <polygon id="Path" fill="#656569" points="167.847575 79.7154168 119.890532 30.9128112 107.277449 124.531491"></polygon>
                    <polygon id="Path" fill="url(#linearGradient2)" points="32.7506551 68.7388056 119.890532 30.9128112 107.277449 124.531491"></polygon>
                    <polygon id="Path" fill="url(#linearGradient3)" points="119.890532 30.9128112 49.0898492 0.0698111888 32.7506551 68.7388056"></polygon>
                    <polygon id="Path" fill="url(#linearGradient4)" points="32.7506551 68.7388056 34.4194413 143.629331 107.277449 124.531491"></polygon>
                    <polygon id="Path" fill="#757578" points="119.890532 30.9128112 133.275501 3.84003217 49.0898492 0.0698111888"></polygon>
                    <polygon id="Path" fill="#6C6D70" points="133.275501 3.84003217 167.847575 79.7154168 119.890532 30.9128112"></polygon>
                    <polygon id="Path" fill="#6C6D70" points="167.847575 79.7154168 119.447169 148.794734 107.277449 124.531491"></polygon>
                    <polygon id="Path" fill="#55565A" points="119.447169 148.794734 34.4194413 143.629331 107.277449 124.531491"></polygon>
                    <polygon id="Path" fill="#55565A" points="49.0898492 0.0698111888 0.0733053152 61.5134517 32.7506551 68.7388056"></polygon>
                    <polygon id="Path" fill="#656569" points="0.0733053152 61.5134517 34.4194413 143.629331 32.7506551 68.7388056"></polygon>
                    <polygon id="Path" fill="#151A22" opacity="0.7" points="110.972618 43.8064168 102.140262 110.92206 50.0835204 70.5143021"></polygon>
                    <polygon id="Path" fill="#151A22" opacity="0.7" points="103.923263 30.4235077 55.2628628 9.38866713 45.0412361 53.614993"></polygon>
                    <polygon id="Path" fill="#23262E" opacity="0.7" points="91.5896959 121.089695 38.7052064 83.1778434 39.9842077 134.550126"></polygon>
                    <polygon id="Path" fill="#23262E" opacity="0.7" points="158.961642 79.5478699 122.923461 42.8348951 113.411214 113.432971"></polygon>
                    <polygon id="Path" fill="#43444B" opacity="0.7" points="103.988885 129.346796 111.838368 144.42247 59.3874808 141.050694"></polygon>
                    <polygon id="Path" fill="#34363D" opacity="0.7" points="151.918517 96.2048196 112.876895 125.404027 120.634591 140.624533"></polygon>
                    <polygon id="Path" fill="#34363D" opacity="0.7" points="133.451392 14.4413301 154.093795 58.8747972 125.868756 30.0698671"></polygon>
                    <polygon id="Path" fill="#36383F" opacity="0.7" points="124.003728 6.96236364 115.323797 22.8964028 74.4391595 4.94284056"></polygon>
                    <polygon id="Path" fill="#3B3C43" opacity="0.7" points="42.1401731 14.1900098 30.6345612 63.136614 7.42335723 58.2006503"></polygon>
                    <polygon id="Path" fill="#45464D" opacity="0.7" points="29.2346996 71.7694448 30.2474759 124.369779 5.91177256 66.8122252"></polygon>
                </g>
            </g>
        </g>
        <path d="M893.5,585 C998.15796,585 1083,500.15796 1083,395.5 C1083,290.84204 998.15796,206 893.5,206 C788.84204,206 704,290.84204 704,395.5 C704,500.15796 788.84204,585 893.5,585 Z M893.5,583 C789.946609,583 706,499.053391 706,395.5 C706,291.946609 789.946609,208 893.5,208 C997.053391,208 1081,291.946609 1081,395.5 C1081,499.053391 997.053391,583 893.5,583 Z" id="Oval" fill="#9013FE" fill-rule="nonzero"></path>
        <path d="M893.5,632 C1024.11534,632 1130,526.115343 1130,395.5 C1130,264.884657 1024.11534,159 893.5,159 C762.884657,159 657,264.884657 657,395.5 C657,526.115343 762.884657,632 893.5,632 Z M893.5,630 C763.989226,630 659,525.010774 659,395.5 C659,265.989226 763.989226,161 893.5,161 C1023.01077,161 1128,265.989226 1128,395.5 C1128,525.010774 1023.01077,630 893.5,630 Z" id="Oval" fill="#9013FE" fill-rule="nonzero"></path>
        <path d="M202.416,377.728 L202.416,412 L228.432,412 L228.432,405.664 L209.952,405.664 L209.952,397.264 L226.56,397.264 L226.56,391.408 L209.952,391.408 L209.952,384.064 L228.048,384.064 L228.048,377.728 L202.416,377.728 Z M239.136,398.944 L230.208,412 L237.84,412 L243.024,404.176 L248.208,412 L255.984,412 L246.816,398.8 L254.976,387.184 L247.44,387.184 L243.12,393.664 L238.752,387.184 L230.976,387.184 L239.136,398.944 Z M275.472,395.92 L282.144,395.92 C282.048,394.319992 281.664003,392.936006 280.992,391.768 C280.319997,390.599994 279.448005,389.624004 278.376,388.84 C277.303995,388.055996 276.088007,387.472002 274.728,387.088 C273.367993,386.703998 271.952007,386.512 270.48,386.512 C268.46399,386.512 266.672008,386.847997 265.104,387.52 C263.535992,388.192003 262.208005,389.127994 261.12,390.328 C260.031995,391.528006 259.208003,392.951992 258.648,394.6 C258.087997,396.248008 257.808,398.03199 257.808,399.952 C257.808,401.808009 258.111997,403.512 258.72,405.064 C259.328003,406.616008 260.175995,407.951994 261.264,409.072 C262.352005,410.192006 263.671992,411.063997 265.224,411.688 C266.776008,412.312003 268.479991,412.624 270.336,412.624 C273.632016,412.624 276.335989,411.760009 278.448,410.032 C280.560011,408.303991 281.839998,405.792016 282.288,402.496 L275.712,402.496 C275.487999,404.032008 274.936004,405.255995 274.056,406.168 C273.175996,407.080005 271.920008,407.536 270.288,407.536 C269.231995,407.536 268.336004,407.296002 267.6,406.816 C266.863996,406.335998 266.280002,405.720004 265.848,404.968 C265.415998,404.215996 265.104001,403.376005 264.912,402.448 C264.719999,401.519995 264.624,400.608004 264.624,399.712 C264.624,398.783995 264.719999,397.848005 264.912,396.904 C265.104001,395.959995 265.431998,395.096004 265.896,394.312 C266.360002,393.527996 266.959996,392.888002 267.696,392.392 C268.432004,391.895998 269.343995,391.648 270.432,391.648 C273.344015,391.648 275.023998,393.071986 275.472,395.92 Z M286.128,377.728 L286.128,412 L292.944,412 L292.944,398.992 C292.944,396.463987 293.359996,394.648006 294.192,393.544 C295.024004,392.439994 296.367991,391.888 298.224,391.888 C299.856008,391.888 300.991997,392.391995 301.632,393.4 C302.272003,394.408005 302.592,395.93599 302.592,397.984 L302.592,412 L309.408,412 L309.408,396.736 C309.408,395.199992 309.272001,393.800006 309,392.536 C308.727999,391.271994 308.256003,390.200004 307.584,389.32 C306.911997,388.439996 305.992006,387.752002 304.824,387.256 C303.655994,386.759998 302.160009,386.512 300.336,386.512 C299.055994,386.512 297.744007,386.839997 296.4,387.496 C295.055993,388.152003 293.952004,389.199993 293.088,390.64 L292.944,390.64 L292.944,377.728 L286.128,377.728 Z M314.304,394.816 C314.4,393.215992 314.799996,391.888005 315.504,390.832 C316.208004,389.775995 317.103995,388.928003 318.192,388.288 C319.280005,387.647997 320.503993,387.192001 321.864,386.92 C323.224007,386.647999 324.591993,386.512 325.968,386.512 C327.216006,386.512 328.479994,386.599999 329.76,386.776 C331.040006,386.952001 332.207995,387.295997 333.264,387.808 C334.320005,388.320003 335.183997,389.031995 335.856,389.944 C336.528003,390.856005 336.864,392.063992 336.864,393.568 L336.864,406.48 C336.864,407.600006 336.927999,408.671995 337.056,409.696 C337.184001,410.720005 337.407998,411.487997 337.728,412 L330.816,412 C330.687999,411.615998 330.584,411.224002 330.504,410.824 C330.424,410.423998 330.368,410.016002 330.336,409.6 C329.247995,410.720006 327.968007,411.503998 326.496,411.952 C325.023993,412.400002 323.520008,412.624 321.984,412.624 C320.799994,412.624 319.696005,412.480001 318.672,412.192 C317.647995,411.903999 316.752004,411.456003 315.984,410.848 C315.215996,410.239997 314.616002,409.472005 314.184,408.544 C313.751998,407.615995 313.536,406.512 313.536,405.232 C313.536,403.823993 313.783998,402.664005 314.28,401.752 C314.776002,400.839995 315.415996,400.112003 316.2,399.568 C316.984004,399.023997 317.879995,398.616001 318.888,398.344 C319.896005,398.071999 320.911995,397.856001 321.936,397.696 C322.704004,397.575999 323.462999,397.474 324.212999,397.39 L324.96,397.312 C325.952005,397.216 326.831996,397.072001 327.6,396.88 C328.368004,396.687999 328.975998,396.408002 329.424,396.04 C329.831275,395.705453 330.040199,395.232069 330.050777,394.619835 L330.048,394.432 C330.048,393.695996 329.928001,393.112002 329.688,392.68 C329.447999,392.247998 329.128002,391.912001 328.728,391.672 C328.327998,391.431999 327.864003,391.272 327.336,391.192 C326.807997,391.112 326.240003,391.072 325.632,391.072 C324.287993,391.072 323.232004,391.359997 322.464,391.936 C321.695996,392.512 321.248001,393.471993 321.12,394.816 L314.304,394.816 Z M330.048,399.856 C329.759999,400.112001 329.400002,400.311999 328.968,400.456 C328.535998,400.600001 328.072002,400.72 327.576,400.816 C327.245332,400.88 326.904,400.936889 326.552001,400.986667 L326.016,401.056 C325.471997,401.12 324.928003,401.2 324.384,401.296 C323.871997,401.392 323.368002,401.519999 322.872,401.68 C322.375998,401.840001 321.944002,402.055999 321.576,402.328 C321.207998,402.600001 320.912001,402.943998 320.688,403.36 C320.463999,403.776002 320.352,404.303997 320.352,404.944 C320.352,405.552003 320.463999,406.063998 320.688,406.48 C320.912001,406.896002 321.215998,407.223999 321.6,407.464 C321.984002,407.704001 322.431997,407.872 322.944,407.968 C323.456003,408.064 323.983997,408.112 324.528,408.112 C325.872007,408.112 326.911996,407.888002 327.648,407.44 C328.384004,406.991998 328.927998,406.456003 329.28,405.832 C329.632002,405.207997 329.848,404.576003 329.928,403.936 L329.986776,403.418774 C330.027592,403.013877 330.048,402.674287 330.048,402.4 L330.048,399.856 Z M380.496,386.512 C382.128008,386.512 383.559994,386.815997 384.792,387.424 C385.936006,387.988574 386.907548,388.911831 387.706652,390.193795 L387.888,390.496 L387.984,390.496 L387.984,387.184 L394.464,387.184 L394.464,410.416 C394.464,411.408005 394.328001,412.543994 394.056,413.824 C393.783999,415.104006 393.200004,416.295994 392.304,417.4 C391.407996,418.504006 390.112008,419.439996 388.416,420.208 C386.719992,420.976004 384.448014,421.36 381.6,421.36 C380.383994,421.36 379.144006,421.208002 377.88,420.904 C376.615994,420.599998 375.464005,420.128003 374.424,419.488 C373.383995,418.847997 372.520003,418.024005 371.832,417.016 C371.20133,416.091995 370.819389,414.99995 370.686167,413.739835 L370.656,413.392 L377.424,413.392 C377.744002,414.672006 378.367995,415.559998 379.296,416.056 C380.224005,416.552002 381.295994,416.8 382.512,416.8 C384.43201,416.8 385.831996,416.224006 386.712,415.072 C387.533337,413.996795 387.957441,412.656789 387.98432,411.051948 L387.984,410.704 L387.984,407.44 L387.888,407.44 C387.151996,408.752007 386.104007,409.719997 384.744,410.344 C383.383993,410.968003 381.952008,411.28 380.448,411.28 C378.591991,411.28 376.992007,410.952003 375.648,410.296 C374.303993,409.639997 373.200004,408.744006 372.336,407.608 C371.471996,406.471994 370.84,405.144008 370.44,403.624 C370.039998,402.103992 369.84,400.496008 369.84,398.8 C369.84,397.199992 370.071998,395.656007 370.536,394.168 C371.000002,392.679993 371.679996,391.368006 372.576,390.232 C373.472004,389.095994 374.583993,388.192003 375.912,387.52 C377.240007,386.847997 378.767991,386.512 380.496,386.512 Z M411.408,386.512 C413.520011,386.512 415.359992,386.919996 416.928,387.736 C418.496008,388.552004 419.783995,389.647993 420.792,391.024 C421.800005,392.400007 422.527998,393.967991 422.976,395.728 C423.424002,397.488009 423.584001,399.32799 423.456,401.248 L405.552,401.248 C405.648,403.456011 406.207995,405.055995 407.232,406.048 C408.256005,407.040005 409.72799,407.536 411.648,407.536 C413.024007,407.536 414.207995,407.192003 415.2,406.504 C416.192005,405.815997 416.799999,405.088004 417.024,404.32 L423.024,404.32 C422.063995,407.296015 420.59201,409.423994 418.608,410.704 C416.62399,411.984006 414.224014,412.624 411.408,412.624 C409.45599,412.624 407.696008,412.312003 406.128,411.688 C404.559992,411.063997 403.232005,410.176006 402.144,409.024 C401.055995,407.871994 400.216003,406.496008 399.624,404.896 C399.031997,403.295992 398.736,401.53601 398.736,399.616 C398.736,397.759991 399.039997,396.032008 399.648,394.432 C400.256003,392.831992 401.119994,391.448006 402.24,390.28 C403.360006,389.111994 404.695992,388.192003 406.248,387.52 C407.800008,386.847997 409.519991,386.512 411.408,386.512 Z M356.352,386.512 C358.176009,386.512 359.671994,386.759998 360.84,387.256 C362.008006,387.752002 362.927997,388.439996 363.6,389.32 C364.272003,390.200004 364.743999,391.271994 365.016,392.536 C365.254001,393.642006 365.387875,394.852121 365.417625,396.166373 L365.424,396.736 L365.424,412 L358.608,412 L358.608,397.984 C358.608,395.93599 358.288003,394.408005 357.648,393.4 C357.007997,392.391995 355.872008,391.888 354.24,391.888 C352.383991,391.888 351.040004,392.439994 350.208,393.544 C349.417596,394.592805 349.00264,396.284169 348.96312,398.618138 L348.96,398.992 L348.96,412 L342.144,412 L342.144,387.184 L348.624,387.184 L348.624,390.64 L348.768,390.64 C349.632004,389.199993 350.751993,388.152003 352.128,387.496 C353.504007,386.839997 354.911993,386.512 356.352,386.512 Z M382.176,391.648 C381.215995,391.648 380.392003,391.839998 379.704,392.224 C379.015997,392.608002 378.440002,393.127997 377.976,393.784 C377.511998,394.440003 377.176001,395.191996 376.968,396.04 C376.759999,396.888004 376.656,397.775995 376.656,398.704 C376.656,399.600004 376.743999,400.487996 376.92,401.368 C377.096001,402.248004 377.399998,403.039996 377.832,403.744 C378.264002,404.448004 378.831996,405.023998 379.536,405.472 C380.240004,405.920002 381.119995,406.144 382.176,406.144 C383.136005,406.144 383.983996,405.952002 384.72,405.568 C385.456004,405.183998 386.063998,404.672003 386.544,404.032 C387.024002,403.391997 387.383999,402.664004 387.624,401.848 C387.864001,401.031996 387.984,400.176004 387.984,399.28 C387.984,398.255995 387.888001,397.288005 387.696,396.376 C387.503999,395.463995 387.184002,394.656004 386.736,393.952 C386.287998,393.247996 385.696004,392.688002 384.96,392.272 C384.223996,391.855998 383.296006,391.648 382.176,391.648 Z M411.216,391.648 C410.127995,391.648 409.224004,391.831998 408.504,392.2 C407.783996,392.568002 407.208002,393.023997 406.776,393.568 C406.343998,394.112003 406.040001,394.687997 405.864,395.296 C405.687999,395.904003 405.584,396.447998 405.552,396.928 L405.552,396.928 L416.64,396.928 C416.319998,395.199991 415.752004,393.888004 414.936,392.992 C414.119996,392.095996 412.880008,391.648 411.216,391.648 Z" id="Exchange" fill="#FFFFFF" fill-rule="nonzero"></path>
        <g id="Group-4" transform="translate(262.000000, 256.000000)">
            <g id="Group-3" fill="#9013FE">
                <circle id="Oval" cx="49.2" cy="49.2" r="49.2"></circle>
            </g>
            <path d="M18.517,43.778 L18.517,56 L21.814,56 L21.814,43.778 L26.308,43.778 L26.308,41.006 L14.023,41.006 L14.023,43.778 L18.517,43.778 Z M30.676,48.566 C30.676,47.9079967 30.7494993,47.2710031 30.8965,46.655 C31.0435007,46.0389969 31.2779984,45.4895024 31.6,45.0065 C31.9220016,44.5234976 32.3419974,44.1385014 32.86,43.8515 C33.3780026,43.5644986 34.0079963,43.421 34.75,43.421 C35.4920037,43.421 36.1219974,43.5644986 36.64,43.8515 C37.1580026,44.1385014 37.5779984,44.5234976 37.9,45.0065 C38.2220016,45.4895024 38.4564993,46.0389969 38.6035,46.655 C38.7505007,47.2710031 38.824,47.9079967 38.824,48.566 C38.824,49.1960031 38.7505007,49.808497 38.6035,50.4035 C38.4564993,50.998503 38.2220016,51.5339976 37.9,52.01 C37.5779984,52.4860024 37.1580026,52.8674986 36.64,53.1545 C36.1219974,53.4415014 35.4920037,53.585 34.75,53.585 C34.0079963,53.585 33.3780026,53.4415014 32.86,53.1545 C32.3419974,52.8674986 31.9220016,52.4860024 31.6,52.01 C31.2779984,51.5339976 31.0435007,50.998503 30.8965,50.4035 C30.7494993,49.808497 30.676,49.1960031 30.676,48.566 Z M27.379,48.566 C27.379,49.6580055 27.5469983,50.6764953 27.883,51.6215 C28.2190017,52.5665047 28.7019969,53.3889965 29.332,54.089 C29.9620032,54.7890035 30.7354954,55.338498 31.6525,55.7375 C32.5695046,56.136502 33.6019943,56.336 34.75,56.336 C35.9120058,56.336 36.9479955,56.136502 37.858,55.7375 C38.7680046,55.338498 39.5379969,54.7890035 40.168,54.089 C40.7980032,53.3889965 41.2809983,52.5665047 41.617,51.6215 C41.9530017,50.6764953 42.121,49.6580055 42.121,48.566 C42.121,47.4459944 41.9530017,46.4065048 41.617,45.4475 C41.2809983,44.4884952 40.7980032,43.6520036 40.168,42.938 C39.5379969,42.2239964 38.7680046,41.664002 37.858,41.258 C36.9479955,40.851998 35.9120058,40.649 34.75,40.649 C33.6019943,40.649 32.5695046,40.851998 31.6525,41.258 C30.7354954,41.664002 29.9620032,42.2239964 29.332,42.938 C28.7019969,43.6520036 28.2190017,44.4884952 27.883,45.4475 C27.5469983,46.4065048 27.379,47.4459944 27.379,48.566 Z M44.368,41.006 L44.368,56 L47.665,56 L47.665,51.17 L49.555,49.259 L54.07,56 L58.207,56 L51.781,46.928 L57.64,41.006 L53.524,41.006 L47.665,47.222 L47.665,41.006 L44.368,41.006 Z M59.53,41.006 L59.53,56 L70.912,56 L70.912,53.228 L62.827,53.228 L62.827,49.553 L70.093,49.553 L70.093,46.991 L62.827,46.991 L62.827,43.778 L70.744,43.778 L70.744,41.006 L59.53,41.006 Z M73.138,41.006 L76.414,41.006 L82.672,51.065 L82.714,51.065 L82.714,41.006 L85.801,41.006 L85.801,56 L82.504,56 L76.267,45.962 L76.225,45.962 L76.225,56 L73.138,56 L73.138,41.006 Z" id="TOKEN" fill="#FFFFFF" fill-rule="nonzero"></path>
        </g>
        <path d="M453.932,84.064 L453.932,112 L461.468,112 L461.468,84.064 L471.74,84.064 L471.74,77.728 L443.66,77.728 L443.66,84.064 L453.932,84.064 Z M474.956,77.728 L474.956,112 L481.772,112 L481.772,98.992 C481.772,96.4639874 482.187996,94.6480055 483.02,93.544 C483.852004,92.4399945 485.195991,91.888 487.052,91.888 C488.684008,91.888 489.819997,92.391995 490.46,93.4 C491.100003,94.408005 491.42,95.9359898 491.42,97.984 L491.42,112 L498.236,112 L498.236,96.736 C498.236,95.1999923 498.100001,93.8000063 497.828,92.536 C497.555999,91.2719937 497.084003,90.2000044 496.412,89.32 C495.739997,88.4399956 494.820006,87.7520025 493.652,87.256 C492.483994,86.7599975 490.988009,86.512 489.164,86.512 C487.883994,86.512 486.572007,86.8399967 485.228,87.496 C483.883993,88.1520033 482.780004,89.1999928 481.916,90.64 L481.772,90.64 L481.772,77.728 L474.956,77.728 Z M520.124,96.928 L509.036,96.928 C509.068,96.4479976 509.171999,95.904003 509.348,95.296 C509.524001,94.687997 509.827998,94.1120027 510.26,93.568 C510.692002,93.0239973 511.267996,92.5680018 511.988,92.2 C512.708004,91.8319982 513.611995,91.648 514.7,91.648 C516.364008,91.648 517.603996,92.0959955 518.42,92.992 C519.236004,93.8880045 519.803998,95.1999914 520.124,96.928 Z M509.036,101.248 L526.94,101.248 C527.068001,99.3279904 526.908002,97.4880088 526.46,95.728 C526.011998,93.9679912 525.284005,92.4000069 524.276,91.024 C523.267995,89.6479931 521.980008,88.5520041 520.412,87.736 C518.843992,86.9199959 517.004011,86.512 514.892,86.512 C513.003991,86.512 511.284008,86.8479966 509.732,87.52 C508.179992,88.1920034 506.844006,89.1119942 505.724,90.28 C504.603994,91.4480058 503.740003,92.831992 503.132,94.432 C502.523997,96.032008 502.22,97.7599907 502.22,99.616 C502.22,101.53601 502.515997,103.295992 503.108,104.896 C503.700003,106.496008 504.539995,107.871994 505.628,109.024 C506.716005,110.176006 508.043992,111.063997 509.612,111.688 C511.180008,112.312003 512.93999,112.624 514.892,112.624 C517.708014,112.624 520.10799,111.984006 522.092,110.704 C524.07601,109.423994 525.547995,107.296015 526.508,104.32 L520.508,104.32 C520.283999,105.088004 519.676005,105.815997 518.684,106.504 C517.691995,107.192003 516.508007,107.536 515.132,107.536 C513.21199,107.536 511.740005,107.040005 510.716,106.048 C509.691995,105.055995 509.132,103.456011 509.036,101.248 Z M561.02,96.928 L549.932,96.928 C549.964,96.4479976 550.067999,95.904003 550.244,95.296 C550.420001,94.687997 550.723998,94.1120027 551.156,93.568 C551.588002,93.0239973 552.163996,92.5680018 552.884,92.2 C553.604004,91.8319982 554.507995,91.648 555.596,91.648 C557.260008,91.648 558.499996,92.0959955 559.316,92.992 C560.132004,93.8880045 560.699998,95.1999914 561.02,96.928 Z M549.932,101.248 L567.836,101.248 C567.964001,99.3279904 567.804002,97.4880088 567.356,95.728 C566.907998,93.9679912 566.180005,92.4000069 565.172,91.024 C564.163995,89.6479931 562.876008,88.5520041 561.308,87.736 C559.739992,86.9199959 557.900011,86.512 555.788,86.512 C553.899991,86.512 552.180008,86.8479966 550.628,87.52 C549.075992,88.1920034 547.740006,89.1119942 546.62,90.28 C545.499994,91.4480058 544.636003,92.831992 544.028,94.432 C543.419997,96.032008 543.116,97.7599907 543.116,99.616 C543.116,101.53601 543.411997,103.295992 544.004,104.896 C544.596003,106.496008 545.435995,107.871994 546.524,109.024 C547.612005,110.176006 548.939992,111.063997 550.508,111.688 C552.076008,112.312003 553.83599,112.624 555.788,112.624 C558.604014,112.624 561.00399,111.984006 562.988,110.704 C564.97201,109.423994 566.443995,107.296015 567.404,104.32 L561.404,104.32 C561.179999,105.088004 560.572005,105.815997 559.58,106.504 C558.587995,107.192003 557.404007,107.536 556.028,107.536 C554.10799,107.536 552.636005,107.040005 551.612,106.048 C550.587995,105.055995 550.028,103.456011 549.932,101.248 Z M578.204,98.944 L569.276,112 L576.908,112 L582.092,104.176 L587.276,112 L595.052,112 L585.884,98.8 L594.044,87.184 L586.508,87.184 L582.188,93.664 L577.82,87.184 L570.044,87.184 L578.204,98.944 Z M614.54,95.92 L621.212,95.92 C621.116,94.319992 620.732003,92.9360058 620.06,91.768 C619.387997,90.5999942 618.516005,89.6240039 617.444,88.84 C616.371995,88.0559961 615.156007,87.4720019 613.796,87.088 C612.435993,86.7039981 611.020007,86.512 609.548,86.512 C607.53199,86.512 605.740008,86.8479966 604.172,87.52 C602.603992,88.1920034 601.276005,89.127994 600.188,90.328 C599.099995,91.528006 598.276003,92.9519918 597.716,94.6 C597.155997,96.2480082 596.876,98.0319904 596.876,99.952 C596.876,101.808009 597.179997,103.512 597.788,105.064 C598.396003,106.616008 599.243995,107.951994 600.332,109.072 C601.420005,110.192006 602.739992,111.063997 604.292,111.688 C605.844008,112.312003 607.547991,112.624 609.404,112.624 C612.700016,112.624 615.403989,111.760009 617.516,110.032 C619.628011,108.303991 620.907998,105.792016 621.356,102.496 L614.78,102.496 C614.555999,104.032008 614.004004,105.255995 613.124,106.168 C612.243996,107.080005 610.988008,107.536 609.356,107.536 C608.299995,107.536 607.404004,107.296002 606.668,106.816 C605.931996,106.335998 605.348002,105.720004 604.916,104.968 C604.483998,104.215996 604.172001,103.376005 603.98,102.448 C603.787999,101.519995 603.692,100.608004 603.692,99.712 C603.692,98.7839954 603.787999,97.8480047 603.98,96.904 C604.172001,95.9599953 604.499998,95.0960039 604.964,94.312 C605.428002,93.5279961 606.027996,92.8880025 606.764,92.392 C607.500004,91.8959975 608.411995,91.648 609.5,91.648 C612.412015,91.648 614.091998,93.0719858 614.54,95.92 Z M625.196,77.728 L625.196,112 L632.012,112 L632.012,98.992 C632.012,96.4639874 632.427996,94.6480055 633.26,93.544 C634.092004,92.4399945 635.435991,91.888 637.292,91.888 C638.924008,91.888 640.059997,92.391995 640.7,93.4 C641.340003,94.408005 641.66,95.9359898 641.66,97.984 L641.66,112 L648.476,112 L648.476,96.736 C648.476,95.1999923 648.340001,93.8000063 648.068,92.536 C647.795999,91.2719937 647.324003,90.2000044 646.652,89.32 C645.979997,88.4399956 645.060006,87.7520025 643.892,87.256 C642.723994,86.7599975 641.228009,86.512 639.404,86.512 C638.123994,86.512 636.812007,86.8399967 635.468,87.496 C634.123993,88.1520033 633.020004,89.1999928 632.156,90.64 L632.012,90.64 L632.012,77.728 L625.196,77.728 Z M653.372,94.816 C653.468,93.215992 653.867996,91.8880053 654.572,90.832 C655.276004,89.7759947 656.171995,88.9280032 657.26,88.288 C658.348005,87.6479968 659.571993,87.1920014 660.932,86.92 C662.292007,86.6479986 663.659993,86.512 665.036,86.512 C666.284006,86.512 667.547994,86.5999991 668.828,86.776 C670.108006,86.9520009 671.275995,87.2959974 672.332,87.808 C673.388005,88.3200026 674.251997,89.0319954 674.924,89.944 C675.596003,90.8560046 675.932,92.0639925 675.932,93.568 L675.932,106.48 C675.932,107.600006 675.995999,108.671995 676.124,109.696 C676.252001,110.720005 676.475998,111.487997 676.796,112 L669.884,112 C669.755999,111.615998 669.652,111.224002 669.572,110.824 C669.492,110.423998 669.436,110.016002 669.404,109.6 C668.315995,110.720006 667.036007,111.503998 665.564,111.952 C664.091993,112.400002 662.588008,112.624 661.052,112.624 C659.867994,112.624 658.764005,112.480001 657.74,112.192 C656.715995,111.903999 655.820004,111.456003 655.052,110.848 C654.283996,110.239997 653.684002,109.472005 653.252,108.544 C652.819998,107.615995 652.604,106.512 652.604,105.232 C652.604,103.823993 652.851998,102.664005 653.348,101.752 C653.844002,100.839995 654.483996,100.112003 655.268,99.568 C656.052004,99.0239973 656.947995,98.6160014 657.956,98.344 C658.964005,98.0719986 659.979995,97.8560008 661.004,97.696 C661.772004,97.5759994 662.530999,97.474 663.280999,97.3900001 L664.028,97.312 C665.020005,97.2159995 665.899996,97.072001 666.668,96.88 C667.436004,96.687999 668.043998,96.4080018 668.492,96.04 C668.899275,95.7054529 669.108199,95.2320687 669.118777,94.6198355 L669.116,94.432 C669.116,93.6959963 668.996001,93.1120022 668.756,92.68 C668.515999,92.2479978 668.196002,91.9120012 667.796,91.672 C667.395998,91.4319988 666.932003,91.2720004 666.404,91.192 C665.875997,91.1119996 665.308003,91.072 664.7,91.072 C663.355993,91.072 662.300004,91.3599971 661.532,91.936 C660.763996,92.512 660.316001,93.4719933 660.188,94.816 L653.372,94.816 Z M669.116,99.856 C668.827999,100.112001 668.468002,100.311999 668.036,100.456 C667.603998,100.600001 667.140002,100.72 666.644,100.816 C666.313332,100.88 665.972,100.936889 665.620001,100.986667 L665.084,101.056 C664.539997,101.12 663.996003,101.2 663.452,101.296 C662.939997,101.392 662.436002,101.519999 661.94,101.68 C661.443998,101.840001 661.012002,102.055999 660.644,102.328 C660.275998,102.600001 659.980001,102.943998 659.756,103.36 C659.531999,103.776002 659.42,104.303997 659.42,104.944 C659.42,105.552003 659.531999,106.063998 659.756,106.48 C659.980001,106.896002 660.283998,107.223999 660.668,107.464 C661.052002,107.704001 661.499997,107.872 662.012,107.968 C662.524003,108.064 663.051997,108.112 663.596,108.112 C664.940007,108.112 665.979996,107.888002 666.716,107.44 C667.452004,106.991998 667.995998,106.456003 668.348,105.832 C668.700002,105.207997 668.916,104.576003 668.996,103.936 L669.054776,103.418774 C669.095592,103.013877 669.116,102.674287 669.116,102.4 L669.116,99.856 Z M681.212,87.184 L681.212,112 L688.028,112 L688.028,98.992 C688.028,96.4639874 688.443996,94.6480055 689.276,93.544 C690.108004,92.4399945 691.451991,91.888 693.308,91.888 C694.940008,91.888 696.075997,92.391995 696.716,93.4 C697.356003,94.408005 697.676,95.9359898 697.676,97.984 L697.676,112 L704.492,112 L704.492,96.736 C704.492,95.1999923 704.356001,93.8000063 704.084,92.536 C703.811999,91.2719937 703.340003,90.2000044 702.668,89.32 C701.995997,88.4399956 701.076006,87.7520025 699.908,87.256 C698.739994,86.7599975 697.244009,86.512 695.42,86.512 C693.979993,86.512 692.572007,86.8399967 691.196,87.496 C689.819993,88.1520033 688.700004,89.1999928 687.836,90.64 L687.692,90.64 L687.692,87.184 L681.212,87.184 Z M721.244,106.144 C720.187995,106.144 719.308004,105.920002 718.604,105.472 C717.899996,105.023998 717.332002,104.448004 716.9,103.744 C716.467998,103.039996 716.164001,102.248004 715.988,101.368 C715.811999,100.487996 715.724,99.6000045 715.724,98.704 C715.724,97.7759954 715.827999,96.8880042 716.036,96.04 C716.244001,95.1919958 716.579998,94.4400033 717.044,93.784 C717.508002,93.1279967 718.083997,92.6080019 718.772,92.224 C719.460003,91.8399981 720.283995,91.648 721.244,91.648 C722.364006,91.648 723.291996,91.8559979 724.028,92.272 C724.764004,92.6880021 725.355998,93.2479965 725.804,93.952 C726.252002,94.6560035 726.571999,95.4639954 726.764,96.376 C726.956001,97.2880046 727.052,98.2559949 727.052,99.28 C727.052,100.176004 726.932001,101.031996 726.692,101.848 C726.451999,102.664004 726.092002,103.391997 725.612,104.032 C725.131998,104.672003 724.524004,105.183998 723.788,105.568 C723.051996,105.952002 722.204005,106.144 721.244,106.144 Z M733.532,110.416 L733.532,87.184 L727.052,87.184 L727.052,90.496 L726.956,90.496 C726.123996,89.0559928 725.092006,88.032003 723.86,87.424 C722.627994,86.815997 721.196008,86.512 719.564,86.512 C717.835991,86.512 716.308007,86.8479966 714.98,87.52 C713.651993,88.1920034 712.540004,89.0959943 711.644,90.232 C710.747996,91.3680057 710.068002,92.6799926 709.604,94.168 C709.139998,95.6560074 708.908,97.199992 708.908,98.8 C708.908,100.496008 709.107998,102.103992 709.508,103.624 C709.908,105.144008 710.539996,106.471994 711.404,107.608 C712.268004,108.744006 713.371993,109.639997 714.716,110.296 C716.060007,110.952003 717.659991,111.28 719.516,111.28 C721.020008,111.28 722.451993,110.968003 723.812,110.344 C725.172007,109.719997 726.219996,108.752007 726.956,107.44 L727.052,107.44 L727.052,110.704 C727.084,112.464009 726.660004,113.919994 725.78,115.072 C724.899996,116.224006 723.50001,116.8 721.58,116.8 C720.363994,116.8 719.292005,116.552002 718.364,116.056 C717.435995,115.559998 716.812002,114.672006 716.492,113.392 L709.724,113.392 C709.82,114.800007 710.211997,116.007995 710.9,117.016 C711.588003,118.024005 712.451995,118.847997 713.492,119.488 C714.532005,120.128003 715.683994,120.599998 716.948,120.904 C718.212006,121.208002 719.451994,121.36 720.668,121.36 C723.516014,121.36 725.787992,120.976004 727.484,120.208 C729.180008,119.439996 730.475996,118.504006 731.372,117.4 C732.268004,116.295994 732.851999,115.104006 733.124,113.824 C733.396001,112.543994 733.532,111.408005 733.532,110.416 Z M755.708,96.928 L744.62,96.928 C744.652,96.4479976 744.755999,95.904003 744.932,95.296 C745.108001,94.687997 745.411998,94.1120027 745.844,93.568 C746.276002,93.0239973 746.851996,92.5680018 747.572,92.2 C748.292004,91.8319982 749.195995,91.648 750.284,91.648 C751.948008,91.648 753.187996,92.0959955 754.004,92.992 C754.820004,93.8880045 755.387998,95.1999914 755.708,96.928 Z M744.62,101.248 L762.524,101.248 C762.652001,99.3279904 762.492002,97.4880088 762.044,95.728 C761.595998,93.9679912 760.868005,92.4000069 759.86,91.024 C758.851995,89.6479931 757.564008,88.5520041 755.996,87.736 C754.427992,86.9199959 752.588011,86.512 750.476,86.512 C748.587991,86.512 746.868008,86.8479966 745.316,87.52 C743.763992,88.1920034 742.428006,89.1119942 741.308,90.28 C740.187994,91.4480058 739.324003,92.831992 738.716,94.432 C738.107997,96.032008 737.804,97.7599907 737.804,99.616 C737.804,101.53601 738.099997,103.295992 738.692,104.896 C739.284003,106.496008 740.123995,107.871994 741.212,109.024 C742.300005,110.176006 743.627992,111.063997 745.196,111.688 C746.764008,112.312003 748.52399,112.624 750.476,112.624 C753.292014,112.624 755.69199,111.984006 757.676,110.704 C759.66001,109.423994 761.131995,107.296015 762.092,104.32 L756.092,104.32 C755.867999,105.088004 755.260005,105.815997 754.268,106.504 C753.275995,107.192003 752.092007,107.536 750.716,107.536 C748.79599,107.536 747.324005,107.040005 746.3,106.048 C745.275995,105.055995 744.716,103.456011 744.62,101.248 Z M458.468,160.936 L451.988,160.936 C452.052,162.600008 452.427997,163.983994 453.116,165.088 C453.804003,166.192006 454.683995,167.079997 455.756,167.752 C456.828005,168.424003 458.051993,168.903999 459.428,169.192 C460.804007,169.480001 462.211993,169.624 463.652,169.624 C465.060007,169.624 466.443993,169.488001 467.804,169.216 C469.164007,168.943999 470.371995,168.472003 471.428,167.8 C472.484005,167.127997 473.339997,166.240006 473.996,165.136 C474.652003,164.031994 474.98,162.664008 474.98,161.032 C474.98,159.879994 474.756002,158.912004 474.308,158.128 C473.859998,157.343996 473.268004,156.688003 472.532,156.16 C471.795996,155.631997 470.956005,155.208002 470.012,154.888 C469.067995,154.567998 468.100005,154.296001 467.108,154.072 C466.147995,153.847999 465.204005,153.640001 464.276,153.448 C463.347995,153.255999 462.524004,153.040001 461.804,152.8 C461.083996,152.559999 460.500002,152.248002 460.052,151.864 C459.603998,151.479998 459.38,150.984003 459.38,150.376 C459.38,149.863997 459.507999,149.456002 459.764,149.152 C460.020001,148.847998 460.331998,148.616001 460.7,148.456 C461.068002,148.295999 461.475998,148.192 461.924,148.144 C462.372002,148.096 462.787998,148.072 463.172,148.072 C464.388006,148.072 465.443996,148.303998 466.34,148.768 C467.236004,149.232002 467.732,150.119993 467.828,151.432 L474.308,151.432 C474.179999,149.895992 473.788003,148.624005 473.132,147.616 C472.475997,146.607995 471.652005,145.800003 470.66,145.192 C469.667995,144.583997 468.540006,144.152001 467.276,143.896 C466.011994,143.639999 464.708007,143.512 463.364,143.512 C462.019993,143.512 460.708006,143.631999 459.428,143.872 C458.147994,144.112001 456.996005,144.527997 455.972,145.12 C454.947995,145.712003 454.124003,146.519995 453.5,147.544 C452.875997,148.568005 452.564,149.879992 452.564,151.48 C452.564,152.568005 452.787998,153.487996 453.236,154.24 C453.684002,154.992004 454.275996,155.615998 455.012,156.112 C455.748004,156.608002 456.587995,157.007998 457.532,157.312 C458.476005,157.616002 459.443995,157.879999 460.436,158.104 L461.380217,158.308801 C463.364079,158.752535 464.945327,159.196264 466.124,159.64 C467.484007,160.152003 468.164,160.919995 468.164,161.944 C468.164,162.552003 468.020001,163.055998 467.732,163.456 C467.443999,163.856002 467.084002,164.175999 466.652,164.416 C466.219998,164.656001 465.740003,164.831999 465.212,164.944 C464.683997,165.056001 464.180002,165.112 463.7,165.112 C463.027997,165.112 462.380003,165.032001 461.756,164.872 C461.131997,164.711999 460.580002,164.464002 460.1,164.128 C459.619998,163.791998 459.228002,163.360003 458.924,162.832 C458.619998,162.303997 458.468,161.672004 458.468,160.936 Z M495.668,153.928 L484.58,153.928 C484.612,153.447998 484.715999,152.904003 484.892,152.296 C485.068001,151.687997 485.371998,151.112003 485.804,150.568 C486.236002,150.023997 486.811996,149.568002 487.532,149.2 C488.252004,148.831998 489.155995,148.648 490.244,148.648 C491.908008,148.648 493.147996,149.095996 493.964,149.992 C494.780004,150.888004 495.347998,152.199991 495.668,153.928 Z M484.58,158.248 L502.484,158.248 C502.612001,156.32799 502.452002,154.488009 502.004,152.728 C501.555998,150.967991 500.828005,149.400007 499.82,148.024 C498.811995,146.647993 497.524008,145.552004 495.956,144.736 C494.387992,143.919996 492.548011,143.512 490.436,143.512 C488.547991,143.512 486.828008,143.847997 485.276,144.52 C483.723992,145.192003 482.388006,146.111994 481.268,147.28 C480.147994,148.448006 479.284003,149.831992 478.676,151.432 C478.067997,153.032008 477.764,154.759991 477.764,156.616 C477.764,158.53601 478.059997,160.295992 478.652,161.896 C479.244003,163.496008 480.083995,164.871994 481.172,166.024 C482.260005,167.176006 483.587992,168.063997 485.156,168.688 C486.724008,169.312003 488.48399,169.624 490.436,169.624 C493.252014,169.624 495.65199,168.984006 497.636,167.704 C499.62001,166.423994 501.091995,164.296015 502.052,161.32 L496.052,161.32 C495.827999,162.088004 495.220005,162.815997 494.228,163.504 C493.235995,164.192003 492.052007,164.536 490.676,164.536 C488.75599,164.536 487.284005,164.040005 486.26,163.048 C485.235995,162.055995 484.676,160.456011 484.58,158.248 Z M506.516,144.184 L506.516,169 L513.332,169 L513.332,155.992 C513.332,153.463987 513.747996,151.648006 514.58,150.544 C515.412004,149.439994 516.755991,148.888 518.612,148.888 C520.244008,148.888 521.379997,149.391995 522.02,150.4 C522.660003,151.408005 522.98,152.93599 522.98,154.984 L522.98,169 L529.796,169 L529.796,153.736 C529.796,152.199992 529.660001,150.800006 529.388,149.536 C529.115999,148.271994 528.644003,147.200004 527.972,146.32 C527.299997,145.439996 526.380006,144.752002 525.212,144.256 C524.043994,143.759998 522.548009,143.512 520.724,143.512 C519.283993,143.512 517.876007,143.839997 516.5,144.496 C515.123993,145.152003 514.004004,146.199993 513.14,147.64 L512.996,147.64 L512.996,144.184 L506.516,144.184 Z M552.596,156.52 C552.596,157.544005 552.500001,158.535995 552.308,159.496 C552.115999,160.456005 551.796002,161.311996 551.348,162.064 C550.899998,162.816004 550.300004,163.415998 549.548,163.864 C548.795996,164.312002 547.860006,164.536 546.74,164.536 C545.683995,164.536 544.780004,164.304002 544.028,163.84 C543.275996,163.375998 542.652002,162.768004 542.156,162.016 C541.659998,161.263996 541.300001,160.408005 541.076,159.448 C540.851999,158.487995 540.74,157.528005 540.74,156.568 C540.74,155.543995 540.843999,154.560005 541.052,153.616 C541.260001,152.671995 541.595998,151.832004 542.06,151.096 C542.524002,150.359996 543.139996,149.768002 543.908,149.32 C544.676004,148.871998 545.619994,148.648 546.74,148.648 C547.860006,148.648 548.787996,148.871998 549.524,149.32 C550.260004,149.768002 550.859998,150.351996 551.324,151.072 C551.788002,151.792004 552.115999,152.623995 552.308,153.568 C552.500001,154.512005 552.596,155.495995 552.596,156.52 Z M552.692,165.832 L552.692,169 L559.172,169 L559.172,134.728 L552.356,134.728 L552.356,147.208 L552.26,147.208 C551.491996,145.991994 550.444007,145.072003 549.116,144.448 C547.787993,143.823997 546.388007,143.512 544.916,143.512 C543.091991,143.512 541.492007,143.871996 540.116,144.592 C538.739993,145.312004 537.596005,146.263994 536.684,147.448 C535.771995,148.632006 535.084002,149.999992 534.62,151.552 C534.155998,153.104008 533.924,154.711992 533.924,156.376 C533.924,158.104009 534.155998,159.767992 534.62,161.368 C535.084002,162.968008 535.771995,164.383994 536.684,165.616 C537.596005,166.848006 538.755993,167.823996 540.164,168.544 C541.572007,169.264004 543.203991,169.624 545.06,169.624 C546.692008,169.624 548.155994,169.328003 549.452,168.736 C550.748006,168.143997 551.795996,167.176007 552.596,165.832 L552.692,165.832 Z M569.588,160.936 L563.108,160.936 C563.172,162.600008 563.547997,163.983994 564.236,165.088 C564.924003,166.192006 565.803995,167.079997 566.876,167.752 C567.948005,168.424003 569.171993,168.903999 570.548,169.192 C571.924007,169.480001 573.331993,169.624 574.772,169.624 C576.180007,169.624 577.563993,169.488001 578.924,169.216 C580.284007,168.943999 581.491995,168.472003 582.548,167.8 C583.604005,167.127997 584.459997,166.240006 585.116,165.136 C585.772003,164.031994 586.1,162.664008 586.1,161.032 C586.1,159.879994 585.876002,158.912004 585.428,158.128 C584.979998,157.343996 584.388004,156.688003 583.652,156.16 C582.915996,155.631997 582.076005,155.208002 581.132,154.888 C580.187995,154.567998 579.220005,154.296001 578.228,154.072 C577.267995,153.847999 576.324005,153.640001 575.396,153.448 C574.467995,153.255999 573.644004,153.040001 572.924,152.8 C572.203996,152.559999 571.620002,152.248002 571.172,151.864 C570.723998,151.479998 570.5,150.984003 570.5,150.376 C570.5,149.863997 570.627999,149.456002 570.884,149.152 C571.140001,148.847998 571.451998,148.616001 571.82,148.456 C572.188002,148.295999 572.595998,148.192 573.044,148.144 C573.492002,148.096 573.907998,148.072 574.292,148.072 C575.508006,148.072 576.563996,148.303998 577.46,148.768 C578.356004,149.232002 578.852,150.119993 578.948,151.432 L585.428,151.432 C585.299999,149.895992 584.908003,148.624005 584.252,147.616 C583.595997,146.607995 582.772005,145.800003 581.78,145.192 C580.787995,144.583997 579.660006,144.152001 578.396,143.896 C577.131994,143.639999 575.828007,143.512 574.484,143.512 C573.139993,143.512 571.828006,143.631999 570.548,143.872 C569.267994,144.112001 568.116005,144.527997 567.092,145.12 C566.067995,145.712003 565.244003,146.519995 564.62,147.544 C563.995997,148.568005 563.684,149.879992 563.684,151.48 C563.684,152.568005 563.907998,153.487996 564.356,154.24 C564.804002,154.992004 565.395996,155.615998 566.132,156.112 C566.868004,156.608002 567.707995,157.007998 568.652,157.312 C569.596005,157.616002 570.563995,157.879999 571.556,158.104 L572.500217,158.308801 C574.484079,158.752535 576.065327,159.196264 577.244,159.64 C578.604007,160.152003 579.284,160.919995 579.284,161.944 C579.284,162.552003 579.140001,163.055998 578.852,163.456 C578.563999,163.856002 578.204002,164.175999 577.772,164.416 C577.339998,164.656001 576.860003,164.831999 576.332,164.944 C575.803997,165.056001 575.300002,165.112 574.82,165.112 C574.147997,165.112 573.500003,165.032001 572.876,164.872 C572.251997,164.711999 571.700002,164.464002 571.22,164.128 C570.739998,163.791998 570.348002,163.360003 570.044,162.832 C569.739998,162.303997 569.588,161.672004 569.588,160.936 Z M612.068,144.184 L612.068,136.744 L605.252,136.744 L605.252,144.184 L601.124,144.184 L601.124,148.744 L605.252,148.744 L605.252,163.384 C605.252,164.632006 605.459998,165.639996 605.876,166.408 C606.292002,167.176004 606.859996,167.767998 607.58,168.184 C608.300004,168.600002 609.131995,168.879999 610.076,169.024 C611.020005,169.168001 612.019995,169.24 613.076,169.24 C613.748003,169.24 614.435996,169.224 615.14,169.192 C615.844004,169.16 616.483997,169.096 617.06,169 L617.06,163.72 C616.739998,163.784 616.404002,163.832 616.052,163.864 C615.699998,163.896 615.332002,163.912 614.948,163.912 C613.795994,163.912 613.028002,163.720002 612.644,163.336 C612.259998,162.951998 612.068,162.184006 612.068,161.032 L612.068,148.744 L617.06,148.744 L617.06,144.184 L612.068,144.184 Z M626.372,156.616 C626.372,155.623995 626.467999,154.648 626.66,153.688 C626.852001,152.727995 627.179998,151.880004 627.644,151.144 C628.108002,150.407996 628.723996,149.808002 629.492,149.344 C630.260004,148.879998 631.219994,148.648 632.372,148.648 C633.524006,148.648 634.491996,148.879998 635.276,149.344 C636.060004,149.808002 636.683998,150.407996 637.148,151.144 C637.612002,151.880004 637.939999,152.727995 638.132,153.688 C638.324001,154.648 638.42,155.623995 638.42,156.616 C638.42,157.608005 638.324001,158.575995 638.132,159.52 C637.939999,160.464005 637.612002,161.311996 637.148,162.064 C636.683998,162.816004 636.060004,163.415998 635.276,163.864 C634.491996,164.312002 633.524006,164.536 632.372,164.536 C631.219994,164.536 630.260004,164.312002 629.492,163.864 C628.723996,163.415998 628.108002,162.816004 627.644,162.064 C627.179998,161.311996 626.852001,160.464005 626.66,159.52 C626.467999,158.575995 626.372,157.608005 626.372,156.616 Z M619.556,156.616 C619.556,158.60001 619.859997,160.391992 620.468,161.992 C621.076003,163.592008 621.939994,164.959994 623.06,166.096 C624.180006,167.232006 625.523992,168.103997 627.092,168.712 C628.660008,169.320003 630.41999,169.624 632.372,169.624 C634.32401,169.624 636.091992,169.320003 637.676,168.712 C639.260008,168.103997 640.611994,167.232006 641.732,166.096 C642.852006,164.959994 643.715997,163.592008 644.324,161.992 C644.932003,160.391992 645.236,158.60001 645.236,156.616 C645.236,154.63199 644.932003,152.832008 644.324,151.216 C643.715997,149.599992 642.852006,148.224006 641.732,147.088 C640.611994,145.951994 639.260008,145.072003 637.676,144.448 C636.091992,143.823997 634.32401,143.512 632.372,143.512 C630.41999,143.512 628.660008,143.823997 627.092,144.448 C625.523992,145.072003 624.180006,145.951994 623.06,147.088 C621.939994,148.224006 621.076003,149.599992 620.468,151.216 C619.859997,152.832008 619.556,154.63199 619.556,156.616 Z M650.276,134.728 L650.276,169 L657.092,169 L657.092,160.456 L659.732,157.912 L666.548,169 L674.804,169 L664.388,153.304 L673.748,144.184 L665.684,144.184 L657.092,153.112 L657.092,134.728 L650.276,134.728 Z M693.908,153.928 L682.82,153.928 C682.852,153.447998 682.955999,152.904003 683.132,152.296 C683.308001,151.687997 683.611998,151.112003 684.044,150.568 C684.476002,150.023997 685.051996,149.568002 685.772,149.2 C686.492004,148.831998 687.395995,148.648 688.484,148.648 C690.148008,148.648 691.387996,149.095996 692.204,149.992 C693.020004,150.888004 693.587998,152.199991 693.908,153.928 Z M682.82,158.248 L700.724,158.248 C700.852001,156.32799 700.692002,154.488009 700.244,152.728 C699.795998,150.967991 699.068005,149.400007 698.06,148.024 C697.051995,146.647993 695.764008,145.552004 694.196,144.736 C692.627992,143.919996 690.788011,143.512 688.676,143.512 C686.787991,143.512 685.068008,143.847997 683.516,144.52 C681.963992,145.192003 680.628006,146.111994 679.508,147.28 C678.387994,148.448006 677.524003,149.831992 676.916,151.432 C676.307997,153.032008 676.004,154.759991 676.004,156.616 C676.004,158.53601 676.299997,160.295992 676.892,161.896 C677.484003,163.496008 678.323995,164.871994 679.412,166.024 C680.500005,167.176006 681.827992,168.063997 683.396,168.688 C684.964008,169.312003 686.72399,169.624 688.676,169.624 C691.492014,169.624 693.89199,168.984006 695.876,167.704 C697.86001,166.423994 699.331995,164.296015 700.292,161.32 L694.292,161.32 C694.067999,162.088004 693.460005,162.815997 692.468,163.504 C691.475995,164.192003 690.292007,164.536 688.916,164.536 C686.99599,164.536 685.524005,164.040005 684.5,163.048 C683.475995,162.055995 682.916,160.456011 682.82,158.248 Z M704.756,144.184 L704.756,169 L711.572,169 L711.572,155.992 C711.572,153.463987 711.987996,151.648006 712.82,150.544 C713.652004,149.439994 714.995991,148.888 716.852,148.888 C718.484008,148.888 719.619997,149.391995 720.26,150.4 C720.900003,151.408005 721.22,152.93599 721.22,154.984 L721.22,169 L728.036,169 L728.036,153.736 C728.036,152.199992 727.900001,150.800006 727.628,149.536 C727.355999,148.271994 726.884003,147.200004 726.212,146.32 C725.539997,145.439996 724.620006,144.752002 723.452,144.256 C722.283994,143.759998 720.788009,143.512 718.964,143.512 C717.523993,143.512 716.116007,143.839997 714.74,144.496 C713.363993,145.152003 712.244004,146.199993 711.38,147.64 L711.236,147.64 L711.236,144.184 L704.756,144.184 Z M738.5,160.936 C738.5,161.672004 738.651998,162.303997 738.956,162.832 C739.260002,163.360003 739.651998,163.791998 740.132,164.128 C740.612002,164.464002 741.163997,164.711999 741.788,164.872 C742.412003,165.032001 743.059997,165.112 743.732,165.112 C744.212002,165.112 744.715997,165.056001 745.244,164.944 C745.772003,164.831999 746.251998,164.656001 746.684,164.416 C747.116002,164.175999 747.475999,163.856002 747.764,163.456 C748.052001,163.055998 748.196,162.552003 748.196,161.944 C748.196,160.919995 747.516007,160.152003 746.156,159.64 C744.795993,159.127997 742.900012,158.616003 740.468,158.104 C739.475995,157.879999 738.508005,157.616002 737.564,157.312 C736.619995,157.007998 735.780004,156.608002 735.044,156.112 C734.307996,155.615998 733.716002,154.992004 733.268,154.24 C732.819998,153.487996 732.596,152.568005 732.596,151.48 C732.596,149.879992 732.907997,148.568005 733.532,147.544 C734.156003,146.519995 734.979995,145.712003 736.004,145.12 C737.028005,144.527997 738.179994,144.112001 739.46,143.872 C740.740006,143.631999 742.051993,143.512 743.396,143.512 C744.740007,143.512 746.043994,143.639999 747.308,143.896 C748.572006,144.152001 749.699995,144.583997 750.692,145.192 C751.684005,145.800003 752.507997,146.607995 753.164,147.616 C753.820003,148.624005 754.211999,149.895992 754.34,151.432 L747.86,151.432 C747.764,150.119993 747.268004,149.232002 746.372,148.768 C745.475996,148.303998 744.420006,148.072 743.204,148.072 C742.819998,148.072 742.404002,148.096 741.956,148.144 C741.507998,148.192 741.100002,148.295999 740.732,148.456 C740.363998,148.616001 740.052001,148.847998 739.796,149.152 C739.539999,149.456002 739.412,149.863997 739.412,150.376 C739.412,150.984003 739.635998,151.479998 740.084,151.864 C740.532002,152.248002 741.115996,152.559999 741.836,152.8 C742.556004,153.040001 743.379995,153.255999 744.308,153.448 C745.236005,153.640001 746.179995,153.847999 747.14,154.072 C748.132005,154.296001 749.099995,154.567998 750.044,154.888 C750.988005,155.208002 751.827996,155.631997 752.564,156.16 C753.300004,156.688003 753.891998,157.343996 754.34,158.128 C754.788002,158.912004 755.012,159.879994 755.012,161.032 C755.012,162.664008 754.684003,164.031994 754.028,165.136 C753.371997,166.240006 752.516005,167.127997 751.46,167.8 C750.403995,168.472003 749.196007,168.943999 747.836,169.216 C746.475993,169.488001 745.092007,169.624 743.684,169.624 C742.243993,169.624 740.836007,169.480001 739.46,169.192 C738.083993,168.903999 736.860005,168.424003 735.788,167.752 C734.715995,167.079997 733.836003,166.192006 733.148,165.088 C732.459997,163.983994 732.084,162.600008 732.02,160.936 L738.5,160.936 Z" id="Theexchangesendstokens" fill="#FFFFFF" fill-rule="nonzero"></path>
        <path d="M532.56,560.728 L532.56,595 L540.096,595 L540.096,583.96 L544.416,579.592 L554.736,595 L564.192,595 L549.504,574.264 L562.896,560.728 L553.488,560.728 L540.096,574.936 L540.096,560.728 L532.56,560.728 Z M566.688,560.728 L566.688,595 L573.504,595 L573.504,560.728 L566.688,560.728 Z M595.584,579.928 L584.496,579.928 C584.528,579.447998 584.631999,578.904003 584.808,578.296 C584.984001,577.687997 585.287998,577.112003 585.72,576.568 C586.152002,576.023997 586.727996,575.568002 587.448,575.2 C588.168004,574.831998 589.071995,574.648 590.16,574.648 C591.824008,574.648 593.063996,575.095996 593.88,575.992 C594.696004,576.888004 595.263998,578.199991 595.584,579.928 Z M584.496,584.248 L602.4,584.248 C602.528001,582.32799 602.368002,580.488009 601.92,578.728 C601.471998,576.967991 600.744005,575.400007 599.736,574.024 C598.727995,572.647993 597.440008,571.552004 595.872,570.736 C594.303992,569.919996 592.464011,569.512 590.352,569.512 C588.463991,569.512 586.744008,569.847997 585.192,570.52 C583.639992,571.192003 582.304006,572.111994 581.184,573.28 C580.063994,574.448006 579.200003,575.831992 578.592,577.432 C577.983997,579.032008 577.68,580.759991 577.68,582.616 C577.68,584.53601 577.975997,586.295992 578.568,587.896 C579.160003,589.496008 579.999995,590.871994 581.088,592.024 C582.176005,593.176006 583.503992,594.063997 585.072,594.688 C586.640008,595.312003 588.39999,595.624 590.352,595.624 C593.168014,595.624 595.56799,594.984006 597.552,593.704 C599.53601,592.423994 601.007995,590.296015 601.968,587.32 L595.968,587.32 C595.743999,588.088004 595.136005,588.815997 594.144,589.504 C593.151995,590.192003 591.968007,590.536 590.592,590.536 C588.67199,590.536 587.200005,590.040005 586.176,589.048 C585.151995,588.055995 584.592,586.456011 584.496,584.248 Z M606.432,570.184 L606.432,595 L613.248,595 L613.248,583.816 C613.248,582.695994 613.359999,581.656005 613.584,580.696 C613.808001,579.735995 614.183997,578.896004 614.712,578.176 C615.240003,577.455996 615.935996,576.888002 616.8,576.472 C617.664004,576.055998 618.719994,575.848 619.968,575.848 C620.384002,575.848 620.815998,575.872 621.264,575.92 C621.712002,575.968 622.095998,576.024 622.416,576.088 L622.416,569.752 C621.871997,569.591999 621.376002,569.512 620.928,569.512 C620.063996,569.512 619.232004,569.639999 618.432,569.896 C617.631996,570.152001 616.880004,570.512 616.176,570.976 C615.471996,571.440002 614.848003,571.999997 614.304,572.656 C613.759997,573.312003 613.328002,574.023996 613.008,574.792 L612.912,574.792 L612.912,570.184 L606.432,570.184 Z M630.288,582.616 C630.288,581.623995 630.383999,580.648 630.576,579.688 C630.768001,578.727995 631.095998,577.880004 631.56,577.144 C632.024002,576.407996 632.639996,575.808002 633.408,575.344 C634.176004,574.879998 635.135994,574.648 636.288,574.648 C637.440006,574.648 638.407996,574.879998 639.192,575.344 C639.976004,575.808002 640.599998,576.407996 641.064,577.144 C641.528002,577.880004 641.855999,578.727995 642.048,579.688 C642.240001,580.648 642.336,581.623995 642.336,582.616 C642.336,583.608005 642.240001,584.575995 642.048,585.52 C641.855999,586.464005 641.528002,587.311996 641.064,588.064 C640.599998,588.816004 639.976004,589.415998 639.192,589.864 C638.407996,590.312002 637.440006,590.536 636.288,590.536 C635.135994,590.536 634.176004,590.312002 633.408,589.864 C632.639996,589.415998 632.024002,588.816004 631.56,588.064 C631.095998,587.311996 630.768001,586.464005 630.576,585.52 C630.383999,584.575995 630.288,583.608005 630.288,582.616 Z M623.472,582.616 C623.472,584.60001 623.775997,586.391992 624.384,587.992 C624.992003,589.592008 625.855994,590.959994 626.976,592.096 C628.096006,593.232006 629.439992,594.103997 631.008,594.712 C632.576008,595.320003 634.33599,595.624 636.288,595.624 C638.24001,595.624 640.007992,595.320003 641.592,594.712 C643.176008,594.103997 644.527994,593.232006 645.648,592.096 C646.768006,590.959994 647.631997,589.592008 648.24,587.992 C648.848003,586.391992 649.152,584.60001 649.152,582.616 C649.152,580.63199 648.848003,578.832008 648.24,577.216 C647.631997,575.599992 646.768006,574.224006 645.648,573.088 C644.527994,571.951994 643.176008,571.072003 641.592,570.448 C640.007992,569.823997 638.24001,569.512 636.288,569.512 C634.33599,569.512 632.576008,569.823997 631.008,570.448 C629.439992,571.072003 628.096006,571.951994 626.976,573.088 C625.855994,574.224006 624.992003,575.599992 624.384,577.216 C623.775997,578.832008 623.472,580.63199 623.472,582.616 Z M658.848,586.936 L652.368,586.936 C652.432,588.600008 652.807997,589.983994 653.496,591.088 C654.184003,592.192006 655.063995,593.079997 656.136,593.752 C657.208005,594.424003 658.431993,594.903999 659.808,595.192 C661.184007,595.480001 662.591993,595.624 664.032,595.624 C665.440007,595.624 666.823993,595.488001 668.184,595.216 C669.544007,594.943999 670.751995,594.472003 671.808,593.8 C672.864005,593.127997 673.719997,592.240006 674.376,591.136 C675.032003,590.031994 675.36,588.664008 675.36,587.032 C675.36,585.879994 675.136002,584.912004 674.688,584.128 C674.239998,583.343996 673.648004,582.688003 672.912,582.16 C672.175996,581.631997 671.336005,581.208002 670.392,580.888 C669.447995,580.567998 668.480005,580.296001 667.488,580.072 C666.527995,579.847999 665.584005,579.640001 664.656,579.448 C663.727995,579.255999 662.904004,579.040001 662.184,578.8 C661.463996,578.559999 660.880002,578.248002 660.432,577.864 C659.983998,577.479998 659.76,576.984003 659.76,576.376 C659.76,575.863997 659.887999,575.456002 660.144,575.152 C660.400001,574.847998 660.711998,574.616001 661.08,574.456 C661.448002,574.295999 661.855998,574.192 662.304,574.144 C662.752002,574.096 663.167998,574.072 663.552,574.072 C664.768006,574.072 665.823996,574.303998 666.72,574.768 C667.616004,575.232002 668.112,576.119993 668.208,577.432 L674.688,577.432 C674.559999,575.895992 674.168003,574.624005 673.512,573.616 C672.855997,572.607995 672.032005,571.800003 671.04,571.192 C670.047995,570.583997 668.920006,570.152001 667.656,569.896 C666.391994,569.639999 665.088007,569.512 663.744,569.512 C662.399993,569.512 661.088006,569.631999 659.808,569.872 C658.527994,570.112001 657.376005,570.527997 656.352,571.12 C655.327995,571.712003 654.504003,572.519995 653.88,573.544 C653.255997,574.568005 652.944,575.879992 652.944,577.48 C652.944,578.568005 653.167998,579.487996 653.616,580.24 C654.064002,580.992004 654.655996,581.615998 655.392,582.112 C656.128004,582.608002 656.967995,583.007998 657.912,583.312 C658.856005,583.616002 659.823995,583.879999 660.816,584.104 C663.248012,584.616003 665.143993,585.127997 666.504,585.64 C667.864007,586.152003 668.544,586.919995 668.544,587.944 C668.544,588.552003 668.400001,589.055998 668.112,589.456 C667.823999,589.856002 667.464002,590.175999 667.032,590.416 C666.599998,590.656001 666.120003,590.831999 665.592,590.944 C665.063997,591.056001 664.560002,591.112 664.08,591.112 C663.407997,591.112 662.760003,591.032001 662.136,590.872 C661.511997,590.711999 660.960002,590.464002 660.48,590.128 C659.999998,589.791998 659.608002,589.360003 659.304,588.832 C658.999998,588.303997 658.848,587.672004 658.848,586.936 Z M479.76,643.936 L473.28,643.936 C473.344,645.600008 473.719997,646.983994 474.408,648.088 C475.096003,649.192006 475.975995,650.079997 477.048,650.752 C478.120005,651.424003 479.343993,651.903999 480.72,652.192 C482.096007,652.480001 483.503993,652.624 484.944,652.624 C486.352007,652.624 487.735993,652.488001 489.096,652.216 C490.456007,651.943999 491.663995,651.472003 492.72,650.8 C493.776005,650.127997 494.631997,649.240006 495.288,648.136 C495.944003,647.031994 496.272,645.664008 496.272,644.032 C496.272,642.879994 496.048002,641.912004 495.6,641.128 C495.151998,640.343996 494.560004,639.688003 493.824,639.16 C493.087996,638.631997 492.248005,638.208002 491.304,637.888 C490.359995,637.567998 489.392005,637.296001 488.4,637.072 C487.439995,636.847999 486.496005,636.640001 485.568,636.448 C484.639995,636.255999 483.816004,636.040001 483.096,635.8 C482.375996,635.559999 481.792002,635.248002 481.344,634.864 C480.895998,634.479998 480.672,633.984003 480.672,633.376 C480.672,632.863997 480.799999,632.456002 481.056,632.152 C481.312001,631.847998 481.623998,631.616001 481.992,631.456 C482.360002,631.295999 482.767998,631.192 483.216,631.144 C483.664002,631.096 484.079998,631.072 484.464,631.072 C485.680006,631.072 486.735996,631.303998 487.632,631.768 C488.528004,632.232002 489.024,633.119993 489.12,634.432 L495.6,634.432 C495.471999,632.895992 495.080003,631.624005 494.424,630.616 C493.767997,629.607995 492.944005,628.800003 491.952,628.192 C490.959995,627.583997 489.832006,627.152001 488.568,626.896 C487.303994,626.639999 486.000007,626.512 484.656,626.512 C483.311993,626.512 482.000006,626.631999 480.72,626.872 C479.439994,627.112001 478.288005,627.527997 477.264,628.12 C476.239995,628.712003 475.416003,629.519995 474.792,630.544 C474.167997,631.568005 473.856,632.879992 473.856,634.48 C473.856,635.568005 474.079998,636.487996 474.528,637.24 C474.976002,637.992004 475.567996,638.615998 476.304,639.112 C477.040004,639.608002 477.879995,640.007998 478.824,640.312 C479.768005,640.616002 480.735995,640.879999 481.728,641.104 C484.160012,641.616003 486.055993,642.127997 487.416,642.64 C488.776007,643.152003 489.456,643.919995 489.456,644.944 C489.456,645.552003 489.312001,646.055998 489.024,646.456 C488.735999,646.856002 488.376002,647.175999 487.944,647.416 C487.511998,647.656001 487.032003,647.831999 486.504,647.944 C485.975997,648.056001 485.472002,648.112 484.992,648.112 C484.319997,648.112 483.672003,648.032001 483.048,647.872 C482.423997,647.711999 481.872002,647.464002 481.392,647.128 C480.911998,646.791998 480.520002,646.360003 480.216,645.832 C479.911998,645.303997 479.76,644.672004 479.76,643.936 Z M516.96,636.928 L505.872,636.928 C505.904,636.447998 506.007999,635.904003 506.184,635.296 C506.360001,634.687997 506.663998,634.112003 507.096,633.568 C507.528002,633.023997 508.103996,632.568002 508.824,632.2 C509.544004,631.831998 510.447995,631.648 511.536,631.648 C513.200008,631.648 514.439996,632.095996 515.256,632.992 C516.072004,633.888004 516.639998,635.199991 516.96,636.928 Z M505.872,641.248 L523.776,641.248 C523.904001,639.32799 523.744002,637.488009 523.296,635.728 C522.847998,633.967991 522.120005,632.400007 521.112,631.024 C520.103995,629.647993 518.816008,628.552004 517.248,627.736 C515.679992,626.919996 513.840011,626.512 511.728,626.512 C509.839991,626.512 508.120008,626.847997 506.568,627.52 C505.015992,628.192003 503.680006,629.111994 502.56,630.28 C501.439994,631.448006 500.576003,632.831992 499.968,634.432 C499.359997,636.032008 499.056,637.759991 499.056,639.616 C499.056,641.53601 499.351997,643.295992 499.944,644.896 C500.536003,646.496008 501.375995,647.871994 502.464,649.024 C503.552005,650.176006 504.879992,651.063997 506.448,651.688 C508.016008,652.312003 509.77599,652.624 511.728,652.624 C514.544014,652.624 516.94399,651.984006 518.928,650.704 C520.91201,649.423994 522.383995,647.296015 523.344,644.32 L517.344,644.32 C517.119999,645.088004 516.512005,645.815997 515.52,646.504 C514.527995,647.192003 513.344007,647.536 511.968,647.536 C510.04799,647.536 508.576005,647.040005 507.552,646.048 C506.527995,645.055995 505.968,643.456011 505.872,641.248 Z M527.808,627.184 L527.808,652 L534.624,652 L534.624,638.992 C534.624,636.463987 535.039996,634.648006 535.872,633.544 C536.704004,632.439994 538.047991,631.888 539.904,631.888 C541.536008,631.888 542.671997,632.391995 543.312,633.4 C543.952003,634.408005 544.272,635.93599 544.272,637.984 L544.272,652 L551.088,652 L551.088,636.736 C551.088,635.199992 550.952001,633.800006 550.68,632.536 C550.407999,631.271994 549.936003,630.200004 549.264,629.32 C548.591997,628.439996 547.672006,627.752002 546.504,627.256 C545.335994,626.759998 543.840009,626.512 542.016,626.512 C540.575993,626.512 539.168007,626.839997 537.792,627.496 C536.415993,628.152003 535.296004,629.199993 534.432,630.64 L534.288,630.64 L534.288,627.184 L527.808,627.184 Z M573.888,639.52 C573.888,640.544005 573.792001,641.535995 573.6,642.496 C573.407999,643.456005 573.088002,644.311996 572.64,645.064 C572.191998,645.816004 571.592004,646.415998 570.84,646.864 C570.087996,647.312002 569.152006,647.536 568.032,647.536 C566.975995,647.536 566.072004,647.304002 565.32,646.84 C564.567996,646.375998 563.944002,645.768004 563.448,645.016 C562.951998,644.263996 562.592001,643.408005 562.368,642.448 C562.143999,641.487995 562.032,640.528005 562.032,639.568 C562.032,638.543995 562.135999,637.560005 562.344,636.616 C562.552001,635.671995 562.887998,634.832004 563.352,634.096 C563.816002,633.359996 564.431996,632.768002 565.2,632.32 C565.968004,631.871998 566.911994,631.648 568.032,631.648 C569.152006,631.648 570.079996,631.871998 570.816,632.32 C571.552004,632.768002 572.151998,633.351996 572.616,634.072 C573.080002,634.792004 573.407999,635.623995 573.6,636.568 C573.792001,637.512005 573.888,638.495995 573.888,639.52 Z M573.984,648.832 L573.984,652 L580.464,652 L580.464,617.728 L573.648,617.728 L573.648,630.208 L573.552,630.208 C572.783996,628.991994 571.736007,628.072003 570.408,627.448 C569.079993,626.823997 567.680007,626.512 566.208,626.512 C564.383991,626.512 562.784007,626.871996 561.408,627.592 C560.031993,628.312004 558.888005,629.263994 557.976,630.448 C557.063995,631.632006 556.376002,632.999992 555.912,634.552 C555.447998,636.104008 555.216,637.711992 555.216,639.376 C555.216,641.104009 555.447998,642.767992 555.912,644.368 C556.376002,645.968008 557.063995,647.383994 557.976,648.616 C558.888005,649.848006 560.047993,650.823996 561.456,651.544 C562.864007,652.264004 564.495991,652.624 566.352,652.624 C567.984008,652.624 569.447994,652.328003 570.744,651.736 C572.040006,651.143997 573.087996,650.176007 573.888,648.832 L573.984,648.832 Z M590.88,643.936 L584.4,643.936 C584.464,645.600008 584.839997,646.983994 585.528,648.088 C586.216003,649.192006 587.095995,650.079997 588.168,650.752 C589.240005,651.424003 590.463993,651.903999 591.84,652.192 C593.216007,652.480001 594.623993,652.624 596.064,652.624 C597.472007,652.624 598.855993,652.488001 600.216,652.216 C601.576007,651.943999 602.783995,651.472003 603.84,650.8 C604.896005,650.127997 605.751997,649.240006 606.408,648.136 C607.064003,647.031994 607.392,645.664008 607.392,644.032 C607.392,642.879994 607.168002,641.912004 606.72,641.128 C606.271998,640.343996 605.680004,639.688003 604.944,639.16 C604.207996,638.631997 603.368005,638.208002 602.424,637.888 C601.479995,637.567998 600.512005,637.296001 599.52,637.072 C598.559995,636.847999 597.616005,636.640001 596.688,636.448 C595.759995,636.255999 594.936004,636.040001 594.216,635.8 C593.495996,635.559999 592.912002,635.248002 592.464,634.864 C592.015998,634.479998 591.792,633.984003 591.792,633.376 C591.792,632.863997 591.919999,632.456002 592.176,632.152 C592.432001,631.847998 592.743998,631.616001 593.112,631.456 C593.480002,631.295999 593.887998,631.192 594.336,631.144 C594.784002,631.096 595.199998,631.072 595.584,631.072 C596.800006,631.072 597.855996,631.303998 598.752,631.768 C599.648004,632.232002 600.144,633.119993 600.24,634.432 L606.72,634.432 C606.591999,632.895992 606.200003,631.624005 605.544,630.616 C604.887997,629.607995 604.064005,628.800003 603.072,628.192 C602.079995,627.583997 600.952006,627.152001 599.688,626.896 C598.423994,626.639999 597.120007,626.512 595.776,626.512 C594.431993,626.512 593.120006,626.631999 591.84,626.872 C590.559994,627.112001 589.408005,627.527997 588.384,628.12 C587.359995,628.712003 586.536003,629.519995 585.912,630.544 C585.287997,631.568005 584.976,632.879992 584.976,634.48 C584.976,635.568005 585.199998,636.487996 585.648,637.24 C586.096002,637.992004 586.687996,638.615998 587.424,639.112 C588.160004,639.608002 588.999995,640.007998 589.944,640.312 C590.888005,640.616002 591.855995,640.879999 592.848,641.104 C595.280012,641.616003 597.175993,642.127997 598.536,642.64 C599.896007,643.152003 600.576,643.919995 600.576,644.944 C600.576,645.552003 600.432001,646.055998 600.144,646.456 C599.855999,646.856002 599.496002,647.175999 599.064,647.416 C598.631998,647.656001 598.152003,647.831999 597.624,647.944 C597.095997,648.056001 596.592002,648.112 596.112,648.112 C595.439997,648.112 594.792003,648.032001 594.168,647.872 C593.543997,647.711999 592.992002,647.464002 592.512,647.128 C592.031998,646.791998 591.640002,646.360003 591.336,645.832 C591.031998,645.303997 590.88,644.672004 590.88,643.936 Z M642.912,639.616 C642.912,640.640005 642.800001,641.631995 642.576,642.592 C642.351999,643.552005 642.000002,644.399996 641.52,645.136 C641.039998,645.872004 640.440004,646.455998 639.72,646.888 C638.999996,647.320002 638.128005,647.536 637.104,647.536 C636.111995,647.536 635.248004,647.320002 634.512,646.888 C633.775996,646.455998 633.168002,645.872004 632.688,645.136 C632.207998,644.399996 631.856001,643.552005 631.632,642.592 C631.407999,641.631995 631.296,640.640005 631.296,639.616 C631.296,638.559995 631.407999,637.552005 631.632,636.592 C631.856001,635.631995 632.207998,634.784004 632.688,634.048 C633.168002,633.311996 633.775996,632.728002 634.512,632.296 C635.248004,631.863998 636.111995,631.648 637.104,631.648 C638.128005,631.648 638.999996,631.863998 639.72,632.296 C640.440004,632.728002 641.039998,633.311996 641.52,634.048 C642.000002,634.784004 642.351999,635.631995 642.576,636.592 C642.800001,637.552005 642.912,638.559995 642.912,639.616 Z M624.72,617.728 L624.72,652 L631.2,652 L631.2,648.832 L631.296,648.832 C632.032004,650.208007 633.119993,651.183997 634.56,651.76 C636.000007,652.336003 637.631991,652.624 639.456,652.624 C640.704006,652.624 641.935994,652.368003 643.152,651.856 C644.368006,651.343997 645.463995,650.560005 646.44,649.504 C647.416005,648.447995 648.207997,647.096008 648.816,645.448 C649.424003,643.799992 649.728,641.840011 649.728,639.568 C649.728,637.295989 649.424003,635.336008 648.816,633.688 C648.207997,632.039992 647.416005,630.688005 646.44,629.632 C645.463995,628.575995 644.368006,627.792003 643.152,627.28 C641.935994,626.767997 640.704006,626.512 639.456,626.512 C637.919992,626.512 636.440007,626.807997 635.016,627.4 C633.591993,627.992003 632.464004,628.927994 631.632,630.208 L631.536,630.208 L631.536,617.728 L624.72,617.728 Z M653.76,634.816 C653.856,633.215992 654.255996,631.888005 654.96,630.832 C655.664004,629.775995 656.559995,628.928003 657.648,628.288 C658.736005,627.647997 659.959993,627.192001 661.32,626.92 C662.680007,626.647999 664.047993,626.512 665.424,626.512 C666.672006,626.512 667.935994,626.599999 669.216,626.776 C670.496006,626.952001 671.663995,627.295997 672.72,627.808 C673.776005,628.320003 674.639997,629.031995 675.312,629.944 C675.984003,630.856005 676.32,632.063992 676.32,633.568 L676.32,646.48 C676.32,647.600006 676.383999,648.671995 676.512,649.696 C676.640001,650.720005 676.863998,651.487997 677.184,652 L670.272,652 C670.143999,651.615998 670.04,651.224002 669.96,650.824 C669.88,650.423998 669.824,650.016002 669.792,649.6 C668.703995,650.720006 667.424007,651.503998 665.952,651.952 C664.479993,652.400002 662.976008,652.624 661.44,652.624 C660.255994,652.624 659.152005,652.480001 658.128,652.192 C657.103995,651.903999 656.208004,651.456003 655.44,650.848 C654.671996,650.239997 654.072002,649.472005 653.64,648.544 C653.207998,647.615995 652.992,646.512 652.992,645.232 C652.992,643.823993 653.239998,642.664005 653.736,641.752 C654.232002,640.839995 654.871996,640.112003 655.656,639.568 C656.440004,639.023997 657.335995,638.616001 658.344,638.344 C659.352005,638.071999 660.367995,637.856001 661.392,637.696 C662.160004,637.575999 662.918999,637.474 663.668999,637.39 L664.416,637.312 C665.408005,637.216 666.287996,637.072001 667.056,636.88 C667.824004,636.687999 668.431998,636.408002 668.88,636.04 C669.287275,635.705453 669.496199,635.232069 669.506777,634.619835 L669.504,634.432 C669.504,633.695996 669.384001,633.112002 669.144,632.68 C668.903999,632.247998 668.584002,631.912001 668.184,631.672 C667.783998,631.431999 667.320003,631.272 666.792,631.192 C666.263997,631.112 665.696003,631.072 665.088,631.072 C663.743993,631.072 662.688004,631.359997 661.92,631.936 C661.151996,632.512 660.704001,633.471993 660.576,634.816 L653.76,634.816 Z M669.504,639.856 C669.215999,640.112001 668.856002,640.311999 668.424,640.456 C667.991998,640.600001 667.528002,640.72 667.032,640.816 C666.701332,640.88 666.36,640.936889 666.008001,640.986667 L665.472,641.056 C664.927997,641.12 664.384003,641.2 663.84,641.296 C663.327997,641.392 662.824002,641.519999 662.328,641.68 C661.831998,641.840001 661.400002,642.055999 661.032,642.328 C660.663998,642.600001 660.368001,642.943998 660.144,643.36 C659.919999,643.776002 659.808,644.303997 659.808,644.944 C659.808,645.552003 659.919999,646.063998 660.144,646.48 C660.368001,646.896002 660.671998,647.223999 661.056,647.464 C661.440002,647.704001 661.887997,647.872 662.4,647.968 C662.912003,648.064 663.439997,648.112 663.984,648.112 C665.328007,648.112 666.367996,647.888002 667.104,647.44 C667.840004,646.991998 668.383998,646.456003 668.736,645.832 C669.088002,645.207997 669.304,644.576003 669.384,643.936 L669.442776,643.418774 C669.483592,643.013877 669.504,642.674287 669.504,642.4 L669.504,639.856 Z M698.496,635.92 L705.168,635.92 C705.072,634.319992 704.688003,632.936006 704.016,631.768 C703.343997,630.599994 702.472005,629.624004 701.4,628.84 C700.327995,628.055996 699.112007,627.472002 697.752,627.088 C696.391993,626.703998 694.976007,626.512 693.504,626.512 C691.48799,626.512 689.696008,626.847997 688.128,627.52 C686.559992,628.192003 685.232005,629.127994 684.144,630.328 C683.055995,631.528006 682.232003,632.951992 681.672,634.6 C681.111997,636.248008 680.832,638.03199 680.832,639.952 C680.832,641.808009 681.135997,643.512 681.744,645.064 C682.352003,646.616008 683.199995,647.951994 684.288,649.072 C685.376005,650.192006 686.695992,651.063997 688.248,651.688 C689.800008,652.312003 691.503991,652.624 693.36,652.624 C696.656016,652.624 699.359989,651.760009 701.472,650.032 C703.584011,648.303991 704.863998,645.792016 705.312,642.496 L698.736,642.496 C698.511999,644.032008 697.960004,645.255995 697.08,646.168 C696.199996,647.080005 694.944008,647.536 693.312,647.536 C692.255995,647.536 691.360004,647.296002 690.624,646.816 C689.887996,646.335998 689.304002,645.720004 688.872,644.968 C688.439998,644.215996 688.128001,643.376005 687.936,642.448 C687.743999,641.519995 687.648,640.608004 687.648,639.712 C687.648,638.783995 687.743999,637.848005 687.936,636.904 C688.128001,635.959995 688.455998,635.096004 688.92,634.312 C689.384002,633.527996 689.983996,632.888002 690.72,632.392 C691.456004,631.895998 692.367995,631.648 693.456,631.648 C696.368015,631.648 698.047998,633.071986 698.496,635.92 Z M709.776,617.728 L709.776,652 L716.592,652 L716.592,643.456 L719.232,640.912 L726.048,652 L734.304,652 L723.888,636.304 L733.248,627.184 L725.184,627.184 L716.592,636.112 L716.592,617.728 L709.776,617.728 Z M450.024,692.92 L456.696,692.92 C456.6,691.319992 456.216003,689.936006 455.544,688.768 C454.871997,687.599994 454.000005,686.624004 452.928,685.84 C451.855995,685.055996 450.640007,684.472002 449.28,684.088 C447.919993,683.703998 446.504007,683.512 445.032,683.512 C443.01599,683.512 441.224008,683.847997 439.656,684.52 C438.087992,685.192003 436.760005,686.127994 435.672,687.328 C434.583995,688.528006 433.760003,689.951992 433.2,691.6 C432.639997,693.248008 432.36,695.03199 432.36,696.952 C432.36,698.808009 432.663997,700.512 433.272,702.064 C433.880003,703.616008 434.727995,704.951994 435.816,706.072 C436.904005,707.192006 438.223992,708.063997 439.776,708.688 C441.328008,709.312003 443.031991,709.624 444.888,709.624 C448.184016,709.624 450.887989,708.760009 453,707.032 C455.112011,705.303991 456.391998,702.792016 456.84,699.496 L450.264,699.496 C450.039999,701.032008 449.488004,702.255995 448.608,703.168 C447.727996,704.080005 446.472008,704.536 444.84,704.536 C443.783995,704.536 442.888004,704.296002 442.152,703.816 C441.415996,703.335998 440.832002,702.720004 440.4,701.968 C439.967998,701.215996 439.656001,700.376005 439.464,699.448 C439.271999,698.519995 439.176,697.608004 439.176,696.712 C439.176,695.783995 439.271999,694.848005 439.464,693.904 C439.656001,692.959995 439.983998,692.096004 440.448,691.312 C440.912002,690.527996 441.511996,689.888002 442.248,689.392 C442.984004,688.895998 443.895995,688.648 444.984,688.648 C447.896015,688.648 449.575998,690.071986 450.024,692.92 Z M483.96,709 L483.96,684.184 L477.144,684.184 L477.144,697.192 C477.144,699.720013 476.728004,701.535994 475.896,702.64 C475.063996,703.744006 473.720009,704.296 471.864,704.296 C470.231992,704.296 469.096003,703.792005 468.456,702.784 C467.815997,701.775995 467.496,700.24801 467.496,698.2 L467.496,684.184 L460.68,684.184 L460.68,699.448 C460.68,700.984008 460.815999,702.383994 461.088,703.648 C461.360001,704.912006 461.831997,705.983996 462.504,706.864 C463.176003,707.744004 464.095994,708.423998 465.264,708.904 C466.432006,709.384002 467.927991,709.624 469.752,709.624 C471.192007,709.624 472.599993,709.304003 473.976,708.664 C475.352007,708.023997 476.471996,706.984007 477.336,705.544 L477.48,705.544 L477.48,709 L483.96,709 Z M489.144,684.184 L489.144,709 L495.96,709 L495.96,697.816 C495.96,696.695994 496.071999,695.656005 496.296,694.696 C496.520001,693.735995 496.895997,692.896004 497.424,692.176 C497.952003,691.455996 498.647996,690.888002 499.512,690.472 C500.376004,690.055998 501.431994,689.848 502.68,689.848 C503.096002,689.848 503.527998,689.872 503.976,689.92 C504.424002,689.968 504.807998,690.024 505.128,690.088 L505.128,683.752 C504.583997,683.591999 504.088002,683.512 503.64,683.512 C502.775996,683.512 501.944004,683.639999 501.144,683.896 C500.343996,684.152001 499.592004,684.512 498.888,684.976 C498.183996,685.440002 497.560003,685.999997 497.016,686.656 C496.471997,687.312003 496.040002,688.023996 495.72,688.792 L495.624,688.792 L495.624,684.184 L489.144,684.184 Z M507.528,691.816 C507.624,690.215992 508.023996,688.888005 508.728,687.832 C509.432004,686.775995 510.327995,685.928003 511.416,685.288 C512.504005,684.647997 513.727993,684.192001 515.088,683.92 C516.448007,683.647999 517.815993,683.512 519.192,683.512 C520.440006,683.512 521.703994,683.599999 522.984,683.776 C524.264006,683.952001 525.431995,684.295997 526.488,684.808 C527.544005,685.320003 528.407997,686.031995 529.08,686.944 C529.752003,687.856005 530.088,689.063992 530.088,690.568 L530.088,703.48 C530.088,704.600006 530.151999,705.671995 530.28,706.696 C530.408001,707.720005 530.631998,708.487997 530.952,709 L524.04,709 C523.911999,708.615998 523.808,708.224002 523.728,707.824 C523.648,707.423998 523.592,707.016002 523.56,706.6 C522.471995,707.720006 521.192007,708.503998 519.72,708.952 C518.247993,709.400002 516.744008,709.624 515.208,709.624 C514.023994,709.624 512.920005,709.480001 511.896,709.192 C510.871995,708.903999 509.976004,708.456003 509.208,707.848 C508.439996,707.239997 507.840002,706.472005 507.408,705.544 C506.975998,704.615995 506.76,703.512 506.76,702.232 C506.76,700.823993 507.007998,699.664005 507.504,698.752 C508.000002,697.839995 508.639996,697.112003 509.424,696.568 C510.208004,696.023997 511.103995,695.616001 512.112,695.344 C513.120005,695.071999 514.135995,694.856001 515.16,694.696 C515.928004,694.575999 516.686999,694.474 517.436999,694.39 L518.184,694.312 C519.176005,694.216 520.055996,694.072001 520.824,693.88 C521.592004,693.687999 522.199998,693.408002 522.648,693.04 C523.055275,692.705453 523.264199,692.232069 523.274777,691.619835 L523.272,691.432 C523.272,690.695996 523.152001,690.112002 522.912,689.68 C522.671999,689.247998 522.352002,688.912001 521.952,688.672 C521.551998,688.431999 521.088003,688.272 520.56,688.192 C520.031997,688.112 519.464003,688.072 518.856,688.072 C517.511993,688.072 516.456004,688.359997 515.688,688.936 C514.919996,689.512 514.472001,690.471993 514.344,691.816 L507.528,691.816 Z M523.272,696.856 C522.983999,697.112001 522.624002,697.311999 522.192,697.456 C521.759998,697.600001 521.296002,697.72 520.8,697.816 C520.469332,697.88 520.128,697.936889 519.776001,697.986667 L519.24,698.056 C518.695997,698.12 518.152003,698.2 517.608,698.296 C517.095997,698.392 516.592002,698.519999 516.096,698.68 C515.599998,698.840001 515.168002,699.055999 514.8,699.328 C514.431998,699.600001 514.136001,699.943998 513.912,700.36 C513.687999,700.776002 513.576,701.303997 513.576,701.944 C513.576,702.552003 513.687999,703.063998 513.912,703.48 C514.136001,703.896002 514.439998,704.223999 514.824,704.464 C515.208002,704.704001 515.655997,704.872 516.168,704.968 C516.680003,705.064 517.207997,705.112 517.752,705.112 C519.096007,705.112 520.135996,704.888002 520.872,704.44 C521.608004,703.991998 522.151998,703.456003 522.504,702.832 C522.856002,702.207997 523.072,701.576003 523.152,700.936 L523.210776,700.418774 C523.251592,700.013877 523.272,699.674287 523.272,699.4 L523.272,696.856 Z M544.008,684.184 L544.008,676.744 L537.192,676.744 L537.192,684.184 L533.064,684.184 L533.064,688.744 L537.192,688.744 L537.192,703.384 C537.192,704.632006 537.399998,705.639996 537.816,706.408 C538.232002,707.176004 538.799996,707.767998 539.52,708.184 C540.240004,708.600002 541.071995,708.879999 542.016,709.024 C542.960005,709.168001 543.959995,709.24 545.016,709.24 C545.688003,709.24 546.375996,709.224 547.08,709.192 C547.784004,709.16 548.423997,709.096 549,709 L549,703.72 C548.679998,703.784 548.344002,703.832 547.992,703.864 C547.639998,703.896 547.272002,703.912 546.888,703.912 C545.735994,703.912 544.968002,703.720002 544.584,703.336 C544.199998,702.951998 544.008,702.184006 544.008,701.032 L544.008,688.744 L549,688.744 L549,684.184 L544.008,684.184 Z M568.968,693.928 L557.88,693.928 C557.912,693.447998 558.015999,692.904003 558.192,692.296 C558.368001,691.687997 558.671998,691.112003 559.104,690.568 C559.536002,690.023997 560.111996,689.568002 560.832,689.2 C561.552004,688.831998 562.455995,688.648 563.544,688.648 C565.208008,688.648 566.447996,689.095996 567.264,689.992 C568.080004,690.888004 568.647998,692.199991 568.968,693.928 Z M557.88,698.248 L575.784,698.248 C575.912001,696.32799 575.752002,694.488009 575.304,692.728 C574.855998,690.967991 574.128005,689.400007 573.12,688.024 C572.111995,686.647993 570.824008,685.552004 569.256,684.736 C567.687992,683.919996 565.848011,683.512 563.736,683.512 C561.847991,683.512 560.128008,683.847997 558.576,684.52 C557.023992,685.192003 555.688006,686.111994 554.568,687.28 C553.447994,688.448006 552.584003,689.831992 551.976,691.432 C551.367997,693.032008 551.064,694.759991 551.064,696.616 C551.064,698.53601 551.359997,700.295992 551.952,701.896 C552.544003,703.496008 553.383995,704.871994 554.472,706.024 C555.560005,707.176006 556.887992,708.063997 558.456,708.688 C560.024008,709.312003 561.78399,709.624 563.736,709.624 C566.552014,709.624 568.95199,708.984006 570.936,707.704 C572.92001,706.423994 574.391995,704.296015 575.352,701.32 L569.352,701.32 C569.127999,702.088004 568.520005,702.815997 567.528,703.504 C566.535995,704.192003 565.352007,704.536 563.976,704.536 C562.05599,704.536 560.584005,704.040005 559.56,703.048 C558.535995,702.055995 557.976,700.456011 557.88,698.248 Z M597.432,696.52 C597.432,697.544005 597.336001,698.535995 597.144,699.496 C596.951999,700.456005 596.632002,701.311996 596.184,702.064 C595.735998,702.816004 595.136004,703.415998 594.384,703.864 C593.631996,704.312002 592.696006,704.536 591.576,704.536 C590.519995,704.536 589.616004,704.304002 588.864,703.84 C588.111996,703.375998 587.488002,702.768004 586.992,702.016 C586.495998,701.263996 586.136001,700.408005 585.912,699.448 C585.687999,698.487995 585.576,697.528005 585.576,696.568 C585.576,695.543995 585.679999,694.560005 585.888,693.616 C586.096001,692.671995 586.431998,691.832004 586.896,691.096 C587.360002,690.359996 587.975996,689.768002 588.744,689.32 C589.512004,688.871998 590.455994,688.648 591.576,688.648 C592.696006,688.648 593.623996,688.871998 594.36,689.32 C595.096004,689.768002 595.695998,690.351996 596.16,691.072 C596.624002,691.792004 596.951999,692.623995 597.144,693.568 C597.336001,694.512005 597.432,695.495995 597.432,696.52 Z M597.528,705.832 L597.528,709 L604.008,709 L604.008,674.728 L597.192,674.728 L597.192,687.208 L597.096,687.208 C596.327996,685.991994 595.280007,685.072003 593.952,684.448 C592.623993,683.823997 591.224007,683.512 589.752,683.512 C587.927991,683.512 586.328007,683.871996 584.952,684.592 C583.575993,685.312004 582.432005,686.263994 581.52,687.448 C580.607995,688.632006 579.920002,689.999992 579.456,691.552 C578.991998,693.104008 578.76,694.711992 578.76,696.376 C578.76,698.104009 578.991998,699.767992 579.456,701.368 C579.920002,702.968008 580.607995,704.383994 581.52,705.616 C582.432005,706.848006 583.591993,707.823996 585,708.544 C586.408007,709.264004 588.039991,709.624 589.896,709.624 C591.528008,709.624 592.991994,709.328003 594.288,708.736 C595.584006,708.143997 596.631996,707.176007 597.432,705.832 L597.528,705.832 Z M631.128,684.184 L631.128,676.744 L624.312,676.744 L624.312,684.184 L620.184,684.184 L620.184,688.744 L624.312,688.744 L624.312,703.384 C624.312,704.632006 624.519998,705.639996 624.936,706.408 C625.352002,707.176004 625.919996,707.767998 626.64,708.184 C627.360004,708.600002 628.191995,708.879999 629.136,709.024 C630.080005,709.168001 631.079995,709.24 632.136,709.24 C632.808003,709.24 633.495996,709.224 634.2,709.192 C634.904004,709.16 635.543997,709.096 636.12,709 L636.12,703.72 C635.799998,703.784 635.464002,703.832 635.112,703.864 C634.759998,703.896 634.392002,703.912 634.008,703.912 C632.855994,703.912 632.088002,703.720002 631.704,703.336 C631.319998,702.951998 631.128,702.184006 631.128,701.032 L631.128,688.744 L636.12,688.744 L636.12,684.184 L631.128,684.184 Z M645.432,696.616 C645.432,695.623995 645.527999,694.648 645.72,693.688 C645.912001,692.727995 646.239998,691.880004 646.704,691.144 C647.168002,690.407996 647.783996,689.808002 648.552,689.344 C649.320004,688.879998 650.279994,688.648 651.432,688.648 C652.584006,688.648 653.551996,688.879998 654.336,689.344 C655.120004,689.808002 655.743998,690.407996 656.208,691.144 C656.672002,691.880004 656.999999,692.727995 657.192,693.688 C657.384001,694.648 657.48,695.623995 657.48,696.616 C657.48,697.608005 657.384001,698.575995 657.192,699.52 C656.999999,700.464005 656.672002,701.311996 656.208,702.064 C655.743998,702.816004 655.120004,703.415998 654.336,703.864 C653.551996,704.312002 652.584006,704.536 651.432,704.536 C650.279994,704.536 649.320004,704.312002 648.552,703.864 C647.783996,703.415998 647.168002,702.816004 646.704,702.064 C646.239998,701.311996 645.912001,700.464005 645.72,699.52 C645.527999,698.575995 645.432,697.608005 645.432,696.616 Z M638.616,696.616 C638.616,698.60001 638.919997,700.391992 639.528,701.992 C640.136003,703.592008 640.999994,704.959994 642.12,706.096 C643.240006,707.232006 644.583992,708.103997 646.152,708.712 C647.720008,709.320003 649.47999,709.624 651.432,709.624 C653.38401,709.624 655.151992,709.320003 656.736,708.712 C658.320008,708.103997 659.671994,707.232006 660.792,706.096 C661.912006,704.959994 662.775997,703.592008 663.384,701.992 C663.992003,700.391992 664.296,698.60001 664.296,696.616 C664.296,694.63199 663.992003,692.832008 663.384,691.216 C662.775997,689.599992 661.912006,688.224006 660.792,687.088 C659.671994,685.951994 658.320008,685.072003 656.736,684.448 C655.151992,683.823997 653.38401,683.512 651.432,683.512 C649.47999,683.512 647.720008,683.823997 646.152,684.448 C644.583992,685.072003 643.240006,685.951994 642.12,687.088 C640.999994,688.224006 640.136003,689.599992 639.528,691.216 C638.919997,692.832008 638.616,694.63199 638.616,696.616 Z M669.336,674.728 L669.336,709 L676.152,709 L676.152,700.456 L678.792,697.912 L685.608,709 L693.864,709 L683.448,693.304 L692.808,684.184 L684.744,684.184 L676.152,693.112 L676.152,674.728 L669.336,674.728 Z M712.968,693.928 L701.88,693.928 C701.912,693.447998 702.015999,692.904003 702.192,692.296 C702.368001,691.687997 702.671998,691.112003 703.104,690.568 C703.536002,690.023997 704.111996,689.568002 704.832,689.2 C705.552004,688.831998 706.455995,688.648 707.544,688.648 C709.208008,688.648 710.447996,689.095996 711.264,689.992 C712.080004,690.888004 712.647998,692.199991 712.968,693.928 Z M701.88,698.248 L719.784,698.248 C719.912001,696.32799 719.752002,694.488009 719.304,692.728 C718.855998,690.967991 718.128005,689.400007 717.12,688.024 C716.111995,686.647993 714.824008,685.552004 713.256,684.736 C711.687992,683.919996 709.848011,683.512 707.736,683.512 C705.847991,683.512 704.128008,683.847997 702.576,684.52 C701.023992,685.192003 699.688006,686.111994 698.568,687.28 C697.447994,688.448006 696.584003,689.831992 695.976,691.432 C695.367997,693.032008 695.064,694.759991 695.064,696.616 C695.064,698.53601 695.359997,700.295992 695.952,701.896 C696.544003,703.496008 697.383995,704.871994 698.472,706.024 C699.560005,707.176006 700.887992,708.063997 702.456,708.688 C704.024008,709.312003 705.78399,709.624 707.736,709.624 C710.552014,709.624 712.95199,708.984006 714.936,707.704 C716.92001,706.423994 718.391995,704.296015 719.352,701.32 L713.352,701.32 C713.127999,702.088004 712.520005,702.815997 711.528,703.504 C710.535995,704.192003 709.352007,704.536 707.976,704.536 C706.05599,704.536 704.584005,704.040005 703.56,703.048 C702.535995,702.055995 701.976,700.456011 701.88,698.248 Z M723.816,684.184 L723.816,709 L730.632,709 L730.632,695.992 C730.632,693.463987 731.047996,691.648006 731.88,690.544 C732.712004,689.439994 734.055991,688.888 735.912,688.888 C737.544008,688.888 738.679997,689.391995 739.32,690.4 C739.960003,691.408005 740.28,692.93599 740.28,694.984 L740.28,709 L747.096,709 L747.096,693.736 C747.096,692.199992 746.960001,690.800006 746.688,689.536 C746.415999,688.271994 745.944003,687.200004 745.272,686.32 C744.599997,685.439996 743.680006,684.752002 742.512,684.256 C741.343994,683.759998 739.848009,683.512 738.024,683.512 C736.583993,683.512 735.176007,683.839997 733.8,684.496 C732.423993,685.152003 731.304004,686.199993 730.44,687.64 L730.296,687.64 L730.296,684.184 L723.816,684.184 Z M757.56,700.936 C757.56,701.672004 757.711998,702.303997 758.016,702.832 C758.320002,703.360003 758.711998,703.791998 759.192,704.128 C759.672002,704.464002 760.223997,704.711999 760.848,704.872 C761.472003,705.032001 762.119997,705.112 762.792,705.112 C763.272002,705.112 763.775997,705.056001 764.304,704.944 C764.832003,704.831999 765.311998,704.656001 765.744,704.416 C766.176002,704.175999 766.535999,703.856002 766.824,703.456 C767.112001,703.055998 767.256,702.552003 767.256,701.944 C767.256,700.919995 766.576007,700.152003 765.216,699.64 C763.855993,699.127997 761.960012,698.616003 759.528,698.104 C758.535995,697.879999 757.568005,697.616002 756.624,697.312 C755.679995,697.007998 754.840004,696.608002 754.104,696.112 C753.367996,695.615998 752.776002,694.992004 752.328,694.24 C751.879998,693.487996 751.656,692.568005 751.656,691.48 C751.656,689.879992 751.967997,688.568005 752.592,687.544 C753.216003,686.519995 754.039995,685.712003 755.064,685.12 C756.088005,684.527997 757.239994,684.112001 758.52,683.872 C759.800006,683.631999 761.111993,683.512 762.456,683.512 C763.800007,683.512 765.103994,683.639999 766.368,683.896 C767.632006,684.152001 768.759995,684.583997 769.752,685.192 C770.744005,685.800003 771.567997,686.607995 772.224,687.616 C772.880003,688.624005 773.271999,689.895992 773.4,691.432 L766.92,691.432 C766.824,690.119993 766.328004,689.232002 765.432,688.768 C764.535996,688.303998 763.480006,688.072 762.264,688.072 C761.879998,688.072 761.464002,688.096 761.016,688.144 C760.567998,688.192 760.160002,688.295999 759.792,688.456 C759.423998,688.616001 759.112001,688.847998 758.856,689.152 C758.599999,689.456002 758.472,689.863997 758.472,690.376 C758.472,690.984003 758.695998,691.479998 759.144,691.864 C759.592002,692.248002 760.175996,692.559999 760.896,692.8 C761.616004,693.040001 762.439995,693.255999 763.368,693.448 C764.296005,693.640001 765.239995,693.847999 766.2,694.072 C767.192005,694.296001 768.159995,694.567998 769.104,694.888 C770.048005,695.208002 770.887996,695.631997 771.624,696.16 C772.360004,696.688003 772.951998,697.343996 773.4,698.128 C773.848002,698.912004 774.072,699.879994 774.072,701.032 C774.072,702.664008 773.744003,704.031994 773.088,705.136 C772.431997,706.240006 771.576005,707.127997 770.52,707.8 C769.463995,708.472003 768.256007,708.943999 766.896,709.216 C765.535993,709.488001 764.152007,709.624 762.744,709.624 C761.303993,709.624 759.896007,709.480001 758.52,709.192 C757.143993,708.903999 755.920005,708.424003 754.848,707.752 C753.775995,707.079997 752.896003,706.192006 752.208,705.088 C751.519997,703.983994 751.144,702.600008 751.08,700.936 L757.56,700.936 Z" id="Klerossendsbackcuratedtokens" fill="#FFFFFF" fill-rule="nonzero"></path>
        <circle id="Oval" fill="#9013FE" cx="1017.5" cy="196.5" r="10.5"></circle>
        <circle id="Oval" fill="#9013FE" cx="705.5" cy="384.5" r="10.5"></circle>
        <circle id="Oval" fill="#9013FE" cx="996.5" cy="554.5" r="10.5"></circle>
        <polygon id="Path-17" fill="#FFFFFF" fill-rule="nonzero" points="895.461373 48 896.144 83.028 906.142645 82.8330646 894.612925 107.0625 882.147209 83.3010622 892.145 83.106 891.538627 52 314 52 314 107.0625 310 107.0625 310 48"></polygon>
        <polygon id="Path-17" fill="#FFFFFF" fill-rule="nonzero" transform="translate(608.071323, 702.531250) scale(-1, -1) translate(-608.071323, -702.531250) " points="895.461373 673 896.144 708.028 906.142645 707.833065 894.612925 732.0625 882.147209 708.301062 892.145 708.106 891.538627 677 314 677 314 732.0625 310 732.0625 310 673"></polygon>
    </g>
</svg>