<?xml version="1.0" encoding="UTF-8"?>
<svg width="984px" height="530px" viewBox="0 0 984 530" version="1.1" xmlns="http://www.w3.org/2000/svg" xmlns:xlink="http://www.w3.org/1999/xlink">
    <!-- Generator: Sketch 58 (84663) - https://sketch.com -->
    <title>arbitrable-arbitrator-your-platform copy</title>
    <desc>Created with Sketch.</desc>
    <defs>
        <linearGradient x1="90.7232337%" y1="22.0726224%" x2="13.9440549%" y2="80.8973596%" id="linearGradient1">
            <stop stop-color="#FFFFFF" offset="0%"></stop>
            <stop stop-color="#FAFAFA" offset="100%"></stop>
        </linearGradient>
        <circle id="path-2" cx="82.9129979" cy="83.0870021" r="66.2085954"></circle>
        <filter x="-19.3%" y="-17.0%" width="138.5%" height="138.5%" filterUnits="objectBoundingBox" id="filter-3">
            <feOffset dx="0" dy="3" in="SourceAlpha" result="shadowOffsetOuter1"></feOffset>
            <feGaussianBlur stdDeviation="8" in="shadowOffsetOuter1" result="shadowBlurOuter1"></feGaussianBlur>
            <feColorMatrix values="0 0 0 0 0.301960784   0 0 0 0 0   0 0 0 0 0.705882353  0 0 0 0.516826923 0" type="matrix" in="shadowBlurOuter1"></feColorMatrix>
        </filter>
        <linearGradient x1="0%" y1="49.9999777%" x2="100.000024%" y2="49.9999777%" id="linearGradient4">
            <stop stop-color="#A3A2A5" offset="0%"></stop>
            <stop stop-color="#9F9EA0" offset="27.05%"></stop>
            <stop stop-color="#929194" offset="56.07%"></stop>
            <stop stop-color="#7C7C80" offset="85.92%"></stop>
            <stop stop-color="#707073" offset="100%"></stop>
        </linearGradient>
        <linearGradient x1="-0.661193461%" y1="80.1314375%" x2="70.3915924%" y2="24.0826644%" id="linearGradient5">
            <stop stop-color="#969598" offset="0%"></stop>
            <stop stop-color="#908F92" offset="33.96%"></stop>
            <stop stop-color="#7F7F82" offset="79.17%"></stop>
            <stop stop-color="#757578" offset="100%"></stop>
        </linearGradient>
        <linearGradient x1="6.37607994%" y1="-2.83492963%" x2="50.0094516%" y2="85.0511445%" id="linearGradient6">
            <stop stop-color="#9E9EA0" offset="0%"></stop>
            <stop stop-color="#9B9B9D" offset="27.59%"></stop>
            <stop stop-color="#919194" offset="49.4%"></stop>
            <stop stop-color="#808083" offset="69.23%"></stop>
            <stop stop-color="#69696D" offset="87.77%"></stop>
            <stop stop-color="#55565A" offset="100%"></stop>
        </linearGradient>
        <linearGradient x1="90.7232337%" y1="22.0726224%" x2="13.9440549%" y2="80.8973596%" id="linearGradient7">
            <stop stop-color="#9013FE" offset="0%"></stop>
            <stop stop-color="#BD73FF" offset="100%"></stop>
        </linearGradient>
        <circle id="path-8" cx="66.9129979" cy="67.0870021" r="66.2085954"></circle>
        <filter x="-19.3%" y="-17.0%" width="138.5%" height="138.5%" filterUnits="objectBoundingBox" id="filter-9">
            <feOffset dx="0" dy="3" in="SourceAlpha" result="shadowOffsetOuter1"></feOffset>
            <feGaussianBlur stdDeviation="8" in="shadowOffsetOuter1" result="shadowBlurOuter1"></feGaussianBlur>
            <feColorMatrix values="0 0 0 0 0.301960784   0 0 0 0 0   0 0 0 0 0.705882353  0 0 0 0.516826923 0" type="matrix" in="shadowBlurOuter1"></feColorMatrix>
        </filter>
    </defs>
    <g id="arbitrable-arbitrator-your-platform-copy" stroke="none" stroke-width="1" fill="none" fill-rule="evenodd">
        <g id="Group-2" transform="translate(39.000000, 29.000000)">
            <path d="M453,10.5 L872,10.5 C890.777681,10.5 906,25.7223185 906,44.5 L906,419.5 C906,438.277681 890.777681,453.5 872,453.5 L453,453.5 L453,453.5 L453,10.5 Z" id="Rectangle" fill="#9013FE" opacity="0.209263393"></path>
            <path d="M34,10.5 L453,10.5 L453,10.5 L453,453.5 L34,453.5 C15.2223185,453.5 2.29960275e-15,438.277681 0,419.5 L0,44.5 C-2.29960275e-15,25.7223185 15.2223185,10.5 34,10.5 Z" id="Rectangle" fill="#9013FE" opacity="0.100260417"></path>
            <path d="M218,233.5 L218,235.5 L227,235.5 L227,233.5 L218,233.5 Z M232,233.5 L232,235.5 L241,235.5 L241,233.5 L232,233.5 Z M246,233.5 L246,235.5 L255,235.5 L255,233.5 L246,233.5 Z M260,233.5 L260,235.5 L269,235.5 L269,233.5 L260,233.5 Z M274,233.5 L274,235.5 L283,235.5 L283,233.5 L274,233.5 Z M288,233.5 L288,235.5 L297,235.5 L297,233.5 L288,233.5 Z M302,233.5 L302,235.5 L311,235.5 L311,233.5 L302,233.5 Z M316,233.5 L316,235.5 L325,235.5 L325,233.5 L316,233.5 Z M330,233.5 L330,235.5 L339,235.5 L339,233.5 L330,233.5 Z M344,233.5 L344,235.5 L353,235.5 L353,233.5 L344,233.5 Z M358,233.5 L358,235.5 L367,235.5 L367,233.5 L358,233.5 Z M372,233.5 L372,235.5 L381,235.5 L381,233.5 L372,233.5 Z M386,233.5 L386,235.5 L395,235.5 L395,233.5 L386,233.5 Z M400,233.5 L400,235.5 L409,235.5 L409,233.5 L400,233.5 Z M414,233.5 L414,235.5 L423,235.5 L423,233.5 L414,233.5 Z M428,233.5 L428,235.5 L437,235.5 L437,233.5 L428,233.5 Z M442,233.5 L442,235.5 L451,235.5 L451,233.5 L442,233.5 Z M456,233.5 L456,235.5 L465,235.5 L465,233.5 L456,233.5 Z M470,233.5 L470,235.5 L479,235.5 L479,233.5 L470,233.5 Z M484,233.5 L484,235.5 L493,235.5 L493,233.5 L484,233.5 Z M498,233.5 L498,235.5 L507,235.5 L507,233.5 L498,233.5 Z M512,233.5 L512,235.5 L521,235.5 L521,233.5 L512,233.5 Z M526,233.5 L526,235.5 L535,235.5 L535,233.5 L526,233.5 Z M540,233.5 L540,235.5 L549,235.5 L549,233.5 L540,233.5 Z M554,233.5 L554,235.5 L563,235.5 L563,233.5 L554,233.5 Z M568,233.5 L568,235.5 L577,235.5 L577,233.5 L568,233.5 Z M582,233.5 L582,235.5 L591,235.5 L591,233.5 L582,233.5 Z M596,233.5 L596,235.5 L605,235.5 L605,233.5 L596,233.5 Z M610,233.5 L610,235.5 L619,235.5 L619,233.5 L610,233.5 Z M624,233.5 L624,235.5 L633,235.5 L633,233.5 L624,233.5 Z M638,233.5 L638,235.5 L647,235.5 L647,233.5 L638,233.5 Z M652,233.5 L652,235.5 L661,235.5 L661,233.5 L652,233.5 Z M666,233.5 L666,235.5 L675,235.5 L675,233.5 L666,233.5 Z M680,233.5 L680,235.5 L687.816718,235.5 L687.816718,233.5 L680,233.5 Z" id="Line-164" fill-opacity="0.425890516" fill="#B764FF" fill-rule="nonzero" transform="translate(452.908359, 234.500000) rotate(-270.000000) translate(-452.908359, -234.500000) "></path>
        </g>
        <path d="M89.304,104 L94.616,104 L85.656,82.016 L80.376,82.016 L71.416,104 L76.696,104 L78.104,100.544 L87.896,100.544 L89.304,104 Z M79.736,96.544 L83,88.512 L86.264,96.544 L79.736,96.544 Z M101.752,90.528 L101.752,87.456 L97.08,87.456 L97.08,104 L101.752,104 L101.752,96.096 C101.752,92.992 103.96,91.008 107.416,91.008 L107.416,87.072 C104.888,87.072 102.84,88.384 101.752,90.528 Z M120.312,87.072 C118.008,87.072 116.088,88.064 114.776,89.76 L114.776,81.632 L110.104,81.632 L110.104,104 L114.776,104 L114.776,101.664 C116.088,103.392 118.008,104.384 120.312,104.384 C124.728,104.384 127.928,100.8 127.928,95.712 C127.928,90.656 124.728,87.072 120.312,87.072 Z M118.968,100.448 C116.696,100.448 115.032,98.784 114.776,96.352 L114.776,95.072 C115.032,92.672 116.696,91.008 118.968,91.008 C121.56,91.008 123.384,92.96 123.384,95.712 C123.384,98.496 121.56,100.448 118.968,100.448 Z M133.56,85.184 C134.936,85.184 136.056,84.032 136.056,82.624 C136.056,81.312 134.936,80.128 133.56,80.128 C132.12,80.128 131,81.312 131,82.624 C131,84.032 132.12,85.184 133.56,85.184 Z M131.192,104 L135.864,104 L135.864,87.456 L131.192,87.456 L131.192,104 Z M148.632,99.904 C148.312,100.224 147.672,100.448 147.032,100.448 C146.168,100.448 145.464,99.68 145.464,98.592 L145.464,91.232 L149.048,91.232 L149.048,87.456 L145.464,87.456 L145.464,82.912 L140.984,82.912 L140.984,87.456 L138.712,87.456 L138.712,91.232 L140.984,91.232 L140.984,99.328 C140.984,102.304 143.032,104.384 145.944,104.384 C147.288,104.384 148.792,103.808 149.752,102.944 L148.632,99.904 Z M157.336,90.528 L157.336,87.456 L152.664,87.456 L152.664,104 L157.336,104 L157.336,96.096 C157.336,92.992 159.544,91.008 163,91.008 L163,87.072 C160.472,87.072 158.424,88.384 157.336,90.528 Z M173.08,87.072 C170.776,87.072 168.504,87.712 166.168,88.896 L167.736,92 C169.048,91.328 170.488,90.816 172.024,90.816 C174.744,90.816 175.832,92.352 175.832,94.112 L175.832,94.432 C174.424,93.888 172.952,93.6 171.608,93.6 C167.768,93.6 164.728,95.84 164.728,99.104 C164.728,102.272 167.448,104.384 170.968,104.384 C172.76,104.384 174.648,103.68 175.832,102.336 L175.832,104 L180.344,104 L180.344,94.112 C180.344,89.792 177.4,87.072 173.08,87.072 Z M172.024,101.152 C170.424,101.152 169.24,100.32 169.24,98.976 C169.24,97.632 170.584,96.64 172.28,96.64 C173.56,96.64 174.776,96.864 175.832,97.248 L175.832,98.784 C175.512,100.32 173.816,101.152 172.024,101.152 Z M194.488,87.072 C192.184,87.072 190.264,88.064 188.952,89.76 L188.952,81.632 L184.28,81.632 L184.28,104 L188.952,104 L188.952,101.664 C190.264,103.392 192.184,104.384 194.488,104.384 C198.904,104.384 202.104,100.8 202.104,95.712 C202.104,90.656 198.904,87.072 194.488,87.072 Z M193.144,100.448 C190.872,100.448 189.208,98.784 188.952,96.352 L188.952,95.072 C189.208,92.672 190.872,91.008 193.144,91.008 C195.736,91.008 197.56,92.96 197.56,95.712 C197.56,98.496 195.736,100.448 193.144,100.448 Z M205.4,104 L210.072,104 L210.072,81.632 L205.4,81.632 L205.4,104 Z M221.944,100.256 C219.992,100.256 218.552,99.04 218.008,97.248 L229.944,97.248 C229.944,91.008 226.904,87.072 221.72,87.072 C216.888,87.072 213.208,90.688 213.208,95.68 C213.208,100.768 217.048,104.384 221.976,104.384 C224.408,104.384 227.256,103.36 228.728,101.824 L225.752,98.784 C224.856,99.648 223.256,100.256 221.944,100.256 Z M221.912,91.2 C223.8,91.2 225.016,92.256 225.464,93.888 L218.072,93.888 C218.68,92.224 220.152,91.2 221.912,91.2 Z M81.496,142.384 C86.872,142.384 90.04,139.6 90.04,135.408 C90.04,131.428667 87.0333056,129.995819 82.4619028,128.946479 L81.5740219,128.742885 C78.6217888,128.045943 77.464,127.50303 77.464,126 C77.464,124.688 78.68,123.632 80.696,123.632 C82.808,123.632 85.016,124.496 86.968,126.064 L89.432,122.672 C87.192,120.752 84.408,119.632 80.824,119.632 C76.024,119.632 72.696,122.416 72.696,126.48 C72.696,130.562286 75.7284298,131.935993 80.0706867,132.973232 L81.2201671,133.240769 C84.14245,133.934178 85.272,134.44703 85.272,135.92 C85.272,137.296 84.056,138.384 81.688,138.384 C78.904,138.384 76.536,137.296 74.456,135.504 L71.736,138.736 C74.296,141.104 77.688,142.384 81.496,142.384 Z M95.64,123.184 C97.016,123.184 98.136,122.032 98.136,120.624 C98.136,119.312 97.016,118.128 95.64,118.128 C94.2,118.128 93.08,119.312 93.08,120.624 C93.08,122.032 94.2,123.184 95.64,123.184 Z M93.272,142 L97.944,142 L97.944,125.456 L93.272,125.456 L93.272,142 Z M114.36,119.632 L114.36,127.824 C113.048,126.096 111.128,125.072 108.792,125.072 C104.376,125.072 101.176,128.656 101.176,133.712 C101.176,138.8 104.376,142.384 108.792,142.384 C111.128,142.384 113.048,141.36 114.36,139.632 L114.36,142 L119.032,142 L119.032,119.632 L114.36,119.632 Z M110.136,138.448 C107.544,138.448 105.72,136.496 105.72,133.712 C105.72,130.96 107.544,129.008 110.136,129.008 C112.6,129.008 114.36,130.96 114.36,133.712 C114.36,136.496 112.6,138.448 110.136,138.448 Z M130.936,138.256 C128.984,138.256 127.544,137.04 127,135.248 L138.936,135.248 C138.936,129.008 135.896,125.072 130.712,125.072 C125.88,125.072 122.2,128.688 122.2,133.68 C122.2,138.768 126.04,142.384 130.968,142.384 C133.4,142.384 136.248,141.36 137.72,139.824 L134.744,136.784 C133.848,137.648 132.248,138.256 130.936,138.256 Z M130.904,129.2 C132.792,129.2 134.008,130.256 134.456,131.888 L127.064,131.888 C127.672,130.224 129.144,129.2 130.904,129.2 Z" id="ArbitrableSide" fill="#FFFFFF" fill-rule="nonzero"></path>
        <path d="M773.024,104 L778.336,104 L769.376,82.016 L764.096,82.016 L755.136,104 L760.416,104 L761.824,100.544 L771.616,100.544 L773.024,104 Z M763.456,96.544 L766.72,88.512 L769.984,96.544 L763.456,96.544 Z M785.472,90.528 L785.472,87.456 L780.8,87.456 L780.8,104 L785.472,104 L785.472,96.096 C785.472,92.992 787.68,91.008 791.136,91.008 L791.136,87.072 C788.608,87.072 786.56,88.384 785.472,90.528 Z M804.032,87.072 C801.728,87.072 799.808,88.064 798.496,89.76 L798.496,81.632 L793.824,81.632 L793.824,104 L798.496,104 L798.496,101.664 C799.808,103.392 801.728,104.384 804.032,104.384 C808.448,104.384 811.648,100.8 811.648,95.712 C811.648,90.656 808.448,87.072 804.032,87.072 Z M802.688,100.448 C800.416,100.448 798.752,98.784 798.496,96.352 L798.496,95.072 C798.752,92.672 800.416,91.008 802.688,91.008 C805.28,91.008 807.104,92.96 807.104,95.712 C807.104,98.496 805.28,100.448 802.688,100.448 Z M817.28,85.184 C818.656,85.184 819.776,84.032 819.776,82.624 C819.776,81.312 818.656,80.128 817.28,80.128 C815.84,80.128 814.72,81.312 814.72,82.624 C814.72,84.032 815.84,85.184 817.28,85.184 Z M814.912,104 L819.584,104 L819.584,87.456 L814.912,87.456 L814.912,104 Z M832.352,99.904 C832.032,100.224 831.392,100.448 830.752,100.448 C829.888,100.448 829.184,99.68 829.184,98.592 L829.184,91.232 L832.768,91.232 L832.768,87.456 L829.184,87.456 L829.184,82.912 L824.704,82.912 L824.704,87.456 L822.432,87.456 L822.432,91.232 L824.704,91.232 L824.704,99.328 C824.704,102.304 826.752,104.384 829.664,104.384 C831.008,104.384 832.512,103.808 833.472,102.944 L832.352,99.904 Z M841.056,90.528 L841.056,87.456 L836.384,87.456 L836.384,104 L841.056,104 L841.056,96.096 C841.056,92.992 843.264,91.008 846.72,91.008 L846.72,87.072 C844.192,87.072 842.144,88.384 841.056,90.528 Z M856.8,87.072 C854.496,87.072 852.224,87.712 849.888,88.896 L851.456,92 C852.768,91.328 854.208,90.816 855.744,90.816 C858.464,90.816 859.552,92.352 859.552,94.112 L859.552,94.432 C858.144,93.888 856.672,93.6 855.328,93.6 C851.488,93.6 848.448,95.84 848.448,99.104 C848.448,102.272 851.168,104.384 854.688,104.384 C856.48,104.384 858.368,103.68 859.552,102.336 L859.552,104 L864.064,104 L864.064,94.112 C864.064,89.792 861.12,87.072 856.8,87.072 Z M855.744,101.152 C854.144,101.152 852.96,100.32 852.96,98.976 C852.96,97.632 854.304,96.64 856,96.64 C857.28,96.64 858.496,96.864 859.552,97.248 L859.552,98.784 C859.232,100.32 857.536,101.152 855.744,101.152 Z M876.704,99.904 C876.384,100.224 875.744,100.448 875.104,100.448 C874.24,100.448 873.536,99.68 873.536,98.592 L873.536,91.232 L877.12,91.232 L877.12,87.456 L873.536,87.456 L873.536,82.912 L869.056,82.912 L869.056,87.456 L866.784,87.456 L866.784,91.232 L869.056,91.232 L869.056,99.328 C869.056,102.304 871.104,104.384 874.016,104.384 C875.36,104.384 876.864,103.808 877.824,102.944 L876.704,99.904 Z M888.864,104.384 C893.76,104.384 897.856,100.416 897.856,95.712 C897.856,91.008 893.76,87.072 888.864,87.072 C883.936,87.072 879.808,91.008 879.808,95.712 C879.808,100.416 883.936,104.384 888.864,104.384 Z M888.864,100.448 C886.368,100.448 884.288,98.272 884.288,95.712 C884.288,93.152 886.368,91.008 888.864,91.008 C891.328,91.008 893.408,93.152 893.408,95.712 C893.408,98.272 891.328,100.448 888.864,100.448 Z M905.696,90.528 L905.696,87.456 L901.024,87.456 L901.024,104 L905.696,104 L905.696,96.096 C905.696,92.992 907.904,91.008 911.36,91.008 L911.36,87.072 C908.832,87.072 906.784,88.384 905.696,90.528 Z M853.44,142.384 C858.816,142.384 861.984,139.6 861.984,135.408 C861.984,131.428667 858.977306,129.995819 854.405903,128.946479 L853.518022,128.742885 C850.565789,128.045943 849.408,127.50303 849.408,126 C849.408,124.688 850.624,123.632 852.64,123.632 C854.752,123.632 856.96,124.496 858.912,126.064 L861.376,122.672 C859.136,120.752 856.352,119.632 852.768,119.632 C847.968,119.632 844.64,122.416 844.64,126.48 C844.64,130.562286 847.67243,131.935993 852.014687,132.973232 L853.164167,133.240769 C856.08645,133.934178 857.216,134.44703 857.216,135.92 C857.216,137.296 856,138.384 853.632,138.384 C850.848,138.384 848.48,137.296 846.4,135.504 L843.68,138.736 C846.24,141.104 849.632,142.384 853.44,142.384 Z M867.584,123.184 C868.96,123.184 870.08,122.032 870.08,120.624 C870.08,119.312 868.96,118.128 867.584,118.128 C866.144,118.128 865.024,119.312 865.024,120.624 C865.024,122.032 866.144,123.184 867.584,123.184 Z M865.216,142 L869.888,142 L869.888,125.456 L865.216,125.456 L865.216,142 Z M886.304,119.632 L886.304,127.824 C884.992,126.096 883.072,125.072 880.736,125.072 C876.32,125.072 873.12,128.656 873.12,133.712 C873.12,138.8 876.32,142.384 880.736,142.384 C883.072,142.384 884.992,141.36 886.304,139.632 L886.304,142 L890.976,142 L890.976,119.632 L886.304,119.632 Z M882.08,138.448 C879.488,138.448 877.664,136.496 877.664,133.712 C877.664,130.96 879.488,129.008 882.08,129.008 C884.544,129.008 886.304,130.96 886.304,133.712 C886.304,136.496 884.544,138.448 882.08,138.448 Z M902.88,138.256 C900.928,138.256 899.488,137.04 898.944,135.248 L910.88,135.248 C910.88,129.008 907.84,125.072 902.656,125.072 C897.824,125.072 894.144,128.688 894.144,133.68 C894.144,138.768 897.984,142.384 902.912,142.384 C905.344,142.384 908.192,141.36 909.664,139.824 L906.688,136.784 C905.792,137.648 904.192,138.256 902.88,138.256 Z M902.848,129.2 C904.736,129.2 905.952,130.256 906.4,131.888 L899.008,131.888 C899.616,130.224 901.088,129.2 902.848,129.2 Z" id="ArbitratorSide" fill="#FFFFFF" fill-rule="nonzero"></path>
        <path d="M82.28,232.36 C87.62,232.36 91.37,228.58 91.37,223.21 L91.37,211.39 L87.65,211.39 L87.65,223.09 C87.65,226.51 85.43,228.97 82.28,228.97 C79.16,228.97 76.94,226.51 76.94,223.09 L76.94,211.39 L73.19,211.39 L73.19,223.21 C73.19,228.58 76.97,232.36 82.28,232.36 Z M101.3,232.36 C104.93,232.36 107.39,230.44 107.39,227.47 C107.39,224.23 104.57,223.33 101.96,222.61 L101.037609,222.335015 C99.375102,221.820204 98.78,221.478571 98.78,220.63 C98.78,219.76 99.77,219.25 101.06,219.25 C102.41,219.25 104,219.73 105.47,220.66 L107,217.99 C105.32,216.88 103.19,216.13 101.06,216.13 C97.61,216.13 95.21,218.11 95.21,221.02 C95.2383333,223.626667 97.1398148,224.627778 100.181538,225.463873 L101.14626,225.723933 C102.70736,226.157584 103.85,226.576 103.85,227.68 C103.85,228.64 102.83,229.27 101.36,229.27 C99.41,229.27 97.67,228.55 96.17,227.47 L94.52,230.02 C96.38,231.52 98.93,232.36 101.3,232.36 Z M117.8,229.12 C115.58,229.12 113.96,227.62 113.51,225.49 L125.21,225.49 C125.21,219.76 122.42,216.13 117.62,216.13 C113.21,216.13 109.73,219.55 109.73,224.2 C109.73,228.97 113.39,232.36 117.83,232.36 C120.08,232.36 122.78,231.4 124.13,229.96 L121.82,227.56 C120.95,228.46 119.24,229.12 117.8,229.12 Z M117.77,219.37 C119.96,219.37 121.28,220.75 121.7,222.7 L113.54,222.7 C114.08,220.66 115.73,219.37 117.77,219.37 Z M132.14,219.49 L132.14,216.49 L128.48,216.49 L128.48,232 L132.14,232 L132.14,224.17 C132.14,221.23 134.36,219.25 137.69,219.25 L137.69,216.13 C135.14,216.13 133.13,217.42 132.14,219.49 Z M146.12,232.36 C149.75,232.36 152.21,230.44 152.21,227.47 C152.21,224.23 149.39,223.33 146.78,222.61 L145.857609,222.335015 C144.195102,221.820204 143.6,221.478571 143.6,220.63 C143.6,219.76 144.59,219.25 145.88,219.25 C147.23,219.25 148.82,219.73 150.29,220.66 L151.82,217.99 C150.14,216.88 148.01,216.13 145.88,216.13 C142.43,216.13 140.03,218.11 140.03,221.02 C140.058333,223.626667 141.959815,224.627778 145.001538,225.463873 L145.96626,225.723933 C147.52736,226.157584 148.67,226.576 148.67,227.68 C148.67,228.64 147.65,229.27 146.18,229.27 C144.23,229.27 142.49,228.55 140.99,227.47 L139.34,230.02 C141.2,231.52 143.75,232.36 146.12,232.36 Z M167.84,232 L171.17,232 L174.47,221.38 L177.8,232 L181.13,232 L186.35,216.49 L182.69,216.49 L179.48,227.08 L176,216.49 L172.94,216.49 L169.49,227.08 L166.25,216.49 L162.59,216.49 L167.84,232 Z M197.51,216.13 C195.44,216.13 193.61,217.12 192.68,218.62 L192.68,211.03 L189.02,211.03 L189.02,232 L192.68,232 L192.68,222.61 C192.68,220.75 194.39,219.25 196.46,219.25 C198.38,219.25 199.73,220.75 199.73,222.85 L199.73,232 L203.27,232 L203.27,222.13 C203.27,218.62 200.9,216.13 197.51,216.13 Z M214.73,232.36 C219.23,232.36 223.04,228.64 223.04,224.23 C223.04,219.82 219.23,216.13 214.73,216.13 C210.23,216.13 206.42,219.82 206.42,224.23 C206.42,228.64 210.23,232.36 214.73,232.36 Z M214.73,229.24 C212.15,229.24 209.99,226.96 209.99,224.23 C209.99,221.53 212.15,219.25 214.73,219.25 C217.28,219.25 219.44,221.53 219.44,224.23 C219.44,226.96 217.28,229.24 214.73,229.24 Z M79.76,252.13 C77.81,252.13 75.77,252.67 73.58,253.75 L74.84,256.3 C76.16,255.64 77.57,255.13 79.04,255.13 C81.86,255.13 82.85,256.87 82.85,258.67 L82.85,259.09 C81.44,258.55 79.91,258.25 78.5,258.25 C75.02,258.25 72.17,260.35 72.17,263.41 C72.17,266.41 74.66,268.36 77.96,268.36 C79.76,268.36 81.71,267.58 82.85,266.14 L82.85,268 L86.42,268 L86.42,258.67 C86.42,254.74 83.87,252.13 79.76,252.13 Z M78.77,265.69 C77.03,265.69 75.74,264.76 75.74,263.29 C75.74,261.82 77.21,260.8 79.04,260.8 C80.42,260.8 81.71,261.01 82.85,261.4 L82.85,263.14 C82.43,264.79 80.54,265.69 78.77,265.69 Z M94.13,255.49 L94.13,252.49 L90.47,252.49 L90.47,268 L94.13,268 L94.13,260.17 C94.13,257.23 96.35,255.25 99.68,255.25 L99.68,252.13 C97.13,252.13 95.12,253.42 94.13,255.49 Z M109.61,265.12 C107.39,265.12 105.77,263.62 105.32,261.49 L117.02,261.49 C117.02,255.76 114.23,252.13 109.43,252.13 C105.02,252.13 101.54,255.55 101.54,260.2 C101.54,264.97 105.2,268.36 109.64,268.36 C111.89,268.36 114.59,267.4 115.94,265.96 L113.63,263.56 C112.76,264.46 111.05,265.12 109.61,265.12 Z M109.58,255.37 C111.77,255.37 113.09,256.75 113.51,258.7 L105.35,258.7 C105.89,256.66 107.54,255.37 109.58,255.37 Z M137.84,252.13 C135.53,252.13 133.67,253.18 132.44,254.95 L132.44,252.49 L128.78,252.49 L128.78,273.16 L132.44,273.16 L132.44,265.54 C133.67,267.31 135.53,268.36 137.84,268.36 C141.95,268.36 144.95,265 144.95,260.23 C144.95,255.49 141.95,252.13 137.84,252.13 Z M136.85,265.24 C134.27,265.24 132.47,263.14 132.47,260.23 C132.47,257.32 134.27,255.25 136.85,255.25 C139.46,255.25 141.32,257.32 141.32,260.23 C141.32,263.14 139.46,265.24 136.85,265.24 Z M155,252.13 C153.05,252.13 151.01,252.67 148.82,253.75 L150.08,256.3 C151.4,255.64 152.81,255.13 154.28,255.13 C157.1,255.13 158.09,256.87 158.09,258.67 L158.09,259.09 C156.68,258.55 155.15,258.25 153.74,258.25 C150.26,258.25 147.41,260.35 147.41,263.41 C147.41,266.41 149.9,268.36 153.2,268.36 C155,268.36 156.95,267.58 158.09,266.14 L158.09,268 L161.66,268 L161.66,258.67 C161.66,254.74 159.11,252.13 155,252.13 Z M154.01,265.69 C152.27,265.69 150.98,264.76 150.98,263.29 C150.98,261.82 152.45,260.8 154.28,260.8 C155.66,260.8 156.95,261.01 158.09,261.4 L158.09,263.14 C157.67,264.79 155.78,265.69 154.01,265.69 Z M169.37,255.49 L169.37,252.49 L165.71,252.49 L165.71,268 L169.37,268 L169.37,260.17 C169.37,257.23 171.59,255.25 174.92,255.25 L174.92,252.13 C172.37,252.13 170.36,253.42 169.37,255.49 Z M185.36,264.67 C185.03,265 184.46,265.24 183.83,265.24 C182.96,265.24 182.3,264.49 182.3,263.44 L182.3,255.52 L185.81,255.52 L185.81,252.49 L182.3,252.49 L182.3,248.23 L178.73,248.23 L178.73,252.49 L176.48,252.49 L176.48,255.52 L178.73,255.52 L178.73,263.89 C178.73,266.5 180.53,268.36 183.11,268.36 C184.28,268.36 185.54,267.88 186.41,267.13 L185.36,264.67 Z M191.12,250.15 C192.26,250.15 193.19,249.16 193.19,248.05 C193.19,246.94 192.26,245.98 191.12,245.98 C189.95,245.98 189.02,246.94 189.02,248.05 C189.02,249.16 189.95,250.15 191.12,250.15 Z M189.26,268 L192.92,268 L192.92,252.49 L189.26,252.49 L189.26,268 Z M204.2,265.12 C201.98,265.12 200.36,263.62 199.91,261.49 L211.61,261.49 C211.61,255.76 208.82,252.13 204.02,252.13 C199.61,252.13 196.13,255.55 196.13,260.2 C196.13,264.97 199.79,268.36 204.23,268.36 C206.48,268.36 209.18,267.4 210.53,265.96 L208.22,263.56 C207.35,264.46 205.64,265.12 204.2,265.12 Z M204.17,255.37 C206.36,255.37 207.68,256.75 208.1,258.7 L199.94,258.7 C200.48,256.66 202.13,255.37 204.17,255.37 Z M220.52,268.36 C224.15,268.36 226.61,266.44 226.61,263.47 C226.61,260.23 223.79,259.33 221.18,258.61 L220.257609,258.335015 C218.595102,257.820204 218,257.478571 218,256.63 C218,255.76 218.99,255.25 220.28,255.25 C221.63,255.25 223.22,255.73 224.69,256.66 L226.22,253.99 C224.54,252.88 222.41,252.13 220.28,252.13 C216.83,252.13 214.43,254.11 214.43,257.02 C214.458333,259.626667 216.359815,260.627778 219.401538,261.463873 L220.36626,261.723933 C221.92736,262.157584 223.07,262.576 223.07,263.68 C223.07,264.64 222.05,265.27 220.58,265.27 C218.63,265.27 216.89,264.55 215.39,263.47 L213.74,266.02 C215.6,267.52 218.15,268.36 220.52,268.36 Z M80.75,300.67 C80.42,301 79.85,301.24 79.22,301.24 C78.35,301.24 77.69,300.49 77.69,299.44 L77.69,291.52 L81.2,291.52 L81.2,288.49 L77.69,288.49 L77.69,284.23 L74.12,284.23 L74.12,288.49 L71.87,288.49 L71.87,291.52 L74.12,291.52 L74.12,299.89 C74.12,302.5 75.92,304.36 78.5,304.36 C79.67,304.36 80.93,303.88 81.8,303.13 L80.75,300.67 Z M92.15,304.36 C96.65,304.36 100.46,300.64 100.46,296.23 C100.46,291.82 96.65,288.13 92.15,288.13 C87.65,288.13 83.84,291.82 83.84,296.23 C83.84,300.64 87.65,304.36 92.15,304.36 Z M92.15,301.24 C89.57,301.24 87.41,298.96 87.41,296.23 C87.41,293.53 89.57,291.25 92.15,291.25 C94.7,291.25 96.86,293.53 96.86,296.23 C96.86,298.96 94.7,301.24 92.15,301.24 Z M119.87,300.67 C119.54,301 118.97,301.24 118.34,301.24 C117.47,301.24 116.81,300.49 116.81,299.44 L116.81,291.52 L120.32,291.52 L120.32,288.49 L116.81,288.49 L116.81,284.23 L113.24,284.23 L113.24,288.49 L110.99,288.49 L110.99,291.52 L113.24,291.52 L113.24,299.89 C113.24,302.5 115.04,304.36 117.62,304.36 C118.79,304.36 120.05,303.88 120.92,303.13 L119.87,300.67 Z M132.23,288.13 C130.16,288.13 128.33,289.12 127.4,290.62 L127.4,283.03 L123.74,283.03 L123.74,304 L127.4,304 L127.4,294.61 C127.4,292.75 129.11,291.25 131.18,291.25 C133.1,291.25 134.45,292.75 134.45,294.85 L134.45,304 L137.99,304 L137.99,294.13 C137.99,290.62 135.62,288.13 132.23,288.13 Z M149.18,301.12 C146.96,301.12 145.34,299.62 144.89,297.49 L156.59,297.49 C156.59,291.76 153.8,288.13 149,288.13 C144.59,288.13 141.11,291.55 141.11,296.2 C141.11,300.97 144.77,304.36 149.21,304.36 C151.46,304.36 154.16,303.4 155.51,301.96 L153.2,299.56 C152.33,300.46 150.62,301.12 149.18,301.12 Z M149.15,291.37 C151.34,291.37 152.66,292.75 153.08,294.7 L144.92,294.7 C145.46,292.66 147.11,291.37 149.15,291.37 Z M84.8,319.03 L84.8,326.89 C83.57,325.15 81.71,324.13 79.43,324.13 C75.32,324.13 72.32,327.49 72.32,332.23 C72.32,337 75.32,340.36 79.43,340.36 C81.71,340.36 83.57,339.34 84.8,337.6 L84.8,340 L88.46,340 L88.46,319.03 L84.8,319.03 Z M80.42,337.24 C77.81,337.24 75.95,335.14 75.95,332.23 C75.95,329.32 77.81,327.25 80.42,327.25 C83,327.25 84.8,329.32 84.8,332.23 C84.8,335.14 83,337.24 80.42,337.24 Z M94.43,322.15 C95.57,322.15 96.5,321.16 96.5,320.05 C96.5,318.94 95.57,317.98 94.43,317.98 C93.26,317.98 92.33,318.94 92.33,320.05 C92.33,321.16 93.26,322.15 94.43,322.15 Z M92.57,340 L96.23,340 L96.23,324.49 L92.57,324.49 L92.57,340 Z M106.01,340.36 C109.64,340.36 112.1,338.44 112.1,335.47 C112.1,332.23 109.28,331.33 106.67,330.61 L105.747609,330.335015 C104.085102,329.820204 103.49,329.478571 103.49,328.63 C103.49,327.76 104.48,327.25 105.77,327.25 C107.12,327.25 108.71,327.73 110.18,328.66 L111.71,325.99 C110.03,324.88 107.9,324.13 105.77,324.13 C102.32,324.13 99.92,326.11 99.92,329.02 C99.9483333,331.626667 101.849815,332.627778 104.891538,333.463873 L105.85626,333.723933 C107.41736,334.157584 108.56,334.576 108.56,335.68 C108.56,336.64 107.54,337.27 106.07,337.27 C104.12,337.27 102.38,336.55 100.88,335.47 L99.23,338.02 C101.09,339.52 103.64,340.36 106.01,340.36 Z M124.43,324.13 C122.12,324.13 120.26,325.18 119.03,326.95 L119.03,324.49 L115.37,324.49 L115.37,345.16 L119.03,345.16 L119.03,337.54 C120.26,339.31 122.12,340.36 124.43,340.36 C128.54,340.36 131.54,337 131.54,332.23 C131.54,327.49 128.54,324.13 124.43,324.13 Z M123.44,337.24 C120.86,337.24 119.06,335.14 119.06,332.23 C119.06,329.32 120.86,327.25 123.44,327.25 C126.05,327.25 127.91,329.32 127.91,332.23 C127.91,335.14 126.05,337.24 123.44,337.24 Z M145.34,324.49 L145.34,334.3 C145.1,335.95 143.51,337.24 141.59,337.24 C139.67,337.24 138.32,335.74 138.32,333.64 L138.32,324.49 L134.78,324.49 L134.78,334.36 C134.78,337.87 137.15,340.36 140.54,340.36 C142.58,340.36 144.38,339.37 145.34,337.93 L145.34,340 L149,340 L149,324.49 L145.34,324.49 Z M160.76,336.67 C160.43,337 159.86,337.24 159.23,337.24 C158.36,337.24 157.7,336.49 157.7,335.44 L157.7,327.52 L161.21,327.52 L161.21,324.49 L157.7,324.49 L157.7,320.23 L154.13,320.23 L154.13,324.49 L151.88,324.49 L151.88,327.52 L154.13,327.52 L154.13,335.89 C154.13,338.5 155.93,340.36 158.51,340.36 C159.68,340.36 160.94,339.88 161.81,339.13 L160.76,336.67 Z M171.89,337.12 C169.67,337.12 168.05,335.62 167.6,333.49 L179.3,333.49 C179.3,327.76 176.51,324.13 171.71,324.13 C167.3,324.13 163.82,327.55 163.82,332.2 C163.82,336.97 167.48,340.36 171.92,340.36 C174.17,340.36 176.87,339.4 178.22,337.96 L175.91,335.56 C175.04,336.46 173.33,337.12 171.89,337.12 Z M171.86,327.37 C174.05,327.37 175.37,328.75 175.79,330.7 L167.63,330.7 C168.17,328.66 169.82,327.37 171.86,327.37 Z M188.21,340.36 C191.84,340.36 194.3,338.44 194.3,335.47 C194.3,332.23 191.48,331.33 188.87,330.61 L187.947609,330.335015 C186.285102,329.820204 185.69,329.478571 185.69,328.63 C185.69,327.76 186.68,327.25 187.97,327.25 C189.32,327.25 190.91,327.73 192.38,328.66 L193.91,325.99 C192.23,324.88 190.1,324.13 187.97,324.13 C184.52,324.13 182.12,326.11 182.12,329.02 C182.148333,331.626667 184.049815,332.627778 187.091538,333.463873 L188.05626,333.723933 C189.61736,334.157584 190.76,334.576 190.76,335.68 C190.76,336.64 189.74,337.27 188.27,337.27 C186.32,337.27 184.58,336.55 183.08,335.47 L181.43,338.02 C183.29,339.52 185.84,340.36 188.21,340.36 Z M82.16,360.13 C79.85,360.13 77.99,361.18 76.76,362.95 L76.76,360.49 L73.1,360.49 L73.1,381.16 L76.76,381.16 L76.76,373.54 C77.99,375.31 79.85,376.36 82.16,376.36 C86.27,376.36 89.27,373 89.27,368.23 C89.27,363.49 86.27,360.13 82.16,360.13 Z M81.17,373.24 C78.59,373.24 76.79,371.14 76.79,368.23 C76.79,365.32 78.59,363.25 81.17,363.25 C83.78,363.25 85.64,365.32 85.64,368.23 C85.64,371.14 83.78,373.24 81.17,373.24 Z M99.32,360.13 C97.37,360.13 95.33,360.67 93.14,361.75 L94.4,364.3 C95.72,363.64 97.13,363.13 98.6,363.13 C101.42,363.13 102.41,364.87 102.41,366.67 L102.41,367.09 C101,366.55 99.47,366.25 98.06,366.25 C94.58,366.25 91.73,368.35 91.73,371.41 C91.73,374.41 94.22,376.36 97.52,376.36 C99.32,376.36 101.27,375.58 102.41,374.14 L102.41,376 L105.98,376 L105.98,366.67 C105.98,362.74 103.43,360.13 99.32,360.13 Z M98.33,373.69 C96.59,373.69 95.3,372.76 95.3,371.29 C95.3,369.82 96.77,368.8 98.6,368.8 C99.98,368.8 101.27,369.01 102.41,369.4 L102.41,371.14 C101.99,372.79 100.1,373.69 98.33,373.69 Z M113.69,363.49 L113.69,360.49 L110.03,360.49 L110.03,376 L113.69,376 L113.69,368.17 C113.69,365.23 115.91,363.25 119.24,363.25 L119.24,360.13 C116.69,360.13 114.68,361.42 113.69,363.49 Z M129.68,372.67 C129.35,373 128.78,373.24 128.15,373.24 C127.28,373.24 126.62,372.49 126.62,371.44 L126.62,363.52 L130.13,363.52 L130.13,360.49 L126.62,360.49 L126.62,356.23 L123.05,356.23 L123.05,360.49 L120.8,360.49 L120.8,363.52 L123.05,363.52 L123.05,371.89 C123.05,374.5 124.85,376.36 127.43,376.36 C128.6,376.36 129.86,375.88 130.73,375.13 L129.68,372.67 Z M135.44,358.15 C136.58,358.15 137.51,357.16 137.51,356.05 C137.51,354.94 136.58,353.98 135.44,353.98 C134.27,353.98 133.34,354.94 133.34,356.05 C133.34,357.16 134.27,358.15 135.44,358.15 Z M133.58,376 L137.24,376 L137.24,360.49 L133.58,360.49 L133.58,376 Z M148.76,376.36 C151.22,376.36 153.29,375.34 154.79,373.75 L152.33,371.62 C151.46,372.61 150.14,373.24 148.79,373.24 C146.24,373.24 144.11,370.96 144.11,368.23 C144.11,365.53 146.24,363.25 148.79,363.25 C150.11,363.25 151.4,363.88 152.24,364.81 L154.7,362.65 C153.23,361.12 151.16,360.13 148.82,360.13 C144.29,360.13 140.48,363.82 140.48,368.23 C140.48,372.64 144.29,376.36 148.76,376.36 Z M159.53,358.15 C160.67,358.15 161.6,357.16 161.6,356.05 C161.6,354.94 160.67,353.98 159.53,353.98 C158.36,353.98 157.43,354.94 157.43,356.05 C157.43,357.16 158.36,358.15 159.53,358.15 Z M157.67,376 L161.33,376 L161.33,360.49 L157.67,360.49 L157.67,376 Z M174.53,360.13 C172.22,360.13 170.36,361.18 169.13,362.95 L169.13,360.49 L165.47,360.49 L165.47,381.16 L169.13,381.16 L169.13,373.54 C170.36,375.31 172.22,376.36 174.53,376.36 C178.64,376.36 181.64,373 181.64,368.23 C181.64,363.49 178.64,360.13 174.53,360.13 Z M173.54,373.24 C170.96,373.24 169.16,371.14 169.16,368.23 C169.16,365.32 170.96,363.25 173.54,363.25 C176.15,363.25 178.01,365.32 178.01,368.23 C178.01,371.14 176.15,373.24 173.54,373.24 Z M191.69,360.13 C189.74,360.13 187.7,360.67 185.51,361.75 L186.77,364.3 C188.09,363.64 189.5,363.13 190.97,363.13 C193.79,363.13 194.78,364.87 194.78,366.67 L194.78,367.09 C193.37,366.55 191.84,366.25 190.43,366.25 C186.95,366.25 184.1,368.35 184.1,371.41 C184.1,374.41 186.59,376.36 189.89,376.36 C191.69,376.36 193.64,375.58 194.78,374.14 L194.78,376 L198.35,376 L198.35,366.67 C198.35,362.74 195.8,360.13 191.69,360.13 Z M190.7,373.69 C188.96,373.69 187.67,372.76 187.67,371.29 C187.67,369.82 189.14,368.8 190.97,368.8 C192.35,368.8 193.64,369.01 194.78,369.4 L194.78,371.14 C194.36,372.79 192.47,373.69 190.7,373.69 Z M210.05,372.67 C209.72,373 209.15,373.24 208.52,373.24 C207.65,373.24 206.99,372.49 206.99,371.44 L206.99,363.52 L210.5,363.52 L210.5,360.49 L206.99,360.49 L206.99,356.23 L203.42,356.23 L203.42,360.49 L201.17,360.49 L201.17,363.52 L203.42,363.52 L203.42,371.89 C203.42,374.5 205.22,376.36 207.8,376.36 C208.97,376.36 210.23,375.88 211.1,375.13 L210.05,372.67 Z M221.18,373.12 C218.96,373.12 217.34,371.62 216.89,369.49 L228.59,369.49 C228.59,363.76 225.8,360.13 221,360.13 C216.59,360.13 213.11,363.55 213.11,368.2 C213.11,372.97 216.77,376.36 221.21,376.36 C223.46,376.36 226.16,375.4 227.51,373.96 L225.2,371.56 C224.33,372.46 222.62,373.12 221.18,373.12 Z M221.15,363.37 C223.34,363.37 224.66,364.75 225.08,366.7 L216.92,366.7 C217.46,364.66 219.11,363.37 221.15,363.37 Z M81.47,396.13 C79.4,396.13 77.57,397.12 76.64,398.62 L76.64,391.03 L72.98,391.03 L72.98,412 L76.64,412 L76.64,402.61 C76.64,400.75 78.35,399.25 80.42,399.25 C82.34,399.25 83.69,400.75 83.69,402.85 L83.69,412 L87.23,412 L87.23,402.13 C87.23,398.62 84.86,396.13 81.47,396.13 Z M98.42,409.12 C96.2,409.12 94.58,407.62 94.13,405.49 L105.83,405.49 C105.83,399.76 103.04,396.13 98.24,396.13 C93.83,396.13 90.35,399.55 90.35,404.2 C90.35,408.97 94.01,412.36 98.45,412.36 C100.7,412.36 103.4,411.4 104.75,409.96 L102.44,407.56 C101.57,408.46 99.86,409.12 98.42,409.12 Z M98.39,399.37 C100.58,399.37 101.9,400.75 102.32,402.7 L94.16,402.7 C94.7,400.66 96.35,399.37 98.39,399.37 Z M112.76,399.49 L112.76,396.49 L109.1,396.49 L109.1,412 L112.76,412 L112.76,404.17 C112.76,401.23 114.98,399.25 118.31,399.25 L118.31,396.13 C115.76,396.13 113.75,397.42 112.76,399.49 Z M128.24,409.12 C126.02,409.12 124.4,407.62 123.95,405.49 L135.65,405.49 C135.65,399.76 132.86,396.13 128.06,396.13 C123.65,396.13 120.17,399.55 120.17,404.2 C120.17,408.97 123.83,412.36 128.27,412.36 C130.52,412.36 133.22,411.4 134.57,409.96 L132.26,407.56 C131.39,408.46 129.68,409.12 128.24,409.12 Z M128.21,399.37 C130.4,399.37 131.72,400.75 132.14,402.7 L123.98,402.7 C124.52,400.66 126.17,399.37 128.21,399.37 Z M141.05,412.36 C139.67,412.36 138.65,411.28 138.65,409.96 C138.65,408.73 139.67,407.65 141.05,407.65 C142.31,407.65 143.36,408.73 143.36,409.96 C143.36,411.28 142.31,412.36 141.05,412.36 Z" id="Userswhoarepartiestothedisputesparticipatehere." fill="#FFFFFF" fill-rule="nonzero"></path>
        <path d="M770.07,232.36 C775.41,232.36 779.16,228.58 779.16,223.21 L779.16,211.39 L775.44,211.39 L775.44,223.09 C775.44,226.51 773.22,228.97 770.07,228.97 C766.95,228.97 764.73,226.51 764.73,223.09 L764.73,211.39 L760.98,211.39 L760.98,223.21 C760.98,228.58 764.76,232.36 770.07,232.36 Z M789.09,232.36 C792.72,232.36 795.18,230.44 795.18,227.47 C795.18,224.23 792.36,223.33 789.75,222.61 L788.827609,222.335015 C787.165102,221.820204 786.57,221.478571 786.57,220.63 C786.57,219.76 787.56,219.25 788.85,219.25 C790.2,219.25 791.79,219.73 793.26,220.66 L794.79,217.99 C793.11,216.88 790.98,216.13 788.85,216.13 C785.4,216.13 783,218.11 783,221.02 C783.028333,223.626667 784.929815,224.627778 787.971538,225.463873 L788.93626,225.723933 C790.49736,226.157584 791.64,226.576 791.64,227.68 C791.64,228.64 790.62,229.27 789.15,229.27 C787.2,229.27 785.46,228.55 783.96,227.47 L782.31,230.02 C784.17,231.52 786.72,232.36 789.09,232.36 Z M805.59,229.12 C803.37,229.12 801.75,227.62 801.3,225.49 L813,225.49 C813,219.76 810.21,216.13 805.41,216.13 C801,216.13 797.52,219.55 797.52,224.2 C797.52,228.97 801.18,232.36 805.62,232.36 C807.87,232.36 810.57,231.4 811.92,229.96 L809.61,227.56 C808.74,228.46 807.03,229.12 805.59,229.12 Z M805.56,219.37 C807.75,219.37 809.07,220.75 809.49,222.7 L801.33,222.7 C801.87,220.66 803.52,219.37 805.56,219.37 Z M819.93,219.49 L819.93,216.49 L816.27,216.49 L816.27,232 L819.93,232 L819.93,224.17 C819.93,221.23 822.15,219.25 825.48,219.25 L825.48,216.13 C822.93,216.13 820.92,217.42 819.93,219.49 Z M833.91,232.36 C837.54,232.36 840,230.44 840,227.47 C840,224.23 837.18,223.33 834.57,222.61 L833.647609,222.335015 C831.985102,221.820204 831.39,221.478571 831.39,220.63 C831.39,219.76 832.38,219.25 833.67,219.25 C835.02,219.25 836.61,219.73 838.08,220.66 L839.61,217.99 C837.93,216.88 835.8,216.13 833.67,216.13 C830.22,216.13 827.82,218.11 827.82,221.02 C827.848333,223.626667 829.749815,224.627778 832.791538,225.463873 L833.75626,225.723933 C835.31736,226.157584 836.46,226.576 836.46,227.68 C836.46,228.64 835.44,229.27 833.97,229.27 C832.02,229.27 830.28,228.55 828.78,227.47 L827.13,230.02 C828.99,231.52 831.54,232.36 833.91,232.36 Z M855.63,232 L858.96,232 L862.26,221.38 L865.59,232 L868.92,232 L874.14,216.49 L870.48,216.49 L867.27,227.08 L863.79,216.49 L860.73,216.49 L857.28,227.08 L854.04,216.49 L850.38,216.49 L855.63,232 Z M885.3,216.13 C883.23,216.13 881.4,217.12 880.47,218.62 L880.47,211.03 L876.81,211.03 L876.81,232 L880.47,232 L880.47,222.61 C880.47,220.75 882.18,219.25 884.25,219.25 C886.17,219.25 887.52,220.75 887.52,222.85 L887.52,232 L891.06,232 L891.06,222.13 C891.06,218.62 888.69,216.13 885.3,216.13 Z M902.52,232.36 C907.02,232.36 910.83,228.64 910.83,224.23 C910.83,219.82 907.02,216.13 902.52,216.13 C898.02,216.13 894.21,219.82 894.21,224.23 C894.21,228.64 898.02,232.36 902.52,232.36 Z M902.52,229.24 C899.94,229.24 897.78,226.96 897.78,224.23 C897.78,221.53 899.94,219.25 902.52,219.25 C905.07,219.25 907.23,221.53 907.23,224.23 C907.23,226.96 905.07,229.24 902.52,229.24 Z M781.59,252.13 C779.64,252.13 777.6,252.67 775.41,253.75 L776.67,256.3 C777.99,255.64 779.4,255.13 780.87,255.13 C783.69,255.13 784.68,256.87 784.68,258.67 L784.68,259.09 C783.27,258.55 781.74,258.25 780.33,258.25 C776.85,258.25 774,260.35 774,263.41 C774,266.41 776.49,268.36 779.79,268.36 C781.59,268.36 783.54,267.58 784.68,266.14 L784.68,268 L788.25,268 L788.25,258.67 C788.25,254.74 785.7,252.13 781.59,252.13 Z M780.6,265.69 C778.86,265.69 777.57,264.76 777.57,263.29 C777.57,261.82 779.04,260.8 780.87,260.8 C782.25,260.8 783.54,261.01 784.68,261.4 L784.68,263.14 C784.26,264.79 782.37,265.69 780.6,265.69 Z M795.96,255.49 L795.96,252.49 L792.3,252.49 L792.3,268 L795.96,268 L795.96,260.17 C795.96,257.23 798.18,255.25 801.51,255.25 L801.51,252.13 C798.96,252.13 796.95,253.42 795.96,255.49 Z M811.44,265.12 C809.22,265.12 807.6,263.62 807.15,261.49 L818.85,261.49 C818.85,255.76 816.06,252.13 811.26,252.13 C806.85,252.13 803.37,255.55 803.37,260.2 C803.37,264.97 807.03,268.36 811.47,268.36 C813.72,268.36 816.42,267.4 817.77,265.96 L815.46,263.56 C814.59,264.46 812.88,265.12 811.44,265.12 Z M811.41,255.37 C813.6,255.37 814.92,256.75 815.34,258.7 L807.18,258.7 C807.72,256.66 809.37,255.37 811.41,255.37 Z M832.38,250.15 C833.52,250.15 834.45,249.16 834.45,248.05 C834.45,246.94 833.52,245.98 832.38,245.98 C831.21,245.98 830.28,246.94 830.28,248.05 C830.28,249.16 831.21,250.15 832.38,250.15 Z M829.71,273.34 C832.35,273.34 834.18,271.45 834.18,268.75 L834.18,252.49 L830.52,252.49 L830.52,268.48 C830.52,269.53 829.89,270.28 828.99,270.28 C828.42,270.28 827.7,270.16 827.28,269.98 L826.83,272.77 C827.52,273.1 828.72,273.34 829.71,273.34 Z M848.73,252.49 L848.73,262.3 C848.49,263.95 846.9,265.24 844.98,265.24 C843.06,265.24 841.71,263.74 841.71,261.64 L841.71,252.49 L838.17,252.49 L838.17,262.36 C838.17,265.87 840.54,268.36 843.93,268.36 C845.97,268.36 847.77,267.37 848.73,265.93 L848.73,268 L852.39,268 L852.39,252.49 L848.73,252.49 Z M860.16,255.49 L860.16,252.49 L856.5,252.49 L856.5,268 L860.16,268 L860.16,260.17 C860.16,257.23 862.38,255.25 865.71,255.25 L865.71,252.13 C863.16,252.13 861.15,253.42 860.16,255.49 Z M875.52,268.36 C880.02,268.36 883.83,264.64 883.83,260.23 C883.83,255.82 880.02,252.13 875.52,252.13 C871.02,252.13 867.21,255.82 867.21,260.23 C867.21,264.64 871.02,268.36 875.52,268.36 Z M875.52,265.24 C872.94,265.24 870.78,262.96 870.78,260.23 C870.78,257.53 872.94,255.25 875.52,255.25 C878.07,255.25 880.23,257.53 880.23,260.23 C880.23,262.96 878.07,265.24 875.52,265.24 Z M890.76,255.49 L890.76,252.49 L887.1,252.49 L887.1,268 L890.76,268 L890.76,260.17 C890.76,257.23 892.98,255.25 896.31,255.25 L896.31,252.13 C893.76,252.13 891.75,253.42 890.76,255.49 Z M904.74,268.36 C908.37,268.36 910.83,266.44 910.83,263.47 C910.83,260.23 908.01,259.33 905.4,258.61 L904.477609,258.335015 C902.815102,257.820204 902.22,257.478571 902.22,256.63 C902.22,255.76 903.21,255.25 904.5,255.25 C905.85,255.25 907.44,255.73 908.91,256.66 L910.44,253.99 C908.76,252.88 906.63,252.13 904.5,252.13 C901.05,252.13 898.65,254.11 898.65,257.02 C898.678333,259.626667 900.579815,260.627778 903.621538,261.463873 L904.58626,261.723933 C906.14736,262.157584 907.29,262.576 907.29,263.68 C907.29,264.64 906.27,265.27 904.8,265.27 C902.85,265.27 901.11,264.55 899.61,263.47 L897.96,266.02 C899.82,267.52 902.37,268.36 904.74,268.36 Z M758.16,300.67 C757.83,301 757.26,301.24 756.63,301.24 C755.76,301.24 755.1,300.49 755.1,299.44 L755.1,291.52 L758.61,291.52 L758.61,288.49 L755.1,288.49 L755.1,284.23 L751.53,284.23 L751.53,288.49 L749.28,288.49 L749.28,291.52 L751.53,291.52 L751.53,299.89 C751.53,302.5 753.33,304.36 755.91,304.36 C757.08,304.36 758.34,303.88 759.21,303.13 L758.16,300.67 Z M769.56,304.36 C774.06,304.36 777.87,300.64 777.87,296.23 C777.87,291.82 774.06,288.13 769.56,288.13 C765.06,288.13 761.25,291.82 761.25,296.23 C761.25,300.64 765.06,304.36 769.56,304.36 Z M769.56,301.24 C766.98,301.24 764.82,298.96 764.82,296.23 C764.82,293.53 766.98,291.25 769.56,291.25 C772.11,291.25 774.27,293.53 774.27,296.23 C774.27,298.96 772.11,301.24 769.56,301.24 Z M801.33,283.03 L801.33,290.89 C800.1,289.15 798.24,288.13 795.96,288.13 C791.85,288.13 788.85,291.49 788.85,296.23 C788.85,301 791.85,304.36 795.96,304.36 C798.24,304.36 800.1,303.34 801.33,301.6 L801.33,304 L804.99,304 L804.99,283.03 L801.33,283.03 Z M796.95,301.24 C794.34,301.24 792.48,299.14 792.48,296.23 C792.48,293.32 794.34,291.25 796.95,291.25 C799.53,291.25 801.33,293.32 801.33,296.23 C801.33,299.14 799.53,301.24 796.95,301.24 Z M810.96,286.15 C812.1,286.15 813.03,285.16 813.03,284.05 C813.03,282.94 812.1,281.98 810.96,281.98 C809.79,281.98 808.86,282.94 808.86,284.05 C808.86,285.16 809.79,286.15 810.96,286.15 Z M809.1,304 L812.76,304 L812.76,288.49 L809.1,288.49 L809.1,304 Z M822.54,304.36 C826.17,304.36 828.63,302.44 828.63,299.47 C828.63,296.23 825.81,295.33 823.2,294.61 L822.277609,294.335015 C820.615102,293.820204 820.02,293.478571 820.02,292.63 C820.02,291.76 821.01,291.25 822.3,291.25 C823.65,291.25 825.24,291.73 826.71,292.66 L828.24,289.99 C826.56,288.88 824.43,288.13 822.3,288.13 C818.85,288.13 816.45,290.11 816.45,293.02 C816.478333,295.626667 818.379815,296.627778 821.421538,297.463873 L822.38626,297.723933 C823.94736,298.157584 825.09,298.576 825.09,299.68 C825.09,300.64 824.07,301.27 822.6,301.27 C820.65,301.27 818.91,300.55 817.41,299.47 L815.76,302.02 C817.62,303.52 820.17,304.36 822.54,304.36 Z M840.96,288.13 C838.65,288.13 836.79,289.18 835.56,290.95 L835.56,288.49 L831.9,288.49 L831.9,309.16 L835.56,309.16 L835.56,301.54 C836.79,303.31 838.65,304.36 840.96,304.36 C845.07,304.36 848.07,301 848.07,296.23 C848.07,291.49 845.07,288.13 840.96,288.13 Z M839.97,301.24 C837.39,301.24 835.59,299.14 835.59,296.23 C835.59,293.32 837.39,291.25 839.97,291.25 C842.58,291.25 844.44,293.32 844.44,296.23 C844.44,299.14 842.58,301.24 839.97,301.24 Z M861.87,288.49 L861.87,298.3 C861.63,299.95 860.04,301.24 858.12,301.24 C856.2,301.24 854.85,299.74 854.85,297.64 L854.85,288.49 L851.31,288.49 L851.31,298.36 C851.31,301.87 853.68,304.36 857.07,304.36 C859.11,304.36 860.91,303.37 861.87,301.93 L861.87,304 L865.53,304 L865.53,288.49 L861.87,288.49 Z M877.29,300.67 C876.96,301 876.39,301.24 875.76,301.24 C874.89,301.24 874.23,300.49 874.23,299.44 L874.23,291.52 L877.74,291.52 L877.74,288.49 L874.23,288.49 L874.23,284.23 L870.66,284.23 L870.66,288.49 L868.41,288.49 L868.41,291.52 L870.66,291.52 L870.66,299.89 C870.66,302.5 872.46,304.36 875.04,304.36 C876.21,304.36 877.47,303.88 878.34,303.13 L877.29,300.67 Z M888.42,301.12 C886.2,301.12 884.58,299.62 884.13,297.49 L895.83,297.49 C895.83,291.76 893.04,288.13 888.24,288.13 C883.83,288.13 880.35,291.55 880.35,296.2 C880.35,300.97 884.01,304.36 888.45,304.36 C890.7,304.36 893.4,303.4 894.75,301.96 L892.44,299.56 C891.57,300.46 889.86,301.12 888.42,301.12 Z M888.39,291.37 C890.58,291.37 891.9,292.75 892.32,294.7 L884.16,294.7 C884.7,292.66 886.35,291.37 888.39,291.37 Z M904.74,304.36 C908.37,304.36 910.83,302.44 910.83,299.47 C910.83,296.23 908.01,295.33 905.4,294.61 L904.477609,294.335015 C902.815102,293.820204 902.22,293.478571 902.22,292.63 C902.22,291.76 903.21,291.25 904.5,291.25 C905.85,291.25 907.44,291.73 908.91,292.66 L910.44,289.99 C908.76,288.88 906.63,288.13 904.5,288.13 C901.05,288.13 898.65,290.11 898.65,293.02 C898.678333,295.626667 900.579815,296.627778 903.621538,297.463873 L904.58626,297.723933 C906.14736,298.157584 907.29,298.576 907.29,299.68 C907.29,300.64 906.27,301.27 904.8,301.27 C902.85,301.27 901.11,300.55 899.61,299.47 L897.96,302.02 C899.82,303.52 902.37,304.36 904.74,304.36 Z M764.4,324.13 C762.09,324.13 760.23,325.18 759,326.95 L759,324.49 L755.34,324.49 L755.34,345.16 L759,345.16 L759,337.54 C760.23,339.31 762.09,340.36 764.4,340.36 C768.51,340.36 771.51,337 771.51,332.23 C771.51,327.49 768.51,324.13 764.4,324.13 Z M763.41,337.24 C760.83,337.24 759.03,335.14 759.03,332.23 C759.03,329.32 760.83,327.25 763.41,327.25 C766.02,327.25 767.88,329.32 767.88,332.23 C767.88,335.14 766.02,337.24 763.41,337.24 Z M781.56,324.13 C779.61,324.13 777.57,324.67 775.38,325.75 L776.64,328.3 C777.96,327.64 779.37,327.13 780.84,327.13 C783.66,327.13 784.65,328.87 784.65,330.67 L784.65,331.09 C783.24,330.55 781.71,330.25 780.3,330.25 C776.82,330.25 773.97,332.35 773.97,335.41 C773.97,338.41 776.46,340.36 779.76,340.36 C781.56,340.36 783.51,339.58 784.65,338.14 L784.65,340 L788.22,340 L788.22,330.67 C788.22,326.74 785.67,324.13 781.56,324.13 Z M780.57,337.69 C778.83,337.69 777.54,336.76 777.54,335.29 C777.54,333.82 779.01,332.8 780.84,332.8 C782.22,332.8 783.51,333.01 784.65,333.4 L784.65,335.14 C784.23,336.79 782.34,337.69 780.57,337.69 Z M795.93,327.49 L795.93,324.49 L792.27,324.49 L792.27,340 L795.93,340 L795.93,332.17 C795.93,329.23 798.15,327.25 801.48,327.25 L801.48,324.13 C798.93,324.13 796.92,325.42 795.93,327.49 Z M811.92,336.67 C811.59,337 811.02,337.24 810.39,337.24 C809.52,337.24 808.86,336.49 808.86,335.44 L808.86,327.52 L812.37,327.52 L812.37,324.49 L808.86,324.49 L808.86,320.23 L805.29,320.23 L805.29,324.49 L803.04,324.49 L803.04,327.52 L805.29,327.52 L805.29,335.89 C805.29,338.5 807.09,340.36 809.67,340.36 C810.84,340.36 812.1,339.88 812.97,339.13 L811.92,336.67 Z M817.68,322.15 C818.82,322.15 819.75,321.16 819.75,320.05 C819.75,318.94 818.82,317.98 817.68,317.98 C816.51,317.98 815.58,318.94 815.58,320.05 C815.58,321.16 816.51,322.15 817.68,322.15 Z M815.82,340 L819.48,340 L819.48,324.49 L815.82,324.49 L815.82,340 Z M831,340.36 C833.46,340.36 835.53,339.34 837.03,337.75 L834.57,335.62 C833.7,336.61 832.38,337.24 831.03,337.24 C828.48,337.24 826.35,334.96 826.35,332.23 C826.35,329.53 828.48,327.25 831.03,327.25 C832.35,327.25 833.64,327.88 834.48,328.81 L836.94,326.65 C835.47,325.12 833.4,324.13 831.06,324.13 C826.53,324.13 822.72,327.82 822.72,332.23 C822.72,336.64 826.53,340.36 831,340.36 Z M841.77,322.15 C842.91,322.15 843.84,321.16 843.84,320.05 C843.84,318.94 842.91,317.98 841.77,317.98 C840.6,317.98 839.67,318.94 839.67,320.05 C839.67,321.16 840.6,322.15 841.77,322.15 Z M839.91,340 L843.57,340 L843.57,324.49 L839.91,324.49 L839.91,340 Z M856.77,324.13 C854.46,324.13 852.6,325.18 851.37,326.95 L851.37,324.49 L847.71,324.49 L847.71,345.16 L851.37,345.16 L851.37,337.54 C852.6,339.31 854.46,340.36 856.77,340.36 C860.88,340.36 863.88,337 863.88,332.23 C863.88,327.49 860.88,324.13 856.77,324.13 Z M855.78,337.24 C853.2,337.24 851.4,335.14 851.4,332.23 C851.4,329.32 853.2,327.25 855.78,327.25 C858.39,327.25 860.25,329.32 860.25,332.23 C860.25,335.14 858.39,337.24 855.78,337.24 Z M873.93,324.13 C871.98,324.13 869.94,324.67 867.75,325.75 L869.01,328.3 C870.33,327.64 871.74,327.13 873.21,327.13 C876.03,327.13 877.02,328.87 877.02,330.67 L877.02,331.09 C875.61,330.55 874.08,330.25 872.67,330.25 C869.19,330.25 866.34,332.35 866.34,335.41 C866.34,338.41 868.83,340.36 872.13,340.36 C873.93,340.36 875.88,339.58 877.02,338.14 L877.02,340 L880.59,340 L880.59,330.67 C880.59,326.74 878.04,324.13 873.93,324.13 Z M872.94,337.69 C871.2,337.69 869.91,336.76 869.91,335.29 C869.91,333.82 871.38,332.8 873.21,332.8 C874.59,332.8 875.88,333.01 877.02,333.4 L877.02,335.14 C876.6,336.79 874.71,337.69 872.94,337.69 Z M892.29,336.67 C891.96,337 891.39,337.24 890.76,337.24 C889.89,337.24 889.23,336.49 889.23,335.44 L889.23,327.52 L892.74,327.52 L892.74,324.49 L889.23,324.49 L889.23,320.23 L885.66,320.23 L885.66,324.49 L883.41,324.49 L883.41,327.52 L885.66,327.52 L885.66,335.89 C885.66,338.5 887.46,340.36 890.04,340.36 C891.21,340.36 892.47,339.88 893.34,339.13 L892.29,336.67 Z M903.42,337.12 C901.2,337.12 899.58,335.62 899.13,333.49 L910.83,333.49 C910.83,327.76 908.04,324.13 903.24,324.13 C898.83,324.13 895.35,327.55 895.35,332.2 C895.35,336.97 899.01,340.36 903.45,340.36 C905.7,340.36 908.4,339.4 909.75,337.96 L907.44,335.56 C906.57,336.46 904.86,337.12 903.42,337.12 Z M903.39,327.37 C905.58,327.37 906.9,328.75 907.32,330.7 L899.16,330.7 C899.7,328.66 901.35,327.37 903.39,327.37 Z M848.34,360.13 C846.27,360.13 844.44,361.12 843.51,362.62 L843.51,355.03 L839.85,355.03 L839.85,376 L843.51,376 L843.51,366.61 C843.51,364.75 845.22,363.25 847.29,363.25 C849.21,363.25 850.56,364.75 850.56,366.85 L850.56,376 L854.1,376 L854.1,366.13 C854.1,362.62 851.73,360.13 848.34,360.13 Z M865.29,373.12 C863.07,373.12 861.45,371.62 861,369.49 L872.7,369.49 C872.7,363.76 869.91,360.13 865.11,360.13 C860.7,360.13 857.22,363.55 857.22,368.2 C857.22,372.97 860.88,376.36 865.32,376.36 C867.57,376.36 870.27,375.4 871.62,373.96 L869.31,371.56 C868.44,372.46 866.73,373.12 865.29,373.12 Z M865.26,363.37 C867.45,363.37 868.77,364.75 869.19,366.7 L861.03,366.7 C861.57,364.66 863.22,363.37 865.26,363.37 Z M879.63,363.49 L879.63,360.49 L875.97,360.49 L875.97,376 L879.63,376 L879.63,368.17 C879.63,365.23 881.85,363.25 885.18,363.25 L885.18,360.13 C882.63,360.13 880.62,361.42 879.63,363.49 Z M895.11,373.12 C892.89,373.12 891.27,371.62 890.82,369.49 L902.52,369.49 C902.52,363.76 899.73,360.13 894.93,360.13 C890.52,360.13 887.04,363.55 887.04,368.2 C887.04,372.97 890.7,376.36 895.14,376.36 C897.39,376.36 900.09,375.4 901.44,373.96 L899.13,371.56 C898.26,372.46 896.55,373.12 895.11,373.12 Z M895.08,363.37 C897.27,363.37 898.59,364.75 899.01,366.7 L890.85,366.7 C891.39,364.66 893.04,363.37 895.08,363.37 Z M907.92,376.36 C906.54,376.36 905.52,375.28 905.52,373.96 C905.52,372.73 906.54,371.65 907.92,371.65 C909.18,371.65 910.23,372.73 910.23,373.96 C910.23,375.28 909.18,376.36 907.92,376.36 Z" id="Userswhoarejurorstodisputesparticipatehere." fill="#FFFFFF" fill-rule="nonzero"></path>
        <g id="Group-5" transform="translate(548.000000, 185.000000)">
            <g id="Group-95">
                <g id="Group-94">
                    <g id="Group-8">
                        <g id="Group-7">
                            <g id="Oval">
                                <use fill="black" fill-opacity="1" filter="url(#filter-3)" xlink:href="#path-2"></use>
                                <use fill="url(#linearGradient1)" fill-rule="evenodd" xlink:href="#path-2"></use>
                            </g>
                        </g>
                    </g>
                </g>
                <g id="kleros-symbol" transform="translate(37.000000, 43.000000)" fill-rule="nonzero">
                    <polygon id="Path" fill="#45464D" opacity="0.7" points="72.2482644 2.05337118 26.5863503 0 0 33.4640939 18.6291878 78.1865455 64.7478404 81 91 43.3774095"></polygon>
                    <g id="Group">
                        <polygon id="Path" fill="#656569" points="90.9174363 43.3352266 64.9407046 16.804951 58.108618 67.6983273"></polygon>
                        <polygon id="Path" fill="url(#linearGradient4)" points="17.7399382 37.3680755 64.9407046 16.804951 58.108618 67.6983273"></polygon>
                        <polygon id="Path" fill="url(#linearGradient5)" points="64.9407046 16.804951 26.590335 0.037951049 17.7399382 37.3680755"></polygon>
                        <polygon id="Path" fill="url(#linearGradient6)" points="17.7399382 37.3680755 18.643864 78.0803748 58.108618 67.6983273"></polygon>
                        <polygon id="Path" fill="#757578" points="64.9407046 16.804951 72.1908962 2.08753427 26.590335 0.037951049"></polygon>
                        <polygon id="Path" fill="#6C6D70" points="72.1908962 2.08753427 90.9174363 43.3352266 64.9407046 16.804951"></polygon>
                        <polygon id="Path" fill="#6C6D70" points="90.9174363 43.3352266 64.7005501 80.8884126 58.108618 67.6983273"></polygon>
                        <polygon id="Path" fill="#55565A" points="64.7005501 80.8884126 18.643864 78.0803748 58.108618 67.6983273"></polygon>
                        <polygon id="Path" fill="#55565A" points="26.590335 0.037951049 0.0397070457 33.4401986 17.7399382 37.3680755"></polygon>
                        <polygon id="Path" fill="#656569" points="0.0397070457 33.4401986 18.643864 78.0803748 17.7399382 37.3680755"></polygon>
                        <polygon id="Path" fill="#151A22" opacity="0.7" points="60.1101681 23.8142266 55.3259753 60.2999119 27.1285735 38.3332783"></polygon>
                        <polygon id="Path" fill="#151A22" opacity="0.7" points="56.2917676 16.5389538 29.9340507 5.10390629 24.3973362 29.1464056"></polygon>
                        <polygon id="Path" fill="#23262E" opacity="0.7" points="49.6110853 65.8272839 20.9653201 45.2174853 21.6581125 73.1446993"></polygon>
                        <polygon id="Path" fill="#23262E" opacity="0.7" points="86.1042225 43.2441441 66.5835414 23.2860839 61.4310742 61.6649035"></polygon>
                        <polygon id="Path" fill="#43444B" opacity="0.7" points="56.3273127 70.3160434 60.5791162 78.5115441 32.1682188 76.678565"></polygon>
                        <polygon id="Path" fill="#34363D" opacity="0.7" points="82.2891965 52.2992643 61.1416514 68.1726587 65.3437367 76.4468937"></polygon>
                        <polygon id="Path" fill="#34363D" opacity="0.7" points="72.2861706 7.85065594 83.4674722 32.0057622 68.1789098 16.3467063"></polygon>
                        <polygon id="Path" fill="#36383F" opacity="0.7" points="67.168686 3.78490909 62.4670569 12.4470378 40.3212114 2.68704755"></polygon>
                        <polygon id="Path" fill="#3B3C43" opacity="0.7" points="22.8259271 7.71403217 16.5937206 34.3225888 4.02098517 31.6392797"></polygon>
                        <polygon id="Path" fill="#45464D" opacity="0.7" points="15.8354623 39.0156042 16.3840494 67.6104168 3.20221014 36.3207399"></polygon>
                    </g>
                </g>
            </g>
            <path d="M48.872,182 L51.296,182 L51.296,177.176 L53.696,174.608 L59.576,182 L62.624,182 L55.4,172.928 L62.168,165.512 L59.072,165.512 L51.296,174.104 L51.296,165.512 L48.872,165.512 L48.872,182 Z M64.688,182 L67.04,182 L67.04,165.224 L64.688,165.224 L64.688,182 Z M76.184,180.176 C74.048,180.176 72.536,178.688 72.224,176.624 L81.992,176.624 C81.992,172.184 79.808,169.304 76.016,169.304 C72.584,169.304 69.824,172.04 69.824,175.76 C69.824,179.576 72.752,182.288 76.208,182.288 C77.96,182.288 80.12,181.544 81.224,180.368 L79.736,178.832 C78.992,179.6 77.48,180.176 76.184,180.176 Z M76.112,171.416 C78.248,171.416 79.424,172.808 79.688,174.728 L72.248,174.728 C72.632,172.712 74.192,171.416 76.112,171.416 Z M87.248,171.968 L87.248,169.592 L84.872,169.592 L84.872,182 L87.248,182 L87.248,174.944 C87.464,172.784 89.288,171.368 91.856,171.368 L91.856,169.304 C89.72,169.304 88.04,170.336 87.248,171.968 Z M99.68,182.288 C103.208,182.288 106.184,179.312 106.184,175.784 C106.184,172.256 103.208,169.304 99.68,169.304 C96.128,169.304 93.128,172.256 93.128,175.784 C93.128,179.312 96.128,182.288 99.68,182.288 Z M99.68,180.224 C97.4,180.224 95.504,178.208 95.504,175.784 C95.504,173.384 97.4,171.368 99.68,171.368 C101.912,171.368 103.808,173.384 103.808,175.784 C103.808,178.208 101.912,180.224 99.68,180.224 Z M113.456,182.288 C116.168,182.288 118.16,180.8 118.16,178.448 C118.16,175.976 115.976,175.304 113.936,174.704 L113.24039,174.484489 C111.674739,173.977203 111.08,173.6528 111.08,172.808 C111.08,171.872 112.04,171.344 113.264,171.344 C114.344,171.344 115.592,171.752 116.792,172.496 L117.848,170.744 C116.504,169.856 114.872,169.304 113.264,169.304 C110.624,169.304 108.728,170.792 108.752,173.072 C108.752,174.9536 109.985493,175.789867 112.471993,176.536932 L113.585656,176.856313 C114.858125,177.230375 115.832,177.632 115.832,178.64 C115.832,179.6 114.872,180.248 113.48,180.248 C112.016,180.248 110.6,179.696 109.28,178.736 L108.152,180.44 C109.64,181.64 111.632,182.288 113.456,182.288 Z M60.464,211.288 C62.816,211.288 64.976,210.28 66.536,208.696 L64.832,207.064 C63.728,208.264 62.168,209.056 60.464,209.056 C57.176,209.056 54.392,206.176 54.392,202.744 C54.392,199.336 57.176,196.456 60.464,196.456 C62.168,196.456 63.728,197.248 64.832,198.448 L66.536,196.816 C64.976,195.208 62.816,194.224 60.464,194.224 C55.832,194.224 51.896,198.112 51.896,202.744 C51.896,207.376 55.832,211.288 60.464,211.288 Z M74.792,211.288 C78.32,211.288 81.296,208.312 81.296,204.784 C81.296,201.256 78.32,198.304 74.792,198.304 C71.24,198.304 68.24,201.256 68.24,204.784 C68.24,208.312 71.24,211.288 74.792,211.288 Z M74.792,209.224 C72.512,209.224 70.616,207.208 70.616,204.784 C70.616,202.384 72.512,200.368 74.792,200.368 C77.024,200.368 78.92,202.384 78.92,204.784 C78.92,207.208 77.024,209.224 74.792,209.224 Z M92.624,198.592 L92.624,206.632 C92.432,208.096 90.944,209.224 89.216,209.224 C87.536,209.224 86.36,207.928 86.36,206.08 L86.36,198.592 L84.032,198.592 L84.032,206.488 C84.032,209.296 85.952,211.288 88.688,211.288 C90.368,211.288 91.88,210.424 92.624,209.2 L92.624,211 L95,211 L95,198.592 L92.624,198.592 Z M100.952,200.968 L100.952,198.592 L98.576,198.592 L98.576,211 L100.952,211 L100.952,203.944 C101.168,201.784 102.992,200.368 105.56,200.368 L105.56,198.304 C103.424,198.304 101.744,199.336 100.952,200.968 Z M113.696,208.768 L114.56,210.4 C113.888,210.952 112.976,211.288 112.088,211.288 C110.168,211.288 108.824,209.896 108.824,207.904 L108.824,200.608 L106.952,200.608 L106.952,198.592 L108.824,198.592 L108.824,195.184 L111.152,195.184 L111.152,198.592 L114.08,198.592 L114.08,200.608 L111.152,200.608 L111.152,207.736 C111.152,208.6 111.728,209.224 112.424,209.224 C112.952,209.224 113.432,209.032 113.696,208.768 Z" id="KlerosCourt" fill="#FFFFFF" fill-rule="nonzero"></path>
        </g>
        <g id="Group" transform="translate(294.000000, 199.000000)">
            <g id="Group-95">
                <g id="your-platform">
                    <g id="Group-8">
                        <g id="Group-7"></g>
                    </g>
                    <g id="Oval">
                        <use fill="black" fill-opacity="1" filter="url(#filter-9)" xlink:href="#path-8"></use>
                        <use fill="url(#linearGradient7)" fill-rule="evenodd" xlink:href="#path-8"></use>
                    </g>
                    <path d="M49.654,57 L52.321,57 L52.321,51.582 L58.012,42.573 L55.03,42.573 L50.998,49.104 L47.029,42.573 L43.942,42.573 L49.654,51.582 L49.654,57 Z M62.464,57.252 C65.614,57.252 68.281,54.648 68.281,51.561 C68.281,48.474 65.614,45.891 62.464,45.891 C59.314,45.891 56.647,48.474 56.647,51.561 C56.647,54.648 59.314,57.252 62.464,57.252 Z M62.464,55.068 C60.658,55.068 59.146,53.472 59.146,51.561 C59.146,49.671 60.658,48.075 62.464,48.075 C64.249,48.075 65.761,49.671 65.761,51.561 C65.761,53.472 64.249,55.068 62.464,55.068 Z M77.857,46.143 L77.857,53.01 C77.689,54.165 76.576,55.068 75.232,55.068 C73.888,55.068 72.943,54.018 72.943,52.548 L72.943,46.143 L70.465,46.143 L70.465,53.052 C70.465,55.509 72.124,57.252 74.497,57.252 C75.925,57.252 77.185,56.559 77.857,55.551 L77.857,57 L80.419,57 L80.419,46.143 L77.857,46.143 Z M85.858,48.243 L85.858,46.143 L83.296,46.143 L83.296,57 L85.858,57 L85.858,51.519 C85.858,49.461 87.412,48.075 89.743,48.075 L89.743,45.891 C87.958,45.891 86.551,46.794 85.858,48.243 Z M24.4015,82 L27.0265,82 L27.0265,77.149 L30.6805,77.149 C33.7675,77.149 36.0775,75.175 36.0775,72.361 C36.0775,69.547 33.7675,67.573 30.6805,67.573 L24.4015,67.573 L24.4015,82 Z M27.0265,74.734 L27.0265,69.988 L30.3865,69.988 C32.1715,69.988 33.4105,70.891 33.4105,72.361 C33.4105,73.831 32.1715,74.734 30.3865,74.734 L27.0265,74.734 Z M38.0515,82 L40.6135,82 L40.6135,67.321 L38.0515,67.321 L38.0515,82 Z M48.1735,70.891 C46.8085,70.891 45.3805,71.269 43.8475,72.025 L44.7295,73.81 C45.6535,73.348 46.6405,72.991 47.6695,72.991 C49.6435,72.991 50.3365,74.209 50.3365,75.469 L50.3365,75.763 C49.3495,75.385 48.2785,75.175 47.2915,75.175 C44.8555,75.175 42.8605,76.645 42.8605,78.787 C42.8605,80.887 44.6035,82.252 46.9135,82.252 C48.1735,82.252 49.5385,81.706 50.3365,80.698 L50.3365,82 L52.8355,82 L52.8355,75.469 C52.8355,72.718 51.0505,70.891 48.1735,70.891 Z M47.4805,80.383 C46.2625,80.383 45.3595,79.732 45.3595,78.703 C45.3595,77.674 46.3885,76.96 47.6695,76.96 C48.6355,76.96 49.5385,77.107 50.3365,77.38 L50.3365,78.598 C50.0425,79.753 48.7195,80.383 47.4805,80.383 Z M61.0255,79.669 C60.7945,79.9 60.3955,80.068 59.9545,80.068 C59.3455,80.068 58.8835,79.543 58.8835,78.808 L58.8835,73.264 L61.3405,73.264 L61.3405,71.143 L58.8835,71.143 L58.8835,68.161 L56.3845,68.161 L56.3845,71.143 L54.8095,71.143 L54.8095,73.264 L56.3845,73.264 L56.3845,79.123 C56.3845,80.95 57.6445,82.252 59.4505,82.252 C60.2695,82.252 61.1515,81.916 61.7605,81.391 L61.0255,79.669 Z M67.0315,70.24 C67.0315,69.505 67.4935,68.98 68.1025,68.98 C68.5435,68.98 68.9425,69.148 69.1735,69.379 L69.9085,67.741 C69.2995,67.216 68.4175,66.88 67.5985,66.88 C65.7925,66.88 64.5325,68.182 64.5325,70.009 L64.5325,71.143 L62.9575,71.143 L62.9575,73.264 L64.5325,73.264 L64.5325,82 L67.0315,82 L67.0315,73.264 L69.4885,73.264 L69.4885,71.143 L67.0315,71.143 L67.0315,70.24 Z M76.7755,82.252 C79.9255,82.252 82.5925,79.648 82.5925,76.561 C82.5925,73.474 79.9255,70.891 76.7755,70.891 C73.6255,70.891 70.9585,73.474 70.9585,76.561 C70.9585,79.648 73.6255,82.252 76.7755,82.252 Z M76.7755,80.068 C74.9695,80.068 73.4575,78.472 73.4575,76.561 C73.4575,74.671 74.9695,73.075 76.7755,73.075 C78.5605,73.075 80.0725,74.671 80.0725,76.561 C80.0725,78.472 78.5605,80.068 76.7755,80.068 Z M87.4435,73.243 L87.4435,71.143 L84.8815,71.143 L84.8815,82 L87.4435,82 L87.4435,76.519 C87.4435,74.461 88.9975,73.075 91.3285,73.075 L91.3285,70.891 C89.5435,70.891 88.1365,71.794 87.4435,73.243 Z M105.7555,70.891 C108.0235,70.891 109.7245,72.634 109.7245,75.091 L109.7245,82 L107.2255,82 L107.2255,75.511 C107.2255,74.083 106.3645,73.075 105.1255,73.075 C103.7185,73.075 102.7525,74.02 102.7525,75.343 L102.7525,82 L100.2535,82 L100.2535,75.511 C100.2535,74.083 99.3925,73.075 98.1325,73.075 C96.7465,73.075 95.7595,74.02 95.7595,75.343 L95.7595,82 L93.1975,82 L93.1975,71.143 L95.7595,71.143 L95.7595,72.613 C96.3055,71.563 97.4185,70.891 98.7835,70.891 C100.3165,70.891 101.5765,71.668 102.2485,72.949 C102.7735,71.689 104.1385,70.891 105.7555,70.891 Z" id="YourPlatform" fill="#FFFFFF" fill-rule="nonzero"></path>
                </g>
            </g>
        </g>
        <g id="Group-3" transform="translate(405.000000, 174.000000)" fill="#FFFFFF" fill-rule="nonzero">
            <path id="Line-34" d="M126.328125,36 L145.328125,45.5 L126.328125,55 L126.328,47 L30,47 L30,44 L126.328,44 L126.328125,36 Z"></path>
            <path d="M3.824,24 L9.632,24 C15.08,24 18.92,20.568 18.92,15.744 C18.92,10.92 15.08,7.512 9.632,7.512 L3.824,7.512 L3.824,24 Z M6.824,21.288 L6.824,10.224 L9.944,10.224 C13.424,10.224 15.872,12.504 15.872,15.744 C15.872,18.984 13.424,21.288 9.944,21.288 L6.824,21.288 Z M23.264,9.72 C24.176,9.72 24.92,8.928 24.92,8.04 C24.92,7.152 24.176,6.384 23.264,6.384 C22.328,6.384 21.584,7.152 21.584,8.04 C21.584,8.928 22.328,9.72 23.264,9.72 Z M21.776,24 L24.704,24 L24.704,11.592 L21.776,11.592 L21.776,24 Z M32.528,24.288 C35.432,24.288 37.4,22.752 37.4,20.376 C37.4,17.784 35.144,17.064 33.056,16.488 L32.4023281,16.2939375 C31.008125,15.867375 30.512,15.597 30.512,14.904 C30.512,14.208 31.304,13.8 32.336,13.8 C33.416,13.8 34.688,14.184 35.864,14.928 L37.088,12.792 C35.744,11.904 34.04,11.304 32.336,11.304 C29.576,11.304 27.656,12.888 27.656,15.216 C27.68,17.424 29.384,18.192 32.072,18.888 L32.6306424,19.0429001 C33.7624628,19.3691405 34.568,19.7149091 34.568,20.544 C34.568,21.312 33.752,21.816 32.576,21.816 C31.016,21.816 29.624,21.24 28.424,20.376 L27.104,22.416 C28.592,23.616 30.632,24.288 32.528,24.288 Z M47.264,11.304 C45.416,11.304 43.928,12.144 42.944,13.56 L42.944,11.592 L40.016,11.592 L40.016,28.128 L42.944,28.128 L42.944,22.032 C43.928,23.448 45.416,24.288 47.264,24.288 C50.552,24.288 52.952,21.6 52.952,17.784 C52.952,13.992 50.552,11.304 47.264,11.304 Z M46.472,21.792 C44.408,21.792 42.968,20.112 42.968,17.784 C42.968,15.456 44.408,13.8 46.472,13.8 C48.56,13.8 50.048,15.456 50.048,17.784 C50.048,20.112 48.56,21.792 46.472,21.792 Z M63.992,11.592 L63.992,19.44 C63.8,20.76 62.528,21.792 60.992,21.792 C59.456,21.792 58.376,20.592 58.376,18.912 L58.376,11.592 L55.544,11.592 L55.544,19.488 C55.544,22.296 57.44,24.288 60.152,24.288 C61.784,24.288 63.224,23.496 63.992,22.344 L63.992,24 L66.92,24 L66.92,11.592 L63.992,11.592 Z M76.328,21.336 C76.064,21.6 75.608,21.792 75.104,21.792 C74.408,21.792 73.88,21.192 73.88,20.352 L73.88,14.016 L76.688,14.016 L76.688,11.592 L73.88,11.592 L73.88,8.184 L71.024,8.184 L71.024,11.592 L69.224,11.592 L69.224,14.016 L71.024,14.016 L71.024,20.712 C71.024,22.8 72.464,24.288 74.528,24.288 C75.464,24.288 76.472,23.904 77.168,23.304 L76.328,21.336 Z M85.232,21.696 C83.456,21.696 82.16,20.496 81.8,18.792 L91.16,18.792 C91.16,14.208 88.928,11.304 85.088,11.304 C81.56,11.304 78.776,14.04 78.776,17.76 C78.776,21.576 81.704,24.288 85.256,24.288 C87.056,24.288 89.216,23.52 90.296,22.368 L88.448,20.448 C87.752,21.168 86.384,21.696 85.232,21.696 Z M85.208,13.896 C86.96,13.896 88.016,15 88.352,16.56 L81.824,16.56 C82.256,14.928 83.576,13.896 85.208,13.896 Z M98.288,24.288 C96.392,24.288 94.352,23.616 92.864,22.416 L94.184,20.376 C95.384,21.24 96.776,21.816 98.336,21.816 C99.512,21.816 100.328,21.312 100.328,20.544 C100.328,19.584 99.248,19.272 97.832,18.888 C95.144,18.192 93.44,17.424 93.416,15.216 C93.416,12.888 95.336,11.304 98.096,11.304 C99.8,11.304 101.504,11.904 102.848,12.792 L101.624,14.928 C100.448,14.184 99.176,13.8 98.096,13.8 C97.064,13.8 96.272,14.208 96.272,14.904 C96.272,15.696 96.92,15.936 98.816,16.488 L99.3877986,16.6499594 C101.295537,17.2103802 103.16,18.0196364 103.16,20.376 C103.16,22.752 101.192,24.288 98.288,24.288 Z" id="Disputes"></path>
        </g>
        <g id="Group-4" transform="translate(438.000000, 303.000000)" fill="#009AFF" fill-rule="nonzero">
            <path id="Line-34" d="M102.25,-8.5 L121.25,1 L102.25,10.5 L102.25,2.5 L-0.25,2.5 L-0.25,-0.5 L102.25,-0.5 L102.25,-8.5 Z"></path>
            <path d="M36.572,33 L42.38,33 C47.828,33 51.668,29.568 51.668,24.744 C51.668,19.92 47.828,16.512 42.38,16.512 L36.572,16.512 L36.572,33 Z M39.572,30.288 L39.572,19.224 L42.692,19.224 C46.172,19.224 48.62,21.504 48.62,24.744 C48.62,27.984 46.172,30.288 42.692,30.288 L39.572,30.288 Z M60.308,30.696 C58.532,30.696 57.236,29.496 56.876,27.792 L66.236,27.792 C66.236,23.208 64.004,20.304 60.164,20.304 C56.636,20.304 53.852,23.04 53.852,26.76 C53.852,30.576 56.78,33.288 60.332,33.288 C62.132,33.288 64.292,32.52 65.372,31.368 L63.524,29.448 C62.828,30.168 61.46,30.696 60.308,30.696 Z M60.284,22.896 C62.036,22.896 63.092,24 63.428,25.56 L56.9,25.56 C57.332,23.928 58.652,22.896 60.284,22.896 Z M74.756,33.288 C76.724,33.288 78.38,32.472 79.58,31.2 L77.612,29.496 C76.916,30.288 75.86,30.792 74.78,30.792 C72.74,30.792 71.036,28.968 71.036,26.784 C71.036,24.624 72.74,22.8 74.78,22.8 C75.836,22.8 76.868,23.304 77.54,24.048 L79.508,22.32 C78.332,21.096 76.676,20.304 74.804,20.304 C71.18,20.304 68.132,23.256 68.132,26.784 C68.132,30.312 71.18,33.288 74.756,33.288 Z M83.372,18.72 C84.284,18.72 85.028,17.928 85.028,17.04 C85.028,16.152 84.284,15.384 83.372,15.384 C82.436,15.384 81.692,16.152 81.692,17.04 C81.692,17.928 82.436,18.72 83.372,18.72 Z M81.884,33 L84.812,33 L84.812,20.592 L81.884,20.592 L81.884,33 Z M92.636,33.288 C95.54,33.288 97.508,31.752 97.508,29.376 C97.508,26.784 95.252,26.064 93.164,25.488 L92.3172222,25.234 C91.07,24.8406667 90.62,24.564 90.62,23.904 C90.62,23.208 91.412,22.8 92.444,22.8 C93.524,22.8 94.796,23.184 95.972,23.928 L97.196,21.792 C95.852,20.904 94.148,20.304 92.444,20.304 C89.684,20.304 87.764,21.888 87.764,24.216 C87.7864516,26.2815484 89.2791217,27.0869095 91.672216,27.7520239 L92.18,27.888 C93.596,28.272 94.676,28.584 94.676,29.544 C94.676,30.312 93.86,30.816 92.684,30.816 C91.124,30.816 89.732,30.24 88.532,29.376 L87.212,31.416 C88.7,32.616 90.74,33.288 92.636,33.288 Z M101.54,18.72 C102.452,18.72 103.196,17.928 103.196,17.04 C103.196,16.152 102.452,15.384 101.54,15.384 C100.604,15.384 99.86,16.152 99.86,17.04 C99.86,17.928 100.604,18.72 101.54,18.72 Z M100.052,33 L102.98,33 L102.98,20.592 L100.052,20.592 L100.052,33 Z M112.22,33.288 C115.82,33.288 118.868,30.312 118.868,26.784 C118.868,23.256 115.82,20.304 112.22,20.304 C108.62,20.304 105.572,23.256 105.572,26.784 C105.572,30.312 108.62,33.288 112.22,33.288 Z M112.22,30.792 C110.156,30.792 108.428,28.968 108.428,26.784 C108.428,24.624 110.156,22.8 112.22,22.8 C114.26,22.8 115.988,24.624 115.988,26.784 C115.988,28.968 114.26,30.792 112.22,30.792 Z M128.18,20.304 C130.892,20.304 132.788,22.296 132.788,25.104 L132.788,33 L129.956,33 L129.956,25.68 C129.956,24 128.876,22.8 127.34,22.8 C125.804,22.8 124.532,23.832 124.34,25.152 L124.34,33 L121.412,33 L121.412,20.592 L124.34,20.592 L124.34,22.248 C125.108,21.096 126.548,20.304 128.18,20.304 Z" id="Decision"></path>
        </g>
    </g>
</svg>