<?xml version="1.0" encoding="UTF-8"?>
<svg width="1200px" height="790px" viewBox="0 0 1200 790" version="1.1" xmlns="http://www.w3.org/2000/svg" xmlns:xlink="http://www.w3.org/1999/xlink">
    <!-- Generator: Sketch 58 (84663) - https://sketch.com -->
    <title>website-integrations3 copy</title>
    <desc>Created with Sketch.</desc>
    <defs>
        <linearGradient x1="50%" y1="0%" x2="50%" y2="100%" id="linearGradient-1">
            <stop stop-color="#8400DB" offset="0%"></stop>
            <stop stop-color="#4D00B4" offset="100%"></stop>
        </linearGradient>
        <linearGradient x1="0%" y1="49.9999777%" x2="100.000024%" y2="49.9999777%" id="linearGradient-2">
            <stop stop-color="#A3A2A5" offset="0%"></stop>
            <stop stop-color="#9F9EA0" offset="27.05%"></stop>
            <stop stop-color="#929194" offset="56.07%"></stop>
            <stop stop-color="#7C7C80" offset="85.92%"></stop>
            <stop stop-color="#707073" offset="100%"></stop>
        </linearGradient>
        <linearGradient x1="-0.661193461%" y1="79.9148322%" x2="70.3915924%" y2="24.2689758%" id="linearGradient-3">
            <stop stop-color="#969598" offset="0%"></stop>
            <stop stop-color="#908F92" offset="33.96%"></stop>
            <stop stop-color="#7F7F82" offset="79.17%"></stop>
            <stop stop-color="#757578" offset="100%"></stop>
        </linearGradient>
        <linearGradient x1="6.06021085%" y1="-2.83492963%" x2="50.00952%" y2="85.0511445%" id="linearGradient-4">
            <stop stop-color="#9E9EA0" offset="0%"></stop>
            <stop stop-color="#9B9B9D" offset="27.59%"></stop>
            <stop stop-color="#919194" offset="49.4%"></stop>
            <stop stop-color="#808083" offset="69.23%"></stop>
            <stop stop-color="#69696D" offset="87.77%"></stop>
            <stop stop-color="#55565A" offset="100%"></stop>
        </linearGradient>
    </defs>
    <g id="website-integrations3-copy" stroke="none" stroke-width="1" fill="none" fill-rule="evenodd">
        <path d="M312.5,646 C450.84733,646 563,533.84733 563,395.5 C563,257.15267 450.84733,145 312.5,145 C174.15267,145 62,257.15267 62,395.5 C62,533.84733 174.15267,646 312.5,646 Z M312.5,640 C177.466379,640 68,530.533621 68,395.5 C68,260.466379 177.466379,151 312.5,151 C447.533621,151 557,260.466379 557,395.5 C557,530.533621 447.533621,640 312.5,640 Z" id="Oval" fill="#9013FE" fill-rule="nonzero"></path>
        <circle id="Oval" fill="url(#linearGradient-1)" cx="312.5" cy="395.5" r="244.5"></circle>
        <g id="Group-2" transform="translate(758.000000, 261.000000)">
            <circle id="Oval" fill="#FFFFFF" cx="135" cy="135" r="135"></circle>
            <g id="kleros-symbol" transform="translate(51.000000, 60.000000)" fill-rule="nonzero">
                <polygon id="Path" fill="#45464D" opacity="0.7" points="133.381411 3.77718897 49.0824928 0 0 61.5574073 34.3923467 143.824633 119.534475 149 168 79.7930126"></polygon>
                <g id="Group">
                    <polygon id="Path" fill="#656569" points="167.847575 79.7154168 119.890532 30.9128112 107.277449 124.531491"></polygon>
                    <polygon id="Path" fill="url(#linearGradient-2)" points="32.7506551 68.7388056 119.890532 30.9128112 107.277449 124.531491"></polygon>
                    <polygon id="Path" fill="url(#linearGradient-3)" points="119.890532 30.9128112 49.0898492 0.0698111888 32.7506551 68.7388056"></polygon>
                    <polygon id="Path" fill="url(#linearGradient-4)" points="32.7506551 68.7388056 34.4194413 143.629331 107.277449 124.531491"></polygon>
                    <polygon id="Path" fill="#757578" points="119.890532 30.9128112 133.275501 3.84003217 49.0898492 0.0698111888"></polygon>
                    <polygon id="Path" fill="#6C6D70" points="133.275501 3.84003217 167.847575 79.7154168 119.890532 30.9128112"></polygon>
                    <polygon id="Path" fill="#6C6D70" points="167.847575 79.7154168 119.447169 148.794734 107.277449 124.531491"></polygon>
                    <polygon id="Path" fill="#55565A" points="119.447169 148.794734 34.4194413 143.629331 107.277449 124.531491"></polygon>
                    <polygon id="Path" fill="#55565A" points="49.0898492 0.0698111888 0.0733053152 61.5134517 32.7506551 68.7388056"></polygon>
                    <polygon id="Path" fill="#656569" points="0.0733053152 61.5134517 34.4194413 143.629331 32.7506551 68.7388056"></polygon>
                    <polygon id="Path" fill="#151A22" opacity="0.7" points="110.972618 43.8064168 102.140262 110.92206 50.0835204 70.5143021"></polygon>
                    <polygon id="Path" fill="#151A22" opacity="0.7" points="103.923263 30.4235077 55.2628628 9.38866713 45.0412361 53.614993"></polygon>
                    <polygon id="Path" fill="#23262E" opacity="0.7" points="91.5896959 121.089695 38.7052064 83.1778434 39.9842077 134.550126"></polygon>
                    <polygon id="Path" fill="#23262E" opacity="0.7" points="158.961642 79.5478699 122.923461 42.8348951 113.411214 113.432971"></polygon>
                    <polygon id="Path" fill="#43444B" opacity="0.7" points="103.988885 129.346796 111.838368 144.42247 59.3874808 141.050694"></polygon>
                    <polygon id="Path" fill="#34363D" opacity="0.7" points="151.918517 96.2048196 112.876895 125.404027 120.634591 140.624533"></polygon>
                    <polygon id="Path" fill="#34363D" opacity="0.7" points="133.451392 14.4413301 154.093795 58.8747972 125.868756 30.0698671"></polygon>
                    <polygon id="Path" fill="#36383F" opacity="0.7" points="124.003728 6.96236364 115.323797 22.8964028 74.4391595 4.94284056"></polygon>
                    <polygon id="Path" fill="#3B3C43" opacity="0.7" points="42.1401731 14.1900098 30.6345612 63.136614 7.42335723 58.2006503"></polygon>
                    <polygon id="Path" fill="#45464D" opacity="0.7" points="29.2346996 71.7694448 30.2474759 124.369779 5.91177256 66.8122252"></polygon>
                </g>
            </g>
        </g>
        <path d="M893.5,585 C998.15796,585 1083,500.15796 1083,395.5 C1083,290.84204 998.15796,206 893.5,206 C788.84204,206 704,290.84204 704,395.5 C704,500.15796 788.84204,585 893.5,585 Z M893.5,583 C789.946609,583 706,499.053391 706,395.5 C706,291.946609 789.946609,208 893.5,208 C997.053391,208 1081,291.946609 1081,395.5 C1081,499.053391 997.053391,583 893.5,583 Z" id="Oval" fill="#9013FE" fill-rule="nonzero"></path>
        <path d="M893.5,632 C1024.11534,632 1130,526.115343 1130,395.5 C1130,264.884657 1024.11534,159 893.5,159 C762.884657,159 657,264.884657 657,395.5 C657,526.115343 762.884657,632 893.5,632 Z M893.5,630 C763.989226,630 659,525.010774 659,395.5 C659,265.989226 763.989226,161 893.5,161 C1023.01077,161 1128,265.989226 1128,395.5 C1128,525.010774 1023.01077,630 893.5,630 Z" id="Oval" fill="#9013FE" fill-rule="nonzero"></path>
        <path d="M172.248,377.728 L172.248,412 L179.304,412 L179.304,387.952 L179.4,387.952 L187.8,412 L193.608,412 L202.008,387.712 L202.104,387.712 L202.104,412 L209.16,412 L209.16,377.728 L198.552,377.728 L190.968,401.296 L190.872,401.296 L182.856,377.728 L172.248,377.728 Z M214.776,394.816 C214.872,393.215992 215.271996,391.888005 215.976,390.832 C216.680004,389.775995 217.575995,388.928003 218.664,388.288 C219.752005,387.647997 220.975993,387.192001 222.336,386.92 C223.696007,386.647999 225.063993,386.512 226.44,386.512 C227.688006,386.512 228.951994,386.599999 230.232,386.776 C231.512006,386.952001 232.679995,387.295997 233.736,387.808 C234.792005,388.320003 235.655997,389.031995 236.328,389.944 C237.000003,390.856005 237.336,392.063992 237.336,393.568 L237.336,406.48 C237.336,407.600006 237.399999,408.671995 237.528,409.696 C237.656001,410.720005 237.879998,411.487997 238.2,412 L231.288,412 C231.159999,411.615998 231.056,411.224002 230.976,410.824 C230.896,410.423998 230.84,410.016002 230.808,409.6 C229.719995,410.720006 228.440007,411.503998 226.968,411.952 C225.495993,412.400002 223.992008,412.624 222.456,412.624 C221.271994,412.624 220.168005,412.480001 219.144,412.192 C218.119995,411.903999 217.224004,411.456003 216.456,410.848 C215.687996,410.239997 215.088002,409.472005 214.656,408.544 C214.223998,407.615995 214.008,406.512 214.008,405.232 C214.008,403.823993 214.255998,402.664005 214.752,401.752 C215.248002,400.839995 215.887996,400.112003 216.672,399.568 C217.456004,399.023997 218.351995,398.616001 219.36,398.344 C220.368005,398.071999 221.383995,397.856001 222.408,397.696 C223.176004,397.575999 223.934999,397.474 224.684999,397.39 L225.432,397.312 C226.424005,397.216 227.303996,397.072001 228.072,396.88 C228.840004,396.687999 229.447998,396.408002 229.896,396.04 C230.303275,395.705453 230.512199,395.232069 230.522777,394.619835 L230.52,394.432 C230.52,393.695996 230.400001,393.112002 230.16,392.68 C229.919999,392.247998 229.600002,391.912001 229.2,391.672 C228.799998,391.431999 228.336003,391.272 227.808,391.192 C227.279997,391.112 226.712003,391.072 226.104,391.072 C224.759993,391.072 223.704004,391.359997 222.936,391.936 C222.167996,392.512 221.720001,393.471993 221.592,394.816 L214.776,394.816 Z M230.52,399.856 C230.231999,400.112001 229.872002,400.311999 229.44,400.456 C229.007998,400.600001 228.544002,400.72 228.048,400.816 C227.717332,400.88 227.376,400.936889 227.024001,400.986667 L226.488,401.056 C225.943997,401.12 225.400003,401.2 224.856,401.296 C224.343997,401.392 223.840002,401.519999 223.344,401.68 C222.847998,401.840001 222.416002,402.055999 222.048,402.328 C221.679998,402.600001 221.384001,402.943998 221.16,403.36 C220.935999,403.776002 220.824,404.303997 220.824,404.944 C220.824,405.552003 220.935999,406.063998 221.16,406.48 C221.384001,406.896002 221.687998,407.223999 222.072,407.464 C222.456002,407.704001 222.903997,407.872 223.416,407.968 C223.928003,408.064 224.455997,408.112 225,408.112 C226.344007,408.112 227.383996,407.888002 228.12,407.44 C228.856004,406.991998 229.399998,406.456003 229.752,405.832 C230.104002,405.207997 230.32,404.576003 230.4,403.936 C230.48,403.295997 230.52,402.784002 230.52,402.4 L230.52,399.856 Z M242.616,387.184 L242.616,412 L249.432,412 L249.432,400.816 C249.432,399.695994 249.543999,398.656005 249.768,397.696 C249.992001,396.735995 250.367997,395.896004 250.896,395.176 C251.424003,394.455996 252.119996,393.888002 252.984,393.472 C253.848004,393.055998 254.903994,392.848 256.152,392.848 C256.568002,392.848 256.999998,392.872 257.448,392.92 C257.896002,392.968 258.279998,393.024 258.6,393.088 L258.6,386.752 C258.055997,386.591999 257.560002,386.512 257.112,386.512 C256.247996,386.512 255.416004,386.639999 254.616,386.896 C253.815996,387.152001 253.064004,387.512 252.36,387.976 C251.655996,388.440002 251.032003,388.999997 250.488,389.656 C249.943997,390.312003 249.512002,391.023996 249.192,391.792 L249.096,391.792 L249.096,387.184 L242.616,387.184 Z M261.912,377.728 L261.912,412 L268.728,412 L268.728,403.456 L271.368,400.912 L278.184,412 L286.44,412 L276.024,396.304 L285.384,387.184 L277.32,387.184 L268.728,396.112 L268.728,377.728 L261.912,377.728 Z M305.544,396.928 L294.456,396.928 C294.488,396.447998 294.591999,395.904003 294.768,395.296 C294.944001,394.687997 295.247998,394.112003 295.68,393.568 C296.112002,393.023997 296.687996,392.568002 297.408,392.2 C298.128004,391.831998 299.031995,391.648 300.12,391.648 C301.784008,391.648 303.023996,392.095996 303.84,392.992 C304.656004,393.888004 305.223998,395.199991 305.544,396.928 Z M294.456,401.248 L312.36,401.248 C312.488001,399.32799 312.328002,397.488009 311.88,395.728 C311.431998,393.967991 310.704005,392.400007 309.696,391.024 C308.687995,389.647993 307.400008,388.552004 305.832,387.736 C304.263992,386.919996 302.424011,386.512 300.312,386.512 C298.423991,386.512 296.704008,386.847997 295.152,387.52 C293.599992,388.192003 292.264006,389.111994 291.144,390.28 C290.023994,391.448006 289.160003,392.831992 288.552,394.432 C287.943997,396.032008 287.64,397.759991 287.64,399.616 C287.64,401.53601 287.935997,403.295992 288.528,404.896 C289.120003,406.496008 289.959995,407.871994 291.048,409.024 C292.136005,410.176006 293.463992,411.063997 295.032,411.688 C296.600008,412.312003 298.35999,412.624 300.312,412.624 C303.128014,412.624 305.52799,411.984006 307.512,410.704 C309.49601,409.423994 310.967995,407.296015 311.928,404.32 L305.928,404.32 C305.703999,405.088004 305.096005,405.815997 304.104,406.504 C303.111995,407.192003 301.928007,407.536 300.552,407.536 C298.63199,407.536 297.160005,407.040005 296.136,406.048 C295.111995,405.055995 294.552,403.456011 294.456,401.248 Z M325.032,387.184 L325.032,379.744 L318.216,379.744 L318.216,387.184 L314.088,387.184 L314.088,391.744 L318.216,391.744 L318.216,406.384 C318.216,407.632006 318.423998,408.639996 318.84,409.408 C319.256002,410.176004 319.823996,410.767998 320.544,411.184 C321.264004,411.600002 322.095995,411.879999 323.04,412.024 C323.984005,412.168001 324.983995,412.24 326.04,412.24 C326.712003,412.24 327.399996,412.224 328.104,412.192 C328.808004,412.16 329.447997,412.096 330.024,412 L330.024,406.72 C329.703998,406.784 329.368002,406.832 329.016,406.864 C328.663998,406.896 328.296002,406.912 327.912,406.912 C326.759994,406.912 325.992002,406.720002 325.608,406.336 C325.223998,405.951998 325.032,405.184006 325.032,404.032 L325.032,391.744 L330.024,391.744 L330.024,387.184 L325.032,387.184 Z M345.816,407.536 C344.727995,407.536 343.800004,407.312002 343.032,406.864 C342.263996,406.415998 341.648002,405.832004 341.184,405.112 C340.719998,404.391996 340.384001,403.552005 340.176,402.592 C339.967999,401.631995 339.864,400.656005 339.864,399.664 C339.864,398.639995 339.959999,397.648 340.152,396.688 C340.344001,395.727995 340.671998,394.880004 341.136,394.144 C341.600002,393.407996 342.207996,392.808002 342.96,392.344 C343.712004,391.879998 344.647994,391.648 345.768,391.648 C346.856005,391.648 347.775996,391.879998 348.528,392.344 C349.280004,392.808002 349.895998,393.415996 350.376,394.168 C350.856002,394.920004 351.199999,395.775995 351.408,396.736 C351.616001,397.696005 351.72,398.671995 351.72,399.664 C351.72,400.656005 351.624001,401.631995 351.432,402.592 C351.239999,403.552005 350.912002,404.391996 350.448,405.112 C349.983998,405.832004 349.376004,406.415998 348.624,406.864 C347.871996,407.312002 346.936006,407.536 345.816,407.536 Z M333.288,387.184 L333.288,420.688 L340.104,420.688 L340.104,408.928 L340.2,408.928 C341.032004,410.144006 342.095994,411.063997 343.392,411.688 C344.688006,412.312003 346.103992,412.624 347.64,412.624 C349.464009,412.624 351.055993,412.272004 352.416,411.568 C353.776007,410.863996 354.911995,409.920006 355.824,408.736 C356.736005,407.551994 357.415998,406.192008 357.864,404.656 C358.312002,403.119992 358.536,401.520008 358.536,399.856 C358.536,398.095991 358.312002,396.408008 357.864,394.792 C357.415998,393.175992 356.728005,391.760006 355.8,390.544 C354.871995,389.327994 353.704007,388.352004 352.296,387.616 C350.887993,386.879996 349.20801,386.512 347.256,386.512 C345.719992,386.512 344.312006,386.815997 343.032,387.424 C341.751994,388.032003 340.696004,389.007993 339.864,390.352 L339.768,390.352 L339.768,387.184 L333.288,387.184 Z M362.808,377.728 L362.808,412 L369.624,412 L369.624,377.728 L362.808,377.728 Z M374.712,394.816 C374.808,393.215992 375.207996,391.888005 375.912,390.832 C376.616004,389.775995 377.511995,388.928003 378.6,388.288 C379.688005,387.647997 380.911993,387.192001 382.272,386.92 C383.632007,386.647999 384.999993,386.512 386.376,386.512 C387.624006,386.512 388.887994,386.599999 390.168,386.776 C391.448006,386.952001 392.615995,387.295997 393.672,387.808 C394.728005,388.320003 395.591997,389.031995 396.264,389.944 C396.936003,390.856005 397.272,392.063992 397.272,393.568 L397.272,406.48 C397.272,407.600006 397.335999,408.671995 397.464,409.696 C397.592001,410.720005 397.815998,411.487997 398.136,412 L391.224,412 C391.095999,411.615998 390.992,411.224002 390.912,410.824 C390.832,410.423998 390.776,410.016002 390.744,409.6 C389.655995,410.720006 388.376007,411.503998 386.904,411.952 C385.431993,412.400002 383.928008,412.624 382.392,412.624 C381.207994,412.624 380.104005,412.480001 379.08,412.192 C378.055995,411.903999 377.160004,411.456003 376.392,410.848 C375.623996,410.239997 375.024002,409.472005 374.592,408.544 C374.159998,407.615995 373.944,406.512 373.944,405.232 C373.944,403.823993 374.191998,402.664005 374.688,401.752 C375.184002,400.839995 375.823996,400.112003 376.608,399.568 C377.392004,399.023997 378.287995,398.616001 379.296,398.344 C380.304005,398.071999 381.319995,397.856001 382.344,397.696 C383.112004,397.575999 383.870999,397.474 384.620999,397.39 L385.368,397.312 C386.360005,397.216 387.239996,397.072001 388.008,396.88 C388.776004,396.687999 389.383998,396.408002 389.832,396.04 C390.239275,395.705453 390.448199,395.232069 390.458777,394.619835 L390.456,394.432 C390.456,393.695996 390.336001,393.112002 390.096,392.68 C389.855999,392.247998 389.536002,391.912001 389.136,391.672 C388.735998,391.431999 388.272003,391.272 387.744,391.192 C387.215997,391.112 386.648003,391.072 386.04,391.072 C384.695993,391.072 383.640004,391.359997 382.872,391.936 C382.103996,392.512 381.656001,393.471993 381.528,394.816 L374.712,394.816 Z M390.456,399.856 C390.167999,400.112001 389.808002,400.311999 389.376,400.456 C388.943998,400.600001 388.480002,400.72 387.984,400.816 C387.653332,400.88 387.312,400.936889 386.960001,400.986667 L386.424,401.056 C385.879997,401.12 385.336003,401.2 384.792,401.296 C384.279997,401.392 383.776002,401.519999 383.28,401.68 C382.783998,401.840001 382.352002,402.055999 381.984,402.328 C381.615998,402.600001 381.320001,402.943998 381.096,403.36 C380.871999,403.776002 380.76,404.303997 380.76,404.944 C380.76,405.552003 380.871999,406.063998 381.096,406.48 C381.320001,406.896002 381.623998,407.223999 382.008,407.464 C382.392002,407.704001 382.839997,407.872 383.352,407.968 C383.864003,408.064 384.391997,408.112 384.936,408.112 C386.280007,408.112 387.319996,407.888002 388.056,407.44 C388.792004,406.991998 389.335998,406.456003 389.688,405.832 C390.040002,405.207997 390.256,404.576003 390.336,403.936 C390.416,403.295997 390.456,402.784002 390.456,402.4 L390.456,399.856 Z M414.456,386.512 C415.928007,386.512 417.343993,386.703998 418.704,387.088 C420.064007,387.472002 421.279995,388.055996 422.352,388.84 C423.424005,389.624004 424.295997,390.599994 424.968,391.768 C425.584003,392.838672 425.958,394.090828 426.09,395.524498 L426.12,395.92 L419.448,395.92 C418.999998,393.071986 417.320015,391.648 414.408,391.648 C413.319995,391.648 412.408004,391.895998 411.672,392.392 C410.935996,392.888002 410.336002,393.527996 409.872,394.312 C409.407998,395.096004 409.080001,395.959995 408.888,396.904 C408.695999,397.848005 408.6,398.783995 408.6,399.712 C408.6,400.608004 408.695999,401.519995 408.888,402.448 C409.080001,403.376005 409.391998,404.215996 409.824,404.968 C410.256002,405.720004 410.839996,406.335998 411.576,406.816 C412.312004,407.296002 413.207995,407.536 414.264,407.536 C415.896008,407.536 417.151996,407.080005 418.032,406.168 C418.849147,405.321139 419.383469,404.205271 419.634979,402.820369 L419.688,402.496 L426.264,402.496 C425.815998,405.792016 424.536011,408.303991 422.424,410.032 C420.311989,411.760009 417.608016,412.624 414.312,412.624 C412.455991,412.624 410.752008,412.312003 409.2,411.688 C407.647992,411.063997 406.328005,410.192006 405.24,409.072 C404.151995,407.951994 403.304003,406.616008 402.696,405.064 C402.087997,403.512 401.784,401.808009 401.784,399.952 C401.784,398.03199 402.063997,396.248008 402.624,394.6 C403.184003,392.951992 404.007995,391.528006 405.096,390.328 C406.184005,389.127994 407.511992,388.192003 409.08,387.52 C410.648008,386.847997 412.43999,386.512 414.456,386.512 Z M441.576,386.512 C443.688011,386.512 445.527992,386.919996 447.096,387.736 C448.664008,388.552004 449.951995,389.647993 450.96,391.024 C451.968005,392.400007 452.695998,393.967991 453.144,395.728 C453.592002,397.488009 453.752001,399.32799 453.624,401.248 L435.72,401.248 C435.816,403.456011 436.375995,405.055995 437.4,406.048 C438.424005,407.040005 439.89599,407.536 441.816,407.536 C443.192007,407.536 444.375995,407.192003 445.368,406.504 C446.360005,405.815997 446.967999,405.088004 447.192,404.32 L453.192,404.32 C452.231995,407.296015 450.76001,409.423994 448.776,410.704 C446.79199,411.984006 444.392014,412.624 441.576,412.624 C439.62399,412.624 437.864008,412.312003 436.296,411.688 C434.727992,411.063997 433.400005,410.176006 432.312,409.024 C431.223995,407.871994 430.384003,406.496008 429.792,404.896 C429.199997,403.295992 428.904,401.53601 428.904,399.616 C428.904,397.759991 429.207997,396.032008 429.816,394.432 C430.424003,392.831992 431.287994,391.448006 432.408,390.28 C433.528006,389.111994 434.863992,388.192003 436.416,387.52 C437.968008,386.847997 439.687991,386.512 441.576,386.512 Z M441.384,391.648 C440.295995,391.648 439.392004,391.831998 438.672,392.2 C437.951996,392.568002 437.376002,393.023997 436.944,393.568 C436.511998,394.112003 436.208001,394.687997 436.032,395.296 C435.855999,395.904003 435.752,396.447998 435.72,396.928 L435.72,396.928 L446.808,396.928 C446.487998,395.199991 445.920004,393.888004 445.104,392.992 C444.287996,392.095996 443.048008,391.648 441.384,391.648 Z" id="Marketplace" fill="#FFFFFF" fill-rule="nonzero"></path>
        <g id="cart-plus-solid" transform="translate(257.000000, 252.000000)" fill="#9013FE" fill-rule="nonzero">
            <path d="M78.8620516,49.9999894 L33.0581335,49.9999894 L34.08079,54.9999884 L76.0211134,54.9999884 C78.4275202,54.9999884 80.2111144,57.2345191 79.6778331,59.5810812 L78.8158016,63.3742053 C81.7362711,64.7918613 83.7500216,67.7856107 83.7500216,71.2499849 C83.7500216,76.1252964 79.7626768,80.0693581 74.8712693,79.9990456 C70.2114244,79.9320143 66.3790796,76.1504526 66.2532983,71.4917036 C66.1845483,68.9468604 67.2040798,66.6402984 68.8787678,64.99983 L36.1212593,64.99983 C37.742666,66.5882672 38.75001,68.800923 38.75001,71.2499849 C38.75001,76.2207651 34.6050089,80.2235768 29.5828201,79.9902956 C25.123444,79.7832644 21.4967243,76.1801401 21.2623492,71.7220161 C21.0814117,68.2792043 22.8929747,65.2446737 25.6453191,63.6617053 L14.6692225,10 L3.75000097,10 C1.67890668,10 0,8.32109199 0,6.24999868 L0,3.74999921 C0,1.67890589 1.67890668,0 3.75000097,0 L19.7701614,0 C21.5515681,0 23.0870372,1.25328098 23.4440685,2.99843687 L24.8762564,10 L86.2484598,10 C88.6548666,10 90.4384608,12.2345287 89.9051794,14.5810907 L82.5187713,47.0810838 C82.1308024,48.7884272 80.6129895,49.9999894 78.8620516,49.9999894 Z" id="Shape"></path>
        </g>
        <path d="M521.976,108.664 L521.976,87.064 L527.352,87.064 C529.208009,87.064 530.767994,87.3279974 532.032,87.856 C533.296006,88.3840026 534.311996,89.143995 535.08,90.136 C535.848004,91.128005 536.399998,92.319993 536.736,93.712 C537.072002,95.104007 537.24,96.6639914 537.24,98.392 C537.24,100.280009 537.000002,101.879993 536.52,103.192 C536.039998,104.504007 535.400004,105.567996 534.6,106.384 C533.799996,107.200004 532.888005,107.783998 531.864,108.136 C530.839995,108.488002 529.784005,108.664 528.696,108.664 L521.976,108.664 Z M514.44,80.728 L514.44,115 L529.224,115 C531.848013,115 534.12799,114.560004 536.064,113.68 C538.00001,112.799996 539.615994,111.592008 540.912,110.056 C542.208006,108.519992 543.175997,106.696011 543.816,104.584 C544.456003,102.471989 544.776,100.168012 544.776,97.672 C544.776,94.8239858 544.384004,92.3440106 543.6,90.232 C542.815996,88.1199894 541.728007,86.360007 540.336,84.952 C538.943993,83.543993 537.29601,82.4880035 535.392,81.784 C533.48799,81.0799965 531.432011,80.728 529.224,80.728 L514.44,80.728 Z M556.296,86.344 L556.296,80.728 L549.48,80.728 L549.48,86.344 L556.296,86.344 Z M549.48,90.184 L549.48,115 L556.296,115 L556.296,90.184 L549.48,90.184 Z M566.952,106.936 L560.472,106.936 C560.536,108.600008 560.911997,109.983994 561.6,111.088 C562.288003,112.192006 563.167995,113.079997 564.24,113.752 C565.312005,114.424003 566.535993,114.903999 567.912,115.192 C569.288007,115.480001 570.695993,115.624 572.136,115.624 C573.544007,115.624 574.927993,115.488001 576.288,115.216 C577.648007,114.943999 578.855995,114.472003 579.912,113.8 C580.968005,113.127997 581.823997,112.240006 582.48,111.136 C583.136003,110.031994 583.464,108.664008 583.464,107.032 C583.464,105.879994 583.240002,104.912004 582.792,104.128 C582.343998,103.343996 581.752004,102.688003 581.016,102.16 C580.279996,101.631997 579.440005,101.208002 578.496,100.888 C577.551995,100.567998 576.584005,100.296001 575.592,100.072 C574.631995,99.8479989 573.688005,99.640001 572.76,99.448 C571.831995,99.255999 571.008004,99.0400012 570.288,98.8 C569.567996,98.5599988 568.984002,98.2480019 568.536,97.864 C568.087998,97.4799981 567.864,96.984003 567.864,96.376 C567.864,95.8639974 567.991999,95.4560015 568.248,95.152 C568.504001,94.8479985 568.815998,94.6160008 569.184,94.456 C569.552002,94.2959992 569.959998,94.1920002 570.408,94.144 C570.856002,94.0959998 571.271998,94.072 571.656,94.072 C572.872006,94.072 573.927996,94.3039977 574.824,94.768 C575.720004,95.2320023 576.216,96.1199934 576.312,97.432 L582.792,97.432 C582.663999,95.8959923 582.272003,94.624005 581.616,93.616 C580.959997,92.607995 580.136005,91.800003 579.144,91.192 C578.151995,90.583997 577.024006,90.1520013 575.76,89.896 C574.495994,89.6399987 573.192007,89.512 571.848,89.512 C570.503993,89.512 569.192006,89.6319988 567.912,89.872 C566.631994,90.1120012 565.480005,90.527997 564.456,91.12 C563.431995,91.712003 562.608003,92.5199949 561.984,93.544 C561.359997,94.5680051 561.048,95.879992 561.048,97.48 C561.048,98.5680054 561.271998,99.4879962 561.72,100.24 C562.168002,100.992004 562.759996,101.615998 563.496,102.112 C564.232004,102.608002 565.071995,103.007998 566.016,103.312 C566.960005,103.616002 567.927995,103.879999 568.92,104.104 C571.352012,104.616003 573.247993,105.127997 574.608,105.64 C575.968007,106.152003 576.648,106.919995 576.648,107.944 C576.648,108.552003 576.504001,109.055998 576.216,109.456 C575.927999,109.856002 575.568002,110.175999 575.136,110.416 C574.703998,110.656001 574.224003,110.831999 573.696,110.944 C573.167997,111.056001 572.664002,111.112 572.184,111.112 C571.511997,111.112 570.864003,111.032001 570.24,110.872 C569.615997,110.711999 569.064002,110.464002 568.584,110.128 C568.103998,109.791998 567.712002,109.360003 567.408,108.832 C567.103998,108.303997 566.952,107.672004 566.952,106.936 Z M599.976,110.536 C598.887995,110.536 597.960004,110.312002 597.192,109.864 C596.423996,109.415998 595.808002,108.832004 595.344,108.112 C594.879998,107.391996 594.544001,106.552005 594.336,105.592 C594.127999,104.631995 594.024,103.656005 594.024,102.664 C594.024,101.639995 594.119999,100.648 594.312,99.688 C594.504001,98.7279952 594.831998,97.8800037 595.296,97.144 C595.760002,96.4079963 596.367996,95.8080023 597.12,95.344 C597.872004,94.8799977 598.807994,94.648 599.928,94.648 C601.016005,94.648 601.935996,94.8799977 602.688,95.344 C603.440004,95.8080023 604.055998,96.4159962 604.536,97.168 C605.016002,97.9200038 605.359999,98.7759952 605.568,99.736 C605.776001,100.696005 605.88,101.671995 605.88,102.664 C605.88,103.656005 605.784001,104.631995 605.592,105.592 C605.399999,106.552005 605.072002,107.391996 604.608,108.112 C604.143998,108.832004 603.536004,109.415998 602.784,109.864 C602.031996,110.312002 601.096006,110.536 599.976,110.536 Z M587.448,90.184 L587.448,123.688 L594.264,123.688 L594.264,111.928 L594.36,111.928 C595.192004,113.144006 596.255994,114.063997 597.552,114.688 C598.848006,115.312003 600.263992,115.624 601.8,115.624 C603.624009,115.624 605.215993,115.272004 606.576,114.568 C607.936007,113.863996 609.071995,112.920006 609.984,111.736 C610.896005,110.551994 611.575998,109.192008 612.024,107.656 C612.472002,106.119992 612.696,104.520008 612.696,102.856 C612.696,101.095991 612.472002,99.4080081 612.024,97.792 C611.575998,96.1759919 610.888005,94.7600061 609.96,93.544 C609.031995,92.3279939 607.864007,91.3520037 606.456,90.616 C605.047993,89.8799963 603.36801,89.512 601.416,89.512 C599.879992,89.512 598.472006,89.815997 597.192,90.424 C595.911994,91.032003 594.856004,92.0079933 594.024,93.352 L593.928,93.352 L593.928,90.184 L587.448,90.184 Z M640.056,115 L640.056,90.184 L633.24,90.184 L633.24,103.192 C633.24,105.720013 632.824004,107.535994 631.992,108.64 C631.159996,109.744006 629.816009,110.296 627.96,110.296 C626.327992,110.296 625.192003,109.792005 624.552,108.784 C623.911997,107.775995 623.592,106.24801 623.592,104.2 L623.592,90.184 L616.776,90.184 L616.776,105.448 C616.776,106.984008 616.911999,108.383994 617.184,109.648 C617.456001,110.912006 617.927997,111.983996 618.6,112.864 C619.272003,113.744004 620.191994,114.423998 621.36,114.904 C622.528006,115.384002 624.023991,115.624 625.848,115.624 C627.288007,115.624 628.695993,115.304003 630.072,114.664 C631.448007,114.023997 632.567996,112.984007 633.432,111.544 L633.576,111.544 L633.576,115 L640.056,115 Z M653.88,90.184 L653.88,82.744 L647.064,82.744 L647.064,90.184 L642.936,90.184 L642.936,94.744 L647.064,94.744 L647.064,109.384 C647.064,110.632006 647.271998,111.639996 647.688,112.408 C648.104002,113.176004 648.671996,113.767998 649.392,114.184 C650.112004,114.600002 650.943995,114.879999 651.888,115.024 C652.832005,115.168001 653.831995,115.24 654.888,115.24 C655.560003,115.24 656.247996,115.224 656.952,115.192 C657.656004,115.16 658.295997,115.096 658.872,115 L658.872,109.72 C658.551998,109.784 658.216002,109.832 657.864,109.864 C657.511998,109.896 657.144002,109.912 656.76,109.912 C655.607994,109.912 654.840002,109.720002 654.456,109.336 C654.071998,108.951998 653.88,108.184006 653.88,107.032 L653.88,94.744 L658.872,94.744 L658.872,90.184 L653.88,90.184 Z M678.84,99.928 L667.752,99.928 C667.784,99.4479976 667.887999,98.904003 668.064,98.296 C668.240001,97.687997 668.543998,97.1120027 668.976,96.568 C669.408002,96.0239973 669.983996,95.5680018 670.704,95.2 C671.424004,94.8319982 672.327995,94.648 673.416,94.648 C675.080008,94.648 676.319996,95.0959955 677.136,95.992 C677.952004,96.8880045 678.519998,98.1999914 678.84,99.928 Z M667.752,104.248 L685.656,104.248 C685.784001,102.32799 685.624002,100.488009 685.176,98.728 C684.727998,96.9679912 684.000005,95.4000069 682.992,94.024 C681.983995,92.6479931 680.696008,91.5520041 679.128,90.736 C677.559992,89.9199959 675.720011,89.512 673.608,89.512 C671.719991,89.512 670.000008,89.8479966 668.448,90.52 C666.895992,91.1920034 665.560006,92.1119942 664.44,93.28 C663.319994,94.4480058 662.456003,95.831992 661.848,97.432 C661.239997,99.032008 660.936,100.759991 660.936,102.616 C660.936,104.53601 661.231997,106.295992 661.824,107.896 C662.416003,109.496008 663.255995,110.871994 664.344,112.024 C665.432005,113.176006 666.759992,114.063997 668.328,114.688 C669.896008,115.312003 671.65599,115.624 673.608,115.624 C676.424014,115.624 678.82399,114.984006 680.808,113.704 C682.79201,112.423994 684.263995,110.296015 685.224,107.32 L679.224,107.32 C678.999999,108.088004 678.392005,108.815997 677.4,109.504 C676.407995,110.192003 675.224007,110.536 673.848,110.536 C671.92799,110.536 670.456005,110.040005 669.432,109.048 C668.407995,108.055995 667.848,106.456011 667.752,104.248 Z M694.968,106.936 C694.968,107.672004 695.119998,108.303997 695.424,108.832 C695.728002,109.360003 696.119998,109.791998 696.6,110.128 C697.080002,110.464002 697.631997,110.711999 698.256,110.872 C698.880003,111.032001 699.527997,111.112 700.2,111.112 C700.680002,111.112 701.183997,111.056001 701.712,110.944 C702.240003,110.831999 702.719998,110.656001 703.152,110.416 C703.584002,110.175999 703.943999,109.856002 704.232,109.456 C704.520001,109.055998 704.664,108.552003 704.664,107.944 C704.664,106.919995 703.984007,106.152003 702.624,105.64 C701.263993,105.127997 699.368012,104.616003 696.936,104.104 C695.943995,103.879999 694.976005,103.616002 694.032,103.312 C693.087995,103.007998 692.248004,102.608002 691.512,102.112 C690.775996,101.615998 690.184002,100.992004 689.736,100.24 C689.287998,99.4879962 689.064,98.5680054 689.064,97.48 C689.064,95.879992 689.375997,94.5680051 690,93.544 C690.624003,92.5199949 691.447995,91.712003 692.472,91.12 C693.496005,90.527997 694.647994,90.1120012 695.928,89.872 C697.208006,89.6319988 698.519993,89.512 699.864,89.512 C701.208007,89.512 702.511994,89.6399987 703.776,89.896 C705.040006,90.1520013 706.167995,90.583997 707.16,91.192 C708.152005,91.800003 708.975997,92.607995 709.632,93.616 C710.288003,94.624005 710.679999,95.8959923 710.808,97.432 L704.328,97.432 C704.232,96.1199934 703.736004,95.2320023 702.84,94.768 C701.943996,94.3039977 700.888006,94.072 699.672,94.072 C699.287998,94.072 698.872002,94.0959998 698.424,94.144 C697.975998,94.1920002 697.568002,94.2959992 697.2,94.456 C696.831998,94.6160008 696.520001,94.8479985 696.264,95.152 C696.007999,95.4560015 695.88,95.8639974 695.88,96.376 C695.88,96.984003 696.103998,97.4799981 696.552,97.864 C697.000002,98.2480019 697.583996,98.5599988 698.304,98.8 C699.024004,99.0400012 699.847995,99.255999 700.776,99.448 C701.704005,99.640001 702.647995,99.8479989 703.608,100.072 C704.600005,100.296001 705.567995,100.567998 706.512,100.888 C707.456005,101.208002 708.295996,101.631997 709.032,102.16 C709.768004,102.688003 710.359998,103.343996 710.808,104.128 C711.256002,104.912004 711.48,105.879994 711.48,107.032 C711.48,108.664008 711.152003,110.031994 710.496,111.136 C709.839997,112.240006 708.984005,113.127997 707.928,113.8 C706.871995,114.472003 705.664007,114.943999 704.304,115.216 C702.943993,115.488001 701.560007,115.624 700.152,115.624 C698.711993,115.624 697.304007,115.480001 695.928,115.192 C694.551993,114.903999 693.328005,114.424003 692.256,113.752 C691.183995,113.079997 690.304003,112.192006 689.616,111.088 C688.927997,109.983994 688.552,108.600008 688.488,106.936 L694.968,106.936 Z" id="Disputes" fill="#FFFFFF" fill-rule="nonzero"></path>
        <path d="M510.456,684.664 L510.456,663.064 L515.832,663.064 C517.688009,663.064 519.247994,663.327997 520.512,663.856 C521.776006,664.384003 522.791996,665.143995 523.56,666.136 C524.328004,667.128005 524.879998,668.319993 525.216,669.712 C525.552002,671.104007 525.72,672.663991 525.72,674.392 C525.72,676.280009 525.480002,677.879993 525,679.192 C524.519998,680.504007 523.880004,681.567996 523.08,682.384 C522.279996,683.200004 521.368005,683.783998 520.344,684.136 C519.319995,684.488002 518.264005,684.664 517.176,684.664 L510.456,684.664 Z M502.92,656.728 L502.92,691 L517.704,691 C520.328013,691 522.60799,690.560004 524.544,689.68 C526.48001,688.799996 528.095994,687.592008 529.392,686.056 C530.688006,684.519992 531.655997,682.696011 532.296,680.584 C532.936003,678.471989 533.256,676.168012 533.256,673.672 C533.256,670.823986 532.864004,668.344011 532.08,666.232 C531.295996,664.119989 530.208007,662.360007 528.816,660.952 C527.423993,659.543993 525.77601,658.488004 523.872,657.784 C521.96799,657.079996 519.912011,656.728 517.704,656.728 L502.92,656.728 Z M554.472,675.928 L543.384,675.928 C543.416,675.447998 543.519999,674.904003 543.696,674.296 C543.872001,673.687997 544.175998,673.112003 544.608,672.568 C545.040002,672.023997 545.615996,671.568002 546.336,671.2 C547.056004,670.831998 547.959995,670.648 549.048,670.648 C550.712008,670.648 551.951996,671.095996 552.768,671.992 C553.584004,672.888004 554.151998,674.199991 554.472,675.928 Z M543.384,680.248 L561.288,680.248 C561.416001,678.32799 561.256002,676.488009 560.808,674.728 C560.359998,672.967991 559.632005,671.400007 558.624,670.024 C557.615995,668.647993 556.328008,667.552004 554.76,666.736 C553.191992,665.919996 551.352011,665.512 549.24,665.512 C547.351991,665.512 545.632008,665.847997 544.08,666.52 C542.527992,667.192003 541.192006,668.111994 540.072,669.28 C538.951994,670.448006 538.088003,671.831992 537.48,673.432 C536.871997,675.032008 536.568,676.759991 536.568,678.616 C536.568,680.53601 536.863997,682.295992 537.456,683.896 C538.048003,685.496008 538.887995,686.871994 539.976,688.024 C541.064005,689.176006 542.391992,690.063997 543.96,690.688 C545.528008,691.312003 547.28799,691.624 549.24,691.624 C552.056014,691.624 554.45599,690.984006 556.44,689.704 C558.42401,688.423994 559.895995,686.296015 560.856,683.32 L554.856,683.32 C554.631999,684.088004 554.024005,684.815997 553.032,685.504 C552.039995,686.192003 550.856007,686.536 549.48,686.536 C547.55999,686.536 546.088005,686.040005 545.064,685.048 C544.039995,684.055995 543.48,682.456011 543.384,680.248 Z M582.216,674.92 L588.888,674.92 C588.792,673.319992 588.408003,671.936006 587.736,670.768 C587.063997,669.599994 586.192005,668.624004 585.12,667.84 C584.047995,667.055996 582.832007,666.472002 581.472,666.088 C580.111993,665.703998 578.696007,665.512 577.224,665.512 C575.20799,665.512 573.416008,665.847997 571.848,666.52 C570.279992,667.192003 568.952005,668.127994 567.864,669.328 C566.775995,670.528006 565.952003,671.951992 565.392,673.6 C564.831997,675.248008 564.552,677.03199 564.552,678.952 C564.552,680.808009 564.855997,682.512 565.464,684.064 C566.072003,685.616008 566.919995,686.951994 568.008,688.072 C569.096005,689.192006 570.415992,690.063997 571.968,690.688 C573.520008,691.312003 575.223991,691.624 577.08,691.624 C580.376016,691.624 583.079989,690.760009 585.192,689.032 C587.304011,687.303991 588.583998,684.792016 589.032,681.496 L582.456,681.496 C582.231999,683.032008 581.680004,684.255995 580.8,685.168 C579.919996,686.080005 578.664008,686.536 577.032,686.536 C575.975995,686.536 575.080004,686.296002 574.344,685.816 C573.607996,685.335998 573.024002,684.720004 572.592,683.968 C572.159998,683.215996 571.848001,682.376005 571.656,681.448 C571.463999,680.519995 571.368,679.608004 571.368,678.712 C571.368,677.783995 571.463999,676.848005 571.656,675.904 C571.848001,674.959995 572.175998,674.096004 572.64,673.312 C573.104002,672.527996 573.703996,671.888002 574.44,671.392 C575.176004,670.895998 576.087995,670.648 577.176,670.648 C580.088015,670.648 581.767998,672.071986 582.216,674.92 Z M599.88,662.344 L599.88,656.728 L593.064,656.728 L593.064,662.344 L599.88,662.344 Z M593.064,666.184 L593.064,691 L599.88,691 L599.88,666.184 L593.064,666.184 Z M610.536,682.936 L604.056,682.936 C604.12,684.600008 604.495997,685.983994 605.184,687.088 C605.872003,688.192006 606.751995,689.079997 607.824,689.752 C608.896005,690.424003 610.119993,690.903999 611.496,691.192 C612.872007,691.480001 614.279993,691.624 615.72,691.624 C617.128007,691.624 618.511993,691.488001 619.872,691.216 C621.232007,690.943999 622.439995,690.472003 623.496,689.8 C624.552005,689.127997 625.407997,688.240006 626.064,687.136 C626.720003,686.031994 627.048,684.664008 627.048,683.032 C627.048,681.879994 626.824002,680.912004 626.376,680.128 C625.927998,679.343996 625.336004,678.688003 624.6,678.16 C623.863996,677.631997 623.024005,677.208002 622.08,676.888 C621.135995,676.567998 620.168005,676.296001 619.176,676.072 C618.215995,675.847999 617.272005,675.640001 616.344,675.448 C615.415995,675.255999 614.592004,675.040001 613.872,674.8 C613.151996,674.559999 612.568002,674.248002 612.12,673.864 C611.671998,673.479998 611.448,672.984003 611.448,672.376 C611.448,671.863997 611.575999,671.456002 611.832,671.152 C612.088001,670.847998 612.399998,670.616001 612.768,670.456 C613.136002,670.295999 613.543998,670.192 613.992,670.144 C614.440002,670.096 614.855998,670.072 615.24,670.072 C616.456006,670.072 617.511996,670.303998 618.408,670.768 C619.304004,671.232002 619.8,672.119993 619.896,673.432 L626.376,673.432 C626.247999,671.895992 625.856003,670.624005 625.2,669.616 C624.543997,668.607995 623.720005,667.800003 622.728,667.192 C621.735995,666.583997 620.608006,666.152001 619.344,665.896 C618.079994,665.639999 616.776007,665.512 615.432,665.512 C614.087993,665.512 612.776006,665.631999 611.496,665.872 C610.215994,666.112001 609.064005,666.527997 608.04,667.12 C607.015995,667.712003 606.192003,668.519995 605.568,669.544 C604.943997,670.568005 604.632,671.879992 604.632,673.48 C604.632,674.568005 604.855998,675.487996 605.304,676.24 C605.752002,676.992004 606.343996,677.615998 607.08,678.112 C607.816004,678.608002 608.655995,679.007998 609.6,679.312 C610.544005,679.616002 611.511995,679.879999 612.504,680.104 C614.936012,680.616003 616.831993,681.127997 618.192,681.64 C619.552007,682.152003 620.232,682.919995 620.232,683.944 C620.232,684.552003 620.088001,685.055998 619.8,685.456 C619.511999,685.856002 619.152002,686.175999 618.72,686.416 C618.287998,686.656001 617.808003,686.831999 617.28,686.944 C616.751997,687.056001 616.248002,687.112 615.768,687.112 C615.095997,687.112 614.448003,687.032001 613.824,686.872 C613.199997,686.711999 612.648002,686.464002 612.168,686.128 C611.687998,685.791998 611.296002,685.360003 610.992,684.832 C610.687998,684.303997 610.536,683.672004 610.536,682.936 Z M638.04,662.344 L638.04,656.728 L631.224,656.728 L631.224,662.344 L638.04,662.344 Z M631.224,666.184 L631.224,691 L638.04,691 L638.04,666.184 L631.224,666.184 Z M649.464,678.616 C649.464,677.623995 649.559999,676.648 649.752,675.688 C649.944001,674.727995 650.271998,673.880004 650.736,673.144 C651.200002,672.407996 651.815996,671.808002 652.584,671.344 C653.352004,670.879998 654.311994,670.648 655.464,670.648 C656.616006,670.648 657.583996,670.879998 658.368,671.344 C659.152004,671.808002 659.775998,672.407996 660.24,673.144 C660.704002,673.880004 661.031999,674.727995 661.224,675.688 C661.416001,676.648 661.512,677.623995 661.512,678.616 C661.512,679.608005 661.416001,680.575995 661.224,681.52 C661.031999,682.464005 660.704002,683.311996 660.24,684.064 C659.775998,684.816004 659.152004,685.415998 658.368,685.864 C657.583996,686.312002 656.616006,686.536 655.464,686.536 C654.311994,686.536 653.352004,686.312002 652.584,685.864 C651.815996,685.415998 651.200002,684.816004 650.736,684.064 C650.271998,683.311996 649.944001,682.464005 649.752,681.52 C649.559999,680.575995 649.464,679.608005 649.464,678.616 Z M642.648,678.616 C642.648,680.60001 642.951997,682.391992 643.56,683.992 C644.168003,685.592008 645.031994,686.959994 646.152,688.096 C647.272006,689.232006 648.615992,690.103997 650.184,690.712 C651.752008,691.320003 653.51199,691.624 655.464,691.624 C657.41601,691.624 659.183992,691.320003 660.768,690.712 C662.352008,690.103997 663.703994,689.232006 664.824,688.096 C665.944006,686.959994 666.807997,685.592008 667.416,683.992 C668.024003,682.391992 668.328,680.60001 668.328,678.616 C668.328,676.63199 668.024003,674.832008 667.416,673.216 C666.807997,671.599992 665.944006,670.224006 664.824,669.088 C663.703994,667.951994 662.352008,667.072003 660.768,666.448 C659.183992,665.823997 657.41601,665.512 655.464,665.512 C653.51199,665.512 651.752008,665.823997 650.184,666.448 C648.615992,667.072003 647.272006,667.951994 646.152,669.088 C645.031994,670.224006 644.168003,671.599992 643.56,673.216 C642.951997,674.832008 642.648,676.63199 642.648,678.616 Z M672.744,666.184 L672.744,691 L679.56,691 L679.56,677.992 C679.56,675.463987 679.975996,673.648006 680.808,672.544 C681.640004,671.439994 682.983991,670.888 684.84,670.888 C686.472008,670.888 687.607997,671.391995 688.248,672.4 C688.888003,673.408005 689.208,674.93599 689.208,676.984 L689.208,691 L696.024,691 L696.024,675.736 C696.024,674.199992 695.888001,672.800006 695.616,671.536 C695.343999,670.271994 694.872003,669.200004 694.2,668.32 C693.527997,667.439996 692.608006,666.752002 691.44,666.256 C690.271994,665.759998 688.776009,665.512 686.952,665.512 C685.511993,665.512 684.104007,665.839997 682.728,666.496 C681.351993,667.152003 680.232004,668.199993 679.368,669.64 L679.224,669.64 L679.224,666.184 L672.744,666.184 Z M706.488,682.936 C706.488,683.672004 706.639998,684.303997 706.944,684.832 C707.248002,685.360003 707.639998,685.791998 708.12,686.128 C708.600002,686.464002 709.151997,686.711999 709.776,686.872 C710.400003,687.032001 711.047997,687.112 711.72,687.112 C712.200002,687.112 712.703997,687.056001 713.232,686.944 C713.760003,686.831999 714.239998,686.656001 714.672,686.416 C715.104002,686.175999 715.463999,685.856002 715.752,685.456 C716.040001,685.055998 716.184,684.552003 716.184,683.944 C716.184,682.919995 715.504007,682.152003 714.144,681.64 C712.783993,681.127997 710.888012,680.616003 708.456,680.104 C707.463995,679.879999 706.496005,679.616002 705.552,679.312 C704.607995,679.007998 703.768004,678.608002 703.032,678.112 C702.295996,677.615998 701.704002,676.992004 701.256,676.24 C700.807998,675.487996 700.584,674.568005 700.584,673.48 C700.584,671.879992 700.895997,670.568005 701.52,669.544 C702.144003,668.519995 702.967995,667.712003 703.992,667.12 C705.016005,666.527997 706.167994,666.112001 707.448,665.872 C708.728006,665.631999 710.039993,665.512 711.384,665.512 C712.728007,665.512 714.031994,665.639999 715.296,665.896 C716.560006,666.152001 717.687995,666.583997 718.68,667.192 C719.672005,667.800003 720.495997,668.607995 721.152,669.616 C721.808003,670.624005 722.199999,671.895992 722.328,673.432 L715.848,673.432 C715.752,672.119993 715.256004,671.232002 714.36,670.768 C713.463996,670.303998 712.408006,670.072 711.192,670.072 C710.807998,670.072 710.392002,670.096 709.944,670.144 C709.495998,670.192 709.088002,670.295999 708.72,670.456 C708.351998,670.616001 708.040001,670.847998 707.784,671.152 C707.527999,671.456002 707.4,671.863997 707.4,672.376 C707.4,672.984003 707.623998,673.479998 708.072,673.864 C708.520002,674.248002 709.103996,674.559999 709.824,674.8 C710.544004,675.040001 711.367995,675.255999 712.296,675.448 C713.224005,675.640001 714.167995,675.847999 715.128,676.072 C716.120005,676.296001 717.087995,676.567998 718.032,676.888 C718.976005,677.208002 719.815996,677.631997 720.552,678.16 C721.288004,678.688003 721.879998,679.343996 722.328,680.128 C722.776002,680.912004 723,681.879994 723,683.032 C723,684.664008 722.672003,686.031994 722.016,687.136 C721.359997,688.240006 720.504005,689.127997 719.448,689.8 C718.391995,690.472003 717.184007,690.943999 715.824,691.216 C714.463993,691.488001 713.080007,691.624 711.672,691.624 C710.231993,691.624 708.824007,691.480001 707.448,691.192 C706.071993,690.903999 704.848005,690.424003 703.776,689.752 C702.703995,689.079997 701.824003,688.192006 701.136,687.088 C700.447997,685.983994 700.072,684.600008 700.008,682.936 L706.488,682.936 Z" id="Decisions" fill="#FFFFFF" fill-rule="nonzero"></path>
        <circle id="Oval" fill="#9013FE" cx="1017.5" cy="196.5" r="10.5"></circle>
        <circle id="Oval" fill="#9013FE" cx="705.5" cy="384.5" r="10.5"></circle>
        <circle id="Oval" fill="#9013FE" cx="996.5" cy="554.5" r="10.5"></circle>
        <polygon id="Path-17" fill="#FFFFFF" fill-rule="nonzero" points="895.461373 48 896.144 83.028 906.142645 82.8330646 894.612925 107.0625 882.147209 83.3010622 892.145 83.106 891.538627 52 314 52 314 107.0625 310 107.0625 310 48"></polygon>
        <polygon id="Path-17" fill="#FFFFFF" fill-rule="nonzero" transform="translate(608.071323, 702.531250) scale(-1, -1) translate(-608.071323, -702.531250) " points="895.461373 673 896.144 708.028 906.142645 707.833065 894.612925 732.0625 882.147209 708.301062 892.145 708.106 891.538627 677 314 677 314 732.0625 310 732.0625 310 673"></polygon>
    </g>
</svg>