<?xml version="1.0" encoding="UTF-8"?>
<svg width="1200px" height="790px" viewBox="0 0 1200 790" version="1.1" xmlns="http://www.w3.org/2000/svg" xmlns:xlink="http://www.w3.org/1999/xlink">
    <!-- Generator: Sketch 58 (84663) - https://sketch.com -->
    <title>website-integrations4</title>
    <desc>Created with Sketch.</desc>
    <defs>
        <linearGradient x1="50%" y1="0%" x2="50%" y2="100%" id="linearGradient1">
            <stop stop-color="#8400DB" offset="0%"></stop>
            <stop stop-color="#4D00B4" offset="100%"></stop>
        </linearGradient>
        <linearGradient x1="0%" y1="49.9999777%" x2="100.000024%" y2="49.9999777%" id="linearGradient2">
            <stop stop-color="#A3A2A5" offset="0%"></stop>
            <stop stop-color="#9F9EA0" offset="27.05%"></stop>
            <stop stop-color="#929194" offset="56.07%"></stop>
            <stop stop-color="#7C7C80" offset="85.92%"></stop>
            <stop stop-color="#707073" offset="100%"></stop>
        </linearGradient>
        <linearGradient x1="-0.661193461%" y1="79.9148322%" x2="70.3915924%" y2="24.2689758%" id="linearGradient3">
            <stop stop-color="#969598" offset="0%"></stop>
            <stop stop-color="#908F92" offset="33.96%"></stop>
            <stop stop-color="#7F7F82" offset="79.17%"></stop>
            <stop stop-color="#757578" offset="100%"></stop>
        </linearGradient>
        <linearGradient x1="6.06021085%" y1="-2.83492963%" x2="50.00952%" y2="85.0511445%" id="linearGradient4">
            <stop stop-color="#9E9EA0" offset="0%"></stop>
            <stop stop-color="#9B9B9D" offset="27.59%"></stop>
            <stop stop-color="#919194" offset="49.4%"></stop>
            <stop stop-color="#808083" offset="69.23%"></stop>
            <stop stop-color="#69696D" offset="87.77%"></stop>
            <stop stop-color="#55565A" offset="100%"></stop>
        </linearGradient>
    </defs>
    <g id="website-integrations4" stroke="none" stroke-width="1" fill="none" fill-rule="evenodd">
        <path d="M312.5,646 C450.84733,646 563,533.84733 563,395.5 C563,257.15267 450.84733,145 312.5,145 C174.15267,145 62,257.15267 62,395.5 C62,533.84733 174.15267,646 312.5,646 Z M312.5,640 C177.466379,640 68,530.533621 68,395.5 C68,260.466379 177.466379,151 312.5,151 C447.533621,151 557,260.466379 557,395.5 C557,530.533621 447.533621,640 312.5,640 Z" id="Oval" fill="#9013FE" fill-rule="nonzero"></path>
        <circle id="Oval" fill="url(#linearGradient1)" cx="312.5" cy="395.5" r="244.5"></circle>
        <g id="Group-2" transform="translate(758.000000, 261.000000)">
            <circle id="Oval" fill="#FFFFFF" cx="135" cy="135" r="135"></circle>
            <g id="kleros-symbol" transform="translate(51.000000, 60.000000)" fill-rule="nonzero">
                <polygon id="Path" fill="#45464D" opacity="0.7" points="133.381411 3.77718897 49.0824928 0 0 61.5574073 34.3923467 143.824633 119.534475 149 168 79.7930126"></polygon>
                <g id="Group">
                    <polygon id="Path" fill="#656569" points="167.847575 79.7154168 119.890532 30.9128112 107.277449 124.531491"></polygon>
                    <polygon id="Path" fill="url(#linearGradient2)" points="32.7506551 68.7388056 119.890532 30.9128112 107.277449 124.531491"></polygon>
                    <polygon id="Path" fill="url(#linearGradient3)" points="119.890532 30.9128112 49.0898492 0.0698111888 32.7506551 68.7388056"></polygon>
                    <polygon id="Path" fill="url(#linearGradient4)" points="32.7506551 68.7388056 34.4194413 143.629331 107.277449 124.531491"></polygon>
                    <polygon id="Path" fill="#757578" points="119.890532 30.9128112 133.275501 3.84003217 49.0898492 0.0698111888"></polygon>
                    <polygon id="Path" fill="#6C6D70" points="133.275501 3.84003217 167.847575 79.7154168 119.890532 30.9128112"></polygon>
                    <polygon id="Path" fill="#6C6D70" points="167.847575 79.7154168 119.447169 148.794734 107.277449 124.531491"></polygon>
                    <polygon id="Path" fill="#55565A" points="119.447169 148.794734 34.4194413 143.629331 107.277449 124.531491"></polygon>
                    <polygon id="Path" fill="#55565A" points="49.0898492 0.0698111888 0.0733053152 61.5134517 32.7506551 68.7388056"></polygon>
                    <polygon id="Path" fill="#656569" points="0.0733053152 61.5134517 34.4194413 143.629331 32.7506551 68.7388056"></polygon>
                    <polygon id="Path" fill="#151A22" opacity="0.7" points="110.972618 43.8064168 102.140262 110.92206 50.0835204 70.5143021"></polygon>
                    <polygon id="Path" fill="#151A22" opacity="0.7" points="103.923263 30.4235077 55.2628628 9.38866713 45.0412361 53.614993"></polygon>
                    <polygon id="Path" fill="#23262E" opacity="0.7" points="91.5896959 121.089695 38.7052064 83.1778434 39.9842077 134.550126"></polygon>
                    <polygon id="Path" fill="#23262E" opacity="0.7" points="158.961642 79.5478699 122.923461 42.8348951 113.411214 113.432971"></polygon>
                    <polygon id="Path" fill="#43444B" opacity="0.7" points="103.988885 129.346796 111.838368 144.42247 59.3874808 141.050694"></polygon>
                    <polygon id="Path" fill="#34363D" opacity="0.7" points="151.918517 96.2048196 112.876895 125.404027 120.634591 140.624533"></polygon>
                    <polygon id="Path" fill="#34363D" opacity="0.7" points="133.451392 14.4413301 154.093795 58.8747972 125.868756 30.0698671"></polygon>
                    <polygon id="Path" fill="#36383F" opacity="0.7" points="124.003728 6.96236364 115.323797 22.8964028 74.4391595 4.94284056"></polygon>
                    <polygon id="Path" fill="#3B3C43" opacity="0.7" points="42.1401731 14.1900098 30.6345612 63.136614 7.42335723 58.2006503"></polygon>
                    <polygon id="Path" fill="#45464D" opacity="0.7" points="29.2346996 71.7694448 30.2474759 124.369779 5.91177256 66.8122252"></polygon>
                </g>
            </g>
        </g>
        <path d="M893.5,585 C998.15796,585 1083,500.15796 1083,395.5 C1083,290.84204 998.15796,206 893.5,206 C788.84204,206 704,290.84204 704,395.5 C704,500.15796 788.84204,585 893.5,585 Z M893.5,583 C789.946609,583 706,499.053391 706,395.5 C706,291.946609 789.946609,208 893.5,208 C997.053391,208 1081,291.946609 1081,395.5 C1081,499.053391 997.053391,583 893.5,583 Z" id="Oval" fill="#9013FE" fill-rule="nonzero"></path>
        <path d="M893.5,632 C1024.11534,632 1130,526.115343 1130,395.5 C1130,264.884657 1024.11534,159 893.5,159 C762.884657,159 657,264.884657 657,395.5 C657,526.115343 762.884657,632 893.5,632 Z M893.5,630 C763.989226,630 659,525.010774 659,395.5 C659,265.989226 763.989226,161 893.5,161 C1023.01077,161 1128,265.989226 1128,395.5 C1128,525.010774 1023.01077,630 893.5,630 Z" id="Oval" fill="#9013FE" fill-rule="nonzero"></path>
        <path d="M246.576,361.248 L253.872,361.248 C253.647999,359.26399 253.104004,357.504008 252.24,355.968 C251.375996,354.431992 250.280007,353.144005 248.952,352.104 C247.623993,351.063995 246.120008,350.272003 244.44,349.728 C242.759992,349.183997 240.976009,348.912 239.088,348.912 C236.463987,348.912 234.10401,349.375995 232.008,350.304 C229.91199,351.232005 228.144007,352.511992 226.704,354.144 C225.263993,355.776008 224.160004,357.687989 223.392,359.88 C222.623996,362.072011 222.24,364.447987 222.24,367.008 C222.24,369.504012 222.623996,371.831989 223.392,373.992 C224.160004,376.152011 225.263993,378.031992 226.704,379.632 C228.144007,381.232008 229.91199,382.487995 232.008,383.4 C234.10401,384.312005 236.463987,384.768 239.088,384.768 C241.200011,384.768 243.135991,384.448003 244.896,383.808 C246.656009,383.167997 248.191993,382.240006 249.504,381.024 C250.816007,379.807994 251.871996,378.336009 252.672,376.608 C253.472004,374.879991 253.967999,372.944011 254.16,370.8 L246.864,370.8 C246.575999,373.104012 245.784006,374.959993 244.488,376.368 C243.191994,377.776007 241.392012,378.48 239.088,378.48 C237.391992,378.48 235.952006,378.152003 234.768,377.496 C233.583994,376.839997 232.624004,375.968005 231.888,374.88 C231.151996,373.791995 230.616002,372.568007 230.28,371.208 C229.943998,369.847993 229.776,368.448007 229.776,367.008 C229.776,365.503992 229.943998,364.048007 230.28,362.64 C230.616002,361.231993 231.151996,359.976006 231.888,358.872 C232.624004,357.767994 233.583994,356.888003 234.768,356.232 C235.952006,355.575997 237.391992,355.248 239.088,355.248 C240.016005,355.248 240.903996,355.399998 241.752,355.704 C242.600004,356.008002 243.359997,356.431997 244.032,356.976 C244.704003,357.520003 245.263998,358.151996 245.712,358.872 C246.160002,359.592004 246.447999,360.383996 246.576,361.248 Z M264.624,371.616 C264.624,370.623995 264.719999,369.648 264.912,368.688 C265.104001,367.727995 265.431998,366.880004 265.896,366.144 C266.360002,365.407996 266.975996,364.808002 267.744,364.344 C268.512004,363.879998 269.471994,363.648 270.624,363.648 C271.776006,363.648 272.743996,363.879998 273.528,364.344 C274.312004,364.808002 274.935998,365.407996 275.4,366.144 C275.864002,366.880004 276.191999,367.727995 276.384,368.688 C276.576001,369.648 276.672,370.623995 276.672,371.616 C276.672,372.608005 276.576001,373.575995 276.384,374.52 C276.191999,375.464005 275.864002,376.311996 275.4,377.064 C274.935998,377.816004 274.312004,378.415998 273.528,378.864 C272.743996,379.312002 271.776006,379.536 270.624,379.536 C269.471994,379.536 268.512004,379.312002 267.744,378.864 C266.975996,378.415998 266.360002,377.816004 265.896,377.064 C265.431998,376.311996 265.104001,375.464005 264.912,374.52 C264.719999,373.575995 264.624,372.608005 264.624,371.616 Z M257.808,371.616 C257.808,373.60001 258.111997,375.391992 258.72,376.992 C259.328003,378.592008 260.191994,379.959994 261.312,381.096 C262.432006,382.232006 263.775992,383.103997 265.344,383.712 C266.912008,384.320003 268.67199,384.624 270.624,384.624 C272.57601,384.624 274.343992,384.320003 275.928,383.712 C277.512008,383.103997 278.863994,382.232006 279.984,381.096 C281.104006,379.959994 281.967997,378.592008 282.576,376.992 C283.184003,375.391992 283.488,373.60001 283.488,371.616 C283.488,369.63199 283.184003,367.832008 282.576,366.216 C281.967997,364.599992 281.104006,363.224006 279.984,362.088 C278.863994,360.951994 277.512008,360.072003 275.928,359.448 C274.343992,358.823997 272.57601,358.512 270.624,358.512 C268.67199,358.512 266.912008,358.823997 265.344,359.448 C263.775992,360.072003 262.432006,360.951994 261.312,362.088 C260.191994,363.224006 259.328003,364.599992 258.72,366.216 C258.111997,367.832008 257.808,369.63199 257.808,371.616 Z M287.904,359.184 L287.904,384 L294.72,384 L294.72,370.992 C294.72,368.463987 295.135996,366.648006 295.968,365.544 C296.800004,364.439994 298.143991,363.888 300,363.888 C301.632008,363.888 302.767997,364.391995 303.408,365.4 C304.048003,366.408005 304.368,367.93599 304.368,369.984 L304.368,384 L311.184,384 L311.184,368.736 C311.184,367.199992 311.048001,365.800006 310.776,364.536 C310.503999,363.271994 310.032003,362.200004 309.36,361.32 C308.687997,360.439996 307.768006,359.752002 306.6,359.256 C305.431994,358.759998 303.936009,358.512 302.112,358.512 C300.671993,358.512 299.264007,358.839997 297.888,359.496 C296.511993,360.152003 295.392004,361.199993 294.528,362.64 L294.384,362.64 L294.384,359.184 L287.904,359.184 Z M325.008,359.184 L325.008,351.744 L318.192,351.744 L318.192,359.184 L314.064,359.184 L314.064,363.744 L318.192,363.744 L318.192,378.384 C318.192,379.632006 318.399998,380.639996 318.816,381.408 C319.232002,382.176004 319.799996,382.767998 320.52,383.184 C321.240004,383.600002 322.071995,383.879999 323.016,384.024 C323.960005,384.168001 324.959995,384.24 326.016,384.24 C326.688003,384.24 327.375996,384.224 328.08,384.192 C328.784004,384.16 329.423997,384.096 330,384 L330,378.72 C329.679998,378.784 329.344002,378.832 328.992,378.864 C328.639998,378.896 328.272002,378.912 327.888,378.912 C326.735994,378.912 325.968002,378.720002 325.584,378.336 C325.199998,377.951998 325.008,377.184006 325.008,376.032 L325.008,363.744 L330,363.744 L330,359.184 L325.008,359.184 Z M349.968,368.928 L338.88,368.928 C338.912,368.447998 339.015999,367.904003 339.192,367.296 C339.368001,366.687997 339.671998,366.112003 340.104,365.568 C340.536002,365.023997 341.111996,364.568002 341.832,364.2 C342.552004,363.831998 343.455995,363.648 344.544,363.648 C346.208008,363.648 347.447996,364.095996 348.264,364.992 C349.080004,365.888004 349.647998,367.199991 349.968,368.928 Z M338.88,373.248 L356.784,373.248 C356.912001,371.32799 356.752002,369.488009 356.304,367.728 C355.855998,365.967991 355.128005,364.400007 354.12,363.024 C353.111995,361.647993 351.824008,360.552004 350.256,359.736 C348.687992,358.919996 346.848011,358.512 344.736,358.512 C342.847991,358.512 341.128008,358.847997 339.576,359.52 C338.023992,360.192003 336.688006,361.111994 335.568,362.28 C334.447994,363.448006 333.584003,364.831992 332.976,366.432 C332.367997,368.032008 332.064,369.759991 332.064,371.616 C332.064,373.53601 332.359997,375.295992 332.952,376.896 C333.544003,378.496008 334.383995,379.871994 335.472,381.024 C336.560005,382.176006 337.887992,383.063997 339.456,383.688 C341.024008,384.312003 342.78399,384.624 344.736,384.624 C347.552014,384.624 349.95199,383.984006 351.936,382.704 C353.92001,381.423994 355.391995,379.296015 356.352,376.32 L350.352,376.32 C350.127999,377.088004 349.520005,377.815997 348.528,378.504 C347.535995,379.192003 346.352007,379.536 344.976,379.536 C343.05599,379.536 341.584005,379.040005 340.56,378.048 C339.535995,377.055995 338.976,375.456011 338.88,373.248 Z M360.816,359.184 L360.816,384 L367.632,384 L367.632,370.992 C367.632,368.463987 368.047996,366.648006 368.88,365.544 C369.712004,364.439994 371.055991,363.888 372.912,363.888 C374.544008,363.888 375.679997,364.391995 376.32,365.4 C376.960003,366.408005 377.28,367.93599 377.28,369.984 L377.28,384 L384.096,384 L384.096,368.736 C384.096,367.199992 383.960001,365.800006 383.688,364.536 C383.415999,363.271994 382.944003,362.200004 382.272,361.32 C381.599997,360.439996 380.680006,359.752002 379.512,359.256 C378.343994,358.759998 376.848009,358.512 375.024,358.512 C373.583993,358.512 372.176007,358.839997 370.8,359.496 C369.423993,360.152003 368.304004,361.199993 367.44,362.64 L367.296,362.64 L367.296,359.184 L360.816,359.184 Z M397.92,359.184 L397.92,351.744 L391.104,351.744 L391.104,359.184 L386.976,359.184 L386.976,363.744 L391.104,363.744 L391.104,378.384 C391.104,379.632006 391.311998,380.639996 391.728,381.408 C392.144002,382.176004 392.711996,382.767998 393.432,383.184 C394.152004,383.600002 394.983995,383.879999 395.928,384.024 C396.872005,384.168001 397.871995,384.24 398.928,384.24 C399.600003,384.24 400.287996,384.224 400.992,384.192 C401.696004,384.16 402.335997,384.096 402.912,384 L402.912,378.72 C402.591998,378.784 402.256002,378.832 401.904,378.864 C401.551998,378.896 401.184002,378.912 400.8,378.912 C399.647994,378.912 398.880002,378.720002 398.496,378.336 C398.111998,377.951998 397.92,377.184006 397.92,376.032 L397.92,363.744 L402.912,363.744 L402.912,359.184 L397.92,359.184 Z M224.688,422.856 L224.688,412.584 L230.544,412.584 C231.408004,412.584 232.239996,412.647999 233.04,412.776 C233.840004,412.904001 234.543997,413.151998 235.152,413.52 C235.760003,413.888002 236.247998,414.407997 236.616,415.08 C236.984002,415.752003 237.168,416.631995 237.168,417.72 C237.168,418.808005 236.984002,419.687997 236.616,420.36 C236.247998,421.032003 235.760003,421.551998 235.152,421.92 C234.543997,422.288002 233.840004,422.535999 233.04,422.664 C232.239996,422.792001 231.408004,422.856 230.544,422.856 L224.688,422.856 Z M217.152,406.728 L217.152,441 L224.688,441 L224.688,428.712 L232.608,428.712 C234.752011,428.712 236.575992,428.400003 238.08,427.776 C239.584008,427.151997 240.807995,426.328005 241.752,425.304 C242.696005,424.279995 243.383998,423.104007 243.816,421.776 C244.248002,420.447993 244.464,419.096007 244.464,417.72 C244.464,416.311993 244.248002,414.952007 243.816,413.64 C243.383998,412.327993 242.696005,411.160005 241.752,410.136 C240.807995,409.111995 239.584008,408.288003 238.08,407.664 C236.575992,407.039997 234.752011,406.728 232.608,406.728 L217.152,406.728 Z M248.64,406.728 L248.64,441 L255.456,441 L255.456,406.728 L248.64,406.728 Z M260.544,423.816 C260.64,422.215992 261.039996,420.888005 261.744,419.832 C262.448004,418.775995 263.343995,417.928003 264.432,417.288 C265.520005,416.647997 266.743993,416.192001 268.104,415.92 C269.464007,415.647999 270.831993,415.512 272.208,415.512 C273.456006,415.512 274.719994,415.599999 276,415.776 C277.280006,415.952001 278.447995,416.295997 279.504,416.808 C280.560005,417.320003 281.423997,418.031995 282.096,418.944 C282.768003,419.856005 283.104,421.063992 283.104,422.568 L283.104,435.48 C283.104,436.600006 283.167999,437.671995 283.296,438.696 C283.424001,439.720005 283.647998,440.487997 283.968,441 L277.056,441 C276.927999,440.615998 276.824,440.224002 276.744,439.824 C276.664,439.423998 276.608,439.016002 276.576,438.6 C275.487995,439.720006 274.208007,440.503998 272.736,440.952 C271.263993,441.400002 269.760008,441.624 268.224,441.624 C267.039994,441.624 265.936005,441.480001 264.912,441.192 C263.887995,440.903999 262.992004,440.456003 262.224,439.848 C261.455996,439.239997 260.856002,438.472005 260.424,437.544 C259.991998,436.615995 259.776,435.512 259.776,434.232 C259.776,432.823993 260.023998,431.664005 260.52,430.752 C261.016002,429.839995 261.655996,429.112003 262.44,428.568 C263.224004,428.023997 264.119995,427.616001 265.128,427.344 C266.136005,427.071999 267.151995,426.856001 268.176,426.696 C268.944004,426.575999 269.702999,426.474 270.452999,426.39 L271.2,426.312 C272.192005,426.216 273.071996,426.072001 273.84,425.88 C274.608004,425.687999 275.215998,425.408002 275.664,425.04 C276.071275,424.705453 276.280199,424.232069 276.290777,423.619835 L276.288,423.432 C276.288,422.695996 276.168001,422.112002 275.928,421.68 C275.687999,421.247998 275.368002,420.912001 274.968,420.672 C274.567998,420.431999 274.104003,420.272 273.576,420.192 C273.047997,420.112 272.480003,420.072 271.872,420.072 C270.527993,420.072 269.472004,420.359997 268.704,420.936 C267.935996,421.512 267.488001,422.471993 267.36,423.816 L260.544,423.816 Z M276.288,428.856 C275.999999,429.112001 275.640002,429.311999 275.208,429.456 C274.775998,429.600001 274.312002,429.72 273.816,429.816 C273.485332,429.88 273.144,429.936889 272.792001,429.986667 L272.256,430.056 C271.711997,430.12 271.168003,430.2 270.624,430.296 C270.111997,430.392 269.608002,430.519999 269.112,430.68 C268.615998,430.840001 268.184002,431.055999 267.816,431.328 C267.447998,431.600001 267.152001,431.943998 266.928,432.36 C266.703999,432.776002 266.592,433.303997 266.592,433.944 C266.592,434.552003 266.703999,435.063998 266.928,435.48 C267.152001,435.896002 267.455998,436.223999 267.84,436.464 C268.224002,436.704001 268.671997,436.872 269.184,436.968 C269.696003,437.064 270.223997,437.112 270.768,437.112 C272.112007,437.112 273.151996,436.888002 273.888,436.44 C274.624004,435.991998 275.167998,435.456003 275.52,434.832 C275.872002,434.207997 276.088,433.576003 276.168,432.936 L276.226776,432.418774 C276.267592,432.013877 276.288,431.674287 276.288,431.4 L276.288,428.856 Z M297.024,416.184 L297.024,408.744 L290.208,408.744 L290.208,416.184 L286.08,416.184 L286.08,420.744 L290.208,420.744 L290.208,435.384 C290.208,436.632006 290.415998,437.639996 290.832,438.408 C291.248002,439.176004 291.815996,439.767998 292.536,440.184 C293.256004,440.600002 294.087995,440.879999 295.032,441.024 C295.976005,441.168001 296.975995,441.24 298.032,441.24 C298.704003,441.24 299.391996,441.224 300.096,441.192 C300.800004,441.16 301.439997,441.096 302.016,441 L302.016,435.72 C301.695998,435.784 301.360002,435.832 301.008,435.864 C300.655998,435.896 300.288002,435.912 299.904,435.912 C298.751994,435.912 297.984002,435.720002 297.6,435.336 C297.215998,434.951998 297.024,434.184006 297.024,433.032 L297.024,420.744 L302.016,420.744 L302.016,416.184 L297.024,416.184 Z M306.768,420.744 L306.768,441 L313.584,441 L313.584,420.744 L318.288,420.744 L318.288,416.184 L313.584,416.184 L313.584,414.696 C313.584,413.671995 313.783998,412.944002 314.184,412.512 C314.584002,412.079998 315.247995,411.864 316.176,411.864 C317.040004,411.864 317.871996,411.912 318.672,412.008 L318.672,406.92 C318.095997,406.888 317.504003,406.848 316.896,406.8 C316.287997,406.752 315.680003,406.728 315.072,406.728 C312.287986,406.728 310.208007,407.431993 308.832,408.84 C307.455993,410.248007 306.768,412.055989 306.768,414.264 L306.768,416.184 L302.688,416.184 L302.688,420.744 L306.768,420.744 Z M327.312,428.616 C327.312,427.623995 327.407999,426.648 327.6,425.688 C327.792001,424.727995 328.119998,423.880004 328.584,423.144 C329.048002,422.407996 329.663996,421.808002 330.432,421.344 C331.200004,420.879998 332.159994,420.648 333.312,420.648 C334.464006,420.648 335.431996,420.879998 336.216,421.344 C337.000004,421.808002 337.623998,422.407996 338.088,423.144 C338.552002,423.880004 338.879999,424.727995 339.072,425.688 C339.264001,426.648 339.36,427.623995 339.36,428.616 C339.36,429.608005 339.264001,430.575995 339.072,431.52 C338.879999,432.464005 338.552002,433.311996 338.088,434.064 C337.623998,434.816004 337.000004,435.415998 336.216,435.864 C335.431996,436.312002 334.464006,436.536 333.312,436.536 C332.159994,436.536 331.200004,436.312002 330.432,435.864 C329.663996,435.415998 329.048002,434.816004 328.584,434.064 C328.119998,433.311996 327.792001,432.464005 327.6,431.52 C327.407999,430.575995 327.312,429.608005 327.312,428.616 Z M320.496,428.616 C320.496,430.60001 320.799997,432.391992 321.408,433.992 C322.016003,435.592008 322.879994,436.959994 324,438.096 C325.120006,439.232006 326.463992,440.103997 328.032,440.712 C329.600008,441.320003 331.35999,441.624 333.312,441.624 C335.26401,441.624 337.031992,441.320003 338.616,440.712 C340.200008,440.103997 341.551994,439.232006 342.672,438.096 C343.792006,436.959994 344.655997,435.592008 345.264,433.992 C345.872003,432.391992 346.176,430.60001 346.176,428.616 C346.176,426.63199 345.872003,424.832008 345.264,423.216 C344.655997,421.599992 343.792006,420.224006 342.672,419.088 C341.551994,417.951994 340.200008,417.072003 338.616,416.448 C337.031992,415.823997 335.26401,415.512 333.312,415.512 C331.35999,415.512 329.600008,415.823997 328.032,416.448 C326.463992,417.072003 325.120006,417.951994 324,419.088 C322.879994,420.224006 322.016003,421.599992 321.408,423.216 C320.799997,424.832008 320.496,426.63199 320.496,428.616 Z M350.592,416.184 L350.592,441 L357.408,441 L357.408,429.816 C357.408,428.695994 357.519999,427.656005 357.744,426.696 C357.968001,425.735995 358.343997,424.896004 358.872,424.176 C359.400003,423.455996 360.095996,422.888002 360.96,422.472 C361.824004,422.055998 362.879994,421.848 364.128,421.848 C364.544002,421.848 364.975998,421.872 365.424,421.92 C365.872002,421.968 366.255998,422.024 366.576,422.088 L366.576,415.752 C366.031997,415.591999 365.536002,415.512 365.088,415.512 C364.223996,415.512 363.392004,415.639999 362.592,415.896 C361.791996,416.152001 361.040004,416.512 360.336,416.976 C359.631996,417.440002 359.008003,417.999997 358.464,418.656 C357.919997,419.312003 357.488002,420.023996 357.168,420.792 L357.072,420.792 L357.072,416.184 L350.592,416.184 Z M369.456,416.184 L375.888,416.184 L375.888,419.544 L375.984,419.544 C376.880004,418.263994 377.959994,417.272004 379.224,416.568 C380.488006,415.863996 381.935992,415.512 383.568,415.512 C385.136008,415.512 386.567994,415.815997 387.864,416.424 C389.160006,417.032003 390.143997,418.103992 390.816,419.64 C391.552004,418.551995 392.551994,417.592004 393.816,416.76 C395.080006,415.927996 396.575991,415.512 398.304,415.512 C399.616007,415.512 400.831994,415.671998 401.952,415.992 C403.072006,416.312002 404.031996,416.823996 404.832,417.528 C405.632004,418.232004 406.255998,419.151994 406.704,420.288 C407.152002,421.424006 407.376,422.791992 407.376,424.392 L407.376,441 L400.56,441 L400.56,426.936 C400.56,426.103996 400.528,425.320004 400.464,424.584 C400.4,423.847996 400.224001,423.208003 399.936,422.664 C399.647999,422.119997 399.224003,421.688002 398.664,421.368 C398.103997,421.047998 397.344005,420.888 396.384,420.888 C395.423995,420.888 394.648003,421.071998 394.056,421.44 C393.463997,421.808002 393.000002,422.287997 392.664,422.88 C392.327998,423.472003 392.104001,424.143996 391.992,424.896 C391.879999,425.648004 391.824,426.407996 391.824,427.176 L391.824,441 L385.008,441 L385.008,427.08 C385.008,426.343996 384.992,425.616004 384.96,424.896 C384.928,424.175996 384.792001,423.512 384.552,422.904 C384.311999,422.295997 383.912003,421.808002 383.352,421.44 C382.791997,421.071998 381.968005,420.888 380.88,420.888 C380.559998,420.888 380.136003,420.959999 379.608,421.104 C379.079997,421.248001 378.568002,421.519998 378.072,421.92 C377.575998,422.320002 377.152002,422.895996 376.8,423.648 C376.447998,424.400004 376.272,425.383994 376.272,426.6 L376.272,441 L369.456,441 L369.456,416.184 Z" id="ContentPlatform" fill="#FFFFFF" fill-rule="nonzero"></path>
        <g id="cart-plus-solid" transform="translate(263.000000, 230.000000)" fill="#9013FE" fill-rule="nonzero">
            <path d="M70,27 C70,12.0825 54.3341346,0 35,0 C15.6658654,0 0,12.0825 0,27 C0,32.788125 2.37259615,38.120625 6.39423077,42.525 C4.13942308,47.62125 0.420673077,51.67125 0.370192308,51.721875 C0,52.11 -0.100961538,52.68375 0.117788462,53.19 C0.336538462,53.69625 0.807692308,54 1.34615385,54 C7.50480769,54 12.6033654,51.924375 16.2716346,49.78125 C21.6899038,52.430625 28.1009615,54 35,54 C54.3341346,54 70,41.9175 70,27 Z M90.6302227,63.5232068 C94.6364774,59.1350211 97,53.7848101 97,47.9957806 C97,36.7046414 88.032024,27.0337553 75.3259945,23 C75.4768576,24.1139241 75.5439079,25.2447257 75.5439079,26.3924051 C75.5439079,44.2658228 57.490618,58.7974684 35.3137353,58.7974684 C33.5033775,58.7974684 31.7433075,58.6624473 30,58.4767932 C35.2802102,68.1814346 47.6845134,75 62.1338504,75 C69.0065049,75 75.3930448,73.4472574 80.7905929,70.7805907 C84.4448336,72.9240506 89.5238929,75 95.6589942,75 C96.1953965,75 96.6815111,74.6793249 96.882662,74.1898734 C97.1005754,73.7004219 97,73.1265823 96.6312234,72.721519 C96.5809357,72.6708861 92.8764073,68.6371308 90.6302227,63.5232068 Z" id="Shape"></path>
        </g>
        <path d="M483.792,94.728 L483.792,129 L490.848,129 L490.848,104.952 L490.944,104.952 L499.344,129 L505.152,129 L513.552,104.712 L513.648,104.712 L513.648,129 L520.704,129 L520.704,94.728 L510.096,94.728 L502.512,118.296 L502.416,118.296 L494.4,94.728 L483.792,94.728 Z M532.656,116.616 C532.656,115.623995 532.751999,114.648 532.944,113.688 C533.136001,112.727995 533.463998,111.880004 533.928,111.144 C534.392002,110.407996 535.007996,109.808002 535.776,109.344 C536.544004,108.879998 537.503994,108.648 538.656,108.648 C539.808006,108.648 540.775996,108.879998 541.56,109.344 C542.344004,109.808002 542.967998,110.407996 543.432,111.144 C543.896002,111.880004 544.223999,112.727995 544.416,113.688 C544.608001,114.648 544.704,115.623995 544.704,116.616 C544.704,117.608005 544.608001,118.575995 544.416,119.52 C544.223999,120.464005 543.896002,121.311996 543.432,122.064 C542.967998,122.816004 542.344004,123.415998 541.56,123.864 C540.775996,124.312002 539.808006,124.536 538.656,124.536 C537.503994,124.536 536.544004,124.312002 535.776,123.864 C535.007996,123.415998 534.392002,122.816004 533.928,122.064 C533.463998,121.311996 533.136001,120.464005 532.944,119.52 C532.751999,118.575995 532.656,117.608005 532.656,116.616 Z M525.84,116.616 C525.84,118.60001 526.143997,120.391992 526.752,121.992 C527.360003,123.592008 528.223994,124.959994 529.344,126.096 C530.464006,127.232006 531.807992,128.103997 533.376,128.712 C534.944008,129.320003 536.70399,129.624 538.656,129.624 C540.60801,129.624 542.375992,129.320003 543.96,128.712 C545.544008,128.103997 546.895994,127.232006 548.016,126.096 C549.136006,124.959994 549.999997,123.592008 550.608,121.992 C551.216003,120.391992 551.52,118.60001 551.52,116.616 C551.52,114.63199 551.216003,112.832008 550.608,111.216 C549.999997,109.599992 549.136006,108.224006 548.016,107.088 C546.895994,105.951994 545.544008,105.072003 543.96,104.448 C542.375992,103.823997 540.60801,103.512 538.656,103.512 C536.70399,103.512 534.944008,103.823997 533.376,104.448 C531.807992,105.072003 530.464006,105.951994 529.344,107.088 C528.223994,108.224006 527.360003,109.599992 526.752,111.216 C526.143997,112.832008 525.84,114.63199 525.84,116.616 Z M573.552,116.52 C573.552,117.544005 573.456001,118.535995 573.264,119.496 C573.071999,120.456005 572.752002,121.311996 572.304,122.064 C571.855998,122.816004 571.256004,123.415998 570.504,123.864 C569.751996,124.312002 568.816006,124.536 567.696,124.536 C566.639995,124.536 565.736004,124.304002 564.984,123.84 C564.231996,123.375998 563.608002,122.768004 563.112,122.016 C562.615998,121.263996 562.256001,120.408005 562.032,119.448 C561.807999,118.487995 561.696,117.528005 561.696,116.568 C561.696,115.543995 561.799999,114.560005 562.008,113.616 C562.216001,112.671995 562.551998,111.832004 563.016,111.096 C563.480002,110.359996 564.095996,109.768002 564.864,109.32 C565.632004,108.871998 566.575994,108.648 567.696,108.648 C568.816006,108.648 569.743996,108.871998 570.48,109.32 C571.216004,109.768002 571.815998,110.351996 572.28,111.072 C572.744002,111.792004 573.071999,112.623995 573.264,113.568 C573.456001,114.512005 573.552,115.495995 573.552,116.52 Z M573.648,125.832 L573.648,129 L580.128,129 L580.128,94.728 L573.312,94.728 L573.312,107.208 L573.216,107.208 C572.447996,105.991994 571.400007,105.072003 570.072,104.448 C568.743993,103.823997 567.344007,103.512 565.872,103.512 C564.047991,103.512 562.448007,103.871996 561.072,104.592 C559.695993,105.312004 558.552005,106.263994 557.64,107.448 C556.727995,108.632006 556.040002,109.999992 555.576,111.552 C555.111998,113.104008 554.88,114.711992 554.88,116.376 C554.88,118.104009 555.111998,119.767992 555.576,121.368 C556.040002,122.968008 556.727995,124.383994 557.64,125.616 C558.552005,126.848006 559.711993,127.823996 561.12,128.544 C562.528007,129.264004 564.159991,129.624 566.016,129.624 C567.648008,129.624 569.111994,129.328003 570.408,128.736 C571.704006,128.143997 572.751996,127.176007 573.552,125.832 L573.648,125.832 Z M601.968,113.928 L590.88,113.928 C590.912,113.447998 591.015999,112.904003 591.192,112.296 C591.368001,111.687997 591.671998,111.112003 592.104,110.568 C592.536002,110.023997 593.111996,109.568002 593.832,109.2 C594.552004,108.831998 595.455995,108.648 596.544,108.648 C598.208008,108.648 599.447996,109.095996 600.264,109.992 C601.080004,110.888004 601.647998,112.199991 601.968,113.928 Z M590.88,118.248 L608.784,118.248 C608.912001,116.32799 608.752002,114.488009 608.304,112.728 C607.855998,110.967991 607.128005,109.400007 606.12,108.024 C605.111995,106.647993 603.824008,105.552004 602.256,104.736 C600.687992,103.919996 598.848011,103.512 596.736,103.512 C594.847991,103.512 593.128008,103.847997 591.576,104.52 C590.023992,105.192003 588.688006,106.111994 587.568,107.28 C586.447994,108.448006 585.584003,109.831992 584.976,111.432 C584.367997,113.032008 584.064,114.759991 584.064,116.616 C584.064,118.53601 584.359997,120.295992 584.952,121.896 C585.544003,123.496008 586.383995,124.871994 587.472,126.024 C588.560005,127.176006 589.887992,128.063997 591.456,128.688 C593.024008,129.312003 594.78399,129.624 596.736,129.624 C599.552014,129.624 601.95199,128.984006 603.936,127.704 C605.92001,126.423994 607.391995,124.296015 608.352,121.32 L602.352,121.32 C602.127999,122.088004 601.520005,122.815997 600.528,123.504 C599.535995,124.192003 598.352007,124.536 596.976,124.536 C595.05599,124.536 593.584005,124.040005 592.56,123.048 C591.535995,122.055995 590.976,120.456011 590.88,118.248 Z M612.816,104.184 L612.816,129 L619.632,129 L619.632,117.816 C619.632,116.695994 619.743999,115.656005 619.968,114.696 C620.192001,113.735995 620.567997,112.896004 621.096,112.176 C621.624003,111.455996 622.319996,110.888002 623.184,110.472 C624.048004,110.055998 625.103994,109.848 626.352,109.848 C626.768002,109.848 627.199998,109.872 627.648,109.92 C628.096002,109.968 628.479998,110.024 628.8,110.088 L628.8,103.752 C628.255997,103.591999 627.760002,103.512 627.312,103.512 C626.447996,103.512 625.616004,103.639999 624.816,103.896 C624.015996,104.152001 623.264004,104.512 622.56,104.976 C621.855996,105.440002 621.232003,105.999997 620.688,106.656 C620.143997,107.312003 619.712002,108.023996 619.392,108.792 L619.296,108.792 L619.296,104.184 L612.816,104.184 Z M631.2,111.816 C631.296,110.215992 631.695996,108.888005 632.4,107.832 C633.104004,106.775995 633.999995,105.928003 635.088,105.288 C636.176005,104.647997 637.399993,104.192001 638.76,103.92 C640.120007,103.647999 641.487993,103.512 642.864,103.512 C644.112006,103.512 645.375994,103.599999 646.656,103.776 C647.936006,103.952001 649.103995,104.295997 650.16,104.808 C651.216005,105.320003 652.079997,106.031995 652.752,106.944 C653.424003,107.856005 653.76,109.063992 653.76,110.568 L653.76,123.48 C653.76,124.600006 653.823999,125.671995 653.952,126.696 C654.080001,127.720005 654.303998,128.487997 654.624,129 L647.712,129 C647.583999,128.615998 647.48,128.224002 647.4,127.824 C647.32,127.423998 647.264,127.016002 647.232,126.6 C646.143995,127.720006 644.864007,128.503998 643.392,128.952 C641.919993,129.400002 640.416008,129.624 638.88,129.624 C637.695994,129.624 636.592005,129.480001 635.568,129.192 C634.543995,128.903999 633.648004,128.456003 632.88,127.848 C632.111996,127.239997 631.512002,126.472005 631.08,125.544 C630.647998,124.615995 630.432,123.512 630.432,122.232 C630.432,120.823993 630.679998,119.664005 631.176,118.752 C631.672002,117.839995 632.311996,117.112003 633.096,116.568 C633.880004,116.023997 634.775995,115.616001 635.784,115.344 C636.792005,115.071999 637.807995,114.856001 638.832,114.696 C639.600004,114.575999 640.358999,114.474 641.108999,114.39 L641.856,114.312 C642.848005,114.216 643.727996,114.072001 644.496,113.88 C645.264004,113.687999 645.871998,113.408002 646.32,113.04 C646.727275,112.705453 646.936199,112.232069 646.946777,111.619835 L646.944,111.432 C646.944,110.695996 646.824001,110.112002 646.584,109.68 C646.343999,109.247998 646.024002,108.912001 645.624,108.672 C645.223998,108.431999 644.760003,108.272 644.232,108.192 C643.703997,108.112 643.136003,108.072 642.528,108.072 C641.183993,108.072 640.128004,108.359997 639.36,108.936 C638.591996,109.512 638.144001,110.471993 638.016,111.816 L631.2,111.816 Z M646.944,116.856 C646.655999,117.112001 646.296002,117.311999 645.864,117.456 C645.431998,117.600001 644.968002,117.72 644.472,117.816 C644.141332,117.88 643.8,117.936889 643.448001,117.986667 L642.912,118.056 C642.367997,118.12 641.824003,118.2 641.28,118.296 C640.767997,118.392 640.264002,118.519999 639.768,118.68 C639.271998,118.840001 638.840002,119.055999 638.472,119.328 C638.103998,119.600001 637.808001,119.943998 637.584,120.36 C637.359999,120.776002 637.248,121.303997 637.248,121.944 C637.248,122.552003 637.359999,123.063998 637.584,123.48 C637.808001,123.896002 638.111998,124.223999 638.496,124.464 C638.880002,124.704001 639.327997,124.872 639.84,124.968 C640.352003,125.064 640.879997,125.112 641.424,125.112 C642.768007,125.112 643.807996,124.888002 644.544,124.44 C645.280004,123.991998 645.823998,123.456003 646.176,122.832 C646.528002,122.207997 646.744,121.576003 646.824,120.936 L646.882776,120.418774 C646.923592,120.013877 646.944,119.674287 646.944,119.4 L646.944,116.856 Z M667.68,104.184 L667.68,96.744 L660.864,96.744 L660.864,104.184 L656.736,104.184 L656.736,108.744 L660.864,108.744 L660.864,123.384 C660.864,124.632006 661.071998,125.639996 661.488,126.408 C661.904002,127.176004 662.471996,127.767998 663.192,128.184 C663.912004,128.600002 664.743995,128.879999 665.688,129.024 C666.632005,129.168001 667.631995,129.24 668.688,129.24 C669.360003,129.24 670.047996,129.224 670.752,129.192 C671.456004,129.16 672.095997,129.096 672.672,129 L672.672,123.72 C672.351998,123.784 672.016002,123.832 671.664,123.864 C671.311998,123.896 670.944002,123.912 670.56,123.912 C669.407994,123.912 668.640002,123.720002 668.256,123.336 C667.871998,122.951998 667.68,122.184006 667.68,121.032 L667.68,108.744 L672.672,108.744 L672.672,104.184 L667.68,104.184 Z M682.944,100.344 L682.944,94.728 L676.128,94.728 L676.128,100.344 L682.944,100.344 Z M676.128,104.184 L676.128,129 L682.944,129 L682.944,104.184 L676.128,104.184 Z M694.368,116.616 C694.368,115.623995 694.463999,114.648 694.656,113.688 C694.848001,112.727995 695.175998,111.880004 695.64,111.144 C696.104002,110.407996 696.719996,109.808002 697.488,109.344 C698.256004,108.879998 699.215994,108.648 700.368,108.648 C701.520006,108.648 702.487996,108.879998 703.272,109.344 C704.056004,109.808002 704.679998,110.407996 705.144,111.144 C705.608002,111.880004 705.935999,112.727995 706.128,113.688 C706.320001,114.648 706.416,115.623995 706.416,116.616 C706.416,117.608005 706.320001,118.575995 706.128,119.52 C705.935999,120.464005 705.608002,121.311996 705.144,122.064 C704.679998,122.816004 704.056004,123.415998 703.272,123.864 C702.487996,124.312002 701.520006,124.536 700.368,124.536 C699.215994,124.536 698.256004,124.312002 697.488,123.864 C696.719996,123.415998 696.104002,122.816004 695.64,122.064 C695.175998,121.311996 694.848001,120.464005 694.656,119.52 C694.463999,118.575995 694.368,117.608005 694.368,116.616 Z M687.552,116.616 C687.552,118.60001 687.855997,120.391992 688.464,121.992 C689.072003,123.592008 689.935994,124.959994 691.056,126.096 C692.176006,127.232006 693.519992,128.103997 695.088,128.712 C696.656008,129.320003 698.41599,129.624 700.368,129.624 C702.32001,129.624 704.087992,129.320003 705.672,128.712 C707.256008,128.103997 708.607994,127.232006 709.728,126.096 C710.848006,124.959994 711.711997,123.592008 712.32,121.992 C712.928003,120.391992 713.232,118.60001 713.232,116.616 C713.232,114.63199 712.928003,112.832008 712.32,111.216 C711.711997,109.599992 710.848006,108.224006 709.728,107.088 C708.607994,105.951994 707.256008,105.072003 705.672,104.448 C704.087992,103.823997 702.32001,103.512 700.368,103.512 C698.41599,103.512 696.656008,103.823997 695.088,104.448 C693.519992,105.072003 692.176006,105.951994 691.056,107.088 C689.935994,108.224006 689.072003,109.599992 688.464,111.216 C687.855997,112.832008 687.552,114.63199 687.552,116.616 Z M717.648,104.184 L717.648,129 L724.464,129 L724.464,115.992 C724.464,113.463987 724.879996,111.648006 725.712,110.544 C726.544004,109.439994 727.887991,108.888 729.744,108.888 C731.376008,108.888 732.511997,109.391995 733.152,110.4 C733.792003,111.408005 734.112,112.93599 734.112,114.984 L734.112,129 L740.928,129 L740.928,113.736 C740.928,112.199992 740.792001,110.800006 740.52,109.536 C740.247999,108.271994 739.776003,107.200004 739.104,106.32 C738.431997,105.439996 737.512006,104.752002 736.344,104.256 C735.175994,103.759998 733.680009,103.512 731.856,103.512 C730.415993,103.512 729.008007,103.839997 727.632,104.496 C726.255993,105.152003 725.136004,106.199993 724.272,107.64 L724.128,107.64 L724.128,104.184 L717.648,104.184 Z M537.936,151.728 L537.936,186 L563.952,186 L563.952,179.664 L545.472,179.664 L545.472,171.264 L562.08,171.264 L562.08,165.408 L545.472,165.408 L545.472,158.064 L563.568,158.064 L563.568,151.728 L537.936,151.728 Z M582.048,186 L590.448,161.184 L583.68,161.184 L578.448,178.128 L578.352,178.128 L573.12,161.184 L565.968,161.184 L574.464,186 L582.048,186 Z M609.984,170.928 L598.896,170.928 C598.928,170.447998 599.031999,169.904003 599.208,169.296 C599.384001,168.687997 599.687998,168.112003 600.12,167.568 C600.552002,167.023997 601.127996,166.568002 601.848,166.2 C602.568004,165.831998 603.471995,165.648 604.56,165.648 C606.224008,165.648 607.463996,166.095996 608.28,166.992 C609.096004,167.888004 609.663998,169.199991 609.984,170.928 Z M598.896,175.248 L616.8,175.248 C616.928001,173.32799 616.768002,171.488009 616.32,169.728 C615.871998,167.967991 615.144005,166.400007 614.136,165.024 C613.127995,163.647993 611.840008,162.552004 610.272,161.736 C608.703992,160.919996 606.864011,160.512 604.752,160.512 C602.863991,160.512 601.144008,160.847997 599.592,161.52 C598.039992,162.192003 596.704006,163.111994 595.584,164.28 C594.463994,165.448006 593.600003,166.831992 592.992,168.432 C592.383997,170.032008 592.08,171.759991 592.08,173.616 C592.08,175.53601 592.375997,177.295992 592.968,178.896 C593.560003,180.496008 594.399995,181.871994 595.488,183.024 C596.576005,184.176006 597.903992,185.063997 599.472,185.688 C601.040008,186.312003 602.79999,186.624 604.752,186.624 C607.568014,186.624 609.96799,185.984006 611.952,184.704 C613.93601,183.423994 615.407995,181.296015 616.368,178.32 L610.368,178.32 C610.143999,179.088004 609.536005,179.815997 608.544,180.504 C607.551995,181.192003 606.368007,181.536 604.992,181.536 C603.07199,181.536 601.600005,181.040005 600.576,180.048 C599.551995,179.055995 598.992,177.456011 598.896,175.248 Z M620.832,161.184 L620.832,186 L627.648,186 L627.648,172.992 C627.648,170.463987 628.063996,168.648006 628.896,167.544 C629.728004,166.439994 631.071991,165.888 632.928,165.888 C634.560008,165.888 635.695997,166.391995 636.336,167.4 C636.976003,168.408005 637.296,169.93599 637.296,171.984 L637.296,186 L644.112,186 L644.112,170.736 C644.112,169.199992 643.976001,167.800006 643.704,166.536 C643.431999,165.271994 642.960003,164.200004 642.288,163.32 C641.615997,162.439996 640.696006,161.752002 639.528,161.256 C638.359994,160.759998 636.864009,160.512 635.04,160.512 C633.599993,160.512 632.192007,160.839997 630.816,161.496 C629.439993,162.152003 628.320004,163.199993 627.456,164.64 L627.312,164.64 L627.312,161.184 L620.832,161.184 Z M657.936,161.184 L657.936,153.744 L651.12,153.744 L651.12,161.184 L646.992,161.184 L646.992,165.744 L651.12,165.744 L651.12,180.384 C651.12,181.632006 651.327998,182.639996 651.744,183.408 C652.160002,184.176004 652.727996,184.767998 653.448,185.184 C654.168004,185.600002 654.999995,185.879999 655.944,186.024 C656.888005,186.168001 657.887995,186.24 658.944,186.24 C659.616003,186.24 660.303996,186.224 661.008,186.192 C661.712004,186.16 662.351997,186.096 662.928,186 L662.928,180.72 C662.607998,180.784 662.272002,180.832 661.92,180.864 C661.567998,180.896 661.200002,180.912 660.816,180.912 C659.663994,180.912 658.896002,180.720002 658.512,180.336 C658.127998,179.951998 657.936,179.184006 657.936,178.032 L657.936,165.744 L662.928,165.744 L662.928,161.184 L657.936,161.184 Z M671.472,177.936 C671.472,178.672004 671.623998,179.303997 671.928,179.832 C672.232002,180.360003 672.623998,180.791998 673.104,181.128 C673.584002,181.464002 674.135997,181.711999 674.76,181.872 C675.384003,182.032001 676.031997,182.112 676.704,182.112 C677.184002,182.112 677.687997,182.056001 678.216,181.944 C678.744003,181.831999 679.223998,181.656001 679.656,181.416 C680.088002,181.175999 680.447999,180.856002 680.736,180.456 C681.024001,180.055998 681.168,179.552003 681.168,178.944 C681.168,177.919995 680.488007,177.152003 679.128,176.64 C677.767993,176.127997 675.872012,175.616003 673.44,175.104 C672.447995,174.879999 671.480005,174.616002 670.536,174.312 C669.591995,174.007998 668.752004,173.608002 668.016,173.112 C667.279996,172.615998 666.688002,171.992004 666.24,171.24 C665.791998,170.487996 665.568,169.568005 665.568,168.48 C665.568,166.879992 665.879997,165.568005 666.504,164.544 C667.128003,163.519995 667.951995,162.712003 668.976,162.12 C670.000005,161.527997 671.151994,161.112001 672.432,160.872 C673.712006,160.631999 675.023993,160.512 676.368,160.512 C677.712007,160.512 679.015994,160.639999 680.28,160.896 C681.544006,161.152001 682.671995,161.583997 683.664,162.192 C684.656005,162.800003 685.479997,163.607995 686.136,164.616 C686.792003,165.624005 687.183999,166.895992 687.312,168.432 L680.832,168.432 C680.736,167.119993 680.240004,166.232002 679.344,165.768 C678.447996,165.303998 677.392006,165.072 676.176,165.072 C675.791998,165.072 675.376002,165.096 674.928,165.144 C674.479998,165.192 674.072002,165.295999 673.704,165.456 C673.335998,165.616001 673.024001,165.847998 672.768,166.152 C672.511999,166.456002 672.384,166.863997 672.384,167.376 C672.384,167.984003 672.607998,168.479998 673.056,168.864 C673.504002,169.248002 674.087996,169.559999 674.808,169.8 C675.528004,170.040001 676.351995,170.255999 677.28,170.448 C678.208005,170.640001 679.151995,170.847999 680.112,171.072 C681.104005,171.296001 682.071995,171.567998 683.016,171.888 C683.960005,172.208002 684.799996,172.631997 685.536,173.16 C686.272004,173.688003 686.863998,174.343996 687.312,175.128 C687.760002,175.912004 687.984,176.879994 687.984,178.032 C687.984,179.664008 687.656003,181.031994 687,182.136 C686.343997,183.240006 685.488005,184.127997 684.432,184.8 C683.375995,185.472003 682.168007,185.943999 680.808,186.216 C679.447993,186.488001 678.064007,186.624 676.656,186.624 C675.215993,186.624 673.808007,186.480001 672.432,186.192 C671.055993,185.903999 669.832005,185.424003 668.76,184.752 C667.687995,184.079997 666.808003,183.192006 666.12,182.088 C665.431997,180.983994 665.056,179.600008 664.992,177.936 L671.472,177.936 Z" id="ModerationEvents" fill="#FFFFFF" fill-rule="nonzero"></path>
        <path d="M510.456,684.664 L510.456,663.064 L515.832,663.064 C517.688009,663.064 519.247994,663.327997 520.512,663.856 C521.776006,664.384003 522.791996,665.143995 523.56,666.136 C524.328004,667.128005 524.879998,668.319993 525.216,669.712 C525.552002,671.104007 525.72,672.663991 525.72,674.392 C525.72,676.280009 525.480002,677.879993 525,679.192 C524.519998,680.504007 523.880004,681.567996 523.08,682.384 C522.279996,683.200004 521.368005,683.783998 520.344,684.136 C519.319995,684.488002 518.264005,684.664 517.176,684.664 L510.456,684.664 Z M502.92,656.728 L502.92,691 L517.704,691 C520.328013,691 522.60799,690.560004 524.544,689.68 C526.48001,688.799996 528.095994,687.592008 529.392,686.056 C530.688006,684.519992 531.655997,682.696011 532.296,680.584 C532.936003,678.471989 533.256,676.168012 533.256,673.672 C533.256,670.823986 532.864004,668.344011 532.08,666.232 C531.295996,664.119989 530.208007,662.360007 528.816,660.952 C527.423993,659.543993 525.77601,658.488004 523.872,657.784 C521.96799,657.079996 519.912011,656.728 517.704,656.728 L502.92,656.728 Z M554.472,675.928 L543.384,675.928 C543.416,675.447998 543.519999,674.904003 543.696,674.296 C543.872001,673.687997 544.175998,673.112003 544.608,672.568 C545.040002,672.023997 545.615996,671.568002 546.336,671.2 C547.056004,670.831998 547.959995,670.648 549.048,670.648 C550.712008,670.648 551.951996,671.095996 552.768,671.992 C553.584004,672.888004 554.151998,674.199991 554.472,675.928 Z M543.384,680.248 L561.288,680.248 C561.416001,678.32799 561.256002,676.488009 560.808,674.728 C560.359998,672.967991 559.632005,671.400007 558.624,670.024 C557.615995,668.647993 556.328008,667.552004 554.76,666.736 C553.191992,665.919996 551.352011,665.512 549.24,665.512 C547.351991,665.512 545.632008,665.847997 544.08,666.52 C542.527992,667.192003 541.192006,668.111994 540.072,669.28 C538.951994,670.448006 538.088003,671.831992 537.48,673.432 C536.871997,675.032008 536.568,676.759991 536.568,678.616 C536.568,680.53601 536.863997,682.295992 537.456,683.896 C538.048003,685.496008 538.887995,686.871994 539.976,688.024 C541.064005,689.176006 542.391992,690.063997 543.96,690.688 C545.528008,691.312003 547.28799,691.624 549.24,691.624 C552.056014,691.624 554.45599,690.984006 556.44,689.704 C558.42401,688.423994 559.895995,686.296015 560.856,683.32 L554.856,683.32 C554.631999,684.088004 554.024005,684.815997 553.032,685.504 C552.039995,686.192003 550.856007,686.536 549.48,686.536 C547.55999,686.536 546.088005,686.040005 545.064,685.048 C544.039995,684.055995 543.48,682.456011 543.384,680.248 Z M582.216,674.92 L588.888,674.92 C588.792,673.319992 588.408003,671.936006 587.736,670.768 C587.063997,669.599994 586.192005,668.624004 585.12,667.84 C584.047995,667.055996 582.832007,666.472002 581.472,666.088 C580.111993,665.703998 578.696007,665.512 577.224,665.512 C575.20799,665.512 573.416008,665.847997 571.848,666.52 C570.279992,667.192003 568.952005,668.127994 567.864,669.328 C566.775995,670.528006 565.952003,671.951992 565.392,673.6 C564.831997,675.248008 564.552,677.03199 564.552,678.952 C564.552,680.808009 564.855997,682.512 565.464,684.064 C566.072003,685.616008 566.919995,686.951994 568.008,688.072 C569.096005,689.192006 570.415992,690.063997 571.968,690.688 C573.520008,691.312003 575.223991,691.624 577.08,691.624 C580.376016,691.624 583.079989,690.760009 585.192,689.032 C587.304011,687.303991 588.583998,684.792016 589.032,681.496 L582.456,681.496 C582.231999,683.032008 581.680004,684.255995 580.8,685.168 C579.919996,686.080005 578.664008,686.536 577.032,686.536 C575.975995,686.536 575.080004,686.296002 574.344,685.816 C573.607996,685.335998 573.024002,684.720004 572.592,683.968 C572.159998,683.215996 571.848001,682.376005 571.656,681.448 C571.463999,680.519995 571.368,679.608004 571.368,678.712 C571.368,677.783995 571.463999,676.848005 571.656,675.904 C571.848001,674.959995 572.175998,674.096004 572.64,673.312 C573.104002,672.527996 573.703996,671.888002 574.44,671.392 C575.176004,670.895998 576.087995,670.648 577.176,670.648 C580.088015,670.648 581.767998,672.071986 582.216,674.92 Z M599.88,662.344 L599.88,656.728 L593.064,656.728 L593.064,662.344 L599.88,662.344 Z M593.064,666.184 L593.064,691 L599.88,691 L599.88,666.184 L593.064,666.184 Z M610.536,682.936 L604.056,682.936 C604.12,684.600008 604.495997,685.983994 605.184,687.088 C605.872003,688.192006 606.751995,689.079997 607.824,689.752 C608.896005,690.424003 610.119993,690.903999 611.496,691.192 C612.872007,691.480001 614.279993,691.624 615.72,691.624 C617.128007,691.624 618.511993,691.488001 619.872,691.216 C621.232007,690.943999 622.439995,690.472003 623.496,689.8 C624.552005,689.127997 625.407997,688.240006 626.064,687.136 C626.720003,686.031994 627.048,684.664008 627.048,683.032 C627.048,681.879994 626.824002,680.912004 626.376,680.128 C625.927998,679.343996 625.336004,678.688003 624.6,678.16 C623.863996,677.631997 623.024005,677.208002 622.08,676.888 C621.135995,676.567998 620.168005,676.296001 619.176,676.072 C618.215995,675.847999 617.272005,675.640001 616.344,675.448 C615.415995,675.255999 614.592004,675.040001 613.872,674.8 C613.151996,674.559999 612.568002,674.248002 612.12,673.864 C611.671998,673.479998 611.448,672.984003 611.448,672.376 C611.448,671.863997 611.575999,671.456002 611.832,671.152 C612.088001,670.847998 612.399998,670.616001 612.768,670.456 C613.136002,670.295999 613.543998,670.192 613.992,670.144 C614.440002,670.096 614.855998,670.072 615.24,670.072 C616.456006,670.072 617.511996,670.303998 618.408,670.768 C619.304004,671.232002 619.8,672.119993 619.896,673.432 L626.376,673.432 C626.247999,671.895992 625.856003,670.624005 625.2,669.616 C624.543997,668.607995 623.720005,667.800003 622.728,667.192 C621.735995,666.583997 620.608006,666.152001 619.344,665.896 C618.079994,665.639999 616.776007,665.512 615.432,665.512 C614.087993,665.512 612.776006,665.631999 611.496,665.872 C610.215994,666.112001 609.064005,666.527997 608.04,667.12 C607.015995,667.712003 606.192003,668.519995 605.568,669.544 C604.943997,670.568005 604.632,671.879992 604.632,673.48 C604.632,674.568005 604.855998,675.487996 605.304,676.24 C605.752002,676.992004 606.343996,677.615998 607.08,678.112 C607.816004,678.608002 608.655995,679.007998 609.6,679.312 C610.544005,679.616002 611.511995,679.879999 612.504,680.104 C614.936012,680.616003 616.831993,681.127997 618.192,681.64 C619.552007,682.152003 620.232,682.919995 620.232,683.944 C620.232,684.552003 620.088001,685.055998 619.8,685.456 C619.511999,685.856002 619.152002,686.175999 618.72,686.416 C618.287998,686.656001 617.808003,686.831999 617.28,686.944 C616.751997,687.056001 616.248002,687.112 615.768,687.112 C615.095997,687.112 614.448003,687.032001 613.824,686.872 C613.199997,686.711999 612.648002,686.464002 612.168,686.128 C611.687998,685.791998 611.296002,685.360003 610.992,684.832 C610.687998,684.303997 610.536,683.672004 610.536,682.936 Z M638.04,662.344 L638.04,656.728 L631.224,656.728 L631.224,662.344 L638.04,662.344 Z M631.224,666.184 L631.224,691 L638.04,691 L638.04,666.184 L631.224,666.184 Z M649.464,678.616 C649.464,677.623995 649.559999,676.648 649.752,675.688 C649.944001,674.727995 650.271998,673.880004 650.736,673.144 C651.200002,672.407996 651.815996,671.808002 652.584,671.344 C653.352004,670.879998 654.311994,670.648 655.464,670.648 C656.616006,670.648 657.583996,670.879998 658.368,671.344 C659.152004,671.808002 659.775998,672.407996 660.24,673.144 C660.704002,673.880004 661.031999,674.727995 661.224,675.688 C661.416001,676.648 661.512,677.623995 661.512,678.616 C661.512,679.608005 661.416001,680.575995 661.224,681.52 C661.031999,682.464005 660.704002,683.311996 660.24,684.064 C659.775998,684.816004 659.152004,685.415998 658.368,685.864 C657.583996,686.312002 656.616006,686.536 655.464,686.536 C654.311994,686.536 653.352004,686.312002 652.584,685.864 C651.815996,685.415998 651.200002,684.816004 650.736,684.064 C650.271998,683.311996 649.944001,682.464005 649.752,681.52 C649.559999,680.575995 649.464,679.608005 649.464,678.616 Z M642.648,678.616 C642.648,680.60001 642.951997,682.391992 643.56,683.992 C644.168003,685.592008 645.031994,686.959994 646.152,688.096 C647.272006,689.232006 648.615992,690.103997 650.184,690.712 C651.752008,691.320003 653.51199,691.624 655.464,691.624 C657.41601,691.624 659.183992,691.320003 660.768,690.712 C662.352008,690.103997 663.703994,689.232006 664.824,688.096 C665.944006,686.959994 666.807997,685.592008 667.416,683.992 C668.024003,682.391992 668.328,680.60001 668.328,678.616 C668.328,676.63199 668.024003,674.832008 667.416,673.216 C666.807997,671.599992 665.944006,670.224006 664.824,669.088 C663.703994,667.951994 662.352008,667.072003 660.768,666.448 C659.183992,665.823997 657.41601,665.512 655.464,665.512 C653.51199,665.512 651.752008,665.823997 650.184,666.448 C648.615992,667.072003 647.272006,667.951994 646.152,669.088 C645.031994,670.224006 644.168003,671.599992 643.56,673.216 C642.951997,674.832008 642.648,676.63199 642.648,678.616 Z M672.744,666.184 L672.744,691 L679.56,691 L679.56,677.992 C679.56,675.463987 679.975996,673.648006 680.808,672.544 C681.640004,671.439994 682.983991,670.888 684.84,670.888 C686.472008,670.888 687.607997,671.391995 688.248,672.4 C688.888003,673.408005 689.208,674.93599 689.208,676.984 L689.208,691 L696.024,691 L696.024,675.736 C696.024,674.199992 695.888001,672.800006 695.616,671.536 C695.343999,670.271994 694.872003,669.200004 694.2,668.32 C693.527997,667.439996 692.608006,666.752002 691.44,666.256 C690.271994,665.759998 688.776009,665.512 686.952,665.512 C685.511993,665.512 684.104007,665.839997 682.728,666.496 C681.351993,667.152003 680.232004,668.199993 679.368,669.64 L679.224,669.64 L679.224,666.184 L672.744,666.184 Z M706.488,682.936 C706.488,683.672004 706.639998,684.303997 706.944,684.832 C707.248002,685.360003 707.639998,685.791998 708.12,686.128 C708.600002,686.464002 709.151997,686.711999 709.776,686.872 C710.400003,687.032001 711.047997,687.112 711.72,687.112 C712.200002,687.112 712.703997,687.056001 713.232,686.944 C713.760003,686.831999 714.239998,686.656001 714.672,686.416 C715.104002,686.175999 715.463999,685.856002 715.752,685.456 C716.040001,685.055998 716.184,684.552003 716.184,683.944 C716.184,682.919995 715.504007,682.152003 714.144,681.64 C712.783993,681.127997 710.888012,680.616003 708.456,680.104 C707.463995,679.879999 706.496005,679.616002 705.552,679.312 C704.607995,679.007998 703.768004,678.608002 703.032,678.112 C702.295996,677.615998 701.704002,676.992004 701.256,676.24 C700.807998,675.487996 700.584,674.568005 700.584,673.48 C700.584,671.879992 700.895997,670.568005 701.52,669.544 C702.144003,668.519995 702.967995,667.712003 703.992,667.12 C705.016005,666.527997 706.167994,666.112001 707.448,665.872 C708.728006,665.631999 710.039993,665.512 711.384,665.512 C712.728007,665.512 714.031994,665.639999 715.296,665.896 C716.560006,666.152001 717.687995,666.583997 718.68,667.192 C719.672005,667.800003 720.495997,668.607995 721.152,669.616 C721.808003,670.624005 722.199999,671.895992 722.328,673.432 L715.848,673.432 C715.752,672.119993 715.256004,671.232002 714.36,670.768 C713.463996,670.303998 712.408006,670.072 711.192,670.072 C710.807998,670.072 710.392002,670.096 709.944,670.144 C709.495998,670.192 709.088002,670.295999 708.72,670.456 C708.351998,670.616001 708.040001,670.847998 707.784,671.152 C707.527999,671.456002 707.4,671.863997 707.4,672.376 C707.4,672.984003 707.623998,673.479998 708.072,673.864 C708.520002,674.248002 709.103996,674.559999 709.824,674.8 C710.544004,675.040001 711.367995,675.255999 712.296,675.448 C713.224005,675.640001 714.167995,675.847999 715.128,676.072 C716.120005,676.296001 717.087995,676.567998 718.032,676.888 C718.976005,677.208002 719.815996,677.631997 720.552,678.16 C721.288004,678.688003 721.879998,679.343996 722.328,680.128 C722.776002,680.912004 723,681.879994 723,683.032 C723,684.664008 722.672003,686.031994 722.016,687.136 C721.359997,688.240006 720.504005,689.127997 719.448,689.8 C718.391995,690.472003 717.184007,690.943999 715.824,691.216 C714.463993,691.488001 713.080007,691.624 711.672,691.624 C710.231993,691.624 708.824007,691.480001 707.448,691.192 C706.071993,690.903999 704.848005,690.424003 703.776,689.752 C702.703995,689.079997 701.824003,688.192006 701.136,687.088 C700.447997,685.983994 700.072,684.600008 700.008,682.936 L706.488,682.936 Z" id="Decisions" fill="#FFFFFF" fill-rule="nonzero"></path>
        <circle id="Oval" fill="#9013FE" cx="1017.5" cy="196.5" r="10.5"></circle>
        <circle id="Oval" fill="#9013FE" cx="705.5" cy="384.5" r="10.5"></circle>
        <circle id="Oval" fill="#9013FE" cx="996.5" cy="554.5" r="10.5"></circle>
        <polygon id="Path-17" fill="#FFFFFF" fill-rule="nonzero" points="895.461373 48 896.144 83.028 906.142645 82.8330646 894.612925 107.0625 882.147209 83.3010622 892.145 83.106 891.538627 52 314 52 314 107.0625 310 107.0625 310 48"></polygon>
        <polygon id="Path-17" fill="#FFFFFF" fill-rule="nonzero" transform="translate(608.071323, 702.531250) scale(-1, -1) translate(-608.071323, -702.531250) " points="895.461373 673 896.144 708.028 906.142645 707.833065 894.612925 732.0625 882.147209 708.301062 892.145 708.106 891.538627 677 314 677 314 732.0625 310 732.0625 310 673"></polygon>
    </g>
</svg>