<?xml version="1.0" encoding="UTF-8"?>
<svg width="1200px" height="790px" viewBox="0 0 1200 790" version="1.1" xmlns="http://www.w3.org/2000/svg" xmlns:xlink="http://www.w3.org/1999/xlink">
    <!-- Generator: Sketch 58 (84663) - https://sketch.com -->
    <title>website-integrations3</title>
    <desc>Created with Sketch.</desc>
    <defs>
        <linearGradient x1="50%" y1="0%" x2="50%" y2="100%" id="linearGradient-1">
            <stop stop-color="#8400DB" offset="0%"></stop>
            <stop stop-color="#4D00B4" offset="100%"></stop>
        </linearGradient>
        <linearGradient x1="0%" y1="49.9999777%" x2="100.000024%" y2="49.9999777%" id="linearGradient-2">
            <stop stop-color="#A3A2A5" offset="0%"></stop>
            <stop stop-color="#9F9EA0" offset="27.05%"></stop>
            <stop stop-color="#929194" offset="56.07%"></stop>
            <stop stop-color="#7C7C80" offset="85.92%"></stop>
            <stop stop-color="#707073" offset="100%"></stop>
        </linearGradient>
        <linearGradient x1="-0.661193461%" y1="79.9148322%" x2="70.3915924%" y2="24.2689758%" id="linearGradient-3">
            <stop stop-color="#969598" offset="0%"></stop>
            <stop stop-color="#908F92" offset="33.96%"></stop>
            <stop stop-color="#7F7F82" offset="79.17%"></stop>
            <stop stop-color="#757578" offset="100%"></stop>
        </linearGradient>
        <linearGradient x1="6.06021085%" y1="-2.83492963%" x2="50.00952%" y2="85.0511445%" id="linearGradient-4">
            <stop stop-color="#9E9EA0" offset="0%"></stop>
            <stop stop-color="#9B9B9D" offset="27.59%"></stop>
            <stop stop-color="#919194" offset="49.4%"></stop>
            <stop stop-color="#808083" offset="69.23%"></stop>
            <stop stop-color="#69696D" offset="87.77%"></stop>
            <stop stop-color="#55565A" offset="100%"></stop>
        </linearGradient>
    </defs>
    <g id="website-integrations3" stroke="none" stroke-width="1" fill="none" fill-rule="evenodd">
        <circle id="Oval" stroke="#9013FE" stroke-width="6" cx="312.5" cy="395.5" r="247.5"></circle>
        <circle id="Oval" fill="url(#linearGradient-1)" cx="312.5" cy="395.5" r="244.5"></circle>
        <g id="Group-2" transform="translate(758.000000, 261.000000)">
            <circle id="Oval" fill="#FFFFFF" cx="135" cy="135" r="135"></circle>
            <g id="kleros-symbol" transform="translate(51.000000, 60.000000)" fill-rule="nonzero">
                <polygon id="Path" fill="#45464D" opacity="0.7" points="133.381411 3.77718897 49.0824928 0 0 61.5574073 34.3923467 143.824633 119.534475 149 168 79.7930126"></polygon>
                <g id="Group">
                    <polygon id="Path" fill="#656569" points="167.847575 79.7154168 119.890532 30.9128112 107.277449 124.531491"></polygon>
                    <polygon id="Path" fill="url(#linearGradient-2)" points="32.7506551 68.7388056 119.890532 30.9128112 107.277449 124.531491"></polygon>
                    <polygon id="Path" fill="url(#linearGradient-3)" points="119.890532 30.9128112 49.0898492 0.0698111888 32.7506551 68.7388056"></polygon>
                    <polygon id="Path" fill="url(#linearGradient-4)" points="32.7506551 68.7388056 34.4194413 143.629331 107.277449 124.531491"></polygon>
                    <polygon id="Path" fill="#757578" points="119.890532 30.9128112 133.275501 3.84003217 49.0898492 0.0698111888"></polygon>
                    <polygon id="Path" fill="#6C6D70" points="133.275501 3.84003217 167.847575 79.7154168 119.890532 30.9128112"></polygon>
                    <polygon id="Path" fill="#6C6D70" points="167.847575 79.7154168 119.447169 148.794734 107.277449 124.531491"></polygon>
                    <polygon id="Path" fill="#55565A" points="119.447169 148.794734 34.4194413 143.629331 107.277449 124.531491"></polygon>
                    <polygon id="Path" fill="#55565A" points="49.0898492 0.0698111888 0.0733053152 61.5134517 32.7506551 68.7388056"></polygon>
                    <polygon id="Path" fill="#656569" points="0.0733053152 61.5134517 34.4194413 143.629331 32.7506551 68.7388056"></polygon>
                    <polygon id="Path" fill="#151A22" opacity="0.7" points="110.972618 43.8064168 102.140262 110.92206 50.0835204 70.5143021"></polygon>
                    <polygon id="Path" fill="#151A22" opacity="0.7" points="103.923263 30.4235077 55.2628628 9.38866713 45.0412361 53.614993"></polygon>
                    <polygon id="Path" fill="#23262E" opacity="0.7" points="91.5896959 121.089695 38.7052064 83.1778434 39.9842077 134.550126"></polygon>
                    <polygon id="Path" fill="#23262E" opacity="0.7" points="158.961642 79.5478699 122.923461 42.8348951 113.411214 113.432971"></polygon>
                    <polygon id="Path" fill="#43444B" opacity="0.7" points="103.988885 129.346796 111.838368 144.42247 59.3874808 141.050694"></polygon>
                    <polygon id="Path" fill="#34363D" opacity="0.7" points="151.918517 96.2048196 112.876895 125.404027 120.634591 140.624533"></polygon>
                    <polygon id="Path" fill="#34363D" opacity="0.7" points="133.451392 14.4413301 154.093795 58.8747972 125.868756 30.0698671"></polygon>
                    <polygon id="Path" fill="#36383F" opacity="0.7" points="124.003728 6.96236364 115.323797 22.8964028 74.4391595 4.94284056"></polygon>
                    <polygon id="Path" fill="#3B3C43" opacity="0.7" points="42.1401731 14.1900098 30.6345612 63.136614 7.42335723 58.2006503"></polygon>
                    <polygon id="Path" fill="#45464D" opacity="0.7" points="29.2346996 71.7694448 30.2474759 124.369779 5.91177256 66.8122252"></polygon>
                </g>
            </g>
        </g>
        <path d="M893.5,585 C998.15796,585 1083,500.15796 1083,395.5 C1083,290.84204 998.15796,206 893.5,206 C788.84204,206 704,290.84204 704,395.5 C704,500.15796 788.84204,585 893.5,585 Z M893.5,583 C789.946609,583 706,499.053391 706,395.5 C706,291.946609 789.946609,208 893.5,208 C997.053391,208 1081,291.946609 1081,395.5 C1081,499.053391 997.053391,583 893.5,583 Z" id="Oval" fill="#9013FE" fill-rule="nonzero"></path>
        <path d="M893.5,632 C1024.11534,632 1130,526.115343 1130,395.5 C1130,264.884657 1024.11534,159 893.5,159 C762.884657,159 657,264.884657 657,395.5 C657,526.115343 762.884657,632 893.5,632 Z M893.5,630 C763.989226,630 659,525.010774 659,395.5 C659,265.989226 763.989226,161 893.5,161 C1023.01077,161 1128,265.989226 1128,395.5 C1128,525.010774 1023.01077,630 893.5,630 Z" id="Oval" fill="#9013FE" fill-rule="nonzero"></path>
        <path d="M178.656,384 L187.872,349.728 L180.48,349.728 L174.864,373.344 L174.768,373.344 L168.912,349.728 L161.856,349.728 L155.904,373.056 L155.808,373.056 L150.384,349.728 L142.848,349.728 L151.92,384 L159.552,384 L165.264,360.672 L165.36,360.672 L171.168,384 L178.656,384 Z M193.92,371.616 C193.92,370.623995 194.015999,369.648 194.208,368.688 C194.400001,367.727995 194.727998,366.880004 195.192,366.144 C195.656002,365.407996 196.271996,364.808002 197.04,364.344 C197.808004,363.879998 198.767994,363.648 199.92,363.648 C201.072006,363.648 202.039996,363.879998 202.824,364.344 C203.608004,364.808002 204.231998,365.407996 204.696,366.144 C205.160002,366.880004 205.487999,367.727995 205.68,368.688 C205.872001,369.648 205.968,370.623995 205.968,371.616 C205.968,372.608005 205.872001,373.575995 205.68,374.52 C205.487999,375.464005 205.160002,376.311996 204.696,377.064 C204.231998,377.816004 203.608004,378.415998 202.824,378.864 C202.039996,379.312002 201.072006,379.536 199.92,379.536 C198.767994,379.536 197.808004,379.312002 197.04,378.864 C196.271996,378.415998 195.656002,377.816004 195.192,377.064 C194.727998,376.311996 194.400001,375.464005 194.208,374.52 C194.015999,373.575995 193.92,372.608005 193.92,371.616 Z M187.104,371.616 C187.104,373.60001 187.407997,375.391992 188.016,376.992 C188.624003,378.592008 189.487994,379.959994 190.608,381.096 C191.728006,382.232006 193.071992,383.103997 194.64,383.712 C196.208008,384.320003 197.96799,384.624 199.92,384.624 C201.87201,384.624 203.639992,384.320003 205.224,383.712 C206.808008,383.103997 208.159994,382.232006 209.28,381.096 C210.400006,379.959994 211.263997,378.592008 211.872,376.992 C212.480003,375.391992 212.784,373.60001 212.784,371.616 C212.784,369.63199 212.480003,367.832008 211.872,366.216 C211.263997,364.599992 210.400006,363.224006 209.28,362.088 C208.159994,360.951994 206.808008,360.072003 205.224,359.448 C203.639992,358.823997 201.87201,358.512 199.92,358.512 C197.96799,358.512 196.208008,358.823997 194.64,359.448 C193.071992,360.072003 191.728006,360.951994 190.608,362.088 C189.487994,363.224006 188.624003,364.599992 188.016,366.216 C187.407997,367.832008 187.104,369.63199 187.104,371.616 Z M217.2,359.184 L217.2,384 L224.016,384 L224.016,372.816 C224.016,371.695994 224.127999,370.656005 224.352,369.696 C224.576001,368.735995 224.951997,367.896004 225.48,367.176 C226.008003,366.455996 226.703996,365.888002 227.568,365.472 C228.432004,365.055998 229.487994,364.848 230.736,364.848 C231.152002,364.848 231.583998,364.872 232.032,364.92 C232.480002,364.968 232.863998,365.024 233.184,365.088 L233.184,358.752 C232.639997,358.591999 232.144002,358.512 231.696,358.512 C230.831996,358.512 230.000004,358.639999 229.2,358.896 C228.399996,359.152001 227.648004,359.512 226.944,359.976 C226.239996,360.440002 225.616003,360.999997 225.072,361.656 C224.527997,362.312003 224.096002,363.023996 223.776,363.792 L223.68,363.792 L223.68,359.184 L217.2,359.184 Z M236.496,349.728 L236.496,384 L243.312,384 L243.312,375.456 L245.952,372.912 L252.768,384 L261.024,384 L250.608,368.304 L259.968,359.184 L251.904,359.184 L243.312,368.112 L243.312,349.728 L236.496,349.728 Z M273.696,348.912 L260.352,384.768 L265.776,384.768 L279.168,348.912 L273.696,348.912 Z M289.488,363.6 L289.488,355.584 L296.544,355.584 C297.216003,355.584 297.863997,355.639999 298.488,355.752 C299.112003,355.864001 299.663998,356.063999 300.144,356.352 C300.624002,356.640001 301.007999,357.039997 301.296,357.552 C301.584001,358.064003 301.728,358.719996 301.728,359.52 C301.728,360.960007 301.296004,361.999997 300.432,362.64 C299.567996,363.280003 298.464007,363.6 297.12,363.6 L289.488,363.6 Z M281.952,349.728 L281.952,384 L298.56,384 C300.096008,384 301.591993,383.808002 303.048,383.424 C304.504007,383.039998 305.799994,382.448004 306.936,381.648 C308.072006,380.847996 308.975997,379.816006 309.648,378.552 C310.320003,377.287994 310.656,375.792009 310.656,374.064 C310.656,371.919989 310.136005,370.088008 309.096,368.568 C308.055995,367.047992 306.480011,365.984003 304.368,365.376 C305.904008,364.639996 307.063996,363.696006 307.848,362.544 C308.632004,361.391994 309.024,359.952009 309.024,358.224 C309.024,356.623992 308.760003,355.280005 308.232,354.192 C307.703997,353.103995 306.960005,352.232003 306,351.576 C305.039995,350.919997 303.888007,350.448001 302.544,350.16 C301.199993,349.871999 299.712008,349.728 298.08,349.728 L281.952,349.728 Z M289.488,378.144 L289.488,368.736 L297.696,368.736 C299.328008,368.736 300.639995,369.111996 301.632,369.864 C302.624005,370.616004 303.12,371.871991 303.12,373.632 C303.12,374.528004 302.968002,375.263997 302.664,375.84 C302.359998,376.416003 301.952003,376.871998 301.44,377.208 C300.927997,377.544002 300.336003,377.783999 299.664,377.928 C298.991997,378.072001 298.288004,378.144 297.552,378.144 L289.488,378.144 Z M321.072,371.616 C321.072,370.623995 321.167999,369.648 321.36,368.688 C321.552001,367.727995 321.879998,366.880004 322.344,366.144 C322.808002,365.407996 323.423996,364.808002 324.192,364.344 C324.960004,363.879998 325.919994,363.648 327.072,363.648 C328.224006,363.648 329.191996,363.879998 329.976,364.344 C330.760004,364.808002 331.383998,365.407996 331.848,366.144 C332.312002,366.880004 332.639999,367.727995 332.832,368.688 C333.024001,369.648 333.12,370.623995 333.12,371.616 C333.12,372.608005 333.024001,373.575995 332.832,374.52 C332.639999,375.464005 332.312002,376.311996 331.848,377.064 C331.383998,377.816004 330.760004,378.415998 329.976,378.864 C329.191996,379.312002 328.224006,379.536 327.072,379.536 C325.919994,379.536 324.960004,379.312002 324.192,378.864 C323.423996,378.415998 322.808002,377.816004 322.344,377.064 C321.879998,376.311996 321.552001,375.464005 321.36,374.52 C321.167999,373.575995 321.072,372.608005 321.072,371.616 Z M314.256,371.616 C314.256,373.60001 314.559997,375.391992 315.168,376.992 C315.776003,378.592008 316.639994,379.959994 317.76,381.096 C318.880006,382.232006 320.223992,383.103997 321.792,383.712 C323.360008,384.320003 325.11999,384.624 327.072,384.624 C329.02401,384.624 330.791992,384.320003 332.376,383.712 C333.960008,383.103997 335.311994,382.232006 336.432,381.096 C337.552006,379.959994 338.415997,378.592008 339.024,376.992 C339.632003,375.391992 339.936,373.60001 339.936,371.616 C339.936,369.63199 339.632003,367.832008 339.024,366.216 C338.415997,364.599992 337.552006,363.224006 336.432,362.088 C335.311994,360.951994 333.960008,360.072003 332.376,359.448 C330.791992,358.823997 329.02401,358.512 327.072,358.512 C325.11999,358.512 323.360008,358.823997 321.792,359.448 C320.223992,360.072003 318.880006,360.951994 317.76,362.088 C316.639994,363.224006 315.776003,364.599992 315.168,366.216 C314.559997,367.832008 314.256,369.63199 314.256,371.616 Z M367.632,384 L367.632,359.184 L360.816,359.184 L360.816,372.192 C360.816,374.720013 360.400004,376.535994 359.568,377.64 C358.735996,378.744006 357.392009,379.296 355.536,379.296 C353.903992,379.296 352.768003,378.792005 352.128,377.784 C351.487997,376.775995 351.168,375.24801 351.168,373.2 L351.168,359.184 L344.352,359.184 L344.352,374.448 C344.352,375.984008 344.487999,377.383994 344.76,378.648 C345.032001,379.912006 345.503997,380.983996 346.176,381.864 C346.848003,382.744004 347.767994,383.423998 348.936,383.904 C350.104006,384.384002 351.599991,384.624 353.424,384.624 C354.864007,384.624 356.271993,384.304003 357.648,383.664 C359.024007,383.023997 360.143996,381.984007 361.008,380.544 L361.152,380.544 L361.152,384 L367.632,384 Z M372.816,359.184 L372.816,384 L379.632,384 L379.632,370.992 C379.632,368.463987 380.047996,366.648006 380.88,365.544 C381.712004,364.439994 383.055991,363.888 384.912,363.888 C386.544008,363.888 387.679997,364.391995 388.32,365.4 C388.960003,366.408005 389.28,367.93599 389.28,369.984 L389.28,384 L396.096,384 L396.096,368.736 C396.096,367.199992 395.960001,365.800006 395.688,364.536 C395.415999,363.271994 394.944003,362.200004 394.272,361.32 C393.599997,360.439996 392.680006,359.752002 391.512,359.256 C390.343994,358.759998 388.848009,358.512 387.024,358.512 C385.583993,358.512 384.176007,358.839997 382.8,359.496 C381.423993,360.152003 380.304004,361.199993 379.44,362.64 L379.296,362.64 L379.296,359.184 L372.816,359.184 Z M409.92,359.184 L409.92,351.744 L403.104,351.744 L403.104,359.184 L398.976,359.184 L398.976,363.744 L403.104,363.744 L403.104,378.384 C403.104,379.632006 403.311998,380.639996 403.728,381.408 C404.144002,382.176004 404.711996,382.767998 405.432,383.184 C406.152004,383.600002 406.983995,383.879999 407.928,384.024 C408.872005,384.168001 409.871995,384.24 410.928,384.24 C411.600003,384.24 412.287996,384.224 412.992,384.192 C413.696004,384.16 414.335997,384.096 414.912,384 L414.912,378.72 C414.591998,378.784 414.256002,378.832 413.904,378.864 C413.551998,378.896 413.184002,378.912 412.8,378.912 C411.647994,378.912 410.880002,378.720002 410.496,378.336 C410.111998,377.951998 409.92,377.184006 409.92,376.032 L409.92,363.744 L414.912,363.744 L414.912,359.184 L409.92,359.184 Z M425.184,355.344 L425.184,349.728 L418.368,349.728 L418.368,355.344 L425.184,355.344 Z M418.368,359.184 L418.368,384 L425.184,384 L425.184,359.184 L418.368,359.184 Z M447.264,368.928 L436.176,368.928 C436.208,368.447998 436.311999,367.904003 436.488,367.296 C436.664001,366.687997 436.967998,366.112003 437.4,365.568 C437.832002,365.023997 438.407996,364.568002 439.128,364.2 C439.848004,363.831998 440.751995,363.648 441.84,363.648 C443.504008,363.648 444.743996,364.095996 445.56,364.992 C446.376004,365.888004 446.943998,367.199991 447.264,368.928 Z M436.176,373.248 L454.08,373.248 C454.208001,371.32799 454.048002,369.488009 453.6,367.728 C453.151998,365.967991 452.424005,364.400007 451.416,363.024 C450.407995,361.647993 449.120008,360.552004 447.552,359.736 C445.983992,358.919996 444.144011,358.512 442.032,358.512 C440.143991,358.512 438.424008,358.847997 436.872,359.52 C435.319992,360.192003 433.984006,361.111994 432.864,362.28 C431.743994,363.448006 430.880003,364.831992 430.272,366.432 C429.663997,368.032008 429.36,369.759991 429.36,371.616 C429.36,373.53601 429.655997,375.295992 430.248,376.896 C430.840003,378.496008 431.679995,379.871994 432.768,381.024 C433.856005,382.176006 435.183992,383.063997 436.752,383.688 C438.320008,384.312003 440.07999,384.624 442.032,384.624 C444.848014,384.624 447.24799,383.984006 449.232,382.704 C451.21601,381.423994 452.687995,379.296015 453.648,376.32 L447.648,376.32 C447.423999,377.088004 446.816005,377.815997 445.824,378.504 C444.831995,379.192003 443.648007,379.536 442.272,379.536 C440.35199,379.536 438.880005,379.040005 437.856,378.048 C436.831995,377.055995 436.272,375.456011 436.176,373.248 Z M463.392,375.936 L456.912,375.936 C456.976,377.600008 457.351997,378.983994 458.04,380.088 C458.728003,381.192006 459.607995,382.079997 460.68,382.752 C461.752005,383.424003 462.975993,383.903999 464.352,384.192 C465.728007,384.480001 467.135993,384.624 468.576,384.624 C469.984007,384.624 471.367993,384.488001 472.728,384.216 C474.088007,383.943999 475.295995,383.472003 476.352,382.8 C477.408005,382.127997 478.263997,381.240006 478.92,380.136 C479.576003,379.031994 479.904,377.664008 479.904,376.032 C479.904,374.879994 479.680002,373.912004 479.232,373.128 C478.783998,372.343996 478.192004,371.688003 477.456,371.16 C476.719996,370.631997 475.880005,370.208002 474.936,369.888 C473.991995,369.567998 473.024005,369.296001 472.032,369.072 C471.071995,368.847999 470.128005,368.640001 469.2,368.448 C468.271995,368.255999 467.448004,368.040001 466.728,367.8 C466.007996,367.559999 465.424002,367.248002 464.976,366.864 C464.527998,366.479998 464.304,365.984003 464.304,365.376 C464.304,364.863997 464.431999,364.456002 464.688,364.152 C464.944001,363.847998 465.255998,363.616001 465.624,363.456 C465.992002,363.295999 466.399998,363.192 466.848,363.144 C467.296002,363.096 467.711998,363.072 468.096,363.072 C469.312006,363.072 470.367996,363.303998 471.264,363.768 C472.160004,364.232002 472.656,365.119993 472.752,366.432 L479.232,366.432 C479.103999,364.895992 478.712003,363.624005 478.056,362.616 C477.399997,361.607995 476.576005,360.800003 475.584,360.192 C474.591995,359.583997 473.464006,359.152001 472.2,358.896 C470.935994,358.639999 469.632007,358.512 468.288,358.512 C466.943993,358.512 465.632006,358.631999 464.352,358.872 C463.071994,359.112001 461.920005,359.527997 460.896,360.12 C459.871995,360.712003 459.048003,361.519995 458.424,362.544 C457.799997,363.568005 457.488,364.879992 457.488,366.48 C457.488,367.568005 457.711998,368.487996 458.16,369.24 C458.608002,369.992004 459.199996,370.615998 459.936,371.112 C460.672004,371.608002 461.511995,372.007998 462.456,372.312 C463.400005,372.616002 464.367995,372.879999 465.36,373.104 C467.792012,373.616003 469.687993,374.127997 471.048,374.64 C472.408007,375.152003 473.088,375.919995 473.088,376.944 C473.088,377.552003 472.944001,378.055998 472.656,378.456 C472.367999,378.856002 472.008002,379.175999 471.576,379.416 C471.143998,379.656001 470.664003,379.831999 470.136,379.944 C469.607997,380.056001 469.104002,380.112 468.624,380.112 C467.951997,380.112 467.304003,380.032001 466.68,379.872 C466.055997,379.711999 465.504002,379.464002 465.024,379.128 C464.543998,378.791998 464.152002,378.360003 463.848,377.832 C463.543998,377.303997 463.392,376.672004 463.392,375.936 Z M224.688,422.856 L224.688,412.584 L230.544,412.584 C231.408004,412.584 232.239996,412.647999 233.04,412.776 C233.840004,412.904001 234.543997,413.151998 235.152,413.52 C235.760003,413.888002 236.247998,414.407997 236.616,415.08 C236.984002,415.752003 237.168,416.631995 237.168,417.72 C237.168,418.808005 236.984002,419.687997 236.616,420.36 C236.247998,421.032003 235.760003,421.551998 235.152,421.92 C234.543997,422.288002 233.840004,422.535999 233.04,422.664 C232.239996,422.792001 231.408004,422.856 230.544,422.856 L224.688,422.856 Z M217.152,406.728 L217.152,441 L224.688,441 L224.688,428.712 L232.608,428.712 C234.752011,428.712 236.575992,428.400003 238.08,427.776 C239.584008,427.151997 240.807995,426.328005 241.752,425.304 C242.696005,424.279995 243.383998,423.104007 243.816,421.776 C244.248002,420.447993 244.464,419.096007 244.464,417.72 C244.464,416.311993 244.248002,414.952007 243.816,413.64 C243.383998,412.327993 242.696005,411.160005 241.752,410.136 C240.807995,409.111995 239.584008,408.288003 238.08,407.664 C236.575992,407.039997 234.752011,406.728 232.608,406.728 L217.152,406.728 Z M248.64,406.728 L248.64,441 L255.456,441 L255.456,406.728 L248.64,406.728 Z M260.544,423.816 C260.64,422.215992 261.039996,420.888005 261.744,419.832 C262.448004,418.775995 263.343995,417.928003 264.432,417.288 C265.520005,416.647997 266.743993,416.192001 268.104,415.92 C269.464007,415.647999 270.831993,415.512 272.208,415.512 C273.456006,415.512 274.719994,415.599999 276,415.776 C277.280006,415.952001 278.447995,416.295997 279.504,416.808 C280.560005,417.320003 281.423997,418.031995 282.096,418.944 C282.768003,419.856005 283.104,421.063992 283.104,422.568 L283.104,435.48 C283.104,436.600006 283.167999,437.671995 283.296,438.696 C283.424001,439.720005 283.647998,440.487997 283.968,441 L277.056,441 C276.927999,440.615998 276.824,440.224002 276.744,439.824 C276.664,439.423998 276.608,439.016002 276.576,438.6 C275.487995,439.720006 274.208007,440.503998 272.736,440.952 C271.263993,441.400002 269.760008,441.624 268.224,441.624 C267.039994,441.624 265.936005,441.480001 264.912,441.192 C263.887995,440.903999 262.992004,440.456003 262.224,439.848 C261.455996,439.239997 260.856002,438.472005 260.424,437.544 C259.991998,436.615995 259.776,435.512 259.776,434.232 C259.776,432.823993 260.023998,431.664005 260.52,430.752 C261.016002,429.839995 261.655996,429.112003 262.44,428.568 C263.224004,428.023997 264.119995,427.616001 265.128,427.344 C266.136005,427.071999 267.151995,426.856001 268.176,426.696 C268.944004,426.575999 269.702999,426.474 270.452999,426.39 L271.2,426.312 C272.192005,426.216 273.071996,426.072001 273.84,425.88 C274.608004,425.687999 275.215998,425.408002 275.664,425.04 C276.071275,424.705453 276.280199,424.232069 276.290777,423.619835 L276.288,423.432 C276.288,422.695996 276.168001,422.112002 275.928,421.68 C275.687999,421.247998 275.368002,420.912001 274.968,420.672 C274.567998,420.431999 274.104003,420.272 273.576,420.192 C273.047997,420.112 272.480003,420.072 271.872,420.072 C270.527993,420.072 269.472004,420.359997 268.704,420.936 C267.935996,421.512 267.488001,422.471993 267.36,423.816 L260.544,423.816 Z M276.288,428.856 C275.999999,429.112001 275.640002,429.311999 275.208,429.456 C274.775998,429.600001 274.312002,429.72 273.816,429.816 C273.485332,429.88 273.144,429.936889 272.792001,429.986667 L272.256,430.056 C271.711997,430.12 271.168003,430.2 270.624,430.296 C270.111997,430.392 269.608002,430.519999 269.112,430.68 C268.615998,430.840001 268.184002,431.055999 267.816,431.328 C267.447998,431.600001 267.152001,431.943998 266.928,432.36 C266.703999,432.776002 266.592,433.303997 266.592,433.944 C266.592,434.552003 266.703999,435.063998 266.928,435.48 C267.152001,435.896002 267.455998,436.223999 267.84,436.464 C268.224002,436.704001 268.671997,436.872 269.184,436.968 C269.696003,437.064 270.223997,437.112 270.768,437.112 C272.112007,437.112 273.151996,436.888002 273.888,436.44 C274.624004,435.991998 275.167998,435.456003 275.52,434.832 C275.872002,434.207997 276.088,433.576003 276.168,432.936 L276.226776,432.418774 C276.267592,432.013877 276.288,431.674287 276.288,431.4 L276.288,428.856 Z M297.024,416.184 L297.024,408.744 L290.208,408.744 L290.208,416.184 L286.08,416.184 L286.08,420.744 L290.208,420.744 L290.208,435.384 C290.208,436.632006 290.415998,437.639996 290.832,438.408 C291.248002,439.176004 291.815996,439.767998 292.536,440.184 C293.256004,440.600002 294.087995,440.879999 295.032,441.024 C295.976005,441.168001 296.975995,441.24 298.032,441.24 C298.704003,441.24 299.391996,441.224 300.096,441.192 C300.800004,441.16 301.439997,441.096 302.016,441 L302.016,435.72 C301.695998,435.784 301.360002,435.832 301.008,435.864 C300.655998,435.896 300.288002,435.912 299.904,435.912 C298.751994,435.912 297.984002,435.720002 297.6,435.336 C297.215998,434.951998 297.024,434.184006 297.024,433.032 L297.024,420.744 L302.016,420.744 L302.016,416.184 L297.024,416.184 Z M306.768,420.744 L306.768,441 L313.584,441 L313.584,420.744 L318.288,420.744 L318.288,416.184 L313.584,416.184 L313.584,414.696 C313.584,413.671995 313.783998,412.944002 314.184,412.512 C314.584002,412.079998 315.247995,411.864 316.176,411.864 C317.040004,411.864 317.871996,411.912 318.672,412.008 L318.672,406.92 C318.095997,406.888 317.504003,406.848 316.896,406.8 C316.287997,406.752 315.680003,406.728 315.072,406.728 C312.287986,406.728 310.208007,407.431993 308.832,408.84 C307.455993,410.248007 306.768,412.055989 306.768,414.264 L306.768,416.184 L302.688,416.184 L302.688,420.744 L306.768,420.744 Z M327.312,428.616 C327.312,427.623995 327.407999,426.648 327.6,425.688 C327.792001,424.727995 328.119998,423.880004 328.584,423.144 C329.048002,422.407996 329.663996,421.808002 330.432,421.344 C331.200004,420.879998 332.159994,420.648 333.312,420.648 C334.464006,420.648 335.431996,420.879998 336.216,421.344 C337.000004,421.808002 337.623998,422.407996 338.088,423.144 C338.552002,423.880004 338.879999,424.727995 339.072,425.688 C339.264001,426.648 339.36,427.623995 339.36,428.616 C339.36,429.608005 339.264001,430.575995 339.072,431.52 C338.879999,432.464005 338.552002,433.311996 338.088,434.064 C337.623998,434.816004 337.000004,435.415998 336.216,435.864 C335.431996,436.312002 334.464006,436.536 333.312,436.536 C332.159994,436.536 331.200004,436.312002 330.432,435.864 C329.663996,435.415998 329.048002,434.816004 328.584,434.064 C328.119998,433.311996 327.792001,432.464005 327.6,431.52 C327.407999,430.575995 327.312,429.608005 327.312,428.616 Z M320.496,428.616 C320.496,430.60001 320.799997,432.391992 321.408,433.992 C322.016003,435.592008 322.879994,436.959994 324,438.096 C325.120006,439.232006 326.463992,440.103997 328.032,440.712 C329.600008,441.320003 331.35999,441.624 333.312,441.624 C335.26401,441.624 337.031992,441.320003 338.616,440.712 C340.200008,440.103997 341.551994,439.232006 342.672,438.096 C343.792006,436.959994 344.655997,435.592008 345.264,433.992 C345.872003,432.391992 346.176,430.60001 346.176,428.616 C346.176,426.63199 345.872003,424.832008 345.264,423.216 C344.655997,421.599992 343.792006,420.224006 342.672,419.088 C341.551994,417.951994 340.200008,417.072003 338.616,416.448 C337.031992,415.823997 335.26401,415.512 333.312,415.512 C331.35999,415.512 329.600008,415.823997 328.032,416.448 C326.463992,417.072003 325.120006,417.951994 324,419.088 C322.879994,420.224006 322.016003,421.599992 321.408,423.216 C320.799997,424.832008 320.496,426.63199 320.496,428.616 Z M350.592,416.184 L350.592,441 L357.408,441 L357.408,429.816 C357.408,428.695994 357.519999,427.656005 357.744,426.696 C357.968001,425.735995 358.343997,424.896004 358.872,424.176 C359.400003,423.455996 360.095996,422.888002 360.96,422.472 C361.824004,422.055998 362.879994,421.848 364.128,421.848 C364.544002,421.848 364.975998,421.872 365.424,421.92 C365.872002,421.968 366.255998,422.024 366.576,422.088 L366.576,415.752 C366.031997,415.591999 365.536002,415.512 365.088,415.512 C364.223996,415.512 363.392004,415.639999 362.592,415.896 C361.791996,416.152001 361.040004,416.512 360.336,416.976 C359.631996,417.440002 359.008003,417.999997 358.464,418.656 C357.919997,419.312003 357.488002,420.023996 357.168,420.792 L357.072,420.792 L357.072,416.184 L350.592,416.184 Z M369.456,416.184 L375.888,416.184 L375.888,419.544 L375.984,419.544 C376.880004,418.263994 377.959994,417.272004 379.224,416.568 C380.488006,415.863996 381.935992,415.512 383.568,415.512 C385.136008,415.512 386.567994,415.815997 387.864,416.424 C389.160006,417.032003 390.143997,418.103992 390.816,419.64 C391.552004,418.551995 392.551994,417.592004 393.816,416.76 C395.080006,415.927996 396.575991,415.512 398.304,415.512 C399.616007,415.512 400.831994,415.671998 401.952,415.992 C403.072006,416.312002 404.031996,416.823996 404.832,417.528 C405.632004,418.232004 406.255998,419.151994 406.704,420.288 C407.152002,421.424006 407.376,422.791992 407.376,424.392 L407.376,441 L400.56,441 L400.56,426.936 C400.56,426.103996 400.528,425.320004 400.464,424.584 C400.4,423.847996 400.224001,423.208003 399.936,422.664 C399.647999,422.119997 399.224003,421.688002 398.664,421.368 C398.103997,421.047998 397.344005,420.888 396.384,420.888 C395.423995,420.888 394.648003,421.071998 394.056,421.44 C393.463997,421.808002 393.000002,422.287997 392.664,422.88 C392.327998,423.472003 392.104001,424.143996 391.992,424.896 C391.879999,425.648004 391.824,426.407996 391.824,427.176 L391.824,441 L385.008,441 L385.008,427.08 C385.008,426.343996 384.992,425.616004 384.96,424.896 C384.928,424.175996 384.792001,423.512 384.552,422.904 C384.311999,422.295997 383.912003,421.808002 383.352,421.44 C382.791997,421.071998 381.968005,420.888 380.88,420.888 C380.559998,420.888 380.136003,420.959999 379.608,421.104 C379.079997,421.248001 378.568002,421.519998 378.072,421.92 C377.575998,422.320002 377.152002,422.895996 376.8,423.648 C376.447998,424.400004 376.272,425.383994 376.272,426.6 L376.272,441 L369.456,441 L369.456,416.184 Z" id="Work/BountiesPlatform" fill="#FFFFFF" fill-rule="nonzero"></path>
        <g id="laptop-code-solid" transform="translate(267.000000, 235.000000)" fill="#9013FE" fill-rule="nonzero">
            <path d="M35.6807161,36.337946 C36.5413859,37.2206847 37.9363596,37.2206847 38.7970295,36.337946 L40.3544976,34.7405421 C41.2151675,33.8578034 41.2151675,32.4270606 40.3544976,31.5443219 L35.4355973,26.5007062 L40.3531205,21.4556781 C41.2137904,20.5729394 41.2137904,19.1421966 40.3531205,18.2594579 L38.7956524,16.662054 C37.9349825,15.7793153 36.5400089,15.7793153 35.679339,16.662054 L27.6455024,24.9018899 C26.7848325,25.7846286 26.7848325,27.2153714 27.6455024,28.0981101 L35.6807161,36.337946 L35.6807161,36.337946 Z M49.6455659,35.7405421 L51.2031873,37.337946 C52.0639418,38.2206847 53.4590527,38.2206847 54.3198072,37.337946 L62.3544341,29.0981101 C63.2151886,28.2153714 63.2151886,26.7846286 62.3544341,25.9018899 L54.3198072,17.662054 C53.4590527,16.7793153 52.0639418,16.7793153 51.2031873,17.662054 L49.6455659,19.2594579 C48.7848114,20.1421966 48.7848114,21.5729394 49.6455659,22.4556781 L54.5635729,27.4992938 L49.6455659,32.5443219 C48.7848114,33.4270606 48.7848114,34.8578034 49.6455659,35.7405421 L49.6455659,35.7405421 Z M87.75,59 L53.6540625,59 C53.55,61.6826042 51.5854688,63.3333333 49.05,63.3333333 L40.5,63.3333333 C37.8717187,63.3333333 35.8565625,60.9676042 35.8917188,59 L2.25,59 C1.0125,59 0,59.975 0,61.1666667 L0,63.3333333 C0,68.1 4.05,72 9,72 L81,72 C85.95,72 90,68.1 90,63.3333333 L90,61.1666667 C90,59.975 88.9875,59 87.75,59 Z M81,6.75 C81,3.0375 77.9625,0 74.25,0 L15.75,0 C12.0375,0 9,3.0375 9,6.75 L9,54 L81,54 L81,6.75 Z M72,45 L18,45 L18,9 L72,9 L72,45 Z" id="Shape"></path>
        </g>
        <path d="M521.976,108.664 L521.976,87.064 L527.352,87.064 C529.208009,87.064 530.767994,87.3279974 532.032,87.856 C533.296006,88.3840026 534.311996,89.143995 535.08,90.136 C535.848004,91.128005 536.399998,92.319993 536.736,93.712 C537.072002,95.104007 537.24,96.6639914 537.24,98.392 C537.24,100.280009 537.000002,101.879993 536.52,103.192 C536.039998,104.504007 535.400004,105.567996 534.6,106.384 C533.799996,107.200004 532.888005,107.783998 531.864,108.136 C530.839995,108.488002 529.784005,108.664 528.696,108.664 L521.976,108.664 Z M514.44,80.728 L514.44,115 L529.224,115 C531.848013,115 534.12799,114.560004 536.064,113.68 C538.00001,112.799996 539.615994,111.592008 540.912,110.056 C542.208006,108.519992 543.175997,106.696011 543.816,104.584 C544.456003,102.471989 544.776,100.168012 544.776,97.672 C544.776,94.8239858 544.384004,92.3440106 543.6,90.232 C542.815996,88.1199894 541.728007,86.360007 540.336,84.952 C538.943993,83.543993 537.29601,82.4880035 535.392,81.784 C533.48799,81.0799965 531.432011,80.728 529.224,80.728 L514.44,80.728 Z M556.296,86.344 L556.296,80.728 L549.48,80.728 L549.48,86.344 L556.296,86.344 Z M549.48,90.184 L549.48,115 L556.296,115 L556.296,90.184 L549.48,90.184 Z M566.952,106.936 L560.472,106.936 C560.536,108.600008 560.911997,109.983994 561.6,111.088 C562.288003,112.192006 563.167995,113.079997 564.24,113.752 C565.312005,114.424003 566.535993,114.903999 567.912,115.192 C569.288007,115.480001 570.695993,115.624 572.136,115.624 C573.544007,115.624 574.927993,115.488001 576.288,115.216 C577.648007,114.943999 578.855995,114.472003 579.912,113.8 C580.968005,113.127997 581.823997,112.240006 582.48,111.136 C583.136003,110.031994 583.464,108.664008 583.464,107.032 C583.464,105.879994 583.240002,104.912004 582.792,104.128 C582.343998,103.343996 581.752004,102.688003 581.016,102.16 C580.279996,101.631997 579.440005,101.208002 578.496,100.888 C577.551995,100.567998 576.584005,100.296001 575.592,100.072 C574.631995,99.8479989 573.688005,99.640001 572.76,99.448 C571.831995,99.255999 571.008004,99.0400012 570.288,98.8 C569.567996,98.5599988 568.984002,98.2480019 568.536,97.864 C568.087998,97.4799981 567.864,96.984003 567.864,96.376 C567.864,95.8639974 567.991999,95.4560015 568.248,95.152 C568.504001,94.8479985 568.815998,94.6160008 569.184,94.456 C569.552002,94.2959992 569.959998,94.1920002 570.408,94.144 C570.856002,94.0959998 571.271998,94.072 571.656,94.072 C572.872006,94.072 573.927996,94.3039977 574.824,94.768 C575.720004,95.2320023 576.216,96.1199934 576.312,97.432 L582.792,97.432 C582.663999,95.8959923 582.272003,94.624005 581.616,93.616 C580.959997,92.607995 580.136005,91.800003 579.144,91.192 C578.151995,90.583997 577.024006,90.1520013 575.76,89.896 C574.495994,89.6399987 573.192007,89.512 571.848,89.512 C570.503993,89.512 569.192006,89.6319988 567.912,89.872 C566.631994,90.1120012 565.480005,90.527997 564.456,91.12 C563.431995,91.712003 562.608003,92.5199949 561.984,93.544 C561.359997,94.5680051 561.048,95.879992 561.048,97.48 C561.048,98.5680054 561.271998,99.4879962 561.72,100.24 C562.168002,100.992004 562.759996,101.615998 563.496,102.112 C564.232004,102.608002 565.071995,103.007998 566.016,103.312 C566.960005,103.616002 567.927995,103.879999 568.92,104.104 C571.352012,104.616003 573.247993,105.127997 574.608,105.64 C575.968007,106.152003 576.648,106.919995 576.648,107.944 C576.648,108.552003 576.504001,109.055998 576.216,109.456 C575.927999,109.856002 575.568002,110.175999 575.136,110.416 C574.703998,110.656001 574.224003,110.831999 573.696,110.944 C573.167997,111.056001 572.664002,111.112 572.184,111.112 C571.511997,111.112 570.864003,111.032001 570.24,110.872 C569.615997,110.711999 569.064002,110.464002 568.584,110.128 C568.103998,109.791998 567.712002,109.360003 567.408,108.832 C567.103998,108.303997 566.952,107.672004 566.952,106.936 Z M599.976,110.536 C598.887995,110.536 597.960004,110.312002 597.192,109.864 C596.423996,109.415998 595.808002,108.832004 595.344,108.112 C594.879998,107.391996 594.544001,106.552005 594.336,105.592 C594.127999,104.631995 594.024,103.656005 594.024,102.664 C594.024,101.639995 594.119999,100.648 594.312,99.688 C594.504001,98.7279952 594.831998,97.8800037 595.296,97.144 C595.760002,96.4079963 596.367996,95.8080023 597.12,95.344 C597.872004,94.8799977 598.807994,94.648 599.928,94.648 C601.016005,94.648 601.935996,94.8799977 602.688,95.344 C603.440004,95.8080023 604.055998,96.4159962 604.536,97.168 C605.016002,97.9200038 605.359999,98.7759952 605.568,99.736 C605.776001,100.696005 605.88,101.671995 605.88,102.664 C605.88,103.656005 605.784001,104.631995 605.592,105.592 C605.399999,106.552005 605.072002,107.391996 604.608,108.112 C604.143998,108.832004 603.536004,109.415998 602.784,109.864 C602.031996,110.312002 601.096006,110.536 599.976,110.536 Z M587.448,90.184 L587.448,123.688 L594.264,123.688 L594.264,111.928 L594.36,111.928 C595.192004,113.144006 596.255994,114.063997 597.552,114.688 C598.848006,115.312003 600.263992,115.624 601.8,115.624 C603.624009,115.624 605.215993,115.272004 606.576,114.568 C607.936007,113.863996 609.071995,112.920006 609.984,111.736 C610.896005,110.551994 611.575998,109.192008 612.024,107.656 C612.472002,106.119992 612.696,104.520008 612.696,102.856 C612.696,101.095991 612.472002,99.4080081 612.024,97.792 C611.575998,96.1759919 610.888005,94.7600061 609.96,93.544 C609.031995,92.3279939 607.864007,91.3520037 606.456,90.616 C605.047993,89.8799963 603.36801,89.512 601.416,89.512 C599.879992,89.512 598.472006,89.815997 597.192,90.424 C595.911994,91.032003 594.856004,92.0079933 594.024,93.352 L593.928,93.352 L593.928,90.184 L587.448,90.184 Z M640.056,115 L640.056,90.184 L633.24,90.184 L633.24,103.192 C633.24,105.720013 632.824004,107.535994 631.992,108.64 C631.159996,109.744006 629.816009,110.296 627.96,110.296 C626.327992,110.296 625.192003,109.792005 624.552,108.784 C623.911997,107.775995 623.592,106.24801 623.592,104.2 L623.592,90.184 L616.776,90.184 L616.776,105.448 C616.776,106.984008 616.911999,108.383994 617.184,109.648 C617.456001,110.912006 617.927997,111.983996 618.6,112.864 C619.272003,113.744004 620.191994,114.423998 621.36,114.904 C622.528006,115.384002 624.023991,115.624 625.848,115.624 C627.288007,115.624 628.695993,115.304003 630.072,114.664 C631.448007,114.023997 632.567996,112.984007 633.432,111.544 L633.576,111.544 L633.576,115 L640.056,115 Z M653.88,90.184 L653.88,82.744 L647.064,82.744 L647.064,90.184 L642.936,90.184 L642.936,94.744 L647.064,94.744 L647.064,109.384 C647.064,110.632006 647.271998,111.639996 647.688,112.408 C648.104002,113.176004 648.671996,113.767998 649.392,114.184 C650.112004,114.600002 650.943995,114.879999 651.888,115.024 C652.832005,115.168001 653.831995,115.24 654.888,115.24 C655.560003,115.24 656.247996,115.224 656.952,115.192 C657.656004,115.16 658.295997,115.096 658.872,115 L658.872,109.72 C658.551998,109.784 658.216002,109.832 657.864,109.864 C657.511998,109.896 657.144002,109.912 656.76,109.912 C655.607994,109.912 654.840002,109.720002 654.456,109.336 C654.071998,108.951998 653.88,108.184006 653.88,107.032 L653.88,94.744 L658.872,94.744 L658.872,90.184 L653.88,90.184 Z M678.84,99.928 L667.752,99.928 C667.784,99.4479976 667.887999,98.904003 668.064,98.296 C668.240001,97.687997 668.543998,97.1120027 668.976,96.568 C669.408002,96.0239973 669.983996,95.5680018 670.704,95.2 C671.424004,94.8319982 672.327995,94.648 673.416,94.648 C675.080008,94.648 676.319996,95.0959955 677.136,95.992 C677.952004,96.8880045 678.519998,98.1999914 678.84,99.928 Z M667.752,104.248 L685.656,104.248 C685.784001,102.32799 685.624002,100.488009 685.176,98.728 C684.727998,96.9679912 684.000005,95.4000069 682.992,94.024 C681.983995,92.6479931 680.696008,91.5520041 679.128,90.736 C677.559992,89.9199959 675.720011,89.512 673.608,89.512 C671.719991,89.512 670.000008,89.8479966 668.448,90.52 C666.895992,91.1920034 665.560006,92.1119942 664.44,93.28 C663.319994,94.4480058 662.456003,95.831992 661.848,97.432 C661.239997,99.032008 660.936,100.759991 660.936,102.616 C660.936,104.53601 661.231997,106.295992 661.824,107.896 C662.416003,109.496008 663.255995,110.871994 664.344,112.024 C665.432005,113.176006 666.759992,114.063997 668.328,114.688 C669.896008,115.312003 671.65599,115.624 673.608,115.624 C676.424014,115.624 678.82399,114.984006 680.808,113.704 C682.79201,112.423994 684.263995,110.296015 685.224,107.32 L679.224,107.32 C678.999999,108.088004 678.392005,108.815997 677.4,109.504 C676.407995,110.192003 675.224007,110.536 673.848,110.536 C671.92799,110.536 670.456005,110.040005 669.432,109.048 C668.407995,108.055995 667.848,106.456011 667.752,104.248 Z M694.968,106.936 C694.968,107.672004 695.119998,108.303997 695.424,108.832 C695.728002,109.360003 696.119998,109.791998 696.6,110.128 C697.080002,110.464002 697.631997,110.711999 698.256,110.872 C698.880003,111.032001 699.527997,111.112 700.2,111.112 C700.680002,111.112 701.183997,111.056001 701.712,110.944 C702.240003,110.831999 702.719998,110.656001 703.152,110.416 C703.584002,110.175999 703.943999,109.856002 704.232,109.456 C704.520001,109.055998 704.664,108.552003 704.664,107.944 C704.664,106.919995 703.984007,106.152003 702.624,105.64 C701.263993,105.127997 699.368012,104.616003 696.936,104.104 C695.943995,103.879999 694.976005,103.616002 694.032,103.312 C693.087995,103.007998 692.248004,102.608002 691.512,102.112 C690.775996,101.615998 690.184002,100.992004 689.736,100.24 C689.287998,99.4879962 689.064,98.5680054 689.064,97.48 C689.064,95.879992 689.375997,94.5680051 690,93.544 C690.624003,92.5199949 691.447995,91.712003 692.472,91.12 C693.496005,90.527997 694.647994,90.1120012 695.928,89.872 C697.208006,89.6319988 698.519993,89.512 699.864,89.512 C701.208007,89.512 702.511994,89.6399987 703.776,89.896 C705.040006,90.1520013 706.167995,90.583997 707.16,91.192 C708.152005,91.800003 708.975997,92.607995 709.632,93.616 C710.288003,94.624005 710.679999,95.8959923 710.808,97.432 L704.328,97.432 C704.232,96.1199934 703.736004,95.2320023 702.84,94.768 C701.943996,94.3039977 700.888006,94.072 699.672,94.072 C699.287998,94.072 698.872002,94.0959998 698.424,94.144 C697.975998,94.1920002 697.568002,94.2959992 697.2,94.456 C696.831998,94.6160008 696.520001,94.8479985 696.264,95.152 C696.007999,95.4560015 695.88,95.8639974 695.88,96.376 C695.88,96.984003 696.103998,97.4799981 696.552,97.864 C697.000002,98.2480019 697.583996,98.5599988 698.304,98.8 C699.024004,99.0400012 699.847995,99.255999 700.776,99.448 C701.704005,99.640001 702.647995,99.8479989 703.608,100.072 C704.600005,100.296001 705.567995,100.567998 706.512,100.888 C707.456005,101.208002 708.295996,101.631997 709.032,102.16 C709.768004,102.688003 710.359998,103.343996 710.808,104.128 C711.256002,104.912004 711.48,105.879994 711.48,107.032 C711.48,108.664008 711.152003,110.031994 710.496,111.136 C709.839997,112.240006 708.984005,113.127997 707.928,113.8 C706.871995,114.472003 705.664007,114.943999 704.304,115.216 C702.943993,115.488001 701.560007,115.624 700.152,115.624 C698.711993,115.624 697.304007,115.480001 695.928,115.192 C694.551993,114.903999 693.328005,114.424003 692.256,113.752 C691.183995,113.079997 690.304003,112.192006 689.616,111.088 C688.927997,109.983994 688.552,108.600008 688.488,106.936 L694.968,106.936 Z" id="Disputes" fill="#FFFFFF" fill-rule="nonzero"></path>
        <path d="M510.456,684.664 L510.456,663.064 L515.832,663.064 C517.688009,663.064 519.247994,663.327997 520.512,663.856 C521.776006,664.384003 522.791996,665.143995 523.56,666.136 C524.328004,667.128005 524.879998,668.319993 525.216,669.712 C525.552002,671.104007 525.72,672.663991 525.72,674.392 C525.72,676.280009 525.480002,677.879993 525,679.192 C524.519998,680.504007 523.880004,681.567996 523.08,682.384 C522.279996,683.200004 521.368005,683.783998 520.344,684.136 C519.319995,684.488002 518.264005,684.664 517.176,684.664 L510.456,684.664 Z M502.92,656.728 L502.92,691 L517.704,691 C520.328013,691 522.60799,690.560004 524.544,689.68 C526.48001,688.799996 528.095994,687.592008 529.392,686.056 C530.688006,684.519992 531.655997,682.696011 532.296,680.584 C532.936003,678.471989 533.256,676.168012 533.256,673.672 C533.256,670.823986 532.864004,668.344011 532.08,666.232 C531.295996,664.119989 530.208007,662.360007 528.816,660.952 C527.423993,659.543993 525.77601,658.488004 523.872,657.784 C521.96799,657.079996 519.912011,656.728 517.704,656.728 L502.92,656.728 Z M554.472,675.928 L543.384,675.928 C543.416,675.447998 543.519999,674.904003 543.696,674.296 C543.872001,673.687997 544.175998,673.112003 544.608,672.568 C545.040002,672.023997 545.615996,671.568002 546.336,671.2 C547.056004,670.831998 547.959995,670.648 549.048,670.648 C550.712008,670.648 551.951996,671.095996 552.768,671.992 C553.584004,672.888004 554.151998,674.199991 554.472,675.928 Z M543.384,680.248 L561.288,680.248 C561.416001,678.32799 561.256002,676.488009 560.808,674.728 C560.359998,672.967991 559.632005,671.400007 558.624,670.024 C557.615995,668.647993 556.328008,667.552004 554.76,666.736 C553.191992,665.919996 551.352011,665.512 549.24,665.512 C547.351991,665.512 545.632008,665.847997 544.08,666.52 C542.527992,667.192003 541.192006,668.111994 540.072,669.28 C538.951994,670.448006 538.088003,671.831992 537.48,673.432 C536.871997,675.032008 536.568,676.759991 536.568,678.616 C536.568,680.53601 536.863997,682.295992 537.456,683.896 C538.048003,685.496008 538.887995,686.871994 539.976,688.024 C541.064005,689.176006 542.391992,690.063997 543.96,690.688 C545.528008,691.312003 547.28799,691.624 549.24,691.624 C552.056014,691.624 554.45599,690.984006 556.44,689.704 C558.42401,688.423994 559.895995,686.296015 560.856,683.32 L554.856,683.32 C554.631999,684.088004 554.024005,684.815997 553.032,685.504 C552.039995,686.192003 550.856007,686.536 549.48,686.536 C547.55999,686.536 546.088005,686.040005 545.064,685.048 C544.039995,684.055995 543.48,682.456011 543.384,680.248 Z M582.216,674.92 L588.888,674.92 C588.792,673.319992 588.408003,671.936006 587.736,670.768 C587.063997,669.599994 586.192005,668.624004 585.12,667.84 C584.047995,667.055996 582.832007,666.472002 581.472,666.088 C580.111993,665.703998 578.696007,665.512 577.224,665.512 C575.20799,665.512 573.416008,665.847997 571.848,666.52 C570.279992,667.192003 568.952005,668.127994 567.864,669.328 C566.775995,670.528006 565.952003,671.951992 565.392,673.6 C564.831997,675.248008 564.552,677.03199 564.552,678.952 C564.552,680.808009 564.855997,682.512 565.464,684.064 C566.072003,685.616008 566.919995,686.951994 568.008,688.072 C569.096005,689.192006 570.415992,690.063997 571.968,690.688 C573.520008,691.312003 575.223991,691.624 577.08,691.624 C580.376016,691.624 583.079989,690.760009 585.192,689.032 C587.304011,687.303991 588.583998,684.792016 589.032,681.496 L582.456,681.496 C582.231999,683.032008 581.680004,684.255995 580.8,685.168 C579.919996,686.080005 578.664008,686.536 577.032,686.536 C575.975995,686.536 575.080004,686.296002 574.344,685.816 C573.607996,685.335998 573.024002,684.720004 572.592,683.968 C572.159998,683.215996 571.848001,682.376005 571.656,681.448 C571.463999,680.519995 571.368,679.608004 571.368,678.712 C571.368,677.783995 571.463999,676.848005 571.656,675.904 C571.848001,674.959995 572.175998,674.096004 572.64,673.312 C573.104002,672.527996 573.703996,671.888002 574.44,671.392 C575.176004,670.895998 576.087995,670.648 577.176,670.648 C580.088015,670.648 581.767998,672.071986 582.216,674.92 Z M599.88,662.344 L599.88,656.728 L593.064,656.728 L593.064,662.344 L599.88,662.344 Z M593.064,666.184 L593.064,691 L599.88,691 L599.88,666.184 L593.064,666.184 Z M610.536,682.936 L604.056,682.936 C604.12,684.600008 604.495997,685.983994 605.184,687.088 C605.872003,688.192006 606.751995,689.079997 607.824,689.752 C608.896005,690.424003 610.119993,690.903999 611.496,691.192 C612.872007,691.480001 614.279993,691.624 615.72,691.624 C617.128007,691.624 618.511993,691.488001 619.872,691.216 C621.232007,690.943999 622.439995,690.472003 623.496,689.8 C624.552005,689.127997 625.407997,688.240006 626.064,687.136 C626.720003,686.031994 627.048,684.664008 627.048,683.032 C627.048,681.879994 626.824002,680.912004 626.376,680.128 C625.927998,679.343996 625.336004,678.688003 624.6,678.16 C623.863996,677.631997 623.024005,677.208002 622.08,676.888 C621.135995,676.567998 620.168005,676.296001 619.176,676.072 C618.215995,675.847999 617.272005,675.640001 616.344,675.448 C615.415995,675.255999 614.592004,675.040001 613.872,674.8 C613.151996,674.559999 612.568002,674.248002 612.12,673.864 C611.671998,673.479998 611.448,672.984003 611.448,672.376 C611.448,671.863997 611.575999,671.456002 611.832,671.152 C612.088001,670.847998 612.399998,670.616001 612.768,670.456 C613.136002,670.295999 613.543998,670.192 613.992,670.144 C614.440002,670.096 614.855998,670.072 615.24,670.072 C616.456006,670.072 617.511996,670.303998 618.408,670.768 C619.304004,671.232002 619.8,672.119993 619.896,673.432 L626.376,673.432 C626.247999,671.895992 625.856003,670.624005 625.2,669.616 C624.543997,668.607995 623.720005,667.800003 622.728,667.192 C621.735995,666.583997 620.608006,666.152001 619.344,665.896 C618.079994,665.639999 616.776007,665.512 615.432,665.512 C614.087993,665.512 612.776006,665.631999 611.496,665.872 C610.215994,666.112001 609.064005,666.527997 608.04,667.12 C607.015995,667.712003 606.192003,668.519995 605.568,669.544 C604.943997,670.568005 604.632,671.879992 604.632,673.48 C604.632,674.568005 604.855998,675.487996 605.304,676.24 C605.752002,676.992004 606.343996,677.615998 607.08,678.112 C607.816004,678.608002 608.655995,679.007998 609.6,679.312 C610.544005,679.616002 611.511995,679.879999 612.504,680.104 C614.936012,680.616003 616.831993,681.127997 618.192,681.64 C619.552007,682.152003 620.232,682.919995 620.232,683.944 C620.232,684.552003 620.088001,685.055998 619.8,685.456 C619.511999,685.856002 619.152002,686.175999 618.72,686.416 C618.287998,686.656001 617.808003,686.831999 617.28,686.944 C616.751997,687.056001 616.248002,687.112 615.768,687.112 C615.095997,687.112 614.448003,687.032001 613.824,686.872 C613.199997,686.711999 612.648002,686.464002 612.168,686.128 C611.687998,685.791998 611.296002,685.360003 610.992,684.832 C610.687998,684.303997 610.536,683.672004 610.536,682.936 Z M638.04,662.344 L638.04,656.728 L631.224,656.728 L631.224,662.344 L638.04,662.344 Z M631.224,666.184 L631.224,691 L638.04,691 L638.04,666.184 L631.224,666.184 Z M649.464,678.616 C649.464,677.623995 649.559999,676.648 649.752,675.688 C649.944001,674.727995 650.271998,673.880004 650.736,673.144 C651.200002,672.407996 651.815996,671.808002 652.584,671.344 C653.352004,670.879998 654.311994,670.648 655.464,670.648 C656.616006,670.648 657.583996,670.879998 658.368,671.344 C659.152004,671.808002 659.775998,672.407996 660.24,673.144 C660.704002,673.880004 661.031999,674.727995 661.224,675.688 C661.416001,676.648 661.512,677.623995 661.512,678.616 C661.512,679.608005 661.416001,680.575995 661.224,681.52 C661.031999,682.464005 660.704002,683.311996 660.24,684.064 C659.775998,684.816004 659.152004,685.415998 658.368,685.864 C657.583996,686.312002 656.616006,686.536 655.464,686.536 C654.311994,686.536 653.352004,686.312002 652.584,685.864 C651.815996,685.415998 651.200002,684.816004 650.736,684.064 C650.271998,683.311996 649.944001,682.464005 649.752,681.52 C649.559999,680.575995 649.464,679.608005 649.464,678.616 Z M642.648,678.616 C642.648,680.60001 642.951997,682.391992 643.56,683.992 C644.168003,685.592008 645.031994,686.959994 646.152,688.096 C647.272006,689.232006 648.615992,690.103997 650.184,690.712 C651.752008,691.320003 653.51199,691.624 655.464,691.624 C657.41601,691.624 659.183992,691.320003 660.768,690.712 C662.352008,690.103997 663.703994,689.232006 664.824,688.096 C665.944006,686.959994 666.807997,685.592008 667.416,683.992 C668.024003,682.391992 668.328,680.60001 668.328,678.616 C668.328,676.63199 668.024003,674.832008 667.416,673.216 C666.807997,671.599992 665.944006,670.224006 664.824,669.088 C663.703994,667.951994 662.352008,667.072003 660.768,666.448 C659.183992,665.823997 657.41601,665.512 655.464,665.512 C653.51199,665.512 651.752008,665.823997 650.184,666.448 C648.615992,667.072003 647.272006,667.951994 646.152,669.088 C645.031994,670.224006 644.168003,671.599992 643.56,673.216 C642.951997,674.832008 642.648,676.63199 642.648,678.616 Z M672.744,666.184 L672.744,691 L679.56,691 L679.56,677.992 C679.56,675.463987 679.975996,673.648006 680.808,672.544 C681.640004,671.439994 682.983991,670.888 684.84,670.888 C686.472008,670.888 687.607997,671.391995 688.248,672.4 C688.888003,673.408005 689.208,674.93599 689.208,676.984 L689.208,691 L696.024,691 L696.024,675.736 C696.024,674.199992 695.888001,672.800006 695.616,671.536 C695.343999,670.271994 694.872003,669.200004 694.2,668.32 C693.527997,667.439996 692.608006,666.752002 691.44,666.256 C690.271994,665.759998 688.776009,665.512 686.952,665.512 C685.511993,665.512 684.104007,665.839997 682.728,666.496 C681.351993,667.152003 680.232004,668.199993 679.368,669.64 L679.224,669.64 L679.224,666.184 L672.744,666.184 Z M706.488,682.936 C706.488,683.672004 706.639998,684.303997 706.944,684.832 C707.248002,685.360003 707.639998,685.791998 708.12,686.128 C708.600002,686.464002 709.151997,686.711999 709.776,686.872 C710.400003,687.032001 711.047997,687.112 711.72,687.112 C712.200002,687.112 712.703997,687.056001 713.232,686.944 C713.760003,686.831999 714.239998,686.656001 714.672,686.416 C715.104002,686.175999 715.463999,685.856002 715.752,685.456 C716.040001,685.055998 716.184,684.552003 716.184,683.944 C716.184,682.919995 715.504007,682.152003 714.144,681.64 C712.783993,681.127997 710.888012,680.616003 708.456,680.104 C707.463995,679.879999 706.496005,679.616002 705.552,679.312 C704.607995,679.007998 703.768004,678.608002 703.032,678.112 C702.295996,677.615998 701.704002,676.992004 701.256,676.24 C700.807998,675.487996 700.584,674.568005 700.584,673.48 C700.584,671.879992 700.895997,670.568005 701.52,669.544 C702.144003,668.519995 702.967995,667.712003 703.992,667.12 C705.016005,666.527997 706.167994,666.112001 707.448,665.872 C708.728006,665.631999 710.039993,665.512 711.384,665.512 C712.728007,665.512 714.031994,665.639999 715.296,665.896 C716.560006,666.152001 717.687995,666.583997 718.68,667.192 C719.672005,667.800003 720.495997,668.607995 721.152,669.616 C721.808003,670.624005 722.199999,671.895992 722.328,673.432 L715.848,673.432 C715.752,672.119993 715.256004,671.232002 714.36,670.768 C713.463996,670.303998 712.408006,670.072 711.192,670.072 C710.807998,670.072 710.392002,670.096 709.944,670.144 C709.495998,670.192 709.088002,670.295999 708.72,670.456 C708.351998,670.616001 708.040001,670.847998 707.784,671.152 C707.527999,671.456002 707.4,671.863997 707.4,672.376 C707.4,672.984003 707.623998,673.479998 708.072,673.864 C708.520002,674.248002 709.103996,674.559999 709.824,674.8 C710.544004,675.040001 711.367995,675.255999 712.296,675.448 C713.224005,675.640001 714.167995,675.847999 715.128,676.072 C716.120005,676.296001 717.087995,676.567998 718.032,676.888 C718.976005,677.208002 719.815996,677.631997 720.552,678.16 C721.288004,678.688003 721.879998,679.343996 722.328,680.128 C722.776002,680.912004 723,681.879994 723,683.032 C723,684.664008 722.672003,686.031994 722.016,687.136 C721.359997,688.240006 720.504005,689.127997 719.448,689.8 C718.391995,690.472003 717.184007,690.943999 715.824,691.216 C714.463993,691.488001 713.080007,691.624 711.672,691.624 C710.231993,691.624 708.824007,691.480001 707.448,691.192 C706.071993,690.903999 704.848005,690.424003 703.776,689.752 C702.703995,689.079997 701.824003,688.192006 701.136,687.088 C700.447997,685.983994 700.072,684.600008 700.008,682.936 L706.488,682.936 Z" id="Decisions" fill="#FFFFFF" fill-rule="nonzero"></path>
        <circle id="Oval" fill="#9013FE" cx="1017.5" cy="196.5" r="10.5"></circle>
        <circle id="Oval" fill="#9013FE" cx="705.5" cy="384.5" r="10.5"></circle>
        <circle id="Oval" fill="#9013FE" cx="996.5" cy="554.5" r="10.5"></circle>
        <polygon id="Path-17" fill="#FFFFFF" fill-rule="nonzero" points="895.461373 48 896.144 83.028 906.142645 82.8330646 894.612925 107.0625 882.147209 83.3010622 892.145 83.106 891.538627 52 314 52 314 107.0625 310 107.0625 310 48"></polygon>
        <polygon id="Path-17" fill="#FFFFFF" fill-rule="nonzero" transform="translate(608.071323, 702.531250) scale(-1, -1) translate(-608.071323, -702.531250) " points="895.461373 673 896.144 708.028 906.142645 707.833065 894.612925 732.0625 882.147209 708.301062 892.145 708.106 891.538627 677 314 677 314 732.0625 310 732.0625 310 673"></polygon>
    </g>
</svg>