<?xml version="1.0" encoding="UTF-8"?>
<svg width="205px" height="208px" viewBox="0 0 205 208" version="1.1" xmlns="http://www.w3.org/2000/svg" xmlns:xlink="http://www.w3.org/1999/xlink">
    <!-- Generator: Sketch 58 (84663) - https://sketch.com -->
    <title>intellectual-property-icon</title>
    <desc>Created with Sketch.</desc>
    <g id="Logos,-Icons,-Illustrations" stroke="none" stroke-width="1" fill="none" fill-rule="evenodd">
        <g id="intellectual-property-icon">
            <ellipse id="Oval" fill="#9013FE" cx="102.5" cy="103.75" rx="102.5" ry="103.75"></ellipse>
            <g id="copyright" transform="translate(40.000000, 42.000000)" fill="#FFFFFF" fill-rule="nonzero">
                <path d="M62.5,130 C99.7792206,130 130,99.7792206 130,62.5 C130,25.2207794 99.7792206,-5 62.5,-5 C25.2207794,-5 -5,25.2207794 -5,62.5 C-5,99.7792206 25.2207794,130 62.5,130 Z M62.5,120 C30.7436269,120 5,94.2563731 5,62.5 C5,30.7436269 30.7436269,5 62.5,5 C94.2563731,5 120,30.7436269 120,62.5 C120,94.2563731 94.2563731,120 62.5,120 Z" id="Oval"></path>
                <path d="M81.1308271,50.523427 C80.8461139,48.5957066 80.2055188,46.828656 79.2090226,45.2222222 C78.2125263,43.6157885 76.9669248,42.2057178 75.4721805,40.9919679 C73.9774361,39.7782179 72.2869768,38.8322212 70.4007519,38.1539491 C68.5145269,37.4756771 66.5393587,37.1365462 64.475188,37.1365462 C60.702738,37.1365462 57.4997625,37.868355 54.8661654,39.3319946 C52.2325683,40.7956343 50.0972513,42.7590238 48.4601504,45.2222222 C46.8230495,47.6854206 45.6308308,50.487713 44.8834586,53.6291834 C44.1360865,56.7706538 43.762406,60.0191711 43.762406,63.3748327 C43.762406,66.5877001 44.1360865,69.7112744 44.8834586,72.7456493 C45.6308308,75.7800241 46.8230495,78.5109205 48.4601504,80.9384203 C50.0972513,83.3659202 52.2325683,85.3114608 54.8661654,86.7751004 C57.4997625,88.23874 60.702738,88.9705489 64.475188,88.9705489 C69.6000256,88.9705489 73.603745,87.3998372 76.4864662,84.2583668 C79.3691873,81.1168964 81.1308239,76.9759293 81.7714286,71.8353414 L98,71.8353414 C97.5729302,76.618944 96.4696831,80.9384011 94.6902256,84.793842 C92.910768,88.649283 90.5619194,91.9334983 87.643609,94.6465863 C84.7252987,97.3596744 81.3087915,99.430158 77.393985,100.858099 C73.4791784,102.28604 69.1729558,103 64.475188,103 C58.6385673,103 53.3892464,101.982607 48.7270677,99.9477912 C44.064889,97.9129751 40.1323468,95.1106827 36.9293233,91.54083 C33.7262998,87.9709772 31.2706852,83.7764632 29.562406,78.957162 C27.8541268,74.1378608 27,68.9438029 27,63.3748327 C27,57.6630683 27.8541268,52.3619165 29.562406,47.4712182 C31.2706852,42.5805199 33.7262998,38.3146099 36.9293233,34.6733601 C40.1323468,31.0321103 44.064889,28.176271 48.7270677,26.1057564 C53.3892464,24.0352418 58.6385673,23 64.475188,23 C68.6747077,23 72.6428385,23.6068659 76.3796992,24.8206158 C80.11656,26.0343657 83.46189,27.8014163 86.4157895,30.1218206 C89.369689,32.4422249 91.8075092,35.3159133 93.7293233,38.7429719 C95.6511374,42.1700305 96.8611504,46.0968096 97.3593985,50.523427 L81.1308271,50.523427 Z" id="C"></path>
            </g>
        </g>
    </g>
</svg>