<svg width="1491" height="141" viewBox="0 0 1491 141" fill="none" xmlns="http://www.w3.org/2000/svg">
<path d="M561.387 11L594.586 12.482L608.028 42.3083L589.065 69.5675L555.685 67.4326L542 35.1161L561.387 11ZM585.727 28.1926L561.666 38.6914L582.236 54.5756L585.727 28.1926ZM582.941 22.9317L563.712 14.6631L559.673 32.0482L582.941 22.9317ZM578.067 58.5722L557.169 43.6691L557.675 63.8636L578.067 58.5722ZM604.69 42.2425L590.449 27.8106L586.69 55.5625L604.69 42.2425ZM582.967 61.8183L565.342 66.4188L586.069 67.7443L582.967 61.8183ZM601.907 48.7903L586.479 60.2682L589.545 66.2514L601.907 48.7903ZM594.609 16.6493L591.613 22.7929L602.766 34.1158L594.609 16.6493ZM590.876 13.7094L571.29 12.9154L587.446 19.9729L590.876 13.7094ZM558.527 16.5504L544.808 33.8508L553.98 35.7911L558.527 16.5504ZM553.427 39.1848L544.211 37.236L553.827 59.8616L553.427 39.1848Z" fill="#D8B6FF"/>
<path d="M732.401 72L765.6 73.482L779.041 103.308L760.078 130.567L726.698 128.433L713.014 96.1161L732.401 72ZM756.74 89.1926L732.679 99.6914L753.25 115.576L756.74 89.1926ZM753.955 83.9317L734.726 75.6631L730.687 93.0482L753.955 83.9317ZM749.081 119.572L728.183 104.669L728.689 124.864L749.081 119.572ZM775.703 103.242L761.463 88.8106L757.704 116.563L775.703 103.242ZM753.981 122.818L736.356 127.419L757.082 128.744L753.981 122.818ZM772.92 109.79L757.493 121.268L760.558 127.251L772.92 109.79ZM765.623 77.6493L762.627 83.7929L773.78 95.1158L765.623 77.6493ZM761.89 74.7094L742.304 73.9154L758.46 80.9729L761.89 74.7094ZM729.541 77.5504L715.822 94.8508L724.994 96.7911L729.541 77.5504ZM724.441 100.185L715.225 98.236L724.841 120.862L724.441 100.185Z" fill="#9013FE"/>
<path d="M901.401 13L934.6 14.482L948.041 44.3083L929.078 71.5675L895.698 69.4326L882.014 37.1161L901.401 13ZM925.74 30.1926L901.679 40.6914L922.25 56.5756L925.74 30.1926ZM922.955 24.9317L903.726 16.6631L899.687 34.0482L922.955 24.9317ZM918.081 60.5722L897.183 45.6691L897.689 65.8636L918.081 60.5722ZM944.703 44.2425L930.463 29.8106L926.704 57.5625L944.703 44.2425ZM922.981 63.8183L905.356 68.4188L926.082 69.7443L922.981 63.8183ZM941.92 50.7903L926.493 62.2682L929.558 68.2514L941.92 50.7903ZM934.623 18.6493L931.627 24.7929L942.78 36.1158L934.623 18.6493ZM930.89 15.7094L911.304 14.9154L927.46 21.9729L930.89 15.7094ZM898.541 18.5504L884.822 35.8508L893.994 37.7911L898.541 18.5504ZM893.441 41.1848L884.225 39.236L893.841 61.8616L893.441 41.1848Z" fill="#009AFF"/>
<path d="M19.387 11L52.5865 12.482L66.0277 42.3083L47.0647 69.5675L13.6847 67.4326L0 35.1161L19.387 11ZM43.7267 28.1926L19.6658 38.6914L40.2363 54.5756L43.7267 28.1926ZM40.941 22.9317L21.7124 14.6631L17.6732 32.0482L40.941 22.9317ZM36.0672 58.5722L15.1695 43.6691L15.675 63.8636L36.0672 58.5722ZM62.6898 42.2425L48.449 27.8106L44.6903 55.5625L62.6898 42.2425ZM40.9668 61.8183L23.3423 66.4188L44.0687 67.7443L40.9668 61.8183ZM59.9068 48.7903L44.4791 60.2682L47.5446 66.2514L59.9068 48.7903ZM52.6094 16.6493L49.6129 22.7929L60.7664 34.1158L52.6094 16.6493ZM48.8759 13.7094L29.2901 12.9154L45.4461 19.9729L48.8759 13.7094ZM16.5269 16.5504L2.8083 33.8508L11.9803 35.7911L16.5269 16.5504ZM11.4272 39.1848L2.21105 37.236L11.8274 59.8616L11.4272 39.1848Z" fill="#D8B6FF"/>
<path d="M190.401 72L223.6 73.482L237.041 103.308L218.078 130.567L184.698 128.433L171.014 96.1161L190.401 72ZM214.74 89.1926L190.679 99.6914L211.25 115.576L214.74 89.1926ZM211.955 83.9317L192.726 75.6631L188.687 93.0482L211.955 83.9317ZM207.081 119.572L186.183 104.669L186.689 124.864L207.081 119.572ZM233.703 103.242L219.463 88.8106L215.704 116.563L233.703 103.242ZM211.981 122.818L194.356 127.419L215.082 128.744L211.981 122.818ZM230.92 109.79L215.493 121.268L218.558 127.251L230.92 109.79ZM223.623 77.6493L220.627 83.7929L231.78 95.1158L223.623 77.6493ZM219.89 74.7094L200.304 73.9154L216.46 80.9729L219.89 74.7094ZM187.541 77.5504L173.822 94.8508L182.994 96.7911L187.541 77.5504ZM182.441 100.185L173.225 98.236L182.841 120.862L182.441 100.185Z" fill="#9013FE"/>
<path d="M359.401 13L392.6 14.482L406.041 44.3083L387.078 71.5675L353.698 69.4326L340.014 37.1161L359.401 13ZM383.74 30.1926L359.679 40.6914L380.25 56.5756L383.74 30.1926ZM380.955 24.9317L361.726 16.6631L357.687 34.0482L380.955 24.9317ZM376.081 60.5722L355.183 45.6691L355.689 65.8636L376.081 60.5722ZM402.703 44.2425L388.463 29.8106L384.704 57.5625L402.703 44.2425ZM380.981 63.8183L363.356 68.4188L384.082 69.7443L380.981 63.8183ZM399.92 50.7903L384.493 62.2682L387.558 68.2514L399.92 50.7903ZM392.623 18.6493L389.627 24.7929L400.78 36.1158L392.623 18.6493ZM388.89 15.7094L369.304 14.9154L385.46 21.9729L388.89 15.7094ZM356.541 18.5504L342.822 35.8508L351.994 37.7911L356.541 18.5504ZM351.441 41.1848L342.225 39.236L351.841 61.8616L351.441 41.1848Z" fill="#009AFF"/>
<path d="M1103.39 11L1136.59 12.482L1150.03 42.3083L1131.06 69.5675L1097.68 67.4326L1084 35.1161L1103.39 11ZM1127.73 28.1926L1103.67 38.6914L1124.24 54.5756L1127.73 28.1926ZM1124.94 22.9317L1105.71 14.6631L1101.67 32.0482L1124.94 22.9317ZM1120.07 58.5722L1099.17 43.6691L1099.67 63.8636L1120.07 58.5722ZM1146.69 42.2425L1132.45 27.8106L1128.69 55.5625L1146.69 42.2425ZM1124.97 61.8183L1107.34 66.4188L1128.07 67.7443L1124.97 61.8183ZM1143.91 48.7903L1128.48 60.2682L1131.54 66.2514L1143.91 48.7903ZM1136.61 16.6493L1133.61 22.7929L1144.77 34.1158L1136.61 16.6493ZM1132.88 13.7094L1113.29 12.9154L1129.45 19.9729L1132.88 13.7094ZM1100.53 16.5504L1086.81 33.8508L1095.98 35.7911L1100.53 16.5504ZM1095.43 39.1848L1086.21 37.236L1095.83 59.8616L1095.43 39.1848Z" fill="#D8B6FF"/>
<path d="M1274.4 72L1307.6 73.482L1321.04 103.308L1302.08 130.567L1268.7 128.433L1255.01 96.1161L1274.4 72ZM1298.74 89.1926L1274.68 99.6914L1295.25 115.576L1298.74 89.1926ZM1295.95 83.9317L1276.73 75.6631L1272.69 93.0482L1295.95 83.9317ZM1291.08 119.572L1270.18 104.669L1270.69 124.864L1291.08 119.572ZM1317.7 103.242L1303.46 88.8106L1299.7 116.563L1317.7 103.242ZM1295.98 122.818L1278.36 127.419L1299.08 128.744L1295.98 122.818ZM1314.92 109.79L1299.49 121.268L1302.56 127.251L1314.92 109.79ZM1307.62 77.6493L1304.63 83.7929L1315.78 95.1158L1307.62 77.6493ZM1303.89 74.7094L1284.3 73.9154L1300.46 80.9729L1303.89 74.7094ZM1271.54 77.5504L1257.82 94.8508L1266.99 96.7911L1271.54 77.5504ZM1266.44 100.185L1257.22 98.236L1266.84 120.862L1266.44 100.185Z" fill="#9013FE"/>
<path d="M1443.4 13L1476.6 14.482L1490.04 44.3083L1471.08 71.5675L1437.7 69.4326L1424.01 37.1161L1443.4 13ZM1467.74 30.1926L1443.68 40.6914L1464.25 56.5756L1467.74 30.1926ZM1464.95 24.9317L1445.73 16.6631L1441.69 34.0482L1464.95 24.9317ZM1460.08 60.5722L1439.18 45.6691L1439.69 65.8636L1460.08 60.5722ZM1486.7 44.2425L1472.46 29.8106L1468.7 57.5625L1486.7 44.2425ZM1464.98 63.8183L1447.36 68.4188L1468.08 69.7443L1464.98 63.8183ZM1483.92 50.7903L1468.49 62.2682L1471.56 68.2514L1483.92 50.7903ZM1476.62 18.6493L1473.63 24.7929L1484.78 36.1158L1476.62 18.6493ZM1472.89 15.7094L1453.3 14.9154L1469.46 21.9729L1472.89 15.7094ZM1440.54 18.5504L1426.82 35.8508L1435.99 37.7911L1440.54 18.5504ZM1435.44 41.1848L1426.22 39.236L1435.84 61.8616L1435.44 41.1848Z" fill="#009AFF"/>
<path fill-rule="evenodd" clip-rule="evenodd" d="M538.975 99.832L596.833 133.144L599.215 129.007L605 139L593.453 139.014L595.835 134.877L539.025 102.168L478.991 140.19L428.817 107.317L426.201 111.31L421 101L432.529 101.651L429.913 105.644L479.009 137.811L538.975 99.832Z" fill="#9013FE"/>
<path fill-rule="evenodd" clip-rule="evenodd" d="M1032.98 99.832L1090.83 133.144L1093.21 129.007L1099 139L1087.45 139.014L1089.83 134.877L1033.02 102.168L972.991 140.19L922.817 107.317L920.201 111.31L915 101L926.529 101.651L923.913 105.644L973.009 137.811L1032.98 99.832Z" fill="#009AFF"/>
<path fill-rule="evenodd" clip-rule="evenodd" d="M198.975 0.832031L256.833 34.1438L259.215 30.007L265 40.0001L253.453 40.0139L255.835 35.8771L199.025 3.1682L147.983 35.4944L150.537 39.5272L139 40.0001L144.359 29.772L146.913 33.8048L198.975 0.832031Z" fill="#009AFF"/>
<path fill-rule="evenodd" clip-rule="evenodd" d="M1284.98 0.832031L1342.83 34.1438L1345.21 30.007L1351 40.0001L1339.45 40.0139L1341.83 35.8771L1285.02 3.1682L1233.98 35.4944L1236.54 39.5272L1225 40.0001L1230.36 29.772L1232.91 33.8048L1284.98 0.832031Z" fill="#9013FE"/>
<path fill-rule="evenodd" clip-rule="evenodd" d="M742.975 0.832031L800.833 34.1438L803.215 30.007L809 40.0001L797.453 40.0139L799.835 35.8771L743.025 3.1682L691.983 35.4944L694.537 39.5272L683 40.0001L688.359 29.772L690.913 33.8048L742.975 0.832031Z" fill="#D8B6FF"/>
<path d="M846.996 113.512H859V117.546H846.996V130H842.946V117.546H831V113.512H842.946V101H846.996V113.512Z" fill="#D8B6FF"/>
<path d="M280.996 113.512H293V117.546H280.996V130H276.946V117.546H265V113.512H276.946V101H280.996V113.512Z" fill="#009AFF"/>
<path d="M1372 113.512H1384V117.546H1372V130H1367.95V117.546H1356V113.512H1367.95V101H1372V113.512Z" fill="#009AFF"/>
</svg>
