<?xml version="1.0" encoding="UTF-8"?>
<svg width="2202px" height="1238px" viewBox="0 0 2202 1238" version="1.1" xmlns="http://www.w3.org/2000/svg" xmlns:xlink="http://www.w3.org/1999/xlink">
    <!-- Generator: Sketch 58 (84663) - https://sketch.com -->
    <title>Group 34</title>
    <desc>Created with Sketch.</desc>
    <defs>
        <linearGradient x1="0%" y1="49.9999777%" x2="100.000024%" y2="49.9999777%" id="linearGradient1">
            <stop stop-color="#A3A2A5" offset="0%"></stop>
            <stop stop-color="#9F9EA0" offset="27.05%"></stop>
            <stop stop-color="#929194" offset="56.07%"></stop>
            <stop stop-color="#7C7C80" offset="85.92%"></stop>
            <stop stop-color="#707073" offset="100%"></stop>
        </linearGradient>
        <linearGradient x1="-0.661193461%" y1="79.7015548%" x2="70.3915924%" y2="24.4524248%" id="linearGradient2">
            <stop stop-color="#969598" offset="0%"></stop>
            <stop stop-color="#908F92" offset="33.96%"></stop>
            <stop stop-color="#7F7F82" offset="79.17%"></stop>
            <stop stop-color="#757578" offset="100%"></stop>
        </linearGradient>
        <linearGradient x1="5.74469313%" y1="-2.83492963%" x2="50.0095884%" y2="85.0511445%" id="linearGradient3">
            <stop stop-color="#9E9EA0" offset="0%"></stop>
            <stop stop-color="#9B9B9D" offset="27.59%"></stop>
            <stop stop-color="#919194" offset="49.4%"></stop>
            <stop stop-color="#808083" offset="69.23%"></stop>
            <stop stop-color="#69696D" offset="87.77%"></stop>
            <stop stop-color="#55565A" offset="100%"></stop>
        </linearGradient>
        <linearGradient x1="0%" y1="49.9999777%" x2="100.000024%" y2="49.9999777%" id="linearGradient4">
            <stop stop-color="#A3A2A5" offset="0%"></stop>
            <stop stop-color="#9F9EA0" offset="27.05%"></stop>
            <stop stop-color="#929194" offset="56.07%"></stop>
            <stop stop-color="#7C7C80" offset="85.92%"></stop>
            <stop stop-color="#707073" offset="100%"></stop>
        </linearGradient>
        <linearGradient x1="-0.661193461%" y1="79.7323257%" x2="70.3915924%" y2="24.4259574%" id="linearGradient5">
            <stop stop-color="#969598" offset="0%"></stop>
            <stop stop-color="#908F92" offset="33.96%"></stop>
            <stop stop-color="#7F7F82" offset="79.17%"></stop>
            <stop stop-color="#757578" offset="100%"></stop>
        </linearGradient>
        <linearGradient x1="5.79049443%" y1="-2.83492963%" x2="50.0095785%" y2="85.0511445%" id="linearGradient6">
            <stop stop-color="#9E9EA0" offset="0%"></stop>
            <stop stop-color="#9B9B9D" offset="27.59%"></stop>
            <stop stop-color="#919194" offset="49.4%"></stop>
            <stop stop-color="#808083" offset="69.23%"></stop>
            <stop stop-color="#69696D" offset="87.77%"></stop>
            <stop stop-color="#55565A" offset="100%"></stop>
        </linearGradient>
    </defs>
    <g id="Blog-Headers,-Social-Media" stroke="none" stroke-width="1" fill="none" fill-rule="evenodd" opacity="0.147716704">
        <g id="Group-34" fill-rule="nonzero">
            <g id="kleros-symbol">
                <polygon id="Path" fill="#45464D" opacity="0.7" points="1112.51176 31.3582735 410.020773 0 1 511.050422 287.602889 1194.03403 997.120622 1237 1401 662.442661"></polygon>
                <g id="Group">
                    <polygon id="Path" fill="#656569" points="1400.72798 662.868466 1000.51503 257.05351 895.255852 1035.53367"></polygon>
                    <polygon id="Path" fill="url(#linearGradient1)" points="273.312015 571.593155 1000.51503 257.05351 895.255852 1035.53367"></polygon>
                    <polygon id="Path" fill="url(#linearGradient2)" points="1000.51503 257.05351 409.66648 0.58051049 273.312015 571.593155"></polygon>
                    <polygon id="Path" fill="url(#linearGradient3)" points="273.312015 571.593155 287.238433 1194.34055 895.255852 1035.53367"></polygon>
                    <polygon id="Path" fill="#757578" points="1000.51503 257.05351 1112.21578 31.9315427 409.66648 0.58051049"></polygon>
                    <polygon id="Path" fill="#6C6D70" points="1112.21578 31.9315427 1400.72798 662.868466 1000.51503 257.05351"></polygon>
                    <polygon id="Path" fill="#6C6D70" points="1400.72798 662.868466 996.815068 1237.29313 895.255852 1035.53367"></polygon>
                    <polygon id="Path" fill="#55565A" points="996.815068 1237.29313 287.238433 1194.34055 895.255852 1035.53367"></polygon>
                    <polygon id="Path" fill="#55565A" points="409.66648 0.58051049 0.611750309 511.511186 273.312015 571.593155"></polygon>
                    <polygon id="Path" fill="#656569" points="0.611750309 511.511186 287.238433 1194.34055 273.312015 571.593155"></polygon>
                    <polygon id="Path" fill="#151A22" opacity="0.7" points="926.09292 364.269466 852.384806 922.365319 417.958902 586.357183"></polygon>
                    <polygon id="Path" fill="#151A22" opacity="0.7" points="867.264376 252.984738 461.181748 78.0708629 375.879839 445.832056"></polygon>
                    <polygon id="Path" fill="#23262E" opacity="0.7" points="764.33782 1006.91364 323.004163 691.660053 333.677733 1118.84299"></polygon>
                    <polygon id="Path" fill="#23262E" opacity="0.7" points="1326.57275 661.475241 1025.82555 356.190839 946.443582 943.244635"></polygon>
                    <polygon id="Path" fill="#43444B" opacity="0.7" points="867.812005 1075.57503 933.317812 1200.93584 495.602667 1172.89805"></polygon>
                    <polygon id="Path" fill="#34363D" opacity="0.7" points="1267.79619 799.985043 941.984564 1042.78919 1006.72438 1169.35434"></polygon>
                    <polygon id="Path" fill="#34363D" opacity="0.7" points="1113.68364 120.085959 1285.94941 489.569622 1050.40474 250.044063"></polygon>
                    <polygon id="Path" fill="#36383F" opacity="0.7" points="1034.84064 57.8950909 962.404546 190.393578 621.212509 41.1018755"></polygon>
                    <polygon id="Path" fill="#3B3C43" opacity="0.7" points="351.669778 117.996122 255.652707 525.008488 61.9496836 483.963797"></polygon>
                    <polygon id="Path" fill="#45464D" opacity="0.7" points="243.970529 596.794242 252.422388 1034.18897 49.3351496 555.572799"></polygon>
                </g>
            </g>
            <g id="kleros-symbol-copy" transform="translate(1667.000000, 196.000000)">
                <polygon id="Path" fill="#45464D" opacity="0.7" points="424.756279 11.9906737 156.304367 0 0 195.413783 109.523247 456.570815 380.660381 473 535 253.302651"></polygon>
                <g id="Group">
                    <polygon id="Path" fill="#656569" points="534.896122 253.26073 382.066768 98.2118824 341.871435 395.644125"></polygon>
                    <polygon id="Path" fill="url(#linearGradient4)" points="104.369684 218.387369 382.066768 98.2118824 341.871435 395.644125"></polygon>
                    <polygon id="Path" fill="url(#linearGradient5)" points="382.066768 98.2118824 156.439377 0.221794395 104.369684 218.387369"></polygon>
                    <polygon id="Path" fill="url(#linearGradient6)" points="104.369684 218.387369 109.687767 456.319127 341.871435 395.644125"></polygon>
                    <polygon id="Path" fill="#757578" points="382.066768 98.2118824 424.721945 12.2000159 156.439377 0.221794395"></polygon>
                    <polygon id="Path" fill="#6C6D70" points="424.721945 12.2000159 534.896122 253.26073 382.066768 98.2118824"></polygon>
                    <polygon id="Path" fill="#6C6D70" points="534.896122 253.26073 380.653863 472.729926 341.871435 395.644125"></polygon>
                    <polygon id="Path" fill="#55565A" points="380.653863 472.729926 109.687767 456.319127 341.871435 395.644125"></polygon>
                    <polygon id="Path" fill="#55565A" points="156.439377 0.221794395 0.233609147 195.43198 104.369684 218.387369"></polygon>
                    <polygon id="Path" fill="#656569" points="0.233609147 195.43198 109.687767 456.319127 104.369684 218.387369"></polygon>
                    <polygon id="Path" fill="#151A22" opacity="0.7" points="353.647189 139.175652 325.500265 352.406136 159.606005 224.028229"></polygon>
                    <polygon id="Path" fill="#151A22" opacity="0.7" points="331.182328 96.6573355 176.111517 29.8283669 143.537269 170.338096"></polygon>
                    <polygon id="Path" fill="#23262E" opacity="0.7" points="291.877754 384.709331 123.34563 264.26107 127.421547 427.473938"></polygon>
                    <polygon id="Path" fill="#23262E" opacity="0.7" points="506.578458 252.728424 391.732098 136.089069 361.418499 360.383451"></polygon>
                    <polygon id="Path" fill="#43444B" opacity="0.7" points="331.391451 410.942642 356.40616 458.838976 189.255837 448.126638"></polygon>
                    <polygon id="Path" fill="#34363D" opacity="0.7" points="484.13345 305.648567 359.715733 398.416224 384.437934 446.772699"></polygon>
                    <polygon id="Path" fill="#34363D" opacity="0.7" points="425.282475 45.8809845 491.065619 187.048814 401.118156 95.5337979"></polygon>
                    <polygon id="Path" fill="#36383F" opacity="0.7" points="395.174689 22.119853 367.513513 72.7432651 237.222479 15.7037053"></polygon>
                    <polygon id="Path" fill="#3B3C43" opacity="0.7" points="134.292171 45.0825247 97.626123 200.588865 23.6567314 184.907008"></polygon>
                    <polygon id="Path" fill="#45464D" opacity="0.7" points="93.1650486 228.015894 96.3925608 395.130357 18.8396181 212.266505"></polygon>
                </g>
            </g>
        </g>
    </g>
</svg>