<svg width="1499" height="146" viewBox="0 0 1499 146" fill="none" xmlns="http://www.w3.org/2000/svg">
<path fill-rule="evenodd" clip-rule="evenodd" d="M192.537 58.8211L216.271 72.524C218.606 73.8723 220.045 76.364 220.045 79.0605V106.466C220.045 109.163 218.606 111.654 216.271 113.003L192.537 126.706C190.202 128.054 187.325 128.054 184.989 126.706L161.255 113.003C158.92 111.654 157.481 109.163 157.481 106.466V79.0605C157.481 76.364 158.92 73.8723 161.255 72.524L184.989 58.8211C187.325 57.4729 190.202 57.4729 192.537 58.8211ZM190.65 62.0894C189.482 61.4153 188.044 61.4153 186.876 62.0894L163.142 75.7922C161.975 76.4664 161.255 77.7122 161.255 79.0605V106.466C161.255 107.814 161.975 109.06 163.142 109.734L186.876 123.437C188.044 124.111 189.482 124.111 190.65 123.437L214.384 109.734C215.552 109.06 216.271 107.814 216.271 106.466V79.0605C216.271 77.7122 215.552 76.4664 214.384 75.7922L190.65 62.0894Z" fill="#9013FE"/>
<path fill-rule="evenodd" clip-rule="evenodd" d="M330.537 27.5457L354.271 41.2486C356.606 42.5969 358.045 45.0886 358.045 47.7851V75.1908C358.045 77.8873 356.606 80.3791 354.271 81.7273L330.537 95.4302C328.202 96.7784 325.325 96.7784 322.989 95.4302L299.255 81.7273C296.92 80.3791 295.481 77.8873 295.481 75.1908V47.7851C295.481 45.0886 296.92 42.5969 299.255 41.2486L322.989 27.5457C325.325 26.1975 328.202 26.1975 330.537 27.5457ZM328.65 30.814C327.482 30.1399 326.044 30.1399 324.876 30.814L301.142 44.5169C299.975 45.191 299.255 46.4368 299.255 47.7851V75.1908C299.255 76.5391 299.975 77.7849 301.142 78.4591L324.876 92.1619C326.044 92.836 327.482 92.836 328.65 92.1619L352.384 78.4591C353.552 77.7849 354.271 76.5391 354.271 75.1908V47.7851C354.271 46.4368 353.552 45.191 352.384 44.5169L328.65 30.814Z" fill="#009AFF"/>
<path fill-rule="evenodd" clip-rule="evenodd" d="M351.5 31C355.642 31 359 27.6421 359 23.5C359 19.3579 355.642 16 351.5 16C347.358 16 344 19.3579 344 23.5C344 27.6421 347.358 31 351.5 31ZM351.5 33C356.747 33 361 28.7467 361 23.5C361 18.2533 356.747 14 351.5 14C346.253 14 342 18.2533 342 23.5C342 28.7467 346.253 33 351.5 33Z" fill="#9013FE"/>
<path fill-rule="evenodd" clip-rule="evenodd" d="M57.0351 27.5457L80.7691 41.2486C83.1044 42.5969 84.543 45.0886 84.543 47.7851V75.1908C84.543 77.8873 83.1044 80.3791 80.7691 81.7273L57.0351 95.4302C54.6998 96.7784 51.8226 96.7784 49.4874 95.4302L25.7534 81.7273C23.4181 80.3791 21.9795 77.8873 21.9795 75.1908V47.7851C21.9795 45.0886 23.4181 42.5969 25.7534 41.2486L49.4874 27.5457C51.8226 26.1975 54.6998 26.1975 57.0351 27.5457ZM55.1482 30.814C53.9805 30.1399 52.5419 30.1399 51.3743 30.814L27.6403 44.5169C26.4727 45.191 25.7534 46.4368 25.7534 47.7851V75.1908C25.7534 76.5391 26.4727 77.7849 27.6403 78.4591L51.3743 92.1619C52.5419 92.836 53.9805 92.836 55.1482 92.1619L78.8822 78.4591C80.0498 77.7849 80.7691 76.5391 80.7691 75.1908V47.7851C80.7691 46.4368 80.0498 45.191 78.8822 44.5169L55.1482 30.814Z" fill="#D8B6FF"/>
<path fill-rule="evenodd" clip-rule="evenodd" d="M17.6416 46.0777L17.6416 77.8411L13.8677 77.8411L13.8677 46.0777L17.6416 46.0777Z" fill="#009AFF"/>
<path fill-rule="evenodd" clip-rule="evenodd" d="M772.537 58.8211L796.271 72.524C798.606 73.8723 800.045 76.364 800.045 79.0605V106.466C800.045 109.163 798.606 111.654 796.271 113.003L772.537 126.706C770.202 128.054 767.325 128.054 764.989 126.706L741.255 113.003C738.92 111.654 737.481 109.163 737.481 106.466V79.0605C737.481 76.364 738.92 73.8723 741.255 72.524L764.989 58.8211C767.325 57.4729 770.202 57.4729 772.537 58.8211ZM770.65 62.0894C769.482 61.4153 768.044 61.4153 766.876 62.0894L743.142 75.7922C741.975 76.4664 741.255 77.7122 741.255 79.0605V106.466C741.255 107.814 741.975 109.06 743.142 109.734L766.876 123.437C768.044 124.111 769.482 124.111 770.65 123.437L794.384 109.734C795.552 109.06 796.271 107.814 796.271 106.466V79.0605C796.271 77.7122 795.552 76.4664 794.384 75.7922L770.65 62.0894Z" fill="#9013FE"/>
<path fill-rule="evenodd" clip-rule="evenodd" d="M793.5 139C797.642 139 801 135.642 801 131.5C801 127.358 797.642 124 793.5 124C789.358 124 786 127.358 786 131.5C786 135.642 789.358 139 793.5 139ZM793.5 141C798.747 141 803 136.747 803 131.5C803 126.253 798.747 122 793.5 122C788.253 122 784 126.253 784 131.5C784 136.747 788.253 141 793.5 141Z" fill="#D8B6FF"/>
<path fill-rule="evenodd" clip-rule="evenodd" d="M910.537 27.5457L934.271 41.2486C936.606 42.5969 938.045 45.0886 938.045 47.7851V75.1908C938.045 77.8873 936.606 80.3791 934.271 81.7273L910.537 95.4302C908.202 96.7784 905.325 96.7784 902.989 95.4302L879.255 81.7273C876.92 80.3791 875.481 77.8873 875.481 75.1908V47.7851C875.481 45.0886 876.92 42.5969 879.255 41.2486L902.989 27.5457C905.325 26.1975 908.202 26.1975 910.537 27.5457ZM908.65 30.814C907.482 30.1399 906.044 30.1399 904.876 30.814L881.142 44.5169C879.975 45.191 879.255 46.4368 879.255 47.7851V75.1908C879.255 76.5391 879.975 77.7849 881.142 78.4591L904.876 92.1619C906.044 92.836 907.482 92.836 908.65 92.1619L932.384 78.4591C933.552 77.7849 934.271 76.5391 934.271 75.1908V47.7851C934.271 46.4368 933.552 45.191 932.384 44.5169L908.65 30.814Z" fill="#009AFF"/>
<path fill-rule="evenodd" clip-rule="evenodd" d="M931.5 31C935.642 31 939 27.6421 939 23.5C939 19.3579 935.642 16 931.5 16C927.358 16 924 19.3579 924 23.5C924 27.6421 927.358 31 931.5 31ZM931.5 33C936.747 33 941 28.7467 941 23.5C941 18.2533 936.747 14 931.5 14C926.253 14 922 18.2533 922 23.5C922 28.7467 926.253 33 931.5 33Z" fill="#9013FE"/>
<path fill-rule="evenodd" clip-rule="evenodd" d="M637.035 27.5457L660.769 41.2486C663.104 42.5969 664.543 45.0886 664.543 47.7851V75.1908C664.543 77.8873 663.104 80.3791 660.769 81.7273L637.035 95.4302C634.7 96.7784 631.823 96.7784 629.487 95.4302L605.753 81.7273C603.418 80.3791 601.979 77.8873 601.979 75.1908V47.7851C601.979 45.0886 603.418 42.5969 605.753 41.2486L629.487 27.5457C631.823 26.1975 634.7 26.1975 637.035 27.5457ZM635.148 30.814C633.981 30.1399 632.542 30.1399 631.374 30.814L607.64 44.5169C606.473 45.191 605.753 46.4368 605.753 47.7851V75.1908C605.753 76.5391 606.473 77.7849 607.64 78.4591L631.374 92.1619C632.542 92.836 633.981 92.836 635.148 92.1619L658.882 78.4591C660.05 77.7849 660.769 76.5391 660.769 75.1908V47.7851C660.769 46.4368 660.05 45.191 658.882 44.5169L635.148 30.814Z" fill="#D8B6FF"/>
<path fill-rule="evenodd" clip-rule="evenodd" d="M588.5 69C592.642 69 596 65.6421 596 61.5C596 57.3579 592.642 54 588.5 54C584.358 54 581 57.3579 581 61.5C581 65.6421 584.358 69 588.5 69ZM588.5 71C593.747 71 598 66.7467 598 61.5C598 56.2533 593.747 52 588.5 52C583.253 52 579 56.2533 579 61.5C579 66.7467 583.253 71 588.5 71Z" fill="#009AFF"/>
<path fill-rule="evenodd" clip-rule="evenodd" d="M1328.54 58.8211L1352.27 72.524C1354.61 73.8723 1356.05 76.364 1356.05 79.0605V106.466C1356.05 109.163 1354.61 111.654 1352.27 113.003L1328.54 126.706C1326.2 128.054 1323.33 128.054 1320.99 126.706L1297.26 113.003C1294.92 111.654 1293.48 109.163 1293.48 106.466V79.0605C1293.48 76.364 1294.92 73.8723 1297.26 72.524L1320.99 58.8211C1323.33 57.4729 1326.2 57.4729 1328.54 58.8211ZM1326.65 62.0894C1325.48 61.4153 1324.04 61.4153 1322.88 62.0894L1299.14 75.7922C1297.98 76.4664 1297.26 77.7122 1297.26 79.0605V106.466C1297.26 107.814 1297.98 109.06 1299.14 109.734L1322.88 123.437C1324.04 124.111 1325.48 124.111 1326.65 123.437L1350.39 109.734C1351.55 109.06 1352.27 107.814 1352.27 106.466V79.0605C1352.27 77.7122 1351.55 76.4664 1350.39 75.7922L1326.65 62.0894Z" fill="#9013FE"/>
<path fill-rule="evenodd" clip-rule="evenodd" d="M1349.5 138C1353.64 138 1357 134.642 1357 130.5C1357 126.358 1353.64 123 1349.5 123C1345.36 123 1342 126.358 1342 130.5C1342 134.642 1345.36 138 1349.5 138ZM1349.5 140C1354.75 140 1359 135.747 1359 130.5C1359 125.253 1354.75 121 1349.5 121C1344.25 121 1340 125.253 1340 130.5C1340 135.747 1344.25 140 1349.5 140Z" fill="#D8B6FF"/>
<path fill-rule="evenodd" clip-rule="evenodd" d="M1466.54 27.5457L1490.27 41.2486C1492.61 42.5969 1494.05 45.0886 1494.05 47.7851V75.1908C1494.05 77.8873 1492.61 80.3791 1490.27 81.7273L1466.54 95.4302C1464.2 96.7784 1461.33 96.7784 1458.99 95.4302L1435.26 81.7273C1432.92 80.3791 1431.48 77.8873 1431.48 75.1908V47.7851C1431.48 45.0886 1432.92 42.5969 1435.26 41.2486L1458.99 27.5457C1461.33 26.1975 1464.2 26.1975 1466.54 27.5457ZM1464.65 30.814C1463.48 30.1399 1462.04 30.1399 1460.88 30.814L1437.14 44.5169C1435.98 45.191 1435.26 46.4368 1435.26 47.7851V75.1908C1435.26 76.5391 1435.98 77.7849 1437.14 78.4591L1460.88 92.1619C1462.04 92.836 1463.48 92.836 1464.65 92.1619L1488.39 78.4591C1489.55 77.7849 1490.27 76.5391 1490.27 75.1908V47.7851C1490.27 46.4368 1489.55 45.191 1488.39 44.5169L1464.65 30.814Z" fill="#009AFF"/>
<path fill-rule="evenodd" clip-rule="evenodd" d="M1495.93 39.4566L1468.42 23.5749L1470.31 20.3067L1497.82 36.1884L1495.93 39.4566Z" fill="#9013FE"/>
<path fill-rule="evenodd" clip-rule="evenodd" d="M1193.04 27.5457L1216.77 41.2486C1219.1 42.5969 1220.54 45.0886 1220.54 47.7851V75.1908C1220.54 77.8873 1219.1 80.3791 1216.77 81.7273L1193.04 95.4302C1190.7 96.7784 1187.82 96.7784 1185.49 95.4302L1161.75 81.7273C1159.42 80.3791 1157.98 77.8873 1157.98 75.1908V47.7851C1157.98 45.0886 1159.42 42.5969 1161.75 41.2486L1185.49 27.5457C1187.82 26.1975 1190.7 26.1975 1193.04 27.5457ZM1191.15 30.814C1189.98 30.1399 1188.54 30.1399 1187.37 30.814L1163.64 44.5169C1162.47 45.191 1161.75 46.4368 1161.75 47.7851V75.1908C1161.75 76.5391 1162.47 77.7849 1163.64 78.4591L1187.37 92.1619C1188.54 92.836 1189.98 92.836 1191.15 92.1619L1214.88 78.4591C1216.05 77.7849 1216.77 76.5391 1216.77 75.1908V47.7851C1216.77 46.4368 1216.05 45.191 1214.88 44.5169L1191.15 30.814Z" fill="#D8B6FF"/>
<path fill-rule="evenodd" clip-rule="evenodd" d="M1144.5 69C1148.64 69 1152 65.6421 1152 61.5C1152 57.3579 1148.64 54 1144.5 54C1140.36 54 1137 57.3579 1137 61.5C1137 65.6421 1140.36 69 1144.5 69ZM1144.5 71C1149.75 71 1154 66.7467 1154 61.5C1154 56.2533 1149.75 52 1144.5 52C1139.25 52 1135 56.2533 1135 61.5C1135 66.7467 1139.25 71 1144.5 71Z" fill="#009AFF"/>
<path fill-rule="evenodd" clip-rule="evenodd" d="M412.311 129.457L439.819 113.575L437.932 110.307L410.424 126.188L412.311 129.457Z" fill="#140540"/>
<path fill-rule="evenodd" clip-rule="evenodd" d="M702.564 129.457L675.056 113.575L676.943 110.307L704.451 126.188L702.564 129.457Z" fill="#140540"/>
<path fill-rule="evenodd" clip-rule="evenodd" d="M795.944 27.4566L823.451 11.5749L821.564 8.30669L794.057 24.1884L795.944 27.4566Z" fill="#140540"/>
<path fill-rule="evenodd" clip-rule="evenodd" d="M1388.56 27.4566L1361.06 11.5749L1362.94 8.30669L1390.45 24.1884L1388.56 27.4566Z" fill="#140540"/>
<path fill-rule="evenodd" clip-rule="evenodd" d="M1252.56 137.457L1225.06 121.575L1226.94 118.307L1254.45 134.188L1252.56 137.457Z" fill="#140540"/>
<path fill-rule="evenodd" clip-rule="evenodd" d="M1049.94 137.457L1077.45 121.575L1075.56 118.307L1048.06 134.188L1049.94 137.457Z" fill="#140540"/>
<path fill-rule="evenodd" clip-rule="evenodd" d="M232.564 27.4566L205.056 11.5749L206.943 8.30669L234.451 24.1884L232.564 27.4566Z" fill="#140540"/>
<path fill-rule="evenodd" clip-rule="evenodd" d="M108.564 110.306L81.0564 126.188L82.9433 129.456L110.451 113.575L108.564 110.306Z" fill="#140540"/>
<path d="M340 60.7812C340 59.7197 339.415 58.8029 338.556 58.3052V51.4379C338.556 51.0449 338.24 50 337.111 50C336.79 50 336.471 50.1069 336.209 50.3154L332.371 53.3714C330.443 54.905 328.023 55.75 325.556 55.75H316.889C315.293 55.75 314 57.037 314 58.625V62.9375C314 64.5255 315.293 65.8125 316.889 65.8125H318.41C318.347 66.2833 318.312 66.7621 318.312 67.25C318.312 69.0365 318.73 70.7247 319.465 72.2336C319.7 72.7138 320.211 73 320.747 73H324.1C325.276 73 325.982 71.6595 325.269 70.7288C324.529 69.762 324.089 68.5563 324.089 67.25C324.089 66.7509 324.162 66.2712 324.288 65.8125H325.556C328.023 65.8125 330.443 66.6575 332.371 68.1911L336.209 71.2471C336.465 71.451 336.783 71.5622 337.111 71.5625C338.236 71.5625 338.555 70.5392 338.555 70.125V63.2578C339.415 62.7596 340 61.8428 340 60.7812ZM335.667 67.1341L334.175 65.9464C331.737 64.0057 328.676 62.9375 325.556 62.9375V58.625C328.676 58.625 331.737 57.5568 334.175 55.6161L335.667 54.4284V67.1341Z" fill="#4D00B4"/>
<path d="M202 92.7812C202 91.7197 201.415 90.8029 200.556 90.3052V83.4379C200.556 83.0449 200.24 82 199.111 82C198.79 82 198.471 82.1069 198.209 82.3154L194.371 85.3714C192.443 86.905 190.023 87.75 187.556 87.75H178.889C177.293 87.75 176 89.037 176 90.625V94.9375C176 96.5255 177.293 97.8125 178.889 97.8125H180.41C180.347 98.2833 180.312 98.7621 180.312 99.25C180.312 101.037 180.73 102.725 181.465 104.234C181.7 104.714 182.211 105 182.747 105H186.1C187.276 105 187.982 103.66 187.269 102.729C186.529 101.762 186.089 100.556 186.089 99.25C186.089 98.7509 186.162 98.2712 186.288 97.8125H187.556C190.023 97.8125 192.443 98.6575 194.371 100.191L198.209 103.247C198.465 103.451 198.783 103.562 199.111 103.562C200.236 103.562 200.555 102.539 200.555 102.125V95.2578C201.415 94.7596 202 93.8428 202 92.7812ZM197.667 99.1341L196.175 97.9464C193.737 96.0057 190.676 94.9375 187.556 94.9375V90.625C190.676 90.625 193.737 89.5568 196.175 87.6161L197.667 86.4284V99.1341Z" fill="#D8B6FF"/>
<path d="M66 60.7812C66 59.7197 65.4155 58.8029 64.5556 58.3052V51.4379C64.5556 51.0449 64.2405 50 63.1111 50C62.7897 50 62.4706 50.1069 62.2092 50.3154L58.3711 53.3714C56.4432 54.905 54.0228 55.75 51.5556 55.75H42.8889C41.2932 55.75 40 57.037 40 58.625V62.9375C40 64.5255 41.2932 65.8125 42.8889 65.8125H44.4101C44.3473 66.2833 44.3117 66.7621 44.3117 67.25C44.3117 69.0365 44.7297 70.7247 45.4654 72.2336C45.6997 72.7138 46.2111 73 46.7474 73H50.1003C51.2761 73 51.9821 71.6595 51.2694 70.7288C50.5291 69.762 50.089 68.5563 50.089 67.25C50.089 66.7509 50.1621 66.2712 50.2881 65.8125H51.5556C54.0228 65.8125 56.4432 66.6575 58.3706 68.1911L62.2088 71.2471C62.4648 71.451 62.7828 71.5622 63.1107 71.5625C64.2355 71.5625 64.5551 70.5392 64.5551 70.125V63.2578C65.4155 62.7596 66 61.8428 66 60.7812ZM61.6667 67.1341L60.1748 65.9464C57.7373 64.0057 54.6756 62.9375 51.5556 62.9375V58.625C54.6756 58.625 57.7373 57.5568 60.1748 55.6161L61.6667 54.4284V67.1341Z" fill="#009AFF"/>
<path d="M920 60.7812C920 59.7197 919.415 58.8029 918.556 58.3052V51.4379C918.556 51.0449 918.24 50 917.111 50C916.79 50 916.471 50.1069 916.209 50.3154L912.371 53.3714C910.443 54.905 908.023 55.75 905.556 55.75H896.889C895.293 55.75 894 57.037 894 58.625V62.9375C894 64.5255 895.293 65.8125 896.889 65.8125H898.41C898.347 66.2833 898.312 66.7621 898.312 67.25C898.312 69.0365 898.73 70.7247 899.465 72.2336C899.7 72.7138 900.211 73 900.747 73H904.1C905.276 73 905.982 71.6595 905.269 70.7288C904.529 69.762 904.089 68.5563 904.089 67.25C904.089 66.7509 904.162 66.2712 904.288 65.8125H905.556C908.023 65.8125 910.443 66.6575 912.371 68.1911L916.209 71.2471C916.465 71.451 916.783 71.5622 917.111 71.5625C918.236 71.5625 918.555 70.5392 918.555 70.125V63.2578C919.415 62.7596 920 61.8428 920 60.7812ZM915.667 67.1341L914.175 65.9464C911.737 64.0057 908.676 62.9375 905.556 62.9375V58.625C908.676 58.625 911.737 57.5568 914.175 55.6161L915.667 54.4284V67.1341Z" fill="#4D00B4"/>
<path d="M781 91.7812C781 90.7197 780.415 89.8029 779.556 89.3052V82.4379C779.556 82.0449 779.24 81 778.111 81C777.79 81 777.471 81.1069 777.209 81.3154L773.371 84.3714C771.443 85.905 769.023 86.75 766.556 86.75H757.889C756.293 86.75 755 88.037 755 89.625V93.9375C755 95.5255 756.293 96.8125 757.889 96.8125H759.41C759.347 97.2833 759.312 97.7621 759.312 98.25C759.312 100.037 759.73 101.725 760.465 103.234C760.7 103.714 761.211 104 761.747 104H765.1C766.276 104 766.982 102.66 766.269 101.729C765.529 100.762 765.089 99.5563 765.089 98.25C765.089 97.7509 765.162 97.2712 765.288 96.8125H766.556C769.023 96.8125 771.443 97.6575 773.371 99.1911L777.209 102.247C777.465 102.451 777.783 102.562 778.111 102.562C779.236 102.562 779.555 101.539 779.555 101.125V94.2578C780.415 93.7596 781 92.8428 781 91.7812ZM776.667 98.1341L775.175 96.9464C772.737 95.0057 769.676 93.9375 766.556 93.9375V89.625C769.676 89.625 772.737 88.5568 775.175 86.6161L776.667 85.4284V98.1341Z" fill="#D8B6FF"/>
<path d="M646 60.7812C646 59.7197 645.415 58.8029 644.556 58.3052V51.4379C644.556 51.0449 644.24 50 643.111 50C642.79 50 642.471 50.1069 642.209 50.3154L638.371 53.3714C636.443 54.905 634.023 55.75 631.556 55.75H622.889C621.293 55.75 620 57.037 620 58.625V62.9375C620 64.5255 621.293 65.8125 622.889 65.8125H624.41C624.347 66.2833 624.312 66.7621 624.312 67.25C624.312 69.0365 624.73 70.7247 625.465 72.2336C625.7 72.7138 626.211 73 626.747 73H630.1C631.276 73 631.982 71.6595 631.269 70.7288C630.529 69.762 630.089 68.5563 630.089 67.25C630.089 66.7509 630.162 66.2712 630.288 65.8125H631.556C634.023 65.8125 636.443 66.6575 638.371 68.1911L642.209 71.2471C642.465 71.451 642.783 71.5622 643.111 71.5625C644.236 71.5625 644.555 70.5392 644.555 70.125V63.2578C645.415 62.7596 646 61.8428 646 60.7812ZM641.667 67.1341L640.175 65.9464C637.737 64.0057 634.676 62.9375 631.556 62.9375V58.625C634.676 58.625 637.737 57.5568 640.175 55.6161L641.667 54.4284V67.1341Z" fill="#009AFF"/>
<path d="M1476 60.7812C1476 59.7197 1475.42 58.8029 1474.56 58.3052V51.4379C1474.56 51.0449 1474.24 50 1473.11 50C1472.79 50 1472.47 50.1069 1472.21 50.3154L1468.37 53.3714C1466.44 54.905 1464.02 55.75 1461.56 55.75H1452.89C1451.29 55.75 1450 57.037 1450 58.625V62.9375C1450 64.5255 1451.29 65.8125 1452.89 65.8125H1454.41C1454.35 66.2833 1454.31 66.7621 1454.31 67.25C1454.31 69.0365 1454.73 70.7247 1455.47 72.2336C1455.7 72.7138 1456.21 73 1456.75 73H1460.1C1461.28 73 1461.98 71.6595 1461.27 70.7288C1460.53 69.762 1460.09 68.5563 1460.09 67.25C1460.09 66.7509 1460.16 66.2712 1460.29 65.8125H1461.56C1464.02 65.8125 1466.44 66.6575 1468.37 68.1911L1472.21 71.2471C1472.46 71.451 1472.78 71.5622 1473.11 71.5625C1474.24 71.5625 1474.56 70.5392 1474.56 70.125V63.2578C1475.42 62.7596 1476 61.8428 1476 60.7812ZM1471.67 67.1341L1470.17 65.9464C1467.74 64.0057 1464.68 62.9375 1461.56 62.9375V58.625C1464.68 58.625 1467.74 57.5568 1470.17 55.6161L1471.67 54.4284V67.1341Z" fill="#4D00B4"/>
<path d="M1338 92.7812C1338 91.7197 1337.42 90.8029 1336.56 90.3052V83.4379C1336.56 83.0449 1336.24 82 1335.11 82C1334.79 82 1334.47 82.1069 1334.21 82.3154L1330.37 85.3714C1328.44 86.905 1326.02 87.75 1323.56 87.75H1314.89C1313.29 87.75 1312 89.037 1312 90.625V94.9375C1312 96.5255 1313.29 97.8125 1314.89 97.8125H1316.41C1316.35 98.2833 1316.31 98.7621 1316.31 99.25C1316.31 101.037 1316.73 102.725 1317.47 104.234C1317.7 104.714 1318.21 105 1318.75 105H1322.1C1323.28 105 1323.98 103.66 1323.27 102.729C1322.53 101.762 1322.09 100.556 1322.09 99.25C1322.09 98.7509 1322.16 98.2712 1322.29 97.8125H1323.56C1326.02 97.8125 1328.44 98.6575 1330.37 100.191L1334.21 103.247C1334.46 103.451 1334.78 103.562 1335.11 103.562C1336.24 103.562 1336.56 102.539 1336.56 102.125V95.2578C1337.42 94.7596 1338 93.8428 1338 92.7812ZM1333.67 99.1341L1332.17 97.9464C1329.74 96.0057 1326.68 94.9375 1323.56 94.9375V90.625C1326.68 90.625 1329.74 89.5568 1332.17 87.6161L1333.67 86.4284V99.1341Z" fill="#D8B6FF"/>
<path d="M1202 60.7812C1202 59.7197 1201.42 58.8029 1200.56 58.3052V51.4379C1200.56 51.0449 1200.24 50 1199.11 50C1198.79 50 1198.47 50.1069 1198.21 50.3154L1194.37 53.3714C1192.44 54.905 1190.02 55.75 1187.56 55.75H1178.89C1177.29 55.75 1176 57.037 1176 58.625V62.9375C1176 64.5255 1177.29 65.8125 1178.89 65.8125H1180.41C1180.35 66.2833 1180.31 66.7621 1180.31 67.25C1180.31 69.0365 1180.73 70.7247 1181.47 72.2336C1181.7 72.7138 1182.21 73 1182.75 73H1186.1C1187.28 73 1187.98 71.6595 1187.27 70.7288C1186.53 69.762 1186.09 68.5563 1186.09 67.25C1186.09 66.7509 1186.16 66.2712 1186.29 65.8125H1187.56C1190.02 65.8125 1192.44 66.6575 1194.37 68.1911L1198.21 71.2471C1198.46 71.451 1198.78 71.5622 1199.11 71.5625C1200.24 71.5625 1200.56 70.5392 1200.56 70.125V63.2578C1201.42 62.7596 1202 61.8428 1202 60.7812ZM1197.67 67.1341L1196.17 65.9464C1193.74 64.0057 1190.68 62.9375 1187.56 62.9375V58.625C1190.68 58.625 1193.74 57.5568 1196.17 55.6161L1197.67 54.4284V67.1341Z" fill="#009AFF"/>
</svg>
