<?xml version="1.0" encoding="UTF-8"?>
<svg width="205px" height="208px" viewBox="0 0 205 208" version="1.1" xmlns="http://www.w3.org/2000/svg" xmlns:xlink="http://www.w3.org/1999/xlink">
    <!-- Generator: Sketch 58 (84663) - https://sketch.com -->
    <title>supply-chain-icon</title>
    <desc>Created with Sketch.</desc>
    <g id="Logos,-Icons,-Illustrations" stroke="none" stroke-width="1" fill="none" fill-rule="evenodd">
        <g id="supply-chain-icon">
            <ellipse id="Oval" fill="#9013FE" cx="102.5" cy="103.75" rx="102.5" ry="103.75"></ellipse>
            <path d="M164.875,122.75 L161.75,122.75 L161.75,101.636719 C161.75,99.15625 160.753906,96.7734375 158.996094,95.015625 L139.484375,75.5039062 C137.726562,73.7460938 135.34375,72.75 132.863281,72.75 L124.25,72.75 L124.25,63.375 C124.25,58.1992188 120.050781,54 114.875,54 L52.375,54 C47.1992188,54 43,58.1992188 43,63.375 L43,125.875 C43,131.050781 47.1992188,135.25 52.375,135.25 L55.5,135.25 C55.5,145.601562 63.8984375,154 74.25,154 C84.6015625,154 93,145.601562 93,135.25 L118,135.25 C118,145.601562 126.398438,154 136.75,154 C147.101562,154 155.5,145.601562 155.5,135.25 L164.875,135.25 C166.59375,135.25 168,133.84375 168,132.125 L168,125.875 C168,124.15625 166.59375,122.75 164.875,122.75 Z M74.25,144.625 C69.0742187,144.625 64.875,140.425781 64.875,135.25 C64.875,130.074219 69.0742187,125.875 74.25,125.875 C79.4257812,125.875 83.625,130.074219 83.625,135.25 C83.625,140.425781 79.4257812,144.625 74.25,144.625 Z M136.75,144.625 C131.574219,144.625 127.375,140.425781 127.375,135.25 C127.375,130.074219 131.574219,125.875 136.75,125.875 C141.925781,125.875 146.125,130.074219 146.125,135.25 C146.125,140.425781 141.925781,144.625 136.75,144.625 Z M152.375,104 L124.25,104 L124.25,82.125 L132.863281,82.125 L152.375,101.636719 L152.375,104 Z" id="Shape" fill="#FFFFFF" fill-rule="nonzero"></path>
        </g>
    </g>
</svg>