<?xml version="1.0" encoding="UTF-8"?>
<svg width="205px" height="208px" viewBox="0 0 205 208" version="1.1" xmlns="http://www.w3.org/2000/svg" xmlns:xlink="http://www.w3.org/1999/xlink">
    <!-- Generator: Sketch 58 (84663) - https://sketch.com -->
    <title>token-listing-icon</title>
    <desc>Created with Sketch.</desc>
    <g id="Logos,-Icons,-Illustrations" stroke="none" stroke-width="1" fill="none" fill-rule="evenodd">
        <g id="token-listing-icon">
            <ellipse id="Oval" fill="#9013FE" cx="102.5" cy="103.75" rx="102.5" ry="103.75"></ellipse>
            <g id="Group-69" transform="translate(40.000000, 41.000000)" fill="#FFFFFF" fill-rule="nonzero">
                <g id="copyright">
                    <path d="M62.5,130 C99.7792206,130 130,99.7792206 130,62.5 C130,25.2207794 99.7792206,-5 62.5,-5 C25.2207794,-5 -5,25.2207794 -5,62.5 C-5,99.7792206 25.2207794,130 62.5,130 Z M62.5,120 C30.7436269,120 5,94.2563731 5,62.5 C5,30.7436269 30.7436269,5 62.5,5 C94.2563731,5 120,30.7436269 120,62.5 C120,94.2563731 94.2563731,120 62.5,120 Z" id="Oval"></path>
                </g>
                <g id="ETHEREUM-LOGO" transform="translate(37.000000, 22.000000)">
                    <path d="M23.8459494,-0.499969981 L-0.993391395,41.2392692 C-1.32341109,41.7938238 -1.13797718,42.5110795 -0.580533894,42.8361961 L24.2588069,57.323198 C24.6205868,57.5341982 25.0679573,57.5340358 25.4295839,57.3227729 L50.2275272,42.835771 C50.784162,42.510584 50.969366,41.794227 50.6400913,41.2400005 L25.842148,-0.499238631 C25.3923166,-1.25638283 24.2963355,-1.25678436 23.8459494,-0.499969981 Z M24.8429989,2.365932 L48.0459608,41.420541 L24.8433431,54.975551 L1.60147949,41.4202427 L24.8429989,2.365932 Z" id="Path-6"></path>
                    <path d="M49.3754264,45.2921915 C50.4540092,44.6442403 51.6488511,45.9347473 50.9199069,46.9603312 L25.7903273,82.3162528 C25.3258445,82.9697543 24.3545641,82.9670954 23.8936662,82.3110607 L-0.945674603,46.955139 C-1.66985313,45.9243548 -0.464547644,44.6397596 0.610223599,45.2968877 L24.7743447,60.0711221 L49.3754264,45.2921915 Z M24.8493396,79.6313723 L45.8069055,50.1452421 L25.3670318,62.4243556 C24.9962359,62.6471087 24.5323607,62.6452989 24.1633141,62.4196594 L4.16849312,50.1945852 L24.8493396,79.6313723 Z" id="Path-7"></path>
                    <polygon id="Path-8" points="26.0050395 81.6392729 25.9302555 61.1981293 23.607839 61.2066259 23.682623 81.6477695"></polygon>
                    <path d="M49.1717757,42.8949655 L50.1117734,40.7712671 L25.2390462,29.7620256 C24.9391215,29.629272 24.5970434,29.6295483 24.2973336,29.7627862 L-0.467223204,40.7720278 L0.476204113,42.8942048 L24.7700734,32.0942104 L49.1717757,42.8949655 Z" id="Path-9"></path>
                    <polygon id="Path-10" points="23.6078323 0.0954216286 23.6826163 56.3216627 26.0050462 56.3185737 25.9302622 0.0923326687"></polygon>
                </g>
            </g>
        </g>
    </g>
</svg>