<svg enable-background="new 0 0 32.2 28.5" viewBox="0 0 32.2 28.5" xmlns="http://www.w3.org/2000/svg"><g fill="#4155ff"><path d="m-4.7 35.6c-.1-.2-.3-.4-.5-.6-.1 0-.3 0-.4 0-.4 0-.7.2-.9.6-.3.5-.5 1.1-.9 1.6-2.7-7.4-10.9-11.1-18.3-8.4-6.4 2.4-10.3 9-9.1 15.8-.8 1-1.4 2.1-2 3.2-.2.5 0 1.1.5 1.3s1.1 0 1.3-.5c.3-.5.5-1.1.9-1.6 2.7 7.4 10.9 11.1 18.3 8.4 6.4-2.4 10.3-9 9.1-15.8.8-1 1.4-2.1 2-3.2.1-.2.1-.5 0-.8zm-3.7 6.5c0 6.8-5.5 12.3-12.3 12.3-5.6 0-10.6-3.8-11.9-9.3 2.5-2.8 5.7-4.7 9.3-5.6 2-.5 4-.9 6.1-.9l-2.9 2.9 1.4 1.4 5.3-5.3-6.1-6.1-1.4 1.4 3.7 3.7c-2.2.1-4.5.4-6.6 1-2.5.7-4.9 1.8-7.1 3.3-.8.5-1.5 1.1-2.1 1.8 0-.2 0-.3 0-.5 0-6.8 5.5-12.3 12.3-12.2 5.6 0 10.5 3.8 11.9 9.3-2.5 2.8-5.7 4.8-9.3 5.6-2 .5-4.1.9-6.1.9l2.9-2.9-1.4-1.4-5.3 5.3 6.1 6.1 1.4-1.4-3.7-3.7c2.2-.1 4.5-.4 6.6-1 2.5-.7 4.9-1.8 7.1-3.3.8-.5 1.5-1.1 2.1-1.8-.1.1 0 .2 0 .4z"/><path d="m16.1 28.4c-7.8 0-14.2-6.4-14.2-14.2s6.3-14.2 14.2-14.2c7.8 0 14.2 6.4 14.2 14.2 0 7.9-6.4 14.2-14.2 14.2zm0-26.7c-6.9 0-12.5 5.6-12.5 12.5s5.6 12.5 12.5 12.5 12.5-5.6 12.5-12.5-5.6-12.5-12.5-12.5z"/><path d="m17.4 3.6-1.2 1.2 3.8 3.9c-1.6 0-4.1.2-6.9 1-2.7.8-5.1 1.9-7.1 3.3-2.5 1.8-4.5 4.2-5.9 7-.2.4 0 .9.4 1.1.1.1.2.1.4.1.3 0 .6-.2.8-.5 2.2-4.7 6.2-7.8 11.8-9.4 2.6-.7 5.1-.9 6.5-1l-3.1 3.1 1.2 1.2 5.2-5.2z"/><path d="m31.7 7.3c-.4-.2-.9 0-1.1.4-2.2 4.7-6.2 7.8-11.8 9.4-2.6.7-5.1.9-6.5 1l3.1-3.1-1.2-1.2-5.2 5.2 5.9 5.9 1.2-1.2-3.8-3.8c1.6 0 4.1-.2 6.9-1 2.7-.7 5.1-1.8 7.1-3.3 2.6-1.8 4.5-4.2 5.9-7 .1-.6-.1-1.1-.5-1.3z"/></g></svg>