<?xml version="1.0" encoding="UTF-8"?>
<svg width="751px" height="731px" viewBox="0 0 751 731" version="1.1" xmlns="http://www.w3.org/2000/svg" xmlns:xlink="http://www.w3.org/1999/xlink">
    <!-- Generator: Sketch 54.1 (76490) - https://sketchapp.com -->
    <title>symbol-oracle</title>
    <desc>Created with Sketch.</desc>
    <defs>
        <linearGradient x1="50%" y1="0%" x2="50%" y2="100%" id="linearGradient-1">
            <stop stop-color="#8710F4" offset="0%"></stop>
            <stop stop-color="#5A00BD" offset="100%"></stop>
        </linearGradient>
    </defs>
    <g id="symbol-oracle" stroke="none" stroke-width="1" fill="none" fill-rule="evenodd">
        <g id="Group-89" transform="translate(45.000000, -4.000000)">
            <g id="Group-86">
                <g id="Group-85" transform="translate(0.000000, 56.990785)">
                    <circle id="Oval" fill="#E0C2FC" cx="315.333333" cy="315.333333" r="315.333333"></circle>
                    <circle id="Oval" fill="url(#linearGradient-1)" cx="315.333333" cy="315.333333" r="291.373134"></circle>
                    <g id="Group-83" transform="translate(100.975124, 101.830846)" fill="#E0C2FC" fill-rule="nonzero">
                        <path d="M213.930348,427.860697 C332.080817,427.860697 427.860697,332.080817 427.860697,213.930348 C427.860697,95.7798794 332.080817,0 213.930348,0 C95.7798794,0 0,95.7798794 0,213.930348 C0,332.080817 95.7798794,427.860697 213.930348,427.860697 Z M213.930348,419.303483 C100.505898,419.303483 8.55721393,327.354798 8.55721393,213.930348 C8.55721393,100.505898 100.505898,8.55721393 213.930348,8.55721393 C327.354798,8.55721393 419.303483,100.505898 419.303483,213.930348 C419.303483,327.354798 327.354798,419.303483 213.930348,419.303483 Z" id="Oval"></path>
                    </g>
                    <g id="Group-88" transform="translate(332.175183, 353.256365) rotate(77.000000) translate(-332.175183, -353.256365) translate(146.911501, 150.450395)" fill="#E0C2FC">
                        <circle id="Oval" cx="23.9812151" cy="380.993409" r="23.960199"></circle>
                        <circle id="Oval" cx="346.260115" cy="259.411354" r="23.960199"></circle>
                        <circle id="Oval" cx="47.491543" cy="26.0127685" r="23.960199"></circle>
                    </g>
                    <g id="Group-5" transform="translate(155.741294, 149.751244)">
                        <polygon id="Polygon" fill="#5100B6" transform="translate(159.184200, 166.136276) rotate(-23.000000) translate(-159.184200, -166.136276) " points="151.96074 36.0027846 273.463239 93.9142224 276.66768 225.425666 163.04339 296.269768 41.8949486 235.659376 41.7007196 94.5553561"></polygon>
                        <path d="M100.124929,48.5045924 L236.552634,54.5596753 L291.78689,176.420876 L213.861613,287.793915 L76.6922613,279.0715 L20.4573834,147.035649 L100.124929,48.5045924 Z M199.660776,119.662594 L101.008366,162.381981 L185.350028,227.014197 L199.660776,119.662594 Z M188.239197,98.2563121 L109.399695,64.6115763 L92.8384911,135.35116 L188.239197,98.2563121 Z M168.256137,243.276228 L82.5729219,182.636249 L84.6455306,264.807029 L168.256137,243.276228 Z M277.411817,176.831285 L219.023079,118.108222 L203.6119,231.030151 L277.411817,176.831285 Z M188.345222,256.484576 L116.08266,275.203955 L201.063036,280.597244 L188.345222,256.484576 Z M266.001353,203.474148 L202.745748,250.1773 L215.314785,274.522911 L266.001353,203.474148 Z M236.081059,72.6934622 L223.795038,97.691317 L269.525814,143.76425 L236.081059,72.6934622 Z M220.773339,60.731153 L140.469159,57.5004316 L206.710552,86.2169196 L220.773339,60.731153 Z M88.138355,72.2911044 L31.8906289,142.685931 L69.4968476,150.580615 L88.138355,72.2911044 Z M67.2292906,164.389534 L29.4418042,156.460121 L68.8701058,248.522974 L67.2292906,164.389534 Z" id="Combined-Shape" fill="#FFFFFF"></path>
                    </g>
                </g>
                <g id="Group-84" transform="translate(589.680546, 130.925373) rotate(-312.000000) translate(-589.680546, -130.925373) translate(497.262635, 38.507463)">
                    <polygon id="Rectangle" fill="#E0C2FC" transform="translate(92.355199, 92.355199) rotate(-315.000000) translate(-92.355199, -92.355199) " points="27.0615981 27.0615981 157.6488 72.8898326 95.2312618 95.2312618 72.8898326 157.6488"></polygon>
                    <polygon id="Rectangle" fill="#CE9CFD" transform="translate(114.423131, 70.287267) rotate(-315.000000) translate(-114.423131, -70.287267) " points="49.1295304 36.202435 179.716733 82.0306695 117.299194 104.372099"></polygon>
                </g>
            </g>
        </g>
    </g>
</svg>