<svg xmlns="http://www.w3.org/2000/svg" xmlns:xlink="http://www.w3.org/1999/xlink" viewBox="0 0 376.89 128.65"><defs><style>.a{fill:none;}.b{clip-path:url(#a);}.c{fill:#e7e4fc;}</style><clipPath id="a"><circle class="a" cx="623.04" cy="-315.34" r="220.02"/></clipPath></defs><title>25531 [Konvertiert]</title><g class="b"><image width="2772" height="408" transform="translate(-368.55 -13.19) scale(0.55)" xlink:href="Bildschirmfoto%202021-09-03%20um%2020.13.31.png"/></g><path class="c" d="M68,37.45H90.44V60H68Z"/><path class="c" d="M127.62,89.74V67.23h22.51V89.74Z"/><path class="c" d="M90.47,97v22.49H68V97Z"/><path class="c" d="M38.06,67.18H60.61V89.7H38.06Z"/><path class="c" d="M60.66,7.91V30.35H38.1V7.91Z"/><path class="c" d="M150.17,30.45H127.69V7.9h22.48Z"/><path class="c" d="M60.67,37.51V60H38.08V37.51Z"/><path class="c" d="M97.7,60V37.49h22.49V60Z"/><path class="c" d="M127.57,60V37.52h22.57V60Z"/><path class="c" d="M30.71,96.94V119.4H8.16V96.94Z"/><path class="c" d="M38,119.35V96.93H60.58v22.42Z"/><path class="c" d="M97.78,96.86h22.47v22.58H97.78Z"/><path class="c" d="M150.16,119.49H127.65V96.92h22.51Z"/><path class="c" d="M180.14,119.48H157.6V96.9h22.54Z"/><path class="c" d="M223.15,120.09h-4.74V82h4.73V98h15.18V82H243v38h-4.65V102.81H223.15Z"/><path class="c" d="M278.32,102.78c.4-3.76-.55-5.65-3.12-6.75s-6.81-.77-7.88,1.37c-1.55,3.08-3.79,2.43-6.35,2.15.23-3.54,2.2-5.7,5.09-7.09a15.32,15.32,0,0,1,11.1-.65c4.18,1.21,6.42,4.19,6.54,8.57.08,3.05,0,6.1,0,9.16,0,1.75-.06,3.52.1,5.26s.55,3.26.88,5.14h-5.29c-.26-.57-.59-1.31-1-2.18-3.46,2.49-7.21,3.66-11.45,2.51-4-1.08-6.42-3.83-6.64-7.54-.23-4,1.67-7.33,5.55-8.65a34.84,34.84,0,0,1,7.31-1.27A47.91,47.91,0,0,1,278.32,102.78Zm.06,3.45c-3.16.34-6.18.5-9.13,1a4.08,4.08,0,0,0-3.56,4.58c.19,2.67,2,3.79,4.45,4.12C275.67,116.71,279,113.14,278.38,106.23Z"/><path class="c" d="M344.13,111.32h5.53c2.29,4.68,6.84,6.52,11.22,4.28a4.41,4.41,0,0,0,2.23-3,4.13,4.13,0,0,0-2.08-3.08c-2-1-4.39-1.35-6.57-2.11a26.91,26.91,0,0,1-5.58-2.32,6.68,6.68,0,0,1-1.63-9.91c4.07-5.33,15.23-5.46,19.31-.11,1,1.31,1.39,3.08,2.17,4.89-3,.43-5.08,1-6.69-2-1.49-2.78-7-3.1-9.51-1.12-2.23,1.72-2,4.37.61,5.49,1.93.82,4.08,1.13,6.1,1.78a31.64,31.64,0,0,1,5.67,2.13c4.65,2.58,5.08,8.39,1,11.83-4.72,4-14.54,3.64-18.67-.91C345.94,115.63,345.32,113.57,344.13,111.32Z"/><path class="c" d="M309.67,95.71H302.4v-4a35.94,35.94,0,0,1,4,0c2.44.28,3.68-.45,3.27-3.14a25.84,25.84,0,0,1,0-3.55h5.1v6.69h10.61v3.94H315c0,5.77-.22,11.37.1,16.94.14,2.49,2.36,3.68,4.86,3.62,1.84,0,3.67-.4,5.5-.61,1.75,3.25,1.46,4-1.95,4.62a25.61,25.61,0,0,1-2.74.44c-7.39.67-11-2.5-11.12-9.89C309.6,105.86,309.67,101,309.67,95.71Z"/><path class="c" d="M68,67.14h10V89.76H68Z"/><path class="c" d="M97.7,89.69V67.22H108V89.69Z"/><path class="c" d="M67.89,30.39V12.05l18,18.34Z"/><path class="c" d="M120.24,30.44H102.85l17.39-17.39Z"/></svg>