<svg xmlns="http://www.w3.org/2000/svg" xmlns:xlink="http://www.w3.org/1999/xlink" viewBox="0 0 461.66 461.66"><defs><style>.a{fill:none;}.b{clip-path:url(#a);}.c{fill:#e7e4fc;}.d{fill:#fff;}</style><clipPath id="a"><circle class="a" cx="230.83" cy="230.83" r="220.02"/></clipPath></defs><title>25531 [Konvertiert]</title><g class="b"><path class="c" d="M449.85,181.05c-18-74.25-62.24-126.69-132-157.46A200.09,200.09,0,0,0,250.24,7.12a28.18,28.18,0,0,1-4.28-1H216.82C205.26,8,193.5,9.07,182.16,11.82c-74.29,18-127.83,61.84-157.3,132.25-42.56,101.71-7.13,214.67,85.6,274.63C166.94,455.22,228.74,464,293.4,445.35c66-19,113.12-60.91,142.23-123a205,205,0,0,0,18.83-72.14,44.17,44.17,0,0,1,1.06-5.41V215.7C453.68,204.14,452.59,192.39,449.85,181.05ZM127.49,124.48h41.86v41.67H127.49Zm0,55.35h42v41.38h-42ZM114,331.63H72.34V289.76H114Zm55.36,0H127.66v-42h41.65Zm.19-55.46h-42V234.82h42Zm13.66-143.59L217,166.22H183.16Zm41.51,47.11v41.44h-41.5V179.69Zm-41.55,55.18H202v41.45H183.12ZM225,328.28c0,1.28-2.17,3.56-3.37,3.59-12.64.26-25.28.16-38.42.16V289.74h42C225.2,303,225.3,315.63,225,328.28ZM280.22,134v32.27H247.44ZM238.43,234.67h19.06V276.2H238.43Zm41.94,97.05H238.52V289.9h41.85Zm.05-110.51h-42V179.83h42Zm13.72-41.49H336v41.45H294.14Zm-.05,55h41.83V276.3H294.09ZM336,331.53H294.24V289.76H336Zm.23-165.15h-42V124.13c13.21,0,26.19-.08,39.17.13,1,0,2.71,2,2.73,3.09C336.3,140.15,336.24,153,336.24,166.38Zm55.1,165.37H349.7v-42h41.64Z"/><path class="d" d="M216.82,6.14C205.26,8,193.51,9.07,182.16,11.82c-74.3,18-127.83,61.85-157.29,132.24-42.57,101.72-7.14,214.69,85.59,274.65C166.93,455.23,228.74,464,293.4,445.35c66-19,113.13-60.91,142.22-123a204.56,204.56,0,0,0,18.84-72.15,44.39,44.39,0,0,1,1.06-5.4V455.52H6.14V6.14Z"/><path class="d" d="M455.52,215.7c-1.85-11.56-2.93-23.31-5.67-34.66-18-74.24-62.24-126.68-132-157.45A200.58,200.58,0,0,0,250.24,7.11a28.38,28.38,0,0,1-4.28-1H455.52Z"/></g></svg>