<svg width="50px" height="54" viewBox="0 0 134 134" fill="white" xmlns="http://www.w3.org/2000/svg"><path d="M34.9276 81.7701H34.613V82.0847V96.2542V96.5688H34.9276H49.0972H49.4117V96.2542V82.0847V81.7701H49.0972H34.9276Z" fill="white" stroke="black" stroke-width="0.62917"></path><path d="M50.8677 81.7701H50.5531V82.0847V96.2542V96.5688H50.8677H65.0372H65.3518V96.2542V82.0847V81.7701H65.0372H50.8677Z" fill="white" stroke="black" stroke-width="0.62917"></path><path d="M66.8055 81.7701H66.491V82.0847V96.2542V96.5688H66.8055H80.9751H81.2896V96.2542V82.0847V81.7701H80.9751H66.8055Z" fill="white" stroke="black" stroke-width="0.62917"></path><path d="M82.7483 81.7701H82.4337V82.0847V96.2542V96.5688H82.7483H96.9178H97.2324V96.2542V82.0847V81.7701H96.9178H82.7483Z" fill="white" stroke="black" stroke-width="0.62917"></path><path d="M98.693 81.7701H98.3784V82.0847V96.2542V96.5688H98.693H112.863H113.177V96.2542V82.0847V81.7701H112.863H98.693Z" fill="white" stroke="black" stroke-width="0.62917"></path><path d="M34.9276 66.1849H34.613V66.4995V80.3148V80.6294H34.9276H49.0972H49.4117V80.3148V66.4995V66.1849H49.0972H34.9276Z" fill="white" stroke="black" stroke-width="0.62917"></path><path d="M50.8677 66.1849H50.5531V66.4995V80.3148V80.6294H50.8677H65.0372H65.3518V80.3148V66.4995V66.1849H65.0372H50.8677Z" fill="white" stroke="black" stroke-width="0.62917"></path><path d="M57.9542 66.1849H57.6396V66.4995V80.3148V80.6294H57.9542H65.039H65.3536V80.3148V66.4995V66.1849H65.039H57.9542Z" fill="#050505" stroke="black" stroke-width="0.62917"></path><path d="M66.8055 66.1849H66.491V66.4995V80.3148V80.6294H66.8055H80.9751H81.2896V80.3148V66.4995V66.1849H80.9751H66.8055Z" fill="white" stroke="black" stroke-width="0.62917"></path><path d="M73.8905 66.1849H73.5759V66.4995V80.3148V80.6294H73.8905H80.9753H81.2898V80.3148V66.4995V66.1849H80.9753H73.8905Z" fill="#050505" stroke="black" stroke-width="0.62917"></path><path d="M82.7483 66.1849H82.4337V66.4995V80.3148V80.6294H82.7483H96.9178H97.2324V80.3148V66.4995V66.1849H96.9178H82.7483Z" fill="white" stroke="black" stroke-width="0.62917"></path><path d="M34.9276 50.2435H34.613V50.5581V64.7276V65.0422H34.9276H49.0972H49.4117V64.7276V50.5581V50.2435H49.0972H34.9276Z" fill="white" stroke="black" stroke-width="0.62917"></path><path d="M50.8677 50.2435H50.5531V50.5581V64.7276V65.0422H50.8677H65.0372H65.3518V64.7276V50.5581V50.2435H65.0372H50.8677Z" fill="white" stroke="black" stroke-width="0.62917"></path><path d="M66.8055 50.2435H66.491V50.5581V64.7276V65.0422H66.8055H80.9751H81.2896V64.7276V50.5581V50.2435H80.9751H66.8055Z" fill="white" stroke="black" stroke-width="0.62917"></path><path d="M82.7483 50.2435H82.4337V50.5581V64.7276V65.0422H82.7483H96.9178H97.2324V64.7276V50.5581V50.2435H96.9178H82.7483Z" fill="white" stroke="black" stroke-width="0.62917"></path><path d="M34.9276 34.3024H34.613V34.6169V48.7865V49.1011H34.9276H49.0972H49.4117V48.7865V34.6169V34.3024H49.0972H34.9276Z" fill="white" stroke="black" stroke-width="0.62917"></path><path d="M82.7483 34.3024H82.4337V34.6169V48.7865V49.1011H82.7483H96.9178H97.2324V48.7865V34.6169V34.3024H96.9178H82.7483Z" fill="white" stroke="black" stroke-width="0.62917"></path><path d="M18.985 81.7701H18.6704V82.0847V96.2542V96.5688H18.985H33.1545H33.4691V96.2542V82.0847V81.7701H33.1545H18.985Z" fill="white" stroke="black" stroke-width="0.62917"></path><mask id="path-19-outside-1" maskUnits="userSpaceOnUse" x="49.8629" y="32.7222" width="17" height="17" fill="black"><rect fill="white" x="49.8629" y="32.7222" width="17" height="17"></rect><path fill-rule="evenodd" clip-rule="evenodd" d="M50.8629 34.7222L64.9309 48.7901H50.8629V34.7222Z"></path></mask><path fill-rule="evenodd" clip-rule="evenodd" d="M50.8629 34.7222L64.9309 48.7901H50.8629V34.7222Z" fill="white"></path><path d="M50.8629 34.7222L51.3078 34.2773L50.2337 33.2032V34.7222H50.8629ZM64.9309 48.7901V49.4193H66.4498L65.3758 48.3452L64.9309 48.7901ZM50.8629 48.7901H50.2337V49.4193H50.8629V48.7901ZM50.418 35.1671L64.486 49.235L65.3758 48.3452L51.3078 34.2773L50.418 35.1671ZM50.8629 49.4193H64.9309V48.161H50.8629V49.4193ZM50.2337 34.7222V48.7901H51.4921V34.7222H50.2337Z" fill="black" mask="url(#path-19-outside-1)"></path><mask id="path-21-outside-2" maskUnits="userSpaceOnUse" x="64.8783" y="32.7268" width="17" height="17" fill="black"><rect fill="white" x="64.8783" y="32.7268" width="17" height="17"></rect><path fill-rule="evenodd" clip-rule="evenodd" d="M80.8783 34.7268L66.815 48.7901H80.8783V34.7268Z"></path></mask><path fill-rule="evenodd" clip-rule="evenodd" d="M80.8783 34.7268L66.815 48.7901H80.8783V34.7268Z" fill="white"></path><path d="M80.8783 34.7268L80.4334 34.2819L81.5075 33.2079V34.7268H80.8783ZM66.815 48.7901V49.4193H65.2961L66.3701 48.3452L66.815 48.7901ZM80.8783 48.7901H81.5075V49.4193H80.8783V48.7901ZM81.3232 35.1717L67.2599 49.235L66.3701 48.3452L80.4334 34.2819L81.3232 35.1717ZM80.8783 49.4193H66.815V48.1609H80.8783V49.4193ZM81.5075 34.7268V48.7901H80.2491V34.7268H81.5075Z" fill="black" mask="url(#path-21-outside-2)"></path></svg>
