<svg id="Group" xmlns="http://www.w3.org/2000/svg" width="345.813" height="305.75" viewBox="0 0 345.813 305.75">
  <defs>
    <style>
      .cls-1 {
        fill-rule: evenodd;
      }
    </style>
  </defs>
  <path id="Path" class="cls-1" d="M350.442,168.45L251.593,68.127l-26,192.45Zm-18.316-.344L257.844,92.635,238.238,237.762Z" transform="translate(-4.625 -4.719)"/>
  <path id="Path-2" data-name="Path" class="cls-1" d="M71.979,145.885L251.593,68.127l-26,192.45ZM233.211,94.633L215.005,232.6l-107.3-83.066Z" transform="translate(-4.625 -4.719)"/>
  <path id="Path-3" data-name="Path" class="cls-1" d="M251.593,68.127L105.658,4.725,71.979,145.885Zm-32.912-1.006-100.3-43.24L97.313,114.8Z" transform="translate(-4.625 -4.719)"/>
  <path id="Path-4" data-name="Path" class="cls-1" d="M71.979,145.885l3.439,153.951L225.6,260.577ZM193.259,253.5L84.253,175.566,86.89,281.172Z" transform="translate(-4.625 -4.719)"/>
  <path id="Path-5" data-name="Path" class="cls-1" d="M251.593,68.127l27.59-55.652L105.658,4.725Zm8.478-49.233L242.18,51.648,157.908,14.742Z" transform="translate(-4.625 -4.719)"/>
  <path id="Path-6" data-name="Path" class="cls-1" d="M279.183,12.475L350.442,168.45,251.593,68.127Zm0.362,21.793,42.548,91.34L263.915,66.4Z" transform="translate(-4.625 -4.719)"/>
  <path id="Path-7" data-name="Path" class="cls-1" d="M350.442,168.45l-99.763,142L225.6,260.577Zm-32.832,33.9L237.136,262.37l15.99,31.289Z" transform="translate(-4.625 -4.719)"/>
  <path id="Path-8" data-name="Path" class="cls-1" d="M250.679,310.453L75.419,299.836,225.6,260.577Zm-31.863-39.977L235,301.466l-108.111-6.932Z" transform="translate(-4.625 -4.719)"/>
  <path id="Path-9" data-name="Path" class="cls-1" d="M105.658,4.725L4.624,131.033l67.355,14.852ZM91.333,33.751L67.617,134.368,19.775,124.222" transform="translate(-4.625 -4.719)"/>
  <path id="Path-10" data-name="Path" class="cls-1" d="M4.624,131.033l70.795,168.8L71.979,145.885Zm60.108,21.082L66.82,260.244,16.66,141.925Z" transform="translate(-4.625 -4.719)"/>
</svg>
