<?xml version="1.0" standalone="no"?>
<!DOCTYPE svg PUBLIC "-//W3C//DTD SVG 20010904//EN"
 "http://www.w3.org/TR/2001/REC-SVG-20010904/DTD/svg10.dtd">
<svg version="1.0" xmlns="http://www.w3.org/2000/svg"
 width="130.000000pt" height="130.000000pt" viewBox="0 0 130.000000 130.000000"
 preserveAspectRatio="xMidYMid meet">
<metadata>
Created by potrace 1.11, written by Peter Selinger 2001-2013
</metadata>
<g transform="translate(0.000000,130.000000) scale(0.100000,-0.100000)"
fill="#000000" stroke="none">
<path d="M196 983 l-188 -233 12 -33 c7 -17 23 -56 36 -85 13 -29 24 -55 24
-58 0 -3 9 -26 21 -52 39 -87 47 -107 109 -255 58 -139 63 -147 88 -146 24 2
132 -4 292 -16 30 -2 114 -7 185 -11 72 -3 133 -8 137 -10 4 -3 51 58 104 133
54 76 137 194 186 262 48 68 88 128 88 132 0 9 -14 40 -162 362 l-101 217 -61
1 c-33 0 -90 2 -126 4 -36 1 -143 6 -238 10 -95 4 -183 8 -196 9 -18 2 -56
-39 -210 -231z"/>
</g>
</svg>
