<svg width="67" height="67" viewBox="0 0 67 67" fill="none" xmlns="http://www.w3.org/2000/svg">
<path d="M33.5 0L48.0725 8.25969L62.5118 16.75L62.645 33.5L62.5118 50.25L48.0725 58.7403L33.5 67L18.9275 58.7403L4.48815 50.25L4.355 33.5L4.48815 16.75L18.9275 8.25969L33.5 0Z" fill="#1E075F"/>
<path fill-rule="evenodd" clip-rule="evenodd" d="M25.332 15L46.4501 15.9448L55 34.9602L42.9377 52.339L21.7048 50.9779L13 30.3749L25.332 15ZM40.8144 25.9609L25.5093 32.6543L38.5942 42.7811L40.8144 25.9609ZM39.0424 22.6069L26.8112 17.3354L24.2419 28.419L39.0424 22.6069ZM35.9422 45.3291L22.6493 35.8278L22.9708 48.7026L35.9422 45.3291ZM52.8768 34.9183L43.8183 25.7174L41.4274 43.4103L52.8768 34.9183ZM39.0589 47.3986L27.848 50.3316L41.0319 51.1766L39.0589 47.3986ZM51.1065 39.0928L41.293 46.4103L43.243 50.2249L51.1065 39.0928ZM46.4647 18.6017L44.5586 22.5184L51.6533 29.7372L46.4647 18.6017ZM44.0898 16.7274L31.6313 16.2212L41.9081 20.7205L44.0898 16.7274ZM23.5127 18.5386L14.7864 29.5683L20.6206 30.8052L23.5127 18.5386ZM20.2688 32.9689L14.4064 31.7265L20.5234 46.1511L20.2688 32.9689Z" fill="white"/>
</svg>
