<svg width="30" height="36" viewBox="0 0 25 28" fill="333333" xmlns="http://www.w3.org/2000/svg">
    <path fill-rule="evenodd" clip-rule="evenodd" d="M12.8149 0C16.3836 0.86174 20.1521 0.86174 25.4588 4.88167V11.962C25.4588 24.7392 19.3551 24.7392 12.8097 28.6098C4.92004 24.7319 0 23.6649 0 11.962V4.88167C5.4361 0.863764 9.1957 0.86174 12.8149 0ZM13.6243 10.0799L13.3318 10.0824V25.205L13.5681 25.0513C15.1902 23.9682 16.1314 22.7349 16.3919 21.3513L16.3836 13.7878L16.6483 13.8358C17.8863 14.0876 19.1634 14.7323 20.4795 15.7698C20.6775 13.73 20.0692 12.3264 18.6547 11.5588C16.7567 10.5289 14.9824 10.0367 13.3318 10.0824L13.6243 10.0799ZM12.2419 3.27461C11.3585 3.36078 10.3144 3.57622 9.19008 3.92092L9.21256 16.2693C9.21256 17.1975 8.51819 17.9242 7.63989 17.9242C6.7616 17.9242 6.14385 17.1596 6.14385 16.2869V4.89037C4.7748 5.59413 3.74413 6.21659 3.05185 6.75776C3.05185 20.2509 2.66525 19.2854 12.2419 25.205V3.27461ZM13.3318 3.27461V6.72243L13.7183 6.77359C17.8037 7.34885 20.7002 8.86856 22.4076 11.3327C22.7414 8.79156 22.3129 7.08246 21.122 6.20545C19.1843 4.77848 16.5875 3.80153 13.3318 3.27461Z" fill="#01F496"/>
</svg>
