<?xml version="1.0" encoding="UTF-8"?>
<svg width="341px" height="129px" viewBox="0 0 341 129" version="1.1" xmlns="http://www.w3.org/2000/svg" xmlns:xlink="http://www.w3.org/1999/xlink">
    <!-- Generator: Sketch 58 (84663) - https://sketch.com -->
    <title>Alice-logo</title>
    <desc>Created with Sketch.</desc>
    <g id="Page-1" stroke="none" stroke-width="1" fill="none" fill-rule="evenodd">
        <g id="Alice-logo">
            <g id="Group-2" transform="translate(163.000000, 43.165527)" fill="#FFFFFF">
                <path d="M114,19.3344727 C118.930377,19.3344727 123.454231,21.0750054 126.990634,23.9751431 C127.993966,25.5257964 128.107141,26.7481111 127.329102,27.642334 C126.692102,28.3744552 125.751405,28.6406516 124.507011,28.4409232 C121.744829,25.8909805 118.054185,24.3344727 114,24.3344727 C105.439586,24.3344727 98.5,31.274059 98.5,39.8344727 C98.5,48.3948863 105.439586,55.3344727 114,55.3344727 C118.182816,55.3344727 121.978655,53.677629 124.767031,50.9844281 C125.764513,50.8243107 126.618561,51.0779355 127.329102,51.7434082 C128.444536,52.7880927 128.276823,54.1496 126.825962,55.8279302 C123.313898,58.6474767 118.853958,60.3344727 114,60.3344727 C102.678163,60.3344727 93.5,51.15631 93.5,39.8344727 C93.5,28.5126353 102.678163,19.3344727 114,19.3344727 Z" id="Combined-Shape" fill-rule="nonzero"></path>
                <path d="M157.5,19.3344727 C164.358617,19.3344727 170.430554,22.7026507 174.151974,27.87517 C176.335141,30.909622 177.709361,34.5650502 177.958897,38.5257174 C177.149998,41.4438625 174.380284,42.8799101 169.649414,42.8344727 L169.649414,42.8344727 L148.5,42.8344727 C147.119288,42.8344727 146,41.7151845 146,40.3344727 C146,38.9537608 147.119288,37.8344727 148.5,37.8344727 L172.872176,37.8346121 C172.524128,35.1327112 171.480369,32.648735 169.926348,30.5681341 C167.100099,26.78421 162.586133,24.3344727 157.5,24.3344727 C148.939586,24.3344727 142,31.274059 142,39.8344727 C142,48.3948863 148.939586,55.3344727 157.5,55.3344727 C162.188055,55.3344727 166.390002,53.2531979 169.232258,49.9642312 C169.782304,49.3277361 170.281427,48.646011 170.723295,47.9253873 C171.921366,47.194183 172.977804,47.0639623 173.891846,47.5332031 C174.779046,47.9886643 175.23452,48.8377065 175.258267,50.0803297 C174.721415,51.0114919 174.112757,51.8952361 173.440559,52.7254227 C169.682253,57.3670548 163.937665,60.3344727 157.5,60.3344727 C146.178163,60.3344727 137,51.15631 137,39.8344727 C137,28.5126353 146.178163,19.3344727 157.5,19.3344727 Z" id="Combined-Shape" fill-rule="nonzero"></path>
                <path d="M20.5,19.3344727 C27.3586171,19.3344727 33.4305541,22.7026507 37.1519741,27.87517 C39.4871855,31.120954 40.89685,35.077221 40.9945618,39.3575649 L41,39.8344727 L41,58.8344727 L36,58.8344727 L36.0013533,53.249815 C35.9124558,53.3524455 35.8225562,53.4541843 35.7316696,53.555016 L35.971673,40.7793418 C35.9904674,40.4667924 36,40.1517458 36,39.8344727 L35.994,39.4454727 L36,39.1993408 L35.986498,39.1815761 C35.852957,35.9588344 34.7353896,32.9901697 32.9263482,30.5681341 C30.1000993,26.78421 25.586133,24.3344727 20.5,24.3344727 C11.9395864,24.3344727 5,31.274059 5,39.8344727 C5,48.3948863 11.9395864,55.3344727 20.5,55.3344727 C24.0782239,55.3344727 27.373255,54.12198 29.9966491,52.0854388 C31.8344015,51.7386673 33.0626178,51.8851187 33.6821118,52.5238133 C34.3755053,53.2386977 34.3710158,54.3182677 33.8903843,55.3569262 C30.2979524,58.4589475 25.6180024,60.3344727 20.5,60.3344727 C9.17816263,60.3344727 0,51.15631 0,39.8344727 C0,28.5126353 9.17816263,19.3344727 20.5,19.3344727 Z" id="Combined-Shape" fill-rule="nonzero"></path>
                <rect id="Rectangle-Copy-2" x="77" y="20.8344727" width="5" height="38"></rect>
                <circle id="Oval" cx="79.5" cy="10.3344727" r="3.5"></circle>
                <path d="M55.4111328,1.77635684e-14 L55.4111328,47.2666016 C57.1383464,53.722314 59.1269531,57.3098791 61.3769531,58.0292969 C64.7519531,59.1084236 65.9902344,58.1916504 65.9902344,56.2736816 C65.1282552,54.8168132 63.5904948,53.4733073 61.3769531,52.2431641 C60.2919922,49.2223307 59.7495117,46.25 59.7495117,43.3261719 C59.7495117,40.4023438 59.7495117,25.9602865 59.7495117,1.77635684e-14 L55.4111328,1.77635684e-14 Z" id="Path-3"></path>
            </g>
            <path d="M137.782648,115.145 L137.782648,115.145 C138.035648,121.889 132.723648,127.616 123.552648,127.959 L89.1026482,128.136 L89.1056482,128.123 C84.4616482,128.123 79.9076482,127.745 75.4636482,127.034 C93.2586482,121.873 107.843648,108.425 112.422648,103.853 L125.057648,103.341 C131.802648,103.089 137.528648,108.401 137.782648,115.145 M69.3976482,125.72 C69.3786482,125.723 69.3606482,125.728 69.3436482,125.732 C69.2946482,125.741 69.2456482,125.752 69.2016482,125.759 C69.1846482,125.762 69.1746482,125.764 69.1606482,125.766 C69.0936482,125.779 69.0316482,125.789 68.9926482,125.798 C62.7836482,127.23 56.1796482,128.018 49.5356482,128.018 L49.5386482,128.031 L14.2376482,127.854 C5.06664823,127.508 -0.244351769,121.784 0.00864823093,115.039 C0.261648231,108.294 5.98764823,102.983 12.7326482,103.237 L29.5796482,103.91 C29.5916482,103.912 29.6036482,103.912 29.6176482,103.914 L29.7816482,103.927 C56.6386482,106.269 69.2616482,100.989 69.2616482,100.989 L69.2646482,100.99 C81.0206482,96.824 91.2756482,89.386 98.0216482,79.866 C101.364648,74.789 104.269648,66.013 104.269648,59.481 C104.269648,40.187 88.6056482,24.546 69.2826482,24.546 C49.9596482,24.546 34.2936482,40.187 34.2936482,59.481 C34.2936482,67.038 36.3626482,74.064 40.4466482,79.78 C40.4546482,79.791 40.5216482,79.884 40.5216482,79.884 C46.8956482,88.881 56.1406482,96.024 67.0546482,100.299 C43.3106482,102.705 27.9596482,99.937 25.0606482,99.343 C24.1446482,98.313 23.2486482,97.263 22.3816482,96.19 L22.3876482,96.186 C14.4956482,86.092 9.79164823,73.384 9.79164823,59.578 C9.79164823,26.729 36.4356482,-1.42108547e-14 69.2856482,-1.42108547e-14 C102.133648,-1.42108547e-14 128.749648,26.729 128.749648,59.578 C128.749648,73.193 124.174648,85.739 116.479648,95.764 L116.187648,96.191 C113.974648,98.935 111.593648,101.541 109.064648,103.992 L109.019648,103.994 C91.4126482,120.676 72.5786482,125.076 69.4536482,125.711" id="Shape-Copy" fill="#FFFFFF" fill-rule="nonzero"></path>
        </g>
    </g>
</svg>
