<?xml version="1.0" encoding="UTF-8"?>
<svg width="2790px" height="1231px" viewBox="0 0 2790 1231" version="1.1" xmlns="http://www.w3.org/2000/svg" xmlns:xlink="http://www.w3.org/1999/xlink">
    <!-- Generator: Sketch 58 (84663) - https://sketch.com -->
    <title>ARCHON Copy</title>
    <desc>Created with Sketch.</desc>
    <defs>
        <linearGradient x1="50%" y1="0%" x2="50%" y2="100%" id="archonlinearGradient1">
            <stop stop-color="#009AFF" offset="0%"></stop>
            <stop stop-color="#FFFFFF" offset="100%"></stop>
        </linearGradient>
        <linearGradient x1="50%" y1="12.9277193%" x2="50%" y2="60.309858%" id="archonlinearGradient2">
            <stop stop-color="#FFFFFF" stop-opacity="0.367017663" offset="0%"></stop>
            <stop stop-color="#FFFFFF" offset="100%"></stop>
        </linearGradient>
    </defs>
    <g id="Logos,-Icons,-Illustrations" stroke="none" stroke-width="1" fill="none" fill-rule="evenodd">
        <g id="Archon" transform="translate(-169.000000, -627.000000)">
            <g id="ARCHON-Copy" transform="translate(168.000000, 626.000000)">
                <path d="M1051.34711,748.974168 C1064.79093,758.236674 1062.07283,778.834691 1046.68649,784.29279 L1014.2362,795.804097 C1009.69323,797.415654 1004.72107,797.332239 1000.23472,795.569201 L996.962314,794.287983 C988.350743,790.929223 980.658499,788.033183 973.899338,785.602996 L971.408417,784.713519 L971.982048,785.718405 C978.121578,796.43664 973.173752,810.102686 961.59557,814.40618 C902.998332,836.186181 875.05635,872.714262 874.50337,926.91957 L874.486041,929.747206 C873.895255,968.718597 844.069145,1011.99117 786.698949,1061.98941 C731.93317,1109.7179 650.653967,1164.61376 542.684821,1226.91685 C540.802614,1228.3098 538.684751,1229.37441 536.435964,1230.05014 L535.561039,1230.30292 C528.90776,1232.16739 522.015208,1230.33269 517.105917,1226.08358 C409.738952,1164.06846 328.86218,1109.40441 274.301051,1061.85428 C216.930854,1011.85604 187.104745,968.583459 186.513959,929.612068 L186.49663,926.784432 C185.94365,872.579124 158.001668,836.051043 99.4044302,814.271042 C87.9420295,810.010583 82.978042,796.573886 88.8370881,785.905686 L89.0179523,785.583267 L89.5915825,784.578381 L87.1006623,785.467858 C80.3415014,787.898044 72.6492572,790.794085 64.0376865,794.152845 L60.7652809,795.434063 C56.2789276,797.1971 51.306767,797.280516 46.7637999,795.668959 L14.3135116,784.157652 C-1.0728302,778.699553 -3.79092908,758.101536 9.65289259,748.83903 L162.996658,643.188447 C128.846895,619.162316 100.039231,588.258446 76.6555213,550.619437 L75.8865949,549.376151 L75.6585922,548.996467 C57.6432261,518.229452 56.4750447,479.144048 70.8038424,432.627856 L71.6704459,429.828347 C85.7624753,384.5328 96.8308306,360.25677 110.54416,351.271279 C123.845114,342.555991 141.50545,352.098062 141.50545,368 C141.50545,378.420693 142.336389,387.605263 143.966927,395.630002 C152.727282,331.319369 172.592959,274.382575 203.62731,224.991563 L205.118616,222.635797 L206.739939,220.095972 C216.730192,204.499214 224.894157,192.756192 231.377661,184.71421 L231.851579,184.129193 C235.625267,179.493633 238.979477,175.925518 242.215105,173.260999 C244.706429,171.20941 247.246142,169.570386 250.167612,168.377447 C255.453815,166.218905 261.387521,165.759384 267.428729,168.277677 C271.994246,170.180824 275.569877,173.642485 277.663623,177.876874 C332.921317,122.637793 403.031852,77.1357902 487.833389,41.3341689 L491.57131,39.7607409 C552.195234,14.3185677 591.830376,1.47522536 613.567485,0.994419109 C631.932246,0.60714401 641.074484,23.1005364 627.639677,35.6276451 C586.009361,74.4452841 568.224922,105.581601 571.401017,127.340573 C574.362725,147.630807 597.560233,166.269416 644.753897,181.209191 L648.379553,182.346965 C675.316568,190.843143 700.376298,200.567467 723.554471,211.529122 C721.497132,199.861912 718.678464,188.26978 715.096876,176.747727 C712.576813,168.640625 715.449679,159.825921 722.26284,154.760681 C727.515369,150.855692 733.383986,149.866069 739.035364,150.681645 C742.158653,151.132381 745.019442,152.108307 747.933086,153.496249 C751.717208,155.298851 755.834989,157.949521 760.618026,161.534448 L761.66305,162.324479 L762.564884,163.01686 C770.920555,169.475556 781.721949,179.011929 795.138111,191.73292 L796.612073,193.133303 C860.432151,253.886762 899.759431,323.557482 916.225193,397.473182 C918.115277,389.020051 919.080078,379.227373 919.080078,368 C919.080078,352.098062 936.740414,342.555991 950.041369,351.271279 C963.754698,360.25677 974.823053,384.5328 988.915082,429.828347 L989.781686,432.627856 C1003.9672,478.678886 1002.96412,517.447 985.462344,548.070962 L984.926936,548.996467 L984.698933,549.376151 C961.458071,587.124788 932.803811,618.152654 898.819184,642.318258 L897.69688,643.11244 L1051.34711,748.974168 Z M916.665327,399.475063 C920.141747,415.498342 922.546748,431.718717 923.896896,448.088737 L903.964575,449.732693 L923.431297,445.145018 L923.554002,445.667419 L904.080518,450.226304 L893.551616,433.222121 C904.558432,426.406758 912.168366,414.983759 916.06285,398.186142 L916.225193,397.473182 L916.665327,399.475063 Z M723.554471,211.529122 C735.328319,217.097329 746.61666,222.98481 757.418934,229.19277 L727.472065,247.393593 C726.953806,235.357474 725.648501,223.404408 723.554471,211.529122 Z M277.863427,178.292956 C279.228821,181.222358 279.893779,184.501131 279.700981,187.878011 C278.980239,200.501912 279.091238,212.995327 280.032497,225.363947 L260.090159,226.881569 L244.664886,214.151253 C254.45788,202.285122 264.845954,190.808524 275.827815,179.721164 L277.663623,177.876874 L277.863427,178.292956 Z M895.974316,644.316502 C890.217405,648.310682 884.310234,652.111223 878.253194,655.717453 L868.021737,638.532655 L887.96478,637.024335 C888.19917,640.123452 888.3939,643.228761 888.548822,646.339745 L868.573574,647.334479 L879.920682,630.865018 L897.69688,643.11244 L895.974316,644.316502 Z M868.573574,647.334479 L868.456597,645.128361 C868.332603,642.924109 868.187583,640.725475 868.021737,638.532655 C908.329843,614.53408 941.545254,581.32007 967.667969,538.890625 C982.3375,513.837695 983.464295,480.794654 971.048355,439.7615 L970.284124,437.272736 L969.528162,434.843866 C957.224747,395.520116 947.075385,373.238827 939.080078,368 C939.080078,407.96614 927.645722,435.229135 904.777009,449.788984 L904.080518,450.226304 L903.964575,449.732693 C897.462514,370.897716 863.782244,284.68897 782.822251,207.619186 L780.273909,205.201828 C753.171623,179.585787 737.812135,168.12218 734.195445,170.811006 C741.932221,195.700395 746.35159,220.941132 747.45355,246.533218 C716.132404,228.533266 680.39407,213.273639 640.23855,200.754338 C530.814207,166.639072 522.068131,106.720959 614.000322,21 C595.695799,21.3962362 557.429722,33.8123467 499.202088,58.2483312 L495.61219,59.7594305 C395.75426,101.917579 317.246917,157.624959 260.090159,226.881569 C259.081307,213.624731 258.96242,200.243541 259.733499,186.737998 C255.573753,185.003997 243.443805,199.842883 223.343655,231.254655 L221.455821,234.216707 C185.675198,290.575851 165.214241,357.600111 160.072951,435.289491 C158.960537,440.313986 157.91108,445.378435 156.924581,450.482836 L156.638263,450.308594 L155.93912,449.871917 C132.98334,435.332788 121.50545,408.042148 121.50545,368 C113.429382,373.291745 103.155524,395.971982 90.6838758,436.040711 L89.9175594,438.515625 C77.0998511,480.126302 78.0998511,513.584635 92.9175594,538.890625 C118.712141,580.787105 151.422352,613.69821 191.04822,637.623956 C190.762418,641.273309 190.534319,644.938872 190.364835,648.619733 L21,765.308491 L53.4502883,776.819798 L57.9314516,775.06767 C93.1597751,761.365647 113.484504,755.223499 118.905638,756.641226 C124.383241,758.073722 120.616749,770.311673 107.606161,793.35508 L106.372466,795.524136 C173.127493,820.336305 206.505007,864.63907 206.505007,928.432431 C206.505007,992.176579 314.419992,1086.2247 530.249962,1210.57681 L530.249962,1211 L530.617295,1210.78841 L530.750038,1210.86486 L530.750038,1210.71193 C746.580008,1086.35984 854.494993,992.311717 854.494993,928.567569 C854.494993,864.774208 887.872507,820.471443 954.627534,795.659274 L953.393839,793.490218 C940.383251,770.446811 936.616759,758.20886 942.094362,756.776364 C947.515496,755.358637 967.840225,761.500785 1003.06855,775.202809 L1007.54971,776.954936 L1040,765.443629 L868.573574,647.334479 Z" id="Path" fill="#FFFFFF" fill-rule="nonzero"></path>
                <path d="M614.000322,21 C522.068131,106.720959 530.814207,166.639072 640.23855,200.754338 C680.395652,213.274132 716.13522,228.534468 747.457252,246.535345 C746.352165,220.944414 741.932724,195.702013 734.195445,170.811006 C737.923992,168.03902 754.132927,180.308413 782.822251,207.619186 C863.778662,284.68556 897.459534,370.890088 903.963712,449.722228 C905.766136,457.376046 907.327629,465.181075 908.64643,473.136665 L905.147338,475.159206 C905.266354,486.194918 904.872479,497.042475 904.024807,507.653333 C900.515276,551.584368 881.876352,564.692894 848.108035,546.97891 C861.620679,583.596875 869,623.186671 869,664.5 C869,852.000673 717.000673,1004 529.5,1004 C341.999327,1004 190,852.000673 190,664.5 C190,617.618759 199.50242,572.956927 216.68627,532.335493 L161.203752,532.98927 C159.619557,513.593046 158.811593,494.737211 158.779859,476.421765 L153,473.136665 C154.974845,460.285161 157.331107,447.675707 160.068786,435.308303 C165.210666,357.611822 185.672072,290.580775 221.455821,234.216707 C242.685876,200.776605 255.445101,184.950368 259.733499,186.737998 C258.962288,200.245857 259.081348,213.629322 260.090678,226.888391 C317.243806,157.627167 395.752282,101.918414 495.61219,59.7594305 C555.859527,34.3241329 595.322238,21.4043227 614.000322,21 Z" id="Combined-Shape" fill="url(#archonlinearGradient1)"></path>
                <path d="M614.000322,21 C522.068131,106.720959 530.814207,166.639072 640.23855,200.754338 C680.395652,213.274132 716.13522,228.534468 747.457252,246.535345 C746.352165,220.944414 741.932724,195.702013 734.195445,170.811006 C737.923992,168.03902 754.132927,180.308413 782.822251,207.619186 C863.778662,284.68556 897.459534,370.890088 903.963712,449.722228 C905.766136,457.376046 907.327629,465.181075 908.64643,473.136665 L905.147338,475.159206 C905.266354,486.194918 904.872479,497.042475 904.024807,507.653333 C900.515276,551.584368 881.876352,564.692894 848.108035,546.97891 C861.620679,583.596875 869,623.186671 869,664.5 C869,852.000673 717.000673,1004 529.5,1004 C341.999327,1004 190,852.000673 190,664.5 C190,617.618759 199.50242,572.956927 216.68627,532.335493 L161.203752,532.98927 C159.619557,513.593046 158.811593,494.737211 158.779859,476.421765 L153,473.136665 C154.974845,460.285161 157.331107,447.675707 160.068786,435.308303 C165.210666,357.611822 185.672072,290.580775 221.455821,234.216707 L223.343655,231.254655 C243.443805,199.842883 255.573753,185.003997 259.733499,186.737998 C258.962288,200.245857 259.081348,213.629322 260.090678,226.888391 C317.243806,157.627167 395.752282,101.918414 495.61219,59.7594305 L499.202088,58.2483312 C557.429722,33.8123467 595.695799,21.3962362 614.000322,21 Z M554.615027,57.7275858 L551.408996,58.9227536 L547.839711,60.2699741 C535.401627,64.9940132 521.478836,70.5819011 506.134952,77.0289855 L503.39099,78.1846921 C406.369171,119.145487 330.506663,172.978014 275.516764,239.617722 L243.916931,277.912093 L241.080107,240.646156 L239.723509,242.764091 L238.340479,244.936237 C204.429337,298.350704 184.954203,362.148188 180.025133,436.628995 L179.924721,438.146263 L179.596076,439.630911 C177.919734,447.203751 176.390909,454.873931 175.009718,462.641597 L178.759706,464.772978 L178.779829,476.387112 C178.800416,488.268646 179.15807,500.395678 179.853366,512.768124 L247.014407,511.976733 L235.105964,540.127469 C218.609672,579.123561 210,621.192418 210,664.5 C210,840.954978 353.045022,984 529.5,984 C705.954978,984 849,840.954978 849,664.5 C849,626.267839 842.291572,588.987361 829.344801,553.902858 L811.337719,505.105399 L857.398799,529.267848 C863.670194,532.557659 868.719936,534.243102 872.34833,534.561959 C874.368895,534.739523 875.270203,534.522333 875.90815,534.073673 C877.05703,533.26568 878.479178,531.273242 879.912097,527.583003 C881.90374,522.453866 883.354469,515.246775 884.088322,506.060662 C884.900971,495.888224 885.259282,485.647026 885.148501,475.374886 L885.022495,463.691044 L886.397622,462.896195 C885.799034,460.010644 885.165217,457.147464 884.496234,454.306691 L884.154152,452.854073 L884.03144,451.366774 C877.188288,368.426189 840.081969,289.740607 769.032429,222.105069 L767.025152,220.199644 L765.06274,218.347694 C766.251342,227.41257 767.04346,236.521383 767.438631,245.672494 L769.006815,281.987539 L737.491696,263.875694 C707.974988,246.912343 674.202704,232.421688 636.160133,220.435372 L632.455575,219.272158 C572.315853,200.182371 537.517362,172.146733 531.820454,133.118035 C528.403887,109.711624 536.040916,84.9792905 554.065645,58.5296171 L554.615027,57.7275858 Z" id="Combined-Shape" fill="#6F14E3" fill-rule="nonzero"></path>
                <path d="M543.123661,222.070412 C524.526202,303.393848 559.51607,357.855611 648.093266,385.455699 C673.988574,393.524511 697.614594,403.000341 718.971328,413.883189 C719.454317,389.430743 716.218755,365.303506 709.261574,341.503859 C712.319498,339.315276 725.272441,349.46835 748.120406,371.96308 C785.207122,408.476429 812.884627,455.370073 831.15292,512.644011 C848.227094,540.186856 859.630439,571.245877 865.365005,605.81969 L561.887278,780.931308 L348.140171,659.486313 C346.443868,660.951265 344.662489,662.386187 342.796034,663.791078 L272,638.595565 C266.133857,628.28126 261.066469,617.946512 256.797837,607.591323 L253.681719,605.81969 C253.681719,603.793026 253.694534,601.772755 253.720165,599.758877 C233.261534,544.900687 235.173911,489.467334 259.460994,433.461364 C272.211727,404.058196 280.41531,389.798983 284.071742,390.683726 C285.518692,405.108788 288.187871,419.161482 292.079279,432.841807 C329.59673,357.665518 394.624313,296.213239 487.156687,248.481608 C533.890708,224.374465 552.546366,215.570734 543.123661,222.070412 Z" id="Combined-Shape" fill="url(#archonlinearGradient2)"></path>
                <circle id="Oval" fill="#009AFF" cx="531" cy="856" r="81"></circle>
                <g id="MASK-TOP" transform="translate(81.000000, 368.000000)">
                    <ellipse id="Oval" fill="#009AFF" transform="translate(304.523438, 351.824219) rotate(16.000000) translate(-304.523438, -351.824219) " cx="304.523438" cy="351.824219" rx="114" ry="46.5"></ellipse>
                    <ellipse id="Oval" fill="#009AFF" transform="translate(596.400970, 352.121327) scale(-1, 1) rotate(16.000000) translate(-596.400970, -352.121327) " cx="596.40097" cy="352.121327" rx="114" ry="46.5"></ellipse>
                    <circle id="Oval" fill="#FFFFFF" cx="294" cy="369" r="26"></circle>
                    <circle id="Oval" fill="#FFFFFF" cx="606" cy="370" r="26"></circle>
                    <path d="M858.080078,5.68434189e-14 C866.320964,5.39973958 876.85026,28.9049479 889.667969,70.515625 C902.485677,112.126302 901.485677,145.584635 886.667969,170.890625 C859.891981,214.381138 825.664117,248.189537 783.984375,272.315822 C742.304633,296.442107 630.643175,347.081625 449,424.234375 L449.585,423.985 L449.585528,424.234375 L449.293,424.11 L449,424.234375 L449,423.985 L444.157227,421.927746 C265.716122,346.071486 155.864098,296.200844 114.601153,272.315822 C72.9214113,248.189537 38.6935467,214.381138 11.9175594,170.890625 C-2.90014891,145.584635 -3.90014891,112.126302 8.91755943,70.515625 C21.7352678,28.9049479 32.2645646,5.39973958 40.5054501,2.84217094e-14 C40.5054501,40.4466146 52.2163876,67.8828125 75.6382626,82.3085938 C99.0499647,96.7281094 223.600967,129.770255 449.29127,181.43503 C674.984208,129.770349 799.53553,96.7281299 822.947266,82.3085938 C846.369141,67.8828125 858.080078,40.4466146 858.080078,5.68434189e-14 Z" id="Combined-Shape" fill="#2E0295"></path>
                    <path d="M858.080078,2.84217094e-14 C866.238555,5.34574219 876.639903,28.4366543 889.284124,69.2727363 L889.667969,70.515625 C902.485677,112.126302 901.485677,145.584635 886.667969,170.890625 C859.891981,214.381138 825.664117,248.189537 783.984375,272.315822 C743.555025,295.718319 637.279879,344.067116 465.158935,417.362213 L449.585,423.985 L449.585528,424.234375 L449.293,424.11 L449,424.234375 L449,423.985 L444.157227,421.927746 C265.716122,346.071486 155.864098,296.200844 114.601153,272.315822 C72.9214113,248.189537 38.6935467,214.381138 11.9175594,170.890625 C-2.90014891,145.584635 -3.90014891,112.126302 8.91755943,70.515625 L9.68387583,68.0407109 C22.1555243,27.9719818 32.4293823,5.29174479 40.5054501,2.84217094e-14 C40.5054501,40.4466146 52.2163876,67.8828125 75.6382626,82.3085938 C99.0499647,96.7281094 223.600967,129.770255 449.29127,181.43503 L462.711476,178.357496 C679.925805,128.456109 800.003765,96.4397392 822.947266,82.3085938 C846.369141,67.8828125 858.080078,40.4466146 858.080078,2.84217094e-14 Z M866.088048,62.3677637 C858.700784,78.0344154 847.856875,90.4556122 833.43571,99.3377608 C807.616117,115.240322 688.757625,146.953168 467.432758,197.794102 L453.754146,200.930741 C450.816865,201.603131 447.765616,201.603126 444.828336,200.930728 L431.149723,197.794047 C209.824892,146.952448 90.9690987,115.24013 65.1498179,99.3377608 C50.7286529,90.4556122 39.8847441,78.0344154 32.4974806,62.3677637 L31.6224029,65.042132 C30.7427357,67.7497502 29.8493492,70.5570998 28.9425437,73.4637118 L28.0312764,76.4033939 C16.7588622,112.997516 17.5515544,140.771348 29.0713643,160.604459 C54.1181899,201.220336 85.9155387,232.602163 124.620606,255.00656 C163.874594,277.728699 268.993398,325.572837 438.814693,397.918566 L449.292749,402.378505 L454.552148,400.140803 C627.443131,326.550139 734.306134,277.963018 773.964922,255.00656 C812.66999,232.602163 844.467338,201.220336 869.514164,160.604459 C881.033974,140.771348 881.826666,112.997516 870.554252,76.4033939 C869.333294,72.4397474 868.136015,68.6522896 866.963125,65.042132 L866.088048,62.3677637 Z" id="Combined-Shape" fill="#6F14E3" fill-rule="nonzero"></path>
                    <polygon id="Path-3" fill="#3F06A9" points="449.5 214.825269 69.328125 112.003906 398.785156 355.167969 499.203125 355.167969 836.398437 112.003906"></polygon>
                    <polygon id="Path-4" fill="#250179" points="399.601562 353.601562 429.121094 243.722656 393.796875 168.84375 449.5 112 449.5 353.601562"></polygon>
                    <polygon id="Path-4" fill="#2F0395" transform="translate(476.851562, 232.800781) scale(-1, 1) translate(-476.851562, -232.800781) " points="454.804688 353.601562 484.324219 243.722656 449 168.84375 504.703125 112 504.703125 353.601562"></polygon>
                    <g id="CRYSTAL" transform="translate(359.000000, 250.000000)">
                        <path d="M145.220668,57.8713316 L153.973237,153.973237 L57.8713316,145.220668 L26.9732369,26.9732369 L145.220668,57.8713316 Z M38.1612522,38.1612522 L64.1882105,137.766778 L145.139489,145.139489 L137.766778,64.1882105 L38.1612522,38.1612522 Z" id="Rectangle" fill="#FFFFFF" fill-rule="nonzero" transform="translate(90.473237, 90.473237) rotate(-315.000000) translate(-90.473237, -90.473237) "></path>
                        <polygon id="Rectangle" fill="#009AFF" transform="translate(90.681825, 91.681825) rotate(-315.000000) translate(-90.681825, -91.681825) " points="37.1666932 38.1666932 136.820659 64.2063089 144.196956 145.196956 63.2063089 137.820659"></polygon>
                        <polygon id="Rectangle" fill="#77C9FF" transform="translate(90.915718, 92.548891) rotate(-315.000000) translate(-90.915718, -92.548891) " points="43.5351154 45.1682889 131.76558 68.2229399 138.29632 139.929493"></polygon>
                    </g>
                </g>
                <g id="MASK-DOWN" transform="translate(21.000000, 646.000000)">
                    <path d="M173.167178,5.68434189e-14 C208.1495,55.6230643 246.845538,95.3925612 289.255291,119.308491 C331.665044,143.224421 405.163293,177.645028 509.750038,222.570313 L509.5,222.462 L512.378237,221.228395 C615.303563,177.048655 687.759054,143.120399 729.744709,119.443629 C772.154462,95.5276993 810.8505,55.7582023 845.832822,0.135138073 L1019,119.443629 L986.549712,130.954936 C948.559827,116.025756 926.741377,109.299565 921.094362,110.776364 C915.447348,112.253164 919.625072,125.214134 933.627534,149.659274 C866.872507,174.471443 833.494993,218.774208 833.494993,282.567569 C833.494993,346.311402 725.581076,440.358908 509.753243,564.710088 L509.750038,564.864862 C509.705151,564.83901 509.660268,564.813159 509.61539,564.78731 L509.249962,565 L509.249962,565 L509.246757,564.57495 C293.418924,440.22377 185.505007,346.176264 185.505007,282.432431 C185.505007,218.63907 152.127493,174.336305 85.3724657,149.524136 C99.3749279,125.078995 103.552652,112.118026 97.9056375,110.641226 C92.2586232,109.164427 70.4401735,115.890617 32.4502883,130.819798 L32.4502883,130.819798 L-5.68434189e-14,119.308491 Z" id="Combined-Shape" fill="#2B0389"></path>
                    <path d="M-5.68434189e-14,119.308491 L173.167178,5.68434189e-14 C208.1495,55.6230643 246.845538,95.3925612 289.255291,119.308491 C331.240946,142.985261 403.696437,176.957666 506.621763,221.225705 L509.5,222.462 L512.378237,221.228395 C615.303563,177.048655 687.759054,143.120399 729.744709,119.443629 C772.154462,95.5276993 810.8505,55.7582023 845.832822,0.135138073 L1019,119.443629 L986.549712,130.954936 L982.068548,129.202809 C946.840225,115.500785 926.515496,109.358637 921.094362,110.776364 C915.447348,112.253164 919.625072,125.214134 933.627534,149.659274 C866.872507,174.471443 833.494993,218.774208 833.494993,282.567569 C833.494993,346.311402 725.581076,440.358908 509.753243,564.710088 L509.750038,564.864862 L509.61539,564.78731 L509.249962,565 L509.246757,564.57495 C293.418924,440.22377 185.505007,346.176264 185.505007,282.432431 C185.505007,218.63907 152.127493,174.336305 85.3724657,149.524136 L86.6061605,147.35508 C99.6167491,124.311673 103.383241,112.073722 97.9056375,110.641226 C92.3715635,109.193963 71.3064429,115.624851 34.7102757,129.933891 L32.4502883,130.819798 L-5.68434189e-14,119.308491 L173.167178,5.68434189e-14 L-5.68434189e-14,119.308491 Z M70.1708851,95.7655421 L71.555361,95.3399606 C86.6165949,90.7596645 96.1618326,89.5125791 102.965833,91.2919519 C113.093349,93.9404858 119.220226,102.289002 120.195992,111.877224 C120.713881,116.966189 119.860733,121.966483 118.043165,127.605307 C116.902848,131.143024 115.292613,135.126971 113.20379,139.603879 C173.914994,168.728121 205.505007,217.075645 205.505007,282.432431 C205.505007,306.898923 229.615891,342.153771 279.580664,385.698315 C330.804154,430.339837 407.537356,482.409385 509.616351,541.684235 L512.667685,539.909805 C613.109849,481.425622 688.746629,429.994965 739.419336,385.833453 C789.384109,342.288909 813.494993,307.034061 813.494993,282.567569 C813.494993,217.210783 845.085006,168.863259 905.79621,139.739017 C903.707387,135.262109 902.097152,131.278162 900.956835,127.740445 C899.139267,122.101621 898.286119,117.101327 898.804008,112.012362 C899.779774,102.42414 905.906651,94.0756239 916.034167,91.42709 C923.044349,89.5937968 932.964422,90.9731626 948.829115,95.9006802 L950.203575,96.331736 L851.339555,28.2165356 C817.658337,77.5169599 780.450137,113.810497 739.568789,136.86452 C697.81142,160.412554 627.261503,193.543432 527.588111,236.459496 L521.449266,239.099239 C516.444379,242.880648 509.58186,244.265144 501.856456,240.946693 C396.653433,195.756686 322.628494,161.08942 279.431211,136.729382 C238.549863,113.675359 201.341663,77.3818218 167.660445,28.0813975 L68.7964252,96.196598 L70.1708851,95.7655421 Z" id="Combined-Shape" fill="#6F14E3" fill-rule="nonzero"></path>
                    <path d="M171,70.0103247 C179.566448,173.538484 200.388546,241.759687 233.466292,274.673934 C266.544038,307.588181 358.72194,346.363537 510,391 L510,251.211699 L302.036959,166.906621 C252.404708,141.771016 220.533247,115.905813 206.422577,89.3110117 C192.311906,62.7162102 180.504381,56.2826479 171,70.0103247 Z" id="Path-5" fill="#3F06A9"></path>
                    <path d="M849,70.0103247 C840.433552,173.538484 819.611454,241.759687 786.533708,274.673934 C753.455962,307.588181 661.27806,346.363537 510,391 L510,251.211699 L717.963041,166.906621 C767.595292,141.771016 799.466753,115.905813 813.577423,89.3110117 C827.688094,62.7162102 839.495619,56.2826479 849,70.0103247 Z" id="Path-5" fill="#3F06A9"></path>
                    <path d="M509.500484,269 C707.919108,298.771178 791.252376,330.484377 759.500287,364.139596 C727.757941,397.784488 644.299342,454.713333 509.12449,534.92613 L509.124906,534.975002 C509.111522,534.966711 509.09814,534.958421 509.084757,534.95013 L509,535 L509,535 L509.000456,534.897905 C377.515104,453.440366 293.794792,396.52093 257.839519,364.139596 C225.295502,334.830441 308.890469,303.117242 508.624421,269 L508.624421,269 L509.062,502.005 L509.500484,269 Z" id="Combined-Shape" fill="#250179"></path>
                </g>
                <path d="M1468.84044,662.062077 L1453.34779,621.281075 L1321.43897,621.281075 L1305.94632,662.948621 C1299.89678,679.202 1294.73262,690.172867 1290.45368,695.86155 C1286.17473,701.550233 1279.16623,704.394531 1269.42794,704.394531 C1261.16515,704.394531 1253.86155,701.365538 1247.51691,695.30746 C1241.17227,689.249382 1238,682.378739 1238,674.695323 C1238,670.262583 1238.73774,665.682154 1240.21324,660.953898 C1241.68873,656.225642 1244.12327,649.65051 1247.51691,641.228304 L1330.51324,430.230943 C1332.87403,424.172865 1335.71432,416.895893 1339.03419,408.399808 C1342.35406,399.903724 1345.8952,392.848385 1349.65772,387.233581 C1353.42024,381.618778 1358.36308,377.075287 1364.4864,373.602975 C1370.60971,370.130662 1378.17152,368.394531 1387.17206,368.394531 C1396.32014,368.394531 1403.95573,370.130662 1410.07904,373.602975 C1416.20236,377.075287 1421.1452,381.5449 1424.90772,387.011945 C1428.67024,392.478991 1431.84251,398.352283 1434.42463,404.631998 C1437.00675,410.911713 1440.28969,419.296853 1444.27353,429.787671 L1529.04044,639.455217 C1535.68018,655.413081 1539,667.011909 1539,674.252051 C1539,681.787709 1535.86461,688.695291 1529.59375,694.975006 C1523.32289,701.254721 1515.76107,704.394531 1506.90809,704.394531 C1501.74385,704.394531 1497.31742,703.471058 1493.62868,701.624083 C1489.93993,699.777108 1486.84143,697.26526 1484.33309,694.088463 C1481.82474,690.911666 1479.132,686.035725 1476.25478,679.460494 C1473.37756,672.885264 1470.90614,667.085849 1468.84044,662.062077 Z M1322,620.394531 L1436,571.108299 L1387.17442,437.394531 L1322,620.394531 Z M1643.35849,617.078313 L1643.35849,667.60648 C1643.35849,679.869225 1640.4843,689.066146 1634.73584,695.197518 C1628.98739,701.328891 1621.69138,704.394531 1612.8476,704.394531 C1604.15122,704.394531 1597.00261,701.291956 1591.40155,695.086711 C1585.80049,688.881467 1583,679.721481 1583,667.60648 L1583,499.179257 C1583,481.056003 1583,467.127761 1583,457.394531 C1614.10045,460.183901 1631.12464,463.696249 1634.07256,467.931575 C1638.49445,474.284563 1640.92646,483.666161 1641.36864,496.07665 C1648.59106,483.666161 1655.99762,474.284563 1663.58853,467.931575 C1671.17944,461.578586 1681.31278,458.40214 1693.98886,458.40214 C1706.66494,458.40214 1763.46821,458.40214 1757.57236,458.40214 C1746.88422,493.121787 1734.09028,510.48161 1719.19056,510.48161 C1696.84097,510.48161 1677.33169,513.40543 1668.55281,517.373812 C1659.77393,521.342193 1654.63426,529.023333 1651.53894,538.183456 C1648.44362,547.343579 1646.3064,558.239529 1645.12723,570.871634 C1643.94806,583.503739 1643.35849,598.905811 1643.35849,617.078313 Z M1988,628.929666 C1988,636.464839 1985.74405,644.517011 1981.23207,653.086423 C1976.7201,661.655835 1969.84129,669.818817 1960.59545,677.575612 C1951.3496,685.332408 1939.70001,691.574688 1925.64632,696.302639 C1911.59263,701.030591 1895.76398,703.394531 1878.15988,703.394531 C1840.73269,703.394531 1811.51625,692.498244 1790.50969,670.705342 C1769.50312,648.91244 1759,619.695615 1759,583.053991 C1759,558.232245 1763.80777,536.291924 1773.42345,517.232369 C1783.03913,498.172814 1796.94468,483.435124 1815.1405,473.018856 C1833.33633,462.602587 1855.08224,457.394531 1880.37888,457.394531 C1896.05983,457.394531 1910.44616,459.684598 1923.53828,464.264802 C1936.63039,468.845005 1947.72525,474.754855 1956.82316,481.994531 C1965.92107,489.234207 1972.87385,496.95395 1977.68169,505.153991 C1982.48953,513.354032 1984.89341,520.999901 1984.89341,528.091829 C1984.89341,535.331504 1982.19366,541.462975 1976.79409,546.486423 C1971.39451,551.509872 1964.84855,554.021558 1957.15601,554.021558 C1952.12627,554.021558 1947.94721,552.728778 1944.6187,550.14318 C1941.2902,547.557581 1937.55493,543.383749 1933.41279,537.621558 C1926.01611,526.392673 1918.2867,517.971136 1910.22432,512.356693 C1902.16194,506.742251 1891.9177,503.935072 1879.49128,503.935072 C1861.59132,503.935072 1847.16801,510.916083 1836.22093,524.878315 C1825.27385,538.840547 1819.80039,557.936752 1819.80039,582.167504 C1819.80039,593.544138 1821.20574,603.997186 1824.01647,613.526964 C1826.82721,623.056741 1830.89532,631.182786 1836.22093,637.905342 C1841.54654,644.627898 1847.98155,649.725145 1855.52616,653.197234 C1863.07077,656.669323 1871.35493,658.405342 1880.37888,658.405342 C1892.50943,658.405342 1902.9016,655.598163 1911.55572,649.98372 C1920.20983,644.369278 1927.86528,635.799994 1934.52229,624.275612 C1938.22063,617.479182 1942.21477,612.160316 1946.50484,608.318856 C1950.79492,604.477395 1956.04648,602.556693 1962.25969,602.556693 C1969.65637,602.556693 1975.79552,605.363873 1980.67733,610.978315 C1985.55913,616.592758 1988,622.576481 1988,628.929666 Z M2087.60432,405.232133 L2087.60432,494.980853 C2095.30014,486.116737 2102.81086,479.099418 2110.13669,473.928684 C2117.46252,468.75795 2125.56522,464.879958 2134.44502,462.294591 C2143.32481,459.709224 2152.87045,458.41656 2163.08222,458.41656 C2178.47387,458.41656 2192.12635,461.666686 2204.04008,468.167038 C2215.95381,474.667389 2225.31446,484.122304 2232.1223,496.532065 C2236.4142,503.771093 2239.3001,511.859477 2240.78006,520.79746 C2242.26003,529.735443 2243,540.039822 2243,551.710907 L2243,667.608636 C2243,679.722927 2240.2251,688.882376 2234.67523,695.087257 C2229.12536,701.292137 2221.76264,704.394531 2212.58684,704.394531 C2192.6073,704.394531 2182.61768,692.132689 2182.61768,667.608636 L2182.61768,565.450217 C2182.61768,546.096899 2179.73179,531.212795 2173.95992,520.79746 C2168.18805,510.382124 2157.23646,505.174534 2141.10483,505.174534 C2130.30108,505.174534 2120.57044,508.239995 2111.91264,514.371008 C2103.25484,520.502021 2096.78008,528.885871 2092.48818,539.52281 C2089.23226,548.53466 2087.60432,564.563695 2087.60432,587.610395 L2087.60432,667.608636 C2087.60432,679.575192 2084.90342,688.697707 2079.50154,694.976456 C2074.09966,701.255204 2066.58895,704.394531 2056.96917,704.394531 C2036.98962,704.394531 2027,692.132689 2027,667.608636 L2027,405.232133 C2027,397.057449 2027,384.778248 2027,368.394531 C2058.39978,370.497265 2075.90029,373.616926 2079.50154,377.753513 C2084.90342,383.958394 2087.60432,393.117842 2087.60432,405.232133 Z M2530,581.394531 C2530,599.419847 2527.19169,616.041302 2521.57498,631.259396 C2515.95827,646.47749 2507.82894,659.553035 2497.18675,670.486423 C2486.54457,681.419811 2473.83325,689.804412 2459.05244,695.640477 C2444.27162,701.476542 2427.64345,704.394531 2409.16743,704.394531 C2390.83922,704.394531 2374.35886,701.439606 2359.72585,695.529666 C2345.09284,689.619727 2332.41848,681.161253 2321.70239,670.153991 C2310.9863,659.146728 2302.85697,646.145057 2297.31417,631.148585 C2291.77136,616.152114 2289,599.567595 2289,581.394531 C2289,563.073719 2291.80831,546.304517 2297.42502,531.086423 C2303.04173,515.868329 2311.09716,502.866657 2321.59154,492.081018 C2332.08592,481.295378 2344.79723,472.984651 2359.72585,467.148585 C2374.65448,461.31252 2391.13484,458.394531 2409.16743,458.394531 C2427.49565,458.394531 2444.12381,461.349457 2459.05244,467.259396 C2473.98106,473.169336 2486.76628,481.590873 2497.40846,492.524261 C2508.05065,503.457649 2516.14303,516.459321 2521.68583,531.529666 C2527.22864,546.600012 2530,563.221467 2530,581.394531 Z M2469,581.50517 C2469,556.869585 2463.59096,537.692472 2452.77273,523.973255 C2441.95449,510.254037 2427.42,503.394531 2409.16883,503.394531 C2397.39388,503.394531 2387.01736,506.455494 2378.03896,512.57751 C2369.06056,518.699526 2362.14288,527.734897 2357.28571,539.683893 C2352.42855,551.632889 2350,565.573175 2350,581.50517 C2350,597.289646 2352.39175,611.082416 2357.17532,622.883893 C2361.9589,634.68537 2368.80299,643.720741 2377.70779,649.990276 C2386.6126,656.259811 2397.09951,659.394531 2409.16883,659.394531 C2427.42,659.394531 2441.95449,652.498146 2452.77273,638.70517 C2463.59096,624.912193 2469,605.845717 2469,581.50517 Z M2631.83042,491.86597 L2631.83042,499.179257 C2642.48618,485.143585 2654.14074,474.838601 2666.79445,468.263997 C2679.44816,461.689393 2693.98861,458.40214 2710.41624,458.40214 C2726.39987,458.40214 2740.68133,461.87407 2753.26105,468.818034 C2765.84076,475.761998 2775.23841,485.586821 2781.45427,498.292798 C2785.45017,505.679994 2788.04008,513.658045 2789.22405,522.227193 C2790.40802,530.79634 2791,541.729226 2791,555.026178 L2791,667.60648 C2791,679.721481 2788.2251,688.881467 2782.67523,695.086711 C2777.12536,701.291956 2769.91063,704.394531 2761.03083,704.394531 C2752.00304,704.394531 2744.67731,701.218085 2739.05344,694.865096 C2733.42957,688.512108 2730.61768,679.425993 2730.61768,667.60648 L2730.61768,566.771761 C2730.61768,546.826332 2727.84278,531.572001 2722.29291,521.008311 C2716.74303,510.444621 2705.68045,505.162856 2689.10483,505.162856 C2678.30108,505.162856 2668.45945,508.376238 2659.57965,514.803098 C2650.69985,521.229958 2644.1881,530.057525 2640.04419,541.286063 C2637.08426,550.298442 2635.60432,567.140995 2635.60432,591.81423 L2635.60432,667.60648 C2635.60432,679.869225 2632.75542,689.066146 2627.05755,695.197518 C2621.35968,701.328891 2613.99696,704.394531 2604.96917,704.394531 C2596.23737,704.394531 2589.05964,701.218085 2583.43577,694.865096 C2577.81189,688.512108 2575,679.425993 2575,667.60648 L2575,492.752429 C2575,485.069745 2575,473.283779 2575,457.394531 C2600.55394,458.903473 2614.76155,460.49516 2617.62282,462.169591 C2621.91472,464.681237 2625.35559,468.448651 2627.94553,473.471944 C2630.53547,478.495237 2631.83042,484.626518 2631.83042,491.86597 Z" id="Archon" fill="#2E0295"></path>
                <path d="M1305,901.432638 C1305,912.681271 1302.28087,921.754551 1296.84253,928.652751 C1291.40419,935.550952 1283.92357,939 1274.40043,939 C1269.22797,939 1264.73234,938.00254 1260.91342,936.00759 C1257.0945,934.01264 1253.92822,931.068331 1251.4145,927.174573 L1249.67424,937.485769 L1238,937.485769 L1238,825 L1252.28463,825 L1252.28463,868.696395 C1254.75001,865.235277 1257.80752,862.591407 1261.45725,860.764706 C1265.10698,858.938005 1269.37299,858.024668 1274.25541,858.024668 C1283.92357,858.024668 1291.46462,861.870297 1296.87879,869.56167 C1302.29296,877.253043 1305,887.371854 1305,899.918406 L1305,901.432638 Z M1290,899.408468 C1290,890.45201 1288.36291,883.144902 1285.08868,877.486924 C1281.81445,871.828946 1276.83148,869 1270.13962,869 C1265.78992,869 1262.1214,870.071388 1259.13396,872.214197 C1256.14653,874.357005 1253.76856,877.234104 1252,880.845579 L1252,914.721046 C1253.81636,918.573286 1256.19432,921.582804 1259.13396,923.749689 C1262.0736,925.916574 1265.78991,927 1270.28302,927 C1276.92708,927 1281.8742,924.616462 1285.12453,919.849315 C1288.37486,915.082168 1290,908.774219 1290,900.92528 L1290,899.408468 Z M1345.19713,908.315339 L1347.71253,918.163924 L1348.14374,918.163924 L1367.26078,859 L1383,859 L1350.29979,949.375247 C1348.33538,954.637507 1345.52055,959.223812 1341.85524,963.134299 C1338.18992,967.044786 1333.24302,969 1327.01437,969 C1325.86447,969 1324.40316,968.867239 1322.63039,968.601712 C1320.85762,968.336185 1319.49213,968.082731 1318.53388,967.841343 L1319.97125,956.616853 C1319.68378,956.568576 1320.53421,956.616852 1322.52259,956.761685 C1324.51096,956.906518 1325.76865,956.978934 1326.29569,956.978934 C1329.31418,956.978934 1331.78165,955.627181 1333.69815,952.923634 C1335.61466,950.220087 1337.21971,947.22692 1338.51335,943.944042 L1341.89117,935.761027 L1313,859 L1328.81109,859 L1345.19713,908.315339 Z M1461.2606,890.620192 L1449.09629,890.620192 L1449.09629,938 L1435,938 L1435,833 L1449.09629,833 L1449.09629,879.442308 L1459.97261,879.442308 L1497.25265,833 L1512.85159,833 L1513.06625,833.360577 L1472.63781,883.769231 L1516,937.639423 L1515.78534,938 L1498.96996,938 L1461.2606,890.620192 Z M1542,937 L1528,937 L1528,825 L1542,825 L1542,937 Z M1596.36976,939 C1585.56028,939 1576.96306,935.381603 1570.57781,928.144702 C1564.19257,920.9078 1561,911.519203 1561,899.978629 L1561,896.804987 C1561,885.697184 1564.28823,876.452842 1570.86479,869.071683 C1577.44135,861.690524 1585.22549,858 1594.21744,858 C1604.69211,858 1612.60777,861.17361 1617.96468,867.520926 C1623.32159,873.868242 1626,882.331203 1626,892.910062 L1626,901.781834 L1575.63576,901.781834 L1575.42053,902.142476 C1575.56402,909.643849 1577.45326,915.810751 1581.0883,920.643366 C1584.72334,925.475981 1589.81711,927.892253 1596.36976,927.892253 C1601.15271,927.892253 1605.34969,927.207042 1608.96082,925.836598 C1612.57195,924.466155 1615.69278,922.578819 1618.3234,920.174533 L1623.84768,929.406946 C1621.07357,932.147832 1617.41467,934.43187 1612.87086,936.259127 C1608.32706,938.086385 1602.82674,939 1596.36976,939 Z M1593.32335,869 C1588.58081,869 1584.53295,870.96139 1581.17964,874.884228 C1577.82633,878.807067 1575.76647,883.728158 1575,889.647651 L1575.14371,890 L1611,890 L1611,888.167785 C1611,882.718094 1609.51498,878.161092 1606.54491,874.496644 C1603.57484,870.832196 1599.16769,869 1593.32335,869 Z M1678.04638,872.083485 L1670.7384,871.647913 C1666.97586,871.647913 1663.80428,872.543246 1661.22356,874.333938 C1658.64284,876.124631 1656.65307,878.641242 1655.25417,881.883848 L1655.25417,938 L1641,938 L1641,859.451906 L1653.73469,859.451906 L1655.10946,870.92196 C1657.3284,866.856604 1660.06585,863.686642 1663.32189,861.411978 C1666.57794,859.137315 1670.32836,858 1674.57328,858 C1675.63451,858 1676.64749,858.084694 1677.61224,858.254083 C1678.577,858.423473 1679.37291,858.60496 1680,858.798548 L1678.04638,872.083485 Z M1688,897.742654 C1688,886.202079 1691.13034,876.69327 1697.39112,869.215939 C1703.65191,861.738609 1712.15199,858 1722.89164,858 C1733.72761,858 1742.28789,861.726588 1748.57276,869.179875 C1754.85762,876.633163 1758,886.153994 1758,897.742654 L1758,899.329475 C1758,910.96622 1754.86966,920.487051 1748.60888,927.892253 C1742.34809,935.297455 1733.82393,939 1723.03612,939 C1712.24831,939 1703.71211,935.285433 1697.42724,927.856189 C1691.14238,920.426944 1688,910.918135 1688,899.329475 L1688,897.742654 Z M1702,899.297297 C1702,907.608559 1703.72317,914.470079 1707.16957,919.882064 C1710.61596,925.294048 1715.73794,928 1722.53565,928 C1729.23829,928 1734.32462,925.294048 1737.79478,919.882064 C1741.26494,914.470079 1743,907.608559 1743,899.297297 L1743,897.702703 C1743,889.488083 1741.25306,882.650723 1737.75913,877.190418 C1734.2652,871.730112 1729.14322,869 1722.39304,869 C1715.6904,869 1710.61596,871.730112 1707.16957,877.190418 C1703.72317,882.650723 1702,889.488083 1702,897.702703 L1702,899.297297 Z M1819.80243,916.784506 C1819.80243,913.658934 1818.6133,911.086386 1816.23502,909.066785 C1813.85673,907.047185 1809.35247,905.292082 1802.7221,903.801425 C1793.25701,901.733739 1786.13427,898.932787 1781.35368,895.398486 C1776.57308,891.864185 1774.18282,887.043664 1774.18282,880.936776 C1774.18282,874.589461 1776.87337,869.179898 1782.25454,864.707925 C1787.63571,860.235953 1794.65034,858 1803.29865,858 C1812.37938,858 1819.59821,860.332123 1824.95535,864.996438 C1830.3125,869.660754 1832.87092,875.334784 1832.63069,882.0187 L1832.48655,882.451469 L1818.9376,882.451469 C1818.9376,879.037383 1817.50825,875.971964 1814.6495,873.25512 C1811.79076,870.538277 1808.00718,869.179875 1803.29865,869.179875 C1798.25381,869.179875 1794.50626,870.28583 1792.05591,872.497774 C1789.60555,874.709717 1788.38039,877.378435 1788.38039,880.504007 C1788.38039,883.581494 1789.46142,886.009786 1791.62349,887.788958 C1793.78557,889.56813 1798.18173,891.154935 1804.8121,892.549421 C1814.66156,894.665193 1821.98849,897.538272 1826.79311,901.168744 C1831.59773,904.799217 1834,909.667823 1834,915.774711 C1834,922.699055 1831.20135,928.300958 1825.60397,932.580588 C1820.0066,936.860217 1812.69168,939 1803.659,939 C1793.71344,939 1785.88203,936.475537 1780.16454,931.426536 C1774.44705,926.377535 1771.73248,920.487122 1772.02076,913.75512 L1772.16489,913.322351 L1785.71384,913.322351 C1785.95408,918.371352 1787.82785,922.061876 1791.33522,924.394034 C1794.84259,926.726192 1798.95047,927.892253 1803.659,927.892253 C1808.70385,927.892253 1812.65558,926.870447 1815.51433,924.826803 C1818.37308,922.78316 1819.80243,920.102421 1819.80243,916.784506 Z" id="byKleros" fill="#2E0295" fill-rule="nonzero"></path>
            </g>
        </g>
    </g>
</svg>
