<svg width="24" height="24" viewBox="0 0 24 24" fill="none" xmlns="http://www.w3.org/2000/svg">
<path fill-rule="evenodd" clip-rule="evenodd" d="M12 24C18.6274 24 24 18.6274 24 12C24 5.37258 18.6274 0 12 0C5.37258 0 0 5.37258 0 12C0 18.6274 5.37258 24 12 24ZM12.1244 7.30268L11.6037 7.83028C11.3785 8.05605 11.3832 8.42441 11.613 8.64543L14.4396 11.3737H7.6981C7.38612 11.3737 7.13514 11.628 7.13514 11.9441V12.7046C7.13514 13.0207 7.38612 13.2749 7.6981 13.2749H14.4396L11.613 16.0032C11.3855 16.2242 11.3808 16.5926 11.6037 16.8184L12.1244 17.346C12.3426 17.5694 12.6991 17.5694 12.9196 17.346L17.4796 12.726C17.7001 12.5049 17.7001 12.1437 17.4796 11.9203L12.9196 7.30268C12.7014 7.07929 12.3449 7.07929 12.1244 7.30268Z" fill="#009AFF"/>
</svg>
