<svg width="166" height="29" viewBox="0 0 166 29" fill="none" xmlns="http://www.w3.org/2000/svg">
<path d="M8.59375 21.1562L7.45312 17.9844H3.08594L1.96875 21.1562H0L4.27344 9.6875H6.30469L10.5781 21.1562H8.59375ZM6.96094 16.375L5.89062 13.2656C5.8125 13.0573 5.70312 12.7292 5.5625 12.2812C5.42708 11.8333 5.33333 11.5052 5.28125 11.2969C5.14062 11.9375 4.9349 12.638 4.66406 13.3984L3.63281 16.375H6.96094Z" fill="white"/>
<path d="M17.9844 21.1562L17.7266 20.0234H17.6328C17.3776 20.4245 17.013 20.7396 16.5391 20.9688C16.0703 21.1979 15.5339 21.3125 14.9297 21.3125C13.8828 21.3125 13.1016 21.0521 12.5859 20.5312C12.0703 20.0104 11.8125 19.2214 11.8125 18.1641V12.5156H13.6641V17.8438C13.6641 18.5052 13.7995 19.0026 14.0703 19.3359C14.3411 19.6641 14.7656 19.8281 15.3438 19.8281C16.1146 19.8281 16.6797 19.599 17.0391 19.1406C17.4036 18.6771 17.5859 17.9036 17.5859 16.8203V12.5156H19.4297V21.1562H17.9844Z" fill="white"/>
<path d="M24.9609 21.3125C23.8828 21.3125 23.0417 20.9219 22.4375 20.1406C21.8333 19.3594 21.5312 18.263 21.5312 16.8516C21.5312 15.4349 21.8359 14.3333 22.4453 13.5469C23.0599 12.7552 23.9089 12.3594 24.9922 12.3594C26.1276 12.3594 26.9922 12.7786 27.5859 13.6172H27.6797C27.5911 12.9974 27.5469 12.5078 27.5469 12.1484V9H29.3906V21.1562H27.9531L27.6328 20.0234H27.5469C26.9583 20.8828 26.0964 21.3125 24.9609 21.3125ZM25.4531 19.8281C26.2083 19.8281 26.7578 19.6172 27.1016 19.1953C27.4453 18.7682 27.6224 18.0781 27.6328 17.125V16.8672C27.6328 15.7786 27.4557 15.0052 27.1016 14.5469C26.7474 14.0885 26.1927 13.8594 25.4375 13.8594C24.7917 13.8594 24.2943 14.1224 23.9453 14.6484C23.5964 15.1693 23.4219 15.9141 23.4219 16.8828C23.4219 17.8411 23.5911 18.5729 23.9297 19.0781C24.2682 19.5781 24.776 19.8281 25.4531 19.8281Z" fill="white"/>
<path d="M33.8516 21.1562H32.0156V12.5156H33.8516V21.1562ZM31.9062 10.2266C31.9062 9.89844 31.9948 9.64583 32.1719 9.46875C32.3542 9.29167 32.612 9.20312 32.9453 9.20312C33.2682 9.20312 33.5182 9.29167 33.6953 9.46875C33.8776 9.64583 33.9688 9.89844 33.9688 10.2266C33.9688 10.5391 33.8776 10.7865 33.6953 10.9688C33.5182 11.1458 33.2682 11.2344 32.9453 11.2344C32.612 11.2344 32.3542 11.1458 32.1719 10.9688C31.9948 10.7865 31.9062 10.5391 31.9062 10.2266Z" fill="white"/>
<path d="M39.7031 19.8281C40.151 19.8281 40.599 19.7578 41.0469 19.6172V21C40.8438 21.0885 40.5807 21.1615 40.2578 21.2188C39.9401 21.2812 39.6094 21.3125 39.2656 21.3125C37.526 21.3125 36.6562 20.3958 36.6562 18.5625V13.9062H35.4766V13.0938L36.7422 12.4219L37.3672 10.5938H38.5V12.5156H40.9609V13.9062H38.5V18.5312C38.5 18.974 38.6094 19.3021 38.8281 19.5156C39.0521 19.724 39.3438 19.8281 39.7031 19.8281Z" fill="white"/>
<path d="M46.5547 21.3125C45.2109 21.3125 44.1589 20.9219 43.3984 20.1406C42.6432 19.3542 42.2656 18.2734 42.2656 16.8984C42.2656 15.487 42.6172 14.3776 43.3203 13.5703C44.0234 12.763 44.9896 12.3594 46.2188 12.3594C47.3594 12.3594 48.2604 12.7057 48.9219 13.3984C49.5833 14.0911 49.9141 15.0443 49.9141 16.2578V17.25H44.1562C44.1823 18.0885 44.4089 18.7344 44.8359 19.1875C45.263 19.6354 45.8646 19.8594 46.6406 19.8594C47.151 19.8594 47.625 19.8125 48.0625 19.7188C48.5052 19.6198 48.9792 19.4583 49.4844 19.2344V20.7266C49.0365 20.9401 48.5833 21.0911 48.125 21.1797C47.6667 21.2682 47.1432 21.3125 46.5547 21.3125ZM46.2188 13.75C45.6354 13.75 45.1667 13.9349 44.8125 14.3047C44.4635 14.6745 44.2552 15.2135 44.1875 15.9219H48.1094C48.099 15.2083 47.9271 14.6693 47.5938 14.3047C47.2604 13.9349 46.8021 13.75 46.2188 13.75Z" fill="white"/>
<path d="M54.9141 21.3125C53.8359 21.3125 52.9948 20.9219 52.3906 20.1406C51.7865 19.3594 51.4844 18.263 51.4844 16.8516C51.4844 15.4349 51.7891 14.3333 52.3984 13.5469C53.013 12.7552 53.862 12.3594 54.9453 12.3594C56.0807 12.3594 56.9453 12.7786 57.5391 13.6172H57.6328C57.5443 12.9974 57.5 12.5078 57.5 12.1484V9H59.3438V21.1562H57.9062L57.5859 20.0234H57.5C56.9115 20.8828 56.0495 21.3125 54.9141 21.3125ZM55.4062 19.8281C56.1615 19.8281 56.7109 19.6172 57.0547 19.1953C57.3984 18.7682 57.5755 18.0781 57.5859 17.125V16.8672C57.5859 15.7786 57.4089 15.0052 57.0547 14.5469C56.7005 14.0885 56.1458 13.8594 55.3906 13.8594C54.7448 13.8594 54.2474 14.1224 53.8984 14.6484C53.5495 15.1693 53.375 15.9141 53.375 16.8828C53.375 17.8411 53.5443 18.5729 53.8828 19.0781C54.2214 19.5781 54.7292 19.8281 55.4062 19.8281Z" fill="white"/>
<path d="M70.5391 12.3594C71.6172 12.3594 72.4557 12.75 73.0547 13.5312C73.6589 14.3125 73.9609 15.4089 73.9609 16.8203C73.9609 18.237 73.6562 19.3411 73.0469 20.1328C72.4375 20.9193 71.5911 21.3125 70.5078 21.3125C69.4141 21.3125 68.5651 20.9193 67.9609 20.1328H67.8359L67.5 21.1562H66.125V9H67.9609V11.8906C67.9609 12.1042 67.9505 12.4219 67.9297 12.8438C67.9089 13.2656 67.8932 13.5339 67.8828 13.6484H67.9609C68.5443 12.7891 69.4036 12.3594 70.5391 12.3594ZM70.0625 13.8594C69.3229 13.8594 68.7891 14.0781 68.4609 14.5156C68.138 14.9479 67.9714 15.6745 67.9609 16.6953V16.8203C67.9609 17.8724 68.1276 18.6354 68.4609 19.1094C68.7943 19.5781 69.3385 19.8125 70.0938 19.8125C70.7448 19.8125 71.237 19.5547 71.5703 19.0391C71.9089 18.5234 72.0781 17.7786 72.0781 16.8047C72.0781 14.8411 71.4062 13.8594 70.0625 13.8594Z" fill="white"/>
<path d="M74.7812 12.5156H76.7812L78.5391 17.4141C78.8047 18.112 78.9818 18.7682 79.0703 19.3828H79.1328C79.1797 19.0964 79.2656 18.75 79.3906 18.3438C79.5156 17.9323 80.1771 15.9896 81.375 12.5156H83.3594L79.6641 22.3047C78.9922 24.1016 77.8724 25 76.3047 25C75.8984 25 75.5026 24.9557 75.1172 24.8672V23.4141C75.3932 23.4766 75.7083 23.5078 76.0625 23.5078C76.9479 23.5078 77.5703 22.9948 77.9297 21.9688L78.25 21.1562L74.7812 12.5156Z" fill="white"/>
<path fill-rule="evenodd" clip-rule="evenodd" d="M112.258 0C112.211 0.544991 112.158 1.09156 112.082 1.6347L112.049 1.865L112.049 1.86722L112.049 1.87055C112.016 2.10447 111.983 2.33838 111.949 2.57201C111.936 2.65789 111.923 2.74367 111.91 2.82945L111.89 2.95739L111.872 3.06596C111.833 3.3033 111.791 3.53999 111.744 3.77557C111.575 4.62089 111.385 5.4639 111.158 6.29533C110.874 7.33668 110.575 8.37654 110.223 9.39631C109.868 10.4218 109.455 11.4284 109.037 12.431C108.748 13.126 108.432 13.8126 108.086 14.4811C107.332 15.9387 106.511 17.3613 105.564 18.7033C104.957 19.5647 104.311 20.4033 103.63 21.2078C103.158 21.7652 102.651 22.293 102.143 22.8207L102.142 22.8218L102.135 22.8293C101.949 23.0227 101.763 23.2159 101.579 23.4107C101.379 23.6226 101.322 23.6135 101.108 23.4077C100.769 23.0807 100.407 22.7738 100.089 22.4278C99.4873 21.775 98.9047 21.1048 98.3235 20.4339C97.4059 19.3746 96.5942 18.2352 95.8466 17.053C95.4805 16.4741 95.1404 15.8788 94.8002 15.2836L94.612 14.9546C94.5454 14.8385 94.4787 14.7225 94.4116 14.6069C94.2672 14.3577 94.1343 14.1019 93.9838 13.8267L93.1211 14.104L92.9599 14.1557C92.3671 14.3463 91.7743 14.5371 91.1812 14.7272C90.9513 14.8009 90.7619 14.736 90.5918 14.568C90.0609 14.0437 89.7056 13.4063 89.4813 12.7104C89.4095 12.4875 89.3524 12.2599 89.3013 12.0302C89.2655 11.869 89.2326 11.7069 89.1997 11.5448C89.1625 11.3613 89.1253 11.1777 89.0838 10.9956C89.0803 10.98 89.0523 10.9699 89.0154 10.9569C88.9949 10.4022 88.9949 9.84783 89.0153 9.27087C89.0538 9.17268 89.0773 9.09783 89.089 9.02121L89.0963 8.97286C89.1552 8.57896 89.1988 8.28789 89.7803 8.35227C90.1998 8.39878 90.6154 8.48271 91.0311 8.55876C91.3285 8.61323 91.6231 8.68234 91.9377 8.74886C91.8832 8.57822 91.8346 8.44917 91.8008 8.31642C91.6075 7.55586 91.4087 6.7966 91.2298 6.03261C91.0903 5.43722 90.9608 4.8385 90.8572 4.23598C90.8226 4.03468 90.794 3.83236 90.7685 3.62957C90.7576 3.54342 90.7473 3.45726 90.7373 3.37092L90.7229 3.24558L90.6983 3.02446L90.6797 2.85771L90.6587 2.67419C90.6142 2.28983 90.572 1.90483 90.5467 1.51899C90.5417 1.44238 90.5973 1.32677 90.6611 1.2874C90.7053 1.26007 90.7505 1.2332 90.7966 1.20754C90.918 1.1401 91.0457 1.08146 91.1772 1.04746C91.3136 1.01217 91.4501 0.976223 91.5866 0.940279C92.1667 0.787333 92.7477 0.634202 93.3371 0.532022C94.212 0.380373 95.0976 0.281806 95.9821 0.196023C96.636 0.132658 97.2954 0.124043 97.9526 0.0962512C98.0568 0.0918972 98.1613 0.0928236 98.2658 0.09375C98.3131 0.0941205 98.3605 0.0944911 98.4079 0.0943985C98.4697 0.0943058 98.5316 0.0933794 98.5933 0.0905077C98.611 0.0896739 98.6283 0.0816144 98.6454 0.0701272C98.6509 0.0664217 98.6564 0.0624382 98.6618 0.0581769C98.6712 0.0508584 98.6806 0.0428916 98.6899 0.0349247C98.7046 0.0224185 98.7192 0.0100049 98.734 0C98.9726 0 99.2112 0 99.4576 0.0181571C99.4864 0.0317749 99.5141 0.044837 99.5412 0.0561388C99.589 0.0761487 99.6349 0.0906003 99.6813 0.0925457C99.8007 0.0976408 99.92 0.101624 100.039 0.105237C100.391 0.115705 100.744 0.122653 101.095 0.14535C101.622 0.17944 102.15 0.221128 102.674 0.288661C103.269 0.365366 103.861 0.468565 104.452 0.572134C104.612 0.600111 104.768 0.643188 104.925 0.686265L105.033 0.715909C105.069 0.725451 105.104 0.734807 105.14 0.743793C104.785 0.765749 104.433 0.784925 104.081 0.802619C103.815 0.815958 103.55 0.828465 103.285 0.840693L102.91 0.857924L102.853 0.860425C102.544 0.874599 102.236 0.888772 101.928 0.903872C101.619 0.919065 101.306 0.942595 101.003 1.0042C100.306 1.14594 99.6113 1.29962 98.9219 1.47369C97.9867 1.71001 97.1498 2.10159 96.545 2.9107C95.8207 3.87969 95.4819 4.97042 95.4143 6.156C95.3954 6.48783 95.422 6.82328 95.4484 7.15668L95.4486 7.15835L95.4584 7.2823C95.5066 7.90464 95.5702 8.52588 95.6279 9.15415C95.7189 9.15415 95.7658 9.15749 95.8121 9.15369L96.0207 9.13692L96.2892 9.11617L96.4785 9.10181C97.0172 9.06105 97.5559 9.02029 98.0924 8.95933C98.6805 8.89245 99.2633 8.77841 99.8474 8.6791C99.9736 8.65761 100.099 8.63213 100.225 8.60666L100.298 8.59193C100.353 8.5809 100.408 8.56997 100.463 8.5596C100.527 8.54746 100.591 8.53597 100.655 8.52569C100.717 8.51569 100.78 8.5067 100.842 8.49938C100.941 8.4878 101.11 8.5621 101.144 8.64103C101.166 8.69263 101.18 8.75923 101.182 8.82575C101.184 8.86688 101.181 8.90801 101.174 8.94544C101.166 8.98268 101.154 9.0164 101.136 9.04298C100.92 9.36092 100.679 9.66218 100.439 9.96298L100.338 10.0896C99.8137 10.7468 99.1785 11.2878 98.4888 11.7574C97.9292 12.1383 97.3344 12.4676 96.738 12.8304C97.9072 15.757 99.5698 18.4209 101.603 20.9131C101.634 20.8777 101.664 20.8427 101.695 20.808L101.791 20.698L101.879 20.5991C101.932 20.5387 101.985 20.4787 102.037 20.419C102.172 20.2645 102.304 20.1111 102.428 19.9524C103.232 18.9236 103.797 17.7889 103.964 16.4746C104.064 15.6922 104.007 14.9281 103.788 14.1734C103.558 13.38 103.135 12.6833 102.713 11.9866L102.651 11.8851C102.612 11.8206 102.573 11.7559 102.534 11.6911C102.129 11.0143 101.827 10.2919 101.786 9.50191C101.758 8.96767 101.813 8.42509 101.875 7.89121C101.989 6.89896 102.49 6.09532 103.253 5.48586C104.259 4.68287 105.461 4.39171 106.727 4.31315L106.893 4.30277L107.065 4.29129L107.191 4.28202C107.35 4.26961 107.51 4.25469 107.669 4.23468C107.81 4.2168 107.951 4.19494 108.09 4.16724C109.267 3.93305 110.206 3.2819 110.921 2.34708C111.24 1.92966 111.495 1.46276 111.75 0.997159L111.751 0.996325C111.823 0.864501 111.895 0.732769 111.968 0.602334C112.039 0.477087 112.079 0.335258 112.12 0.193429C112.139 0.128397 112.157 0.0633646 112.179 0H112.258ZM105.006 9.70164C105.42 9.9879 105.868 10.0879 106.362 9.96131C107.06 9.78242 107.451 9.31164 107.613 8.63639C107.737 8.1166 107.402 7.39393 106.909 7.06747C106.134 6.55388 105.155 6.71961 104.613 7.48981C104.099 8.21878 104.308 9.19649 105.006 9.70164ZM132.863 23.9458C132.848 23.9267 132.836 23.9111 132.822 23.9092C131.783 23.7717 130.902 23.3219 130.192 22.5557C129.634 21.9545 129.263 21.2396 129.102 20.4411C128.987 19.875 128.93 19.2916 128.91 18.7137C128.879 17.8373 128.879 16.9584 128.908 16.0818C128.936 15.2422 129.092 14.4192 129.474 13.6601C130.101 12.4147 131.114 11.6289 132.459 11.3009C132.936 11.1844 133.447 11.1411 133.939 11.157C135.046 11.1927 136.061 11.515 136.855 12.3357C136.993 12.4786 137.103 12.6482 137.213 12.8176C137.259 12.8877 137.305 12.9576 137.352 13.0256L137.361 13.0387C137.368 13.0501 137.375 13.0619 137.382 13.074C137.386 13.0821 137.39 13.0904 137.395 13.0987C137.401 13.1124 137.408 13.1263 137.415 13.1402L137.416 13.1432C137.424 13.1603 137.433 13.1773 137.441 13.1941L137.501 13.1828V12.9408L137.5 11.7466C137.5 10.4926 137.5 9.23854 137.503 7.9845C137.503 7.93883 137.503 7.89306 137.504 7.84721C137.505 7.80376 137.506 7.76031 137.508 7.71687C137.509 7.68815 137.51 7.65943 137.512 7.63071C137.515 7.5868 137.519 7.54308 137.523 7.49944C137.53 7.42802 137.54 7.35706 137.554 7.28702C137.612 6.98521 137.89 6.71165 138.242 6.6845C138.937 6.63087 139.206 7.03783 139.207 7.62645C139.214 12.7409 139.211 17.8554 139.211 22.9698C139.211 23.42 138.978 23.7613 138.67 23.8472C138.09 24.0089 137.604 23.6352 137.597 23.0236C137.592 22.6088 137.596 22.1938 137.596 21.7789L137.538 21.7671C137.523 21.8072 137.51 21.848 137.492 21.887C137.263 22.3982 136.926 22.8215 136.466 23.1458C135.874 23.5623 135.227 23.8317 134.503 23.9091C134.477 23.9119 134.455 23.9464 134.446 23.983C133.952 24 133.445 24 132.915 24C132.909 23.9963 132.904 23.9922 132.9 23.988C132.895 23.9843 132.891 23.9803 132.888 23.9762C132.878 23.9661 132.87 23.9555 132.863 23.9458ZM131.99 13.3034C131.61 13.5636 131.35 13.9288 131.138 14.3243C130.77 15.0074 130.643 15.7567 130.617 16.5195C130.593 17.2063 130.582 17.8962 130.622 18.5815C130.651 19.0926 130.722 19.6124 130.861 20.1037C131.114 20.9946 131.628 21.7214 132.485 22.1321C133.096 22.4251 133.749 22.5232 134.438 22.4434C135.166 22.3592 135.808 22.1085 136.341 21.6174C137.134 20.8872 137.471 19.9458 137.496 18.8911C137.502 18.6528 137.505 18.4145 137.506 18.1761C137.507 17.856 137.505 17.536 137.504 17.2158C137.502 16.9049 137.5 16.594 137.501 16.2832C137.505 15.1887 137.12 14.2686 136.302 13.5275C135.681 12.9641 134.934 12.7143 134.121 12.6712C133.359 12.6306 132.641 12.8135 131.99 13.3034ZM113.224 23.9503C113.244 23.9672 113.266 23.9859 113.294 24C113.571 24 113.844 24 114.113 23.9983C114.435 23.9964 114.751 23.9921 115.062 23.9828L115.07 23.9719C115.075 23.9658 115.08 23.9599 115.085 23.9542C115.093 23.9463 115.101 23.9389 115.109 23.9324C115.122 23.9227 115.136 23.9151 115.15 23.9109C115.156 23.9091 115.162 23.9079 115.168 23.9074C115.915 23.8323 116.624 23.6243 117.267 23.2362C117.913 22.8456 118.448 22.3522 118.602 21.5593C118.655 21.2814 118.54 20.9163 118.331 20.7827C118.075 20.6196 117.696 20.6347 117.466 20.8355C117.396 20.8965 117.328 20.9597 117.261 21.0236C117.223 21.0589 117.186 21.0945 117.149 21.1301L117.148 21.1315C117.015 21.2592 116.882 21.3869 116.739 21.5039C116.497 21.7031 116.247 21.9024 115.972 22.0503C115.136 22.5002 114.237 22.5738 113.324 22.3808C112.45 22.1961 111.722 21.7607 111.232 20.989C110.92 20.4987 110.723 19.9613 110.664 19.3857C110.616 18.922 110.614 18.4536 110.592 17.9763H110.897C113.295 17.9763 115.694 17.9758 118.092 17.977C118.321 17.9771 118.556 17.9308 118.659 17.7292C118.708 17.6334 118.754 17.5328 118.793 17.4295C118.856 17.263 118.902 17.0897 118.914 16.9194C118.958 16.2897 118.918 15.6601 118.787 15.0358C118.593 14.1162 118.199 13.2972 117.56 12.6135C116.664 11.6536 115.514 11.2222 114.224 11.1514C113.603 11.1173 112.987 11.2026 112.388 11.3836C111.079 11.7794 110.139 12.6008 109.527 13.8184C109.119 14.6304 108.929 15.5002 108.913 16.3905C108.91 16.5467 108.906 16.703 108.902 16.8593C108.878 17.8774 108.854 18.8979 109.041 19.9107C109.261 21.1061 109.757 22.1362 110.728 22.9104C111.442 23.4798 112.255 23.793 113.154 23.9086C113.178 23.9115 113.199 23.9295 113.224 23.9503ZM110.597 16.4947L110.659 15.8613C110.735 15.1224 110.965 14.4826 111.379 13.9161C111.911 13.187 112.652 12.7735 113.531 12.6751C114.604 12.5549 115.583 12.8192 116.328 13.6582C116.752 14.1356 117 14.7123 117.115 15.3372C117.163 15.5971 117.192 15.8606 117.221 16.1281C117.234 16.2495 117.247 16.3717 117.262 16.4947H110.597ZM157.049 24C157.006 23.9778 156.975 23.9442 156.946 23.9244C156.934 23.9161 156.922 23.9101 156.909 23.9086C155.717 23.7595 154.691 23.2737 153.9 22.3641C153.301 21.6752 152.964 20.8526 152.796 19.9564C152.611 18.962 152.633 17.9593 152.655 16.9585V16.9576V16.9568V16.956C152.659 16.7508 152.664 16.5457 152.667 16.3407C152.679 15.4561 152.873 14.5856 153.281 13.7925C153.929 12.5354 154.926 11.6718 156.323 11.3452C156.839 11.2245 157.381 11.1487 157.909 11.1589C159.008 11.1804 160.017 11.5122 160.885 12.2209C161.783 12.9536 162.272 13.92 162.537 15.0208C162.69 15.6562 162.696 16.3037 162.676 16.9515C162.673 17.0543 162.647 17.1566 162.621 17.2587C162.611 17.2981 162.601 17.3375 162.592 17.3767C162.504 17.7777 162.257 17.9761 161.786 17.9762C159.324 17.9765 156.862 17.9763 154.35 17.9763C154.353 18.0441 154.355 18.1119 154.358 18.1796L154.363 18.3484C154.367 18.5011 154.371 18.6533 154.38 18.8047L154.383 18.8578L154.388 18.9219C154.394 19.0113 154.403 19.1004 154.414 19.1891C154.461 19.5579 154.538 19.9292 154.655 20.2817C155.017 21.3747 155.797 22.0427 156.895 22.3313C157.266 22.4286 157.661 22.4806 158.043 22.4732C159.016 22.4542 159.875 22.1243 160.578 21.4288C160.662 21.3454 160.751 21.2667 160.84 21.188L160.898 21.1368L160.953 21.087C160.989 21.0544 161.025 21.0215 161.06 20.988C161.095 20.9545 161.129 20.9205 161.162 20.8855C161.436 20.5975 161.867 20.6375 162.101 20.7917C162.335 20.9453 162.443 21.3719 162.33 21.7137C162.092 22.4313 161.586 22.9214 160.945 23.2783C160.31 23.6315 159.628 23.8488 158.899 23.9082C158.866 23.9109 158.835 23.9456 158.817 23.9828C158.632 23.9883 158.446 23.9921 158.258 23.9946C158.065 23.9972 157.869 23.9986 157.672 23.9993L157.385 23.9999L157.049 24ZM157.145 16.5059H161.009C161.002 16.4487 160.996 16.392 160.99 16.3358L160.979 16.2338L160.969 16.1344C160.943 15.8729 160.917 15.6211 160.87 15.3734C160.712 14.5366 160.358 13.7997 159.657 13.2776C158.716 12.5771 157.671 12.4907 156.586 12.8475C155.57 13.182 154.956 13.9335 154.616 14.9177C154.441 15.4258 154.333 15.9516 154.374 16.5059H157.145ZM146.434 23.9082C146.462 23.9125 146.488 23.931 146.518 23.9518C146.541 23.9682 146.567 23.9861 146.597 24C146.901 24 147.2 24 147.495 23.9981C147.805 23.9959 148.111 23.9916 148.413 23.9828C148.423 23.946 148.444 23.9156 148.471 23.9087C148.632 23.8671 148.795 23.8301 148.958 23.7931L148.959 23.7929C149.302 23.7148 149.646 23.6367 149.973 23.5159C150.729 23.2373 151.314 22.7178 151.7 22.0109C152.086 21.3037 152.148 20.539 152.046 19.7426C151.968 19.1326 151.696 18.627 151.283 18.21C150.798 17.719 150.172 17.4168 149.517 17.227C148.891 17.046 148.258 16.8921 147.625 16.7383C147.308 16.6614 146.992 16.5845 146.676 16.5042C146.146 16.3692 145.629 16.1851 145.232 15.7977C144.349 14.9364 144.599 13.3924 145.92 12.8568C146.49 12.6257 147.084 12.5699 147.703 12.6072C148.498 12.6551 149.161 12.954 149.715 13.5045C149.879 13.668 150.032 13.843 150.185 14.0181L150.251 14.0937L150.322 14.1749C150.351 14.2078 150.38 14.2406 150.41 14.2733L150.451 14.319L150.465 14.334C150.487 14.3581 150.51 14.3821 150.532 14.4059C150.741 14.6276 151.167 14.6867 151.44 14.5552C151.815 14.3749 151.9 14.0213 151.752 13.5032C151.479 12.5495 150.756 11.9919 149.888 11.6287C148.929 11.2274 147.92 11.0524 146.877 11.1965C146.43 11.2584 145.974 11.3108 145.544 11.4398C144.588 11.7263 143.808 12.2693 143.368 13.1935C143.056 13.85 143.007 14.5487 143.096 15.2738C143.173 15.9009 143.444 16.4228 143.87 16.8492C144.289 17.2671 144.804 17.5765 145.382 17.7354C146.36 18.0045 147.346 18.2457 148.328 18.4979C148.986 18.6668 149.615 18.8801 150.066 19.4403C150.413 19.8723 150.492 20.3582 150.389 20.8761C150.232 21.6682 149.665 22.0866 148.953 22.3377C148.256 22.5836 147.534 22.5825 146.811 22.4807C146.101 22.3807 145.468 22.097 144.957 21.5934C144.773 21.4112 144.606 21.2108 144.439 21.0102L144.439 21.0091C144.402 20.9647 144.365 20.9203 144.328 20.8761L144.294 20.8357L144.255 20.7899C144.222 20.7521 144.19 20.7146 144.157 20.6774C144.127 20.6437 144.097 20.6104 144.067 20.5774C143.853 20.3463 143.565 20.3416 143.29 20.4328C142.973 20.5382 142.836 20.7768 142.819 21.1013C142.79 21.6559 143.025 22.1068 143.384 22.4918C144.205 23.3727 145.279 23.7309 146.434 23.9082ZM164.224 23.9646L164.208 23.9479C164.19 23.9301 164.174 23.9142 164.155 23.9067C163.711 23.7318 163.34 23.1656 163.394 22.7159C163.47 22.0813 163.823 21.7163 164.338 21.5782C164.903 21.4268 165.524 21.746 165.742 22.2396C165.763 22.2866 165.803 22.325 165.848 22.3536C165.863 22.6097 165.863 22.8794 165.845 23.1715C165.827 23.1873 165.816 23.1913 165.809 23.1933C165.807 23.1942 165.805 23.1948 165.804 23.1959C165.631 23.5386 165.393 23.8101 165.013 23.9307C165.005 23.9333 165.009 23.976 165.008 24H164.27C164.252 23.9893 164.237 23.9768 164.224 23.9646ZM125.505 11.4411C125.089 11.1486 124.615 11.0796 124.095 11.1926C123.227 11.2583 122.551 11.6464 122.016 12.2877C121.942 12.3764 121.874 12.4704 121.807 12.5696C121.771 12.6222 121.735 12.6761 121.699 12.7315C121.648 12.8085 121.595 12.8884 121.538 12.9709C121.538 12.6279 121.536 12.3308 121.538 12.0337C121.54 11.7765 121.432 11.5467 121.241 11.41C120.961 11.2093 120.627 11.1701 120.305 11.3375C120.005 11.4931 119.875 11.7559 119.875 12.0904C119.875 14.6193 119.875 17.1481 119.875 19.6769L119.876 23.0463C119.876 23.6212 120.235 23.9057 120.741 23.8973C121.207 23.8895 121.535 23.6175 121.536 23.0497C121.538 22.1649 121.538 21.2801 121.537 20.3953C121.537 19.1617 121.536 17.928 121.542 16.6944C121.545 16.1253 121.551 15.5476 121.65 14.9905C121.721 14.5895 121.893 14.1805 122.116 13.8377C122.621 13.0622 123.419 12.8044 124.305 12.7585C124.336 12.7569 124.366 12.7556 124.397 12.7544L124.455 12.7519L124.506 12.7499C124.615 12.7457 124.724 12.7416 124.832 12.7341C124.921 12.7279 125.01 12.7193 125.099 12.7066C125.372 12.6673 125.646 12.5625 125.703 12.2597C125.756 11.9729 125.789 11.6405 125.505 11.4411ZM126.241 18.2609C126.241 17.753 126.241 17.2468 126.24 16.7416C126.239 15.243 126.238 13.7544 126.247 12.2658C126.249 11.9317 126.284 11.5839 126.631 11.3808C127.251 11.0186 127.944 11.3811 127.949 12.1432C127.955 13.0723 127.954 14.0015 127.953 14.9306C127.952 15.3205 127.951 15.7105 127.951 16.1005C127.951 18.3832 127.955 20.6659 127.949 22.9486C127.947 23.5131 127.729 23.7748 127.205 23.8999C126.836 23.9879 126.355 23.66 126.292 23.2706C126.26 23.0722 126.244 22.8693 126.243 22.6683C126.24 21.5602 126.241 20.452 126.241 19.3336L126.241 18.2609ZM141.966 23.0501L141.966 16.4585L141.966 12.0721C141.967 11.8123 141.89 11.5698 141.682 11.4176C141.399 11.2099 141.076 11.1792 140.748 11.3324C140.422 11.4847 140.306 11.7669 140.306 12.098C140.302 15.7495 140.302 19.401 140.308 23.0524C140.308 23.2077 140.334 23.3947 140.421 23.5121C140.704 23.892 140.965 23.9625 141.463 23.8471C141.77 23.7758 141.966 23.4414 141.966 23.0501ZM141.347 9.3914C140.911 9.54675 140.2 9.22622 140.023 8.63556C139.831 7.99098 140.152 7.31611 140.809 7.14844C141.57 6.95445 142.313 7.47888 142.315 8.22934C142.317 8.79277 141.876 9.33646 141.347 9.3914ZM128.083 7.59218C127.798 7.15474 127.081 6.96399 126.519 7.23932C125.957 7.60968 125.884 8.00988 125.991 8.59443C126.084 9.10172 126.708 9.49348 127.316 9.40557C128.111 9.29051 128.548 8.3066 128.083 7.59218Z" fill="white"/>
</svg>
