<?xml version="1.0" encoding="utf-8"?>
<!-- Generator: Adobe Illustrator 24.1.2, SVG Export Plug-In . SVG Version: 6.00 Build 0)  -->
<!DOCTYPE svg PUBLIC "-//W3C//DTD SVG 1.1//EN" "http://www.w3.org/Graphics/SVG/1.1/DTD/svg11.dtd" [
	<!ENTITY ns_extend "http://ns.adobe.com/Extensibility/1.0/">
	<!ENTITY ns_ai "http://ns.adobe.com/AdobeIllustrator/10.0/">
	<!ENTITY ns_graphs "http://ns.adobe.com/Graphs/1.0/">
	<!ENTITY ns_vars "http://ns.adobe.com/Variables/1.0/">
	<!ENTITY ns_imrep "http://ns.adobe.com/ImageReplacement/1.0/">
	<!ENTITY ns_sfw "http://ns.adobe.com/SaveForWeb/1.0/">
	<!ENTITY ns_custom "http://ns.adobe.com/GenericCustomNamespace/1.0/">
	<!ENTITY ns_adobe_xpath "http://ns.adobe.com/XPath/1.0/">
]>
<svg version="1.1"
	 id="svg446"
 x="0px" y="0px" viewBox="0 0 894 105"
	 style="enable-background:new 0 0 894 105;" xml:space="preserve">
<style type="text/css">
	.st0{fill:#102331;}
	.st1{fill:#98E35D;}
	.st2{fill:#16B157;}
</style>
<metadata  id="metadata443">
	<rdf:RDF>
		<cc:Work  rdf:about="">
			<dc:format>image/svg+xml</dc:format>
			<dc:type  rdf:resource="http://purl.org/dc/dcmitype/StillImage"></dc:type>
			<dc:title></dc:title>
		</cc:Work>
	</rdf:RDF>
	<sfw  >
		<slices></slices>
		<sliceSourceBounds  bottomLeftOrigin="true" height="102.6" width="890.7" x="1492.1" y="0.9"></sliceSourceBounds>
	</sfw>
</metadata>
<sodipodi:namedview  bordercolor="#666666" borderopacity="1.0" fit-margin-bottom="0" fit-margin-left="0" fit-margin-right="0" fit-margin-top="0" id="base" inkscape:current-layer="layer1" inkscape:cx="426.69788" inkscape:cy="56.847669" inkscape:document-units="mm" inkscape:pageopacity="0.0" inkscape:pageshadow="2" inkscape:window-height="744" inkscape:window-maximized="1" inkscape:window-width="1280" inkscape:window-x="-4" inkscape:window-y="-4" inkscape:zoom="0.86180571" showgrid="false" units="px">
	</sodipodi:namedview>
<path id="BITFINEX-Copy-3_1_" inkscape:connector-curvature="0" class="st0" d="M62.7,86.4H19.6V63.5h43.1
	c10.8,0,16.3,5.1,16.3,11.8C78.9,81.8,73.5,86.4,62.7,86.4z M61.3,51.2H19.6V31.9h41.7c11.3,0,15.8,4,15.8,9.5
	C77.1,46.4,71.9,51.2,61.3,51.2z M72.3,57.1c18.1-0.6,24.7-9.6,24.7-19.4c0-10.8-8.5-19.7-29.4-19.7H1v82.1h68.6
	c17.1,0,29.8-7.1,29.8-22.5C99.4,66.8,92.3,57.5,72.3,57.1z M117.4,18v82.1H136V18H117.4z M214.4,33.6h40.9V18H154.9v15.6h40.9v66.6
	h18.6L214.4,33.6z M274.3,18v82.1h18.6V68.1h43.6V54.6h-43.6V32.2h70.9V18H274.3z M383.8,18v82.1h18.6V18H383.8z M440,38l61.7,62.1
	h21.1V18h-18.4v59.2L445.2,18h-23.6v82.1H440L440,38z M541.9,18v82.1h91V86.3h-72.4V63.7h43.4V51h-43.4V32.2h72.4V18H541.9z
	 M761.5,18h-24.6l-31.4,28.9L674.5,18h-24.9l43.8,40.5l-45.4,41.7h24.6l32.9-30.3l32.8,30.3h25l-45.5-41.8L761.5,18z"/>
<g>
	<path class="st1" d="M890.1,2c-0.4-0.2-38.7-5.4-76.6,19c-23.5,15.2-26.7,37.4-25.6,52.2C843,67.1,888.8,3.8,890.1,2 M791.6,89.6
		c4.7,8.3,40.6,27.2,72.3,1.2S892.9,17.2,890.1,2C889.1,4.3,854.5,80.1,791.6,89.6"/>
	<path class="st2" d="M890.1,2c-0.4-0.2-38.7-5.4-76.6,19c-23.5,15.2-26.7,37.4-25.6,52.2C843,67.1,888.8,3.8,890.1,2"/>
</g>
</svg>
