<?xml version="1.0" encoding="UTF-8"?>
<svg width="1654px" height="2598px" viewBox="0 0 1654 2598" version="1.1" xmlns="http://www.w3.org/2000/svg" xmlns:xlink="http://www.w3.org/1999/xlink">
    <!-- Generator: Sketch 58 (84663) - https://sketch.com -->
    <title>COVER NEW Copy</title>
    <desc>Created with Sketch.</desc>
    <defs>
        <linearGradient x1="40.8145821%" y1="9.39358417%" x2="61.2263056%" y2="88.0332228%" id="linearGradient1">
            <stop stop-color="#1E075F" offset="0%"></stop>
            <stop stop-color="#4D00B4" offset="100%"></stop>
        </linearGradient>
        <linearGradient x1="50%" y1="100%" x2="50%" y2="3.061617e-15%" id="linearGradient2">
            <stop stop-color="#A6EDFF" offset="0%"></stop>
            <stop stop-color="#009AFF" offset="100%"></stop>
        </linearGradient>
        <linearGradient x1="50%" y1="0%" x2="50%" y2="161.494656%" id="linearGradient3">
            <stop stop-color="#A6EDFF" offset="0%"></stop>
            <stop stop-color="#009AFF" offset="100%"></stop>
        </linearGradient>
        <linearGradient x1="50%" y1="0%" x2="50%" y2="100%" id="linearGradient4">
            <stop stop-color="#FFFFFF" stop-opacity="0" offset="0%"></stop>
            <stop stop-color="#9013FE" stop-opacity="0.0616258741" offset="100%"></stop>
        </linearGradient>
        <linearGradient x1="50%" y1="0%" x2="50%" y2="100%" id="linearGradient5">
            <stop stop-color="#9013FE" offset="0%"></stop>
            <stop stop-color="#FFFFFF" offset="100%"></stop>
        </linearGradient>
    </defs>
    <g id="COVER-NEW-Copy" stroke="none" stroke-width="1" fill="none" fill-rule="evenodd">
        <rect id="Rectangle" fill="url(#linearGradient1)" style="mix-blend-mode: multiply;" x="0.385714286" y="0" width="1653" height="2598"></rect>
        <g id="Group-4" transform="translate(0.000000, 333.000000)">
            <g id="Group-2">
                <g id="Group" transform="translate(0.000000, 957.000000)" fill="#9013FE" fill-opacity="0.307746941">
                    <polygon id="Rectangle" transform="translate(827.614286, 236.500000) rotate(-270.000000) translate(-827.614286, -236.500000) " points="593.614286 -267 1061.61429 -590 1061.61429 1063 593.614286 740"></polygon>
                    <polygon id="Rectangle" transform="translate(827.614286, 172.000000) rotate(-270.000000) translate(-827.614286, -172.000000) " points="657.614286 -192.298851 997.614286 -426 997.614286 770 657.614286 536.298851"></polygon>
                    <polygon id="Rectangle" transform="translate(827.114286, 110.000000) rotate(-270.000000) translate(-827.114286, -110.000000) " points="719.614286 -120.275862 934.614286 -268 934.614286 488 719.614286 340.275862"></polygon>
                    <polygon id="Rectangle" transform="translate(827.614286, 47.500000) rotate(-270.000000) translate(-827.614286, -47.500000) " points="780.614286 -49.6666667 874.614286 -112 874.614286 207 780.614286 144.666667"></polygon>
                </g>
                <path d="M394.614286,174 L394.614286,3 L430.433381,3 C447.605996,3 461.167,4.69816955 471.116798,8.09455959 C481.803619,11.4171151 491.495314,17.0653746 500.192175,25.0395078 C517.807004,41.1354432 526.614286,62.288729 526.614286,88.5 C526.614286,114.785106 517.438498,136.049142 499.086648,152.292746 C489.873871,160.414548 480.219026,166.062808 470.121823,169.237694 C460.68794,172.412581 447.31119,174 429.99117,174 L394.614286,174 Z M420.614286,150 L432.184534,150 C443.718108,150 453.304789,148.786631 460.944864,146.359855 C468.584939,143.786003 475.490288,139.704669 481.661118,134.115732 C494.296626,122.570165 500.614286,107.531738 500.614286,89 C500.614286,70.3211845 494.370087,55.1724511 481.881503,43.5533454 C470.641778,33.1843966 454.076287,28 432.184534,28 L420.614286,28 L420.614286,150 Z M588.614286,3 L588.614286,174 L562.614286,174 L562.614286,3 L588.614286,3 Z M729.169841,28.7265918 L708.169841,41.1011236 C704.243896,34.3245604 700.503192,29.9051289 696.947619,27.8426966 C693.243897,25.4856312 688.466167,24.3071161 682.614286,24.3071161 C675.429065,24.3071161 669.466161,26.3326889 664.725397,30.3838951 C659.984632,34.3614431 657.614286,39.3701321 657.614286,45.4101124 C657.614286,53.7334998 663.836446,60.4363042 676.280952,65.5187266 L693.392063,72.4794007 C707.318059,78.0774312 717.503142,84.9091357 723.947619,92.9747191 C730.392096,101.040302 733.614286,110.92878 733.614286,122.640449 C733.614286,138.329666 728.355079,151.293332 717.836508,161.531835 C707.243862,171.843997 694.095846,177 678.392063,177 C663.5031,177 651.206927,172.617397 641.503175,163.85206 C631.947571,155.086723 625.984668,142.749143 623.614286,126.838951 L649.836508,121.093633 C651.021699,131.111161 653.095752,138.034937 656.05873,141.865169 C661.39209,149.230998 669.16979,152.913858 679.392063,152.913858 C687.466178,152.913858 694.169815,150.22537 699.503175,144.848315 C704.836535,139.471259 707.503175,132.657969 707.503175,124.40824 C707.503175,121.093616 707.040216,118.055257 706.114286,115.293071 C705.188355,112.530885 703.743925,109.989712 701.780952,107.669476 C699.81798,105.349239 697.280968,103.176352 694.169841,101.150749 C691.058715,99.1251459 687.355048,97.1916447 683.05873,95.3501873 L666.503175,88.5 C643.021576,78.6297884 631.280952,64.1929789 631.280952,45.1891386 C631.280952,32.3725951 636.206829,21.6554738 646.05873,13.0374532 C655.910631,4.34577427 668.169768,0 682.836508,0 C702.614385,0 718.058675,9.57543483 729.169841,28.7265918 Z M792.443385,104.558938 L792.443385,174 L766.614286,174 L766.614286,3 L795.879875,3 C810.217129,3 821.04381,3.99675169 828.360244,5.99028497 C835.750581,7.98381826 842.25398,11.7493246 847.870637,17.2869171 C857.699785,26.8854107 862.614286,38.9940979 862.614286,53.613342 C862.614286,69.26627 857.367225,81.670291 846.872946,90.8257772 C836.378667,99.9812634 822.226384,104.558938 804.415671,104.558938 L792.443385,104.558938 Z M792.614286,81 L802.209874,81 C825.812933,81 837.614286,71.8519433 837.614286,53.5555556 C837.614286,35.8517633 825.44529,27 801.106933,27 L792.614286,27 L792.614286,81 Z M918.503175,3 L918.503175,105.938931 C918.503175,120.623483 920.910558,131.360017 925.725397,138.148855 C932.910618,147.963153 943.021628,152.870229 956.05873,152.870229 C969.169907,152.870229 979.317953,147.963153 986.503175,138.148855 C991.318013,131.581392 993.725397,120.844858 993.725397,105.938931 L993.725397,3 L1019.61429,3 L1019.61429,113.022901 C1019.61429,131.02808 1013.98471,145.859993 1002.7254,157.519084 C990.058667,170.506426 974.503267,177 956.05873,177 C937.614193,177 922.09583,170.506426 909.503175,157.519084 C898.243859,145.859993 892.614286,131.02808 892.614286,113.022901 L892.614286,3 L918.503175,3 Z M1109.53148,27.2545337 L1109.53148,174 L1083.80749,174 L1083.80749,27.2545337 L1044.61429,27.2545337 L1044.61429,3 L1148.61429,3 L1148.61429,27.2545337 L1109.53148,27.2545337 Z M1269.61429,27.2545337 L1201.32086,27.2545337 L1201.32086,68.3432642 L1267.62837,68.3432642 L1267.62837,92.5977979 L1201.32086,92.5977979 L1201.32086,149.745466 L1269.61429,149.745466 L1269.61429,174 L1175.61429,174 L1175.61429,3 L1269.61429,3 L1269.61429,27.2545337 Z M170.609291,396.125648 L223.614286,469 L192.010889,469 L143.108791,399.005181 L138.451449,399.005181 L138.451449,469 L112.614286,469 L112.614286,298 L142.887013,298 C165.508505,298 181.846004,302.245424 191.9,310.736399 C202.988967,320.187223 208.533367,332.665078 208.533367,348.170337 C208.533367,360.279206 205.058876,370.689723 198.10979,379.402202 C191.160705,388.114681 181.993963,393.689107 170.609291,396.125648 Z M138.614286,377 L146.836508,377 C171.355149,377 183.614286,367.706215 183.614286,349.118367 C183.614286,331.706035 171.688479,323 147.836508,323 L138.614286,323 L138.614286,377 Z M346.614286,322.254534 L278.320858,322.254534 L278.320858,363.343264 L344.62837,363.343264 L344.62837,387.597798 L278.320858,387.597798 L278.320858,444.745466 L346.614286,444.745466 L346.614286,469 L252.614286,469 L252.614286,298 L346.614286,298 L346.614286,322.254534 Z M391.906257,298 L439.281439,416.60241 L487.322315,298 L515.614286,298 L438.726694,482 L363.614286,298 L391.906257,298 Z M523.614286,382.781387 C523.614286,358.753784 532.449596,338.116888 550.120482,320.870081 C567.71743,303.623274 588.863026,295 613.557904,295 C637.957035,295 658.880824,303.696977 676.329899,321.091193 C693.852911,338.485409 702.614286,359.380265 702.614286,383.77639 C702.614286,408.319923 693.815943,429.141076 676.218995,446.240475 C658.548109,463.413577 637.217674,472 612.227049,472 C590.119958,472 570.268236,464.371719 552.671287,449.114928 C533.299856,432.236643 523.614286,410.125683 523.614286,382.781387 Z M549.614286,383.056701 C549.614286,401.970885 555.979024,417.523135 568.708691,429.713918 C581.364349,441.9047 595.981044,448 612.559216,448 C630.543571,448 645.715331,441.793876 658.07495,429.381443 C670.434569,416.821243 676.614286,401.527582 676.614286,383.5 C676.614286,365.250768 670.508578,349.957106 658.296978,337.618557 C646.159388,325.206124 631.135646,319 613.2253,319 C595.388963,319 580.328217,325.206124 568.042607,337.618557 C555.756998,349.883223 549.614286,365.029119 549.614286,383.056701 Z M763.390123,298 L763.390123,444.745466 L813.614286,444.745466 L813.614286,469 L737.614286,469 L737.614286,298 L763.390123,298 Z M861.503175,298 L861.503175,400.938931 C861.503175,415.623483 863.910558,426.360017 868.725397,433.148855 C875.910618,442.963153 886.021628,447.870229 899.05873,447.870229 C912.169907,447.870229 922.317953,442.963153 929.503175,433.148855 C934.318013,426.581392 936.725397,415.844858 936.725397,400.938931 L936.725397,298 L962.614286,298 L962.614286,408.022901 C962.614286,426.02808 956.984712,440.859993 945.725397,452.519084 C933.058667,465.506426 917.503267,472 899.05873,472 C880.614193,472 865.09583,465.506426 852.503175,452.519084 C841.243859,440.859993 835.614286,426.02808 835.614286,408.022901 L835.614286,298 L861.503175,298 Z M1053.53148,322.254534 L1053.53148,469 L1027.80749,469 L1027.80749,322.254534 L988.614286,322.254534 L988.614286,298 L1092.61429,298 L1092.61429,322.254534 L1053.53148,322.254534 Z M1144.61429,298 L1144.61429,469 L1118.61429,469 L1118.61429,298 L1144.61429,298 Z M1179.61429,382.781387 C1179.61429,358.753784 1188.4496,338.116888 1206.12048,320.870081 C1223.71743,303.623274 1244.86303,295 1269.5579,295 C1293.95703,295 1314.88082,303.696977 1332.3299,321.091193 C1349.85291,338.485409 1358.61429,359.380265 1358.61429,383.77639 C1358.61429,408.319923 1349.81594,429.141076 1332.21899,446.240475 C1314.54811,463.413577 1293.21767,472 1268.22705,472 C1246.11996,472 1226.26824,464.371719 1208.67129,449.114928 C1189.29986,432.236643 1179.61429,410.125683 1179.61429,382.781387 Z M1205.61429,383.056701 C1205.61429,401.970885 1211.97902,417.523135 1224.70869,429.713918 C1237.36435,441.9047 1251.98104,448 1268.55922,448 C1286.54357,448 1301.71533,441.793876 1314.07495,429.381443 C1326.43457,416.821243 1332.61429,401.527582 1332.61429,383.5 C1332.61429,365.250768 1326.50858,349.957106 1314.29698,337.618557 C1302.15939,325.206124 1287.13565,319 1269.2253,319 C1251.38896,319 1236.32822,325.206124 1224.04261,337.618557 C1211.757,349.883223 1205.61429,365.029119 1205.61429,383.056701 Z M1393.61429,469.591509 L1393.61429,287 L1517.89685,417.438325 L1517.89685,298.626506 L1543.61429,298.626506 L1543.61429,480 L1419.33173,349.893861 L1419.33173,469.591509 L1393.61429,469.591509 Z" id="DISPUTEREVOLUTION" fill="url(#linearGradient2)" fill-rule="nonzero"></path>
                <path d="M111.970974,1880.3899 L111.970974,1913 L106.282014,1913 L106.282014,1880.3899 L97.6142857,1880.3899 L97.6142857,1875 L120.614286,1875 L120.614286,1880.3899 L111.970974,1880.3899 Z M134.377537,1889.86528 L150.851035,1889.86528 L150.851035,1875 L156.614286,1875 L156.614286,1913 L150.851035,1913 L150.851035,1895.25518 L134.377537,1895.25518 L134.377537,1913 L128.614286,1913 L128.614286,1875 L134.377537,1875 L134.377537,1889.86528 Z M189.614286,1880.3899 L174.357243,1880.3899 L174.357243,1889.52073 L189.170624,1889.52073 L189.170624,1894.91062 L174.357243,1894.91062 L174.357243,1907.6101 L189.614286,1907.6101 L189.614286,1913 L168.614286,1913 L168.614286,1875 L189.614286,1875 L189.614286,1880.3899 Z M224.495052,1890.16062 L239.663894,1875 L247.513328,1875 L229.89627,1892.20337 L247.614286,1913 L239.739612,1913 L225.70654,1896.09197 L224.495052,1897.27332 L224.495052,1913 L218.614286,1913 L218.614286,1875 L224.495052,1875 L224.495052,1890.16062 Z M261.379933,1875 L261.379933,1907.6101 L272.614286,1907.6101 L272.614286,1913 L255.614286,1913 L255.614286,1875 L261.379933,1875 Z M302.614286,1880.3899 L287.357243,1880.3899 L287.357243,1889.52073 L302.170624,1889.52073 L302.170624,1894.91062 L287.357243,1894.91062 L287.357243,1907.6101 L302.614286,1907.6101 L302.614286,1913 L281.614286,1913 L281.614286,1875 L302.614286,1875 L302.614286,1880.3899 Z M325.676224,1896.8057 L337.614286,1913 L330.496404,1913 L319.482418,1897.4456 L318.433467,1897.4456 L318.433467,1913 L312.614286,1913 L312.614286,1875 L319.432468,1875 C324.527398,1875 328.207015,1875.94343 330.471429,1877.83031 C332.968944,1879.93049 334.217682,1882.70335 334.217682,1886.14896 C334.217682,1888.83982 333.435139,1891.15327 331.87003,1893.08938 C330.304921,1895.02548 328.240339,1896.26425 325.676224,1896.8057 Z M318.614286,1892 L320.441446,1892 C325.890033,1892 328.614286,1889.93471 328.614286,1885.80408 C328.614286,1881.93467 325.964106,1880 320.663668,1880 L318.614286,1880 L318.614286,1892 Z M343.614286,1893.34166 C343.614286,1888.04744 345.588657,1883.50033 349.537458,1879.70019 C353.469737,1875.90004 358.19501,1874 363.713418,1874 C369.165738,1874 373.841445,1875.91628 377.74068,1879.74891 C381.656437,1883.58153 383.614286,1888.18548 383.614286,1893.5609 C383.614286,1898.9688 381.648176,1903.55651 377.715897,1907.32417 C373.767095,1911.10808 369.000518,1913 363.416021,1913 C358.475888,1913 354.039749,1911.31919 350.10747,1907.95753 C345.778659,1904.23858 343.614286,1899.36668 343.614286,1893.34166 Z M349.614286,1893.40034 C349.614286,1897.65237 351.017535,1901.14861 353.824076,1903.88918 C356.6143,1906.62974 359.836878,1908 363.491908,1908 C367.456963,1908 370.801918,1906.60482 373.526873,1903.81443 C376.251828,1900.99082 377.614286,1897.55271 377.614286,1893.5 C377.614286,1889.39746 376.268145,1885.95935 373.575824,1883.18557 C370.89982,1880.39518 367.587499,1879 363.638761,1879 C359.706341,1879 356.385861,1880.39518 353.677223,1883.18557 C350.968585,1885.94274 349.614286,1889.34763 349.614286,1893.40034 Z M415.604185,1880.49189 L410.831457,1883.28839 C409.939197,1881.75696 409.089037,1880.75822 408.280952,1880.29213 C407.439197,1879.75946 406.35335,1879.49313 405.023377,1879.49313 C403.390372,1879.49313 402.035167,1879.95089 400.95772,1880.86642 C399.880274,1881.7653 399.341558,1882.8972 399.341558,1884.26217 C399.341558,1886.14316 400.755686,1887.65792 403.583983,1888.80649 L407.472872,1890.37953 C410.637871,1891.64462 412.952662,1893.18851 414.417316,1895.01124 C415.88197,1896.83397 416.614286,1899.06865 416.614286,1901.71536 C416.614286,1905.26094 415.419011,1908.19058 413.028427,1910.50437 C410.621008,1912.8348 407.632822,1914 404.063781,1914 C400.679925,1914 397.885341,1913.00958 395.679942,1911.02871 C393.508214,1909.04785 392.153009,1906.25969 391.614286,1902.66417 L397.573882,1901.36579 C397.843243,1903.62964 398.314619,1905.19434 398.988023,1906.05993 C400.20015,1907.72452 401.967809,1908.5568 404.291053,1908.5568 C406.126079,1908.5568 407.649633,1907.94924 408.86176,1906.73408 C410.073888,1905.51893 410.679942,1903.9792 410.679942,1902.11486 C410.679942,1901.36579 410.574724,1900.67915 410.364286,1900.05493 C410.153847,1899.43071 409.825567,1898.85643 409.379437,1898.33208 C408.933307,1897.80774 408.356713,1897.31669 407.649639,1896.85893 C406.942565,1896.40116 406.100823,1895.96421 405.124387,1895.54806 L401.36176,1894 C396.025033,1891.76944 393.35671,1888.50689 393.35671,1884.21223 C393.35671,1881.31584 394.476227,1878.89389 396.715296,1876.94632 C398.954364,1874.9821 401.740532,1874 405.073882,1874 C409.568854,1874 413.07892,1876.16394 415.604185,1880.49189 Z M451.377537,1889.86528 L467.851035,1889.86528 L467.851035,1875 L473.614286,1875 L473.614286,1913 L467.851035,1913 L467.851035,1895.25518 L451.377537,1895.25518 L451.377537,1913 L445.614286,1913 L445.614286,1875 L451.377537,1875 L451.377537,1889.86528 Z M508.335138,1902.85923 L492.041334,1902.85923 L487.801494,1912 L481.614286,1912 L500.447064,1872 L518.614286,1912 L512.328476,1912 L508.335138,1902.85923 Z M505.614286,1898 L499.755011,1885 L493.614286,1898 L505.614286,1898 Z M525.614286,1912.68101 L525.614286,1872 L553.784999,1901.06139 L553.784999,1874.59036 L559.614286,1874.59036 L559.614286,1915 L531.443572,1886.01262 L531.443572,1912.68101 L525.614286,1912.68101 Z M571.614286,1913 L571.614286,1875 L579.754989,1875 C583.657856,1875 586.739903,1875.37737 589.00122,1876.13212 C591.430043,1876.87047 593.632701,1878.12564 595.609261,1879.89767 C599.612631,1883.47454 601.614286,1888.17527 601.614286,1894 C601.614286,1899.84113 599.528879,1904.56648 595.358004,1908.17617 C593.264191,1909.98101 591.069909,1911.23618 588.77509,1911.94171 C586.631025,1912.64724 583.590855,1913 579.654487,1913 L571.614286,1913 Z M577.614286,1907 L580.217591,1907 C582.812646,1907 584.969649,1906.73147 586.688666,1906.19439 C588.407683,1905.62477 589.961386,1904.72153 591.349823,1903.48463 C594.192812,1900.92946 595.614286,1897.60129 595.614286,1893.5 C595.614286,1889.36616 594.209341,1886.01358 591.39941,1883.44213 C588.870471,1881.14737 585.143236,1880 580.217591,1880 L577.614286,1880 L577.614286,1907 Z M611.614286,1913 L611.614286,1875 L617.433261,1875 C620.025058,1875 622.090105,1875.19689 623.628462,1875.59067 C625.183541,1875.98446 626.496142,1876.64896 627.566303,1877.5842 C628.653186,1878.55225 629.514319,1879.7582 630.149727,1881.20207 C630.801857,1882.66236 631.127917,1884.13903 631.127917,1885.63212 C631.127917,1888.3558 630.066132,1890.66104 627.94253,1892.54793 C629.999247,1893.23705 631.621186,1894.443 632.808397,1896.1658 C634.012329,1897.8722 634.614286,1899.8575 634.614286,1902.12176 C634.614286,1905.09155 633.54414,1907.60189 631.403817,1909.65285 C630.116279,1910.91624 628.66991,1911.79404 627.064667,1912.28627 C625.308933,1912.76209 623.110119,1913 620.468157,1913 L611.614286,1913 Z M617.614286,1891 L619.416755,1891 C621.556683,1891 623.124569,1890.53044 624.120459,1889.59131 C625.116348,1888.65219 625.614286,1887.26801 625.614286,1885.43875 C625.614286,1883.65849 625.104003,1882.30698 624.083422,1881.38419 C623.06284,1880.46139 621.581374,1880 619.638977,1880 L617.614286,1880 L617.614286,1891 Z M617.614286,1908 L621.103272,1908 C623.655414,1908 625.529111,1907.46896 626.724418,1906.40685 C627.984336,1905.25909 628.614286,1903.80301 628.614286,1902.03854 C628.614286,1900.32547 628.008565,1898.88652 626.797105,1897.72163 C625.617951,1896.57387 623.510042,1896 620.473317,1896 L617.614286,1896 L617.614286,1908 Z M642.614286,1893.34166 C642.614286,1888.04744 644.588657,1883.50033 648.537458,1879.70019 C652.469737,1875.90004 657.19501,1874 662.713418,1874 C668.165738,1874 672.841445,1875.91628 676.74068,1879.74891 C680.656437,1883.58153 682.614286,1888.18548 682.614286,1893.5609 C682.614286,1898.9688 680.648176,1903.55651 676.715897,1907.32417 C672.767095,1911.10808 668.000518,1913 662.416021,1913 C657.475888,1913 653.039749,1911.31919 649.10747,1907.95753 C644.778659,1904.23858 642.614286,1899.36668 642.614286,1893.34166 Z M648.614286,1893.40034 C648.614286,1897.65237 650.017535,1901.14861 652.824076,1903.88918 C655.6143,1906.62974 658.836878,1908 662.491908,1908 C666.456963,1908 669.801918,1906.60482 672.526873,1903.81443 C675.251828,1900.99082 676.614286,1897.55271 676.614286,1893.5 C676.614286,1889.39746 675.268145,1885.95935 672.575824,1883.18557 C669.89982,1880.39518 666.587499,1879 662.638761,1879 C658.706341,1879 655.385861,1880.39518 652.677223,1883.18557 C649.968585,1885.94274 648.614286,1889.34763 648.614286,1893.40034 Z M691.614286,1893.34166 C691.614286,1888.04744 693.588657,1883.50033 697.537458,1879.70019 C701.469737,1875.90004 706.19501,1874 711.713418,1874 C717.165738,1874 721.841445,1875.91628 725.74068,1879.74891 C729.656437,1883.58153 731.614286,1888.18548 731.614286,1893.5609 C731.614286,1898.9688 729.648176,1903.55651 725.715897,1907.32417 C721.767095,1911.10808 717.000518,1913 711.416021,1913 C706.475888,1913 702.039749,1911.31919 698.10747,1907.95753 C693.778659,1904.23858 691.614286,1899.36668 691.614286,1893.34166 Z M697.614286,1893.40034 C697.614286,1897.65237 699.017535,1901.14861 701.824076,1903.88918 C704.6143,1906.62974 707.836878,1908 711.491908,1908 C715.456963,1908 718.801918,1906.60482 721.526873,1903.81443 C724.251828,1900.99082 725.614286,1897.55271 725.614286,1893.5 C725.614286,1889.39746 724.268145,1885.95935 721.575824,1883.18557 C718.89982,1880.39518 715.587499,1879 711.638761,1879 C707.706341,1879 704.385861,1880.39518 701.677223,1883.18557 C698.968585,1885.94274 697.614286,1889.34763 697.614286,1893.40034 Z M747.495052,1890.16062 L762.663894,1875 L770.513328,1875 L752.89627,1892.20337 L770.614286,1913 L762.739612,1913 L748.70654,1896.09197 L747.495052,1897.27332 L747.495052,1913 L741.614286,1913 L741.614286,1875 L747.495052,1875 L747.495052,1890.16062 Z M794.614286,1893.34166 C794.614286,1888.04744 796.588657,1883.50033 800.537458,1879.70019 C804.469737,1875.90004 809.19501,1874 814.713418,1874 C820.165738,1874 824.841445,1875.91628 828.74068,1879.74891 C832.656437,1883.58153 834.614286,1888.18548 834.614286,1893.5609 C834.614286,1898.9688 832.648176,1903.55651 828.715897,1907.32417 C824.767095,1911.10808 820.000518,1913 814.416021,1913 C809.475888,1913 805.039749,1911.31919 801.10747,1907.95753 C796.778659,1904.23858 794.614286,1899.36668 794.614286,1893.34166 Z M800.614286,1893.40034 C800.614286,1897.65237 802.017535,1901.14861 804.824076,1903.88918 C807.6143,1906.62974 810.836878,1908 814.491908,1908 C818.456963,1908 821.801918,1906.60482 824.526873,1903.81443 C827.251828,1900.99082 828.614286,1897.55271 828.614286,1893.5 C828.614286,1889.39746 827.268145,1885.95935 824.575824,1883.18557 C821.89982,1880.39518 818.587499,1879 814.638761,1879 C810.706341,1879 807.385861,1880.39518 804.677223,1883.18557 C801.968585,1885.94274 800.614286,1889.34763 800.614286,1893.40034 Z M864.614286,1880.3899 L851.356179,1880.3899 L851.356179,1889.52073 L864.146063,1889.52073 L864.146063,1894.91062 L851.356179,1894.91062 L851.356179,1913 L845.614286,1913 L845.614286,1875 L864.614286,1875 L864.614286,1880.3899 Z M892.614286,1913 L892.614286,1875 L900.754989,1875 C904.657856,1875 907.739903,1875.37737 910.00122,1876.13212 C912.430043,1876.87047 914.632701,1878.12564 916.609261,1879.89767 C920.612631,1883.47454 922.614286,1888.17527 922.614286,1894 C922.614286,1899.84113 920.528879,1904.56648 916.358004,1908.17617 C914.264191,1909.98101 912.069909,1911.23618 909.77509,1911.94171 C907.631025,1912.64724 904.590855,1913 900.654487,1913 L892.614286,1913 Z M898.614286,1907 L901.217591,1907 C903.812646,1907 905.969649,1906.73147 907.688666,1906.19439 C909.407683,1905.62477 910.961386,1904.72153 912.349823,1903.48463 C915.192812,1900.92946 916.614286,1897.60129 916.614286,1893.5 C916.614286,1889.36616 915.209341,1886.01358 912.39941,1883.44213 C909.870471,1881.14737 906.143236,1880 901.217591,1880 L898.614286,1880 L898.614286,1907 Z M953.614286,1880.3899 L938.357243,1880.3899 L938.357243,1889.52073 L953.170624,1889.52073 L953.170624,1894.91062 L938.357243,1894.91062 L938.357243,1907.6101 L953.614286,1907.6101 L953.614286,1913 L932.614286,1913 L932.614286,1875 L953.614286,1875 L953.614286,1880.3899 Z M992.614286,1876.82147 L992.614286,1883.71286 C989.297356,1880.89969 985.865535,1879.49313 982.318719,1879.49313 C978.410654,1879.49313 975.118404,1880.91634 972.441872,1883.7628 C969.748919,1886.59261 968.402463,1890.05491 968.402463,1894.14981 C968.402463,1898.19478 969.748919,1901.60714 972.441872,1904.38702 C975.134825,1907.16689 978.435284,1908.5568 982.34335,1908.5568 C984.363064,1908.5568 986.078975,1908.22389 987.491133,1907.55805 C988.279314,1907.22513 989.096219,1906.7757 989.941872,1906.20974 C990.787525,1905.64378 991.67832,1904.9613 992.614286,1904.1623 L992.614286,1911.17853 C989.330197,1913.05952 985.881956,1914 982.269458,1914 C976.834291,1914 972.195586,1912.07742 968.353202,1908.23221 C964.527239,1904.35371 962.614286,1899.67627 962.614286,1894.19975 C962.614286,1889.2892 964.215255,1884.91138 967.417241,1881.06617 C971.358148,1876.35537 976.456619,1874 982.712808,1874 C986.12826,1874 989.42872,1874.94048 992.614286,1876.82147 Z M1023.61429,1880.3899 L1008.35724,1880.3899 L1008.35724,1889.52073 L1023.17062,1889.52073 L1023.17062,1894.91062 L1008.35724,1894.91062 L1008.35724,1907.6101 L1023.61429,1907.6101 L1023.61429,1913 L1002.61429,1913 L1002.61429,1875 L1023.61429,1875 L1023.61429,1880.3899 Z M1034.61429,1912.68101 L1034.61429,1872 L1062.785,1901.06139 L1062.785,1874.59036 L1068.61429,1874.59036 L1068.61429,1915 L1040.44357,1886.01262 L1040.44357,1912.68101 L1034.61429,1912.68101 Z M1090.97097,1880.3899 L1090.97097,1913 L1085.28201,1913 L1085.28201,1880.3899 L1076.61429,1880.3899 L1076.61429,1875 L1099.61429,1875 L1099.61429,1880.3899 L1090.97097,1880.3899 Z M1120.67622,1896.8057 L1132.61429,1913 L1125.4964,1913 L1114.48242,1897.4456 L1113.43347,1897.4456 L1113.43347,1913 L1107.61429,1913 L1107.61429,1875 L1114.43247,1875 C1119.5274,1875 1123.20701,1875.94343 1125.47143,1877.83031 C1127.96894,1879.93049 1129.21768,1882.70335 1129.21768,1886.14896 C1129.21768,1888.83982 1128.43514,1891.15327 1126.87003,1893.08938 C1125.30492,1895.02548 1123.24034,1896.26425 1120.67622,1896.8057 Z M1113.61429,1892 L1115.44145,1892 C1120.89003,1892 1123.61429,1889.93471 1123.61429,1885.80408 C1123.61429,1881.93467 1120.96411,1880 1115.66367,1880 L1113.61429,1880 L1113.61429,1892 Z M1163.33514,1902.85923 L1147.04133,1902.85923 L1142.80149,1912 L1136.61429,1912 L1155.44706,1872 L1173.61429,1912 L1167.32848,1912 L1163.33514,1902.85923 Z M1161.61429,1898 L1155.75501,1885 L1149.61429,1898 L1161.61429,1898 Z M1187.37993,1875 L1187.37993,1907.6101 L1198.61429,1907.6101 L1198.61429,1913 L1181.61429,1913 L1181.61429,1875 L1187.37993,1875 Z M1213.61429,1875 L1213.61429,1913 L1207.61429,1913 L1207.61429,1875 L1213.61429,1875 Z M1232.01306,1907.6101 L1250.19711,1907.6101 L1250.19711,1913 L1222.61429,1913 L1241.21551,1880.3899 L1225.65723,1880.3899 L1225.65723,1875 L1250.61429,1875 L1232.01306,1907.6101 Z M1281.61429,1880.3899 L1266.35724,1880.3899 L1266.35724,1889.52073 L1281.17062,1889.52073 L1281.17062,1894.91062 L1266.35724,1894.91062 L1266.35724,1907.6101 L1281.61429,1907.6101 L1281.61429,1913 L1260.61429,1913 L1260.61429,1875 L1281.61429,1875 L1281.61429,1880.3899 Z M1291.61429,1913 L1291.61429,1875 L1299.75499,1875 C1303.65786,1875 1306.7399,1875.37737 1309.00122,1876.13212 C1311.43004,1876.87047 1313.6327,1878.12564 1315.60926,1879.89767 C1319.61263,1883.47454 1321.61429,1888.17527 1321.61429,1894 C1321.61429,1899.84113 1319.52888,1904.56648 1315.358,1908.17617 C1313.26419,1909.98101 1311.06991,1911.23618 1308.77509,1911.94171 C1306.63103,1912.64724 1303.59085,1913 1299.65449,1913 L1291.61429,1913 Z M1297.61429,1907 L1300.21759,1907 C1302.81265,1907 1304.96965,1906.73147 1306.68867,1906.19439 C1308.40768,1905.62477 1309.96139,1904.72153 1311.34982,1903.48463 C1314.19281,1900.92946 1315.61429,1897.60129 1315.61429,1893.5 C1315.61429,1889.36616 1314.20934,1886.01358 1311.39941,1883.44213 C1308.87047,1881.14737 1305.14324,1880 1300.21759,1880 L1297.61429,1880 L1297.61429,1907 Z M1361.61429,1874 L1361.61429,1898.78435 C1361.61429,1901.74493 1361.40986,1903.95292 1361.00101,1905.4084 C1360.59216,1907.06235 1359.89712,1908.45992 1358.91587,1909.60115 C1357.00244,1911.86706 1354.4676,1913 1351.31126,1913 C1348.92356,1913 1346.69126,1912.37151 1344.61429,1911.1145 L1347.41082,1906.17748 C1348.80092,1907.12023 1350.10105,1907.5916 1351.31126,1907.5916 C1353.01208,1907.5916 1354.18956,1906.9383 1354.84372,1905.63168 C1355.5306,1904.32506 1355.87403,1902.04264 1355.87403,1898.78435 L1355.87403,1874 L1361.61429,1874 Z M1380.32207,1874 L1380.32207,1897.07252 C1380.32207,1900.36388 1380.85283,1902.77035 1381.91437,1904.29198 C1383.49852,1906.49174 1385.72772,1907.5916 1388.60204,1907.5916 C1391.49269,1907.5916 1393.73005,1906.49174 1395.3142,1904.29198 C1396.37574,1902.81997 1396.9065,1900.4135 1396.9065,1897.07252 L1396.9065,1874 L1402.61429,1874 L1402.61429,1898.66031 C1402.61429,1902.69595 1401.37312,1906.02034 1398.89075,1908.63359 C1396.09809,1911.54454 1392.66855,1913 1388.60204,1913 C1384.53553,1913 1381.11415,1911.54454 1378.33782,1908.63359 C1375.85545,1906.02034 1374.61429,1902.69595 1374.61429,1898.66031 L1374.61429,1874 L1380.32207,1874 Z M1436.60418,1880.49189 L1431.83146,1883.28839 C1430.9392,1881.75696 1430.08904,1880.75822 1429.28095,1880.29213 C1428.4392,1879.75946 1427.35335,1879.49313 1426.02338,1879.49313 C1424.39037,1879.49313 1423.03517,1879.95089 1421.95772,1880.86642 C1420.88027,1881.7653 1420.34156,1882.8972 1420.34156,1884.26217 C1420.34156,1886.14316 1421.75569,1887.65792 1424.58398,1888.80649 L1428.47287,1890.37953 C1431.63787,1891.64462 1433.95266,1893.18851 1435.41732,1895.01124 C1436.88197,1896.83397 1437.61429,1899.06865 1437.61429,1901.71536 C1437.61429,1905.26094 1436.41901,1908.19058 1434.02843,1910.50437 C1431.62101,1912.8348 1428.63282,1914 1425.06378,1914 C1421.67993,1914 1418.88534,1913.00958 1416.67994,1911.02871 C1414.50821,1909.04785 1413.15301,1906.25969 1412.61429,1902.66417 L1418.57388,1901.36579 C1418.84324,1903.62964 1419.31462,1905.19434 1419.98802,1906.05993 C1421.20015,1907.72452 1422.96781,1908.5568 1425.29105,1908.5568 C1427.12608,1908.5568 1428.64963,1907.94924 1429.86176,1906.73408 C1431.07389,1905.51893 1431.67994,1903.9792 1431.67994,1902.11486 C1431.67994,1901.36579 1431.57472,1900.67915 1431.36429,1900.05493 C1431.15385,1899.43071 1430.82557,1898.85643 1430.37944,1898.33208 C1429.93331,1897.80774 1429.35671,1897.31669 1428.64964,1896.85893 C1427.94257,1896.40116 1427.10082,1895.96421 1426.12439,1895.54806 L1422.36176,1894 C1417.02503,1891.76944 1414.35671,1888.50689 1414.35671,1884.21223 C1414.35671,1881.31584 1415.47623,1878.89389 1417.7153,1876.94632 C1419.95436,1874.9821 1422.74053,1874 1426.07388,1874 C1430.56885,1874 1434.07892,1876.16394 1436.60418,1880.49189 Z M1457.97097,1880.3899 L1457.97097,1913 L1452.28201,1913 L1452.28201,1880.3899 L1443.61429,1880.3899 L1443.61429,1875 L1466.61429,1875 L1466.61429,1880.3899 L1457.97097,1880.3899 Z M1481.61429,1875 L1481.61429,1913 L1475.61429,1913 L1475.61429,1875 L1481.61429,1875 Z M1521.61429,1876.82147 L1521.61429,1883.71286 C1518.29736,1880.89969 1514.86553,1879.49313 1511.31872,1879.49313 C1507.41065,1879.49313 1504.1184,1880.91634 1501.44187,1883.7628 C1498.74892,1886.59261 1497.40246,1890.05491 1497.40246,1894.14981 C1497.40246,1898.19478 1498.74892,1901.60714 1501.44187,1904.38702 C1504.13482,1907.16689 1507.43528,1908.5568 1511.34335,1908.5568 C1513.36306,1908.5568 1515.07897,1908.22389 1516.49113,1907.55805 C1517.27931,1907.22513 1518.09622,1906.7757 1518.94187,1906.20974 C1519.78752,1905.64378 1520.67832,1904.9613 1521.61429,1904.1623 L1521.61429,1911.17853 C1518.3302,1913.05952 1514.88196,1914 1511.26946,1914 C1505.83429,1914 1501.19559,1912.07742 1497.3532,1908.23221 C1493.52724,1904.35371 1491.61429,1899.67627 1491.61429,1894.19975 C1491.61429,1889.2892 1493.21525,1884.91138 1496.41724,1881.06617 C1500.35815,1876.35537 1505.45662,1874 1511.71281,1874 C1515.12826,1874 1518.42872,1874.94048 1521.61429,1876.82147 Z M1552.61429,1880.3899 L1537.35724,1880.3899 L1537.35724,1889.52073 L1552.17062,1889.52073 L1552.17062,1894.91062 L1537.35724,1894.91062 L1537.35724,1907.6101 L1552.61429,1907.6101 L1552.61429,1913 L1531.61429,1913 L1531.61429,1875 L1552.61429,1875 L1552.61429,1880.3899 Z" id="THEKLEROSHANDBOOKOFDECENTRALIZEDJUSTICE" fill="url(#linearGradient3)" fill-rule="nonzero"></path>
                <g id="Crowd" opacity="0.607212612" transform="translate(124.000000, 1349.000000)" fill="#20175F">
                    <rect id="Rectangle" x="-0.385714286" y="0" width="57" height="15" rx="2"></rect>
                    <rect id="Rectangle" x="148.614286" y="0" width="57" height="15" rx="2"></rect>
                    <rect id="Rectangle" x="301.614286" y="0" width="57" height="15" rx="2"></rect>
                    <rect id="Rectangle" x="451.614286" y="0" width="57" height="15" rx="2"></rect>
                    <rect id="Rectangle" x="598.614286" y="0" width="57" height="15" rx="2"></rect>
                    <rect id="Rectangle" x="749.614286" y="0" width="57" height="15" rx="2"></rect>
                    <rect id="Rectangle" x="898.614286" y="0" width="57" height="15" rx="2"></rect>
                    <rect id="Rectangle" x="1053.61429" y="0" width="57" height="15" rx="2"></rect>
                    <rect id="Rectangle" x="1202.61429" y="0" width="57" height="15" rx="2"></rect>
                    <rect id="Rectangle" x="1350.61429" y="0" width="57" height="15" rx="2"></rect>
                </g>
                <g id="Crowd" opacity="0.607212612" transform="translate(198.000000, 1219.000000)" fill="#20175F">
                    <rect id="Rectangle" x="-0.385714286" y="0" width="49" height="15" rx="2"></rect>
                    <rect id="Rectangle" x="134.614286" y="0" width="49" height="15" rx="2"></rect>
                    <rect id="Rectangle" x="271.614286" y="0" width="49" height="15" rx="2"></rect>
                    <rect id="Rectangle" x="406.614286" y="0" width="49" height="15" rx="2"></rect>
                    <rect id="Rectangle" x="538.614286" y="0" width="49" height="15" rx="2"></rect>
                    <rect id="Rectangle" x="670.614286" y="0" width="49" height="15" rx="2"></rect>
                    <rect id="Rectangle" x="804.614286" y="0" width="49" height="15" rx="2"></rect>
                    <rect id="Rectangle" x="944.614286" y="0" width="49" height="15" rx="2"></rect>
                    <rect id="Rectangle" x="1078.61429" y="0" width="49" height="15" rx="2"></rect>
                    <rect id="Rectangle" x="1210.61429" y="0" width="49" height="15" rx="2"></rect>
                </g>
                <g id="Crowd" opacity="0.607212612" transform="translate(296.000000, 1092.000000)" fill="#20175F">
                    <rect id="Rectangle" x="-0.385714286" y="0" width="42" height="12" rx="2"></rect>
                    <rect id="Rectangle" x="111.614286" y="0" width="42" height="12" rx="2"></rect>
                    <rect id="Rectangle" x="228.614286" y="0" width="42" height="12" rx="2"></rect>
                    <rect id="Rectangle" x="343.614286" y="0" width="42" height="12" rx="2"></rect>
                    <rect id="Rectangle" x="453.614286" y="0" width="42" height="12" rx="2"></rect>
                    <rect id="Rectangle" x="566.614286" y="0" width="42" height="12" rx="2"></rect>
                    <rect id="Rectangle" x="678.614286" y="0" width="42" height="12" rx="2"></rect>
                    <rect id="Rectangle" x="797.614286" y="0" width="42" height="12" rx="2"></rect>
                    <rect id="Rectangle" x="910.614286" y="0" width="42" height="12" rx="2"></rect>
                    <rect id="Rectangle" x="1022.61429" y="0" width="42" height="12" rx="2"></rect>
                </g>
                <g id="Crowd" opacity="0.607212612" transform="translate(362.000000, 996.000000)" fill="#20175F">
                    <rect id="Rectangle" x="-0.385714286" y="0" width="34" height="11" rx="2"></rect>
                    <rect id="Rectangle" x="98.6142857" y="0" width="34" height="11" rx="2"></rect>
                    <rect id="Rectangle" x="198.614286" y="0" width="34" height="11" rx="2"></rect>
                    <rect id="Rectangle" x="296.614286" y="0" width="34" height="11" rx="2"></rect>
                    <rect id="Rectangle" x="392.614286" y="0" width="34" height="11" rx="2"></rect>
                    <rect id="Rectangle" x="489.614286" y="0" width="34" height="11" rx="2"></rect>
                    <rect id="Rectangle" x="587.614286" y="0" width="34" height="11" rx="2"></rect>
                    <rect id="Rectangle" x="687.614286" y="0" width="34" height="11" rx="2"></rect>
                    <rect id="Rectangle" x="785.614286" y="0" width="34" height="11" rx="2"></rect>
                    <rect id="Rectangle" x="883.614286" y="0" width="34" height="11" rx="2"></rect>
                </g>
                <g id="Group-3" transform="translate(205.000000, 1043.000000)" fill="#FFFFFF">
                    <rect id="Rectangle" x="1131.61429" y="230" width="38" height="85" rx="2"></rect>
                    <rect id="Rectangle" x="982.614286" y="230" width="38" height="85" rx="2"></rect>
                    <rect id="Rectangle" x="379.614286" y="230" width="38" height="85" rx="2"></rect>
                    <rect id="Rectangle" x="230.614286" y="230" width="38" height="85" rx="2"></rect>
                    <rect id="Rectangle" opacity="0.756766183" x="945.614286" y="113" width="32" height="72" rx="2"></rect>
                    <rect id="Rectangle" opacity="0.756766183" x="805.614286" y="113" width="32" height="72" rx="2"></rect>
                    <rect id="Rectangle" opacity="0.756766183" x="670.614286" y="113" width="32" height="72" rx="2"></rect>
                    <rect id="Rectangle" opacity="0.756766183" x="-0.385714286" y="113" width="32" height="72" rx="2"></rect>
                    <rect id="Rectangle" opacity="0.756766183" x="134.614286" y="113" width="32" height="72" rx="2"></rect>
                    <rect id="Rectangle" opacity="0.525902158" x="209.614286" y="0" width="25" height="57" rx="2"></rect>
                    <rect id="Rectangle" opacity="0.525902158" x="328.614286" y="0" width="25" height="57" rx="2"></rect>
                    <rect id="Rectangle" opacity="0.525902158" x="441.614286" y="0" width="25" height="57" rx="2"></rect>
                    <rect id="Rectangle" opacity="0.525902158" x="1122.61429" y="0" width="25" height="57" rx="2"></rect>
                </g>
                <rect id="Rectangle" fill="#FFFFFF" opacity="0.525902158" x="1057" y="954" width="21" height="48" rx="2"></rect>
                <rect id="Rectangle" fill="#FFFFFF" opacity="0.525902158" x="368" y="954" width="20" height="48" rx="2"></rect>
                <rect id="Rectangle" fill="#FFFFFF" opacity="0.525902158" x="1156" y="954" width="20" height="48" rx="2"></rect>
                <rect id="Rectangle" fill="#FFFFFF" opacity="0.525902158" x="1252" y="954" width="21" height="48" rx="2"></rect>
                <polygon id="Path-56" fill="url(#linearGradient4)" points="322 957 822.841752 241 1333 957"></polygon>
                <path d="M784.750882,641 L884.307639,645.402973 L924.614286,734.014737 L867.749093,815 L767.651127,808.657468 L726.614286,712.647175 L784.750882,641 Z M857.614286,692 L785.614286,723.03924 L847.169799,770 L857.614286,692 Z M849.614286,676.256314 L791.766023,652 L779.614286,703 L849.614286,676.256314 Z M834.614286,782.016473 L772.614286,737 L774.114016,798 L834.614286,782.016473 Z M915.614286,733.162689 L872.099595,690 L860.614286,773 L915.614286,733.162689 Z M849.33562,792 L796.614286,805.197604 L858.614286,809 L849.33562,792 Z M905.614286,753 L858.614286,787.838989 L867.953296,806 L905.614286,753 Z M884.748718,658 L875.614286,676.641784 L909.614286,711 L884.748718,658 Z M871.614286,649.362585 L813.614286,647 L861.457384,668 L871.614286,649.362585 Z M777.614286,658 L736.614286,709.252142 L764.026149,715 L777.614286,658 Z M761.449061,724.684609 L734.614286,719 L762.614286,785 L761.449061,724.684609 Z" id="Combined-Shape" fill="url(#linearGradient5)" fill-rule="nonzero"></path>
            </g>
            <path d="M715.191591,2100.51685 L728.582775,2086.67416 L735.512324,2086.67416 L719.959833,2102.38202 L735.60145,2121.37079 L728.64962,2121.37079 L716.261103,2105.93258 L715.191591,2107.01124 L715.191591,2121.37079 L710,2121.37079 L710,2086.67416 L715.191591,2086.67416 L715.191591,2100.51685 Z M746.786503,2086.67416 L746.786503,2116.44944 L756.902307,2116.44944 L756.902307,2121.37079 L741.594912,2121.37079 L741.594912,2086.67416 L746.786503,2086.67416 Z M782.169271,2091.59551 L768.37702,2091.59551 L768.37702,2099.93258 L781.768204,2099.93258 L781.768204,2104.85393 L768.37702,2104.85393 L768.37702,2116.44944 L782.169271,2116.44944 L782.169271,2121.37079 L763.185429,2121.37079 L763.185429,2086.67416 L782.169271,2086.67416 L782.169271,2091.59551 Z M801.999549,2106.58427 L812.650109,2121.37079 L806.29988,2121.37079 L796.473736,2107.16854 L795.537913,2107.16854 L795.537913,2121.37079 L790.346322,2121.37079 L790.346322,2086.67416 L796.429173,2086.67416 C800.974623,2086.67416 804.257398,2087.53557 806.277598,2089.25843 C808.50576,2091.17604 809.619824,2093.70785 809.619824,2096.85393 C809.619824,2099.31087 808.921677,2101.42321 807.525362,2103.19101 C806.129048,2104.95881 804.287128,2106.08989 801.999549,2106.58427 Z M795.537913,2102.60674 L797.186744,2102.60674 C802.103554,2102.60674 804.561922,2100.71163 804.561922,2096.92135 C804.561922,2093.37077 802.170398,2091.59551 797.387277,2091.59551 L795.537913,2091.59551 L795.537913,2102.60674 Z M816.682799,2103.86517 C816.682799,2098.98125 818.457874,2094.78653 822.008079,2091.2809 C825.543429,2087.77526 829.791726,2086.02247 834.7531,2086.02247 C839.655055,2086.02247 843.858791,2087.79024 847.364432,2091.32584 C850.884927,2094.86144 852.645149,2099.10859 852.645149,2104.06742 C852.645149,2109.0562 850.8775,2113.28837 847.34215,2116.76404 C843.791946,2120.2547 839.506513,2122 834.485722,2122 C830.044253,2122 826.055903,2120.44945 822.520553,2117.34831 C818.628698,2113.91759 816.682799,2109.42325 816.682799,2103.86517 Z M821.918953,2103.93258 C821.918953,2107.76781 823.196413,2110.92134 825.751372,2113.39326 C828.291476,2115.86518 831.225178,2117.10112 834.552566,2117.10112 C838.162188,2117.10112 841.207297,2115.84271 843.687983,2113.32584 C846.16867,2110.77901 847.408995,2107.67792 847.408995,2104.02247 C847.408995,2100.32208 846.183524,2097.22099 843.732546,2094.7191 C841.296423,2092.20223 838.281023,2090.94382 834.686255,2090.94382 C831.106342,2090.94382 828.083515,2092.20223 825.617683,2094.7191 C823.15185,2097.206 821.918953,2100.27714 821.918953,2103.93258 Z M879.984293,2091.8427 L875.773089,2094.35955 C874.985805,2092.98127 874.235669,2092.0824 873.522657,2091.66292 C872.779936,2091.18352 871.821841,2090.94382 870.648343,2090.94382 C869.207465,2090.94382 868.011703,2091.3558 867.06102,2092.17978 C866.110338,2092.98877 865.635004,2094.00748 865.635004,2095.23596 C865.635004,2096.92885 866.882756,2098.29213 869.378297,2099.32584 L872.809649,2100.74157 C875.602278,2101.88016 877.644729,2103.26965 878.937063,2104.91011 C880.229396,2106.55057 880.875554,2108.56179 880.875554,2110.94382 C880.875554,2114.13485 879.820906,2116.77153 877.71158,2118.85393 C875.587399,2120.95132 872.950781,2122 869.801646,2122 C866.815909,2122 864.350114,2121.10862 862.404186,2119.32584 C860.487967,2117.54306 859.292205,2115.03372 858.816863,2111.79775 L864.075299,2110.62921 C864.312969,2112.66668 864.728887,2114.0749 865.323063,2114.85393 C866.392581,2116.35207 867.95227,2117.10112 870.002179,2117.10112 C871.62131,2117.10112 872.965614,2116.55431 874.035132,2115.46067 C875.104649,2114.36704 875.6394,2112.98128 875.6394,2111.30337 C875.6394,2110.62921 875.546561,2110.01124 875.360881,2109.44944 C875.175201,2108.88764 874.885544,2108.37079 874.491902,2107.89888 C874.09826,2107.42696 873.589505,2106.98502 872.965619,2106.57303 C872.341734,2106.16105 871.599025,2105.76779 870.737469,2105.39326 L867.417524,2104 C862.708676,2101.9925 860.354287,2099.0562 860.354287,2095.19101 C860.354287,2092.58426 861.342091,2090.4045 863.317727,2088.65169 C865.293364,2086.88389 867.751732,2086 870.692906,2086 C874.659034,2086 877.756132,2087.94755 879.984293,2091.8427 Z M888.317314,2118.85393 C888.317314,2118.01498 888.621825,2117.28839 889.230856,2116.67416 C889.839887,2116.05992 890.567742,2115.75281 891.414444,2115.75281 C892.261145,2115.75281 892.989,2116.05992 893.598031,2116.67416 C894.207062,2117.28839 894.511573,2118.02247 894.511573,2118.8764 C894.511573,2119.74532 894.207062,2120.48689 893.598031,2121.10112 C893.003855,2121.70038 892.275999,2122 891.414444,2122 C890.538033,2122 889.802751,2121.70038 889.208575,2121.10112 C888.614398,2120.50187 888.317314,2119.75281 888.317314,2118.85393 Z M909.127978,2086.67416 L909.127978,2121.37079 L903.936387,2121.37079 L903.936387,2086.67416 L909.127978,2086.67416 Z M917.03765,2103.86517 C917.03765,2098.98125 918.812726,2094.78653 922.36293,2091.2809 C925.89828,2087.77526 930.146578,2086.02247 935.107951,2086.02247 C940.009907,2086.02247 944.213642,2087.79024 947.719283,2091.32584 C951.239779,2094.86144 953,2099.10859 953,2104.06742 C953,2109.0562 951.232352,2113.28837 947.697002,2116.76404 C944.146797,2120.2547 939.861364,2122 934.840573,2122 C930.399104,2122 926.410755,2120.44945 922.875405,2117.34831 C918.983549,2113.91759 917.03765,2109.42325 917.03765,2103.86517 Z M922.273804,2103.93258 C922.273804,2107.76781 923.551264,2110.92134 926.106223,2113.39326 C928.646327,2115.86518 931.58003,2117.10112 934.907418,2117.10112 C938.51704,2117.10112 941.562148,2115.84271 944.042835,2113.32584 C946.523522,2110.77901 947.763846,2107.67792 947.763846,2104.02247 C947.763846,2100.32208 946.538376,2097.22099 944.087398,2094.7191 C941.651274,2092.20223 938.635874,2090.94382 935.041107,2090.94382 C931.461194,2090.94382 928.438366,2092.20223 925.972534,2094.7191 C923.506702,2097.206 922.273804,2100.27714 922.273804,2103.93258 Z" id="KLEROS.IO" fill="#FFFFFF" fill-rule="nonzero"></path>
        </g>
        <path d="M434.242676,2303.2207 L444.979004,2318 L438.577637,2318 L428.672363,2303.80469 L427.729004,2303.80469 L427.729004,2318 L422.495605,2318 L422.495605,2283.32031 L428.627441,2283.32031 C433.209496,2283.32031 436.518707,2284.18131 438.555176,2285.90332 C440.801281,2287.82 441.924316,2290.35057 441.924316,2293.49512 C441.924316,2295.95086 441.220547,2298.06217 439.812988,2299.8291 C438.405429,2301.59604 436.548677,2302.72656 434.242676,2303.2207 Z M427.729004,2299.24512 L429.391113,2299.24512 C434.347518,2299.24512 436.825684,2297.35093 436.825684,2293.5625 C436.825684,2290.01365 434.4149,2288.23926 429.593262,2288.23926 L427.729004,2288.23926 L427.729004,2299.24512 Z M469.32666,2288.23926 L455.42334,2288.23926 L455.42334,2296.57227 L468.922363,2296.57227 L468.922363,2301.49121 L455.42334,2301.49121 L455.42334,2313.08105 L469.32666,2313.08105 L469.32666,2318 L450.189941,2318 L450.189941,2283.32031 L469.32666,2283.32031 L469.32666,2288.23926 Z M477.95166,2283.32031 L487.54248,2307.35352 L497.268066,2283.32031 L502.995605,2283.32031 L487.430176,2320.60547 L472.224121,2283.32031 L477.95166,2283.32031 Z M512.541504,2283.32031 L512.541504,2318 L507.308105,2318 L507.308105,2283.32031 L512.541504,2283.32031 Z M540.48291,2288.48633 L536.237793,2291.00195 C535.444169,2289.62434 534.687992,2288.72591 533.969238,2288.30664 C533.220537,2287.82747 532.254726,2287.58789 531.071777,2287.58789 C529.619296,2287.58789 528.413905,2287.99967 527.455566,2288.82324 C526.497228,2289.63184 526.018066,2290.65006 526.018066,2291.87793 C526.018066,2293.57 527.275866,2294.93261 529.791504,2295.96582 L533.250488,2297.38086 C536.065607,2298.51889 538.124505,2299.90771 539.427246,2301.54736 C540.729987,2303.18702 541.381348,2305.19725 541.381348,2307.57812 C541.381348,2310.76759 540.318207,2313.40298 538.191895,2315.48438 C536.050608,2317.58074 533.392757,2318.62891 530.218262,2318.62891 C527.208481,2318.62891 524.722829,2317.73796 522.76123,2315.95605 C520.82958,2314.17414 519.624189,2311.66603 519.14502,2308.43164 L524.445801,2307.26367 C524.685385,2309.30014 525.104652,2310.70768 525.703613,2311.48633 C526.781744,2312.98373 528.353994,2313.73242 530.42041,2313.73242 C532.05258,2313.73242 533.407709,2313.18588 534.48584,2312.09277 C535.56397,2310.99967 536.103027,2309.61459 536.103027,2307.9375 C536.103027,2307.26367 536.009441,2306.646 535.822266,2306.08447 C535.63509,2305.52295 535.343101,2305.00635 534.946289,2304.53467 C534.549477,2304.06299 534.036624,2303.62126 533.407715,2303.20947 C532.778805,2302.79769 532.030115,2302.40462 531.161621,2302.03027 L527.814941,2300.6377 C523.068173,2298.63117 520.694824,2295.69631 520.694824,2291.83301 C520.694824,2289.22753 521.690582,2287.04884 523.682129,2285.29688 C525.673675,2283.52994 528.151841,2282.64648 531.116699,2282.64648 C535.114766,2282.64648 538.236805,2284.59308 540.48291,2288.48633 Z M566.82959,2288.23926 L552.92627,2288.23926 L552.92627,2296.57227 L566.425293,2296.57227 L566.425293,2301.49121 L552.92627,2301.49121 L552.92627,2313.08105 L566.82959,2313.08105 L566.82959,2318 L547.692871,2318 L547.692871,2283.32031 L566.82959,2283.32031 L566.82959,2288.23926 Z M573.702637,2318 L573.702637,2283.32031 L580.97998,2283.32031 C584.285301,2283.32031 586.932059,2283.62941 588.920325,2284.24762 L589.245605,2284.35352 C591.41684,2285.02735 593.385896,2286.17284 595.152832,2287.79004 C598.731626,2291.05438 600.520996,2295.34437 600.520996,2300.66016 C600.520996,2305.99091 598.656757,2310.30337 594.928223,2313.59766 C593.056469,2315.2448 591.0949,2316.3903 589.043457,2317.03418 C587.126781,2317.67806 584.409035,2318 580.890137,2318 L573.702637,2318 Z M578.936035,2313.08105 L581.294434,2313.08105 C583.645357,2313.08105 585.599439,2312.83399 587.156738,2312.33984 C588.714038,2311.81575 590.121576,2310.98471 591.379395,2309.84668 C593.954928,2307.49576 595.242676,2304.43361 595.242676,2300.66016 C595.242676,2296.85675 593.969902,2293.77215 591.424316,2291.40625 C589.133289,2289.29491 585.756695,2288.23926 581.294434,2288.23926 L578.936035,2288.23926 L578.936035,2313.08105 Z M641.669434,2309.57715 L626.822754,2309.57715 L622.959473,2318 L617.321777,2318 L634.481934,2281.1416 L651.035645,2318 L645.308105,2318 L641.669434,2309.57715 Z M639.535645,2304.6582 L634.39209,2292.86621 L629.001465,2304.6582 L639.535645,2304.6582 Z M655.370605,2318 L655.370605,2280.96191 L680.661621,2307.4209 L680.661621,2283.32031 L685.89502,2283.32031 L685.89502,2320.11133 L660.604004,2293.71973 L660.604004,2318 L655.370605,2318 Z M694.205566,2318 L694.205566,2283.32031 L701.48291,2283.32031 C704.788231,2283.32031 707.434989,2283.62941 709.423255,2284.24762 L709.748535,2284.35352 C711.91977,2285.02735 713.888826,2286.17284 715.655762,2287.79004 C719.234556,2291.05438 721.023926,2295.34437 721.023926,2300.66016 C721.023926,2305.99091 719.159687,2310.30337 715.431152,2313.59766 C713.559398,2315.2448 711.597829,2316.3903 709.546387,2317.03418 C707.62971,2317.67806 704.911964,2318 701.393066,2318 L694.205566,2318 Z M699.438965,2313.08105 L701.797363,2313.08105 C704.148286,2313.08105 706.102369,2312.83399 707.659668,2312.33984 C709.216967,2311.81575 710.624505,2310.98471 711.882324,2309.84668 C714.457858,2307.49576 715.745605,2304.43361 715.745605,2300.66016 C715.745605,2296.85675 714.472832,2293.77215 711.927246,2291.40625 C709.636219,2289.29491 706.259625,2288.23926 701.797363,2288.23926 L699.438965,2288.23926 L699.438965,2313.08105 Z M762.172363,2309.57715 L747.325684,2309.57715 L743.462402,2318 L737.824707,2318 L754.984863,2281.1416 L771.538574,2318 L765.811035,2318 L762.172363,2309.57715 Z M760.038574,2304.6582 L754.89502,2292.86621 L749.504395,2304.6582 L760.038574,2304.6582 Z M779.781738,2283.32031 L779.781738,2304.20898 C779.781738,2307.18882 780.268387,2309.36751 781.241699,2310.74512 C782.69418,2312.73666 784.738105,2313.73242 787.373535,2313.73242 C790.023939,2313.73242 792.075351,2312.73666 793.527832,2310.74512 C794.501144,2309.41243 794.987793,2307.23374 794.987793,2304.20898 L794.987793,2283.32031 L800.221191,2283.32031 L800.221191,2305.64648 C800.221191,2309.30015 799.083182,2312.30988 796.807129,2314.67578 C794.246569,2317.31121 791.102069,2318.62891 787.373535,2318.62891 C783.645001,2318.62891 780.507988,2317.31121 777.962402,2314.67578 C775.686349,2312.30988 774.54834,2309.30015 774.54834,2305.64648 L774.54834,2283.32031 L779.781738,2283.32031 Z M826.365723,2299.94141 L840.695801,2299.94141 L840.695801,2301.08691 C840.695801,2303.6924 840.388838,2305.99836 839.774902,2308.00488 C839.175941,2309.86166 838.165209,2311.59862 836.742676,2313.21582 C833.523259,2316.83954 829.427922,2318.65137 824.456543,2318.65137 C819.604956,2318.65137 815.449724,2316.89943 811.990723,2313.39551 C808.531721,2309.87661 806.802246,2305.654 806.802246,2300.72754 C806.802246,2295.69626 808.561669,2291.42873 812.080566,2287.9248 C815.599464,2284.40591 819.881973,2282.64648 824.928223,2282.64648 C827.638523,2282.64648 830.169096,2283.20052 832.52002,2284.30859 C834.766125,2285.41667 836.974761,2287.21353 839.145996,2289.69922 L835.41748,2293.27051 C832.572414,2289.48208 829.105977,2287.58789 825.018066,2287.58789 C821.349428,2287.58789 818.272311,2288.85318 815.786621,2291.38379 C813.300932,2293.86948 812.058105,2296.98403 812.058105,2300.72754 C812.058105,2304.59084 813.443183,2307.77277 816.213379,2310.27344 C818.803887,2312.59441 821.611476,2313.75488 824.63623,2313.75488 C827.211764,2313.75488 829.525218,2312.8864 831.57666,2311.14941 C833.628103,2309.39745 834.773599,2307.30112 835.013184,2304.86035 L826.365723,2304.86035 L826.365723,2299.94141 Z M846.063965,2318 L853.36377,2280.71484 L865.268066,2307.66797 L877.599121,2280.71484 L884.157715,2318 L878.789551,2318 L875.442871,2297.06641 L865.178223,2319.59473 L855.205566,2297.04395 L851.477051,2318 L846.063965,2318 Z M910.63916,2288.23926 L896.73584,2288.23926 L896.73584,2296.57227 L910.234863,2296.57227 L910.234863,2301.49121 L896.73584,2301.49121 L896.73584,2313.08105 L910.63916,2313.08105 L910.63916,2318 L891.502441,2318 L891.502441,2283.32031 L910.63916,2283.32031 L910.63916,2288.23926 Z M917.512207,2318 L917.512207,2280.96191 L942.803223,2307.4209 L942.803223,2283.32031 L948.036621,2283.32031 L948.036621,2320.11133 L922.745605,2293.71973 L922.745605,2318 L917.512207,2318 Z M965.915527,2288.23926 L965.915527,2318 L960.682129,2318 L960.682129,2288.23926 L952.708496,2288.23926 L952.708496,2283.32031 L973.866699,2283.32031 L973.866699,2288.23926 L965.915527,2288.23926 Z M997.675293,2288.23926 L983.771973,2288.23926 L983.771973,2296.57227 L997.270996,2296.57227 L997.270996,2301.49121 L983.771973,2301.49121 L983.771973,2313.08105 L997.675293,2313.08105 L997.675293,2318 L978.538574,2318 L978.538574,2283.32031 L997.675293,2283.32031 L997.675293,2288.23926 Z M1004.54834,2318 L1004.54834,2283.32031 L1011.82568,2283.32031 C1015.131,2283.32031 1017.77776,2283.62941 1019.76603,2284.24762 L1020.09131,2284.35352 C1022.26254,2285.02735 1024.2316,2286.17284 1025.99854,2287.79004 C1029.57733,2291.05438 1031.3667,2295.34437 1031.3667,2300.66016 C1031.3667,2305.99091 1029.50246,2310.30337 1025.77393,2313.59766 C1023.90217,2315.2448 1021.9406,2316.3903 1019.88916,2317.03418 C1017.97248,2317.67806 1015.25474,2318 1011.73584,2318 L1004.54834,2318 Z M1009.78174,2313.08105 L1012.14014,2313.08105 C1014.49106,2313.08105 1016.44514,2312.83399 1018.00244,2312.33984 C1019.55974,2311.81575 1020.96728,2310.98471 1022.2251,2309.84668 C1024.80063,2307.49576 1026.08838,2304.43361 1026.08838,2300.66016 C1026.08838,2296.85675 1024.81561,2293.77215 1022.27002,2291.40625 C1019.97899,2289.29491 1016.6024,2288.23926 1012.14014,2288.23926 L1009.78174,2288.23926 L1009.78174,2313.08105 Z M1071.27979,2288.23926 L1057.37646,2288.23926 L1057.37646,2296.57227 L1070.87549,2296.57227 L1070.87549,2301.49121 L1057.37646,2301.49121 L1057.37646,2313.08105 L1071.27979,2313.08105 L1071.27979,2318 L1052.14307,2318 L1052.14307,2283.32031 L1071.27979,2283.32031 L1071.27979,2288.23926 Z M1078.15283,2318 L1078.15283,2283.32031 L1085.43018,2283.32031 C1088.7355,2283.32031 1091.38225,2283.62941 1093.37052,2284.24762 L1093.6958,2284.35352 C1095.86704,2285.02735 1097.83609,2286.17284 1099.60303,2287.79004 C1103.18182,2291.05438 1104.97119,2295.34437 1104.97119,2300.66016 C1104.97119,2305.99091 1103.10695,2310.30337 1099.37842,2313.59766 C1097.50666,2315.2448 1095.54509,2316.3903 1093.49365,2317.03418 C1091.57698,2317.67806 1088.85923,2318 1085.34033,2318 L1078.15283,2318 Z M1083.38623,2313.08105 L1085.74463,2313.08105 C1088.09555,2313.08105 1090.04963,2312.83399 1091.60693,2312.33984 C1093.16423,2311.81575 1094.57177,2310.98471 1095.82959,2309.84668 C1098.40512,2307.49576 1099.69287,2304.43361 1099.69287,2300.66016 C1099.69287,2296.85675 1098.4201,2293.77215 1095.87451,2291.40625 C1093.58348,2289.29491 1090.20689,2288.23926 1085.74463,2288.23926 L1083.38623,2288.23926 L1083.38623,2313.08105 Z M1116.78564,2283.32031 L1116.78564,2318 L1111.55225,2318 L1111.55225,2283.32031 L1116.78564,2283.32031 Z M1134.68701,2288.23926 L1134.68701,2318 L1129.45361,2318 L1129.45361,2288.23926 L1121.47998,2288.23926 L1121.47998,2283.32031 L1142.63818,2283.32031 L1142.63818,2288.23926 L1134.68701,2288.23926 Z M1152.54346,2283.32031 L1152.54346,2318 L1147.31006,2318 L1147.31006,2283.32031 L1152.54346,2283.32031 Z M1159.14697,2300.50293 C1159.14697,2295.62139 1160.93634,2291.42873 1164.51514,2287.9248 C1168.07896,2284.42088 1172.36147,2282.66895 1177.36279,2282.66895 C1182.30422,2282.66895 1186.54181,2284.43585 1190.07568,2287.96973 C1193.62453,2291.5036 1195.39893,2295.74867 1195.39893,2300.70508 C1195.39893,2305.69143 1193.61704,2309.92153 1190.05322,2313.39551 C1186.47443,2316.88446 1182.15448,2318.62891 1177.09326,2318.62891 C1172.61603,2318.62891 1168.59556,2317.07912 1165.03174,2313.97949 C1161.10854,2310.55044 1159.14697,2306.0583 1159.14697,2300.50293 Z M1164.42529,2300.57031 C1164.42529,2304.40366 1165.71304,2307.55565 1168.28857,2310.02637 C1170.84913,2312.49708 1173.80646,2313.73242 1177.16064,2313.73242 C1180.79933,2313.73242 1183.86897,2312.47462 1186.36963,2309.95898 C1188.87029,2307.4134 1190.12061,2304.31382 1190.12061,2300.66016 C1190.12061,2296.96157 1188.88527,2293.86199 1186.41455,2291.36133 C1183.95881,2288.84569 1180.91913,2287.58789 1177.29541,2287.58789 C1173.68667,2287.58789 1170.6395,2288.84569 1168.15381,2291.36133 C1165.66812,2293.84702 1164.42529,2296.91665 1164.42529,2300.57031 Z M1201.97998,2318 L1201.97998,2280.96191 L1227.271,2307.4209 L1227.271,2283.32031 L1232.50439,2283.32031 L1232.50439,2320.11133 L1207.21338,2293.71973 L1207.21338,2318 L1201.97998,2318 Z" id="REVISEDANDAUGMENTEDEDITION" fill="#FFFFFF" fill-rule="nonzero"></path>
    </g>
</svg>
