<?xml version="1.0" encoding="UTF-8"?>
<svg width="1200px" height="790px" viewBox="0 0 1200 790" version="1.1" xmlns="http://www.w3.org/2000/svg" xmlns:xlink="http://www.w3.org/1999/xlink">
    <!-- Generator: Sketch 58 (84663) - https://sketch.com -->
    <title>ESPwebsite integrations3</title>
    <desc>Created with Sketch.</desc>
    <defs>
        <linearGradient x1="50%" y1="0%" x2="50%" y2="100%" id="bountiesESLinearGradient1">
            <stop stop-color="#8400DB" offset="0%"></stop>
            <stop stop-color="#4D00B4" offset="100%"></stop>
        </linearGradient>
        <linearGradient x1="0%" y1="49.9999777%" x2="100.000024%" y2="49.9999777%" id="bountiesESLinearGradient2">
            <stop stop-color="#A3A2A5" offset="0%"></stop>
            <stop stop-color="#9F9EA0" offset="27.05%"></stop>
            <stop stop-color="#929194" offset="56.07%"></stop>
            <stop stop-color="#7C7C80" offset="85.92%"></stop>
            <stop stop-color="#707073" offset="100%"></stop>
        </linearGradient>
        <linearGradient x1="-0.661193461%" y1="79.9148322%" x2="70.3915924%" y2="24.2689758%" id="bountiesESLinearGradient3">
            <stop stop-color="#969598" offset="0%"></stop>
            <stop stop-color="#908F92" offset="33.96%"></stop>
            <stop stop-color="#7F7F82" offset="79.17%"></stop>
            <stop stop-color="#757578" offset="100%"></stop>
        </linearGradient>
        <linearGradient x1="6.06021085%" y1="-2.83492963%" x2="50.00952%" y2="85.0511445%" id="bountiesESLinearGradient4">
            <stop stop-color="#9E9EA0" offset="0%"></stop>
            <stop stop-color="#9B9B9D" offset="27.59%"></stop>
            <stop stop-color="#919194" offset="49.4%"></stop>
            <stop stop-color="#808083" offset="69.23%"></stop>
            <stop stop-color="#69696D" offset="87.77%"></stop>
            <stop stop-color="#55565A" offset="100%"></stop>
        </linearGradient>
    </defs>
    <g id="ESPwebsite-integrations3" stroke="none" stroke-width="1" fill="none" fill-rule="evenodd">
        <circle id="Oval" stroke="#9013FE" stroke-width="6" cx="312.5" cy="395.5" r="247.5"></circle>
        <circle id="Oval" fill="url(#bountiesESLinearGradient1)" cx="312.5" cy="395.5" r="244.5"></circle>
        <g id="Group-2" transform="translate(758.000000, 261.000000)">
            <circle id="Oval" fill="#FFFFFF" cx="135" cy="135" r="135"></circle>
            <g id="kleros-symbol" transform="translate(51.000000, 60.000000)" fill-rule="nonzero">
                <polygon id="Path" fill="#45464D" opacity="0.7" points="133.381411 3.77718897 49.0824928 0 0 61.5574073 34.3923467 143.824633 119.534475 149 168 79.7930126"></polygon>
                <g id="Group">
                    <polygon id="Path" fill="#656569" points="167.847575 79.7154168 119.890532 30.9128112 107.277449 124.531491"></polygon>
                    <polygon id="Path" fill="url(#bountiesESLinearGradient2)" points="32.7506551 68.7388056 119.890532 30.9128112 107.277449 124.531491"></polygon>
                    <polygon id="Path" fill="url(#bountiesESLinearGradient3)" points="119.890532 30.9128112 49.0898492 0.0698111888 32.7506551 68.7388056"></polygon>
                    <polygon id="Path" fill="url(#bountiesESLinearGradient4)" points="32.7506551 68.7388056 34.4194413 143.629331 107.277449 124.531491"></polygon>
                    <polygon id="Path" fill="#757578" points="119.890532 30.9128112 133.275501 3.84003217 49.0898492 0.0698111888"></polygon>
                    <polygon id="Path" fill="#6C6D70" points="133.275501 3.84003217 167.847575 79.7154168 119.890532 30.9128112"></polygon>
                    <polygon id="Path" fill="#6C6D70" points="167.847575 79.7154168 119.447169 148.794734 107.277449 124.531491"></polygon>
                    <polygon id="Path" fill="#55565A" points="119.447169 148.794734 34.4194413 143.629331 107.277449 124.531491"></polygon>
                    <polygon id="Path" fill="#55565A" points="49.0898492 0.0698111888 0.0733053152 61.5134517 32.7506551 68.7388056"></polygon>
                    <polygon id="Path" fill="#656569" points="0.0733053152 61.5134517 34.4194413 143.629331 32.7506551 68.7388056"></polygon>
                    <polygon id="Path" fill="#151A22" opacity="0.7" points="110.972618 43.8064168 102.140262 110.92206 50.0835204 70.5143021"></polygon>
                    <polygon id="Path" fill="#151A22" opacity="0.7" points="103.923263 30.4235077 55.2628628 9.38866713 45.0412361 53.614993"></polygon>
                    <polygon id="Path" fill="#23262E" opacity="0.7" points="91.5896959 121.089695 38.7052064 83.1778434 39.9842077 134.550126"></polygon>
                    <polygon id="Path" fill="#23262E" opacity="0.7" points="158.961642 79.5478699 122.923461 42.8348951 113.411214 113.432971"></polygon>
                    <polygon id="Path" fill="#43444B" opacity="0.7" points="103.988885 129.346796 111.838368 144.42247 59.3874808 141.050694"></polygon>
                    <polygon id="Path" fill="#34363D" opacity="0.7" points="151.918517 96.2048196 112.876895 125.404027 120.634591 140.624533"></polygon>
                    <polygon id="Path" fill="#34363D" opacity="0.7" points="133.451392 14.4413301 154.093795 58.8747972 125.868756 30.0698671"></polygon>
                    <polygon id="Path" fill="#36383F" opacity="0.7" points="124.003728 6.96236364 115.323797 22.8964028 74.4391595 4.94284056"></polygon>
                    <polygon id="Path" fill="#3B3C43" opacity="0.7" points="42.1401731 14.1900098 30.6345612 63.136614 7.42335723 58.2006503"></polygon>
                    <polygon id="Path" fill="#45464D" opacity="0.7" points="29.2346996 71.7694448 30.2474759 124.369779 5.91177256 66.8122252"></polygon>
                </g>
            </g>
        </g>
        <path d="M893.5,585 C998.15796,585 1083,500.15796 1083,395.5 C1083,290.84204 998.15796,206 893.5,206 C788.84204,206 704,290.84204 704,395.5 C704,500.15796 788.84204,585 893.5,585 Z M893.5,583 C789.946609,583 706,499.053391 706,395.5 C706,291.946609 789.946609,208 893.5,208 C997.053391,208 1081,291.946609 1081,395.5 C1081,499.053391 997.053391,583 893.5,583 Z" id="Oval" fill="#9013FE" fill-rule="nonzero"></path>
        <path d="M893.5,632 C1024.11534,632 1130,526.115343 1130,395.5 C1130,264.884657 1024.11534,159 893.5,159 C762.884657,159 657,264.884657 657,395.5 C657,526.115343 762.884657,632 893.5,632 Z M893.5,630 C763.989226,630 659,525.010774 659,395.5 C659,265.989226 763.989226,161 893.5,161 C1023.01077,161 1128,265.989226 1128,395.5 C1128,525.010774 1023.01077,630 893.5,630 Z" id="Oval" fill="#9013FE" fill-rule="nonzero"></path>
        <g id="laptop-code-solid" transform="translate(267.000000, 235.000000)" fill="#9013FE" fill-rule="nonzero">
            <path d="M35.6807161,36.337946 C36.5413859,37.2206847 37.9363596,37.2206847 38.7970295,36.337946 L40.3544976,34.7405421 C41.2151675,33.8578034 41.2151675,32.4270606 40.3544976,31.5443219 L35.4355973,26.5007062 L40.3531205,21.4556781 C41.2137904,20.5729394 41.2137904,19.1421966 40.3531205,18.2594579 L38.7956524,16.662054 C37.9349825,15.7793153 36.5400089,15.7793153 35.679339,16.662054 L27.6455024,24.9018899 C26.7848325,25.7846286 26.7848325,27.2153714 27.6455024,28.0981101 L35.6807161,36.337946 L35.6807161,36.337946 Z M49.6455659,35.7405421 L51.2031873,37.337946 C52.0639418,38.2206847 53.4590527,38.2206847 54.3198072,37.337946 L62.3544341,29.0981101 C63.2151886,28.2153714 63.2151886,26.7846286 62.3544341,25.9018899 L54.3198072,17.662054 C53.4590527,16.7793153 52.0639418,16.7793153 51.2031873,17.662054 L49.6455659,19.2594579 C48.7848114,20.1421966 48.7848114,21.5729394 49.6455659,22.4556781 L54.5635729,27.4992938 L49.6455659,32.5443219 C48.7848114,33.4270606 48.7848114,34.8578034 49.6455659,35.7405421 L49.6455659,35.7405421 Z M87.75,59 L53.6540625,59 C53.55,61.6826042 51.5854688,63.3333333 49.05,63.3333333 L40.5,63.3333333 C37.8717187,63.3333333 35.8565625,60.9676042 35.8917188,59 L2.25,59 C1.0125,59 0,59.975 0,61.1666667 L0,63.3333333 C0,68.1 4.05,72 9,72 L81,72 C85.95,72 90,68.1 90,63.3333333 L90,61.1666667 C90,59.975 88.9875,59 87.75,59 Z M81,6.75 C81,3.0375 77.9625,0 74.25,0 L15.75,0 C12.0375,0 9,3.0375 9,6.75 L9,54 L81,54 L81,6.75 Z M72,45 L18,45 L18,9 L72,9 L72,45 Z" id="Shape"></path>
        </g>
        <circle id="Oval" fill="#9013FE" cx="1017.5" cy="196.5" r="10.5"></circle>
        <circle id="Oval" fill="#9013FE" cx="705.5" cy="384.5" r="10.5"></circle>
        <circle id="Oval" fill="#9013FE" cx="996.5" cy="554.5" r="10.5"></circle>
        <polygon id="Path-17" fill="#FFFFFF" fill-rule="nonzero" points="895.461373 48 896.144 83.028 906.142645 82.8330646 894.612925 107.0625 882.147209 83.3010622 892.145 83.106 891.538627 52 314 52 314 107.0625 310 107.0625 310 48"></polygon>
        <polygon id="Path-17" fill="#FFFFFF" fill-rule="nonzero" transform="translate(608.071323, 702.531250) scale(-1, -1) translate(-608.071323, -702.531250) " points="895.461373 673 896.144 708.028 906.142645 707.833065 894.612925 732.0625 882.147209 708.301062 892.145 708.106 891.538627 677 314 677 314 732.0625 310 732.0625 310 673"></polygon>
        <path d="M522.976,118.664 L522.976,97.064 L528.352,97.064 C530.208009,97.064 531.767994,97.3279974 533.032,97.856 C534.296006,98.3840026 535.311996,99.143995 536.08,100.136 C536.848004,101.128005 537.399998,102.319993 537.736,103.712 C538.072002,105.104007 538.24,106.663991 538.24,108.392 C538.24,110.280009 538.000002,111.879993 537.52,113.192 C537.039998,114.504007 536.400004,115.567996 535.6,116.384 C534.799996,117.200004 533.888005,117.783998 532.864,118.136 C531.839995,118.488002 530.784005,118.664 529.696,118.664 L522.976,118.664 Z M515.44,90.728 L515.44,125 L530.224,125 C532.848013,125 535.12799,124.560004 537.064,123.68 C539.00001,122.799996 540.615994,121.592008 541.912,120.056 C543.208006,118.519992 544.175997,116.696011 544.816,114.584 C545.456003,112.471989 545.776,110.168012 545.776,107.672 C545.776,104.823986 545.384004,102.344011 544.6,100.232 C543.815996,98.1199894 542.728007,96.360007 541.336,94.952 C539.943993,93.543993 538.29601,92.4880035 536.392,91.784 C534.48799,91.0799965 532.432011,90.728 530.224,90.728 L515.44,90.728 Z M557.296,96.344 L557.296,90.728 L550.48,90.728 L550.48,96.344 L557.296,96.344 Z M550.48,100.184 L550.48,125 L557.296,125 L557.296,100.184 L550.48,100.184 Z M567.952,116.936 L561.472,116.936 C561.536,118.600008 561.911997,119.983994 562.6,121.088 C563.288003,122.192006 564.167995,123.079997 565.24,123.752 C566.312005,124.424003 567.535993,124.903999 568.912,125.192 C570.288007,125.480001 571.695993,125.624 573.136,125.624 C574.544007,125.624 575.927993,125.488001 577.288,125.216 C578.648007,124.943999 579.855995,124.472003 580.912,123.8 C581.968005,123.127997 582.823997,122.240006 583.48,121.136 C584.136003,120.031994 584.464,118.664008 584.464,117.032 C584.464,115.879994 584.240002,114.912004 583.792,114.128 C583.343998,113.343996 582.752004,112.688003 582.016,112.16 C581.279996,111.631997 580.440005,111.208002 579.496,110.888 C578.551995,110.567998 577.584005,110.296001 576.592,110.072 C575.631995,109.847999 574.688005,109.640001 573.76,109.448 C572.831995,109.255999 572.008004,109.040001 571.288,108.8 C570.567996,108.559999 569.984002,108.248002 569.536,107.864 C569.087998,107.479998 568.864,106.984003 568.864,106.376 C568.864,105.863997 568.991999,105.456002 569.248,105.152 C569.504001,104.847998 569.815998,104.616001 570.184,104.456 C570.552002,104.295999 570.959998,104.192 571.408,104.144 C571.856002,104.096 572.271998,104.072 572.656,104.072 C573.872006,104.072 574.927996,104.303998 575.824,104.768 C576.720004,105.232002 577.216,106.119993 577.312,107.432 L583.792,107.432 C583.663999,105.895992 583.272003,104.624005 582.616,103.616 C581.959997,102.607995 581.136005,101.800003 580.144,101.192 C579.151995,100.583997 578.024006,100.152001 576.76,99.896 C575.495994,99.6399987 574.192007,99.512 572.848,99.512 C571.503993,99.512 570.192006,99.6319988 568.912,99.872 C567.631994,100.112001 566.480005,100.527997 565.456,101.12 C564.431995,101.712003 563.608003,102.519995 562.984,103.544 C562.359997,104.568005 562.048,105.879992 562.048,107.48 C562.048,108.568005 562.271998,109.487996 562.72,110.24 C563.168002,110.992004 563.759996,111.615998 564.496,112.112 C565.232004,112.608002 566.071995,113.007998 567.016,113.312 C567.960005,113.616002 568.927995,113.879999 569.92,114.104 C572.352012,114.616003 574.247993,115.127997 575.608,115.64 C576.968007,116.152003 577.648,116.919995 577.648,117.944 C577.648,118.552003 577.504001,119.055998 577.216,119.456 C576.927999,119.856002 576.568002,120.175999 576.136,120.416 C575.703998,120.656001 575.224003,120.831999 574.696,120.944 C574.167997,121.056001 573.664002,121.112 573.184,121.112 C572.511997,121.112 571.864003,121.032001 571.24,120.872 C570.615997,120.711999 570.064002,120.464002 569.584,120.128 C569.103998,119.791998 568.712002,119.360003 568.408,118.832 C568.103998,118.303997 567.952,117.672004 567.952,116.936 Z M600.976,120.536 C599.887995,120.536 598.960004,120.312002 598.192,119.864 C597.423996,119.415998 596.808002,118.832004 596.344,118.112 C595.879998,117.391996 595.544001,116.552005 595.336,115.592 C595.127999,114.631995 595.024,113.656005 595.024,112.664 C595.024,111.639995 595.119999,110.648 595.312,109.688 C595.504001,108.727995 595.831998,107.880004 596.296,107.144 C596.760002,106.407996 597.367996,105.808002 598.12,105.344 C598.872004,104.879998 599.807994,104.648 600.928,104.648 C602.016005,104.648 602.935996,104.879998 603.688,105.344 C604.440004,105.808002 605.055998,106.415996 605.536,107.168 C606.016002,107.920004 606.359999,108.775995 606.568,109.736 C606.776001,110.696005 606.88,111.671995 606.88,112.664 C606.88,113.656005 606.784001,114.631995 606.592,115.592 C606.399999,116.552005 606.072002,117.391996 605.608,118.112 C605.143998,118.832004 604.536004,119.415998 603.784,119.864 C603.031996,120.312002 602.096006,120.536 600.976,120.536 Z M588.448,100.184 L588.448,133.688 L595.264,133.688 L595.264,121.928 L595.36,121.928 C596.192004,123.144006 597.255994,124.063997 598.552,124.688 C599.848006,125.312003 601.263992,125.624 602.8,125.624 C604.624009,125.624 606.215993,125.272004 607.576,124.568 C608.936007,123.863996 610.071995,122.920006 610.984,121.736 C611.896005,120.551994 612.575998,119.192008 613.024,117.656 C613.472002,116.119992 613.696,114.520008 613.696,112.856 C613.696,111.095991 613.472002,109.408008 613.024,107.792 C612.575998,106.175992 611.888005,104.760006 610.96,103.544 C610.031995,102.327994 608.864007,101.352004 607.456,100.616 C606.047993,99.8799963 604.36801,99.512 602.416,99.512 C600.879992,99.512 599.472006,99.815997 598.192,100.424 C596.911994,101.032003 595.856004,102.007993 595.024,103.352 L594.928,103.352 L594.928,100.184 L588.448,100.184 Z M641.056,125 L641.056,100.184 L634.24,100.184 L634.24,113.192 C634.24,115.720013 633.824004,117.535994 632.992,118.64 C632.159996,119.744006 630.816009,120.296 628.96,120.296 C627.327992,120.296 626.192003,119.792005 625.552,118.784 C624.911997,117.775995 624.592,116.24801 624.592,114.2 L624.592,100.184 L617.776,100.184 L617.776,115.448 C617.776,116.984008 617.911999,118.383994 618.184,119.648 C618.456001,120.912006 618.927997,121.983996 619.6,122.864 C620.272003,123.744004 621.191994,124.423998 622.36,124.904 C623.528006,125.384002 625.023991,125.624 626.848,125.624 C628.288007,125.624 629.695993,125.304003 631.072,124.664 C632.448007,124.023997 633.567996,122.984007 634.432,121.544 L634.576,121.544 L634.576,125 L641.056,125 Z M654.88,100.184 L654.88,92.744 L648.064,92.744 L648.064,100.184 L643.936,100.184 L643.936,104.744 L648.064,104.744 L648.064,119.384 C648.064,120.632006 648.271998,121.639996 648.688,122.408 C649.104002,123.176004 649.671996,123.767998 650.392,124.184 C651.112004,124.600002 651.943995,124.879999 652.888,125.024 C653.832005,125.168001 654.831995,125.24 655.888,125.24 C656.560003,125.24 657.247996,125.224 657.952,125.192 C658.656004,125.16 659.295997,125.096 659.872,125 L659.872,119.72 C659.551998,119.784 659.216002,119.832 658.864,119.864 C658.511998,119.896 658.144002,119.912 657.76,119.912 C656.607994,119.912 655.840002,119.720002 655.456,119.336 C655.071998,118.951998 654.88,118.184006 654.88,117.032 L654.88,104.744 L659.872,104.744 L659.872,100.184 L654.88,100.184 Z M662.848,107.816 C662.944,106.215992 663.343996,104.888005 664.048,103.832 C664.752004,102.775995 665.647995,101.928003 666.736,101.288 C667.824005,100.647997 669.047993,100.192001 670.408,99.92 C671.768007,99.6479986 673.135993,99.512 674.512,99.512 C675.760006,99.512 677.023994,99.5999991 678.304,99.776 C679.584006,99.9520009 680.751995,100.295997 681.808,100.808 C682.864005,101.320003 683.727997,102.031995 684.4,102.944 C685.072003,103.856005 685.408,105.063992 685.408,106.568 L685.408,119.48 C685.408,120.600006 685.471999,121.671995 685.6,122.696 C685.728001,123.720005 685.951998,124.487997 686.272,125 L679.36,125 C679.231999,124.615998 679.128,124.224002 679.048,123.824 C678.968,123.423998 678.912,123.016002 678.88,122.6 C677.791995,123.720006 676.512007,124.503998 675.04,124.952 C673.567993,125.400002 672.064008,125.624 670.528,125.624 C669.343994,125.624 668.240005,125.480001 667.216,125.192 C666.191995,124.903999 665.296004,124.456003 664.528,123.848 C663.759996,123.239997 663.160002,122.472005 662.728,121.544 C662.295998,120.615995 662.08,119.512 662.08,118.232 C662.08,116.823993 662.327998,115.664005 662.824,114.752 C663.320002,113.839995 663.959996,113.112003 664.744,112.568 C665.528004,112.023997 666.423995,111.616001 667.432,111.344 C668.440005,111.071999 669.455995,110.856001 670.48,110.696 C671.248004,110.575999 672.006999,110.474 672.756999,110.39 L673.504,110.312 C674.496005,110.216 675.375996,110.072001 676.144,109.88 C676.912004,109.687999 677.519998,109.408002 677.968,109.04 C678.375275,108.705453 678.584199,108.232069 678.594777,107.619835 L678.592,107.432 C678.592,106.695996 678.472001,106.112002 678.232,105.68 C677.991999,105.247998 677.672002,104.912001 677.272,104.672 C676.871998,104.431999 676.408003,104.272 675.88,104.192 C675.351997,104.112 674.784003,104.072 674.176,104.072 C672.831993,104.072 671.776004,104.359997 671.008,104.936 C670.239996,105.512 669.792001,106.471993 669.664,107.816 L662.848,107.816 Z M678.592,112.856 C678.303999,113.112001 677.944002,113.311999 677.512,113.456 C677.079998,113.600001 676.616002,113.72 676.12,113.816 C675.789332,113.88 675.448,113.936889 675.096001,113.986667 L674.56,114.056 C674.015997,114.12 673.472003,114.2 672.928,114.296 C672.415997,114.392 671.912002,114.519999 671.416,114.68 C670.919998,114.840001 670.488002,115.055999 670.12,115.328 C669.751998,115.600001 669.456001,115.943998 669.232,116.36 C669.007999,116.776002 668.896,117.303997 668.896,117.944 C668.896,118.552003 669.007999,119.063998 669.232,119.48 C669.456001,119.896002 669.759998,120.223999 670.144,120.464 C670.528002,120.704001 670.975997,120.872 671.488,120.968 C672.000003,121.064 672.527997,121.112 673.072,121.112 C674.416007,121.112 675.455996,120.888002 676.192,120.44 C676.928004,119.991998 677.471998,119.456003 677.824,118.832 C678.176002,118.207997 678.392,117.576003 678.472,116.936 L678.530776,116.418774 C678.571592,116.013877 678.592,115.674287 678.592,115.4 L678.592,112.856 Z M695.968,116.936 C695.968,117.672004 696.119998,118.303997 696.424,118.832 C696.728002,119.360003 697.119998,119.791998 697.6,120.128 C698.080002,120.464002 698.631997,120.711999 699.256,120.872 C699.880003,121.032001 700.527997,121.112 701.2,121.112 C701.680002,121.112 702.183997,121.056001 702.712,120.944 C703.240003,120.831999 703.719998,120.656001 704.152,120.416 C704.584002,120.175999 704.943999,119.856002 705.232,119.456 C705.520001,119.055998 705.664,118.552003 705.664,117.944 C705.664,116.919995 704.984007,116.152003 703.624,115.64 C702.263993,115.127997 700.368012,114.616003 697.936,114.104 C696.943995,113.879999 695.976005,113.616002 695.032,113.312 C694.087995,113.007998 693.248004,112.608002 692.512,112.112 C691.775996,111.615998 691.184002,110.992004 690.736,110.24 C690.287998,109.487996 690.064,108.568005 690.064,107.48 C690.064,105.879992 690.375997,104.568005 691,103.544 C691.624003,102.519995 692.447995,101.712003 693.472,101.12 C694.496005,100.527997 695.647994,100.112001 696.928,99.872 C698.208006,99.6319988 699.519993,99.512 700.864,99.512 C702.208007,99.512 703.511994,99.6399987 704.776,99.896 C706.040006,100.152001 707.167995,100.583997 708.16,101.192 C709.152005,101.800003 709.975997,102.607995 710.632,103.616 C711.288003,104.624005 711.679999,105.895992 711.808,107.432 L705.328,107.432 C705.232,106.119993 704.736004,105.232002 703.84,104.768 C702.943996,104.303998 701.888006,104.072 700.672,104.072 C700.287998,104.072 699.872002,104.096 699.424,104.144 C698.975998,104.192 698.568002,104.295999 698.2,104.456 C697.831998,104.616001 697.520001,104.847998 697.264,105.152 C697.007999,105.456002 696.88,105.863997 696.88,106.376 C696.88,106.984003 697.103998,107.479998 697.552,107.864 C698.000002,108.248002 698.583996,108.559999 699.304,108.8 C700.024004,109.040001 700.847995,109.255999 701.776,109.448 C702.704005,109.640001 703.647995,109.847999 704.608,110.072 C705.600005,110.296001 706.567995,110.567998 707.512,110.888 C708.456005,111.208002 709.295996,111.631997 710.032,112.16 C710.768004,112.688003 711.359998,113.343996 711.808,114.128 C712.256002,114.912004 712.48,115.879994 712.48,117.032 C712.48,118.664008 712.152003,120.031994 711.496,121.136 C710.839997,122.240006 709.984005,123.127997 708.928,123.8 C707.871995,124.472003 706.664007,124.943999 705.304,125.216 C703.943993,125.488001 702.560007,125.624 701.152,125.624 C699.711993,125.624 698.304007,125.480001 696.928,125.192 C695.551993,124.903999 694.328005,124.424003 693.256,123.752 C692.183995,123.079997 691.304003,122.192006 690.616,121.088 C689.927997,119.983994 689.552,118.600008 689.488,116.936 L695.968,116.936 Z" id="Disputas" fill="#FFFFFF" fill-rule="nonzero"></path>
        <path d="M162.024,346.856 L162.024,336.584 L167.88,336.584 C168.744004,336.584 169.575996,336.647999 170.376,336.776 C171.176004,336.904001 171.879997,337.151998 172.488,337.52 C173.096003,337.888002 173.583998,338.407997 173.952,339.08 C174.320002,339.752003 174.504,340.631995 174.504,341.72 C174.504,342.808005 174.320002,343.687997 173.952,344.36 C173.583998,345.032003 173.096003,345.551998 172.488,345.92 C171.879997,346.288002 171.176004,346.535999 170.376,346.664 C169.575996,346.792001 168.744004,346.856 167.88,346.856 L162.024,346.856 Z M154.488,330.728 L154.488,365 L162.024,365 L162.024,352.712 L169.944,352.712 C172.088011,352.712 173.911992,352.400003 175.416,351.776 C176.920008,351.151997 178.143995,350.328005 179.088,349.304 C180.032005,348.279995 180.719998,347.104007 181.152,345.776 C181.584002,344.447993 181.8,343.096007 181.8,341.72 C181.8,340.311993 181.584002,338.952007 181.152,337.64 C180.719998,336.327993 180.032005,335.160005 179.088,334.136 C178.143995,333.111995 176.920008,332.288003 175.416,331.664 C173.911992,331.039997 172.088011,330.728 169.944,330.728 L154.488,330.728 Z M185.976,330.728 L185.976,365 L192.792,365 L192.792,330.728 L185.976,330.728 Z M197.88,347.816 C197.976,346.215992 198.375996,344.888005 199.08,343.832 C199.784004,342.775995 200.679995,341.928003 201.768,341.288 C202.856005,340.647997 204.079993,340.192001 205.44,339.92 C206.800007,339.647999 208.167993,339.512 209.544,339.512 C210.792006,339.512 212.055994,339.599999 213.336,339.776 C214.616006,339.952001 215.783995,340.295997 216.84,340.808 C217.896005,341.320003 218.759997,342.031995 219.432,342.944 C220.104003,343.856005 220.44,345.063992 220.44,346.568 L220.44,359.48 C220.44,360.600006 220.503999,361.671995 220.632,362.696 C220.760001,363.720005 220.983998,364.487997 221.304,365 L214.392,365 C214.263999,364.615998 214.16,364.224002 214.08,363.824 C214,363.423998 213.944,363.016002 213.912,362.6 C212.823995,363.720006 211.544007,364.503998 210.072,364.952 C208.599993,365.400002 207.096008,365.624 205.56,365.624 C204.375994,365.624 203.272005,365.480001 202.248,365.192 C201.223995,364.903999 200.328004,364.456003 199.56,363.848 C198.791996,363.239997 198.192002,362.472005 197.76,361.544 C197.327998,360.615995 197.112,359.512 197.112,358.232 C197.112,356.823993 197.359998,355.664005 197.856,354.752 C198.352002,353.839995 198.991996,353.112003 199.776,352.568 C200.560004,352.023997 201.455995,351.616001 202.464,351.344 C203.472005,351.071999 204.487995,350.856001 205.512,350.696 C206.280004,350.575999 207.038999,350.474 207.788999,350.39 L208.536,350.312 C209.528005,350.216 210.407996,350.072001 211.176,349.88 C211.944004,349.687999 212.551998,349.408002 213,349.04 C213.407275,348.705453 213.616199,348.232069 213.626777,347.619835 L213.624,347.432 C213.624,346.695996 213.504001,346.112002 213.264,345.68 C213.023999,345.247998 212.704002,344.912001 212.304,344.672 C211.903998,344.431999 211.440003,344.272 210.912,344.192 C210.383997,344.112 209.816003,344.072 209.208,344.072 C207.863993,344.072 206.808004,344.359997 206.04,344.936 C205.271996,345.512 204.824001,346.471993 204.696,347.816 L197.88,347.816 Z M213.624,352.856 C213.335999,353.112001 212.976002,353.311999 212.544,353.456 C212.111998,353.600001 211.648002,353.72 211.152,353.816 C210.821332,353.88 210.48,353.936889 210.128001,353.986667 L209.592,354.056 C209.047997,354.12 208.504003,354.2 207.96,354.296 C207.447997,354.392 206.944002,354.519999 206.448,354.68 C205.951998,354.840001 205.520002,355.055999 205.152,355.328 C204.783998,355.600001 204.488001,355.943998 204.264,356.36 C204.039999,356.776002 203.928,357.303997 203.928,357.944 C203.928,358.552003 204.039999,359.063998 204.264,359.48 C204.488001,359.896002 204.791998,360.223999 205.176,360.464 C205.560002,360.704001 206.007997,360.872 206.52,360.968 C207.032003,361.064 207.559997,361.112 208.104,361.112 C209.448007,361.112 210.487996,360.888002 211.224,360.44 C211.960004,359.991998 212.503998,359.456003 212.856,358.832 C213.208002,358.207997 213.424,357.576003 213.504,356.936 L213.562776,356.418774 C213.603592,356.013877 213.624,355.674287 213.624,355.4 L213.624,352.856 Z M234.36,340.184 L234.36,332.744 L227.544,332.744 L227.544,340.184 L223.416,340.184 L223.416,344.744 L227.544,344.744 L227.544,359.384 C227.544,360.632006 227.751998,361.639996 228.168,362.408 C228.584002,363.176004 229.151996,363.767998 229.872,364.184 C230.592004,364.600002 231.423995,364.879999 232.368,365.024 C233.312005,365.168001 234.311995,365.24 235.368,365.24 C236.040003,365.24 236.727996,365.224 237.432,365.192 C238.136004,365.16 238.775997,365.096 239.352,365 L239.352,359.72 C239.031998,359.784 238.696002,359.832 238.344,359.864 C237.991998,359.896 237.624002,359.912 237.24,359.912 C236.087994,359.912 235.320002,359.720002 234.936,359.336 C234.551998,358.951998 234.36,358.184006 234.36,357.032 L234.36,344.744 L239.352,344.744 L239.352,340.184 L234.36,340.184 Z M242.328,347.816 C242.424,346.215992 242.823996,344.888005 243.528,343.832 C244.232004,342.775995 245.127995,341.928003 246.216,341.288 C247.304005,340.647997 248.527993,340.192001 249.888,339.92 C251.248007,339.647999 252.615993,339.512 253.992,339.512 C255.240006,339.512 256.503994,339.599999 257.784,339.776 C259.064006,339.952001 260.231995,340.295997 261.288,340.808 C262.344005,341.320003 263.207997,342.031995 263.88,342.944 C264.552003,343.856005 264.888,345.063992 264.888,346.568 L264.888,359.48 C264.888,360.600006 264.951999,361.671995 265.08,362.696 C265.208001,363.720005 265.431998,364.487997 265.752,365 L258.84,365 C258.711999,364.615998 258.608,364.224002 258.528,363.824 C258.448,363.423998 258.392,363.016002 258.36,362.6 C257.271995,363.720006 255.992007,364.503998 254.52,364.952 C253.047993,365.400002 251.544008,365.624 250.008,365.624 C248.823994,365.624 247.720005,365.480001 246.696,365.192 C245.671995,364.903999 244.776004,364.456003 244.008,363.848 C243.239996,363.239997 242.640002,362.472005 242.208,361.544 C241.775998,360.615995 241.56,359.512 241.56,358.232 C241.56,356.823993 241.807998,355.664005 242.304,354.752 C242.800002,353.839995 243.439996,353.112003 244.224,352.568 C245.008004,352.023997 245.903995,351.616001 246.912,351.344 C247.920005,351.071999 248.935995,350.856001 249.96,350.696 C250.728004,350.575999 251.486999,350.474 252.236999,350.39 L252.984,350.312 C253.976005,350.216 254.855996,350.072001 255.624,349.88 C256.392004,349.687999 256.999998,349.408002 257.448,349.04 C257.855275,348.705453 258.064199,348.232069 258.074777,347.619835 L258.072,347.432 C258.072,346.695996 257.952001,346.112002 257.712,345.68 C257.471999,345.247998 257.152002,344.912001 256.752,344.672 C256.351998,344.431999 255.888003,344.272 255.36,344.192 C254.831997,344.112 254.264003,344.072 253.656,344.072 C252.311993,344.072 251.256004,344.359997 250.488,344.936 C249.719996,345.512 249.272001,346.471993 249.144,347.816 L242.328,347.816 Z M258.072,352.856 C257.783999,353.112001 257.424002,353.311999 256.992,353.456 C256.559998,353.600001 256.096002,353.72 255.6,353.816 C255.269332,353.88 254.928,353.936889 254.576001,353.986667 L254.04,354.056 C253.495997,354.12 252.952003,354.2 252.408,354.296 C251.895997,354.392 251.392002,354.519999 250.896,354.68 C250.399998,354.840001 249.968002,355.055999 249.6,355.328 C249.231998,355.600001 248.936001,355.943998 248.712,356.36 C248.487999,356.776002 248.376,357.303997 248.376,357.944 C248.376,358.552003 248.487999,359.063998 248.712,359.48 C248.936001,359.896002 249.239998,360.223999 249.624,360.464 C250.008002,360.704001 250.455997,360.872 250.968,360.968 C251.480003,361.064 252.007997,361.112 252.552,361.112 C253.896007,361.112 254.935996,360.888002 255.672,360.44 C256.408004,359.991998 256.951998,359.456003 257.304,358.832 C257.656002,358.207997 257.872,357.576003 257.952,356.936 L258.010776,356.418774 C258.051592,356.013877 258.072,355.674287 258.072,355.4 L258.072,352.856 Z M271.656,344.744 L271.656,365 L278.472,365 L278.472,344.744 L283.176,344.744 L283.176,340.184 L278.472,340.184 L278.472,338.696 C278.472,337.671995 278.671998,336.944002 279.072,336.512 C279.472002,336.079998 280.135995,335.864 281.064,335.864 C281.928004,335.864 282.759996,335.912 283.56,336.008 L283.56,330.92 C282.983997,330.888 282.392003,330.848 281.784,330.8 C281.175997,330.752 280.568003,330.728 279.96,330.728 C277.175986,330.728 275.096007,331.431993 273.72,332.84 C272.343993,334.248007 271.656,336.055989 271.656,338.264 L271.656,340.184 L267.576,340.184 L267.576,344.744 L271.656,344.744 Z M292.2,352.616 C292.2,351.623995 292.295999,350.648 292.488,349.688 C292.680001,348.727995 293.007998,347.880004 293.472,347.144 C293.936002,346.407996 294.551996,345.808002 295.32,345.344 C296.088004,344.879998 297.047994,344.648 298.2,344.648 C299.352006,344.648 300.319996,344.879998 301.104,345.344 C301.888004,345.808002 302.511998,346.407996 302.976,347.144 C303.440002,347.880004 303.767999,348.727995 303.96,349.688 C304.152001,350.648 304.248,351.623995 304.248,352.616 C304.248,353.608005 304.152001,354.575995 303.96,355.52 C303.767999,356.464005 303.440002,357.311996 302.976,358.064 C302.511998,358.816004 301.888004,359.415998 301.104,359.864 C300.319996,360.312002 299.352006,360.536 298.2,360.536 C297.047994,360.536 296.088004,360.312002 295.32,359.864 C294.551996,359.415998 293.936002,358.816004 293.472,358.064 C293.007998,357.311996 292.680001,356.464005 292.488,355.52 C292.295999,354.575995 292.2,353.608005 292.2,352.616 Z M285.384,352.616 C285.384,354.60001 285.687997,356.391992 286.296,357.992 C286.904003,359.592008 287.767994,360.959994 288.888,362.096 C290.008006,363.232006 291.351992,364.103997 292.92,364.712 C294.488008,365.320003 296.24799,365.624 298.2,365.624 C300.15201,365.624 301.919992,365.320003 303.504,364.712 C305.088008,364.103997 306.439994,363.232006 307.56,362.096 C308.680006,360.959994 309.543997,359.592008 310.152,357.992 C310.760003,356.391992 311.064,354.60001 311.064,352.616 C311.064,350.63199 310.760003,348.832008 310.152,347.216 C309.543997,345.599992 308.680006,344.224006 307.56,343.088 C306.439994,341.951994 305.088008,341.072003 303.504,340.448 C301.919992,339.823997 300.15201,339.512 298.2,339.512 C296.24799,339.512 294.488008,339.823997 292.92,340.448 C291.351992,341.072003 290.008006,341.951994 288.888,343.088 C287.767994,344.224006 286.904003,345.599992 286.296,347.216 C285.687997,348.832008 285.384,350.63199 285.384,352.616 Z M315.48,340.184 L315.48,365 L322.296,365 L322.296,353.816 C322.296,352.695994 322.407999,351.656005 322.632,350.696 C322.856001,349.735995 323.231997,348.896004 323.76,348.176 C324.288003,347.455996 324.983996,346.888002 325.848,346.472 C326.712004,346.055998 327.767994,345.848 329.016,345.848 C329.432002,345.848 329.863998,345.872 330.312,345.92 C330.760002,345.968 331.143998,346.024 331.464,346.088 L331.464,339.752 C330.919997,339.591999 330.424002,339.512 329.976,339.512 C329.111996,339.512 328.280004,339.639999 327.48,339.896 C326.679996,340.152001 325.928004,340.512 325.224,340.976 C324.519996,341.440002 323.896003,341.999997 323.352,342.656 C322.807997,343.312003 322.376002,344.023996 322.056,344.792 L321.96,344.792 L321.96,340.184 L315.48,340.184 Z M334.344,340.184 L334.344,365 L341.16,365 L341.16,350.6 C341.16,349.383994 341.335998,348.400004 341.688,347.648 C342.040002,346.895996 342.463998,346.320002 342.96,345.92 C343.456002,345.519998 343.967997,345.248001 344.496,345.104 C345.024003,344.959999 345.447998,344.888 345.768,344.888 C346.856005,344.888 347.679997,345.071998 348.24,345.44 C348.800003,345.808002 349.199999,346.295997 349.44,346.904 C349.680001,347.512 349.816,348.175996 349.848,348.896 C349.88,349.616004 349.896,350.343996 349.896,351.08 L349.896,365 L356.712,365 L356.712,351.176 C356.712,350.407996 356.767999,349.648004 356.88,348.896 C356.992001,348.143996 357.215998,347.472003 357.552,346.88 C357.888002,346.287997 358.351997,345.808002 358.944,345.44 C359.536003,345.071998 360.311995,344.888 361.272,344.888 C362.232005,344.888 362.991997,345.047998 363.552,345.368 C364.112003,345.688002 364.535999,346.119997 364.824,346.664 C365.112001,347.208003 365.288,347.847996 365.352,348.584 C365.416,349.320004 365.448,350.103996 365.448,350.936 L365.448,365 L372.264,365 L372.264,348.392 C372.264,346.791992 372.040002,345.424006 371.592,344.288 C371.143998,343.151994 370.520004,342.232004 369.72,341.528 C368.919996,340.823996 367.960006,340.312002 366.84,339.992 C365.719994,339.671998 364.504007,339.512 363.192,339.512 C361.463991,339.512 359.968006,339.927996 358.704,340.76 C357.439994,341.592004 356.440004,342.551995 355.704,343.64 C355.031997,342.103992 354.048006,341.032003 352.752,340.424 C351.455994,339.815997 350.024008,339.512 348.456,339.512 C346.823992,339.512 345.376006,339.863996 344.112,340.568 C342.847994,341.272004 341.768004,342.263994 340.872,343.544 L340.776,343.544 L340.776,340.184 L334.344,340.184 Z M377.352,347.816 C377.448,346.215992 377.847996,344.888005 378.552,343.832 C379.256004,342.775995 380.151995,341.928003 381.24,341.288 C382.328005,340.647997 383.551993,340.192001 384.912,339.92 C386.272007,339.647999 387.639993,339.512 389.016,339.512 C390.264006,339.512 391.527994,339.599999 392.808,339.776 C394.088006,339.952001 395.255995,340.295997 396.312,340.808 C397.368005,341.320003 398.231997,342.031995 398.904,342.944 C399.576003,343.856005 399.912,345.063992 399.912,346.568 L399.912,359.48 C399.912,360.600006 399.975999,361.671995 400.104,362.696 C400.232001,363.720005 400.455998,364.487997 400.776,365 L393.864,365 C393.735999,364.615998 393.632,364.224002 393.552,363.824 C393.472,363.423998 393.416,363.016002 393.384,362.6 C392.295995,363.720006 391.016007,364.503998 389.544,364.952 C388.071993,365.400002 386.568008,365.624 385.032,365.624 C383.847994,365.624 382.744005,365.480001 381.72,365.192 C380.695995,364.903999 379.800004,364.456003 379.032,363.848 C378.263996,363.239997 377.664002,362.472005 377.232,361.544 C376.799998,360.615995 376.584,359.512 376.584,358.232 C376.584,356.823993 376.831998,355.664005 377.328,354.752 C377.824002,353.839995 378.463996,353.112003 379.248,352.568 C380.032004,352.023997 380.927995,351.616001 381.936,351.344 C382.944005,351.071999 383.959995,350.856001 384.984,350.696 C385.752004,350.575999 386.510999,350.474 387.260999,350.39 L388.008,350.312 C389.000005,350.216 389.879996,350.072001 390.648,349.88 C391.416004,349.687999 392.023998,349.408002 392.472,349.04 C392.879275,348.705453 393.088199,348.232069 393.098777,347.619835 L393.096,347.432 C393.096,346.695996 392.976001,346.112002 392.736,345.68 C392.495999,345.247998 392.176002,344.912001 391.776,344.672 C391.375998,344.431999 390.912003,344.272 390.384,344.192 C389.855997,344.112 389.288003,344.072 388.68,344.072 C387.335993,344.072 386.280004,344.359997 385.512,344.936 C384.743996,345.512 384.296001,346.471993 384.168,347.816 L377.352,347.816 Z M393.096,352.856 C392.807999,353.112001 392.448002,353.311999 392.016,353.456 C391.583998,353.600001 391.120002,353.72 390.624,353.816 C390.293332,353.88 389.952,353.936889 389.600001,353.986667 L389.064,354.056 C388.519997,354.12 387.976003,354.2 387.432,354.296 C386.919997,354.392 386.416002,354.519999 385.92,354.68 C385.423998,354.840001 384.992002,355.055999 384.624,355.328 C384.255998,355.600001 383.960001,355.943998 383.736,356.36 C383.511999,356.776002 383.4,357.303997 383.4,357.944 C383.4,358.552003 383.511999,359.063998 383.736,359.48 C383.960001,359.896002 384.263998,360.223999 384.648,360.464 C385.032002,360.704001 385.479997,360.872 385.992,360.968 C386.504003,361.064 387.031997,361.112 387.576,361.112 C388.920007,361.112 389.959996,360.888002 390.696,360.44 C391.432004,359.991998 391.975998,359.456003 392.328,358.832 C392.680002,358.207997 392.896,357.576003 392.976,356.936 L393.034776,356.418774 C393.075592,356.013877 393.096,355.674287 393.096,355.4 L393.096,352.856 Z M436.152,352.52 C436.152,353.544005 436.056001,354.535995 435.864,355.496 C435.671999,356.456005 435.352002,357.311996 434.904,358.064 C434.455998,358.816004 433.856004,359.415998 433.104,359.864 C432.351996,360.312002 431.416006,360.536 430.296,360.536 C429.239995,360.536 428.336004,360.304002 427.584,359.84 C426.831996,359.375998 426.208002,358.768004 425.712,358.016 C425.215998,357.263996 424.856001,356.408005 424.632,355.448 C424.407999,354.487995 424.296,353.528005 424.296,352.568 C424.296,351.543995 424.399999,350.560005 424.608,349.616 C424.816001,348.671995 425.151998,347.832004 425.616,347.096 C426.080002,346.359996 426.695996,345.768002 427.464,345.32 C428.232004,344.871998 429.175994,344.648 430.296,344.648 C431.416006,344.648 432.343996,344.871998 433.08,345.32 C433.816004,345.768002 434.415998,346.351996 434.88,347.072 C435.344002,347.792004 435.671999,348.623995 435.864,349.568 C436.056001,350.512005 436.152,351.495995 436.152,352.52 Z M436.248,361.832 L436.248,365 L442.728,365 L442.728,330.728 L435.912,330.728 L435.912,343.208 L435.816,343.208 C435.047996,341.991994 434.000007,341.072003 432.672,340.448 C431.343993,339.823997 429.944007,339.512 428.472,339.512 C426.647991,339.512 425.048007,339.871996 423.672,340.592 C422.295993,341.312004 421.152005,342.263994 420.24,343.448 C419.327995,344.632006 418.640002,345.999992 418.176,347.552 C417.711998,349.104008 417.48,350.711992 417.48,352.376 C417.48,354.104009 417.711998,355.767992 418.176,357.368 C418.640002,358.968008 419.327995,360.383994 420.24,361.616 C421.152005,362.848006 422.311993,363.823996 423.72,364.544 C425.128007,365.264004 426.759991,365.624 428.616,365.624 C430.248008,365.624 431.711994,365.328003 433.008,364.736 C434.304006,364.143997 435.351996,363.176007 436.152,361.832 L436.248,361.832 Z M464.568,349.928 L453.48,349.928 C453.512,349.447998 453.615999,348.904003 453.792,348.296 C453.968001,347.687997 454.271998,347.112003 454.704,346.568 C455.136002,346.023997 455.711996,345.568002 456.432,345.2 C457.152004,344.831998 458.055995,344.648 459.144,344.648 C460.808008,344.648 462.047996,345.095996 462.864,345.992 C463.680004,346.888004 464.247998,348.199991 464.568,349.928 Z M453.48,354.248 L471.384,354.248 C471.512001,352.32799 471.352002,350.488009 470.904,348.728 C470.455998,346.967991 469.728005,345.400007 468.72,344.024 C467.711995,342.647993 466.424008,341.552004 464.856,340.736 C463.287992,339.919996 461.448011,339.512 459.336,339.512 C457.447991,339.512 455.728008,339.847997 454.176,340.52 C452.623992,341.192003 451.288006,342.111994 450.168,343.28 C449.047994,344.448006 448.184003,345.831992 447.576,347.432 C446.967997,349.032008 446.664,350.759991 446.664,352.616 C446.664,354.53601 446.959997,356.295992 447.552,357.896 C448.144003,359.496008 448.983995,360.871994 450.072,362.024 C451.160005,363.176006 452.487992,364.063997 454.056,364.688 C455.624008,365.312003 457.38399,365.624 459.336,365.624 C462.152014,365.624 464.55199,364.984006 466.536,363.704 C468.52001,362.423994 469.991995,360.296015 470.952,357.32 L464.952,357.32 C464.727999,358.088004 464.120005,358.815997 463.128,359.504 C462.135995,360.192003 460.952007,360.536 459.576,360.536 C457.65599,360.536 456.184005,360.040005 455.16,359.048 C454.135995,358.055995 453.576,356.456011 453.48,354.248 Z M218.424,394.064 L218.424,422 L225.96,422 L225.96,394.064 L236.232,394.064 L236.232,387.728 L208.152,387.728 L208.152,394.064 L218.424,394.064 Z M235.032,397.184 L235.032,422 L241.848,422 L241.848,410.816 C241.848,409.695994 241.959999,408.656005 242.184,407.696 C242.408001,406.735995 242.783997,405.896004 243.312,405.176 C243.840003,404.455996 244.535996,403.888002 245.4,403.472 C246.264004,403.055998 247.319994,402.848 248.568,402.848 C248.984002,402.848 249.415998,402.872 249.864,402.92 C250.312002,402.968 250.695998,403.024 251.016,403.088 L251.016,396.752 C250.471997,396.591999 249.976002,396.512 249.528,396.512 C248.663996,396.512 247.832004,396.639999 247.032,396.896 C246.231996,397.152001 245.480004,397.512 244.776,397.976 C244.071996,398.440002 243.448003,398.999997 242.904,399.656 C242.359997,400.312003 241.928002,401.023996 241.608,401.792 L241.512,401.792 L241.512,397.184 L235.032,397.184 Z M253.416,404.816 C253.512,403.215992 253.911996,401.888005 254.616,400.832 C255.320004,399.775995 256.215995,398.928003 257.304,398.288 C258.392005,397.647997 259.615993,397.192001 260.976,396.92 C262.336007,396.647999 263.703993,396.512 265.08,396.512 C266.328006,396.512 267.591994,396.599999 268.872,396.776 C270.152006,396.952001 271.319995,397.295997 272.376,397.808 C273.432005,398.320003 274.295997,399.031995 274.968,399.944 C275.640003,400.856005 275.976,402.063992 275.976,403.568 L275.976,416.48 C275.976,417.600006 276.039999,418.671995 276.168,419.696 C276.296001,420.720005 276.519998,421.487997 276.84,422 L269.928,422 C269.799999,421.615998 269.696,421.224002 269.616,420.824 C269.536,420.423998 269.48,420.016002 269.448,419.6 C268.359995,420.720006 267.080007,421.503998 265.608,421.952 C264.135993,422.400002 262.632008,422.624 261.096,422.624 C259.911994,422.624 258.808005,422.480001 257.784,422.192 C256.759995,421.903999 255.864004,421.456003 255.096,420.848 C254.327996,420.239997 253.728002,419.472005 253.296,418.544 C252.863998,417.615995 252.648,416.512 252.648,415.232 C252.648,413.823993 252.895998,412.664005 253.392,411.752 C253.888002,410.839995 254.527996,410.112003 255.312,409.568 C256.096004,409.023997 256.991995,408.616001 258,408.344 C259.008005,408.071999 260.023995,407.856001 261.048,407.696 C261.816004,407.575999 262.574999,407.474 263.324999,407.39 L264.072,407.312 C265.064005,407.216 265.943996,407.072001 266.712,406.88 C267.480004,406.687999 268.087998,406.408002 268.536,406.04 C268.943275,405.705453 269.152199,405.232069 269.162777,404.619835 L269.16,404.432 C269.16,403.695996 269.040001,403.112002 268.8,402.68 C268.559999,402.247998 268.240002,401.912001 267.84,401.672 C267.439998,401.431999 266.976003,401.272 266.448,401.192 C265.919997,401.112 265.352003,401.072 264.744,401.072 C263.399993,401.072 262.344004,401.359997 261.576,401.936 C260.807996,402.512 260.360001,403.471993 260.232,404.816 L253.416,404.816 Z M269.16,409.856 C268.871999,410.112001 268.512002,410.311999 268.08,410.456 C267.647998,410.600001 267.184002,410.72 266.688,410.816 C266.357332,410.88 266.016,410.936889 265.664001,410.986667 L265.128,411.056 C264.583997,411.12 264.040003,411.2 263.496,411.296 C262.983997,411.392 262.480002,411.519999 261.984,411.68 C261.487998,411.840001 261.056002,412.055999 260.688,412.328 C260.319998,412.600001 260.024001,412.943998 259.8,413.36 C259.575999,413.776002 259.464,414.303997 259.464,414.944 C259.464,415.552003 259.575999,416.063998 259.8,416.48 C260.024001,416.896002 260.327998,417.223999 260.712,417.464 C261.096002,417.704001 261.543997,417.872 262.056,417.968 C262.568003,418.064 263.095997,418.112 263.64,418.112 C264.984007,418.112 266.023996,417.888002 266.76,417.44 C267.496004,416.991998 268.039998,416.456003 268.392,415.832 C268.744002,415.207997 268.96,414.576003 269.04,413.936 C269.12,413.295997 269.16,412.784002 269.16,412.4 L269.16,409.856 Z M299.448,409.616 C299.448,410.640005 299.336001,411.631995 299.112,412.592 C298.887999,413.552005 298.536002,414.399996 298.056,415.136 C297.575998,415.872004 296.976004,416.455998 296.256,416.888 C295.535996,417.320002 294.664005,417.536 293.64,417.536 C292.647995,417.536 291.784004,417.320002 291.048,416.888 C290.311996,416.455998 289.704002,415.872004 289.224,415.136 C288.743998,414.399996 288.392001,413.552005 288.168,412.592 C287.943999,411.631995 287.832,410.640005 287.832,409.616 C287.832,408.559995 287.943999,407.552005 288.168,406.592 C288.392001,405.631995 288.743998,404.784004 289.224,404.048 C289.704002,403.311996 290.311996,402.728002 291.048,402.296 C291.784004,401.863998 292.647995,401.648 293.64,401.648 C294.664005,401.648 295.535996,401.863998 296.256,402.296 C296.976004,402.728002 297.575998,403.311996 298.056,404.048 C298.536002,404.784004 298.887999,405.631995 299.112,406.592 C299.336001,407.552005 299.448,408.559995 299.448,409.616 Z M281.256,387.728 L281.256,422 L287.736,422 L287.736,418.832 L287.832,418.832 C288.568004,420.208007 289.655993,421.183997 291.096,421.76 C292.536007,422.336003 294.167991,422.624 295.992,422.624 C297.240006,422.624 298.471994,422.368003 299.688,421.856 C300.904006,421.343997 301.999995,420.560005 302.976,419.504 C303.952005,418.447995 304.743997,417.096008 305.352,415.448 C305.960003,413.799992 306.264,411.840011 306.264,409.568 C306.264,407.295989 305.960003,405.336008 305.352,403.688 C304.743997,402.039992 303.952005,400.688005 302.976,399.632 C301.999995,398.575995 300.904006,397.792003 299.688,397.28 C298.471994,396.767997 297.240006,396.512 295.992,396.512 C294.455992,396.512 292.976007,396.807997 291.552,397.4 C290.127993,397.992003 289.000004,398.927994 288.168,400.208 L288.072,400.208 L288.072,387.728 L281.256,387.728 Z M310.296,404.816 C310.392,403.215992 310.791996,401.888005 311.496,400.832 C312.200004,399.775995 313.095995,398.928003 314.184,398.288 C315.272005,397.647997 316.495993,397.192001 317.856,396.92 C319.216007,396.647999 320.583993,396.512 321.96,396.512 C323.208006,396.512 324.471994,396.599999 325.752,396.776 C327.032006,396.952001 328.199995,397.295997 329.256,397.808 C330.312005,398.320003 331.175997,399.031995 331.848,399.944 C332.520003,400.856005 332.856,402.063992 332.856,403.568 L332.856,416.48 C332.856,417.600006 332.919999,418.671995 333.048,419.696 C333.176001,420.720005 333.399998,421.487997 333.72,422 L326.808,422 C326.679999,421.615998 326.576,421.224002 326.496,420.824 C326.416,420.423998 326.36,420.016002 326.328,419.6 C325.239995,420.720006 323.960007,421.503998 322.488,421.952 C321.015993,422.400002 319.512008,422.624 317.976,422.624 C316.791994,422.624 315.688005,422.480001 314.664,422.192 C313.639995,421.903999 312.744004,421.456003 311.976,420.848 C311.207996,420.239997 310.608002,419.472005 310.176,418.544 C309.743998,417.615995 309.528,416.512 309.528,415.232 C309.528,413.823993 309.775998,412.664005 310.272,411.752 C310.768002,410.839995 311.407996,410.112003 312.192,409.568 C312.976004,409.023997 313.871995,408.616001 314.88,408.344 C315.888005,408.071999 316.903995,407.856001 317.928,407.696 C318.696004,407.575999 319.454999,407.474 320.204999,407.39 L320.952,407.312 C321.944005,407.216 322.823996,407.072001 323.592,406.88 C324.360004,406.687999 324.967998,406.408002 325.416,406.04 C325.823275,405.705453 326.032199,405.232069 326.042777,404.619835 L326.04,404.432 C326.04,403.695996 325.920001,403.112002 325.68,402.68 C325.439999,402.247998 325.120002,401.912001 324.72,401.672 C324.319998,401.431999 323.856003,401.272 323.328,401.192 C322.799997,401.112 322.232003,401.072 321.624,401.072 C320.279993,401.072 319.224004,401.359997 318.456,401.936 C317.687996,402.512 317.240001,403.471993 317.112,404.816 L310.296,404.816 Z M326.04,409.856 C325.751999,410.112001 325.392002,410.311999 324.96,410.456 C324.527998,410.600001 324.064002,410.72 323.568,410.816 C323.237332,410.88 322.896,410.936889 322.544001,410.986667 L322.008,411.056 C321.463997,411.12 320.920003,411.2 320.376,411.296 C319.863997,411.392 319.360002,411.519999 318.864,411.68 C318.367998,411.840001 317.936002,412.055999 317.568,412.328 C317.199998,412.600001 316.904001,412.943998 316.68,413.36 C316.455999,413.776002 316.344,414.303997 316.344,414.944 C316.344,415.552003 316.455999,416.063998 316.68,416.48 C316.904001,416.896002 317.207998,417.223999 317.592,417.464 C317.976002,417.704001 318.423997,417.872 318.936,417.968 C319.448003,418.064 319.975997,418.112 320.52,418.112 C321.864007,418.112 322.903996,417.888002 323.64,417.44 C324.376004,416.991998 324.919998,416.456003 325.272,415.832 C325.624002,415.207997 325.84,414.576003 325.92,413.936 C326,413.295997 326.04,412.784002 326.04,412.4 L326.04,409.856 Z M345.576,393.344 L345.576,387.728 L338.76,387.728 L338.76,393.344 L345.576,393.344 Z M334.68,424.88 L334.68,430.496 C335.320003,430.624001 336.039996,430.688 336.84,430.688 C338.568009,430.688 339.991994,430.536002 341.112,430.232 C342.232006,429.927998 343.119997,429.464003 343.776,428.84 C344.432003,428.215997 344.895999,427.440005 345.168,426.512 C345.440001,425.583995 345.576,424.480006 345.576,423.2 L345.576,397.184 L338.76,397.184 L338.76,422.864 C338.76,423.792005 338.496003,424.391999 337.968,424.664 C337.439997,424.936001 336.824004,425.072 336.12,425.072 C335.511997,425.072 335.032002,425.008001 334.68,424.88 Z M357.528,409.616 C357.528,408.623995 357.623999,407.648 357.816,406.688 C358.008001,405.727995 358.335998,404.880004 358.8,404.144 C359.264002,403.407996 359.879996,402.808002 360.648,402.344 C361.416004,401.879998 362.375994,401.648 363.528,401.648 C364.680006,401.648 365.647996,401.879998 366.432,402.344 C367.216004,402.808002 367.839998,403.407996 368.304,404.144 C368.768002,404.880004 369.095999,405.727995 369.288,406.688 C369.480001,407.648 369.576,408.623995 369.576,409.616 C369.576,410.608005 369.480001,411.575995 369.288,412.52 C369.095999,413.464005 368.768002,414.311996 368.304,415.064 C367.839998,415.816004 367.216004,416.415998 366.432,416.864 C365.647996,417.312002 364.680006,417.536 363.528,417.536 C362.375994,417.536 361.416004,417.312002 360.648,416.864 C359.879996,416.415998 359.264002,415.816004 358.8,415.064 C358.335998,414.311996 358.008001,413.464005 357.816,412.52 C357.623999,411.575995 357.528,410.608005 357.528,409.616 Z M350.712,409.616 C350.712,411.60001 351.015997,413.391992 351.624,414.992 C352.232003,416.592008 353.095994,417.959994 354.216,419.096 C355.336006,420.232006 356.679992,421.103997 358.248,421.712 C359.816008,422.320003 361.57599,422.624 363.528,422.624 C365.48001,422.624 367.247992,422.320003 368.832,421.712 C370.416008,421.103997 371.767994,420.232006 372.888,419.096 C374.008006,417.959994 374.871997,416.592008 375.48,414.992 C376.088003,413.391992 376.392,411.60001 376.392,409.616 C376.392,407.63199 376.088003,405.832008 375.48,404.216 C374.871997,402.599992 374.008006,401.224006 372.888,400.088 C371.767994,398.951994 370.416008,398.072003 368.832,397.448 C367.247992,396.823997 365.48001,396.512 363.528,396.512 C361.57599,396.512 359.816008,396.823997 358.248,397.448 C356.679992,398.072003 355.336006,398.951994 354.216,400.088 C353.095994,401.224006 352.232003,402.599992 351.624,404.216 C351.015997,405.832008 350.712,407.63199 350.712,409.616 Z M406.392,425.072 L416.76,397.184 L409.704,397.184 L404.28,414.176 L404.184,414.176 L398.568,397.184 L391.32,397.184 L400.008,420.464 C400.200001,420.944002 400.296,421.455997 400.296,422 C400.296,422.736004 400.080002,423.407997 399.648,424.016 C399.215998,424.624003 398.552004,424.976 397.656,425.072 C396.983997,425.104 396.312003,425.088 395.64,425.024 L393.672,424.832 L393.672,424.832 L393.672,430.448 C394.376004,430.512 395.071997,430.568 395.76,430.616 C396.448003,430.664 397.143996,430.688 397.848,430.688 C400.184012,430.688 402.007993,430.256004 403.32,429.392 C404.632007,428.527996 405.655996,427.08801 406.392,425.072 Z M215.568,467.624 L208.272,467.624 C208.24,469.736011 208.623996,471.559992 209.424,473.096 C210.224004,474.632008 211.303993,475.895995 212.664,476.888 C214.024007,477.880005 215.591991,478.607998 217.368,479.072 C219.144009,479.536002 220.975991,479.768 222.864,479.768 C225.200012,479.768 227.255991,479.496003 229.032,478.952 C230.808009,478.407997 232.295994,477.648005 233.496,476.672 C234.696006,475.695995 235.599997,474.536007 236.208,473.192 C236.816003,471.847993 237.12,470.392008 237.12,468.824 C237.12,466.90399 236.712004,465.328006 235.896,464.096 C235.079996,462.863994 234.112006,461.880004 232.992,461.144 C231.871994,460.407996 230.744006,459.872002 229.608,459.536 L228.956158,459.346879 C228.126717,459.111359 227.456003,458.942401 226.944,458.84 L222.720569,457.75503 C222.370653,457.663574 222.042463,457.577231 221.736,457.496 C220.407993,457.143998 219.368004,456.792002 218.616,456.44 C217.863996,456.087998 217.360001,455.704002 217.104,455.288 C216.847999,454.871998 216.72,454.328003 216.72,453.656 C216.72,452.919996 216.879998,452.312002 217.2,451.832 C217.520002,451.351998 217.927998,450.952002 218.424,450.632 C218.920002,450.311998 219.471997,450.088001 220.08,449.96 C220.688003,449.831999 221.295997,449.768 221.904,449.768 C222.832005,449.768 223.687996,449.847999 224.472,450.008 C225.256004,450.168001 225.951997,450.439998 226.56,450.824 C227.168003,451.208002 227.655998,451.735997 228.024,452.408 C228.392002,453.080003 228.608,453.927995 228.672,454.952 L235.968,454.952 C235.968,452.96799 235.592004,451.280007 234.84,449.888 C234.087996,448.495993 233.072006,447.352004 231.792,446.456 C230.511994,445.559996 229.048008,444.912 227.4,444.512 C225.751992,444.111998 224.032009,443.912 222.24,443.912 C220.703992,443.912 219.168008,444.119998 217.632,444.536 C216.095992,444.952002 214.720006,445.591996 213.504,446.456 C212.287994,447.320004 211.304004,448.399994 210.552,449.696 C209.799996,450.992006 209.424,452.519991 209.424,454.28 C209.424,455.848008 209.719997,457.183994 210.312,458.288 C210.904003,459.392006 211.679995,460.311996 212.64,461.048 C213.600005,461.784004 214.687994,462.383998 215.904,462.848 C217.120006,463.312002 218.367994,463.703998 219.648,464.024 C220.584005,464.288001 221.510999,464.534 222.428998,464.762 L223.344,464.984 C224.560006,465.272001 225.647995,465.607998 226.608,465.992 C227.568005,466.376002 228.343997,466.855997 228.936,467.432 C229.528003,468.008003 229.824,468.759995 229.824,469.688 C229.824,470.552004 229.600002,471.263997 229.152,471.824 C228.703998,472.384003 228.144003,472.823998 227.472,473.144 C226.799997,473.464002 226.080004,473.679999 225.312,473.792 C224.543996,473.904001 223.824003,473.96 223.152,473.96 C222.159995,473.96 221.200005,473.840001 220.272,473.6 C219.343995,473.359999 218.536003,472.992002 217.848,472.496 C217.159997,471.999998 216.608002,471.352004 216.192,470.552 C215.775998,469.751996 215.568,468.776006 215.568,467.624 Z M257.568,463.928 L246.48,463.928 C246.512,463.447998 246.615999,462.904003 246.792,462.296 C246.968001,461.687997 247.271998,461.112003 247.704,460.568 C248.136002,460.023997 248.711996,459.568002 249.432,459.2 C250.152004,458.831998 251.055995,458.648 252.144,458.648 C253.808008,458.648 255.047996,459.095996 255.864,459.992 C256.680004,460.888004 257.247998,462.199991 257.568,463.928 Z M246.48,468.248 L264.384,468.248 C264.512001,466.32799 264.352002,464.488009 263.904,462.728 C263.455998,460.967991 262.728005,459.400007 261.72,458.024 C260.711995,456.647993 259.424008,455.552004 257.856,454.736 C256.287992,453.919996 254.448011,453.512 252.336,453.512 C250.447991,453.512 248.728008,453.847997 247.176,454.52 C245.623992,455.192003 244.288006,456.111994 243.168,457.28 C242.047994,458.448006 241.184003,459.831992 240.576,461.432 C239.967997,463.032008 239.664,464.759991 239.664,466.616 C239.664,468.53601 239.959997,470.295992 240.552,471.896 C241.144003,473.496008 241.983995,474.871994 243.072,476.024 C244.160005,477.176006 245.487992,478.063997 247.056,478.688 C248.624008,479.312003 250.38399,479.624 252.336,479.624 C255.152014,479.624 257.55199,478.984006 259.536,477.704 C261.52001,476.423994 262.991995,474.296015 263.952,471.32 L257.952,471.32 C257.727999,472.088004 257.120005,472.815997 256.128,473.504 C255.135995,474.192003 253.952007,474.536 252.576,474.536 C250.65599,474.536 249.184005,474.040005 248.16,473.048 C247.135995,472.055995 246.576,470.456011 246.48,468.248 Z M268.416,454.184 L268.416,479 L275.232,479 L275.232,467.816 C275.232,466.695994 275.343999,465.656005 275.568,464.696 C275.792001,463.735995 276.167997,462.896004 276.696,462.176 C277.224003,461.455996 277.919996,460.888002 278.784,460.472 C279.648004,460.055998 280.703994,459.848 281.952,459.848 C282.368002,459.848 282.799998,459.872 283.248,459.92 C283.696002,459.968 284.079998,460.024 284.4,460.088 L284.4,453.752 C283.855997,453.591999 283.360002,453.512 282.912,453.512 C282.047996,453.512 281.216004,453.639999 280.416,453.896 C279.615996,454.152001 278.864004,454.512 278.16,454.976 C277.455996,455.440002 276.832003,455.999997 276.288,456.656 C275.743997,457.312003 275.312002,458.023996 274.992,458.792 L274.896,458.792 L274.896,454.184 L268.416,454.184 Z M300.816,479 L309.216,454.184 L302.448,454.184 L297.216,471.128 L297.12,471.128 L291.888,454.184 L284.736,454.184 L293.232,479 L300.816,479 Z M319.056,450.344 L319.056,444.728 L312.24,444.728 L312.24,450.344 L319.056,450.344 Z M312.24,454.184 L312.24,479 L319.056,479 L319.056,454.184 L312.24,454.184 Z M341.328,462.92 L348,462.92 C347.904,461.319992 347.520003,459.936006 346.848,458.768 C346.175997,457.599994 345.304005,456.624004 344.232,455.84 C343.159995,455.055996 341.944007,454.472002 340.584,454.088 C339.223993,453.703998 337.808007,453.512 336.336,453.512 C334.31999,453.512 332.528008,453.847997 330.96,454.52 C329.391992,455.192003 328.064005,456.127994 326.976,457.328 C325.887995,458.528006 325.064003,459.951992 324.504,461.6 C323.943997,463.248008 323.664,465.03199 323.664,466.952 C323.664,468.808009 323.967997,470.512 324.576,472.064 C325.184003,473.616008 326.031995,474.951994 327.12,476.072 C328.208005,477.192006 329.527992,478.063997 331.08,478.688 C332.632008,479.312003 334.335991,479.624 336.192,479.624 C339.488016,479.624 342.191989,478.760009 344.304,477.032 C346.416011,475.303991 347.695998,472.792016 348.144,469.496 L341.568,469.496 C341.343999,471.032008 340.792004,472.255995 339.912,473.168 C339.031996,474.080005 337.776008,474.536 336.144,474.536 C335.087995,474.536 334.192004,474.296002 333.456,473.816 C332.719996,473.335998 332.136002,472.720004 331.704,471.968 C331.271998,471.215996 330.960001,470.376005 330.768,469.448 C330.575999,468.519995 330.48,467.608004 330.48,466.712 C330.48,465.783995 330.575999,464.848005 330.768,463.904 C330.960001,462.959995 331.287998,462.096004 331.752,461.312 C332.216002,460.527996 332.815996,459.888002 333.552,459.392 C334.288004,458.895998 335.199995,458.648 336.288,458.648 C339.200015,458.648 340.879998,460.071986 341.328,462.92 Z M358.992,450.344 L358.992,444.728 L352.176,444.728 L352.176,450.344 L358.992,450.344 Z M352.176,454.184 L352.176,479 L358.992,479 L358.992,454.184 L352.176,454.184 Z M370.416,466.616 C370.416,465.623995 370.511999,464.648 370.704,463.688 C370.896001,462.727995 371.223998,461.880004 371.688,461.144 C372.152002,460.407996 372.767996,459.808002 373.536,459.344 C374.304004,458.879998 375.263994,458.648 376.416,458.648 C377.568006,458.648 378.535996,458.879998 379.32,459.344 C380.104004,459.808002 380.727998,460.407996 381.192,461.144 C381.656002,461.880004 381.983999,462.727995 382.176,463.688 C382.368001,464.648 382.464,465.623995 382.464,466.616 C382.464,467.608005 382.368001,468.575995 382.176,469.52 C381.983999,470.464005 381.656002,471.311996 381.192,472.064 C380.727998,472.816004 380.104004,473.415998 379.32,473.864 C378.535996,474.312002 377.568006,474.536 376.416,474.536 C375.263994,474.536 374.304004,474.312002 373.536,473.864 C372.767996,473.415998 372.152002,472.816004 371.688,472.064 C371.223998,471.311996 370.896001,470.464005 370.704,469.52 C370.511999,468.575995 370.416,467.608005 370.416,466.616 Z M363.6,466.616 C363.6,468.60001 363.903997,470.391992 364.512,471.992 C365.120003,473.592008 365.983994,474.959994 367.104,476.096 C368.224006,477.232006 369.567992,478.103997 371.136,478.712 C372.704008,479.320003 374.46399,479.624 376.416,479.624 C378.36801,479.624 380.135992,479.320003 381.72,478.712 C383.304008,478.103997 384.655994,477.232006 385.776,476.096 C386.896006,474.959994 387.759997,473.592008 388.368,471.992 C388.976003,470.391992 389.28,468.60001 389.28,466.616 C389.28,464.63199 388.976003,462.832008 388.368,461.216 C387.759997,459.599992 386.896006,458.224006 385.776,457.088 C384.655994,455.951994 383.304008,455.072003 381.72,454.448 C380.135992,453.823997 378.36801,453.512 376.416,453.512 C374.46399,453.512 372.704008,453.823997 371.136,454.448 C369.567992,455.072003 368.224006,455.951994 367.104,457.088 C365.983994,458.224006 365.120003,459.599992 364.512,461.216 C363.903997,462.832008 363.6,464.63199 363.6,466.616 Z M398.976,470.936 C398.976,471.672004 399.127998,472.303997 399.432,472.832 C399.736002,473.360003 400.127998,473.791998 400.608,474.128 C401.088002,474.464002 401.639997,474.711999 402.264,474.872 C402.888003,475.032001 403.535997,475.112 404.208,475.112 C404.688002,475.112 405.191997,475.056001 405.72,474.944 C406.248003,474.831999 406.727998,474.656001 407.16,474.416 C407.592002,474.175999 407.951999,473.856002 408.24,473.456 C408.528001,473.055998 408.672,472.552003 408.672,471.944 C408.672,470.919995 407.992007,470.152003 406.632,469.64 C405.271993,469.127997 403.376012,468.616003 400.944,468.104 C399.951995,467.879999 398.984005,467.616002 398.04,467.312 C397.095995,467.007998 396.256004,466.608002 395.52,466.112 C394.783996,465.615998 394.192002,464.992004 393.744,464.24 C393.295998,463.487996 393.072,462.568005 393.072,461.48 C393.072,459.879992 393.383997,458.568005 394.008,457.544 C394.632003,456.519995 395.455995,455.712003 396.48,455.12 C397.504005,454.527997 398.655994,454.112001 399.936,453.872 C401.216006,453.631999 402.527993,453.512 403.872,453.512 C405.216007,453.512 406.519994,453.639999 407.784,453.896 C409.048006,454.152001 410.175995,454.583997 411.168,455.192 C412.160005,455.800003 412.983997,456.607995 413.64,457.616 C414.296003,458.624005 414.687999,459.895992 414.816,461.432 L408.336,461.432 C408.24,460.119993 407.744004,459.232002 406.848,458.768 C405.951996,458.303998 404.896006,458.072 403.68,458.072 C403.295998,458.072 402.880002,458.096 402.432,458.144 C401.983998,458.192 401.576002,458.295999 401.208,458.456 C400.839998,458.616001 400.528001,458.847998 400.272,459.152 C400.015999,459.456002 399.888,459.863997 399.888,460.376 C399.888,460.984003 400.111998,461.479998 400.56,461.864 C401.008002,462.248002 401.591996,462.559999 402.312,462.8 C403.032004,463.040001 403.855995,463.255999 404.784,463.448 C405.712005,463.640001 406.655995,463.847999 407.616,464.072 C408.608005,464.296001 409.575995,464.567998 410.52,464.888 C411.464005,465.208002 412.303996,465.631997 413.04,466.16 C413.776004,466.688003 414.367998,467.343996 414.816,468.128 C415.264002,468.912004 415.488,469.879994 415.488,471.032 C415.488,472.664008 415.160003,474.031994 414.504,475.136 C413.847997,476.240006 412.992005,477.127997 411.936,477.8 C410.879995,478.472003 409.672007,478.943999 408.312,479.216 C406.951993,479.488001 405.568007,479.624 404.16,479.624 C402.719993,479.624 401.312007,479.480001 399.936,479.192 C398.559993,478.903999 397.336005,478.424003 396.264,477.752 C395.191995,477.079997 394.312003,476.192006 393.624,475.088 C392.935997,473.983994 392.56,472.600008 392.496,470.936 L398.976,470.936 Z" id="PlataformadeTrabajoyServicios" fill="#FFFFFF" fill-rule="nonzero"></path>
        <path d="M497.68,666.664 L497.68,645.064 L503.056,645.064 C504.912009,645.064 506.471994,645.327997 507.736,645.856 C509.000006,646.384003 510.015996,647.143995 510.784,648.136 C511.552004,649.128005 512.103998,650.319993 512.44,651.712 C512.776002,653.104007 512.944,654.663991 512.944,656.392 C512.944,658.280009 512.704002,659.879993 512.224,661.192 C511.743998,662.504007 511.104004,663.567996 510.304,664.384 C509.503996,665.200004 508.592005,665.783998 507.568,666.136 C506.543995,666.488002 505.488005,666.664 504.4,666.664 L497.68,666.664 Z M490.144,638.728 L490.144,673 L504.928,673 C507.552013,673 509.83199,672.560004 511.768,671.68 C513.70401,670.799996 515.319994,669.592008 516.616,668.056 C517.912006,666.519992 518.879997,664.696011 519.52,662.584 C520.160003,660.471989 520.48,658.168012 520.48,655.672 C520.48,652.823986 520.088004,650.344011 519.304,648.232 C518.519996,646.119989 517.432007,644.360007 516.04,642.952 C514.647993,641.543993 513.00001,640.488004 511.096,639.784 C509.19199,639.079996 507.136011,638.728 504.928,638.728 L490.144,638.728 Z M541.696,657.928 L530.608,657.928 C530.64,657.447998 530.743999,656.904003 530.92,656.296 C531.096001,655.687997 531.399998,655.112003 531.832,654.568 C532.264002,654.023997 532.839996,653.568002 533.56,653.2 C534.280004,652.831998 535.183995,652.648 536.272,652.648 C537.936008,652.648 539.175996,653.095996 539.992,653.992 C540.808004,654.888004 541.375998,656.199991 541.696,657.928 Z M530.608,662.248 L548.512,662.248 C548.640001,660.32799 548.480002,658.488009 548.032,656.728 C547.583998,654.967991 546.856005,653.400007 545.848,652.024 C544.839995,650.647993 543.552008,649.552004 541.984,648.736 C540.415992,647.919996 538.576011,647.512 536.464,647.512 C534.575991,647.512 532.856008,647.847997 531.304,648.52 C529.751992,649.192003 528.416006,650.111994 527.296,651.28 C526.175994,652.448006 525.312003,653.831992 524.704,655.432 C524.095997,657.032008 523.792,658.759991 523.792,660.616 C523.792,662.53601 524.087997,664.295992 524.68,665.896 C525.272003,667.496008 526.111995,668.871994 527.2,670.024 C528.288005,671.176006 529.615992,672.063997 531.184,672.688 C532.752008,673.312003 534.51199,673.624 536.464,673.624 C539.280014,673.624 541.67999,672.984006 543.664,671.704 C545.64801,670.423994 547.119995,668.296015 548.08,665.32 L542.08,665.32 C541.855999,666.088004 541.248005,666.815997 540.256,667.504 C539.263995,668.192003 538.080007,668.536 536.704,668.536 C534.78399,668.536 533.312005,668.040005 532.288,667.048 C531.263995,666.055995 530.704,664.456011 530.608,662.248 Z M569.44,656.92 L576.112,656.92 C576.016,655.319992 575.632003,653.936006 574.96,652.768 C574.287997,651.599994 573.416005,650.624004 572.344,649.84 C571.271995,649.055996 570.056007,648.472002 568.696,648.088 C567.335993,647.703998 565.920007,647.512 564.448,647.512 C562.43199,647.512 560.640008,647.847997 559.072,648.52 C557.503992,649.192003 556.176005,650.127994 555.088,651.328 C553.999995,652.528006 553.176003,653.951992 552.616,655.6 C552.055997,657.248008 551.776,659.03199 551.776,660.952 C551.776,662.808009 552.079997,664.512 552.688,666.064 C553.296003,667.616008 554.143995,668.951994 555.232,670.072 C556.320005,671.192006 557.639992,672.063997 559.192,672.688 C560.744008,673.312003 562.447991,673.624 564.304,673.624 C567.600016,673.624 570.303989,672.760009 572.416,671.032 C574.528011,669.303991 575.807998,666.792016 576.256,663.496 L569.68,663.496 C569.455999,665.032008 568.904004,666.255995 568.024,667.168 C567.143996,668.080005 565.888008,668.536 564.256,668.536 C563.199995,668.536 562.304004,668.296002 561.568,667.816 C560.831996,667.335998 560.248002,666.720004 559.816,665.968 C559.383998,665.215996 559.072001,664.376005 558.88,663.448 C558.687999,662.519995 558.592,661.608004 558.592,660.712 C558.592,659.783995 558.687999,658.848005 558.88,657.904 C559.072001,656.959995 559.399998,656.096004 559.864,655.312 C560.328002,654.527996 560.927996,653.888002 561.664,653.392 C562.400004,652.895998 563.311995,652.648 564.4,652.648 C567.312015,652.648 568.991998,654.071986 569.44,656.92 Z M587.104,644.344 L587.104,638.728 L580.288,638.728 L580.288,644.344 L587.104,644.344 Z M580.288,648.184 L580.288,673 L587.104,673 L587.104,648.184 L580.288,648.184 Z M597.76,664.936 L591.28,664.936 C591.344,666.600008 591.719997,667.983994 592.408,669.088 C593.096003,670.192006 593.975995,671.079997 595.048,671.752 C596.120005,672.424003 597.343993,672.903999 598.72,673.192 C600.096007,673.480001 601.503993,673.624 602.944,673.624 C604.352007,673.624 605.735993,673.488001 607.096,673.216 C608.456007,672.943999 609.663995,672.472003 610.72,671.8 C611.776005,671.127997 612.631997,670.240006 613.288,669.136 C613.944003,668.031994 614.272,666.664008 614.272,665.032 C614.272,663.879994 614.048002,662.912004 613.6,662.128 C613.151998,661.343996 612.560004,660.688003 611.824,660.16 C611.087996,659.631997 610.248005,659.208002 609.304,658.888 C608.359995,658.567998 607.392005,658.296001 606.4,658.072 C605.439995,657.847999 604.496005,657.640001 603.568,657.448 C602.639995,657.255999 601.816004,657.040001 601.096,656.8 C600.375996,656.559999 599.792002,656.248002 599.344,655.864 C598.895998,655.479998 598.672,654.984003 598.672,654.376 C598.672,653.863997 598.799999,653.456002 599.056,653.152 C599.312001,652.847998 599.623998,652.616001 599.992,652.456 C600.360002,652.295999 600.767998,652.192 601.216,652.144 C601.664002,652.096 602.079998,652.072 602.464,652.072 C603.680006,652.072 604.735996,652.303998 605.632,652.768 C606.528004,653.232002 607.024,654.119993 607.12,655.432 L613.6,655.432 C613.471999,653.895992 613.080003,652.624005 612.424,651.616 C611.767997,650.607995 610.944005,649.800003 609.952,649.192 C608.959995,648.583997 607.832006,648.152001 606.568,647.896 C605.303994,647.639999 604.000007,647.512 602.656,647.512 C601.311993,647.512 600.000006,647.631999 598.72,647.872 C597.439994,648.112001 596.288005,648.527997 595.264,649.12 C594.239995,649.712003 593.416003,650.519995 592.792,651.544 C592.167997,652.568005 591.856,653.879992 591.856,655.48 C591.856,656.568005 592.079998,657.487996 592.528,658.24 C592.976002,658.992004 593.567996,659.615998 594.304,660.112 C595.040004,660.608002 595.879995,661.007998 596.824,661.312 C597.768005,661.616002 598.735995,661.879999 599.728,662.104 C602.160012,662.616003 604.055993,663.127997 605.416,663.64 C606.776007,664.152003 607.456,664.919995 607.456,665.944 C607.456,666.552003 607.312001,667.055998 607.024,667.456 C606.735999,667.856002 606.376002,668.175999 605.944,668.416 C605.511998,668.656001 605.032003,668.831999 604.504,668.944 C603.975997,669.056001 603.472002,669.112 602.992,669.112 C602.319997,669.112 601.672003,669.032001 601.048,668.872 C600.423997,668.711999 599.872002,668.464002 599.392,668.128 C598.911998,667.791998 598.520002,667.360003 598.216,666.832 C597.911998,666.303997 597.76,665.672004 597.76,664.936 Z M625.264,644.344 L625.264,638.728 L618.448,638.728 L618.448,644.344 L625.264,644.344 Z M618.448,648.184 L618.448,673 L625.264,673 L625.264,648.184 L618.448,648.184 Z M636.688,660.616 C636.688,659.623995 636.783999,658.648 636.976,657.688 C637.168001,656.727995 637.495998,655.880004 637.96,655.144 C638.424002,654.407996 639.039996,653.808002 639.808,653.344 C640.576004,652.879998 641.535994,652.648 642.688,652.648 C643.840006,652.648 644.807996,652.879998 645.592,653.344 C646.376004,653.808002 646.999998,654.407996 647.464,655.144 C647.928002,655.880004 648.255999,656.727995 648.448,657.688 C648.640001,658.648 648.736,659.623995 648.736,660.616 C648.736,661.608005 648.640001,662.575995 648.448,663.52 C648.255999,664.464005 647.928002,665.311996 647.464,666.064 C646.999998,666.816004 646.376004,667.415998 645.592,667.864 C644.807996,668.312002 643.840006,668.536 642.688,668.536 C641.535994,668.536 640.576004,668.312002 639.808,667.864 C639.039996,667.415998 638.424002,666.816004 637.96,666.064 C637.495998,665.311996 637.168001,664.464005 636.976,663.52 C636.783999,662.575995 636.688,661.608005 636.688,660.616 Z M629.872,660.616 C629.872,662.60001 630.175997,664.391992 630.784,665.992 C631.392003,667.592008 632.255994,668.959994 633.376,670.096 C634.496006,671.232006 635.839992,672.103997 637.408,672.712 C638.976008,673.320003 640.73599,673.624 642.688,673.624 C644.64001,673.624 646.407992,673.320003 647.992,672.712 C649.576008,672.103997 650.927994,671.232006 652.048,670.096 C653.168006,668.959994 654.031997,667.592008 654.64,665.992 C655.248003,664.391992 655.552,662.60001 655.552,660.616 C655.552,658.63199 655.248003,656.832008 654.64,655.216 C654.031997,653.599992 653.168006,652.224006 652.048,651.088 C650.927994,649.951994 649.576008,649.072003 647.992,648.448 C646.407992,647.823997 644.64001,647.512 642.688,647.512 C640.73599,647.512 638.976008,647.823997 637.408,648.448 C635.839992,649.072003 634.496006,649.951994 633.376,651.088 C632.255994,652.224006 631.392003,653.599992 630.784,655.216 C630.175997,656.832008 629.872,658.63199 629.872,660.616 Z M659.968,648.184 L659.968,673 L666.784,673 L666.784,659.992 C666.784,657.463987 667.199996,655.648006 668.032,654.544 C668.864004,653.439994 670.207991,652.888 672.064,652.888 C673.696008,652.888 674.831997,653.391995 675.472,654.4 C676.112003,655.408005 676.432,656.93599 676.432,658.984 L676.432,673 L683.248,673 L683.248,657.736 C683.248,656.199992 683.112001,654.800006 682.84,653.536 C682.567999,652.271994 682.096003,651.200004 681.424,650.32 C680.751997,649.439996 679.832006,648.752002 678.664,648.256 C677.495994,647.759998 676.000009,647.512 674.176,647.512 C672.735993,647.512 671.328007,647.839997 669.952,648.496 C668.575993,649.152003 667.456004,650.199993 666.592,651.64 L666.448,651.64 L666.448,648.184 L659.968,648.184 Z M705.136,657.928 L694.048,657.928 C694.08,657.447998 694.183999,656.904003 694.36,656.296 C694.536001,655.687997 694.839998,655.112003 695.272,654.568 C695.704002,654.023997 696.279996,653.568002 697,653.2 C697.720004,652.831998 698.623995,652.648 699.712,652.648 C701.376008,652.648 702.615996,653.095996 703.432,653.992 C704.248004,654.888004 704.815998,656.199991 705.136,657.928 Z M694.048,662.248 L711.952,662.248 C712.080001,660.32799 711.920002,658.488009 711.472,656.728 C711.023998,654.967991 710.296005,653.400007 709.288,652.024 C708.279995,650.647993 706.992008,649.552004 705.424,648.736 C703.855992,647.919996 702.016011,647.512 699.904,647.512 C698.015991,647.512 696.296008,647.847997 694.744,648.52 C693.191992,649.192003 691.856006,650.111994 690.736,651.28 C689.615994,652.448006 688.752003,653.831992 688.144,655.432 C687.535997,657.032008 687.232,658.759991 687.232,660.616 C687.232,662.53601 687.527997,664.295992 688.12,665.896 C688.712003,667.496008 689.551995,668.871994 690.64,670.024 C691.728005,671.176006 693.055992,672.063997 694.624,672.688 C696.192008,673.312003 697.95199,673.624 699.904,673.624 C702.720014,673.624 705.11999,672.984006 707.104,671.704 C709.08801,670.423994 710.559995,668.296015 711.52,665.32 L705.52,665.32 C705.295999,666.088004 704.688005,666.815997 703.696,667.504 C702.703995,668.192003 701.520007,668.536 700.144,668.536 C698.22399,668.536 696.752005,668.040005 695.728,667.048 C694.703995,666.055995 694.144,664.456011 694.048,662.248 Z M721.264,664.936 C721.264,665.672004 721.415998,666.303997 721.72,666.832 C722.024002,667.360003 722.415998,667.791998 722.896,668.128 C723.376002,668.464002 723.927997,668.711999 724.552,668.872 C725.176003,669.032001 725.823997,669.112 726.496,669.112 C726.976002,669.112 727.479997,669.056001 728.008,668.944 C728.536003,668.831999 729.015998,668.656001 729.448,668.416 C729.880002,668.175999 730.239999,667.856002 730.528,667.456 C730.816001,667.055998 730.96,666.552003 730.96,665.944 C730.96,664.919995 730.280007,664.152003 728.92,663.64 C727.559993,663.127997 725.664012,662.616003 723.232,662.104 C722.239995,661.879999 721.272005,661.616002 720.328,661.312 C719.383995,661.007998 718.544004,660.608002 717.808,660.112 C717.071996,659.615998 716.480002,658.992004 716.032,658.24 C715.583998,657.487996 715.36,656.568005 715.36,655.48 C715.36,653.879992 715.671997,652.568005 716.296,651.544 C716.920003,650.519995 717.743995,649.712003 718.768,649.12 C719.792005,648.527997 720.943994,648.112001 722.224,647.872 C723.504006,647.631999 724.815993,647.512 726.16,647.512 C727.504007,647.512 728.807994,647.639999 730.072,647.896 C731.336006,648.152001 732.463995,648.583997 733.456,649.192 C734.448005,649.800003 735.271997,650.607995 735.928,651.616 C736.584003,652.624005 736.975999,653.895992 737.104,655.432 L730.624,655.432 C730.528,654.119993 730.032004,653.232002 729.136,652.768 C728.239996,652.303998 727.184006,652.072 725.968,652.072 C725.583998,652.072 725.168002,652.096 724.72,652.144 C724.271998,652.192 723.864002,652.295999 723.496,652.456 C723.127998,652.616001 722.816001,652.847998 722.56,653.152 C722.303999,653.456002 722.176,653.863997 722.176,654.376 C722.176,654.984003 722.399998,655.479998 722.848,655.864 C723.296002,656.248002 723.879996,656.559999 724.6,656.8 C725.320004,657.040001 726.143995,657.255999 727.072,657.448 C728.000005,657.640001 728.943995,657.847999 729.904,658.072 C730.896005,658.296001 731.863995,658.567998 732.808,658.888 C733.752005,659.208002 734.591996,659.631997 735.328,660.16 C736.064004,660.688003 736.655998,661.343996 737.104,662.128 C737.552002,662.912004 737.776,663.879994 737.776,665.032 C737.776,666.664008 737.448003,668.031994 736.792,669.136 C736.135997,670.240006 735.280005,671.127997 734.224,671.8 C733.167995,672.472003 731.960007,672.943999 730.6,673.216 C729.239993,673.488001 727.856007,673.624 726.448,673.624 C725.007993,673.624 723.600007,673.480001 722.224,673.192 C720.847993,672.903999 719.624005,672.424003 718.552,671.752 C717.479995,671.079997 716.600003,670.192006 715.912,669.088 C715.223997,667.983994 714.848,666.600008 714.784,664.936 L721.264,664.936 Z" id="Decisiones" fill="#FFFFFF" fill-rule="nonzero"></path>
    </g>
</svg>
