<svg width="79" height="80" viewBox="0 0 79 80" fill="none" xmlns="http://www.w3.org/2000/svg">
<path d="M39.4599 80C61.2531 80 78.9199 62.0914 78.9199 40C78.9199 17.9086 61.2531 0 39.4599 0C17.6668 0 0 17.9086 0 40C0 62.0914 17.6668 80 39.4599 80Z" fill="#9013FE"/>
<path fill-rule="evenodd" clip-rule="evenodd" d="M39.2675 16.5234L44.7119 21.9758L40.0374 26.657V35.4146L42.3904 37.7714L54.6149 30.8463L53.0719 29.3011L58.5163 23.8487L63.9606 29.3011L58.5163 34.7535L55.4622 31.6949L43.2377 38.6196L44.7119 40.0963L40.0374 44.7775V55.8484L42.3908 58.2052L54.6149 51.2801L53.0719 49.7349L58.5163 44.2825L63.9606 49.7349L58.5163 55.1873L55.4626 52.129L43.2381 59.0537L44.7119 60.53L39.2675 65.9824L33.8231 60.53L38.8825 55.4628V45.163L36.4483 42.7253L26.4436 49.1746L28.158 50.8915L22.7136 56.3439L17.2692 50.8915L22.7136 45.4391L25.6082 48.3376L35.6129 41.889L33.8231 40.0963L38.8825 35.0291V27.0426L36.2108 24.3669L23.2263 31.3017L24.6932 32.771L19.2488 38.2234L13.8044 32.771L19.2488 27.3186L22.3724 30.4469L35.3569 23.5118L33.8231 21.9758L39.2675 16.5234Z" fill="white"/>
</svg>
