<svg width="80" height="80" viewBox="0 0 80 80" fill="none" xmlns="http://www.w3.org/2000/svg">
<path d="M39.5181 80C61.3433 80 79.0361 62.0914 79.0361 40C79.0361 17.9086 61.3433 0 39.5181 0C17.6928 0 0 17.9086 0 40C0 62.0914 17.6928 80 39.5181 80Z" fill="#9013FE"/>
<path d="M59.9711 35.036H50.9583C51.9215 37.2864 51.4987 39.9947 49.6679 41.8292L39.3253 52.1923V55.7227C39.3253 57.7389 40.9565 59.3734 42.9687 59.3734H59.9711C61.9833 59.3734 63.6144 57.7389 63.6144 55.7227V38.6866C63.6144 36.6704 61.9833 35.036 59.9711 35.036ZM51.4699 49.03C50.4641 49.03 49.6482 48.2124 49.6482 47.2047C49.6482 46.1962 50.4641 45.3794 51.4699 45.3794C52.4756 45.3794 53.2916 46.1962 53.2916 47.2047C53.2916 48.2124 52.4756 49.03 51.4699 49.03ZM47.9502 34.8307L34.6724 21.5265C33.2181 20.0693 30.8598 20.0693 29.4054 21.5265L16.1269 34.8307C14.6726 36.2879 14.6726 38.6509 16.1269 40.1081L29.4047 53.413C30.859 54.8702 33.2173 54.8702 34.6716 53.413L47.9502 40.1088C49.4045 38.6509 49.4045 36.2879 47.9502 34.8307ZM22.3229 39.295C21.3172 39.295 20.5012 38.4775 20.5012 37.4697C20.5012 36.4613 21.3172 35.6444 22.3229 35.6444C23.3286 35.6444 24.1446 36.4613 24.1446 37.4697C24.1446 38.4775 23.3286 39.295 22.3229 39.295ZM32.0385 49.03C31.0328 49.03 30.2169 48.2124 30.2169 47.2047C30.2169 46.1962 31.0328 45.3794 32.0385 45.3794C33.0443 45.3794 33.8602 46.1962 33.8602 47.2047C33.8602 48.2124 33.0443 49.03 32.0385 49.03ZM32.0385 39.295C31.0328 39.295 30.2169 38.4775 30.2169 37.4697C30.2169 36.4613 31.0328 35.6444 32.0385 35.6444C33.0443 35.6444 33.8602 36.4613 33.8602 37.4697C33.8602 38.4775 33.0443 39.295 32.0385 39.295ZM32.0385 29.5601C31.0328 29.5601 30.2169 28.7425 30.2169 27.7348C30.2169 26.7263 31.0328 25.9095 32.0385 25.9095C33.0443 25.9095 33.8602 26.7263 33.8602 27.7348C33.8602 28.7425 33.0443 29.5601 32.0385 29.5601ZM41.7542 39.295C40.7485 39.295 39.9325 38.4775 39.9325 37.4697C39.9325 36.4613 40.7485 35.6444 41.7542 35.6444C42.7599 35.6444 43.5759 36.4613 43.5759 37.4697C43.5759 38.4775 42.7599 39.295 41.7542 39.295Z" fill="white"/>
</svg>
