<svg width="80" height="80" viewBox="0 0 80 80" fill="none" xmlns="http://www.w3.org/2000/svg">
<path d="M39.5195 80C61.3455 80 79.0389 62.0914 79.0389 40C79.0389 17.9086 61.3455 0 39.5195 0C17.6935 0 0 17.9086 0 40C0 62.0914 17.6935 80 39.5195 80Z" fill="#9013FE"/>
<path d="M52.6346 29.9883H26.0271C18.6768 29.9883 12.7234 35.9406 12.7234 43.2895C12.7234 50.6384 18.6768 56.5907 26.0271 56.5907C29.7522 56.5907 33.1114 55.061 35.5227 52.6003H43.1308C45.5421 55.061 48.9096 56.5907 52.6263 56.5907C59.9767 56.5907 65.9301 50.6384 65.9301 43.2895C65.9301 35.9406 59.985 29.9883 52.6346 29.9883ZM34.0094 44.9521C34.0094 45.5008 33.5604 45.9497 33.0116 45.9497H28.6879V50.2726C28.6879 50.8213 28.2389 51.2702 27.6901 51.2702H24.3642C23.8154 51.2702 23.3664 50.8213 23.3664 50.2726V45.9497H19.0427C18.4939 45.9497 18.0449 45.5008 18.0449 44.9521V41.6268C18.0449 41.0782 18.4939 40.6292 19.0427 40.6292H23.3664V36.3064C23.3664 35.7577 23.8154 35.3088 24.3642 35.3088H27.6901C28.2389 35.3088 28.6879 35.7577 28.6879 36.3064V40.6292H33.0116C33.5604 40.6292 34.0094 41.0782 34.0094 41.6268V44.9521ZM49.3087 50.6051C47.1053 50.6051 45.3176 48.8178 45.3176 46.6148C45.3176 44.4118 47.1053 42.6244 49.3087 42.6244C51.5121 42.6244 53.2998 44.4118 53.2998 46.6148C53.2998 48.8178 51.5121 50.6051 49.3087 50.6051ZM55.9606 43.9545C53.7571 43.9545 51.9695 42.1672 51.9695 39.9642C51.9695 37.7612 53.7571 35.9738 55.9606 35.9738C58.164 35.9738 59.9517 37.7612 59.9517 39.9642C59.9517 42.1672 58.164 43.9545 55.9606 43.9545Z" fill="white"/>
</svg>
