<svg width="80" height="80" viewBox="0 0 80 80" fill="none" xmlns="http://www.w3.org/2000/svg">
<path d="M39.5181 80C61.3433 80 79.0361 62.0914 79.0361 40C79.0361 17.9086 61.3433 0 39.5181 0C17.6928 0 0 17.9086 0 40C0 62.0914 17.6928 80 39.5181 80Z" fill="#9013FE"/>
<path d="M60.864 45.9595C59.9512 45.0893 58.5412 45.1463 57.5794 45.9595L50.4723 51.9695C49.6003 52.7095 48.5163 53.108 47.3915 53.108H38.2876C37.6111 53.108 37.0569 52.5225 37.0569 51.8068C37.0569 51.0911 37.6111 50.5056 38.2876 50.5056H44.3107C45.5414 50.5056 46.6743 49.6192 46.8699 48.3423C47.1226 46.7158 45.9326 45.3008 44.4411 45.3008H32.1259C30.0476 45.3008 28.0345 46.0571 26.4288 47.4396L22.8508 50.5056H18.5801C17.9036 50.5056 17.3494 51.0911 17.3494 51.8068V59.614C17.3494 60.3297 17.9036 60.9152 18.5801 60.9152H46.0386C47.1552 60.9152 48.2392 60.5167 49.1194 59.7767L60.7581 49.9363C61.9317 48.9523 62.0214 47.0655 60.864 45.9595Z" fill="white"/>
<path d="M49.9265 18.905C47.1618 16.5338 43.05 16.9603 40.5123 19.5955L39.5185 20.6262L38.5246 19.5955C35.9919 16.9603 31.8751 16.5338 29.1104 18.905C25.9421 21.6264 25.7756 26.5109 28.611 29.4608L38.3732 39.6054C39.0039 40.2603 40.028 40.2603 40.6586 39.6054L50.4209 29.4608C53.2613 26.5109 53.0948 21.6264 49.9265 18.905Z" fill="white"/>
</svg>
