<svg width="639" height="85" viewBox="0 0 639 85" fill="none" xmlns="http://www.w3.org/2000/svg">
<path d="M169.536 36.0988C165.209 35.5136 160.853 35.1703 156.488 35.0705C154.374 34.8584 152.244 35.2884 150.378 36.3045C148.318 37.9538 147.287 42.9436 147.287 51.274C147.212 54.4173 147.547 57.557 148.284 60.6136C148.595 62.4115 149.459 64.0677 150.756 65.3515C152.069 66.1719 153.607 66.5561 155.152 66.449C157.323 66.4175 159.481 66.1057 161.573 65.5216C164.279 64.7779 166.939 63.8726 169.538 62.8105L172.627 70.9123C171.873 71.3987 171.094 71.8462 170.294 72.2529C168.362 73.1123 166.364 73.8133 164.32 74.3491C161.466 75.1986 158.507 75.6374 155.53 75.6523C152.849 75.7988 150.169 75.3444 147.686 74.3225C145.204 73.3006 142.98 71.7368 141.179 69.7456C137.747 65.81 136.03 59.5849 136.03 51.0703C136.03 43.0158 137.312 36.9957 139.876 33.0101C141.013 31.1882 142.551 29.6507 144.373 28.5153C146.101 27.4263 148.007 26.6474 150.003 26.2136C152.024 25.7945 154.084 25.5877 156.149 25.5966C158.686 25.6212 161.219 25.7929 163.737 26.1108C166.083 26.3569 168.411 26.7579 170.705 27.3111L169.536 36.0988Z" fill="black"/>
<path d="M180.831 72.148C178.438 69.3245 177.243 65.6778 177.501 61.9858C177.355 60.0999 177.713 58.2092 178.539 56.5078C179.366 54.8064 180.63 53.3557 182.203 52.3049C186.396 50.0349 191.142 48.988 195.901 49.2834H201.05C201.24 47.2597 200.933 45.2202 200.156 43.3422C199.559 42.4504 198.22 42.0035 196.14 42.0016C193.812 42.0259 191.491 42.2568 189.205 42.6918C186.343 43.2249 183.512 43.9121 180.725 44.7503L178.529 37.0599C181.125 35.9666 183.83 35.1494 186.597 34.6218C189.673 33.9174 192.815 33.5376 195.971 33.4887C201.602 33.4887 205.631 34.7826 208.057 37.3705C210.68 40.5258 211.984 44.5723 211.695 48.6656V74.7581H204.967L203.591 70.2951H203.18C202.63 70.7064 201.909 71.21 201.017 71.8058C199.409 72.7462 197.72 73.5394 195.97 74.1756C193.84 75.0861 191.557 75.5866 189.242 75.6508C187.672 75.695 186.11 75.4056 184.661 74.8018C183.211 74.1979 181.905 73.2934 180.831 72.148V72.148ZM201.054 57.1806C198.924 56.9208 196.779 56.8058 194.633 56.8365C192.851 56.623 191.047 56.9839 189.484 57.8668C189.043 58.4099 188.715 59.0364 188.52 59.7088C188.325 60.3813 188.268 61.0861 188.351 61.7812C188.217 63.1857 188.542 64.596 189.279 65.7995C189.635 66.1938 190.077 66.5009 190.572 66.697C191.066 66.8931 191.598 66.9731 192.128 66.9306C194.759 66.8697 197.342 66.2119 199.682 65.0066L201.054 64.3204L201.054 57.1806Z" fill="black"/>
<path d="M231.644 37.2319C232.928 36.3536 234.283 35.5843 235.696 34.9321C237.392 34.0357 239.271 33.5424 241.189 33.4906C242.591 33.4287 243.988 33.6877 245.274 34.2479L244.449 43.4471C243.195 43.3119 241.934 43.2432 240.672 43.2415C237.634 43.2322 234.656 44.0897 232.088 45.7133V74.7583H221.445V34.3833H228.038L229.411 38.6388H229.822C230.281 38.2755 230.888 37.8066 231.644 37.2319Z" fill="black"/>
<path d="M282.906 22.5057V74.7603H276.038L274.94 70.8459H274.529C270.805 73.6809 266.326 75.3532 261.654 75.6532C259.746 75.6411 257.87 75.1583 256.194 74.2477C254.517 73.337 253.091 72.0266 252.042 70.4326C249.455 66.9562 248.162 61.7608 248.162 54.8463C248.081 51.2424 248.58 47.6489 249.639 44.2034C250.378 41.672 251.762 39.3762 253.655 37.5413C256.603 34.8687 260.458 33.4198 264.436 33.4895C267.077 33.5242 269.704 33.87 272.263 34.5198V22.5057H282.906ZM272.261 43.5165C270.029 42.6307 267.658 42.1428 265.257 42.075C263.794 41.8938 262.317 42.2872 261.138 43.1725C259.811 44.5923 259.148 48.4602 259.147 54.7763C259.146 61.0924 259.788 64.7777 261.071 65.8322C261.818 66.4024 262.741 66.6943 263.68 66.6574C266.658 66.4519 269.57 65.6829 272.262 64.3913L272.261 43.5165Z" fill="black"/>
<path d="M329.39 41.662C329.39 48.9406 326.118 53.7472 319.572 56.0816V56.4929L331.316 74.7588H318.818L309.961 57.5904L303.781 57.4539V74.7588H293L293.275 52.3739L293 26.554C303.894 25.9153 309.982 25.5956 311.264 25.5949C323.349 25.5949 329.391 30.9506 329.39 41.662ZM303.779 48.5297C306.504 48.8281 309.242 48.9884 311.984 49.0102C312.876 49.1124 313.779 49.0142 314.628 48.7227C315.478 48.4312 316.251 47.9538 316.892 47.3254C318.017 45.3718 318.498 43.1141 318.268 40.8719C318.268 37.6901 317.696 35.7331 316.551 35.0007C314.826 34.2853 312.953 34.0021 311.094 34.1755C308.65 34.1533 306.207 34.2907 303.781 34.5868V48.5306L303.779 48.5297Z" fill="black"/>
<path d="M340.134 72.148C337.741 69.3245 336.546 65.6778 336.804 61.9858C336.657 60.0996 337.016 58.2086 337.843 56.507C338.67 54.8055 339.935 53.3548 341.508 52.3041C345.702 50.0341 350.448 48.9872 355.208 49.2826H360.358C360.547 47.2594 360.241 45.2205 359.466 43.3422C358.871 42.4504 357.532 42.0035 355.45 42.0016C353.122 42.0259 350.8 42.2568 348.513 42.6918C345.652 43.2249 342.822 43.9121 340.036 44.7503L337.838 37.0599C340.434 35.9666 343.139 35.1494 345.906 34.6218C348.981 33.9164 352.121 33.5366 355.275 33.4887C360.911 33.4887 364.94 34.7826 367.363 37.3705C369.987 40.5259 371.29 44.5724 371.001 48.6656V74.7581H364.274L362.898 70.2951H362.487C361.937 70.7064 361.215 71.21 360.322 71.8058C358.714 72.7474 357.024 73.5406 355.273 74.1756C353.143 75.0862 350.861 75.5867 348.546 75.6508C346.976 75.695 345.414 75.4056 343.964 74.8018C342.514 74.198 341.208 73.2935 340.134 72.148V72.148ZM360.357 57.1806C358.228 56.9207 356.083 56.8058 353.938 56.8365C352.156 56.6227 350.352 56.9836 348.789 57.8668C348.347 58.4097 348.019 59.0361 347.824 59.7086C347.629 60.3812 347.572 61.086 347.656 61.7812C347.521 63.1855 347.846 64.5957 348.581 65.7995C348.938 66.1937 349.38 66.5007 349.875 66.6968C350.369 66.8929 350.901 66.9729 351.431 66.9306C354.062 66.8697 356.645 66.2118 358.985 65.0066L360.355 64.3204V57.1806H360.357Z" fill="black"/>
<path d="M392.357 36.3756H400.599V44.5465H392.218V61.5073C392.079 62.9332 392.292 64.3714 392.839 65.6955C393.125 66.0247 393.487 66.2783 393.894 66.4339C394.301 66.5894 394.74 66.6422 395.173 66.5874L400.46 66.2433V74.8973C398.024 75.4203 395.537 75.6736 393.045 75.6527C391.463 75.7937 389.869 75.6005 388.366 75.0857C386.864 74.5708 385.486 73.7457 384.323 72.664C382.492 70.6727 381.577 66.8621 381.577 61.2323V44.3388H376.908V37.6788L382.057 36.7196L383.635 27.1744H392.356V36.3756H392.357Z" fill="black"/>
<path d="M424.081 75.6521C411.625 75.6521 405.4 68.6255 405.404 54.5723C405.404 40.5184 411.583 33.4911 423.942 33.4906C429.481 33.4906 433.647 34.9671 436.44 37.9202C439.233 40.8733 440.629 45.7603 440.628 52.5812V58.2804H416.458C416.458 62.1246 417.167 64.665 418.584 65.9016C419.723 66.8306 421.171 67.296 422.638 67.2048C426.794 67.0423 430.908 66.3029 434.86 65.0079L437.265 64.2525L439.873 71.9448C437.397 73.0457 434.821 73.9085 432.181 74.5216C429.535 75.2181 426.816 75.5976 424.081 75.6521V75.6521ZM428.542 43.3798C427.873 42.7893 427.086 42.3487 426.233 42.0878C425.38 41.8268 424.481 41.7516 423.596 41.867C422.639 41.7716 421.672 41.8815 420.76 42.1894C419.848 42.4973 419.012 42.9961 418.308 43.6526C416.999 45.7189 416.374 48.1458 416.525 50.5876L429.776 50.3126C429.948 47.935 429.524 45.5522 428.542 43.3798H428.542Z" fill="black"/>
<path d="M460.676 42.0035C459.503 41.8741 458.318 42.1022 457.277 42.6579C457.004 42.9014 456.792 43.2042 456.655 43.5429C456.518 43.8817 456.461 44.2474 456.488 44.6117C456.496 45.0587 456.606 45.4979 456.808 45.8965C457.011 46.2952 457.301 46.6428 457.656 46.9134C458.346 47.5243 459.136 48.0119 459.992 48.355C460.769 48.6512 461.673 48.9485 462.703 49.2468C463.733 49.5451 465.266 49.9914 467.302 50.5855C468.974 51.0395 470.596 51.6609 472.143 52.4403C473.835 53.3429 475.233 54.7118 476.17 56.3848C477.107 58.0578 477.545 59.9645 477.431 61.8787C477.537 63.7541 477.236 65.6302 476.549 67.3785C475.862 69.1267 474.805 70.7057 473.45 72.0073C470.318 74.5996 466.315 75.9014 462.257 75.6479C459.594 75.63 456.943 75.2955 454.359 74.6513C452.183 74.1664 450.047 73.5125 447.972 72.6956L445.777 71.6653L448.387 63.2887C452.864 65.4335 457.714 66.6932 462.669 66.9985C463.775 67.0806 464.879 66.8159 465.827 66.2412C466.206 65.899 466.497 65.471 466.676 64.9931C466.855 64.5153 466.917 64.0014 466.857 63.4946C466.91 62.8716 466.767 62.2477 466.446 61.7109C466.171 61.3432 465.944 61.0584 465.76 60.8508C465.52 60.6012 465.242 60.3928 464.934 60.2338C464.567 60.0281 464.257 59.8686 464.007 59.7552C463.752 59.6386 463.378 59.4903 462.876 59.3062C462.37 59.1242 461.984 58.9888 461.705 58.8949C461.43 58.802 460.976 58.6655 460.335 58.4835C459.694 58.3016 458.972 58.0815 458.169 57.831C457.366 57.5805 456.763 57.3841 456.348 57.2457C455.939 57.1093 455.127 56.812 453.912 56.3539C453.022 56.0545 452.171 55.6516 451.375 55.1535C450.892 54.8095 450.228 54.3052 449.381 53.6407C448.627 53.086 448.005 52.3705 447.562 51.5459C446.632 49.6658 446.139 47.6 446.12 45.5027C446.038 43.8419 446.335 42.184 446.989 40.6551C447.643 39.1263 448.637 37.7666 449.895 36.6794C453.168 34.3188 457.168 33.188 461.193 33.4859C466.128 33.4749 471.032 34.2635 475.715 35.8212L474.137 44.0614C469.752 42.8212 465.231 42.1299 460.676 42.0035H460.676Z" fill="black"/>
<path d="M482.79 74.7603V65.3534H494.805V74.7603H482.79Z" fill="black"/>
<path d="M531.611 43.0358C527.877 42.3981 524.102 42.0304 520.315 41.9355C518.305 41.7078 516.282 42.2474 514.652 43.4463C512.961 45.232 512.114 49.0425 512.111 54.878C512.111 60.7155 513.209 64.4812 515.405 66.1752C516.405 66.8881 517.612 67.2503 518.838 67.2054C522.303 66.9964 525.701 66.1589 528.866 64.7337L530.927 63.911L533.808 71.463C533.237 71.8872 532.641 72.2774 532.024 72.6317C530.437 73.4009 528.782 74.0212 527.08 74.4845C524.59 75.2597 521.997 75.6537 519.388 75.6532C516.923 75.7792 514.458 75.3826 512.157 74.4892C509.855 73.5958 507.769 72.2258 506.034 70.4692C502.762 67.0133 501.125 61.6682 501.124 54.4339C501.124 46.3794 503.139 40.7944 507.167 37.6788C511.226 34.7335 516.166 33.2566 521.176 33.4906C525.093 33.4894 528.994 33.998 532.78 35.0034L531.611 43.0358Z" fill="black"/>
<path d="M541.806 38.881C544.528 35.2879 549.095 33.4904 555.506 33.4885C561.916 33.4865 566.46 35.2721 569.136 38.8455C571.816 42.4143 573.156 47.6559 573.154 54.5704C573.154 61.4823 571.815 66.7239 569.136 70.2953C566.461 73.8641 561.917 75.649 555.506 75.6502C549.094 75.6513 544.527 73.8538 541.806 70.2576C539.085 66.6665 537.723 61.4368 537.722 54.5685C537.72 47.7001 539.082 42.471 541.806 38.881ZM562.304 54.5723C562.304 49.3518 561.835 45.884 560.896 44.1688C560.237 43.3608 559.405 42.7102 558.462 42.2644C557.519 41.8187 556.489 41.589 555.446 41.5922C554.403 41.5954 553.374 41.8315 552.434 42.283C551.494 42.7346 550.666 43.3904 550.012 44.2025C549.051 45.9426 548.571 49.3986 548.571 54.5704C548.571 59.7422 549.051 63.1981 550.012 64.9383C550.667 65.75 551.494 66.4053 552.434 66.8566C553.375 67.3078 554.404 67.5435 555.446 67.5466C556.489 67.5496 557.52 67.3199 558.462 66.8741C559.405 66.4284 560.237 65.7779 560.896 64.97C561.835 63.2574 562.305 59.7915 562.304 54.5723H562.304Z" fill="black"/>
<path d="M591.832 74.7602H581.185V34.3833H587.983L589.219 38.435H589.631C591.323 37.4266 592.652 36.6594 593.615 36.1333C595.029 35.4202 596.498 34.8236 598.009 34.3496C599.797 33.7178 601.676 33.3812 603.572 33.3531C605.402 33.2316 607.226 33.6649 608.806 34.5962C610.386 35.5275 611.649 36.9137 612.429 38.5736C614.076 37.5216 615.427 36.6969 616.481 36.0997C617.865 35.3644 619.312 34.7561 620.806 34.2824C622.507 33.687 624.293 33.373 626.095 33.3528C627.713 33.1989 629.342 33.4845 630.81 34.1796C632.279 34.8747 633.532 35.9535 634.438 37.3019C636.242 40.6843 637.085 44.4959 636.876 48.3234V74.7602H626.095V50.1763C626.095 46.6525 625.787 44.5129 625.17 43.7575C624.802 43.3581 624.348 43.0482 623.841 42.8518C623.335 42.6554 622.791 42.5776 622.25 42.6245C619.313 42.7689 616.488 43.798 614.146 45.5768C614.239 47.042 614.28 48.185 614.28 49.0096V74.7583H603.639V50.1763C603.639 46.605 603.342 44.4528 602.748 43.7199C602.404 43.3383 601.978 43.0409 601.501 42.8506C601.024 42.6603 600.51 42.5822 599.999 42.6224C598.563 42.6622 597.146 42.9526 595.811 43.4806C594.401 43.9781 593.062 44.6589 591.83 45.5055V74.7602H591.832Z" fill="black"/>
<path d="M26.5509 42.4622L26.7329 42.3158C28.3045 41.0299 30.2896 40.3584 32.3191 40.426C34.3486 40.4936 36.2845 41.2958 37.767 42.6835L51.2791 55.3353L71.1389 32.5983C71.8847 31.748 72.7942 31.0568 73.8132 30.566C74.8321 30.0752 75.9396 29.7949 77.0694 29.7419L77.3383 29.734C79.5288 29.7172 81.6413 30.5468 83.2351 32.0497L88.7167 37.2861L98.4921 24.3336C98.0413 24.29 97.6035 24.1991 97.1416 24.1991H27.6522C25.8975 24.1988 24.16 24.5441 22.5388 25.2153C20.9176 25.8866 19.4444 26.8706 18.2035 28.1111C16.9625 29.3517 15.9781 30.8245 15.3064 32.4455C14.6346 34.0665 14.2887 35.8039 14.2885 37.5586V55.1226L26.5509 42.4622Z" fill="black"/>
<path d="M96.4213 54.8986C95.708 55.8427 94.8031 56.6253 93.7661 57.1951C92.729 57.7649 91.5833 58.109 90.4039 58.2049C90.2041 58.2207 89.9511 58.2345 89.6959 58.2345C87.5483 58.2322 85.4853 57.3972 83.9407 55.9051L77.9918 50.2218L58.1902 72.8896C57.4485 73.7365 56.5441 74.4258 55.5308 74.9165C54.5175 75.4072 53.416 75.6893 52.2916 75.7461L51.8472 75.7579C49.7305 75.7444 47.6962 74.9355 46.1481 73.4918L32.0289 60.2645L16.9606 76.2395C18.1946 77.9161 19.8049 79.2798 21.662 80.2209C23.519 81.1619 25.571 81.654 27.6528 81.6577H97.1407C98.8953 81.6577 100.633 81.3122 102.254 80.6408C103.875 79.9693 105.348 78.9852 106.589 77.7445C107.829 76.5039 108.814 75.031 109.485 73.4099C110.157 71.7889 110.502 70.0515 110.502 68.2968V37.5571C110.502 37.1596 110.419 36.7819 110.386 36.3934L96.4213 54.8986Z" fill="black"/>
<path d="M125.049 2.97812L108.995 9.7767L112.497 12.4216L89.2014 43.2937L80.4689 34.9489C79.5968 34.1393 78.4409 33.706 77.2515 33.7428C76.6615 33.7696 76.0831 33.9157 75.5512 34.1723C75.0193 34.429 74.545 34.7907 74.1568 35.2358L51.5677 61.0979L35.0301 45.6096C34.2556 44.8852 33.2445 44.4667 32.1847 44.4317C31.1248 44.3966 30.0883 44.7475 29.2677 45.4192L3.70705 71.8079C3.26159 72.17 2.8918 72.6162 2.6188 73.1211C2.34579 73.6261 2.17491 74.1798 2.11592 74.7508C2.05693 75.3218 2.11097 75.8988 2.27497 76.4489C2.43898 76.999 2.70972 77.5114 3.07175 77.9568C3.43378 78.4023 3.88 78.7721 4.38494 79.0451C4.88988 79.3181 5.44364 79.489 6.01462 79.548C6.5856 79.607 7.1626 79.5529 7.71269 79.3889C8.26278 79.2249 8.77519 78.9542 9.22064 78.5921L9.25577 78.5632L31.8525 54.6097L48.8905 70.5651C49.309 70.9575 49.8007 71.2637 50.3376 71.4661C50.8744 71.6686 51.4459 71.7633 52.0193 71.7448C52.5928 71.7264 53.157 71.5952 53.6797 71.3587C54.2024 71.1223 54.6735 70.7851 55.0659 70.3666C55.1009 70.3292 55.1353 70.2913 55.169 70.2528L77.7301 44.4262L86.7119 53.0084C87.1546 53.439 87.685 53.769 88.2669 53.9758C88.8487 54.1826 89.4684 54.2615 90.0836 54.2069C90.6983 54.1575 91.2956 53.9786 91.8362 53.6817C92.3767 53.3848 92.8483 52.9768 93.2197 52.4845L119.48 17.6906L122.908 20.2792L125.049 2.97812Z" fill="black"/>
</svg>
