<?xml version="1.0" encoding="UTF-8"?>
<svg width="751px" height="800px" viewBox="0 0 751 800" version="1.1" xmlns="http://www.w3.org/2000/svg" xmlns:xlink="http://www.w3.org/1999/xlink">
    <!-- Generator: Sketch 58 (84663) - https://sketch.com -->
    <title>symbol-CURATE</title>
    <desc>Created with Sketch.</desc>
    <defs>
        <linearGradient x1="50%" y1="0%" x2="50%" y2="100%" id="linearGradient1">
            <stop stop-color="#9013FE" offset="0%"></stop>
            <stop stop-color="#4D00B4" offset="100%"></stop>
        </linearGradient>
    </defs>
    <g id="symbol-CURATE" stroke="none" stroke-width="1" fill="none" fill-rule="evenodd">
        <g id="Group-152" transform="translate(0.000000, 19.000000)">
            <path d="M387.991997,4.00593466 L704.112878,186.493236 C708.407867,188.972607 711.053753,193.555101 711.053753,198.514356 L711.053753,563.485644 C711.053753,568.444899 708.407867,573.027393 704.112878,575.506764 L387.991997,757.994065 C383.697778,760.472992 378.407338,760.472992 374.113118,757.994065 L57.992238,575.506764 C53.697249,573.027393 51.0513626,568.444899 51.0513626,563.485644 L51.0513626,198.514356 C51.0513626,193.555101 53.697249,188.972607 57.992238,186.493236 L374.113118,4.00593466 C378.407338,1.52700786 383.697778,1.52700786 387.991997,4.00593466 Z" id="Polygon" fill="#AE52FF"></path>
            <path d="M387.391915,37.6059347 L673.89064,202.993236 C678.185629,205.472607 680.831516,210.055101 680.831516,215.014356 L680.831516,545.785644 C680.831516,550.744899 678.185629,555.327393 673.89064,557.806764 L387.391915,723.194065 C383.097695,725.672992 377.807255,725.672992 373.513036,723.194065 L87.0143098,557.806764 C82.7193208,555.327393 80.0734343,550.744899 80.0734343,545.785644 L80.0734343,215.014356 C80.0734343,210.055101 82.7193208,205.472607 87.0143098,202.993236 L373.513036,37.6059347 C377.807255,35.1270079 383.097695,35.1270079 387.391915,37.6059347 Z" id="Polygon" fill="url(#linearGradient1)" transform="translate(380.452475, 380.400000) scale(1, -1) translate(-380.452475, -380.400000) "></path>
            <rect id="Rectangle" fill="#9013FE" x="189.626155" y="196.8" width="381.652641" height="21.6"></rect>
            <rect id="Rectangle" fill="#9013FE" x="189.626155" y="265.2" width="381.652641" height="21.6"></rect>
            <rect id="Rectangle" fill="#9013FE" x="189.626155" y="333.6" width="381.652641" height="21.6"></rect>
            <rect id="Rectangle" fill="#9013FE" x="189.626155" y="402" width="381.652641" height="21.6"></rect>
            <rect id="Rectangle" fill="#9013FE" x="189.626155" y="470.4" width="381.652641" height="21.6"></rect>
            <path d="M381.266238,728.705563 L80.2136911,558.985471 C78.6726574,558.116705 78.1276772,556.163176 78.9964437,554.622142 C79.2827293,554.114323 79.7021714,553.69426 80.209566,553.407224 L382.852806,382.2 L382.852806,382.2 L680.899251,553.121337 C682.433864,554.001395 682.964486,555.958873 682.084428,557.493486 C681.801564,557.986735 681.3925,558.395799 680.899251,558.678663 L384.432765,728.693938 C383.453106,729.255745 382.249995,729.260162 381.266238,728.705563 Z" id="Path-114" fill="#4D00B4"></path>
            <path d="M221.302844,535.520314 L464.936448,684.320314 C467.76471,686.047684 471.457972,685.155551 473.18558,682.32768 C474.913188,679.499808 474.020932,675.807055 471.19267,674.079686 L227.559066,525.279686 C224.730805,523.552316 221.037543,524.444449 219.309935,527.27232 C217.582326,530.100192 218.474582,533.792945 221.302844,535.520314 Z" id="Path-115" fill="#9013FE" fill-rule="nonzero"></path>
            <path d="M367.72304,451.520314 L611.356643,600.320314 C614.184905,602.047684 617.878167,601.155551 619.605775,598.32768 C621.333383,595.499808 620.441127,591.807055 617.612866,590.079686 L373.979262,441.279686 C371.151,439.552316 367.457738,440.444449 365.73013,443.27232 C364.002522,446.100192 364.894778,449.792945 367.72304,451.520314 Z" id="Path-115" fill="#9013FE" fill-rule="nonzero"></path>
            <path d="M382.587209,140.431952 L493.532235,204.458151 C494.854039,205.220962 495.668367,206.631111 495.668367,208.157233 L495.668367,451.842767 C495.668367,453.368889 494.854039,454.779038 493.532235,455.541849 L382.587209,519.568048 C381.266154,520.330427 379.638796,520.330427 378.317741,519.568048 L267.372715,455.541849 C266.050911,454.779038 265.236584,453.368889 265.236584,451.842767 L265.236584,208.157233 C265.236584,206.631111 266.050911,205.220962 267.372715,204.458151 L378.317741,140.431952 C379.638796,139.669573 381.266154,139.669573 382.587209,140.431952 Z" id="Polygon" fill="#FFFFFF" transform="translate(380.452475, 330.000000) scale(1, -1) translate(-380.452475, -330.000000) "></path>
            <path d="M361.569329,291.126675 L324.514182,253.994361 C322.287978,251.763521 322.287978,248.146468 324.514182,245.915405 L332.576126,237.836448 C334.80233,235.605385 338.412089,235.605385 340.638293,237.836448 L365.600413,262.850328 L419.066492,209.27313 C421.292695,207.04229 424.902455,207.04229 427.128658,209.27313 L435.190602,217.352086 C437.416806,219.582926 437.416806,223.199979 435.190602,225.431042 L369.631496,291.126898 C367.40507,293.357738 363.795533,293.357738 361.569329,291.126675 L361.569329,291.126675 Z" id="Path" fill="#4D00B4" fill-rule="nonzero"></path>
            <path d="M239.167906,390.032595 L323.763503,438.86715 C325.085038,439.630033 325.899157,441.040031 325.899157,442.565956 L325.899157,540.234044 C325.899157,541.759969 325.085038,543.169967 323.763503,543.93285 L239.167906,592.767405 C237.846607,593.530151 236.21878,593.530151 234.897481,592.767405 L150.301884,543.93285 C148.980349,543.169967 148.16623,541.759969 148.16623,540.234044 L148.16623,442.565956 C148.16623,441.040031 148.980349,439.630033 150.301884,438.86715 L234.897481,390.032595 C236.21878,389.269849 237.846607,389.269849 239.167906,390.032595 Z" id="Polygon" fill="#EBD4FF" transform="translate(237.032693, 491.400000) scale(1, -1) translate(-237.032693, -491.400000) "></path>
            <path d="M237.032693,532.8 C259.900436,532.8 278.438404,514.264589 278.438404,491.4 C278.438404,468.535411 259.900436,450 237.032693,450 C214.164951,450 195.626982,468.535411 195.626982,491.4 C195.626982,514.264589 214.164951,532.8 237.032693,532.8 Z M237.032693,518.4 C222.118948,518.4 210.028969,506.311688 210.028969,491.4 C210.028969,476.488312 222.118948,464.4 237.032693,464.4 C251.946439,464.4 264.036418,476.488312 264.036418,491.4 C264.036418,506.311688 251.946439,518.4 237.032693,518.4 Z" id="Oval" fill="#9013FE" fill-rule="nonzero"></path>
            <ellipse id="Oval" fill="#FFFFFF" cx="475.265552" cy="508.8" rx="7.20099322" ry="7.2"></ellipse>
            <ellipse id="Oval" fill="#FFFFFF" cx="493.268035" cy="519.6" rx="7.20099322" ry="7.2"></ellipse>
            <ellipse id="Oval" fill="#FFFFFF" cx="511.270519" cy="530.4" rx="7.20099322" ry="7.2"></ellipse>
            <ellipse id="Oval" fill="#FFFFFF" cx="580.88012" cy="573.6" rx="7.20099322" ry="7.2"></ellipse>
            <ellipse id="Oval" fill="#FFFFFF" cx="309.642708" cy="580.8" rx="7.20099322" ry="7.2"></ellipse>
            <ellipse id="Oval" fill="#FFFFFF" cx="370.851151" cy="619.2" rx="7.20099322" ry="7.2"></ellipse>
            <ellipse id="Oval" fill="#FFFFFF" cx="388.853634" cy="630" rx="7.20099322" ry="7.2"></ellipse>
        </g>
    </g>
</svg>