<?xml version="1.0" encoding="UTF-8"?>
<svg width="1200px" height="790px" viewBox="0 0 1200 790" version="1.1" xmlns="http://www.w3.org/2000/svg" xmlns:xlink="http://www.w3.org/1999/xlink">
    <!-- Generator: Sketch 58 (84663) - https://sketch.com -->
    <title>ESPwebsite integrations4</title>
    <desc>Created with Sketch.</desc>
    <defs>
        <linearGradient x1="50%" y1="0%" x2="50%" y2="100%" id="curationESLinearGradient1">
            <stop stop-color="#8400DB" offset="0%"></stop>
            <stop stop-color="#4D00B4" offset="100%"></stop>
        </linearGradient>
        <linearGradient x1="0%" y1="49.9999777%" x2="100.000024%" y2="49.9999777%" id="curationESLinearGradient2">
            <stop stop-color="#A3A2A5" offset="0%"></stop>
            <stop stop-color="#9F9EA0" offset="27.05%"></stop>
            <stop stop-color="#929194" offset="56.07%"></stop>
            <stop stop-color="#7C7C80" offset="85.92%"></stop>
            <stop stop-color="#707073" offset="100%"></stop>
        </linearGradient>
        <linearGradient x1="-0.661193461%" y1="79.9148322%" x2="70.3915924%" y2="24.2689758%" id="curationESLinearGradient3">
            <stop stop-color="#969598" offset="0%"></stop>
            <stop stop-color="#908F92" offset="33.96%"></stop>
            <stop stop-color="#7F7F82" offset="79.17%"></stop>
            <stop stop-color="#757578" offset="100%"></stop>
        </linearGradient>
        <linearGradient x1="6.06021085%" y1="-2.83492963%" x2="50.00952%" y2="85.0511445%" id="curationESLinearGradient4">
            <stop stop-color="#9E9EA0" offset="0%"></stop>
            <stop stop-color="#9B9B9D" offset="27.59%"></stop>
            <stop stop-color="#919194" offset="49.4%"></stop>
            <stop stop-color="#808083" offset="69.23%"></stop>
            <stop stop-color="#69696D" offset="87.77%"></stop>
            <stop stop-color="#55565A" offset="100%"></stop>
        </linearGradient>
    </defs>
    <g id="ESPwebsite-integrations4" stroke="none" stroke-width="1" fill="none" fill-rule="evenodd">
        <path d="M312.5,646 C450.84733,646 563,533.84733 563,395.5 C563,257.15267 450.84733,145 312.5,145 C174.15267,145 62,257.15267 62,395.5 C62,533.84733 174.15267,646 312.5,646 Z M312.5,640 C177.466379,640 68,530.533621 68,395.5 C68,260.466379 177.466379,151 312.5,151 C447.533621,151 557,260.466379 557,395.5 C557,530.533621 447.533621,640 312.5,640 Z" id="Oval" fill="#9013FE" fill-rule="nonzero"></path>
        <circle id="Oval" fill="url(#curationESLinearGradient1)" cx="312.5" cy="395.5" r="244.5"></circle>
        <g id="Group-2" transform="translate(758.000000, 261.000000)">
            <circle id="Oval" fill="#FFFFFF" cx="135" cy="135" r="135"></circle>
            <g id="kleros-symbol" transform="translate(51.000000, 60.000000)" fill-rule="nonzero">
                <polygon id="Path" fill="#45464D" opacity="0.7" points="133.381411 3.77718897 49.0824928 0 0 61.5574073 34.3923467 143.824633 119.534475 149 168 79.7930126"></polygon>
                <g id="Group">
                    <polygon id="Path" fill="#656569" points="167.847575 79.7154168 119.890532 30.9128112 107.277449 124.531491"></polygon>
                    <polygon id="Path" fill="url(#curationESLinearGradient2)" points="32.7506551 68.7388056 119.890532 30.9128112 107.277449 124.531491"></polygon>
                    <polygon id="Path" fill="url(#curationESLinearGradient3)" points="119.890532 30.9128112 49.0898492 0.0698111888 32.7506551 68.7388056"></polygon>
                    <polygon id="Path" fill="url(#curationESLinearGradient4)" points="32.7506551 68.7388056 34.4194413 143.629331 107.277449 124.531491"></polygon>
                    <polygon id="Path" fill="#757578" points="119.890532 30.9128112 133.275501 3.84003217 49.0898492 0.0698111888"></polygon>
                    <polygon id="Path" fill="#6C6D70" points="133.275501 3.84003217 167.847575 79.7154168 119.890532 30.9128112"></polygon>
                    <polygon id="Path" fill="#6C6D70" points="167.847575 79.7154168 119.447169 148.794734 107.277449 124.531491"></polygon>
                    <polygon id="Path" fill="#55565A" points="119.447169 148.794734 34.4194413 143.629331 107.277449 124.531491"></polygon>
                    <polygon id="Path" fill="#55565A" points="49.0898492 0.0698111888 0.0733053152 61.5134517 32.7506551 68.7388056"></polygon>
                    <polygon id="Path" fill="#656569" points="0.0733053152 61.5134517 34.4194413 143.629331 32.7506551 68.7388056"></polygon>
                    <polygon id="Path" fill="#151A22" opacity="0.7" points="110.972618 43.8064168 102.140262 110.92206 50.0835204 70.5143021"></polygon>
                    <polygon id="Path" fill="#151A22" opacity="0.7" points="103.923263 30.4235077 55.2628628 9.38866713 45.0412361 53.614993"></polygon>
                    <polygon id="Path" fill="#23262E" opacity="0.7" points="91.5896959 121.089695 38.7052064 83.1778434 39.9842077 134.550126"></polygon>
                    <polygon id="Path" fill="#23262E" opacity="0.7" points="158.961642 79.5478699 122.923461 42.8348951 113.411214 113.432971"></polygon>
                    <polygon id="Path" fill="#43444B" opacity="0.7" points="103.988885 129.346796 111.838368 144.42247 59.3874808 141.050694"></polygon>
                    <polygon id="Path" fill="#34363D" opacity="0.7" points="151.918517 96.2048196 112.876895 125.404027 120.634591 140.624533"></polygon>
                    <polygon id="Path" fill="#34363D" opacity="0.7" points="133.451392 14.4413301 154.093795 58.8747972 125.868756 30.0698671"></polygon>
                    <polygon id="Path" fill="#36383F" opacity="0.7" points="124.003728 6.96236364 115.323797 22.8964028 74.4391595 4.94284056"></polygon>
                    <polygon id="Path" fill="#3B3C43" opacity="0.7" points="42.1401731 14.1900098 30.6345612 63.136614 7.42335723 58.2006503"></polygon>
                    <polygon id="Path" fill="#45464D" opacity="0.7" points="29.2346996 71.7694448 30.2474759 124.369779 5.91177256 66.8122252"></polygon>
                </g>
            </g>
        </g>
        <path d="M893.5,585 C998.15796,585 1083,500.15796 1083,395.5 C1083,290.84204 998.15796,206 893.5,206 C788.84204,206 704,290.84204 704,395.5 C704,500.15796 788.84204,585 893.5,585 Z M893.5,583 C789.946609,583 706,499.053391 706,395.5 C706,291.946609 789.946609,208 893.5,208 C997.053391,208 1081,291.946609 1081,395.5 C1081,499.053391 997.053391,583 893.5,583 Z" id="Oval" fill="#9013FE" fill-rule="nonzero"></path>
        <path d="M893.5,632 C1024.11534,632 1130,526.115343 1130,395.5 C1130,264.884657 1024.11534,159 893.5,159 C762.884657,159 657,264.884657 657,395.5 C657,526.115343 762.884657,632 893.5,632 Z M893.5,630 C763.989226,630 659,525.010774 659,395.5 C659,265.989226 763.989226,161 893.5,161 C1023.01077,161 1128,265.989226 1128,395.5 C1128,525.010774 1023.01077,630 893.5,630 Z" id="Oval" fill="#9013FE" fill-rule="nonzero"></path>
        <g id="cart-plus-solid" transform="translate(263.000000, 230.000000)" fill="#9013FE" fill-rule="nonzero">
            <path d="M70,27 C70,12.0825 54.3341346,0 35,0 C15.6658654,0 0,12.0825 0,27 C0,32.788125 2.37259615,38.120625 6.39423077,42.525 C4.13942308,47.62125 0.420673077,51.67125 0.370192308,51.721875 C0,52.11 -0.100961538,52.68375 0.117788462,53.19 C0.336538462,53.69625 0.807692308,54 1.34615385,54 C7.50480769,54 12.6033654,51.924375 16.2716346,49.78125 C21.6899038,52.430625 28.1009615,54 35,54 C54.3341346,54 70,41.9175 70,27 Z M90.6302227,63.5232068 C94.6364774,59.1350211 97,53.7848101 97,47.9957806 C97,36.7046414 88.032024,27.0337553 75.3259945,23 C75.4768576,24.1139241 75.5439079,25.2447257 75.5439079,26.3924051 C75.5439079,44.2658228 57.490618,58.7974684 35.3137353,58.7974684 C33.5033775,58.7974684 31.7433075,58.6624473 30,58.4767932 C35.2802102,68.1814346 47.6845134,75 62.1338504,75 C69.0065049,75 75.3930448,73.4472574 80.7905929,70.7805907 C84.4448336,72.9240506 89.5238929,75 95.6589942,75 C96.1953965,75 96.6815111,74.6793249 96.882662,74.1898734 C97.1005754,73.7004219 97,73.1265823 96.6312234,72.721519 C96.5809357,72.6708861 92.8764073,68.6371308 90.6302227,63.5232068 Z" id="Shape"></path>
        </g>
        <circle id="Oval" fill="#9013FE" cx="1017.5" cy="196.5" r="10.5"></circle>
        <circle id="Oval" fill="#9013FE" cx="705.5" cy="384.5" r="10.5"></circle>
        <circle id="Oval" fill="#9013FE" cx="996.5" cy="554.5" r="10.5"></circle>
        <polygon id="Path-17" fill="#FFFFFF" fill-rule="nonzero" points="895.461373 48 896.144 83.028 906.142645 82.8330646 894.612925 107.0625 882.147209 83.3010622 892.145 83.106 891.538627 52 314 52 314 107.0625 310 107.0625 310 48"></polygon>
        <polygon id="Path-17" fill="#FFFFFF" fill-rule="nonzero" transform="translate(608.071323, 702.531250) scale(-1, -1) translate(-608.071323, -702.531250) " points="895.461373 673 896.144 708.028 906.142645 707.833065 894.612925 732.0625 882.147209 708.301062 892.145 708.106 891.538627 677 314 677 314 732.0625 310 732.0625 310 673"></polygon>
        <path d="M489.16,90.728 L489.16,125 L515.176,125 L515.176,118.664 L496.696,118.664 L496.696,110.264 L513.304,110.264 L513.304,104.408 L496.696,104.408 L496.696,97.064 L514.792,97.064 L514.792,90.728 L489.16,90.728 Z M533.272,125 L541.672,100.184 L534.904,100.184 L529.672,117.128 L529.576,117.128 L524.344,100.184 L517.192,100.184 L525.688,125 L533.272,125 Z M561.208,109.928 L550.12,109.928 C550.152,109.447998 550.255999,108.904003 550.432,108.296 C550.608001,107.687997 550.911998,107.112003 551.344,106.568 C551.776002,106.023997 552.351996,105.568002 553.072,105.2 C553.792004,104.831998 554.695995,104.648 555.784,104.648 C557.448008,104.648 558.687996,105.095996 559.504,105.992 C560.320004,106.888004 560.887998,108.199991 561.208,109.928 Z M550.12,114.248 L568.024,114.248 C568.152001,112.32799 567.992002,110.488009 567.544,108.728 C567.095998,106.967991 566.368005,105.400007 565.36,104.024 C564.351995,102.647993 563.064008,101.552004 561.496,100.736 C559.927992,99.9199959 558.088011,99.512 555.976,99.512 C554.087991,99.512 552.368008,99.8479966 550.816,100.52 C549.263992,101.192003 547.928006,102.111994 546.808,103.28 C545.687994,104.448006 544.824003,105.831992 544.216,107.432 C543.607997,109.032008 543.304,110.759991 543.304,112.616 C543.304,114.53601 543.599997,116.295992 544.192,117.896 C544.784003,119.496008 545.623995,120.871994 546.712,122.024 C547.800005,123.176006 549.127992,124.063997 550.696,124.688 C552.264008,125.312003 554.02399,125.624 555.976,125.624 C558.792014,125.624 561.19199,124.984006 563.176,123.704 C565.16001,122.423994 566.631995,120.296015 567.592,117.32 L561.592,117.32 C561.367999,118.088004 560.760005,118.815997 559.768,119.504 C558.775995,120.192003 557.592007,120.536 556.216,120.536 C554.29599,120.536 552.824005,120.040005 551.8,119.048 C550.775995,118.055995 550.216,116.456011 550.12,114.248 Z M572.056,100.184 L572.056,125 L578.872,125 L578.872,111.992 C578.872,109.463987 579.287996,107.648006 580.12,106.544 C580.952004,105.439994 582.295991,104.888 584.152,104.888 C585.784008,104.888 586.919997,105.391995 587.56,106.4 C588.200003,107.408005 588.52,108.93599 588.52,110.984 L588.52,125 L595.336,125 L595.336,109.736 C595.336,108.199992 595.200001,106.800006 594.928,105.536 C594.655999,104.271994 594.184003,103.200004 593.512,102.32 C592.839997,101.439996 591.920006,100.752002 590.752,100.256 C589.583994,99.7599975 588.088009,99.512 586.264,99.512 C584.823993,99.512 583.416007,99.8399967 582.04,100.496 C580.663993,101.152003 579.544004,102.199993 578.68,103.64 L578.536,103.64 L578.536,100.184 L572.056,100.184 Z M609.16,100.184 L609.16,92.744 L602.344,92.744 L602.344,100.184 L598.216,100.184 L598.216,104.744 L602.344,104.744 L602.344,119.384 C602.344,120.632006 602.551998,121.639996 602.968,122.408 C603.384002,123.176004 603.951996,123.767998 604.672,124.184 C605.392004,124.600002 606.223995,124.879999 607.168,125.024 C608.112005,125.168001 609.111995,125.24 610.168,125.24 C610.840003,125.24 611.527996,125.224 612.232,125.192 C612.936004,125.16 613.575997,125.096 614.152,125 L614.152,119.72 C613.831998,119.784 613.496002,119.832 613.144,119.864 C612.791998,119.896 612.424002,119.912 612.04,119.912 C610.887994,119.912 610.120002,119.720002 609.736,119.336 C609.351998,118.951998 609.16,118.184006 609.16,117.032 L609.16,104.744 L614.152,104.744 L614.152,100.184 L609.16,100.184 Z M623.464,112.616 C623.464,111.623995 623.559999,110.648 623.752,109.688 C623.944001,108.727995 624.271998,107.880004 624.736,107.144 C625.200002,106.407996 625.815996,105.808002 626.584,105.344 C627.352004,104.879998 628.311994,104.648 629.464,104.648 C630.616006,104.648 631.583996,104.879998 632.368,105.344 C633.152004,105.808002 633.775998,106.407996 634.24,107.144 C634.704002,107.880004 635.031999,108.727995 635.224,109.688 C635.416001,110.648 635.512,111.623995 635.512,112.616 C635.512,113.608005 635.416001,114.575995 635.224,115.52 C635.031999,116.464005 634.704002,117.311996 634.24,118.064 C633.775998,118.816004 633.152004,119.415998 632.368,119.864 C631.583996,120.312002 630.616006,120.536 629.464,120.536 C628.311994,120.536 627.352004,120.312002 626.584,119.864 C625.815996,119.415998 625.200002,118.816004 624.736,118.064 C624.271998,117.311996 623.944001,116.464005 623.752,115.52 C623.559999,114.575995 623.464,113.608005 623.464,112.616 Z M616.648,112.616 C616.648,114.60001 616.951997,116.391992 617.56,117.992 C618.168003,119.592008 619.031994,120.959994 620.152,122.096 C621.272006,123.232006 622.615992,124.103997 624.184,124.712 C625.752008,125.320003 627.51199,125.624 629.464,125.624 C631.41601,125.624 633.183992,125.320003 634.768,124.712 C636.352008,124.103997 637.703994,123.232006 638.824,122.096 C639.944006,120.959994 640.807997,119.592008 641.416,117.992 C642.024003,116.391992 642.328,114.60001 642.328,112.616 C642.328,110.63199 642.024003,108.832008 641.416,107.216 C640.807997,105.599992 639.944006,104.224006 638.824,103.088 C637.703994,101.951994 636.352008,101.072003 634.768,100.448 C633.183992,99.8239969 631.41601,99.512 629.464,99.512 C627.51199,99.512 625.752008,99.8239969 624.184,100.448 C622.615992,101.072003 621.272006,101.951994 620.152,103.088 C619.031994,104.224006 618.168003,105.599992 617.56,107.216 C616.951997,108.832008 616.648,110.63199 616.648,112.616 Z M652.024,116.936 L645.544,116.936 C645.608,118.600008 645.983997,119.983994 646.672,121.088 C647.360003,122.192006 648.239995,123.079997 649.312,123.752 C650.384005,124.424003 651.607993,124.903999 652.984,125.192 C654.360007,125.480001 655.767993,125.624 657.208,125.624 C658.616007,125.624 659.999993,125.488001 661.36,125.216 C662.720007,124.943999 663.927995,124.472003 664.984,123.8 C666.040005,123.127997 666.895997,122.240006 667.552,121.136 C668.208003,120.031994 668.536,118.664008 668.536,117.032 C668.536,115.879994 668.312002,114.912004 667.864,114.128 C667.415998,113.343996 666.824004,112.688003 666.088,112.16 C665.351996,111.631997 664.512005,111.208002 663.568,110.888 C662.623995,110.567998 661.656005,110.296001 660.664,110.072 C659.703995,109.847999 658.760005,109.640001 657.832,109.448 C656.903995,109.255999 656.080004,109.040001 655.36,108.8 C654.639996,108.559999 654.056002,108.248002 653.608,107.864 C653.159998,107.479998 652.936,106.984003 652.936,106.376 C652.936,105.863997 653.063999,105.456002 653.32,105.152 C653.576001,104.847998 653.887998,104.616001 654.256,104.456 C654.624002,104.295999 655.031998,104.192 655.48,104.144 C655.928002,104.096 656.343998,104.072 656.728,104.072 C657.944006,104.072 658.999996,104.303998 659.896,104.768 C660.792004,105.232002 661.288,106.119993 661.384,107.432 L667.864,107.432 C667.735999,105.895992 667.344003,104.624005 666.688,103.616 C666.031997,102.607995 665.208005,101.800003 664.216,101.192 C663.223995,100.583997 662.096006,100.152001 660.832,99.896 C659.567994,99.6399987 658.264007,99.512 656.92,99.512 C655.575993,99.512 654.264006,99.6319988 652.984,99.872 C651.703994,100.112001 650.552005,100.527997 649.528,101.12 C648.503995,101.712003 647.680003,102.519995 647.056,103.544 C646.431997,104.568005 646.12,105.879992 646.12,107.48 C646.12,108.568005 646.343998,109.487996 646.792,110.24 C647.240002,110.992004 647.831996,111.615998 648.568,112.112 C649.304004,112.608002 650.143995,113.007998 651.088,113.312 C652.032005,113.616002 652.999995,113.879999 653.992,114.104 C656.424012,114.616003 658.319993,115.127997 659.68,115.64 C661.040007,116.152003 661.72,116.919995 661.72,117.944 C661.72,118.552003 661.576001,119.055998 661.288,119.456 C660.999999,119.856002 660.640002,120.175999 660.208,120.416 C659.775998,120.656001 659.296003,120.831999 658.768,120.944 C658.239997,121.056001 657.736002,121.112 657.256,121.112 C656.583997,121.112 655.936003,121.032001 655.312,120.872 C654.687997,120.711999 654.136002,120.464002 653.656,120.128 C653.175998,119.791998 652.784002,119.360003 652.48,118.832 C652.175998,118.303997 652.024,117.672004 652.024,116.936 Z M703.48,112.52 C703.48,113.544005 703.384001,114.535995 703.192,115.496 C702.999999,116.456005 702.680002,117.311996 702.232,118.064 C701.783998,118.816004 701.184004,119.415998 700.432,119.864 C699.679996,120.312002 698.744006,120.536 697.624,120.536 C696.567995,120.536 695.664004,120.304002 694.912,119.84 C694.159996,119.375998 693.536002,118.768004 693.04,118.016 C692.543998,117.263996 692.184001,116.408005 691.96,115.448 C691.735999,114.487995 691.624,113.528005 691.624,112.568 C691.624,111.543995 691.727999,110.560005 691.936,109.616 C692.144001,108.671995 692.479998,107.832004 692.944,107.096 C693.408002,106.359996 694.023996,105.768002 694.792,105.32 C695.560004,104.871998 696.503994,104.648 697.624,104.648 C698.744006,104.648 699.671996,104.871998 700.408,105.32 C701.144004,105.768002 701.743998,106.351996 702.208,107.072 C702.672002,107.792004 702.999999,108.623995 703.192,109.568 C703.384001,110.512005 703.48,111.495995 703.48,112.52 Z M703.576,121.832 L703.576,125 L710.056,125 L710.056,90.728 L703.24,90.728 L703.24,103.208 L703.144,103.208 C702.375996,101.991994 701.328007,101.072003 700,100.448 C698.671993,99.8239969 697.272007,99.512 695.8,99.512 C693.975991,99.512 692.376007,99.8719964 691,100.592 C689.623993,101.312004 688.480005,102.263994 687.568,103.448 C686.655995,104.632006 685.968002,105.999992 685.504,107.552 C685.039998,109.104008 684.808,110.711992 684.808,112.376 C684.808,114.104009 685.039998,115.767992 685.504,117.368 C685.968002,118.968008 686.655995,120.383994 687.568,121.616 C688.480005,122.848006 689.639993,123.823996 691.048,124.544 C692.456007,125.264004 694.087991,125.624 695.944,125.624 C697.576008,125.624 699.039994,125.328003 700.336,124.736 C701.632006,124.143997 702.679996,123.176007 703.48,121.832 L703.576,121.832 Z M731.896,109.928 L720.808,109.928 C720.84,109.447998 720.943999,108.904003 721.12,108.296 C721.296001,107.687997 721.599998,107.112003 722.032,106.568 C722.464002,106.023997 723.039996,105.568002 723.76,105.2 C724.480004,104.831998 725.383995,104.648 726.472,104.648 C728.136008,104.648 729.375996,105.095996 730.192,105.992 C731.008004,106.888004 731.575998,108.199991 731.896,109.928 Z M720.808,114.248 L738.712,114.248 C738.840001,112.32799 738.680002,110.488009 738.232,108.728 C737.783998,106.967991 737.056005,105.400007 736.048,104.024 C735.039995,102.647993 733.752008,101.552004 732.184,100.736 C730.615992,99.9199959 728.776011,99.512 726.664,99.512 C724.775991,99.512 723.056008,99.8479966 721.504,100.52 C719.951992,101.192003 718.616006,102.111994 717.496,103.28 C716.375994,104.448006 715.512003,105.831992 714.904,107.432 C714.295997,109.032008 713.992,110.759991 713.992,112.616 C713.992,114.53601 714.287997,116.295992 714.88,117.896 C715.472003,119.496008 716.311995,120.871994 717.4,122.024 C718.488005,123.176006 719.815992,124.063997 721.384,124.688 C722.952008,125.312003 724.71199,125.624 726.664,125.624 C729.480014,125.624 731.87999,124.984006 733.864,123.704 C735.84801,122.423994 737.319995,120.296015 738.28,117.32 L732.28,117.32 C732.055999,118.088004 731.448005,118.815997 730.456,119.504 C729.463995,120.192003 728.280007,120.536 726.904,120.536 C724.98399,120.536 723.512005,120.040005 722.488,119.048 C721.463995,118.055995 720.904,116.456011 720.808,114.248 Z M479.464,147.728 L479.464,182 L486.52,182 L486.52,157.952 L486.616,157.952 L495.016,182 L500.824,182 L509.224,157.712 L509.32,157.712 L509.32,182 L516.376,182 L516.376,147.728 L505.768,147.728 L498.184,171.296 L498.088,171.296 L490.072,147.728 L479.464,147.728 Z M528.328,169.616 C528.328,168.623995 528.423999,167.648 528.616,166.688 C528.808001,165.727995 529.135998,164.880004 529.6,164.144 C530.064002,163.407996 530.679996,162.808002 531.448,162.344 C532.216004,161.879998 533.175994,161.648 534.328,161.648 C535.480006,161.648 536.447996,161.879998 537.232,162.344 C538.016004,162.808002 538.639998,163.407996 539.104,164.144 C539.568002,164.880004 539.895999,165.727995 540.088,166.688 C540.280001,167.648 540.376,168.623995 540.376,169.616 C540.376,170.608005 540.280001,171.575995 540.088,172.52 C539.895999,173.464005 539.568002,174.311996 539.104,175.064 C538.639998,175.816004 538.016004,176.415998 537.232,176.864 C536.447996,177.312002 535.480006,177.536 534.328,177.536 C533.175994,177.536 532.216004,177.312002 531.448,176.864 C530.679996,176.415998 530.064002,175.816004 529.6,175.064 C529.135998,174.311996 528.808001,173.464005 528.616,172.52 C528.423999,171.575995 528.328,170.608005 528.328,169.616 Z M521.512,169.616 C521.512,171.60001 521.815997,173.391992 522.424,174.992 C523.032003,176.592008 523.895994,177.959994 525.016,179.096 C526.136006,180.232006 527.479992,181.103997 529.048,181.712 C530.616008,182.320003 532.37599,182.624 534.328,182.624 C536.28001,182.624 538.047992,182.320003 539.632,181.712 C541.216008,181.103997 542.567994,180.232006 543.688,179.096 C544.808006,177.959994 545.671997,176.592008 546.28,174.992 C546.888003,173.391992 547.192,171.60001 547.192,169.616 C547.192,167.63199 546.888003,165.832008 546.28,164.216 C545.671997,162.599992 544.808006,161.224006 543.688,160.088 C542.567994,158.951994 541.216008,158.072003 539.632,157.448 C538.047992,156.823997 536.28001,156.512 534.328,156.512 C532.37599,156.512 530.616008,156.823997 529.048,157.448 C527.479992,158.072003 526.136006,158.951994 525.016,160.088 C523.895994,161.224006 523.032003,162.599992 522.424,164.216 C521.815997,165.832008 521.512,167.63199 521.512,169.616 Z M569.224,169.52 C569.224,170.544005 569.128001,171.535995 568.936,172.496 C568.743999,173.456005 568.424002,174.311996 567.976,175.064 C567.527998,175.816004 566.928004,176.415998 566.176,176.864 C565.423996,177.312002 564.488006,177.536 563.368,177.536 C562.311995,177.536 561.408004,177.304002 560.656,176.84 C559.903996,176.375998 559.280002,175.768004 558.784,175.016 C558.287998,174.263996 557.928001,173.408005 557.704,172.448 C557.479999,171.487995 557.368,170.528005 557.368,169.568 C557.368,168.543995 557.471999,167.560005 557.68,166.616 C557.888001,165.671995 558.223998,164.832004 558.688,164.096 C559.152002,163.359996 559.767996,162.768002 560.536,162.32 C561.304004,161.871998 562.247994,161.648 563.368,161.648 C564.488006,161.648 565.415996,161.871998 566.152,162.32 C566.888004,162.768002 567.487998,163.351996 567.952,164.072 C568.416002,164.792004 568.743999,165.623995 568.936,166.568 C569.128001,167.512005 569.224,168.495995 569.224,169.52 Z M569.32,178.832 L569.32,182 L575.8,182 L575.8,147.728 L568.984,147.728 L568.984,160.208 L568.888,160.208 C568.119996,158.991994 567.072007,158.072003 565.744,157.448 C564.415993,156.823997 563.016007,156.512 561.544,156.512 C559.719991,156.512 558.120007,156.871996 556.744,157.592 C555.367993,158.312004 554.224005,159.263994 553.312,160.448 C552.399995,161.632006 551.712002,162.999992 551.248,164.552 C550.783998,166.104008 550.552,167.711992 550.552,169.376 C550.552,171.104009 550.783998,172.767992 551.248,174.368 C551.712002,175.968008 552.399995,177.383994 553.312,178.616 C554.224005,179.848006 555.383993,180.823996 556.792,181.544 C558.200007,182.264004 559.831991,182.624 561.688,182.624 C563.320008,182.624 564.783994,182.328003 566.08,181.736 C567.376006,181.143997 568.423996,180.176007 569.224,178.832 L569.32,178.832 Z M597.64,166.928 L586.552,166.928 C586.584,166.447998 586.687999,165.904003 586.864,165.296 C587.040001,164.687997 587.343998,164.112003 587.776,163.568 C588.208002,163.023997 588.783996,162.568002 589.504,162.2 C590.224004,161.831998 591.127995,161.648 592.216,161.648 C593.880008,161.648 595.119996,162.095996 595.936,162.992 C596.752004,163.888004 597.319998,165.199991 597.64,166.928 Z M586.552,171.248 L604.456,171.248 C604.584001,169.32799 604.424002,167.488009 603.976,165.728 C603.527998,163.967991 602.800005,162.400007 601.792,161.024 C600.783995,159.647993 599.496008,158.552004 597.928,157.736 C596.359992,156.919996 594.520011,156.512 592.408,156.512 C590.519991,156.512 588.800008,156.847997 587.248,157.52 C585.695992,158.192003 584.360006,159.111994 583.24,160.28 C582.119994,161.448006 581.256003,162.831992 580.648,164.432 C580.039997,166.032008 579.736,167.759991 579.736,169.616 C579.736,171.53601 580.031997,173.295992 580.624,174.896 C581.216003,176.496008 582.055995,177.871994 583.144,179.024 C584.232005,180.176006 585.559992,181.063997 587.128,181.688 C588.696008,182.312003 590.45599,182.624 592.408,182.624 C595.224014,182.624 597.62399,181.984006 599.608,180.704 C601.59201,179.423994 603.063995,177.296015 604.024,174.32 L598.024,174.32 C597.799999,175.088004 597.192005,175.815997 596.2,176.504 C595.207995,177.192003 594.024007,177.536 592.648,177.536 C590.72799,177.536 589.256005,177.040005 588.232,176.048 C587.207995,175.055995 586.648,173.456011 586.552,171.248 Z M608.488,157.184 L608.488,182 L615.304,182 L615.304,170.816 C615.304,169.695994 615.415999,168.656005 615.64,167.696 C615.864001,166.735995 616.239997,165.896004 616.768,165.176 C617.296003,164.455996 617.991996,163.888002 618.856,163.472 C619.720004,163.055998 620.775994,162.848 622.024,162.848 C622.440002,162.848 622.871998,162.872 623.32,162.92 C623.768002,162.968 624.151998,163.024 624.472,163.088 L624.472,156.752 C623.927997,156.591999 623.432002,156.512 622.984,156.512 C622.119996,156.512 621.288004,156.639999 620.488,156.896 C619.687996,157.152001 618.936004,157.512 618.232,157.976 C617.527996,158.440002 616.904003,158.999997 616.36,159.656 C615.815997,160.312003 615.384002,161.023996 615.064,161.792 L614.968,161.792 L614.968,157.184 L608.488,157.184 Z M626.872,164.816 C626.968,163.215992 627.367996,161.888005 628.072,160.832 C628.776004,159.775995 629.671995,158.928003 630.76,158.288 C631.848005,157.647997 633.071993,157.192001 634.432,156.92 C635.792007,156.647999 637.159993,156.512 638.536,156.512 C639.784006,156.512 641.047994,156.599999 642.328,156.776 C643.608006,156.952001 644.775995,157.295997 645.832,157.808 C646.888005,158.320003 647.751997,159.031995 648.424,159.944 C649.096003,160.856005 649.432,162.063992 649.432,163.568 L649.432,176.48 C649.432,177.600006 649.495999,178.671995 649.624,179.696 C649.752001,180.720005 649.975998,181.487997 650.296,182 L643.384,182 C643.255999,181.615998 643.152,181.224002 643.072,180.824 C642.992,180.423998 642.936,180.016002 642.904,179.6 C641.815995,180.720006 640.536007,181.503998 639.064,181.952 C637.591993,182.400002 636.088008,182.624 634.552,182.624 C633.367994,182.624 632.264005,182.480001 631.24,182.192 C630.215995,181.903999 629.320004,181.456003 628.552,180.848 C627.783996,180.239997 627.184002,179.472005 626.752,178.544 C626.319998,177.615995 626.104,176.512 626.104,175.232 C626.104,173.823993 626.351998,172.664005 626.848,171.752 C627.344002,170.839995 627.983996,170.112003 628.768,169.568 C629.552004,169.023997 630.447995,168.616001 631.456,168.344 C632.464005,168.071999 633.479995,167.856001 634.504,167.696 C635.272004,167.575999 636.030999,167.474 636.780999,167.39 L637.528,167.312 C638.520005,167.216 639.399996,167.072001 640.168,166.88 C640.936004,166.687999 641.543998,166.408002 641.992,166.04 C642.399275,165.705453 642.608199,165.232069 642.618777,164.619835 L642.616,164.432 C642.616,163.695996 642.496001,163.112002 642.256,162.68 C642.015999,162.247998 641.696002,161.912001 641.296,161.672 C640.895998,161.431999 640.432003,161.272 639.904,161.192 C639.375997,161.112 638.808003,161.072 638.2,161.072 C636.855993,161.072 635.800004,161.359997 635.032,161.936 C634.263996,162.512 633.816001,163.471993 633.688,164.816 L626.872,164.816 Z M642.616,169.856 C642.327999,170.112001 641.968002,170.311999 641.536,170.456 C641.103998,170.600001 640.640002,170.72 640.144,170.816 C639.813332,170.88 639.472,170.936889 639.120001,170.986667 L638.584,171.056 C638.039997,171.12 637.496003,171.2 636.952,171.296 C636.439997,171.392 635.936002,171.519999 635.44,171.68 C634.943998,171.840001 634.512002,172.055999 634.144,172.328 C633.775998,172.600001 633.480001,172.943998 633.256,173.36 C633.031999,173.776002 632.92,174.303997 632.92,174.944 C632.92,175.552003 633.031999,176.063998 633.256,176.48 C633.480001,176.896002 633.783998,177.223999 634.168,177.464 C634.552002,177.704001 634.999997,177.872 635.512,177.968 C636.024003,178.064 636.551997,178.112 637.096,178.112 C638.440007,178.112 639.479996,177.888002 640.216,177.44 C640.952004,176.991998 641.495998,176.456003 641.848,175.832 C642.200002,175.207997 642.416,174.576003 642.496,173.936 L642.554776,173.418774 C642.595592,173.013877 642.616,172.674287 642.616,172.4 L642.616,169.856 Z M671.608,165.92 L678.28,165.92 C678.184,164.319992 677.800003,162.936006 677.128,161.768 C676.455997,160.599994 675.584005,159.624004 674.512,158.84 C673.439995,158.055996 672.224007,157.472002 670.864,157.088 C669.503993,156.703998 668.088007,156.512 666.616,156.512 C664.59999,156.512 662.808008,156.847997 661.24,157.52 C659.671992,158.192003 658.344005,159.127994 657.256,160.328 C656.167995,161.528006 655.344003,162.951992 654.784,164.6 C654.223997,166.248008 653.944,168.03199 653.944,169.952 C653.944,171.808009 654.247997,173.512 654.856,175.064 C655.464003,176.616008 656.311995,177.951994 657.4,179.072 C658.488005,180.192006 659.807992,181.063997 661.36,181.688 C662.912008,182.312003 664.615991,182.624 666.472,182.624 C669.768016,182.624 672.471989,181.760009 674.584,180.032 C676.696011,178.303991 677.975998,175.792016 678.424,172.496 L671.848,172.496 C671.623999,174.032008 671.072004,175.255995 670.192,176.168 C669.311996,177.080005 668.056008,177.536 666.424,177.536 C665.367995,177.536 664.472004,177.296002 663.736,176.816 C662.999996,176.335998 662.416002,175.720004 661.984,174.968 C661.551998,174.215996 661.240001,173.376005 661.048,172.448 C660.855999,171.519995 660.76,170.608004 660.76,169.712 C660.76,168.783995 660.855999,167.848005 661.048,166.904 C661.240001,165.959995 661.567998,165.096004 662.032,164.312 C662.496002,163.527996 663.095996,162.888002 663.832,162.392 C664.568004,161.895998 665.479995,161.648 666.568,161.648 C669.480015,161.648 671.159998,163.071986 671.608,165.92 Z M689.272,153.344 L689.272,147.728 L682.456,147.728 L682.456,153.344 L689.272,153.344 Z M682.456,157.184 L682.456,182 L689.272,182 L689.272,157.184 L682.456,157.184 Z M700.696,169.616 C700.696,170.608005 700.791999,171.575995 700.984,172.52 C701.176001,173.464005 701.503998,174.311996 701.968,175.064 C702.432002,175.816004 703.047996,176.415998 703.816,176.864 C704.584004,177.312002 705.543994,177.536 706.696,177.536 C707.848006,177.536 708.815996,177.312002 709.6,176.864 C710.384004,176.415998 711.007998,175.816004 711.472,175.064 C711.936002,174.311996 712.263999,173.464005 712.456,172.52 C712.648001,171.575995 712.744,170.608005 712.744,169.616 C712.744,168.623995 712.648001,167.648 712.456,166.688 C712.263999,165.727995 711.936002,164.880004 711.472,164.144 C711.007998,163.407996 710.384004,162.808002 709.6,162.344 C708.815996,161.879998 707.848006,161.648 706.696,161.648 C705.543994,161.648 704.584004,161.879998 703.816,162.344 C703.047996,162.808002 702.432002,163.407996 701.968,164.144 C701.503998,164.880004 701.176001,165.727995 700.984,166.688 C700.791999,167.648 700.696,168.623995 700.696,169.616 Z M693.88,169.616 C693.88,167.63199 694.183997,165.832008 694.792,164.216 C695.400003,162.599992 696.263994,161.224006 697.384,160.088 C698.504006,158.951994 699.847992,158.072003 701.416,157.448 C702.984008,156.823997 704.74399,156.512 706.696,156.512 C708.64801,156.512 710.415992,156.823997 712,157.448 C713.584008,158.072003 714.935994,158.951994 716.056,160.088 C717.176006,161.224006 718.039997,162.599992 718.648,164.216 C719.256003,165.832008 719.56,167.63199 719.56,169.616 C719.56,171.60001 719.256003,173.391992 718.648,174.992 C718.039997,176.592008 717.176006,177.959994 716.056,179.096 C714.935994,180.232006 713.584008,181.103997 712,181.712 C710.415992,182.320003 708.64801,182.624 706.696,182.624 C704.74399,182.624 702.984008,182.320003 701.416,181.712 C699.847992,181.103997 698.504006,180.232006 697.384,179.096 C696.263994,177.959994 695.400003,176.592008 694.792,174.992 C694.183997,173.391992 693.88,171.60001 693.88,169.616 Z M715.672,144.32 L707.848,152.816 L703.096,152.816 L708.184,144.32 L715.672,144.32 Z M723.976,157.184 L730.456,157.184 L730.456,160.64 L730.6,160.64 C731.464004,159.199993 732.583993,158.152003 733.96,157.496 C735.336007,156.839997 736.743993,156.512 738.184,156.512 C740.008009,156.512 741.503994,156.759998 742.672,157.256 C743.840006,157.752002 744.759997,158.439996 745.432,159.32 C746.104003,160.200004 746.575999,161.271994 746.848,162.536 C747.120001,163.800006 747.256,165.199992 747.256,166.736 L747.256,182 L740.44,182 L740.44,167.984 C740.44,165.93599 740.120003,164.408005 739.48,163.4 C738.839997,162.391995 737.704008,161.888 736.072,161.888 C734.215991,161.888 732.872004,162.439994 732.04,163.544 C731.207996,164.648006 730.792,166.463987 730.792,168.992 L730.792,182 L723.976,182 L723.976,157.184 Z" id="EventosdeModeración" fill="#FFFFFF" fill-rule="nonzero"></path>
        <path d="M172.024,366.856 L172.024,356.584 L177.88,356.584 C178.744004,356.584 179.575996,356.647999 180.376,356.776 C181.176004,356.904001 181.879997,357.151998 182.488,357.52 C183.096003,357.888002 183.583998,358.407997 183.952,359.08 C184.320002,359.752003 184.504,360.631995 184.504,361.72 C184.504,362.808005 184.320002,363.687997 183.952,364.36 C183.583998,365.032003 183.096003,365.551998 182.488,365.92 C181.879997,366.288002 181.176004,366.535999 180.376,366.664 C179.575996,366.792001 178.744004,366.856 177.88,366.856 L172.024,366.856 Z M164.488,350.728 L164.488,385 L172.024,385 L172.024,372.712 L179.944,372.712 C182.088011,372.712 183.911992,372.400003 185.416,371.776 C186.920008,371.151997 188.143995,370.328005 189.088,369.304 C190.032005,368.279995 190.719998,367.104007 191.152,365.776 C191.584002,364.447993 191.8,363.096007 191.8,361.72 C191.8,360.311993 191.584002,358.952007 191.152,357.64 C190.719998,356.327993 190.032005,355.160005 189.088,354.136 C188.143995,353.111995 186.920008,352.288003 185.416,351.664 C183.911992,351.039997 182.088011,350.728 179.944,350.728 L164.488,350.728 Z M195.976,350.728 L195.976,385 L202.792,385 L202.792,350.728 L195.976,350.728 Z M207.88,367.816 C207.976,366.215992 208.375996,364.888005 209.08,363.832 C209.784004,362.775995 210.679995,361.928003 211.768,361.288 C212.856005,360.647997 214.079993,360.192001 215.44,359.92 C216.800007,359.647999 218.167993,359.512 219.544,359.512 C220.792006,359.512 222.055994,359.599999 223.336,359.776 C224.616006,359.952001 225.783995,360.295997 226.84,360.808 C227.896005,361.320003 228.759997,362.031995 229.432,362.944 C230.104003,363.856005 230.44,365.063992 230.44,366.568 L230.44,379.48 C230.44,380.600006 230.503999,381.671995 230.632,382.696 C230.760001,383.720005 230.983998,384.487997 231.304,385 L224.392,385 C224.263999,384.615998 224.16,384.224002 224.08,383.824 C224,383.423998 223.944,383.016002 223.912,382.6 C222.823995,383.720006 221.544007,384.503998 220.072,384.952 C218.599993,385.400002 217.096008,385.624 215.56,385.624 C214.375994,385.624 213.272005,385.480001 212.248,385.192 C211.223995,384.903999 210.328004,384.456003 209.56,383.848 C208.791996,383.239997 208.192002,382.472005 207.76,381.544 C207.327998,380.615995 207.112,379.512 207.112,378.232 C207.112,376.823993 207.359998,375.664005 207.856,374.752 C208.352002,373.839995 208.991996,373.112003 209.776,372.568 C210.560004,372.023997 211.455995,371.616001 212.464,371.344 C213.472005,371.071999 214.487995,370.856001 215.512,370.696 C216.280004,370.575999 217.038999,370.474 217.788999,370.39 L218.536,370.312 C219.528005,370.216 220.407996,370.072001 221.176,369.88 C221.944004,369.687999 222.551998,369.408002 223,369.04 C223.407275,368.705453 223.616199,368.232069 223.626777,367.619835 L223.624,367.432 C223.624,366.695996 223.504001,366.112002 223.264,365.68 C223.023999,365.247998 222.704002,364.912001 222.304,364.672 C221.903998,364.431999 221.440003,364.272 220.912,364.192 C220.383997,364.112 219.816003,364.072 219.208,364.072 C217.863993,364.072 216.808004,364.359997 216.04,364.936 C215.271996,365.512 214.824001,366.471993 214.696,367.816 L207.88,367.816 Z M223.624,372.856 C223.335999,373.112001 222.976002,373.311999 222.544,373.456 C222.111998,373.600001 221.648002,373.72 221.152,373.816 C220.821332,373.88 220.48,373.936889 220.128001,373.986667 L219.592,374.056 C219.047997,374.12 218.504003,374.2 217.96,374.296 C217.447997,374.392 216.944002,374.519999 216.448,374.68 C215.951998,374.840001 215.520002,375.055999 215.152,375.328 C214.783998,375.600001 214.488001,375.943998 214.264,376.36 C214.039999,376.776002 213.928,377.303997 213.928,377.944 C213.928,378.552003 214.039999,379.063998 214.264,379.48 C214.488001,379.896002 214.791998,380.223999 215.176,380.464 C215.560002,380.704001 216.007997,380.872 216.52,380.968 C217.032003,381.064 217.559997,381.112 218.104,381.112 C219.448007,381.112 220.487996,380.888002 221.224,380.44 C221.960004,379.991998 222.503998,379.456003 222.856,378.832 C223.208002,378.207997 223.424,377.576003 223.504,376.936 L223.562776,376.418774 C223.603592,376.013877 223.624,375.674287 223.624,375.4 L223.624,372.856 Z M244.36,360.184 L244.36,352.744 L237.544,352.744 L237.544,360.184 L233.416,360.184 L233.416,364.744 L237.544,364.744 L237.544,379.384 C237.544,380.632006 237.751998,381.639996 238.168,382.408 C238.584002,383.176004 239.151996,383.767998 239.872,384.184 C240.592004,384.600002 241.423995,384.879999 242.368,385.024 C243.312005,385.168001 244.311995,385.24 245.368,385.24 C246.040003,385.24 246.727996,385.224 247.432,385.192 C248.136004,385.16 248.775997,385.096 249.352,385 L249.352,379.72 C249.031998,379.784 248.696002,379.832 248.344,379.864 C247.991998,379.896 247.624002,379.912 247.24,379.912 C246.087994,379.912 245.320002,379.720002 244.936,379.336 C244.551998,378.951998 244.36,378.184006 244.36,377.032 L244.36,364.744 L249.352,364.744 L249.352,360.184 L244.36,360.184 Z M252.328,367.816 C252.424,366.215992 252.823996,364.888005 253.528,363.832 C254.232004,362.775995 255.127995,361.928003 256.216,361.288 C257.304005,360.647997 258.527993,360.192001 259.888,359.92 C261.248007,359.647999 262.615993,359.512 263.992,359.512 C265.240006,359.512 266.503994,359.599999 267.784,359.776 C269.064006,359.952001 270.231995,360.295997 271.288,360.808 C272.344005,361.320003 273.207997,362.031995 273.88,362.944 C274.552003,363.856005 274.888,365.063992 274.888,366.568 L274.888,379.48 C274.888,380.600006 274.951999,381.671995 275.08,382.696 C275.208001,383.720005 275.431998,384.487997 275.752,385 L268.84,385 C268.711999,384.615998 268.608,384.224002 268.528,383.824 C268.448,383.423998 268.392,383.016002 268.36,382.6 C267.271995,383.720006 265.992007,384.503998 264.52,384.952 C263.047993,385.400002 261.544008,385.624 260.008,385.624 C258.823994,385.624 257.720005,385.480001 256.696,385.192 C255.671995,384.903999 254.776004,384.456003 254.008,383.848 C253.239996,383.239997 252.640002,382.472005 252.208,381.544 C251.775998,380.615995 251.56,379.512 251.56,378.232 C251.56,376.823993 251.807998,375.664005 252.304,374.752 C252.800002,373.839995 253.439996,373.112003 254.224,372.568 C255.008004,372.023997 255.903995,371.616001 256.912,371.344 C257.920005,371.071999 258.935995,370.856001 259.96,370.696 C260.728004,370.575999 261.486999,370.474 262.236999,370.39 L262.984,370.312 C263.976005,370.216 264.855996,370.072001 265.624,369.88 C266.392004,369.687999 266.999998,369.408002 267.448,369.04 C267.855275,368.705453 268.064199,368.232069 268.074777,367.619835 L268.072,367.432 C268.072,366.695996 267.952001,366.112002 267.712,365.68 C267.471999,365.247998 267.152002,364.912001 266.752,364.672 C266.351998,364.431999 265.888003,364.272 265.36,364.192 C264.831997,364.112 264.264003,364.072 263.656,364.072 C262.311993,364.072 261.256004,364.359997 260.488,364.936 C259.719996,365.512 259.272001,366.471993 259.144,367.816 L252.328,367.816 Z M268.072,372.856 C267.783999,373.112001 267.424002,373.311999 266.992,373.456 C266.559998,373.600001 266.096002,373.72 265.6,373.816 C265.269332,373.88 264.928,373.936889 264.576001,373.986667 L264.04,374.056 C263.495997,374.12 262.952003,374.2 262.408,374.296 C261.895997,374.392 261.392002,374.519999 260.896,374.68 C260.399998,374.840001 259.968002,375.055999 259.6,375.328 C259.231998,375.600001 258.936001,375.943998 258.712,376.36 C258.487999,376.776002 258.376,377.303997 258.376,377.944 C258.376,378.552003 258.487999,379.063998 258.712,379.48 C258.936001,379.896002 259.239998,380.223999 259.624,380.464 C260.008002,380.704001 260.455997,380.872 260.968,380.968 C261.480003,381.064 262.007997,381.112 262.552,381.112 C263.896007,381.112 264.935996,380.888002 265.672,380.44 C266.408004,379.991998 266.951998,379.456003 267.304,378.832 C267.656002,378.207997 267.872,377.576003 267.952,376.936 L268.010776,376.418774 C268.051592,376.013877 268.072,375.674287 268.072,375.4 L268.072,372.856 Z M281.656,364.744 L281.656,385 L288.472,385 L288.472,364.744 L293.176,364.744 L293.176,360.184 L288.472,360.184 L288.472,358.696 C288.472,357.671995 288.671998,356.944002 289.072,356.512 C289.472002,356.079998 290.135995,355.864 291.064,355.864 C291.928004,355.864 292.759996,355.912 293.56,356.008 L293.56,350.92 C292.983997,350.888 292.392003,350.848 291.784,350.8 C291.175997,350.752 290.568003,350.728 289.96,350.728 C287.175986,350.728 285.096007,351.431993 283.72,352.84 C282.343993,354.248007 281.656,356.055989 281.656,358.264 L281.656,360.184 L277.576,360.184 L277.576,364.744 L281.656,364.744 Z M302.2,372.616 C302.2,371.623995 302.295999,370.648 302.488,369.688 C302.680001,368.727995 303.007998,367.880004 303.472,367.144 C303.936002,366.407996 304.551996,365.808002 305.32,365.344 C306.088004,364.879998 307.047994,364.648 308.2,364.648 C309.352006,364.648 310.319996,364.879998 311.104,365.344 C311.888004,365.808002 312.511998,366.407996 312.976,367.144 C313.440002,367.880004 313.767999,368.727995 313.96,369.688 C314.152001,370.648 314.248,371.623995 314.248,372.616 C314.248,373.608005 314.152001,374.575995 313.96,375.52 C313.767999,376.464005 313.440002,377.311996 312.976,378.064 C312.511998,378.816004 311.888004,379.415998 311.104,379.864 C310.319996,380.312002 309.352006,380.536 308.2,380.536 C307.047994,380.536 306.088004,380.312002 305.32,379.864 C304.551996,379.415998 303.936002,378.816004 303.472,378.064 C303.007998,377.311996 302.680001,376.464005 302.488,375.52 C302.295999,374.575995 302.2,373.608005 302.2,372.616 Z M295.384,372.616 C295.384,374.60001 295.687997,376.391992 296.296,377.992 C296.904003,379.592008 297.767994,380.959994 298.888,382.096 C300.008006,383.232006 301.351992,384.103997 302.92,384.712 C304.488008,385.320003 306.24799,385.624 308.2,385.624 C310.15201,385.624 311.919992,385.320003 313.504,384.712 C315.088008,384.103997 316.439994,383.232006 317.56,382.096 C318.680006,380.959994 319.543997,379.592008 320.152,377.992 C320.760003,376.391992 321.064,374.60001 321.064,372.616 C321.064,370.63199 320.760003,368.832008 320.152,367.216 C319.543997,365.599992 318.680006,364.224006 317.56,363.088 C316.439994,361.951994 315.088008,361.072003 313.504,360.448 C311.919992,359.823997 310.15201,359.512 308.2,359.512 C306.24799,359.512 304.488008,359.823997 302.92,360.448 C301.351992,361.072003 300.008006,361.951994 298.888,363.088 C297.767994,364.224006 296.904003,365.599992 296.296,367.216 C295.687997,368.832008 295.384,370.63199 295.384,372.616 Z M325.48,360.184 L325.48,385 L332.296,385 L332.296,373.816 C332.296,372.695994 332.407999,371.656005 332.632,370.696 C332.856001,369.735995 333.231997,368.896004 333.76,368.176 C334.288003,367.455996 334.983996,366.888002 335.848,366.472 C336.712004,366.055998 337.767994,365.848 339.016,365.848 C339.432002,365.848 339.863998,365.872 340.312,365.92 C340.760002,365.968 341.143998,366.024 341.464,366.088 L341.464,359.752 C340.919997,359.591999 340.424002,359.512 339.976,359.512 C339.111996,359.512 338.280004,359.639999 337.48,359.896 C336.679996,360.152001 335.928004,360.512 335.224,360.976 C334.519996,361.440002 333.896003,361.999997 333.352,362.656 C332.807997,363.312003 332.376002,364.023996 332.056,364.792 L331.96,364.792 L331.96,360.184 L325.48,360.184 Z M344.344,360.184 L344.344,385 L351.16,385 L351.16,370.6 C351.16,369.383994 351.335998,368.400004 351.688,367.648 C352.040002,366.895996 352.463998,366.320002 352.96,365.92 C353.456002,365.519998 353.967997,365.248001 354.496,365.104 C355.024003,364.959999 355.447998,364.888 355.768,364.888 C356.856005,364.888 357.679997,365.071998 358.24,365.44 C358.800003,365.808002 359.199999,366.295997 359.44,366.904 C359.680001,367.512 359.816,368.175996 359.848,368.896 C359.88,369.616004 359.896,370.343996 359.896,371.08 L359.896,385 L366.712,385 L366.712,371.176 C366.712,370.407996 366.767999,369.648004 366.88,368.896 C366.992001,368.143996 367.215998,367.472003 367.552,366.88 C367.888002,366.287997 368.351997,365.808002 368.944,365.44 C369.536003,365.071998 370.311995,364.888 371.272,364.888 C372.232005,364.888 372.991997,365.047998 373.552,365.368 C374.112003,365.688002 374.535999,366.119997 374.824,366.664 C375.112001,367.208003 375.288,367.847996 375.352,368.584 C375.416,369.320004 375.448,370.103996 375.448,370.936 L375.448,385 L382.264,385 L382.264,368.392 C382.264,366.791992 382.040002,365.424006 381.592,364.288 C381.143998,363.151994 380.520004,362.232004 379.72,361.528 C378.919996,360.823996 377.960006,360.312002 376.84,359.992 C375.719994,359.671998 374.504007,359.512 373.192,359.512 C371.463991,359.512 369.968006,359.927996 368.704,360.76 C367.439994,361.592004 366.440004,362.551995 365.704,363.64 C365.031997,362.103992 364.048006,361.032003 362.752,360.424 C361.455994,359.815997 360.024008,359.512 358.456,359.512 C356.823992,359.512 355.376006,359.863996 354.112,360.568 C352.847994,361.272004 351.768004,362.263994 350.872,363.544 L350.776,363.544 L350.776,360.184 L344.344,360.184 Z M387.352,367.816 C387.448,366.215992 387.847996,364.888005 388.552,363.832 C389.256004,362.775995 390.151995,361.928003 391.24,361.288 C392.328005,360.647997 393.551993,360.192001 394.912,359.92 C396.272007,359.647999 397.639993,359.512 399.016,359.512 C400.264006,359.512 401.527994,359.599999 402.808,359.776 C404.088006,359.952001 405.255995,360.295997 406.312,360.808 C407.368005,361.320003 408.231997,362.031995 408.904,362.944 C409.576003,363.856005 409.912,365.063992 409.912,366.568 L409.912,379.48 C409.912,380.600006 409.975999,381.671995 410.104,382.696 C410.232001,383.720005 410.455998,384.487997 410.776,385 L403.864,385 C403.735999,384.615998 403.632,384.224002 403.552,383.824 C403.472,383.423998 403.416,383.016002 403.384,382.6 C402.295995,383.720006 401.016007,384.503998 399.544,384.952 C398.071993,385.400002 396.568008,385.624 395.032,385.624 C393.847994,385.624 392.744005,385.480001 391.72,385.192 C390.695995,384.903999 389.800004,384.456003 389.032,383.848 C388.263996,383.239997 387.664002,382.472005 387.232,381.544 C386.799998,380.615995 386.584,379.512 386.584,378.232 C386.584,376.823993 386.831998,375.664005 387.328,374.752 C387.824002,373.839995 388.463996,373.112003 389.248,372.568 C390.032004,372.023997 390.927995,371.616001 391.936,371.344 C392.944005,371.071999 393.959995,370.856001 394.984,370.696 C395.752004,370.575999 396.510999,370.474 397.260999,370.39 L398.008,370.312 C399.000005,370.216 399.879996,370.072001 400.648,369.88 C401.416004,369.687999 402.023998,369.408002 402.472,369.04 C402.879275,368.705453 403.088199,368.232069 403.098777,367.619835 L403.096,367.432 C403.096,366.695996 402.976001,366.112002 402.736,365.68 C402.495999,365.247998 402.176002,364.912001 401.776,364.672 C401.375998,364.431999 400.912003,364.272 400.384,364.192 C399.855997,364.112 399.288003,364.072 398.68,364.072 C397.335993,364.072 396.280004,364.359997 395.512,364.936 C394.743996,365.512 394.296001,366.471993 394.168,367.816 L387.352,367.816 Z M403.096,372.856 C402.807999,373.112001 402.448002,373.311999 402.016,373.456 C401.583998,373.600001 401.120002,373.72 400.624,373.816 C400.293332,373.88 399.952,373.936889 399.600001,373.986667 L399.064,374.056 C398.519997,374.12 397.976003,374.2 397.432,374.296 C396.919997,374.392 396.416002,374.519999 395.92,374.68 C395.423998,374.840001 394.992002,375.055999 394.624,375.328 C394.255998,375.600001 393.960001,375.943998 393.736,376.36 C393.511999,376.776002 393.4,377.303997 393.4,377.944 C393.4,378.552003 393.511999,379.063998 393.736,379.48 C393.960001,379.896002 394.263998,380.223999 394.648,380.464 C395.032002,380.704001 395.479997,380.872 395.992,380.968 C396.504003,381.064 397.031997,381.112 397.576,381.112 C398.920007,381.112 399.959996,380.888002 400.696,380.44 C401.432004,379.991998 401.975998,379.456003 402.328,378.832 C402.680002,378.207997 402.896,377.576003 402.976,376.936 L403.034776,376.418774 C403.075592,376.013877 403.096,375.674287 403.096,375.4 L403.096,372.856 Z M446.152,372.52 C446.152,373.544005 446.056001,374.535995 445.864,375.496 C445.671999,376.456005 445.352002,377.311996 444.904,378.064 C444.455998,378.816004 443.856004,379.415998 443.104,379.864 C442.351996,380.312002 441.416006,380.536 440.296,380.536 C439.239995,380.536 438.336004,380.304002 437.584,379.84 C436.831996,379.375998 436.208002,378.768004 435.712,378.016 C435.215998,377.263996 434.856001,376.408005 434.632,375.448 C434.407999,374.487995 434.296,373.528005 434.296,372.568 C434.296,371.543995 434.399999,370.560005 434.608,369.616 C434.816001,368.671995 435.151998,367.832004 435.616,367.096 C436.080002,366.359996 436.695996,365.768002 437.464,365.32 C438.232004,364.871998 439.175994,364.648 440.296,364.648 C441.416006,364.648 442.343996,364.871998 443.08,365.32 C443.816004,365.768002 444.415998,366.351996 444.88,367.072 C445.344002,367.792004 445.671999,368.623995 445.864,369.568 C446.056001,370.512005 446.152,371.495995 446.152,372.52 Z M446.248,381.832 L446.248,385 L452.728,385 L452.728,350.728 L445.912,350.728 L445.912,363.208 L445.816,363.208 C445.047996,361.991994 444.000007,361.072003 442.672,360.448 C441.343993,359.823997 439.944007,359.512 438.472,359.512 C436.647991,359.512 435.048007,359.871996 433.672,360.592 C432.295993,361.312004 431.152005,362.263994 430.24,363.448 C429.327995,364.632006 428.640002,365.999992 428.176,367.552 C427.711998,369.104008 427.48,370.711992 427.48,372.376 C427.48,374.104009 427.711998,375.767992 428.176,377.368 C428.640002,378.968008 429.327995,380.383994 430.24,381.616 C431.152005,382.848006 432.311993,383.823996 433.72,384.544 C435.128007,385.264004 436.759991,385.624 438.616,385.624 C440.248008,385.624 441.711994,385.328003 443.008,384.736 C444.304006,384.143997 445.351996,383.176007 446.152,381.832 L446.248,381.832 Z M474.568,369.928 L463.48,369.928 C463.512,369.447998 463.615999,368.904003 463.792,368.296 C463.968001,367.687997 464.271998,367.112003 464.704,366.568 C465.136002,366.023997 465.711996,365.568002 466.432,365.2 C467.152004,364.831998 468.055995,364.648 469.144,364.648 C470.808008,364.648 472.047996,365.095996 472.864,365.992 C473.680004,366.888004 474.247998,368.199991 474.568,369.928 Z M463.48,374.248 L481.384,374.248 C481.512001,372.32799 481.352002,370.488009 480.904,368.728 C480.455998,366.967991 479.728005,365.400007 478.72,364.024 C477.711995,362.647993 476.424008,361.552004 474.856,360.736 C473.287992,359.919996 471.448011,359.512 469.336,359.512 C467.447991,359.512 465.728008,359.847997 464.176,360.52 C462.623992,361.192003 461.288006,362.111994 460.168,363.28 C459.047994,364.448006 458.184003,365.831992 457.576,367.432 C456.967997,369.032008 456.664,370.759991 456.664,372.616 C456.664,374.53601 456.959997,376.295992 457.552,377.896 C458.144003,379.496008 458.983995,380.871994 460.072,382.024 C461.160005,383.176006 462.487992,384.063997 464.056,384.688 C465.624008,385.312003 467.38399,385.624 469.336,385.624 C472.152014,385.624 474.55199,384.984006 476.536,383.704 C478.52001,382.423994 479.991995,380.296015 480.952,377.32 L474.952,377.32 C474.727999,378.088004 474.120005,378.815997 473.128,379.504 C472.135995,380.192003 470.952007,380.536 469.576,380.536 C467.65599,380.536 466.184005,380.040005 465.16,379.048 C464.135995,378.055995 463.576,376.456011 463.48,374.248 Z M216.616,419.248 L223.912,419.248 C223.687999,417.26399 223.144004,415.504008 222.28,413.968 C221.415996,412.431992 220.320007,411.144005 218.992,410.104 C217.663993,409.063995 216.160008,408.272003 214.48,407.728 C212.799992,407.183997 211.016009,406.912 209.128,406.912 C206.503987,406.912 204.14401,407.375995 202.048,408.304 C199.95199,409.232005 198.184007,410.511992 196.744,412.144 C195.303993,413.776008 194.200004,415.687989 193.432,417.88 C192.663996,420.072011 192.28,422.447987 192.28,425.008 C192.28,427.504012 192.663996,429.831989 193.432,431.992 C194.200004,434.152011 195.303993,436.031992 196.744,437.632 C198.184007,439.232008 199.95199,440.487995 202.048,441.4 C204.14401,442.312005 206.503987,442.768 209.128,442.768 C211.240011,442.768 213.175991,442.448003 214.936,441.808 C216.696009,441.167997 218.231993,440.240006 219.544,439.024 C220.856007,437.807994 221.911996,436.336009 222.712,434.608 C223.512004,432.879991 224.007999,430.944011 224.2,428.8 L216.904,428.8 C216.615999,431.104012 215.824006,432.959993 214.528,434.368 C213.231994,435.776007 211.432012,436.48 209.128,436.48 C207.431992,436.48 205.992006,436.152003 204.808,435.496 C203.623994,434.839997 202.664004,433.968005 201.928,432.88 C201.191996,431.791995 200.656002,430.568007 200.32,429.208 C199.983998,427.847993 199.816,426.448007 199.816,425.008 C199.816,423.503992 199.983998,422.048007 200.32,420.64 C200.656002,419.231993 201.191996,417.976006 201.928,416.872 C202.664004,415.767994 203.623994,414.888003 204.808,414.232 C205.992006,413.575997 207.431992,413.248 209.128,413.248 C210.056005,413.248 210.943996,413.399998 211.792,413.704 C212.640004,414.008002 213.399997,414.431997 214.072,414.976 C214.744003,415.520003 215.303998,416.151996 215.752,416.872 C216.200002,417.592004 216.487999,418.383996 216.616,419.248 Z M234.664,429.616 C234.664,428.623995 234.759999,427.648 234.952,426.688 C235.144001,425.727995 235.471998,424.880004 235.936,424.144 C236.400002,423.407996 237.015996,422.808002 237.784,422.344 C238.552004,421.879998 239.511994,421.648 240.664,421.648 C241.816006,421.648 242.783996,421.879998 243.568,422.344 C244.352004,422.808002 244.975998,423.407996 245.44,424.144 C245.904002,424.880004 246.231999,425.727995 246.424,426.688 C246.616001,427.648 246.712,428.623995 246.712,429.616 C246.712,430.608005 246.616001,431.575995 246.424,432.52 C246.231999,433.464005 245.904002,434.311996 245.44,435.064 C244.975998,435.816004 244.352004,436.415998 243.568,436.864 C242.783996,437.312002 241.816006,437.536 240.664,437.536 C239.511994,437.536 238.552004,437.312002 237.784,436.864 C237.015996,436.415998 236.400002,435.816004 235.936,435.064 C235.471998,434.311996 235.144001,433.464005 234.952,432.52 C234.759999,431.575995 234.664,430.608005 234.664,429.616 Z M227.848,429.616 C227.848,431.60001 228.151997,433.391992 228.76,434.992 C229.368003,436.592008 230.231994,437.959994 231.352,439.096 C232.472006,440.232006 233.815992,441.103997 235.384,441.712 C236.952008,442.320003 238.71199,442.624 240.664,442.624 C242.61601,442.624 244.383992,442.320003 245.968,441.712 C247.552008,441.103997 248.903994,440.232006 250.024,439.096 C251.144006,437.959994 252.007997,436.592008 252.616,434.992 C253.224003,433.391992 253.528,431.60001 253.528,429.616 C253.528,427.63199 253.224003,425.832008 252.616,424.216 C252.007997,422.599992 251.144006,421.224006 250.024,420.088 C248.903994,418.951994 247.552008,418.072003 245.968,417.448 C244.383992,416.823997 242.61601,416.512 240.664,416.512 C238.71199,416.512 236.952008,416.823997 235.384,417.448 C233.815992,418.072003 232.472006,418.951994 231.352,420.088 C230.231994,421.224006 229.368003,422.599992 228.76,424.216 C228.151997,425.832008 227.848,427.63199 227.848,429.616 Z M257.944,417.184 L257.944,442 L264.76,442 L264.76,428.992 C264.76,426.463987 265.175996,424.648006 266.008,423.544 C266.840004,422.439994 268.183991,421.888 270.04,421.888 C271.672008,421.888 272.807997,422.391995 273.448,423.4 C274.088003,424.408005 274.408,425.93599 274.408,427.984 L274.408,442 L281.224,442 L281.224,426.736 C281.224,425.199992 281.088001,423.800006 280.816,422.536 C280.543999,421.271994 280.072003,420.200004 279.4,419.32 C278.727997,418.439996 277.808006,417.752002 276.64,417.256 C275.471994,416.759998 273.976009,416.512 272.152,416.512 C270.711993,416.512 269.304007,416.839997 267.928,417.496 C266.551993,418.152003 265.432004,419.199993 264.568,420.64 L264.424,420.64 L264.424,417.184 L257.944,417.184 Z M295.048,417.184 L295.048,409.744 L288.232,409.744 L288.232,417.184 L284.104,417.184 L284.104,421.744 L288.232,421.744 L288.232,436.384 C288.232,437.632006 288.439998,438.639996 288.856,439.408 C289.272002,440.176004 289.839996,440.767998 290.56,441.184 C291.280004,441.600002 292.111995,441.879999 293.056,442.024 C294.000005,442.168001 294.999995,442.24 296.056,442.24 C296.728003,442.24 297.415996,442.224 298.12,442.192 C298.824004,442.16 299.463997,442.096 300.04,442 L300.04,436.72 C299.719998,436.784 299.384002,436.832 299.032,436.864 C298.679998,436.896 298.312002,436.912 297.928,436.912 C296.775994,436.912 296.008002,436.720002 295.624,436.336 C295.239998,435.951998 295.048,435.184006 295.048,434.032 L295.048,421.744 L300.04,421.744 L300.04,417.184 L295.048,417.184 Z M320.008,426.928 L308.92,426.928 C308.952,426.447998 309.055999,425.904003 309.232,425.296 C309.408001,424.687997 309.711998,424.112003 310.144,423.568 C310.576002,423.023997 311.151996,422.568002 311.872,422.2 C312.592004,421.831998 313.495995,421.648 314.584,421.648 C316.248008,421.648 317.487996,422.095996 318.304,422.992 C319.120004,423.888004 319.687998,425.199991 320.008,426.928 Z M308.92,431.248 L326.824,431.248 C326.952001,429.32799 326.792002,427.488009 326.344,425.728 C325.895998,423.967991 325.168005,422.400007 324.16,421.024 C323.151995,419.647993 321.864008,418.552004 320.296,417.736 C318.727992,416.919996 316.888011,416.512 314.776,416.512 C312.887991,416.512 311.168008,416.847997 309.616,417.52 C308.063992,418.192003 306.728006,419.111994 305.608,420.28 C304.487994,421.448006 303.624003,422.831992 303.016,424.432 C302.407997,426.032008 302.104,427.759991 302.104,429.616 C302.104,431.53601 302.399997,433.295992 302.992,434.896 C303.584003,436.496008 304.423995,437.871994 305.512,439.024 C306.600005,440.176006 307.927992,441.063997 309.496,441.688 C311.064008,442.312003 312.82399,442.624 314.776,442.624 C317.592014,442.624 319.99199,441.984006 321.976,440.704 C323.96001,439.423994 325.431995,437.296015 326.392,434.32 L320.392,434.32 C320.167999,435.088004 319.560005,435.815997 318.568,436.504 C317.575995,437.192003 316.392007,437.536 315.016,437.536 C313.09599,437.536 311.624005,437.040005 310.6,436.048 C309.575995,435.055995 309.016,433.456011 308.92,431.248 Z M330.856,417.184 L330.856,442 L337.672,442 L337.672,428.992 C337.672,426.463987 338.087996,424.648006 338.92,423.544 C339.752004,422.439994 341.095991,421.888 342.952,421.888 C344.584008,421.888 345.719997,422.391995 346.36,423.4 C347.000003,424.408005 347.32,425.93599 347.32,427.984 L347.32,442 L354.136,442 L354.136,426.736 C354.136,425.199992 354.000001,423.800006 353.728,422.536 C353.455999,421.271994 352.984003,420.200004 352.312,419.32 C351.639997,418.439996 350.720006,417.752002 349.552,417.256 C348.383994,416.759998 346.888009,416.512 345.064,416.512 C343.623993,416.512 342.216007,416.839997 340.84,417.496 C339.463993,418.152003 338.344004,419.199993 337.48,420.64 L337.336,420.64 L337.336,417.184 L330.856,417.184 Z M366.328,413.344 L366.328,407.728 L359.512,407.728 L359.512,413.344 L366.328,413.344 Z M359.512,417.184 L359.512,442 L366.328,442 L366.328,417.184 L359.512,417.184 Z M389.32,429.52 C389.32,430.544005 389.224001,431.535995 389.032,432.496 C388.839999,433.456005 388.520002,434.311996 388.072,435.064 C387.623998,435.816004 387.024004,436.415998 386.272,436.864 C385.519996,437.312002 384.584006,437.536 383.464,437.536 C382.407995,437.536 381.504004,437.304002 380.752,436.84 C379.999996,436.375998 379.376002,435.768004 378.88,435.016 C378.383998,434.263996 378.024001,433.408005 377.8,432.448 C377.575999,431.487995 377.464,430.528005 377.464,429.568 C377.464,428.543995 377.567999,427.560005 377.776,426.616 C377.984001,425.671995 378.319998,424.832004 378.784,424.096 C379.248002,423.359996 379.863996,422.768002 380.632,422.32 C381.400004,421.871998 382.343994,421.648 383.464,421.648 C384.584006,421.648 385.511996,421.871998 386.248,422.32 C386.984004,422.768002 387.583998,423.351996 388.048,424.072 C388.512002,424.792004 388.839999,425.623995 389.032,426.568 C389.224001,427.512005 389.32,428.495995 389.32,429.52 Z M389.416,438.832 L389.416,442 L395.896,442 L395.896,407.728 L389.08,407.728 L389.08,420.208 L388.984,420.208 C388.215996,418.991994 387.168007,418.072003 385.84,417.448 C384.511993,416.823997 383.112007,416.512 381.64,416.512 C379.815991,416.512 378.216007,416.871996 376.84,417.592 C375.463993,418.312004 374.320005,419.263994 373.408,420.448 C372.495995,421.632006 371.808002,422.999992 371.344,424.552 C370.879998,426.104008 370.648,427.711992 370.648,429.376 C370.648,431.104009 370.879998,432.767992 371.344,434.368 C371.808002,435.968008 372.495995,437.383994 373.408,438.616 C374.320005,439.848006 375.479993,440.823996 376.888,441.544 C378.296007,442.264004 379.927991,442.624 381.784,442.624 C383.416008,442.624 384.879994,442.328003 386.176,441.736 C387.472006,441.143997 388.519996,440.176007 389.32,438.832 L389.416,438.832 Z M407.08,429.616 C407.08,428.623995 407.175999,427.648 407.368,426.688 C407.560001,425.727995 407.887998,424.880004 408.352,424.144 C408.816002,423.407996 409.431996,422.808002 410.2,422.344 C410.968004,421.879998 411.927994,421.648 413.08,421.648 C414.232006,421.648 415.199996,421.879998 415.984,422.344 C416.768004,422.808002 417.391998,423.407996 417.856,424.144 C418.320002,424.880004 418.647999,425.727995 418.84,426.688 C419.032001,427.648 419.128,428.623995 419.128,429.616 C419.128,430.608005 419.032001,431.575995 418.84,432.52 C418.647999,433.464005 418.320002,434.311996 417.856,435.064 C417.391998,435.816004 416.768004,436.415998 415.984,436.864 C415.199996,437.312002 414.232006,437.536 413.08,437.536 C411.927994,437.536 410.968004,437.312002 410.2,436.864 C409.431996,436.415998 408.816002,435.816004 408.352,435.064 C407.887998,434.311996 407.560001,433.464005 407.368,432.52 C407.175999,431.575995 407.08,430.608005 407.08,429.616 Z M400.264,429.616 C400.264,431.60001 400.567997,433.391992 401.176,434.992 C401.784003,436.592008 402.647994,437.959994 403.768,439.096 C404.888006,440.232006 406.231992,441.103997 407.8,441.712 C409.368008,442.320003 411.12799,442.624 413.08,442.624 C415.03201,442.624 416.799992,442.320003 418.384,441.712 C419.968008,441.103997 421.319994,440.232006 422.44,439.096 C423.560006,437.959994 424.423997,436.592008 425.032,434.992 C425.640003,433.391992 425.944,431.60001 425.944,429.616 C425.944,427.63199 425.640003,425.832008 425.032,424.216 C424.423997,422.599992 423.560006,421.224006 422.44,420.088 C421.319994,418.951994 419.968008,418.072003 418.384,417.448 C416.799992,416.823997 415.03201,416.512 413.08,416.512 C411.12799,416.512 409.368008,416.823997 407.8,417.448 C406.231992,418.072003 404.888006,418.951994 403.768,420.088 C402.647994,421.224006 401.784003,422.599992 401.176,424.216 C400.567997,425.832008 400.264,427.63199 400.264,429.616 Z M435.64,433.936 C435.64,434.672004 435.791998,435.303997 436.096,435.832 C436.400002,436.360003 436.791998,436.791998 437.272,437.128 C437.752002,437.464002 438.303997,437.711999 438.928,437.872 C439.552003,438.032001 440.199997,438.112 440.872,438.112 C441.352002,438.112 441.855997,438.056001 442.384,437.944 C442.912003,437.831999 443.391998,437.656001 443.824,437.416 C444.256002,437.175999 444.615999,436.856002 444.904,436.456 C445.192001,436.055998 445.336,435.552003 445.336,434.944 C445.336,433.919995 444.656007,433.152003 443.296,432.64 C441.935993,432.127997 440.040012,431.616003 437.608,431.104 C436.615995,430.879999 435.648005,430.616002 434.704,430.312 C433.759995,430.007998 432.920004,429.608002 432.184,429.112 C431.447996,428.615998 430.856002,427.992004 430.408,427.24 C429.959998,426.487996 429.736,425.568005 429.736,424.48 C429.736,422.879992 430.047997,421.568005 430.672,420.544 C431.296003,419.519995 432.119995,418.712003 433.144,418.12 C434.168005,417.527997 435.319994,417.112001 436.6,416.872 C437.880006,416.631999 439.191993,416.512 440.536,416.512 C441.880007,416.512 443.183994,416.639999 444.448,416.896 C445.712006,417.152001 446.839995,417.583997 447.832,418.192 C448.824005,418.800003 449.647997,419.607995 450.304,420.616 C450.960003,421.624005 451.351999,422.895992 451.48,424.432 L445,424.432 C444.904,423.119993 444.408004,422.232002 443.512,421.768 C442.615996,421.303998 441.560006,421.072 440.344,421.072 C439.959998,421.072 439.544002,421.096 439.096,421.144 C438.647998,421.192 438.240002,421.295999 437.872,421.456 C437.503998,421.616001 437.192001,421.847998 436.936,422.152 C436.679999,422.456002 436.552,422.863997 436.552,423.376 C436.552,423.984003 436.775998,424.479998 437.224,424.864 C437.672002,425.248002 438.255996,425.559999 438.976,425.8 C439.696004,426.040001 440.519995,426.255999 441.448,426.448 C442.376005,426.640001 443.319995,426.847999 444.28,427.072 C445.272005,427.296001 446.239995,427.567998 447.184,427.888 C448.128005,428.208002 448.967996,428.631997 449.704,429.16 C450.440004,429.688003 451.031998,430.343996 451.48,431.128 C451.928002,431.912004 452.152,432.879994 452.152,434.032 C452.152,435.664008 451.824003,437.031994 451.168,438.136 C450.511997,439.240006 449.656005,440.127997 448.6,440.8 C447.543995,441.472003 446.336007,441.943999 444.976,442.216 C443.615993,442.488001 442.232007,442.624 440.824,442.624 C439.383993,442.624 437.976007,442.480001 436.6,442.192 C435.223993,441.903999 434.000005,441.424003 432.928,440.752 C431.855995,440.079997 430.976003,439.192006 430.288,438.088 C429.599997,436.983994 429.224,435.600008 429.16,433.936 L435.64,433.936 Z" id="PlataformadeContenidos" fill="#FFFFFF" fill-rule="nonzero"></path>
        <path d="M497.68,666.664 L497.68,645.064 L503.056,645.064 C504.912009,645.064 506.471994,645.327997 507.736,645.856 C509.000006,646.384003 510.015996,647.143995 510.784,648.136 C511.552004,649.128005 512.103998,650.319993 512.44,651.712 C512.776002,653.104007 512.944,654.663991 512.944,656.392 C512.944,658.280009 512.704002,659.879993 512.224,661.192 C511.743998,662.504007 511.104004,663.567996 510.304,664.384 C509.503996,665.200004 508.592005,665.783998 507.568,666.136 C506.543995,666.488002 505.488005,666.664 504.4,666.664 L497.68,666.664 Z M490.144,638.728 L490.144,673 L504.928,673 C507.552013,673 509.83199,672.560004 511.768,671.68 C513.70401,670.799996 515.319994,669.592008 516.616,668.056 C517.912006,666.519992 518.879997,664.696011 519.52,662.584 C520.160003,660.471989 520.48,658.168012 520.48,655.672 C520.48,652.823986 520.088004,650.344011 519.304,648.232 C518.519996,646.119989 517.432007,644.360007 516.04,642.952 C514.647993,641.543993 513.00001,640.488004 511.096,639.784 C509.19199,639.079996 507.136011,638.728 504.928,638.728 L490.144,638.728 Z M541.696,657.928 L530.608,657.928 C530.64,657.447998 530.743999,656.904003 530.92,656.296 C531.096001,655.687997 531.399998,655.112003 531.832,654.568 C532.264002,654.023997 532.839996,653.568002 533.56,653.2 C534.280004,652.831998 535.183995,652.648 536.272,652.648 C537.936008,652.648 539.175996,653.095996 539.992,653.992 C540.808004,654.888004 541.375998,656.199991 541.696,657.928 Z M530.608,662.248 L548.512,662.248 C548.640001,660.32799 548.480002,658.488009 548.032,656.728 C547.583998,654.967991 546.856005,653.400007 545.848,652.024 C544.839995,650.647993 543.552008,649.552004 541.984,648.736 C540.415992,647.919996 538.576011,647.512 536.464,647.512 C534.575991,647.512 532.856008,647.847997 531.304,648.52 C529.751992,649.192003 528.416006,650.111994 527.296,651.28 C526.175994,652.448006 525.312003,653.831992 524.704,655.432 C524.095997,657.032008 523.792,658.759991 523.792,660.616 C523.792,662.53601 524.087997,664.295992 524.68,665.896 C525.272003,667.496008 526.111995,668.871994 527.2,670.024 C528.288005,671.176006 529.615992,672.063997 531.184,672.688 C532.752008,673.312003 534.51199,673.624 536.464,673.624 C539.280014,673.624 541.67999,672.984006 543.664,671.704 C545.64801,670.423994 547.119995,668.296015 548.08,665.32 L542.08,665.32 C541.855999,666.088004 541.248005,666.815997 540.256,667.504 C539.263995,668.192003 538.080007,668.536 536.704,668.536 C534.78399,668.536 533.312005,668.040005 532.288,667.048 C531.263995,666.055995 530.704,664.456011 530.608,662.248 Z M569.44,656.92 L576.112,656.92 C576.016,655.319992 575.632003,653.936006 574.96,652.768 C574.287997,651.599994 573.416005,650.624004 572.344,649.84 C571.271995,649.055996 570.056007,648.472002 568.696,648.088 C567.335993,647.703998 565.920007,647.512 564.448,647.512 C562.43199,647.512 560.640008,647.847997 559.072,648.52 C557.503992,649.192003 556.176005,650.127994 555.088,651.328 C553.999995,652.528006 553.176003,653.951992 552.616,655.6 C552.055997,657.248008 551.776,659.03199 551.776,660.952 C551.776,662.808009 552.079997,664.512 552.688,666.064 C553.296003,667.616008 554.143995,668.951994 555.232,670.072 C556.320005,671.192006 557.639992,672.063997 559.192,672.688 C560.744008,673.312003 562.447991,673.624 564.304,673.624 C567.600016,673.624 570.303989,672.760009 572.416,671.032 C574.528011,669.303991 575.807998,666.792016 576.256,663.496 L569.68,663.496 C569.455999,665.032008 568.904004,666.255995 568.024,667.168 C567.143996,668.080005 565.888008,668.536 564.256,668.536 C563.199995,668.536 562.304004,668.296002 561.568,667.816 C560.831996,667.335998 560.248002,666.720004 559.816,665.968 C559.383998,665.215996 559.072001,664.376005 558.88,663.448 C558.687999,662.519995 558.592,661.608004 558.592,660.712 C558.592,659.783995 558.687999,658.848005 558.88,657.904 C559.072001,656.959995 559.399998,656.096004 559.864,655.312 C560.328002,654.527996 560.927996,653.888002 561.664,653.392 C562.400004,652.895998 563.311995,652.648 564.4,652.648 C567.312015,652.648 568.991998,654.071986 569.44,656.92 Z M587.104,644.344 L587.104,638.728 L580.288,638.728 L580.288,644.344 L587.104,644.344 Z M580.288,648.184 L580.288,673 L587.104,673 L587.104,648.184 L580.288,648.184 Z M597.76,664.936 L591.28,664.936 C591.344,666.600008 591.719997,667.983994 592.408,669.088 C593.096003,670.192006 593.975995,671.079997 595.048,671.752 C596.120005,672.424003 597.343993,672.903999 598.72,673.192 C600.096007,673.480001 601.503993,673.624 602.944,673.624 C604.352007,673.624 605.735993,673.488001 607.096,673.216 C608.456007,672.943999 609.663995,672.472003 610.72,671.8 C611.776005,671.127997 612.631997,670.240006 613.288,669.136 C613.944003,668.031994 614.272,666.664008 614.272,665.032 C614.272,663.879994 614.048002,662.912004 613.6,662.128 C613.151998,661.343996 612.560004,660.688003 611.824,660.16 C611.087996,659.631997 610.248005,659.208002 609.304,658.888 C608.359995,658.567998 607.392005,658.296001 606.4,658.072 C605.439995,657.847999 604.496005,657.640001 603.568,657.448 C602.639995,657.255999 601.816004,657.040001 601.096,656.8 C600.375996,656.559999 599.792002,656.248002 599.344,655.864 C598.895998,655.479998 598.672,654.984003 598.672,654.376 C598.672,653.863997 598.799999,653.456002 599.056,653.152 C599.312001,652.847998 599.623998,652.616001 599.992,652.456 C600.360002,652.295999 600.767998,652.192 601.216,652.144 C601.664002,652.096 602.079998,652.072 602.464,652.072 C603.680006,652.072 604.735996,652.303998 605.632,652.768 C606.528004,653.232002 607.024,654.119993 607.12,655.432 L613.6,655.432 C613.471999,653.895992 613.080003,652.624005 612.424,651.616 C611.767997,650.607995 610.944005,649.800003 609.952,649.192 C608.959995,648.583997 607.832006,648.152001 606.568,647.896 C605.303994,647.639999 604.000007,647.512 602.656,647.512 C601.311993,647.512 600.000006,647.631999 598.72,647.872 C597.439994,648.112001 596.288005,648.527997 595.264,649.12 C594.239995,649.712003 593.416003,650.519995 592.792,651.544 C592.167997,652.568005 591.856,653.879992 591.856,655.48 C591.856,656.568005 592.079998,657.487996 592.528,658.24 C592.976002,658.992004 593.567996,659.615998 594.304,660.112 C595.040004,660.608002 595.879995,661.007998 596.824,661.312 C597.768005,661.616002 598.735995,661.879999 599.728,662.104 C602.160012,662.616003 604.055993,663.127997 605.416,663.64 C606.776007,664.152003 607.456,664.919995 607.456,665.944 C607.456,666.552003 607.312001,667.055998 607.024,667.456 C606.735999,667.856002 606.376002,668.175999 605.944,668.416 C605.511998,668.656001 605.032003,668.831999 604.504,668.944 C603.975997,669.056001 603.472002,669.112 602.992,669.112 C602.319997,669.112 601.672003,669.032001 601.048,668.872 C600.423997,668.711999 599.872002,668.464002 599.392,668.128 C598.911998,667.791998 598.520002,667.360003 598.216,666.832 C597.911998,666.303997 597.76,665.672004 597.76,664.936 Z M625.264,644.344 L625.264,638.728 L618.448,638.728 L618.448,644.344 L625.264,644.344 Z M618.448,648.184 L618.448,673 L625.264,673 L625.264,648.184 L618.448,648.184 Z M636.688,660.616 C636.688,659.623995 636.783999,658.648 636.976,657.688 C637.168001,656.727995 637.495998,655.880004 637.96,655.144 C638.424002,654.407996 639.039996,653.808002 639.808,653.344 C640.576004,652.879998 641.535994,652.648 642.688,652.648 C643.840006,652.648 644.807996,652.879998 645.592,653.344 C646.376004,653.808002 646.999998,654.407996 647.464,655.144 C647.928002,655.880004 648.255999,656.727995 648.448,657.688 C648.640001,658.648 648.736,659.623995 648.736,660.616 C648.736,661.608005 648.640001,662.575995 648.448,663.52 C648.255999,664.464005 647.928002,665.311996 647.464,666.064 C646.999998,666.816004 646.376004,667.415998 645.592,667.864 C644.807996,668.312002 643.840006,668.536 642.688,668.536 C641.535994,668.536 640.576004,668.312002 639.808,667.864 C639.039996,667.415998 638.424002,666.816004 637.96,666.064 C637.495998,665.311996 637.168001,664.464005 636.976,663.52 C636.783999,662.575995 636.688,661.608005 636.688,660.616 Z M629.872,660.616 C629.872,662.60001 630.175997,664.391992 630.784,665.992 C631.392003,667.592008 632.255994,668.959994 633.376,670.096 C634.496006,671.232006 635.839992,672.103997 637.408,672.712 C638.976008,673.320003 640.73599,673.624 642.688,673.624 C644.64001,673.624 646.407992,673.320003 647.992,672.712 C649.576008,672.103997 650.927994,671.232006 652.048,670.096 C653.168006,668.959994 654.031997,667.592008 654.64,665.992 C655.248003,664.391992 655.552,662.60001 655.552,660.616 C655.552,658.63199 655.248003,656.832008 654.64,655.216 C654.031997,653.599992 653.168006,652.224006 652.048,651.088 C650.927994,649.951994 649.576008,649.072003 647.992,648.448 C646.407992,647.823997 644.64001,647.512 642.688,647.512 C640.73599,647.512 638.976008,647.823997 637.408,648.448 C635.839992,649.072003 634.496006,649.951994 633.376,651.088 C632.255994,652.224006 631.392003,653.599992 630.784,655.216 C630.175997,656.832008 629.872,658.63199 629.872,660.616 Z M659.968,648.184 L659.968,673 L666.784,673 L666.784,659.992 C666.784,657.463987 667.199996,655.648006 668.032,654.544 C668.864004,653.439994 670.207991,652.888 672.064,652.888 C673.696008,652.888 674.831997,653.391995 675.472,654.4 C676.112003,655.408005 676.432,656.93599 676.432,658.984 L676.432,673 L683.248,673 L683.248,657.736 C683.248,656.199992 683.112001,654.800006 682.84,653.536 C682.567999,652.271994 682.096003,651.200004 681.424,650.32 C680.751997,649.439996 679.832006,648.752002 678.664,648.256 C677.495994,647.759998 676.000009,647.512 674.176,647.512 C672.735993,647.512 671.328007,647.839997 669.952,648.496 C668.575993,649.152003 667.456004,650.199993 666.592,651.64 L666.448,651.64 L666.448,648.184 L659.968,648.184 Z M705.136,657.928 L694.048,657.928 C694.08,657.447998 694.183999,656.904003 694.36,656.296 C694.536001,655.687997 694.839998,655.112003 695.272,654.568 C695.704002,654.023997 696.279996,653.568002 697,653.2 C697.720004,652.831998 698.623995,652.648 699.712,652.648 C701.376008,652.648 702.615996,653.095996 703.432,653.992 C704.248004,654.888004 704.815998,656.199991 705.136,657.928 Z M694.048,662.248 L711.952,662.248 C712.080001,660.32799 711.920002,658.488009 711.472,656.728 C711.023998,654.967991 710.296005,653.400007 709.288,652.024 C708.279995,650.647993 706.992008,649.552004 705.424,648.736 C703.855992,647.919996 702.016011,647.512 699.904,647.512 C698.015991,647.512 696.296008,647.847997 694.744,648.52 C693.191992,649.192003 691.856006,650.111994 690.736,651.28 C689.615994,652.448006 688.752003,653.831992 688.144,655.432 C687.535997,657.032008 687.232,658.759991 687.232,660.616 C687.232,662.53601 687.527997,664.295992 688.12,665.896 C688.712003,667.496008 689.551995,668.871994 690.64,670.024 C691.728005,671.176006 693.055992,672.063997 694.624,672.688 C696.192008,673.312003 697.95199,673.624 699.904,673.624 C702.720014,673.624 705.11999,672.984006 707.104,671.704 C709.08801,670.423994 710.559995,668.296015 711.52,665.32 L705.52,665.32 C705.295999,666.088004 704.688005,666.815997 703.696,667.504 C702.703995,668.192003 701.520007,668.536 700.144,668.536 C698.22399,668.536 696.752005,668.040005 695.728,667.048 C694.703995,666.055995 694.144,664.456011 694.048,662.248 Z M721.264,664.936 C721.264,665.672004 721.415998,666.303997 721.72,666.832 C722.024002,667.360003 722.415998,667.791998 722.896,668.128 C723.376002,668.464002 723.927997,668.711999 724.552,668.872 C725.176003,669.032001 725.823997,669.112 726.496,669.112 C726.976002,669.112 727.479997,669.056001 728.008,668.944 C728.536003,668.831999 729.015998,668.656001 729.448,668.416 C729.880002,668.175999 730.239999,667.856002 730.528,667.456 C730.816001,667.055998 730.96,666.552003 730.96,665.944 C730.96,664.919995 730.280007,664.152003 728.92,663.64 C727.559993,663.127997 725.664012,662.616003 723.232,662.104 C722.239995,661.879999 721.272005,661.616002 720.328,661.312 C719.383995,661.007998 718.544004,660.608002 717.808,660.112 C717.071996,659.615998 716.480002,658.992004 716.032,658.24 C715.583998,657.487996 715.36,656.568005 715.36,655.48 C715.36,653.879992 715.671997,652.568005 716.296,651.544 C716.920003,650.519995 717.743995,649.712003 718.768,649.12 C719.792005,648.527997 720.943994,648.112001 722.224,647.872 C723.504006,647.631999 724.815993,647.512 726.16,647.512 C727.504007,647.512 728.807994,647.639999 730.072,647.896 C731.336006,648.152001 732.463995,648.583997 733.456,649.192 C734.448005,649.800003 735.271997,650.607995 735.928,651.616 C736.584003,652.624005 736.975999,653.895992 737.104,655.432 L730.624,655.432 C730.528,654.119993 730.032004,653.232002 729.136,652.768 C728.239996,652.303998 727.184006,652.072 725.968,652.072 C725.583998,652.072 725.168002,652.096 724.72,652.144 C724.271998,652.192 723.864002,652.295999 723.496,652.456 C723.127998,652.616001 722.816001,652.847998 722.56,653.152 C722.303999,653.456002 722.176,653.863997 722.176,654.376 C722.176,654.984003 722.399998,655.479998 722.848,655.864 C723.296002,656.248002 723.879996,656.559999 724.6,656.8 C725.320004,657.040001 726.143995,657.255999 727.072,657.448 C728.000005,657.640001 728.943995,657.847999 729.904,658.072 C730.896005,658.296001 731.863995,658.567998 732.808,658.888 C733.752005,659.208002 734.591996,659.631997 735.328,660.16 C736.064004,660.688003 736.655998,661.343996 737.104,662.128 C737.552002,662.912004 737.776,663.879994 737.776,665.032 C737.776,666.664008 737.448003,668.031994 736.792,669.136 C736.135997,670.240006 735.280005,671.127997 734.224,671.8 C733.167995,672.472003 731.960007,672.943999 730.6,673.216 C729.239993,673.488001 727.856007,673.624 726.448,673.624 C725.007993,673.624 723.600007,673.480001 722.224,673.192 C720.847993,672.903999 719.624005,672.424003 718.552,671.752 C717.479995,671.079997 716.600003,670.192006 715.912,669.088 C715.223997,667.983994 714.848,666.600008 714.784,664.936 L721.264,664.936 Z" id="Decisiones" fill="#FFFFFF" fill-rule="nonzero"></path>
    </g>
</svg>
