<svg width="1166" height="490" viewBox="0 0 1166 490" fill="none" xmlns="http://www.w3.org/2000/svg">
<path fill-rule="evenodd" clip-rule="evenodd" d="M591.169 487.736L788.962 373.685C794.196 370.666 797.42 365.088 797.42 359.052V130.948C797.42 124.912 794.196 119.334 788.962 116.315L591.169 2.26371C585.935 -0.75457 579.486 -0.75457 574.251 2.26371L376.459 116.315C371.225 119.334 368 124.912 368 130.948V359.052C368 365.088 371.225 370.666 376.459 373.685L574.251 487.736C579.486 490.755 585.935 490.755 591.169 487.736ZM384.918 358.522L441.371 325.948L442.647 328.158L387.013 360.26L582.612 473.047L582.611 405.737H585.163L585.164 471.689L779.392 359.692L722.33 326.27L723.62 324.068L780.503 357.385V132.561L723.376 165.529L722.1 163.318L779.346 130.282L584.686 18.036L584.687 81.3034L582.134 81.3034L582.134 17.2287L387.75 129.315L442.428 162.272L441.111 164.458L385.223 130.772L384.918 130.948V358.522ZM527.636 139.984L654.423 145.583L705.754 258.265L633.336 361.249L505.859 353.183L453.598 231.093L527.636 139.984ZM609.622 332.298L542.466 349.607L621.441 354.594L609.622 332.298ZM681.791 283.281L623.005 326.466L634.686 348.977L681.791 283.281ZM511.324 264.012L513.25 339.993L590.953 320.084L511.324 264.012ZM461.947 239.808L498.59 324.936L497.065 247.14L461.947 239.808ZM638.132 204.345L623.81 308.761L692.395 258.645L638.132 204.345ZM620.138 205.782L528.457 245.284L606.839 305.047L620.138 205.782ZM516.496 161.979L464.223 227.071L499.172 234.371L516.496 161.979ZM653.985 162.351L642.567 185.466L685.066 228.068L653.985 162.351ZM536.255 154.878L520.864 220.289L609.524 185.988L536.255 154.878ZM565.129 148.303L626.69 174.856L639.759 151.29L565.129 148.303Z" fill="url(#paint0_linear)"/>
<path fill-rule="evenodd" clip-rule="evenodd" d="M939.198 278.984L1028 227.777C1030.35 226.422 1031.8 223.917 1031.8 221.207V118.793C1031.8 116.083 1030.35 113.578 1028 112.223L939.198 61.0164C936.848 59.6612 933.953 59.6612 931.603 61.0164L842.798 112.223C840.448 113.578 839 116.083 839 118.793V221.207C839 223.917 840.448 226.422 842.798 227.777L931.603 278.984C933.953 280.339 936.848 280.339 939.198 278.984ZM846.596 220.969L871.942 206.344L872.515 207.336L847.536 221.749L935.356 272.388L935.356 242.168H936.502L936.502 271.779L1023.71 221.494L998.087 206.488L998.666 205.5L1024.21 220.458V119.517L998.557 134.319L997.984 133.327L1023.69 118.494L936.288 68.0978L936.288 96.5036H935.142L935.142 67.7353L847.867 118.06L872.417 132.857L871.825 133.838L846.733 118.714L846.596 118.793V220.969ZM910.673 122.85L967.598 125.364L990.645 175.956L958.13 222.193L900.896 218.572L877.432 163.756L910.673 122.85ZM947.483 209.195L917.332 216.967L952.79 219.206L947.483 209.195ZM979.886 187.187L953.492 206.576L958.737 216.684L979.886 187.187ZM903.35 178.536L904.214 212.65L939.101 203.711L903.35 178.536ZM881.18 167.669L897.632 205.89L896.947 170.961L881.18 167.669ZM960.284 151.747L953.854 198.627L984.647 176.126L960.284 151.747ZM952.205 152.392L911.042 170.127L946.234 196.96L952.205 152.392ZM905.672 132.725L882.202 161.95L897.894 165.228L905.672 132.725ZM967.401 132.892L962.275 143.27L981.356 162.398L967.401 132.892ZM914.543 129.537L907.633 158.905L947.439 143.505L914.543 129.537ZM927.507 126.585L955.146 138.507L961.014 127.926L927.507 126.585Z" fill="#9013FE" fill-opacity="0.16"/>
<path fill-rule="evenodd" clip-rule="evenodd" d="M1121.37 191.52L1163.35 167.313C1164.46 166.672 1165.14 165.488 1165.14 164.207V115.793C1165.14 114.512 1164.46 113.328 1163.35 112.687L1121.37 88.4805C1120.26 87.8398 1118.89 87.8398 1117.78 88.4805L1075.8 112.687C1074.68 113.328 1074 114.512 1074 115.793V164.207C1074 165.488 1074.68 166.672 1075.8 167.313L1117.78 191.52C1118.89 192.16 1120.26 192.16 1121.37 191.52ZM1077.59 164.094L1089.57 157.181L1089.84 157.65L1078.04 164.463L1119.55 188.402L1119.55 174.115H1120.09L1120.09 188.114L1161.32 164.343L1149.2 157.25L1149.48 156.782L1161.55 163.854V116.135L1149.43 123.133L1149.16 122.663L1161.31 115.652L1119.99 91.8281L1119.99 105.256L1119.45 105.256L1119.45 91.6567L1078.19 115.447L1089.8 122.442L1089.52 122.906L1077.66 115.756L1077.59 115.793V164.094ZM1107.88 117.711L1134.79 118.899L1145.69 142.815L1130.32 164.673L1103.26 162.961L1092.17 137.048L1107.88 117.711ZM1125.28 158.528L1111.03 162.202L1127.79 163.261L1125.28 158.528ZM1140.6 148.125L1128.12 157.29L1130.6 162.068L1140.6 148.125ZM1104.42 144.035L1104.83 160.162L1121.32 155.936L1104.42 144.035ZM1093.94 138.898L1101.72 156.966L1101.39 140.454L1093.94 138.898ZM1131.33 131.371L1128.29 153.533L1142.85 142.896L1131.33 131.371ZM1127.52 131.676L1108.06 140.06L1124.69 152.745L1127.52 131.676ZM1105.52 122.379L1094.42 136.194L1101.84 137.744L1105.52 122.379ZM1134.7 122.458L1132.28 127.364L1141.3 136.406L1134.7 122.458ZM1109.71 120.872L1106.44 134.755L1125.26 127.475L1109.71 120.872ZM1115.84 119.476L1128.91 125.112L1131.68 120.11L1115.84 119.476Z" fill="#9013FE" fill-opacity="0.12"/>
<path fill-rule="evenodd" clip-rule="evenodd" d="M47.3665 191.52L89.3469 167.313C90.4579 166.672 91.1423 165.488 91.1423 164.207V115.793C91.1423 114.512 90.4579 113.328 89.3469 112.687L47.3665 88.4805C46.2555 87.8398 44.8868 87.8398 43.7758 88.4805L1.79536 112.687C0.684389 113.328 0 114.512 0 115.793V164.207C0 165.488 0.684389 166.672 1.79536 167.313L43.7758 191.52C44.8868 192.16 46.2555 192.16 47.3665 191.52ZM3.59073 164.094L15.5726 157.181L15.8434 157.65L4.03529 164.463L45.5502 188.402L45.5501 174.115H46.0917L46.0919 188.114L87.3155 164.343L75.2047 157.25L75.4785 156.782L87.5516 163.854V116.135L75.4267 123.133L75.156 122.663L87.3061 115.652L45.9906 91.8281L45.9906 105.256L45.449 105.256L45.4489 91.6567L4.19141 115.447L15.7969 122.442L15.5173 122.906L3.65514 115.756L3.59073 115.793V164.094ZM33.8819 117.711L60.7918 118.899L71.6866 142.815L56.3161 164.673L29.2598 162.961L18.1677 137.048L33.8819 117.711ZM51.2831 158.528L37.0295 162.202L53.7916 163.261L51.2831 158.528ZM66.6005 148.125L54.1235 157.29L56.6027 162.068L66.6005 148.125ZM30.4198 144.035L30.8286 160.162L47.3205 155.936L30.4198 144.035ZM19.9398 138.898L27.7169 156.966L27.3933 140.454L19.9398 138.898ZM57.3342 131.371L54.2944 153.533L68.8512 142.896L57.3342 131.371ZM53.515 131.676L34.0561 140.06L50.6923 152.745L53.515 131.676ZM31.5176 122.379L20.4229 136.194L27.8406 137.744L31.5176 122.379ZM60.6988 122.458L58.2754 127.364L67.2957 136.406L60.6988 122.458ZM35.7113 120.872L32.4446 134.755L51.2621 127.475L35.7113 120.872ZM41.8396 119.476L54.9056 125.112L57.6794 120.11L41.8396 119.476Z" fill="#9013FE" fill-opacity="0.12"/>
<path fill-rule="evenodd" clip-rule="evenodd" d="M233.198 278.984L322.003 227.777C324.353 226.422 325.801 223.917 325.801 221.207V118.793C325.801 116.083 324.353 113.578 322.003 112.223L233.198 61.0164C230.848 59.6612 227.953 59.6612 225.603 61.0164L136.798 112.223C134.448 113.578 133 116.083 133 118.793V221.207C133 223.917 134.448 226.422 136.798 227.777L225.603 278.984C227.953 280.339 230.848 280.339 233.198 278.984ZM140.596 220.969L165.942 206.344L166.515 207.336L141.536 221.749L229.356 272.388L229.356 242.168H230.502L230.502 271.779L317.707 221.494L292.087 206.488L292.666 205.5L318.205 220.458V119.517L292.557 134.319L291.984 133.327L317.686 118.494L230.288 68.0978L230.288 96.5036H229.142L229.142 67.7353L141.867 118.06L166.417 132.857L165.825 133.838L140.733 118.714L140.596 118.793V220.969ZM204.673 122.85L261.598 125.364L284.645 175.956L252.13 222.193L194.896 218.572L171.432 163.756L204.673 122.85ZM241.483 209.195L211.332 216.967L246.79 219.206L241.483 209.195ZM273.886 187.187L247.492 206.576L252.737 216.684L273.886 187.187ZM197.35 178.536L198.214 212.65L233.101 203.711L197.35 178.536ZM175.18 167.669L191.632 205.89L190.947 170.961L175.18 167.669ZM254.284 151.747L247.854 198.627L278.647 176.126L254.284 151.747ZM246.205 152.392L205.042 170.127L240.234 196.96L246.205 152.392ZM199.672 132.725L176.202 161.95L191.894 165.228L199.672 132.725ZM261.401 132.892L256.275 143.27L275.356 162.398L261.401 132.892ZM208.543 129.537L201.633 158.905L241.439 143.505L208.543 129.537ZM221.507 126.585L249.146 138.507L255.014 127.926L221.507 126.585Z" fill="#9013FE" fill-opacity="0.16"/>
<defs>
<linearGradient id="paint0_linear" x1="582.71" y1="0" x2="582.71" y2="490" gradientUnits="userSpaceOnUse">
<stop stop-color="#9013FE"/>
<stop offset="1" stop-color="#9013FE" stop-opacity="0"/>
</linearGradient>
</defs>
</svg>
