<?xml version="1.0" encoding="UTF-8"?>
<svg width="560px" height="126px" viewBox="0 0 560 126" version="1.1" xmlns="http://www.w3.org/2000/svg" xmlns:xlink="http://www.w3.org/1999/xlink">
    <title>logo-text</title>
    <g id="Page-1" stroke="none" stroke-width="1" fill="none" fill-rule="evenodd">
        <g id="dexblue-logo" transform="translate(-182.000000, -9.000000)">
            <g id="logo-text" transform="translate(182.000000, 9.000000)">
                <path d="M84.292,84.7974825 C84.292,109.742902 63.2722186,125.541063 42.797,125.326767 C18.0006347,125.067245 0,108.364767 0,83.617767 C0,62.547767 14.532,42.218767 42.308,42.218767 C51.011,42.218767 59.235,45.078767 65.767,50.237767 C65.779,22.428767 65.789,14.914 65.794,1.01 L84.292,1 C84.292,54.6902567 84.292,82.6227508 84.292,84.7974825 Z M42.61,59.027767 C28.565,59.027767 19.126,68.256767 19.126,83.484767 C19.126,98.656767 28.783,108.252767 42.61,108.252767 C56.949,108.252767 66.584,98.960767 66.584,83.640767 C66.584,68.321767 56.95,59.027767 42.61,59.027767 Z" id="d" fill="#0F2450" fill-rule="nonzero"></path>
                <path d="M136.149,125.375 C110.744,125.375 93,107.885 93,82.844 C93,58.019 110.528,42 134.676,42 C145.34,42 154.573,45.491 161.377,52.096 C169.75,60.23 174.026,70.378 173.736,85.235 L173.681,88.126 L112.119,88.126 C112.119,99.5352708 123.616,108.263 136.147,108.263 C145.089,108.263 151.917,106.063918 156.821709,97.1086035 L173.411994,102.25105 C168.007269,117.564815 148.662073,125.375 136.149,125.375 Z M153.917,72.593 C150.617,63.619 144.266,59.075 134.992,59.075 C125.319,59.075 117.933,63.949 114.25,72.593 L153.917,72.593 Z" id="e" fill="#0F2450" fill-rule="nonzero"></path>
                <polygon id="x" fill="#0F2450" points="237.556 124.818 215.442 96.819 194.396 124.818 172.056 124.818 203.847 82.717 172 43 194.991 43 215.815 69.025 235.728 43 258.488 43 227.26 83.109 260.542 124.818"></polygon>
                <path d="M285.044,115.521828 C285.044,120.715493 280.850832,125.043 275.434137,125.043 C270.192513,125.043 266,120.715493 266,115.521828 C266,110.327507 270.192513,106 275.434137,106 C280.851487,106 285.044,110.326852 285.044,115.521828 Z" id="." fill="#307FE6"></path>
                <path d="M301.123918,1.00201808 C301.123918,17.305062 301.123918,25.1566663 301.123918,57.7607361 C308.204508,49.6097187 318.735266,45.3757908 329.268133,45.3757908 C355.51386,45.3757908 370.880966,63.8734947 370.880966,85.1954989 C370.880966,108.867555 352.750985,125.329018 328.750555,125.329018 C319.252844,125.329018 305.895964,123.242325 294.834978,108.840311 C291.376378,104.337979 288,97.756017 288,85.1954989 C288,77.3078406 288,60.3103064 288,1 L301.123918,1.00201808 Z M329.325056,113.843127 C346.056206,113.843127 357.440809,101.761902 357.440809,84.9725012 C357.440809,68.1810824 346.056206,56.4116509 329.325056,56.4116509 C312.940714,56.4116509 300.694887,67.39605 300.694887,85.1268842 C300.694887,102.702326 312.940714,113.843127 329.325056,113.843127 Z" id="b" fill="#307FE6" fill-rule="nonzero"></path>
                <polygon id="l" fill="#307FE6" points="392.441211 1 392.441211 125.178756 379 125.178756 379 0.994954805"></polygon>
                <path d="M471.452351,48 L471.452351,94.1837174 C471.452351,111.305092 456.85476,124.814107 438.310506,124.814107 C419.767306,124.814107 405,111.304083 405,94.1837174 L405,48 L418.051183,48 L418.051183,94.1837174 C418.051183,105.178207 426.464194,113.503788 438.310506,113.503788 C450.158926,113.503788 458.402222,105.179216 458.402222,94.1837174 L458.402222,48 L471.452351,48 Z" id="u" fill="#307FE6"></path>
                <path d="M558.824693,103.075515 C553.285114,115.375082 540.229312,124.684823 522.115653,124.684823 C497.532289,124.684823 481,108.435258 481,84.998308 C481,61.87416 497.188643,45 520.56819,45 C544.633977,45 559.901625,62.028543 559.38721,87.3412967 L494.406424,87.3412967 C494.406424,101.560675 505.438264,113.434037 522.114599,113.434037 C534.75647,113.434037 542.442419,108.252767 547.114594,99.4836314 L558.824693,103.075515 Z M495.186481,75.8695317 L545.214433,75.8695317 C542.645518,66.0233286 535.134158,56.4869006 520.228761,56.4869006 C507.721509,56.4858915 498.968537,66.1782161 495.186481,75.8695317 Z" id="e" fill="#307FE6" fill-rule="nonzero"></path>
            </g>
        </g>
    </g>
</svg>
