<svg width="64" height="50" viewBox="0 0 64 50" fill="none" xmlns="http://www.w3.org/2000/svg">
<path d="M54.2141 4.14915C50.0713 2.21082 45.6415 0.802125 41.0104 0C40.4416 1.0283 39.7772 2.41137 39.319 3.51161C34.396 2.77125 29.5182 2.77125 24.6858 3.51161C24.2277 2.41137 23.5481 1.0283 22.9743 0C18.3382 0.802125 13.9033 2.216 9.76051 4.15941C1.40438 16.7866 -0.86083 29.1002 0.271778 41.2389C5.81401 45.3777 11.1851 47.8919 16.4655 49.5371C17.7693 47.7428 18.9321 45.8353 19.9338 43.8251C18.026 43.1001 16.1987 42.2055 14.4722 41.167C14.9302 40.8276 15.3783 40.4729 15.8111 40.1078C26.3419 45.0333 37.7837 45.0333 48.1886 40.1078C48.6266 40.4729 49.0745 40.8276 49.5276 41.167C47.7959 42.2106 45.9637 43.1052 44.0559 43.8302C45.0576 45.8353 46.2154 47.748 47.5242 49.5422C52.8097 47.897 58.1858 45.3829 63.728 41.2389C65.0569 27.167 61.4578 14.9666 54.2141 4.14915ZM21.3685 33.7737C18.2073 33.7737 15.6148 30.8225 15.6148 27.2287C15.6148 23.6349 18.1519 20.6786 21.3685 20.6786C24.5851 20.6786 27.1775 23.6297 27.1221 27.2287C27.1271 30.8225 24.5851 33.7737 21.3685 33.7737ZM42.6313 33.7737C39.4701 33.7737 36.8776 30.8225 36.8776 27.2287C36.8776 23.6349 39.4147 20.6786 42.6313 20.6786C45.8479 20.6786 48.4403 23.6297 48.385 27.2287C48.385 30.8225 45.8479 33.7737 42.6313 33.7737Z" fill="#5865F2"/>
</svg>
