<?xml version="1.0" encoding="UTF-8"?>
<svg width="751px" height="800px" viewBox="0 0 751 800" version="1.1" xmlns="http://www.w3.org/2000/svg" xmlns:xlink="http://www.w3.org/1999/xlink">
    <!-- Generator: Sketch 58 (84663) - https://sketch.com -->
    <title>symbol-dispute-resolver</title>
    <desc>Created with Sketch.</desc>
    <defs>
        <linearGradient x1="50%" y1="100%" x2="50%" y2="22.0986038%" id="disputeResolverlinearGradient11">
            <stop stop-color="#4D00B4" offset="0%"></stop>
            <stop stop-color="#9013FE" offset="100%"></stop>
        </linearGradient>
        <linearGradient x1="50%" y1="0%" x2="50%" y2="100%" id="disputeResolverlinearGradient22">
            <stop stop-color="#4D00B4" offset="0%"></stop>
            <stop stop-color="#1E075F" offset="100%"></stop>
        </linearGradient>
        <linearGradient x1="50%" y1="0%" x2="50%" y2="100%" id="disputeResolverlinearGradient33">
            <stop stop-color="#C89EFF" offset="0%"></stop>
            <stop stop-color="#7911F9" offset="100%"></stop>
        </linearGradient>
    </defs>
    <g id="symbol-dispute-resolver" stroke="none" stroke-width="1" fill="none" fill-rule="evenodd">
        <g id="DISPUTE-RESOLVER-LOGO" transform="translate(27.000000, 28.000000)">
            <circle id="Oval" fill="url(#disputeResolverlinearGradient11)" cx="348.7" cy="348.7" r="348.7"></circle>
            <circle id="Oval" fill="url(#disputeResolverlinearGradient22)" cx="348.15" cy="348.15" r="315.15"></circle>
            <path d="M310.69188,266.2 L401.95224,270.236059 L438.9,351.463509 L386.773573,425.7 L295.017104,419.886012 L257.4,331.876577 L310.69188,266.2 Z M369.339716,404.149878 L320.93543,416.610064 L377.858604,420.2 L369.339716,404.149878 Z M421.356826,368.86453 L378.985751,399.951563 L387.404983,416.15674 L421.356826,368.86453 Z M298.489298,354.994193 L299.877612,409.689555 L355.883262,395.358001 L298.489298,354.994193 Z M262.9,337.570569 L289.310616,398.850394 L288.211534,342.848626 L262.9,337.570569 Z M389.888943,312.042383 L379.565933,387.206641 L429,351.130233 L389.888943,312.042383 Z M376.919316,313.077019 L310.838078,341.512338 L367.333418,384.5335 L376.919316,313.077019 Z M302.217242,281.54512 L264.540318,328.40205 L289.730433,333.656991 L302.217242,281.54512 Z M401.315044,281.812942 L393.085387,298.452271 L423.717648,329.119812 L401.315044,281.812942 Z M316.458918,276.433393 L305.365577,323.519804 L369.268696,298.828349 L316.458918,276.433393 Z M337.270459,271.7 L381.641532,290.814565 L391.061335,273.850466 L337.270459,271.7 Z" id="Combined-Shape" fill="url(#disputeResolverlinearGradient33)"></path>
            <path d="M522.214,505.075 C583.123276,505.075 632.5,484.789977 632.5,459.767133 C632.5,434.744289 411.928,434.744289 411.928,459.767133 C411.928,484.789977 461.304724,505.075 522.214,505.075 Z" id="Oval" fill="#FFFFFF" fill-rule="nonzero"></path>
            <path d="M629.73597,463.15 L529.877766,307.582104 L413.236765,463.15 L629.73597,463.15 Z M619.669964,457.65 L424.23479,457.65 L529.527345,317.217896 L619.669964,457.65 Z" id="Path-118" fill="#E1BEFF" fill-rule="nonzero"></path>
            <path d="M173.514,505.075 C234.423276,505.075 283.8,484.789977 283.8,459.767133 C283.8,434.744289 63.228,434.744289 63.228,459.767133 C63.228,484.789977 112.604724,505.075 173.514,505.075 Z" id="Oval" fill="#FFFFFF" fill-rule="nonzero"></path>
            <path d="M281.42836,463.15 L167.398744,307.583775 L64.9314816,463.15 L281.42836,463.15 Z M270.577574,457.65 L75.140074,457.65 L167.640001,317.216225 L270.577574,457.65 Z" id="Path-118" fill="#E1BEFF" fill-rule="nonzero"></path>
            <polygon id="Triangle" fill="#E1BEFF" points="347.05 160.6 387.2 200.75 306.9 200.75"></polygon>
            <polygon id="Triangle" fill="#4D00B4" points="347.6 181.5 370.7 204.6 324.5 204.6"></polygon>
            <path d="M347.05,192.5 C282.971544,192.5 222.732908,226.032698 166.518291,292.406024 L120.430228,292.406024 C115.873879,292.406024 112.180228,296.099674 112.180228,300.656024 C112.180228,305.212373 115.873879,308.906024 120.430228,308.906024 L170.362895,308.906024 C172.811987,308.906024 175.134483,307.817902 176.701924,305.9361 C230.731172,241.070944 287.449696,209 347.05,209 C406.745454,209 465.724734,241.167338 524.090644,306.167954 C525.655402,307.910585 527.887082,308.906024 530.229139,308.906024 L578.883594,308.906024 C583.439943,308.906024 587.133594,305.212373 587.133594,300.656024 C587.133594,296.099674 583.439943,292.406024 578.883594,292.406024 L533.891502,292.406024 C473.420807,226.015137 411.107404,192.5 347.05,192.5 Z" id="Path-119" fill="#E1BEFF" fill-rule="nonzero"></path>
            <ellipse id="Oval" fill="#009AFF" cx="173.25" cy="460.000364" rx="102.85" ry="9.35"></ellipse>
            <ellipse id="Oval" fill="#009AFF" cx="521.95" cy="460.000364" rx="102.85" ry="9.35"></ellipse>
            <circle id="Oval" fill="#FFFFFF" cx="169.4" cy="303.6" r="20.9"></circle>
            <circle id="Oval" fill="#4D00B4" cx="169.4" cy="303.6" r="12.1"></circle>
            <circle id="Oval" fill="#FFFFFF" cx="530.2" cy="303.6" r="20.9"></circle>
            <circle id="Oval" fill="#4D00B4" cx="530.2" cy="303.6" r="12.1"></circle>
            <path d="M350.899964,162.816595 L351.450001,35.2165947 C351.459129,33.0903181 349.742871,31.3592007 347.616595,31.3499992 C345.490318,31.3408708 343.759201,33.0571288 343.750036,35.1834053 L343.199999,162.783405 C343.190871,164.909682 344.907129,166.640799 347.033405,166.650001 C349.159682,166.659129 350.890799,164.942871 350.899964,162.816595 Z" id="Path-120" fill="#E1BEFF" fill-rule="nonzero"></path>
        </g>
    </g>
</svg>
