<svg width="128" height="128" viewBox="0 0 128 128" fill="none" xmlns="http://www.w3.org/2000/svg">
<path fill-rule="evenodd" clip-rule="evenodd" d="M8 31.9956L63.4808 0L118.797 31.9966V33.5801C118.797 73.9977 100.521 105.271 64.3046 127.159L62.9131 128L61.5069 127.184C25.9499 106.553 8.06496 75.2319 8.00239 33.5842L8 31.9956ZM116.052 33.5801C116.052 72.9781 98.3295 103.388 62.8846 124.809C28.1878 104.678 10.8088 74.2679 10.7477 33.5801L63.4788 3.17032L116.052 33.5801Z" fill="#4D00B4"/>
<path fill-rule="evenodd" clip-rule="evenodd" d="M62.9296 116.674C93.5981 97.8915 108.968 71.4915 109.202 37.3585L63.4749 10.9186L17.6099 37.3591C17.8845 72.6444 32.9669 99.0248 62.9296 116.674ZM16.2339 36.5683C16.2887 73.0074 31.8586 100.242 62.9436 118.271C94.6988 99.0866 110.576 71.8523 110.576 36.5683L63.4759 9.33398L16.2339 36.5683Z" fill="#4D00B4"/>
<path fill-rule="evenodd" clip-rule="evenodd" d="M49.7028 34.0332L81.1679 35.4227L93.9069 63.3872L75.9346 88.9449L44.2984 86.9433L31.3286 56.644L49.7028 34.0332ZM70.0496 81.7601L53.3833 86.0558L72.9828 87.2934L70.0496 81.7601ZM87.9599 69.5954L73.3709 80.3127L76.2697 85.8995L87.9599 69.5954ZM45.6547 64.8135L46.1327 83.6699L65.4163 78.7291L45.6547 64.8135ZM33.4008 58.8067L42.4944 79.9331L42.1159 60.6263L33.4008 58.8067ZM77.125 50.0057L73.5706 75.9189L90.5915 63.4814L77.125 50.0057ZM72.6594 50.3624L49.9066 60.1656L69.3588 74.9973L72.6594 50.3624ZM46.9383 39.4917L33.9656 55.6458L42.6389 57.4574L46.9383 39.4917ZM81.0592 39.584L78.2256 45.3205L88.7727 55.8932L81.0592 39.584ZM51.8419 37.7294L48.0223 53.9626L70.0251 45.4502L51.8419 37.7294ZM59.0077 36.0976L74.2853 42.6874L77.5287 36.8389L59.0077 36.0976Z" fill="#9013FE"/>
</svg>
