<?xml version="1.0" encoding="UTF-8"?>
<svg width="720px" height="800px" viewBox="0 0 720 800" version="1.1" xmlns="http://www.w3.org/2000/svg" xmlns:xlink="http://www.w3.org/1999/xlink">
    <title>symbol-escrow</title>
    <defs>
        <linearGradient x1="50%" y1="100%" x2="50%" y2="3.061617e-15%" id="escrowlinearGradient1">
            <stop stop-color="#4F00B5" offset="0%"></stop>
            <stop stop-color="#8000D8" offset="100%"></stop>
        </linearGradient>
        <linearGradient x1="50%" y1="100%" x2="50%" y2="3.061617e-15%" id="escrowlinearGradient2">
            <stop stop-color="#8200D9" offset="0%"></stop>
            <stop stop-color="#4F00B5" offset="100%"></stop>
        </linearGradient>
    </defs>
    <g id="symbol-escrow" stroke="none" stroke-width="1" fill="none" fill-rule="evenodd">
        <g id="Group-35" transform="translate(74.000000, 70.000000)">
            <g id="Group-34">
                <path d="M0,165.034965 C0.331770834,385.848873 94.6480503,550.883838 282.948838,660.13986 C475.309645,543.883919 571.490048,378.848954 571.490048,165.034965 L286.173318,0 L0,165.034965 Z" id="Path-104" fill="#E5CBFD"></path>
                <path d="M21.8844601,177.299623 C22.1908215,381.127847 109.283665,533.467814 283.162991,634.319527 C460.791389,527.00635 549.605588,374.666383 549.605588,177.299623 L286.140516,24.9596557 L21.8844601,177.299623 Z M286.10891,73.6570959 L506.952902,201.352833 C500.394319,364.029467 426.51855,490.66391 282.770262,584.757267 C143.027564,495.987351 70.9955636,369.531844 64.5345836,201.391636 L286.10891,73.6570959 Z" id="Path-104" fill="url(#escrowlinearGradient1)" fill-rule="nonzero"></path>
                <path d="M63.3587182,201.405506 C63.6169234,373.185365 137.019867,501.572582 283.567548,586.567155 C433.274995,496.127068 508.128718,367.739851 508.128718,201.405506 L286.077043,73.0182894 L63.3587182,201.405506 Z" id="Path-104" fill="url(#escrowlinearGradient2)"></path>
                <path d="M64.3587182,201.82894 C64.6157639,372.837365 137.689067,500.648016 283.578627,585.260893 L286.076852,74.0182894 L64.3587182,201.82894 Z" id="Path-104" fill-opacity="0.12" fill="#FFFFFF"></path>
                <g id="Group-5" transform="translate(125.658956, 152.339968)">
                    <polygon id="Polygon" fill="#5100B6" transform="translate(160.106205, 167.098548) rotate(-23.000000) translate(-160.106205, -167.098548) " points="152.840906 36.2113149 275.047155 94.4581793 278.270156 226.731345 163.987747 297.98578 42.1376067 237.024329 41.9422527 95.1030266"></polygon>
                    <path d="M100.704859,48.785534 L237.922761,54.8756883 L293.476937,177.442717 L215.100313,289.460835 L77.1364676,280.687899 L20.5758738,147.887289 L100.704859,48.785534 Z M200.817223,120.355687 L101.593412,163.322507 L186.423587,228.329077 L200.817223,120.355687 Z M189.32949,98.8254187 L110.033344,64.9858105 L93.3762173,136.135122 L189.32949,98.8254187 Z M169.230687,244.685299 L83.0511894,183.694089 L85.1358027,266.340808 L169.230687,244.685299 Z M279.018603,177.855502 L220.291674,118.792312 L204.791232,232.368292 L279.018603,177.855502 Z M189.436129,257.97015 L116.755018,276.797953 L202.227605,282.22248 L189.436129,257.97015 Z M267.54205,204.652682 L203.920063,251.626342 L216.561902,276.112965 L267.54205,204.652682 Z M237.448454,73.1145072 L225.091273,98.2571511 L271.086924,144.596941 L237.448454,73.1145072 Z M222.052071,61.0829115 L141.282765,57.8334776 L207.907832,86.7162933 L222.052071,61.0829115 Z M88.6488578,72.7098189 L32.0753414,143.512377 L69.8993776,151.452787 L88.6488578,72.7098189 Z M67.6186868,165.341689 L29.6123329,157.366348 L69.2690056,249.962434 L67.6186868,165.341689 Z" id="Combined-Shape" fill="#FFFFFF"></path>
                </g>
            </g>
        </g>
    </g>
</svg>
