<svg width="1153" height="490" viewBox="0 0 1153 490" fill="none" xmlns="http://www.w3.org/2000/svg">
<path fill-rule="evenodd" clip-rule="evenodd" d="M364 122.483L576.388 0L788.146 122.487V128.549C788.146 283.272 718.182 402.991 579.541 486.781L574.214 490L568.831 486.876C432.715 407.899 364.249 287.997 364.009 128.565L364 122.483ZM777.637 128.549C777.637 279.369 709.793 395.782 574.105 477.786C441.281 400.719 374.753 284.307 374.519 128.549L576.38 12.1364L777.637 128.549ZM574.276 446.638C691.679 374.738 750.518 273.675 751.411 143.01L576.364 41.7944L400.787 143.012C401.838 278.089 459.576 379.076 574.276 446.638ZM395.52 139.985C395.729 279.478 455.333 383.735 574.33 452.755C695.893 379.313 756.675 275.056 756.675 139.985L576.368 35.7285L395.52 139.985ZM644.096 135.597L523.644 130.277L453.305 216.834L502.955 332.824L624.063 340.486L692.863 242.648L644.096 135.597ZM537.733 329.426L601.534 312.982L612.763 334.164L537.733 329.426ZM614.248 307.441L670.097 266.414L625.346 328.828L614.248 307.441ZM509.977 320.293L508.147 248.108L583.797 301.379L509.977 320.293ZM496.049 305.988L461.238 225.113L494.6 232.079L496.049 305.988ZM615.013 290.621L628.62 191.422L680.171 243.009L615.013 290.621ZM524.424 230.315L611.525 192.788L598.89 287.093L524.424 230.315ZM463.4 213.013L513.061 151.173L496.602 219.948L463.4 213.013ZM632.833 173.487L643.68 151.527L673.209 213.96L632.833 173.487ZM517.211 206.57L531.833 144.427L601.44 173.983L517.211 206.57ZM617.749 163.407L559.264 138.18L630.165 141.018L617.749 163.407Z" fill="url(#paint0_linear)"/>
<path fill-rule="evenodd" clip-rule="evenodd" d="M830 120.992L925.358 66L1020.43 120.994V123.716C1020.43 193.184 989.02 246.935 926.774 284.555L924.382 286L921.965 284.598C860.851 249.138 830.112 195.305 830.004 123.723L830 120.992ZM1015.71 123.716C1015.71 191.431 985.254 243.698 924.333 280.516C864.698 245.915 834.828 193.648 834.723 123.716L925.354 71.449L1015.71 123.716ZM924.41 266.531C977.121 234.249 1003.54 188.874 1003.94 130.208L925.347 84.7645L846.517 130.209C846.989 190.856 872.912 236.197 924.41 266.531ZM844.152 128.85C844.246 191.48 871.006 238.289 924.434 269.277C979.013 236.303 1006.3 189.494 1006.3 128.85L925.349 82.041L844.152 128.85ZM955.757 126.88L901.677 124.492L870.096 163.354L892.388 215.431L946.763 218.872L977.653 174.944L955.757 126.88ZM908.003 213.906L936.648 206.523L941.689 216.033L908.003 213.906ZM942.356 204.035L967.431 185.615L947.339 213.637L942.356 204.035ZM895.541 209.805L894.719 177.396L928.684 201.313L895.541 209.805ZM889.287 203.383L873.658 167.072L888.637 170.199L889.287 203.383ZM942.7 196.483L948.809 151.945L971.954 175.106L942.7 196.483ZM902.027 169.407L941.133 152.558L935.461 194.899L902.027 169.407ZM874.628 161.639L896.925 133.874L889.536 164.753L874.628 161.639ZM950.7 143.892L955.571 134.033L968.828 162.064L950.7 143.892ZM898.788 158.746L905.353 130.845L936.606 144.115L898.788 158.746ZM943.928 139.367L917.669 128.04L949.502 129.315L943.928 139.367Z" fill="#9013FE" fill-opacity="0.16"/>
<path fill-rule="evenodd" clip-rule="evenodd" d="M1062 122.996L1107.08 97L1152.02 122.997V124.284C1152.02 157.123 1137.17 182.533 1107.75 200.317L1106.62 201L1105.47 200.337C1076.58 183.574 1062.05 158.126 1062 124.287L1062 122.996ZM1149.79 124.284C1149.79 156.295 1135.39 181.003 1106.59 198.408C1078.4 182.051 1064.28 157.343 1064.23 124.284L1107.08 99.5759L1149.79 124.284ZM1106.63 191.798C1131.55 176.537 1144.04 155.087 1144.23 127.354L1107.07 105.871L1069.81 127.354C1070.03 156.024 1082.29 177.458 1106.63 191.798ZM1068.69 126.712C1068.73 156.319 1081.38 178.447 1106.64 193.096C1132.44 177.508 1145.34 155.38 1145.34 126.712L1107.07 104.584L1068.69 126.712ZM1121.45 125.781L1095.88 124.652L1080.95 143.024L1091.49 167.642L1117.2 169.268L1131.8 148.502L1121.45 125.781ZM1098.87 166.921L1112.42 163.43L1114.8 167.926L1098.87 166.921ZM1115.11 162.254L1126.97 153.547L1117.47 166.794L1115.11 162.254ZM1092.98 164.982L1092.59 149.661L1108.65 160.968L1092.98 164.982ZM1090.03 161.946L1082.64 144.781L1089.72 146.259L1090.03 161.946ZM1115.28 158.684L1118.16 137.63L1129.11 148.579L1115.28 158.684ZM1096.05 145.885L1114.54 137.92L1111.85 157.936L1096.05 145.885ZM1083.1 142.213L1093.64 129.087L1090.14 143.685L1083.1 142.213ZM1119.06 133.823L1121.36 129.162L1127.63 142.414L1119.06 133.823ZM1094.52 140.845L1097.62 127.656L1112.4 133.929L1094.52 140.845ZM1115.86 131.684L1103.44 126.33L1118.49 126.932L1115.86 131.684Z" fill="#9013FE" fill-opacity="0.12"/>
<path fill-rule="evenodd" clip-rule="evenodd" d="M0 122.996L45.0782 97L90.0228 122.997V124.284C90.0228 157.123 75.1732 182.533 45.7475 200.317L44.6169 201L43.4743 200.337C14.5843 183.574 0.0527818 158.126 0.00193938 124.287L0 122.996ZM87.7923 124.284C87.7923 156.295 73.3928 181.003 44.5938 198.408C16.4026 182.051 2.28219 157.343 2.23252 124.284L45.0765 99.5759L87.7923 124.284ZM44.6302 191.798C69.5483 176.537 82.0366 155.087 82.2261 127.354L45.0732 105.871L7.8079 127.354C8.03103 156.024 20.2855 177.458 44.6302 191.798ZM6.68994 126.712C6.73444 156.319 19.385 178.447 44.6415 193.096C70.4427 177.508 83.3433 155.38 83.3433 126.712L45.074 104.584L6.68994 126.712ZM59.449 125.781L33.8836 124.652L18.9546 143.024L29.4925 167.642L55.1969 169.268L69.7995 148.502L59.449 125.781ZM36.874 166.921L50.4154 163.43L52.7986 167.926L36.874 166.921ZM53.1139 162.254L64.9675 153.547L55.4692 166.794L53.1139 162.254ZM30.9829 164.982L30.5945 149.661L46.6508 160.968L30.9829 164.982ZM28.0267 161.946L20.6382 144.781L27.7193 146.259L28.0267 161.946ZM53.2762 158.684L56.1641 137.63L67.1057 148.579L53.2762 158.684ZM34.0492 145.885L52.5358 137.92L49.8541 157.936L34.0492 145.885ZM21.0971 142.213L31.6374 129.087L28.1442 143.685L21.0971 142.213ZM57.0584 133.823L59.3607 129.162L65.6279 142.414L57.0584 133.823ZM32.5182 140.845L35.6216 127.656L50.3955 133.929L32.5182 140.845ZM53.8569 131.684L41.4438 126.33L56.4921 126.932L53.8569 131.684Z" fill="#9013FE" fill-opacity="0.12"/>
<path fill-rule="evenodd" clip-rule="evenodd" d="M132 120.992L227.358 66L322.433 120.994V123.716C322.433 193.184 291.02 246.935 228.774 284.555L226.382 286L223.965 284.598C162.851 249.138 132.112 195.305 132.004 123.723L132 120.992ZM317.714 123.716C317.714 191.431 287.254 243.698 226.333 280.516C166.698 245.915 136.828 193.648 136.723 123.716L227.354 71.449L317.714 123.716ZM226.41 266.531C279.121 234.249 305.539 188.874 305.94 130.208L227.347 84.7645L148.517 130.209C148.989 190.856 174.912 236.197 226.41 266.531ZM146.152 128.85C146.246 191.48 173.006 238.289 226.434 269.277C281.013 236.303 308.303 189.494 308.303 128.85L227.349 82.041L146.152 128.85ZM257.757 126.88L203.677 124.492L172.096 163.354L194.388 215.431L248.763 218.872L279.653 174.944L257.757 126.88ZM210.003 213.906L238.648 206.523L243.689 216.033L210.003 213.906ZM244.356 204.035L269.431 185.615L249.339 213.637L244.356 204.035ZM197.541 209.805L196.719 177.396L230.684 201.313L197.541 209.805ZM191.287 203.383L175.658 167.072L190.637 170.199L191.287 203.383ZM244.7 196.483L250.809 151.945L273.954 175.106L244.7 196.483ZM204.027 169.407L243.133 152.558L237.461 194.899L204.027 169.407ZM176.628 161.639L198.925 133.874L191.536 164.753L176.628 161.639ZM252.7 143.892L257.571 134.033L270.828 162.064L252.7 143.892ZM200.788 158.746L207.353 130.845L238.606 144.115L200.788 158.746ZM245.928 139.367L219.669 128.04L251.502 129.315L245.928 139.367Z" fill="#9013FE" fill-opacity="0.16"/>
<defs>
<linearGradient id="paint0_linear" x1="576.073" y1="0" x2="576.073" y2="490" gradientUnits="userSpaceOnUse">
<stop stop-color="#9013FE"/>
<stop offset="1" stop-color="#9013FE" stop-opacity="0"/>
</linearGradient>
</defs>
</svg>
