<?xml version="1.0" encoding="UTF-8"?>
<svg  viewBox="0 0 835 145" version="1.1" xmlns="http://www.w3.org/2000/svg" xmlns:xlink="http://www.w3.org/1999/xlink">
    <title>Artboard</title>
    <g id="Artboard" stroke="none" stroke-width="1" fill="none" fill-rule="evenodd">
        <g id="eu-winner" transform="translate(26.000000, 18.000000)" fill-rule="nonzero">
            <path d="M226.475,53.4802 C226.475,53.0854 226.658,52.8716 227.084,52.8716 L238.29,52.8716 C238.656,52.8716 238.869,53.0854 238.869,53.4498 L238.869,55.3365 C238.869,55.7016 238.717,55.8842 238.26,55.8842 L229.947,55.8842 L229.947,61.117 L237.316,61.117 C237.712,61.117 237.925,61.3 237.925,61.665 L237.925,63.551 C237.925,63.916 237.773,64.1 237.316,64.1 L229.947,64.1 L229.947,70.093 L238.474,70.093 C238.839,70.093 239.022,70.276 239.022,70.671 L239.022,72.527 C239.022,72.922 238.87,73.075 238.443,73.075 L227.084,73.075 C226.658,73.075 226.475,72.892 226.475,72.527 L226.475,53.4802 Z" id="Path" fill="#333333"></path>
            <path d="M254.374,73.074 L252.211,73.074 C251.755,73.074 251.632,72.861 251.632,72.496 L251.632,71.553 L251.571,71.522 C250.384,72.343 248.313,73.347 246.455,73.347 C242.344,73.347 241.948,70.914 241.948,67.719 L241.948,58.774 C241.948,58.408 242.1,58.165 242.527,58.165 L244.75,58.165 C245.146,58.165 245.299,58.378 245.299,58.774 L245.299,67.324 C245.299,69.149 245.664,70.306 247.521,70.306 C248.83,70.306 250.84,69.332 251.632,68.937 L251.632,58.774 C251.632,58.409 251.754,58.166 252.211,58.166 L254.374,58.166 C254.799,58.166 254.951,58.379 254.951,58.774 L254.951,72.497 C254.951,72.893 254.799,73.074 254.374,73.074 Z" id="Path" fill="#333333"></path>
            <path d="M262.11,72.497 C262.11,72.862 261.958,73.075 261.531,73.075 L259.339,73.075 C258.913,73.075 258.76,72.893 258.76,72.497 L258.76,58.775 C258.76,58.379 258.913,58.166 259.339,58.166 L261.501,58.166 C261.957,58.166 262.11,58.409 262.11,58.775 L262.11,60.113 L262.171,60.174 C263.085,59.322 265.247,58.288 266.678,58.014 C267.074,57.923 267.348,58.014 267.409,58.531 L267.622,60.57 C267.653,60.995 267.683,61.179 267.043,61.299 C265.337,61.634 263.176,62.243 262.11,62.699 L262.11,72.497 Z" id="Path" fill="#333333"></path>
            <path d="M275.512,73.318 C269.39,73.318 268.995,68.845 268.995,65.377 C268.995,62.517 269.633,57.861 275.512,57.861 C281.419,57.861 282.241002,61.786 282.241002,65.377 C282.242,68.845 281.815,73.318 275.512,73.318 Z M275.541,60.783 C272.953,60.783 272.375,62.426 272.375,65.59 C272.375,68.815 272.953,70.397 275.512,70.397 C278.283,70.397 278.831,68.845 278.831,65.59 C278.831,62.364 278.313,60.783 275.541,60.783 Z" id="Shape" fill="#333333"></path>
            <path d="M292.323,73.348 C291.318,73.348 289.917,73.165 288.517,72.678 L288.487,72.709 L288.487,78.065 C288.487,78.399 288.395,78.673 287.908,78.673 L285.745,78.673 C285.259,78.673 285.167,78.459 285.167,78.065 L285.167,58.774 C285.167,58.379 285.319,58.165 285.745,58.165 L287.908,58.165 C288.334,58.165 288.456,58.409 288.456,58.774 L288.456,59.687 L288.548,59.748 C289.643,58.987 291.592,57.923 293.359,57.923 C297.349,57.923 298.384,60.935 298.384,65.529 C298.383,70.488 297.135,73.348 292.323,73.348 Z M292.566,60.964 C291.318,60.964 289.4,61.848 288.486,62.334 L288.486,69.941 C289.856,70.335 290.952,70.458 291.988,70.458 C294.18,70.458 294.942,69.333 294.942,65.498 C294.942,61.634 294.181,60.964 292.566,60.964 Z" id="Shape" fill="#333333"></path>
            <path d="M304.232,66.533 C304.324,69.606 305.42,70.457 307.918,70.457 C309.014,70.457 310.719,70.244 311.876,70.123 C312.425,70.062 312.607,70.062 312.698,70.64 L312.881,71.643 C312.972,72.1 312.912,72.343 312.364,72.588 C311.177,73.043 308.953,73.348 307.461,73.348 C301.644,73.348 300.792,69.636 300.792,65.681 C300.792,62.729 301.34,57.861 307.279,57.861 C312.73,57.861 313.705,61.39 313.796,64.676 C313.826,65.771 313.522,66.532 312.304,66.532 L304.232,66.532 L304.232,66.533 Z M304.263,64.251 L310.293,64.251 C310.293,62.396 309.805,60.6 307.277,60.6 C305.024,60.6 304.416,61.969 304.263,64.251 Z" id="Shape" fill="#333333"></path>
            <path d="M325.978,71.34 C324.456,72.496 322.415,73.318 320.375,73.318 C317.147,73.318 316.203,71.553 316.203,68.997 C316.172,65.438 318.09,63.915 321.928,63.915 L325.826,63.915 L325.826,63.125 C325.826,61.299 325.156,60.66 322.659,60.66 C321.654,60.66 319.736,60.812 318.518,60.934 C317.908,61.025 317.756,60.995 317.665,60.57 L317.391,59.444 C317.33,59.048 317.421,58.805 318.091,58.531 C319.401,58.074 321.807,57.861 323.238,57.861 C328.506,57.861 329.146,60.021 329.146,63.429 L329.146,69.302 C329.146,70.549 329.298,70.58 330.242,70.701 C330.698,70.731 330.821,70.822 330.821,71.157 L330.821,72.435 C330.821,72.77 330.608,72.983 330.09,73.074 C329.603,73.165 329.115,73.226 328.659,73.226 C327.228,73.226 326.344,72.8 326.04,71.37 L325.978,71.34 Z M325.795,66.29 L322.079,66.29 C320.557,66.29 319.583,66.838 319.583,68.845 C319.583,70.184 320.039,70.61 321.47,70.61 C322.78,70.61 324.637,69.849 325.795,69.18 L325.795,66.29 Z" id="Shape" fill="#333333"></path>
            <path d="M345.318,73.074 L343.126,73.074 C342.73,73.074 342.547,72.892 342.547,72.496 L342.577,63.946 C342.577,62.151 342.151,60.964 340.385,60.964 C339.166,60.964 337.035,61.938 336.213,62.333 L336.213,72.495 C336.213,72.861 336.061,73.074 335.634,73.074 L333.472,73.074 C333.046,73.074 332.893,72.891 332.893,72.495 L332.893,58.773 C332.893,58.377 333.045,58.164 333.472,58.164 L335.634,58.164 C336.06,58.164 336.213,58.377 336.213,58.773 L336.213,59.686 C336.243,59.686 336.274,59.716 336.304,59.716 C337.43,58.926 339.562,57.891 341.42,57.891 C345.531,57.891 345.897,60.599 345.897,63.672 L345.897,72.496 C345.897,72.862 345.775,73.074 345.318,73.074 Z" id="Path" fill="#333333"></path>
            <path d="M234.649,84.691 C236.141,84.691 238.608,84.904 240.222,85.573 C240.709,85.787 240.892,86.03 240.801,86.517 L240.527,87.764 C240.435,88.13 240.283,88.282 239.735,88.221 C238.244,88.038 236.416,87.825 234.833,87.825 C230.69,87.825 230.081,91.173 230.081,95.128 C230.081,99.113 230.843,102.248 234.833,102.248 C236.598,102.248 238.091,102.064 239.735,101.852 C240.314,101.791 240.435,101.943 240.557,102.339 L240.801,103.495 C240.923,103.981 240.77,104.255 240.284,104.468 C238.792,105.107 236.142,105.381 234.65,105.381 C227.859,105.381 226.427999,100.361 226.427999,95.189 C226.427,89.985 227.706,84.691 234.649,84.691 Z" id="Path" fill="#333333"></path>
            <path d="M249.513,105.35 C243.392,105.35 242.996,100.877 242.996,97.409 C242.996,94.549 243.636,89.894 249.513,89.894 C255.421,89.894 256.243,93.818 256.243,97.409 C256.243,100.877 255.817,105.35 249.513,105.35 Z M249.543,92.815 C246.955,92.815 246.376,94.458 246.376,97.622 C246.376,100.847 246.956,102.429 249.513,102.429 C252.284,102.429 252.832,100.877 252.832,97.622 C252.831,94.396 252.314,92.815 249.543,92.815 Z" id="Shape" fill="#333333"></path>
            <path d="M280.485,105.106 L278.293,105.106 C277.867,105.106 277.714,104.924 277.714,104.528 L277.714,95.887 C277.714,93.635 277.166,92.997 275.643,92.997 C274.517,92.997 272.689,93.88 271.746,94.366 C271.746,94.67 271.777,95.217 271.777,95.918 L271.777,104.529 C271.777,104.894 271.655,105.107 271.197,105.107 L268.975,105.107 C268.579,105.107 268.457,104.925 268.457,104.529 L268.457,95.736 C268.457,93.881 267.97,92.997 266.447,92.997 C265.382,92.997 263.676,93.758 262.519,94.367 L262.519,104.529 C262.519,104.894 262.368,105.107 261.94,105.107 L259.748,105.107 C259.353,105.107 259.199,104.925 259.199,104.529 L259.199,90.806 C259.199,90.411 259.352,90.198 259.748,90.198 L261.91,90.198 C262.367,90.198 262.519,90.441 262.519,90.806 L262.519,91.689 L262.549,91.719 C263.737,90.899 265.412,89.986 267.087,89.925 C268.853,89.925 270.315,90.29 271.259,92.054 C272.781,90.929 274.67,89.925 276.62,89.925 C280.639,89.925 281.035,92.542 281.035,95.583 L281.035,104.529 C281.034,104.894 280.912,105.106 280.485,105.106 Z" id="Path" fill="#333333"></path>
            <path d="M305.583,105.106 L303.39,105.106 C302.964,105.106 302.811,104.924 302.811,104.528 L302.811,95.887 C302.811,93.635 302.263,92.997 300.74,92.997 C299.614,92.997 297.786,93.88 296.842,94.366 C296.842,94.67 296.873,95.217 296.873,95.918 L296.873,104.529 C296.873,104.894 296.752,105.107 296.294,105.107 L294.071,105.107 C293.676,105.107 293.554,104.925 293.554,104.529 L293.554,95.736 C293.554,93.881 293.066,92.997 291.543,92.997 C290.477,92.997 288.772,93.758 287.615,94.367 L287.615,104.529 C287.615,104.894 287.463,105.107 287.037,105.107 L284.844,105.107 C284.449,105.107 284.295,104.925 284.295,104.529 L284.295,90.806 C284.295,90.411 284.448,90.198 284.844,90.198 L287.006,90.198 C287.462,90.198 287.615,90.441 287.615,90.806 L287.615,91.689 L287.646,91.719 C288.833,90.899 290.508,89.986 292.183,89.925 C293.949,89.925 295.411,90.29 296.355,92.054 C297.877,90.929 299.765,89.925 301.715,89.925 C305.735,89.925 306.131,92.542 306.131,95.583 L306.131,104.529 C306.13,104.894 306.008,105.106 305.583,105.106 Z" id="Path" fill="#333333"></path>
            <path d="M311.554,88.008 C309.97,88.008 309.758,87.125 309.758,86.243 C309.758,85.269 310.093,84.508 311.554,84.508 C313.046,84.508 313.351,85.208 313.351,86.243 C313.351,87.185 313.077,88.008 311.554,88.008 Z M313.168,104.529 C313.168,104.864 313.047,105.107 312.62,105.107 L310.458,105.107 C310.032,105.107 309.849,104.925 309.849,104.529 L309.849,90.776 C309.849,90.35 310.032,90.198 310.458,90.198 L312.62,90.198 C313.046,90.198 313.168,90.441 313.168,90.776 L313.168,104.529 Z" id="Shape" fill="#333333"></path>
            <path d="M321.94,105.35 C320.417,105.35 318.377,105.137 317.219,104.68 C316.61,104.437 316.488,104.163 316.58,103.676 L316.793,102.673 C316.884,102.186 317.097,102.155 317.585,102.216 C318.925,102.429 320.874,102.581 321.91,102.581 C323.859,102.581 324.65,102.064 324.65,100.847 C324.65,99.447 324.132,99.143 322.214,98.869 C319.229,98.444 316.611,97.804 316.611,94.488 C316.611,91.475 318.926,89.894 322.336,89.894 C323.585,89.894 325.686,90.076 326.965,90.563 C327.483,90.776 327.696,91.019 327.604,91.476 L327.361,92.571 C327.269,92.997 327.087,93.058 326.538,92.997 C325.229,92.845 323.524,92.662 322.397,92.662 C320.448,92.662 319.992,93.21 319.992,94.366 C319.992,95.552 320.722,95.705 322.58,96.009 C325.472,96.435 328.092,97.013 328.092,100.634 C328.092,104.194 325.076,105.35 321.94,105.35 Z" id="Path" fill="#333333"></path>
            <path d="M335.92,105.35 C334.397,105.35 332.357,105.137 331.199,104.68 C330.59,104.437 330.468,104.163 330.56,103.676 L330.773,102.673 C330.864,102.186 331.077,102.155 331.565,102.216 C332.905,102.429 334.854,102.581 335.89,102.581 C337.839,102.581 338.63,102.064 338.63,100.847 C338.63,99.447 338.112,99.143 336.194,98.869 C333.209,98.444 330.591,97.804 330.591,94.488 C330.591,91.475 332.906,89.894 336.316,89.894 C337.566,89.894 339.666,90.076 340.945,90.563 C341.463,90.776 341.676,91.019 341.584,91.476 L341.341,92.571 C341.249,92.997 341.067,93.058 340.518,92.997 C339.209,92.845 337.504,92.662 336.377,92.662 C334.428,92.662 333.972,93.21 333.972,94.366 C333.972,95.552 334.702,95.705 336.56,96.009 C339.452,96.435 342.072,97.013 342.072,100.634 C342.072,104.194 339.056,105.35 335.92,105.35 Z" id="Path" fill="#333333"></path>
            <path d="M347.037,88.008 C345.453,88.008 345.241,87.125 345.241,86.243 C345.241,85.269 345.576,84.508 347.037,84.508 C348.529,84.508 348.834003,85.208 348.834003,86.243 C348.835,87.185 348.561,88.008 347.037,88.008 Z M348.651,104.529 C348.651,104.864 348.53,105.107 348.103,105.107 L345.941,105.107 C345.515,105.107 345.332,104.925 345.332,104.529 L345.332,90.776 C345.332,90.35 345.515,90.198 345.941,90.198 L348.103,90.198 C348.529,90.198 348.651,90.441 348.651,90.776 L348.651,104.529 Z" id="Shape" fill="#333333"></path>
            <path d="M358.641,105.35 C352.52,105.35 352.124,100.877 352.124,97.409 C352.124,94.549 352.764,89.894 358.641,89.894 C364.549,89.894 365.371,93.818 365.371,97.409 C365.371,100.877 364.944,105.35 358.641,105.35 Z M358.672,92.815 C356.084,92.815 355.504,94.458 355.504,97.622 C355.504,100.847 356.084,102.429 358.641,102.429 C361.412,102.429 361.961,100.877 361.961,97.622 C361.961,94.396 361.443,92.815 358.672,92.815 Z" id="Shape" fill="#333333"></path>
            <path d="M380.661,105.107 L378.469,105.107 C378.073,105.107 377.89,104.924 377.89,104.528 L377.921,95.978 C377.921,94.184 377.494,92.996 375.728,92.996 C374.51,92.996 372.378,93.97 371.556,94.365 L371.556,104.528 C371.556,104.893 371.405,105.106 370.977,105.106 L368.816,105.106 C368.389,105.106 368.236,104.923 368.236,104.528 L368.236,90.805 C368.236,90.409 368.388,90.196 368.816,90.196 L370.977,90.196 C371.404,90.196 371.556,90.409 371.556,90.805 L371.556,91.718 C371.586,91.718 371.617,91.748 371.647,91.748 C372.773,90.958 374.906,89.923 376.763,89.923 C380.874,89.923 381.24,92.631 381.24,95.704 L381.24,104.528 C381.239,104.894 381.118,105.107 380.661,105.107 Z" id="Path" fill="#333333"></path>
            <polygon id="Path" fill="#034EA2" points="400.468 105.103 400.468 42.3589 395.246 42.3589 395.246 105.103"></polygon>
            <path d="M0.0972,39.0932 C0.0972,39.0932 63.024,30.8962 64.802,30.6031 C67.524,30.1562 69.944,29.6333 72.2,29.0039 C77.29,27.6008 81.975,25.4579 86.122,22.6359 C90.098,19.95 93.797,16.0444 97.464,11.7593 C99.796,9.0326 102.244,5.4778 104.529,2.0464 L104.529,0.3911 C101.819,4.4296 99.149,7.9091 96.404,10.9817 C92.765,15.0594 88.949,18.3948 85.057,20.8965 C81.043,23.4999 76.524,25.4435 71.626,26.6735 C69.43,27.2301 67.079,27.6817 64.437,28.0525 C62.695,28.2991 60.9,28.4881 59.164,28.6723 C58.47,28.746 0.0972,34.9795 0.0972,34.9795 L0.0972,39.0932 L0.0972,39.0932 Z" id="Path" fill="#cccccc"></path>
            <path d="M84.484,28.4713 C80.546,30.752 75.996,32.4209 70.964,33.4315 C68.814,33.868 66.472,34.2235 63.8,34.5166 C62.231,34.688 60.65,34.8257 59.068,34.9635 C58.213,35.0379 57.359,35.1124 56.508,35.1917 C37.225,36.9326 18.04,38.7841 0.0979,40.5379 L0.0979,44.6476 C18.182,42.4518 37.5,40.1262 56.776,37.9304 C57.633,37.8295 58.491,37.7334 59.349,37.6398 C60.928,37.4644 62.509,37.289 64.095,37.0784 C66.838,36.7108 69.239,36.2888 71.432,35.7875 C76.66,34.6103 81.384,32.7524 85.464,30.2651 C89.521,27.8139 93.106,24.3824 96.96,20.1854 C99.36,17.5732 102.029,13.8871 104.528,10.4236 L104.528,8.9165 C101.585,12.9357 98.792,16.3119 96.028,19.1924 C92.265,23.1156 88.382,26.2363 84.484,28.4713 Z" id="Path" fill="#cccccc"></path>
            <path d="M95.496,27.4637 C91.656,31.0089 87.648,33.7973 83.58,35.7528 C79.603,37.6844 75.152,39.0393 69.972,39.897 C67.835,40.2534 65.51,40.5449 62.87,40.7867 L0.0972,45.9759 L0.0972,50.0768 L55.897,44.1156 L63.117,43.3509 C65.836,43.0346 68.208,42.6798 70.367,42.2666 C75.733,41.248 80.335,39.724 84.435,37.6107 C88.627,35.4766 92.816,31.9258 96.709,28.166 C99.323,25.6451 101.839,22.389 104.528,18.9736 L104.528,17.6074 C101.422,21.4945 98.457,24.7338 95.496,27.4637 Z" id="Path" fill="#cccccc"></path>
            <path d="M80.317,48.7587 C76.663,50.8168 73.93,52.0027 68.711,52.5513 C65.557,52.8932 62.315,53.0558 59.179,53.2136 C57.661,53.2896 56.141,53.3657 54.626,53.4618 C45.142,54.008 35.829,54.6126 26.328,55.2364 L0.0972,57.015 L0.0972,61.115 L26.59,58.668 C35.15,57.895 45.098,57.003 54.81,56.205 L61.87,55.6552 C64.625,55.4414 66.886,55.2156 68.98,54.9401 C74.35,54.2426 78.937,53.1503 83.002,51.6039 C87.378,49.9551 91.506,47.3973 95.639,44.3903 C99.365,41.6788 104.522,36.3318 104.529,36.2621 L104.529,34.8135 C101.157,38.1248 99.215,39.9851 95.525,42.4331 C91.114,45.3577 83.594,46.9136 80.317,48.7587 Z" id="Path" fill="#cccccc"></path>
            <path d="M81.652,56.551 C77.691,57.72 73.234,58.511 68.025,58.97 C65.915,59.153 63.639,59.295 61.066,59.399 L54.044,59.709 C36.598,60.525 19.236,61.438 0.0979,62.457 L0.0979,66.548 C18.379,65.123 36.295,63.737 54.202,62.454 L61.203,61.973 C63.905,61.794 66.146,61.601 68.253,61.361 C73.593,60.76 78.161,59.832 82.214,58.525 C86.708,57.093 91.087,55.0155 95.231,52.352 C98.291,50.3901 101.352,48.0517 104.528,45.2617 L104.528,45.1904 C101.028,48.1974 97.693,48.8645 94.369,50.8857 C90.3,53.3666 86.022,55.2734 81.652,56.551 Z" id="Path" fill="#cccccc"></path>
            <path d="M81.004,63.345 C77.015,64.284 72.693,64.888 67.399,65.245 C65.357,65.383 63.163,65.486 60.49,65.57 L53.536,65.819 C36.015,66.486 18.249,67.253 0.0972,68.046 L0.0972,72.134 C18.132,70.895 35.826,69.69 53.673,68.565 L60.611,68.147 C63.332,67.991 65.549,67.831 67.585,67.645 C72.977,67.144 77.389,66.415 81.467,65.351 C86.044,64.165 90.492,62.424 94.691,60.18 C97.937,58.448 101.173,56.365 104.528,53.8574 L104.528,52.1084 C100.902,54.7454 97.425,56.894 93.943,58.646 C89.822,60.723 85.47,62.304 81.004,63.345 Z" id="Path" fill="#cccccc"></path>
            <path d="M80.41,70.008 C76.408,70.745 72.098,71.216 66.844,71.49 C64.867,71.592 62.753,71.665 59.985,71.729 L0.0972,73.362 L0.0972,77.446 L53.205,74.656 L60.084,74.305 C62.769,74.178 64.965,74.047 66.996,73.888 C72.322,73.478 76.704,72.889 80.784,72.03 C85.416,71.062 89.911,69.649 94.144,67.833 C97.554,66.378 100.97,64.601 104.528,62.442 L104.528,60.801 C100.726,63.026 97.113,64.814 93.525,66.242 C89.35,67.912 84.938,69.178 80.41,70.008 Z" id="Path" fill="#cccccc"></path>
            <path d="M79.94,76.697 C72.592,77.683 65.027,77.798 57.711,77.907 C56.034,77.931 54.356,77.957 52.681,77.991 L0.0979,78.945 L0.0979,83.024 L52.772,80.739 C54.443,80.662 56.116,80.595 57.789,80.528 C65.157,80.23 72.776,79.925 80.223,78.734 C84.939,77.986 89.476,76.879 93.71,75.446 C97.216,74.264 100.849,72.734 104.529,70.926 L104.529,69.36 C100.662,71.174 96.859,72.68 93.208,73.81 C89.022,75.112 84.56,76.083 79.94,76.697 Z" id="Path" fill="#cccccc"></path>
            <path d="M79.523,83.428 C72.637,84.001 65.591,84.002 58.775,84.002 C56.655,84.002 54.535,84.002 52.415,84.019 C34.995,84.096 17.713,84.239 0.0979,84.393 L0.0979,88.474 C16.876,87.9 34.675,87.301 52.474,86.769 C54.587,86.698 56.701,86.644 58.817,86.589 C65.669,86.415 72.754,86.234 79.71,85.476 C84.57,84.953 88.991,84.183 93.227,83.127 C96.922,82.213 100.716,80.994 104.528,79.528 L104.528,78.03 C100.594,79.451 96.674,80.612 92.856,81.456 C88.662,82.389 84.299,83.034 79.523,83.428 Z" id="Path" fill="#cccccc"></path>
            <path d="M79.257,90.064 C76.388,90.179 73.282,90.233 69.758,90.233 C68.427,90.233 67.096,90.225 65.767,90.213 L52.214,90.048 C42.966,89.979 33.753,89.963 25.111,89.955 L0.0972,89.979 L0.0972,94.058 L25.17,93.396 C33.782,93.183 43.021,92.963 52.239,92.796 L65.781,92.616 C69.496,92.556 74.398,92.447 79.363,92.118 C84.229,91.801 88.657,91.313 92.901,90.631 C96.721,90.015 100.624,89.187 104.527,88.186 L104.527,86.738 C100.516,87.67 96.529,88.413 92.661,88.934 C88.443,89.503 84.058,89.872 79.257,90.064 Z" id="Path" fill="#cccccc"></path>
            <path d="M65.61,96.477 L52.102,96.331 C34.872,96.087 17.657,95.77 0.0972,95.44 L0.0972,99.521 C16.859,99.408 34.612,99.28 52.115,99.081 L65.629,98.88 C70.182,98.801 74.642,98.719 79.151,98.566 C88.437,98.266 96.754,97.609 104.528,96.574 L104.528,95.156 C96.725,96.001 88.395,96.446 79.104,96.508 C74.609,96.548 70.109,96.515 65.61,96.477 Z" id="Path" fill="#cccccc"></path>
            <polygon id="Path" fill="#cccccc" points="104.528 103.691 0.0979 101.026 0.0979 105.103 104.528 105.103"></polygon>
            <path d="M95.125,35.1699 C91.158,38.378 88.094,40.6579 83.239,42.5998 C79.011,44.2911 74.469,44.9846 69.28,45.6965 C65.941,46.1674 62.451,46.8641 59.118,47.0875 C57.747,47.1804 56.376,47.2717 55.009,47.3798 L0.0979,51.4087 L0.0979,55.5024 L55.231,50.1202 L62.379,49.4451 C65.03,49.1928 67.384,48.8989 69.575,48.5434 C74.917,47.6793 79.521,46.3604 83.647,44.5113 C87.928,42.6102 92.261,39.4967 96.287,36.0861 C99.027,33.7701 101.662,30.856 104.529,27.6736 L104.529,26.2065 C101.059,29.8166 98.184,32.7011 95.125,35.1699 Z" id="Path" fill="#cccccc"></path>
            <path d="M148.971,0.3921 C148.971,0.3921 167.766,30.2997 171.202,35.7836 C174.638,41.2659 178.566,45.6039 192.471,48.5501 C206.377,51.4962 212.431,52.888 212.431,52.888 L212.431,53.9523 C212.431,53.9523 203.596,52.0696 192.226,49.5327 C180.857,46.9957 176.209,46.142 171.025,38.9372 C166.712,32.94 148.971,7.4568 148.971,7.4568 L148.971,0.3921 Z" id="Path" fill="#cccccc"></path>
            <path d="M148.971,34.5464 C148.971,34.5464 166.08,52.4588 171.025,57.601 C176.273,63.056 182.996,65.074 192.313,66.736 C201.208,68.323 212.426,70.155 212.426,70.155 L212.426,71.164 C212.426,71.164 201.891,69.44 192.313,67.801 C182.922,66.194 176.349,65.298 170.97,60.346 C166.153,55.9119 148.971,39.8141 148.971,39.8141 L148.971,34.5464 L148.971,34.5464 Z" id="Path" fill="#cccccc"></path>
            <path d="M148.971,42.6177 C148.971,42.6177 165.241,57.713 171.025,62.87 C176.349,67.616 180.662,69.091 192.369,71.165 C204.079,73.239 212.426,74.527 212.426,74.527 L212.426,75.592 C212.426,75.592 201.837,73.855 192.313,72.34 C182.79,70.828 176.721,70.23 171.025,65.616 C164.45,60.288 148.971,47.5498 148.971,47.5498 L148.971,42.6177 Z" id="Path" fill="#cccccc"></path>
            <path d="M148.971,51.2207 C148.971,51.2207 167.557,65.952 171.03,68.53 C174.503,71.108 179.097,74.116 192.43,76.041 C205.652,77.949 212.43,78.898 212.43,78.898 L212.43,80.019 C212.43,80.019 200.442,78.281 192.43,77.272 C184.42,76.263 178.276,75.835 171.086,71.05 C164.087,66.394 148.971,55.7613 148.971,55.7613 L148.971,51.2207 Z" id="Path" fill="#cccccc"></path>
            <path d="M148.971,59.491 C148.971,59.491 167.612,71.892 171.142,73.854 C174.672,75.816 178.817,79.011 192.43,80.749 C206.045,82.486 212.43,83.269 212.43,83.269 L212.43,84.335 C212.43,84.335 201.17,83.102 192.374,82.149 C183.579,81.195 177.585,79.906 171.031,76.32 C164.476,72.734 148.971,63.683 148.971,63.683 L148.971,59.491 L148.971,59.491 Z" id="Path" fill="#cccccc"></path>
            <path d="M148.971,67.762 C148.971,67.762 165.449,76.718 171.025,79.515 C177.245,82.635 182.623,84.129 192.369,85.288 C201.94,86.427 212.426,87.531 212.426,87.531 L212.426,88.54 C212.426,88.54 202.73,87.503 192.369,86.522 C182.099,85.549 178.441,85.102 171.025,81.814 C164.394,78.873 148.971,71.688 148.971,71.688 L148.971,67.762 Z" id="Path" fill="#cccccc"></path>
            <path d="M148.971,76.146 C148.971,76.146 161.992,81.717 171.142,85.344 C180.143,88.912 187.015,89.212 192.486,89.829 C194.896,90.099 212.43,91.903 212.43,91.903 L212.43,92.91 C212.43,92.91 201.954,92.07 192.43,91.23 C182.905,90.39 178.798,90.034 171.085,87.475 C163.282,84.887 148.97,79.9 148.97,79.9 L148.97,76.146 L148.971,76.146 Z" id="Path" fill="#cccccc"></path>
            <path d="M148.971,84.692 C148.971,84.692 162.117,88.763 171.081,91.117 C180.045,93.47 188.28,94.425 192.425,94.704 C196.571,94.985 212.43,96.272 212.43,96.272 L212.43,97.226 C212.43,97.226 203.409,96.611 192.369,95.825 C183.442,95.19 176.272,94.517 171.024,93.358 C165.209,92.075 148.97,88.22 148.97,88.22 L148.97,84.692 L148.971,84.692 Z" id="Path" fill="#cccccc"></path>
            <path d="M148.971,93.101 C148.971,93.101 159.722,94.952 171.081,96.834 C179.596,98.245 191.137,99.133 192.369,99.189 C193.603,99.244 212.426,100.534 212.426,100.534 L212.426,101.542 C212.426,101.542 200.378,100.92 192.369,100.478 C184.027,100.017 175.736,99.512 171.025,99.021 C160.476,97.921 148.971,96.467 148.971,96.467 L148.971,93.101 Z" id="Path" fill="#cccccc"></path>
            <path d="M148.971,101.803 C148.971,101.803 165.927,102.439 171.081,102.552 C176.236,102.664 212.426,104.121 212.426,104.121 L212.426,105.104 L148.971,105.104 L148.971,101.803 Z" id="Path" fill="#cccccc"></path>
            <path d="M192.369,53.1732 C177.02,49.8667 173.547,44.2618 170.969,40.7863 C168.391,37.3108 148.971,8.9512 148.971,8.9512 L148.971,15.3512 C149.736,16.3522 166.359,38.0932 171.025,44.0929 C176.285,50.8532 184.527,52.3876 192.369,54.0693 C200.212,55.751 212.43,58.095 212.43,58.095 L212.43,57.198 C212.43,57.199 196.334,54.0268 192.369,53.1732 Z" id="Path" fill="#cccccc"></path>
            <path d="M192.369,57.657 C179.765,55.1905 174.667,51.2113 170.969,46.3913 C167.272,41.5712 148.971,17.4702 148.971,17.4702 L148.971,23.5299 C149.737,24.4372 166.478,44.2779 170.969,49.4175 C176.208,55.4123 183.518,56.984 192.369,58.61 C201.221,60.236 212.426,62.365 212.426,62.365 L212.426,61.469 C212.426,61.469 199.637,59.079 192.369,57.657 Z" id="Path" fill="#cccccc"></path>
            <path d="M192.369,62.309 C179.261,59.769 176.573,57.676 171.025,51.6035 C167.537,47.7869 149.723,26.7698 148.971,25.8833 L148.971,31.4825 C148.971,31.4825 165.619,49.2236 170.969,54.4624 C177.992,61.338 184.583,61.861 192.369,63.262 C200.157,64.663 212.426,66.905 212.426,66.905 L212.426,65.952 C212.426,65.952 197.614,63.325 192.369,62.309 Z" id="Path" fill="#cccccc"></path>
            <polygon id="Path" stroke="none" stroke-width="2" fill="#034EA2" points="134.997 104.302 134.997 43.1519 43.504 43.1519 43.504 104.302"></polygon>
            <polygon id="Path" fill="#FFF200" points="90.242 51.8463 93.426 51.8463 90.86 53.8435 91.857 57.012 89.301 55.0599 86.745 57.012 87.753 53.8435 85.167 51.8463 88.34 51.8463 89.301 48.7568"></polygon>
            <polygon id="Path" fill="#FFF200" points="90.354 92.627 93.542 92.627 90.977 94.553 91.973 97.597 89.418 95.721 86.862 97.597 87.868 94.553 85.278 92.627 88.456 92.627 89.418 89.653"></polygon>
            <polygon id="Path" fill="#FFF200" points="100.45 89.926 103.64 89.926 101.073 91.847 102.07 94.896 99.514 93.015 96.959 94.896 97.966 91.847 95.375 89.926 98.553 89.926 99.514 86.952"></polygon>
            <polygon id="Path" fill="#FFF200" points="100.45 54.5668 103.64 54.5668 101.073 56.488 102.07 59.537 99.514 57.659 96.959 59.537 97.966 56.488 95.375 54.5668 98.553 54.5668 99.514 51.5942"></polygon>
            <polygon id="Path" fill="#FFF200" points="107.947 62.056 111.129 62.056 108.563 63.975 109.561 67.026 107.005 65.148 104.454 67.026 105.462 63.975 102.87 62.056 106.044 62.056 107.005 59.083"></polygon>
            <polygon id="Path" fill="#FFF200" points="107.947 82.539 111.129 82.539 108.563 84.466 109.561 87.514 107.005 85.632 104.454 87.514 105.462 84.466 102.87 82.539 106.044 82.539 107.005 79.565"></polygon>
            <polygon id="Path" fill="#FFF200" points="110.755 72.141 113.944 72.141 111.377 74.063 112.374 77.113 109.819 75.232 107.262 77.113 108.27 74.063 105.679 72.141 108.853 72.141 109.819 69.17"></polygon>
            <polygon id="Path" fill="#FFF200" points="79.949 54.5912 83.131 54.5912 80.566 56.516 81.563 59.565 79.007 57.684 76.451 59.565 77.459 56.516 74.872 54.5912 78.046 54.5912 79.007 51.6187"></polygon>
            <polygon id="Path" fill="#FFF200" points="72.66 62.081 75.849 62.081 73.283 64.002 74.275 67.051 71.724 65.173 69.168 67.051 70.173 64.002 67.584 62.081 70.762 62.081 71.724 59.107"></polygon>
            <polygon id="Path" fill="#FFF200" points="69.955 72.166 73.141 72.166 70.576 74.09 71.572 77.138 69.017 75.263 66.461 77.138 67.468 74.09 64.882 72.166 68.055 72.166 69.017 69.196"></polygon>
            <polygon id="Path" fill="#FFF200" points="72.66 82.564 75.849 82.564 73.283 84.491 74.275 87.539 71.724 85.659 69.168 87.539 70.173 84.491 67.584 82.564 70.762 82.564 71.724 79.595"></polygon>
            <polygon id="Path" fill="#FFF200" points="80.055 89.951 83.238 89.951 80.672 91.873 81.664 94.922 79.114 93.041 76.557 94.922 77.565 91.873 74.979 89.951 78.152 89.951 79.114 86.978"></polygon>
            <path d="M433.4,54.6509 L431.123,54.6509 L428.951,47.0545 C428.857,46.7234 428.741,46.2472 428.601,45.6258 C428.46,44.9986 428.376,44.563 428.347,44.3191 C428.288,44.6908 428.192,45.1728 428.058,45.7652 C427.929,46.3576 427.821,46.7989 427.733,47.0893 L425.614,54.6509 L423.337,54.6509 L421.682,48.2741 L420,41.9147 L422.137,41.9147 L423.967,49.3369 C424.254,50.5275 424.458,51.5786 424.581,52.4904 C424.645,51.9968 424.741,51.4451 424.87,50.8353 C424.998,50.2255 425.115,49.7318 425.22,49.3543 L427.304,41.9147 L429.38,41.9147 L431.517,49.3892 C431.721,50.0803 431.937,51.114 432.165,52.4904 C432.253,51.6599 432.463,50.603 432.796,49.3195 L434.617,41.9147 L436.737,41.9147 L433.4,54.6509 Z" id="Path" fill="#333333"></path>
            <path d="M440.398,54.6509 L438.34,54.6509 L438.34,45.016 L440.398,45.016 L440.398,54.6509 Z M438.217,42.4635 C438.217,42.0976 438.316,41.816 438.515,41.6185 C438.719,41.4211 439.008,41.3223 439.382,41.3223 C439.744,41.3223 440.024,41.4211 440.223,41.6185 C440.427,41.816 440.529,42.0976 440.529,42.4635 C440.529,42.812 440.427,43.0879 440.223,43.2911 C440.024,43.4886 439.744,43.5873 439.382,43.5873 C439.008,43.5873 438.719,43.4886 438.515,43.2911 C438.316,43.0879 438.217,42.812 438.217,42.4635 Z" id="Shape" fill="#333333"></path>
            <path d="M451.871,54.6509 L449.804,54.6509 L449.804,48.7271 C449.804,47.9837 449.652,47.4291 449.349,47.0632 C449.051,46.6973 448.575,46.5144 447.921,46.5144 C447.051,46.5144 446.415,46.7699 446.012,47.281 C445.609,47.7921 445.407,48.6487 445.407,49.8509 L445.407,54.6509 L443.349,54.6509 L443.349,45.016 L444.961,45.016 L445.25,46.2792 L445.355,46.2792 C445.647,45.8204 446.061,45.4661 446.599,45.2164 C447.136,44.9666 447.731,44.8418 448.385,44.8418 C450.709,44.8418 451.871,46.0178 451.871,48.3699 L451.871,54.6509 Z" id="Path" fill="#333333"></path>
            <path d="M463.257,54.6509 L461.19,54.6509 L461.19,48.7271 C461.19,47.9837 461.038,47.4291 460.734,47.0632 C460.436,46.6973 459.961,46.5144 459.307,46.5144 C458.437,46.5144 457.8,46.7699 457.397,47.281 C456.995,47.7921 456.793,48.6487 456.793,49.8509 L456.793,54.6509 L454.735,54.6509 L454.735,45.016 L456.346,45.016 L456.635,46.2792 L456.741,46.2792 C457.032,45.8204 457.447,45.4661 457.984,45.2164 C458.521,44.9666 459.117,44.8418 459.771,44.8418 C462.095,44.8418 463.257,46.0178 463.257,48.3699 L463.257,54.6509 Z" id="Path" fill="#333333"></path>
            <path d="M470.351,54.8251 C468.844,54.8251 467.665,54.3895 466.812,53.5184 C465.966,52.6414 465.542,51.4364 465.542,49.9031 C465.542,48.3293 465.937,47.0922 466.725,46.192 C467.513,45.2919 468.596,44.8418 469.974,44.8418 C471.253,44.8418 472.263,45.228 473.004,46.0004 C473.746,46.7728 474.117,47.8356 474.117,49.1888 L474.117,50.2951 L467.662,50.2951 C467.691,51.2302 467.945,51.9503 468.424,52.4556 C468.903,52.9551 469.577,53.2048 470.447,53.2048 C471.019,53.2048 471.551,53.1525 472.041,53.048 C472.537,52.9376 473.069,52.7576 473.635,52.5079 L473.635,54.1718 C473.133,54.4099 472.625,54.5783 472.111,54.677 C471.597,54.7758 471.011,54.8251 470.351,54.8251 Z M469.974,46.3924 C469.32,46.3924 468.795,46.5986 468.398,47.0109 C468.006,47.4233 467.773,48.0244 467.697,48.8142 L472.094,48.8142 C472.082,48.0185 471.889,47.4175 471.516,47.0109 C471.142,46.5986 470.628,46.3924 469.974,46.3924 Z" id="Shape" fill="#333333"></path>
            <path d="M481.369,44.8418 C481.783,44.8418 482.125,44.8708 482.393,44.9289 L482.192,46.8367 C481.9,46.767 481.596,46.7322 481.281,46.7322 C480.458,46.7322 479.789,46.9993 479.275,47.5336 C478.767,48.0679 478.513,48.7619 478.513,49.6157 L478.513,54.6509 L476.455,54.6509 L476.455,45.016 L478.067,45.016 L478.338,46.7147 L478.443,46.7147 C478.764,46.1398 479.182,45.6839 479.696,45.347 C480.215,45.0102 480.773,44.8418 481.369,44.8418 Z" id="Path" fill="#333333"></path>
            <path d="M497.449,49.816 C497.449,51.3899 497.043,52.6182 496.231,53.501 C495.42,54.3837 494.29,54.8251 492.842,54.8251 C491.937,54.8251 491.137,54.6219 490.442,54.2153 C489.747,53.8088 489.213,53.2251 488.839,52.4643 C488.466,51.7035 488.279,50.8207 488.279,49.816 C488.279,48.2538 488.682,47.0342 489.487,46.1572 C490.293,45.2802 491.429,44.8418 492.894,44.8418 C494.296,44.8418 495.405,45.2919 496.222,46.192 C497.04,47.0864 497.449,48.2944 497.449,49.816 Z M490.398,49.816 C490.398,52.0403 491.224,53.1525 492.877,53.1525 C494.512,53.1525 495.329,52.0403 495.329,49.816 C495.329,47.6149 494.506,46.5144 492.859,46.5144 C491.995,46.5144 491.367,46.7989 490.976,47.3681 C490.591,47.9372 490.398,48.7532 490.398,49.816 Z" id="Shape" fill="#333333"></path>
            <path d="M504.683,46.5666 L502.318,46.5666 L502.318,54.6509 L500.251,54.6509 L500.251,46.5666 L498.657,46.5666 L498.657,45.6084 L500.251,44.9811 L500.251,44.3539 C500.251,43.2156 500.52,42.3735 501.057,41.8276 C501.594,41.2759 502.414,41 503.518,41 C504.242,41 504.954,41.1191 505.655,41.3572 L505.112,42.9078 C504.604,42.7452 504.119,42.6639 503.658,42.6639 C503.191,42.6639 502.849,42.8091 502.633,43.0995 C502.423,43.384 502.318,43.8138 502.318,44.3888 L502.318,45.016 L504.683,45.016 L504.683,46.5666 Z" id="Path" fill="#333333"></path>
            <path d="M514.606,53.1699 C515.108,53.1699 515.61,53.0915 516.112,52.9347 L516.112,54.4767 C515.884,54.5754 515.59,54.6567 515.228,54.7206 C514.871,54.7903 514.501,54.8251 514.115,54.8251 C512.165,54.8251 511.19,53.803 511.19,51.7587 L511.19,46.5666 L509.868,46.5666 L509.868,45.6606 L511.286,44.9115 L511.987,42.873 L513.257,42.873 L513.257,45.016 L516.016,45.016 L516.016,46.5666 L513.257,46.5666 L513.257,51.7238 C513.257,52.2175 513.38,52.5834 513.625,52.8215 C513.876,53.0538 514.203,53.1699 514.606,53.1699 Z" id="Path" fill="#333333"></path>
            <path d="M526.578,54.6509 L524.511,54.6509 L524.511,48.7271 C524.511,47.9837 524.359,47.4291 524.056,47.0632 C523.758,46.6973 523.282,46.5144 522.628,46.5144 C521.764,46.5144 521.128,46.7728 520.719,47.2897 C520.316,47.8008 520.115,48.6603 520.115,49.8683 L520.115,54.6509 L518.057,54.6509 L518.057,41.0958 L520.115,41.0958 L520.115,44.5369 C520.115,45.0886 520.08,45.6781 520.01,46.3053 L520.141,46.3053 C520.421,45.8407 520.809,45.4806 521.306,45.2251 C521.808,44.9695 522.392,44.8418 523.057,44.8418 C525.405,44.8418 526.578,46.0178 526.578,48.3699 L526.578,54.6509 Z" id="Path" fill="#333333"></path>
            <path d="M533.672,54.8251 C532.166,54.8251 530.986,54.3895 530.134,53.5184 C529.287,52.6414 528.864,51.4364 528.864,49.9031 C528.864,48.3293 529.258,47.0922 530.046,46.192 C530.835,45.2919 531.918,44.8418 533.296,44.8418 C534.574,44.8418 535.585,45.228 536.326,46.0004 C537.068,46.7728 537.438,47.8356 537.438,49.1888 L537.438,50.2951 L530.984,50.2951 C531.013,51.2302 531.267,51.9503 531.746,52.4556 C532.224,52.9551 532.899,53.2048 533.769,53.2048 C534.341,53.2048 534.872,53.1525 535.363,53.048 C535.859,52.9376 536.39,52.7576 536.957,52.5079 L536.957,54.1718 C536.455,54.4099 535.947,54.5783 535.433,54.677 C534.919,54.7758 534.332,54.8251 533.672,54.8251 Z M533.296,46.3924 C532.642,46.3924 532.116,46.5986 531.719,47.0109 C531.328,47.4233 531.095,48.0244 531.019,48.8142 L535.415,48.8142 C535.404,48.0185 535.211,47.4175 534.837,47.0109 C534.463,46.5986 533.95,46.3924 533.296,46.3924 Z" id="Shape" fill="#333333"></path>
            <path d="M544.655,41.9147 L548.456,41.9147 C550.219,41.9147 551.492,42.1702 552.275,42.6813 C553.063,43.1924 553.457,43.9997 553.457,45.1031 C553.457,45.8465 553.264,46.465 552.879,46.9587 C552.494,47.4523 551.939,47.763 551.215,47.8908 L551.215,47.9779 C552.114,48.1463 552.774,48.4803 553.194,48.9797 C553.621,49.4734 553.834,50.1442 553.834,50.9921 C553.834,52.1362 553.431,53.0335 552.625,53.6839 C551.825,54.3286 550.71,54.6509 549.279,54.6509 L544.655,54.6509 L544.655,41.9147 Z M546.748,47.1764 L548.763,47.1764 C549.638,47.1764 550.278,47.04 550.681,46.767 C551.084,46.4882 551.285,46.0178 551.285,45.3557 C551.285,44.7576 551.066,44.3249 550.628,44.0577 C550.196,43.7906 549.507,43.657 548.561,43.657 L546.748,43.657 L546.748,47.1764 Z M546.748,48.8665 L546.748,52.8999 L548.973,52.8999 C549.849,52.8999 550.508,52.7344 550.952,52.4033 C551.402,52.0665 551.627,51.538 551.627,50.8178 C551.627,50.1558 551.399,49.665 550.943,49.3456 C550.488,49.0262 549.796,48.8665 548.868,48.8665 L546.748,48.8665 Z" id="Shape" fill="#333333"></path>
            <polygon id="Path" fill="#333333" points="558.335 54.6509 556.277 54.6509 556.277 41.0958 558.335 41.0958"></polygon>
            <path d="M569.879,49.816 C569.879,51.3899 569.473,52.6182 568.661,53.501 C567.85,54.3837 566.72,54.8251 565.272,54.8251 C564.367,54.8251 563.567,54.6219 562.872,54.2153 C562.177,53.8088 561.643,53.2251 561.269,52.4643 C560.896,51.7035 560.709,50.8207 560.709,49.816 C560.709,48.2538 561.112,47.0342 561.917,46.1572 C562.723,45.2802 563.859,44.8418 565.324,44.8418 C566.726,44.8418 567.835,45.2919 568.652,46.192 C569.47,47.0864 569.879,48.2944 569.879,49.816 Z M562.828,49.816 C562.828,52.0403 563.654,53.1525 565.307,53.1525 C566.942,53.1525 567.759,52.0403 567.759,49.816 C567.759,47.6149 566.936,46.5144 565.289,46.5144 C564.425,46.5144 563.798,46.7989 563.406,47.3681 C563.021,47.9372 562.828,48.7532 562.828,49.816 Z" id="Shape" fill="#333333"></path>
            <path d="M576.158,54.8251 C574.693,54.8251 573.577,54.4012 572.813,53.5532 C572.054,52.6995 571.674,51.477 571.674,49.8857 C571.674,48.2654 572.071,47.0196 572.865,46.1485 C573.665,45.2773 574.818,44.8418 576.325,44.8418 C577.346,44.8418 578.266,45.0305 579.083,45.408 L578.462,47.0545 C577.592,46.7176 576.873,46.5492 576.307,46.5492 C574.631,46.5492 573.794,47.6556 573.794,49.8683 C573.794,50.9485 574.001,51.7616 574.415,52.3075 C574.836,52.8476 575.449,53.1177 576.255,53.1177 C577.171,53.1177 578.038,52.8912 578.856,52.4382 L578.856,54.224 C578.488,54.4389 578.094,54.5928 577.673,54.6857 C577.259,54.7787 576.754,54.8251 576.158,54.8251 Z" id="Path" fill="#333333"></path>
            <polygon id="Path" fill="#333333" points="583.121 49.5634 584.286 48.1173 587.211 45.016 589.585 45.016 585.687 49.1539 589.83 54.6509 587.412 54.6509 584.303 50.4258 583.174 51.3492 583.174 54.6509 581.133 54.6509 581.133 41.0958 583.174 41.0958 583.174 47.7078 583.068 49.5634"></polygon>
            <path d="M595.304,54.8251 C593.838,54.8251 592.723,54.4012 591.958,53.5532 C591.199,52.6995 590.819,51.477 590.819,49.8857 C590.819,48.2654 591.216,47.0196 592.011,46.1485 C592.81,45.2773 593.964,44.8418 595.47,44.8418 C596.492,44.8418 597.411,45.0305 598.229,45.408 L597.607,47.0545 C596.737,46.7176 596.019,46.5492 595.452,46.5492 C593.777,46.5492 592.939,47.6556 592.939,49.8683 C592.939,50.9485 593.146,51.7616 593.561,52.3075 C593.981,52.8476 594.594,53.1177 595.4,53.1177 C596.317,53.1177 597.184,52.8912 598.001,52.4382 L598.001,54.224 C597.633,54.4389 597.239,54.5928 596.819,54.6857 C596.404,54.7787 595.899,54.8251 595.304,54.8251 Z" id="Path" fill="#333333"></path>
            <path d="M608.8,54.6509 L606.733,54.6509 L606.733,48.7271 C606.733,47.9837 606.581,47.4291 606.278,47.0632 C605.98,46.6973 605.504,46.5144 604.85,46.5144 C603.986,46.5144 603.349,46.7728 602.941,47.2897 C602.538,47.8008 602.336,48.6603 602.336,49.8683 L602.336,54.6509 L600.278,54.6509 L600.278,41.0958 L602.336,41.0958 L602.336,44.5369 C602.336,45.0886 602.301,45.6781 602.231,46.3053 L602.363,46.3053 C602.643,45.8407 603.031,45.4806 603.528,45.2251 C604.03,44.9695 604.614,44.8418 605.279,44.8418 C607.626,44.8418 608.8,46.0178 608.8,48.3699 L608.8,54.6509 Z" id="Path" fill="#333333"></path>
            <path d="M617.725,54.6509 L617.313,53.3093 L617.243,53.3093 C616.776,53.8959 616.306,54.2966 615.833,54.5115 C615.36,54.7206 614.753,54.8251 614.011,54.8251 C613.059,54.8251 612.315,54.5696 611.778,54.0585 C611.246,53.5474 610.981,52.8244 610.981,51.8894 C610.981,50.8962 611.351,50.1471 612.093,49.6418 C612.835,49.1365 613.964,48.8607 615.482,48.8142 L617.155,48.7619 L617.155,48.248 C617.155,47.6323 617.009,47.1735 616.717,46.8715 C616.431,46.5637 615.985,46.4098 615.377,46.4098 C614.881,46.4098 614.405,46.4824 613.95,46.6276 C613.494,46.7728 613.056,46.9441 612.636,47.1416 L611.97,45.6781 C612.496,45.4051 613.071,45.1989 613.696,45.0596 C614.321,44.9144 614.91,44.8418 615.465,44.8418 C616.697,44.8418 617.625,45.1089 618.25,45.6432 C618.881,46.1775 619.196,47.0167 619.196,48.1608 L619.196,54.6509 L617.725,54.6509 Z M614.659,53.2571 C615.407,53.2571 616.005,53.0509 616.455,52.6385 C616.91,52.2204 617.138,51.6367 617.138,50.8875 L617.138,50.0512 L615.894,50.1035 C614.925,50.1383 614.218,50.301 613.775,50.5913 C613.337,50.8759 613.118,51.3144 613.118,51.9068 C613.118,52.3365 613.246,52.6705 613.503,52.9086 C613.76,53.1409 614.145,53.2571 614.659,53.2571 Z" id="Shape" fill="#333333"></path>
            <path d="M624.127,54.6509 L622.069,54.6509 L622.069,45.016 L624.127,45.016 L624.127,54.6509 Z M621.946,42.4635 C621.946,42.0976 622.045,41.816 622.244,41.6185 C622.448,41.4211 622.737,41.3223 623.111,41.3223 C623.473,41.3223 623.753,41.4211 623.952,41.6185 C624.156,41.816 624.258,42.0976 624.258,42.4635 C624.258,42.812 624.156,43.0879 623.952,43.2911 C623.753,43.4886 623.473,43.5873 623.111,43.5873 C622.737,43.5873 622.448,43.4886 622.244,43.2911 C622.045,43.0879 621.946,42.812 621.946,42.4635 Z" id="Shape" fill="#333333"></path>
            <path d="M635.6,54.6509 L633.533,54.6509 L633.533,48.7271 C633.533,47.9837 633.381,47.4291 633.078,47.0632 C632.78,46.6973 632.304,46.5144 631.65,46.5144 C630.78,46.5144 630.144,46.7699 629.741,47.281 C629.338,47.7921 629.136,48.6487 629.136,49.8509 L629.136,54.6509 L627.078,54.6509 L627.078,45.016 L628.69,45.016 L628.979,46.2792 L629.084,46.2792 C629.376,45.8204 629.79,45.4661 630.328,45.2164 C630.865,44.9666 631.46,44.8418 632.114,44.8418 C634.438,44.8418 635.6,46.0178 635.6,48.3699 L635.6,54.6509 Z" id="Path" fill="#333333"></path>
            <path d="M644.971,51.9068 C644.971,52.8476 644.627,53.5707 643.938,54.0759 C643.249,54.5754 642.262,54.8251 640.977,54.8251 C639.687,54.8251 638.651,54.6306 637.868,54.2415 L637.868,52.473 C639.007,52.9957 640.067,53.2571 641.048,53.2571 C642.315,53.2571 642.948,52.8767 642.948,52.1158 C642.948,51.8719 642.878,51.6687 642.738,51.506 C642.598,51.3434 642.367,51.175 642.046,51.0008 C641.725,50.8266 641.278,50.6291 640.706,50.4084 C639.591,49.9786 638.835,49.5489 638.438,49.1191 C638.046,48.6893 637.851,48.1318 637.851,47.4465 C637.851,46.6218 638.184,45.983 638.849,45.53 C639.521,45.0712 640.432,44.8418 641.582,44.8418 C642.72,44.8418 643.798,45.0712 644.814,45.53 L644.148,47.0719 C643.103,46.6421 642.224,46.4273 641.512,46.4273 C640.426,46.4273 639.883,46.7351 639.883,47.3507 C639.883,47.6527 640.023,47.9082 640.303,48.1173 C640.589,48.3264 641.208,48.6138 642.16,48.9797 C642.96,49.2875 643.541,49.5692 643.903,49.8247 C644.265,50.0803 644.533,50.3765 644.708,50.7133 C644.884,51.0443 644.971,51.4422 644.971,51.9068 Z" id="Path" fill="#333333"></path>
            <path d="M656.725,46.5666 L654.36,46.5666 L654.36,54.6509 L652.293,54.6509 L652.293,46.5666 L650.699,46.5666 L650.699,45.6084 L652.293,44.9811 L652.293,44.3539 C652.293,43.2156 652.562,42.3735 653.099,41.8276 C653.636,41.2759 654.456,41 655.56,41 C656.284,41 656.996,41.1191 657.697,41.3572 L657.154,42.9078 C656.646,42.7452 656.161,42.6639 655.7,42.6639 C655.233,42.6639 654.891,42.8091 654.675,43.0995 C654.465,43.384 654.36,43.8138 654.36,44.3888 L654.36,45.016 L656.725,45.016 L656.725,46.5666 Z" id="Path" fill="#333333"></path>
            <path d="M666.972,49.816 C666.972,51.3899 666.566,52.6182 665.754,53.501 C664.943,54.3837 663.813,54.8251 662.365,54.8251 C661.46,54.8251 660.66,54.6219 659.965,54.2153 C659.27,53.8088 658.736,53.2251 658.362,52.4643 C657.989,51.7035 657.802,50.8207 657.802,49.816 C657.802,48.2538 658.205,47.0342 659.011,46.1572 C659.816,45.2802 660.952,44.8418 662.417,44.8418 C663.819,44.8418 664.928,45.2919 665.746,46.192 C666.563,47.0864 666.972,48.2944 666.972,49.816 Z M659.921,49.816 C659.921,52.0403 660.748,53.1525 662.4,53.1525 C664.035,53.1525 664.852,52.0403 664.852,49.816 C664.852,47.6149 664.029,46.5144 662.382,46.5144 C661.518,46.5144 660.891,46.7989 660.499,47.3681 C660.114,47.9372 659.921,48.7532 659.921,49.816 Z" id="Shape" fill="#333333"></path>
            <path d="M674.259,44.8418 C674.673,44.8418 675.015,44.8708 675.283,44.9289 L675.082,46.8367 C674.79,46.767 674.486,46.7322 674.171,46.7322 C673.348,46.7322 672.679,46.9993 672.165,47.5336 C671.657,48.0679 671.403,48.7619 671.403,49.6157 L671.403,54.6509 L669.345,54.6509 L669.345,45.016 L670.957,45.016 L671.228,46.7147 L671.333,46.7147 C671.654,46.1398 672.072,45.6839 672.586,45.347 C673.105,45.0102 673.663,44.8418 674.259,44.8418 Z" id="Path" fill="#333333"></path>
            <path d="M689.349,51.1924 C689.349,52.3249 688.937,53.2135 688.114,53.8581 C687.291,54.5028 686.155,54.8251 684.707,54.8251 C683.259,54.8251 682.074,54.6015 681.151,54.1543 L681.151,52.1855 C681.735,52.4585 682.354,52.6734 683.008,52.8302 C683.668,52.987 684.281,53.0654 684.847,53.0654 C685.676,53.0654 686.286,52.9086 686.678,52.595 C687.075,52.2814 687.273,51.8603 687.273,51.3318 C687.273,50.8556 687.092,50.452 686.73,50.1209 C686.368,49.7899 685.621,49.3979 684.488,48.9449 C683.32,48.4745 682.497,47.9372 682.018,47.3332 C681.539,46.7293 681.3,46.0033 681.3,45.1554 C681.3,44.0926 681.68,43.2563 682.439,42.6465 C683.198,42.0367 684.217,41.7318 685.495,41.7318 C686.721,41.7318 687.942,41.9989 689.156,42.5332 L688.491,44.232 C687.352,43.7557 686.336,43.5176 685.443,43.5176 C684.765,43.5176 684.252,43.6657 683.901,43.9619 C683.551,44.2523 683.376,44.6385 683.376,45.1205 C683.376,45.4516 683.446,45.7361 683.586,45.9743 C683.726,46.2066 683.957,46.4273 684.278,46.6363 C684.599,46.8454 685.177,47.1213 686.012,47.4639 C686.952,47.853 687.641,48.216 688.079,48.5529 C688.517,48.8897 688.838,49.2701 689.042,49.6941 C689.247,50.118 689.349,50.6175 689.349,51.1924 Z" id="Path" fill="#333333"></path>
            <path d="M700.2,49.816 C700.2,51.3899 699.794,52.6182 698.983,53.501 C698.171,54.3837 697.041,54.8251 695.593,54.8251 C694.688,54.8251 693.889,54.6219 693.194,54.2153 C692.499,53.8088 691.965,53.2251 691.591,52.4643 C691.217,51.7035 691.03,50.8207 691.03,49.816 C691.03,48.2538 691.433,47.0342 692.239,46.1572 C693.045,45.2802 694.18,44.8418 695.646,44.8418 C697.047,44.8418 698.157,45.2919 698.974,46.192 C699.792,47.0864 700.2,48.2944 700.2,49.816 Z M693.15,49.816 C693.15,52.0403 693.976,53.1525 695.628,53.1525 C697.263,53.1525 698.081,52.0403 698.081,49.816 C698.081,47.6149 697.257,46.5144 695.611,46.5144 C694.747,46.5144 694.119,46.7989 693.728,47.3681 C693.343,47.9372 693.15,48.7532 693.15,49.816 Z" id="Shape" fill="#333333"></path>
            <path d="M706.48,54.8251 C705.014,54.8251 703.899,54.4012 703.134,53.5532 C702.375,52.6995 701.996,51.477 701.996,49.8857 C701.996,48.2654 702.393,47.0196 703.187,46.1485 C703.987,45.2773 705.14,44.8418 706.646,44.8418 C707.668,44.8418 708.588,45.0305 709.405,45.408 L708.783,47.0545 C707.913,46.7176 707.195,46.5492 706.629,46.5492 C704.953,46.5492 704.115,47.6556 704.115,49.8683 C704.115,50.9485 704.322,51.7616 704.737,52.3075 C705.157,52.8476 705.77,53.1177 706.576,53.1177 C707.493,53.1177 708.36,52.8912 709.177,52.4382 L709.177,54.224 C708.81,54.4389 708.415,54.5928 707.995,54.6857 C707.58,54.7787 707.075,54.8251 706.48,54.8251 Z" id="Path" fill="#333333"></path>
            <path d="M713.513,54.6509 L711.454,54.6509 L711.454,45.016 L713.513,45.016 L713.513,54.6509 Z M711.332,42.4635 C711.332,42.0976 711.431,41.816 711.63,41.6185 C711.834,41.4211 712.123,41.3223 712.497,41.3223 C712.859,41.3223 713.139,41.4211 713.337,41.6185 C713.542,41.816 713.644,42.0976 713.644,42.4635 C713.644,42.812 713.542,43.0879 713.337,43.2911 C713.139,43.4886 712.859,43.5873 712.497,43.5873 C712.123,43.5873 711.834,43.4886 711.63,43.2911 C711.431,43.0879 711.332,42.812 711.332,42.4635 Z" id="Shape" fill="#333333"></path>
            <path d="M722.525,54.6509 L722.113,53.3093 L722.043,53.3093 C721.576,53.8959 721.106,54.2966 720.633,54.5115 C720.16,54.7206 719.553,54.8251 718.811,54.8251 C717.86,54.8251 717.115,54.5696 716.578,54.0585 C716.047,53.5474 715.781,52.8244 715.781,51.8894 C715.781,50.8962 716.152,50.1471 716.893,49.6418 C717.635,49.1365 718.765,48.8607 720.283,48.8142 L721.956,48.7619 L721.956,48.248 C721.956,47.6323 721.81,47.1735 721.518,46.8715 C721.232,46.5637 720.785,46.4098 720.178,46.4098 C719.681,46.4098 719.205,46.4824 718.75,46.6276 C718.295,46.7728 717.857,46.9441 717.436,47.1416 L716.771,45.6781 C717.296,45.4051 717.871,45.1989 718.496,45.0596 C719.121,44.9144 719.711,44.8418 720.265,44.8418 C721.497,44.8418 722.426,45.1089 723.05,45.6432 C723.681,46.1775 723.996,47.0167 723.996,48.1608 L723.996,54.6509 L722.525,54.6509 Z M719.459,53.2571 C720.207,53.2571 720.805,53.0509 721.255,52.6385 C721.71,52.2204 721.938,51.6367 721.938,50.8875 L721.938,50.0512 L720.694,50.1035 C719.725,50.1383 719.019,50.301 718.575,50.5913 C718.137,50.8759 717.918,51.3144 717.918,51.9068 C717.918,52.3365 718.046,52.6705 718.303,52.9086 C718.56,53.1409 718.946,53.2571 719.459,53.2571 Z" id="Shape" fill="#333333"></path>
            <polygon id="Path" fill="#333333" points="728.927 54.6509 726.869 54.6509 726.869 41.0958 728.927 41.0958"></polygon>
            <path d="M741.994,47.7427 L746.706,47.7427 L746.706,54.1369 C745.935,54.3866 745.194,54.5638 744.482,54.6683 C743.775,54.7729 743.01,54.8251 742.187,54.8251 C740.248,54.8251 738.754,54.256 737.703,53.1177 C736.652,51.9736 736.126,50.3619 736.126,48.2828 C736.126,46.2327 736.719,44.6298 737.904,43.4741 C739.089,42.3125 740.721,41.7318 742.8,41.7318 C744.137,41.7318 745.404,41.9873 746.601,42.4984 L745.865,44.232 C744.826,43.7557 743.787,43.5176 742.747,43.5176 C741.381,43.5176 740.301,43.9445 739.507,44.7982 C738.713,45.6519 738.316,46.8193 738.316,48.3002 C738.316,49.8567 738.672,51.0414 739.384,51.8545 C740.102,52.6618 741.133,53.0654 742.476,53.0654 C743.153,53.0654 743.877,52.9812 744.648,52.8128 L744.648,49.5285 L741.994,49.5285 L741.994,47.7427 Z" id="Path" fill="#333333"></path>
            <path d="M758.162,49.816 C758.162,51.3899 757.756,52.6182 756.944,53.501 C756.133,54.3837 755.003,54.8251 753.555,54.8251 C752.65,54.8251 751.85,54.6219 751.155,54.2153 C750.46,53.8088 749.926,53.2251 749.553,52.4643 C749.179,51.7035 748.992,50.8207 748.992,49.816 C748.992,48.2538 749.395,47.0342 750.201,46.1572 C751.006,45.2802 752.142,44.8418 753.608,44.8418 C755.009,44.8418 756.118,45.2919 756.936,46.192 C757.753,47.0864 758.162,48.2944 758.162,49.816 Z M751.111,49.816 C751.111,52.0403 751.938,53.1525 753.59,53.1525 C755.225,53.1525 756.042,52.0403 756.042,49.816 C756.042,47.6149 755.219,46.5144 753.573,46.5144 C752.708,46.5144 752.081,46.7989 751.69,47.3681 C751.304,47.9372 751.111,48.7532 751.111,49.816 Z" id="Shape" fill="#333333"></path>
            <path d="M769.127,49.816 C769.127,51.3899 768.721,52.6182 767.91,53.501 C767.098,54.3837 765.968,54.8251 764.52,54.8251 C763.615,54.8251 762.815,54.6219 762.121,54.2153 C761.426,53.8088 760.891,53.2251 760.518,52.4643 C760.144,51.7035 759.957,50.8207 759.957,49.816 C759.957,48.2538 760.36,47.0342 761.166,46.1572 C761.972,45.2802 763.107,44.8418 764.573,44.8418 C765.974,44.8418 767.083,45.2919 767.901,46.192 C768.718,47.0864 769.127,48.2944 769.127,49.816 Z M762.077,49.816 C762.077,52.0403 762.903,53.1525 764.555,53.1525 C766.19,53.1525 767.008,52.0403 767.008,49.816 C767.008,47.6149 766.184,46.5144 764.538,46.5144 C763.674,46.5144 763.046,46.7989 762.655,47.3681 C762.269,47.9372 762.077,48.7532 762.077,49.816 Z" id="Shape" fill="#333333"></path>
            <path d="M774.767,54.8251 C773.559,54.8251 772.616,54.3895 771.938,53.5184 C771.261,52.6473 770.922,51.4247 770.922,49.8509 C770.922,48.2712 771.264,47.0429 771.947,46.1659 C772.636,45.2831 773.588,44.8418 774.802,44.8418 C776.075,44.8418 777.044,45.3093 777.71,46.2443 L777.815,46.2443 C777.716,45.5532 777.666,45.0073 777.666,44.6066 L777.666,41.0958 L779.733,41.0958 L779.733,54.6509 L778.122,54.6509 L777.763,53.3877 L777.666,53.3877 C777.007,54.346 776.04,54.8251 774.767,54.8251 Z M775.319,53.1699 C776.166,53.1699 776.782,52.9347 777.167,52.4643 C777.552,51.9881 777.751,51.2186 777.763,50.1558 L777.763,49.8683 C777.763,48.6545 777.564,47.7921 777.167,47.281 C776.77,46.7699 776.148,46.5144 775.302,46.5144 C774.578,46.5144 774.02,46.8077 773.629,47.3942 C773.238,47.975 773.042,48.8055 773.042,49.8857 C773.042,50.9543 773.232,51.7703 773.611,52.3336 C773.991,52.8912 774.56,53.1699 775.319,53.1699 Z" id="Shape" fill="#333333"></path>
            <path d="M430.063,70.297 C430.063,71.627 429.625,72.646 428.749,73.354 C427.874,74.063 426.627,74.417 425.01,74.417 L423.678,74.417 L423.678,79.182 L421.585,79.182 L421.585,66.446 L425.272,66.446 C426.872,66.446 428.069,66.771 428.863,67.422 C429.663,68.072 430.063,69.031 430.063,70.297 Z M423.678,72.666 L424.791,72.666 C425.865,72.666 426.653,72.48 427.155,72.109 C427.658,71.737 427.909,71.156 427.909,70.366 C427.909,69.635 427.684,69.089 427.234,68.729 C426.785,68.369 426.084,68.189 425.132,68.189 L423.678,68.189 L423.678,72.666 Z" id="Shape" fill="#333333"></path>
            <path d="M437.315,69.373 C437.729,69.373 438.071,69.402 438.34,69.46 L438.138,71.368 C437.846,71.299 437.543,71.264 437.227,71.264 C436.404,71.264 435.736,71.531 435.222,72.065 C434.714,72.599 434.46,73.293 434.46,74.147 L434.46,79.182 L432.402,79.182 L432.402,69.548 L434.013,69.548 L434.285,71.246 L434.39,71.246 C434.711,70.671 435.128,70.215 435.642,69.879 C436.162,69.542 436.719,69.373 437.315,69.373 Z" id="Path" fill="#333333"></path>
            <path d="M442.202,79.182 L440.144,79.182 L440.144,69.548 L442.202,69.548 L442.202,79.182 Z M440.021,66.995 C440.021,66.629 440.12,66.348 440.319,66.15 C440.523,65.953 440.812,65.854 441.186,65.854 C441.548,65.854 441.828,65.953 442.027,66.15 C442.231,66.348 442.333,66.629 442.333,66.995 C442.333,67.344 442.231,67.619 442.027,67.823 C441.828,68.02 441.548,68.119 441.186,68.119 C440.812,68.119 440.523,68.02 440.319,67.823 C440.12,67.619 440.021,67.344 440.021,66.995 Z" id="Shape" fill="#333333"></path>
            <polygon id="Path" fill="#333333" points="451.626 79.182 444.278 79.182 444.278 77.919 449.173 71.116 444.575 71.116 444.575 69.548 451.486 69.548 451.486 70.976 446.695 77.614 451.626 77.614"></polygon>
            <path d="M457.967,79.357 C456.46,79.357 455.281,78.921 454.428,78.05 C453.582,77.173 453.158,75.968 453.158,74.435 C453.158,72.861 453.553,71.624 454.341,70.724 C455.129,69.823 456.212,69.373 457.59,69.373 C458.869,69.373 459.879,69.76 460.62,70.532 C461.362,71.304 461.733,72.367 461.733,73.72 L461.733,74.827 L455.278,74.827 C455.307,75.762 455.561,76.482 456.04,76.987 C456.519,77.487 457.193,77.736 458.063,77.736 C458.635,77.736 459.167,77.684 459.657,77.58 C460.153,77.469 460.685,77.289 461.251,77.039 L461.251,78.703 C460.749,78.941 460.241,79.11 459.727,79.209 C459.213,79.307 458.626,79.357 457.967,79.357 Z M457.59,70.924 C456.936,70.924 456.411,71.13 456.014,71.542 C455.622,71.955 455.389,72.556 455.313,73.346 L459.71,73.346 C459.698,72.55 459.505,71.949 459.132,71.542 C458.758,71.13 458.244,70.924 457.59,70.924 Z" id="Shape" fill="#333333"></path>
            <path d="M473.591,71.098 L471.227,71.098 L471.227,79.182 L469.16,79.182 L469.16,71.098 L467.566,71.098 L467.566,70.14 L469.16,69.513 L469.16,68.885 C469.16,67.747 469.428,66.905 469.965,66.359 C470.503,65.807 471.323,65.532 472.426,65.532 C473.15,65.532 473.863,65.651 474.563,65.889 L474.02,67.439 C473.512,67.277 473.028,67.195 472.567,67.195 C472.099,67.195 471.758,67.341 471.542,67.631 C471.332,67.916 471.227,68.345 471.227,68.92 L471.227,69.548 L473.591,69.548 L473.591,71.098 Z" id="Path" fill="#333333"></path>
            <path d="M480.16,69.373 C480.574,69.373 480.916,69.402 481.185,69.46 L480.983,71.368 C480.691,71.299 480.388,71.264 480.072,71.264 C479.249,71.264 478.581,71.531 478.067,72.065 C477.559,72.599 477.305,73.293 477.305,74.147 L477.305,79.182 L475.247,79.182 L475.247,69.548 L476.858,69.548 L477.13,71.246 L477.235,71.246 C477.556,70.671 477.973,70.215 478.487,69.879 C479.007,69.542 479.564,69.373 480.16,69.373 Z" id="Path" fill="#333333"></path>
            <path d="M491.581,74.348 C491.581,75.921 491.175,77.15 490.363,78.033 C489.552,78.915 488.422,79.357 486.974,79.357 C486.069,79.357 485.269,79.153 484.574,78.747 C483.879,78.34 483.345,77.757 482.971,76.996 C482.598,76.235 482.411,75.352 482.411,74.348 C482.411,72.785 482.814,71.566 483.619,70.689 C484.425,69.812 485.561,69.373 487.026,69.373 C488.428,69.373 489.537,69.823 490.354,70.724 C491.172,71.618 491.581,72.826 491.581,74.348 Z M484.53,74.348 C484.53,76.572 485.356,77.684 487.009,77.684 C488.644,77.684 489.461,76.572 489.461,74.348 C489.461,72.146 488.638,71.046 486.991,71.046 C486.127,71.046 485.499,71.33 485.108,71.9 C484.723,72.469 484.53,73.285 484.53,74.348 Z" id="Shape" fill="#333333"></path>
            <path d="M502.117,79.182 L500.05,79.182 L500.05,73.241 C500.05,72.504 499.91,71.955 499.629,71.595 C499.349,71.229 498.911,71.046 498.316,71.046 C497.522,71.046 496.938,71.304 496.564,71.821 C496.196,72.332 496.012,73.186 496.012,74.382 L496.012,79.182 L493.954,79.182 L493.954,69.548 L495.566,69.548 L495.855,70.811 L495.96,70.811 C496.228,70.352 496.617,69.998 497.124,69.748 C497.638,69.498 498.202,69.373 498.815,69.373 C500.304,69.373 501.29,69.879 501.775,70.889 L501.915,70.889 C502.201,70.413 502.604,70.041 503.124,69.774 C503.643,69.507 504.239,69.373 504.91,69.373 C506.067,69.373 506.907,69.664 507.433,70.244 C507.964,70.825 508.23,71.711 508.23,72.901 L508.23,79.182 L506.172,79.182 L506.172,73.241 C506.172,72.504 506.029,71.955 505.743,71.595 C505.462,71.229 505.024,71.046 504.429,71.046 C503.629,71.046 503.042,71.296 502.668,71.795 C502.301,72.289 502.117,73.05 502.117,74.077 L502.117,79.182 Z" id="Path" fill="#333333"></path>
            <path d="M519.37,77.701 C519.872,77.701 520.375,77.623 520.877,77.466 L520.877,79.008 C520.649,79.107 520.354,79.188 519.992,79.252 C519.636,79.322 519.265,79.357 518.88,79.357 C516.93,79.357 515.955,78.335 515.955,76.29 L515.955,71.098 L514.632,71.098 L514.632,70.192 L516.051,69.443 L516.752,67.404 L518.021,67.404 L518.021,69.548 L520.78,69.548 L520.78,71.098 L518.021,71.098 L518.021,76.255 C518.021,76.749 518.144,77.115 518.389,77.353 C518.64,77.585 518.967,77.701 519.37,77.701 Z" id="Path" fill="#333333"></path>
            <path d="M531.343,79.182 L529.276,79.182 L529.276,73.259 C529.276,72.515 529.124,71.961 528.82,71.595 C528.523,71.229 528.047,71.046 527.393,71.046 C526.529,71.046 525.892,71.304 525.483,71.821 C525.081,72.332 524.879,73.192 524.879,74.4 L524.879,79.182 L522.821,79.182 L522.821,65.627 L524.879,65.627 L524.879,69.068 C524.879,69.62 524.844,70.21 524.774,70.837 L524.905,70.837 C525.186,70.372 525.574,70.012 526.07,69.757 C526.572,69.501 527.156,69.373 527.822,69.373 C530.169,69.373 531.343,70.549 531.343,72.901 L531.343,79.182 Z" id="Path" fill="#333333"></path>
            <path d="M538.437,79.357 C536.93,79.357 535.751,78.921 534.898,78.05 C534.052,77.173 533.629,75.968 533.629,74.435 C533.629,72.861 534.023,71.624 534.811,70.724 C535.599,69.823 536.682,69.373 538.06,69.373 C539.339,69.373 540.349,69.76 541.09,70.532 C541.832,71.304 542.203,72.367 542.203,73.72 L542.203,74.827 L535.748,74.827 C535.777,75.762 536.031,76.482 536.51,76.987 C536.989,77.487 537.663,77.736 538.533,77.736 C539.105,77.736 539.637,77.684 540.127,77.58 C540.623,77.469 541.155,77.289 541.721,77.039 L541.721,78.703 C541.219,78.941 540.711,79.11 540.197,79.209 C539.683,79.307 539.097,79.357 538.437,79.357 Z M538.06,70.924 C537.406,70.924 536.881,71.13 536.484,71.542 C536.093,71.955 535.859,72.556 535.783,73.346 L540.18,73.346 C540.168,72.55 539.975,71.949 539.602,71.542 C539.228,71.13 538.714,70.924 538.06,70.924 Z" id="Shape" fill="#333333"></path>
            <polygon id="Path" fill="#333333" points="556.663 79.182 549.42 79.182 549.42 66.446 556.663 66.446 556.663 68.206 551.513 68.206 551.513 71.673 556.338 71.673 556.338 73.415 551.513 73.415 551.513 77.414 556.663 77.414"></polygon>
            <path d="M566.051,79.182 L565.762,77.919 L565.657,77.919 C565.371,78.366 564.962,78.718 564.431,78.973 C563.906,79.229 563.304,79.357 562.627,79.357 C561.453,79.357 560.577,79.066 559.999,78.486 C559.421,77.905 559.132,77.025 559.132,75.846 L559.132,69.548 L561.208,69.548 L561.208,75.489 C561.208,76.226 561.36,76.781 561.663,77.153 C561.967,77.519 562.443,77.701 563.091,77.701 C563.955,77.701 564.589,77.446 564.992,76.935 C565.4,76.418 565.605,75.556 565.605,74.348 L565.605,69.548 L567.672,69.548 L567.672,79.182 L566.051,79.182 Z" id="Path" fill="#333333"></path>
            <path d="M575.519,69.373 C575.933,69.373 576.275,69.402 576.544,69.46 L576.342,71.368 C576.05,71.299 575.747,71.264 575.431,71.264 C574.608,71.264 573.939,71.531 573.426,72.065 C572.918,72.599 572.664,73.293 572.664,74.147 L572.664,79.182 L570.606,79.182 L570.606,69.548 L572.217,69.548 L572.489,71.246 L572.594,71.246 C572.915,70.671 573.332,70.215 573.846,69.879 C574.366,69.542 574.923,69.373 575.519,69.373 Z" id="Path" fill="#333333"></path>
            <path d="M586.94,74.348 C586.94,75.921 586.534,77.15 585.722,78.033 C584.911,78.915 583.781,79.357 582.333,79.357 C581.428,79.357 580.628,79.153 579.933,78.747 C579.238,78.34 578.704,77.757 578.33,76.996 C577.957,76.235 577.77,75.352 577.77,74.348 C577.77,72.785 578.173,71.566 578.978,70.689 C579.784,69.812 580.92,69.373 582.385,69.373 C583.787,69.373 584.896,69.823 585.713,70.724 C586.531,71.618 586.94,72.826 586.94,74.348 Z M579.889,74.348 C579.889,76.572 580.715,77.684 582.368,77.684 C584.003,77.684 584.82,76.572 584.82,74.348 C584.82,72.146 583.997,71.046 582.35,71.046 C581.486,71.046 580.858,71.33 580.467,71.9 C580.082,72.469 579.889,73.285 579.889,74.348 Z" id="Shape" fill="#333333"></path>
            <path d="M594.226,79.357 C593,79.357 592.048,78.918 591.371,78.041 L591.249,78.041 C591.33,78.854 591.371,79.348 591.371,79.522 L591.371,83.468 L589.313,83.468 L589.313,69.548 L590.977,69.548 C591.024,69.728 591.12,70.157 591.266,70.837 L591.371,70.837 C592.013,69.861 592.977,69.373 594.261,69.373 C595.47,69.373 596.41,69.809 597.081,70.68 C597.759,71.551 598.097,72.774 598.097,74.348 C598.097,75.921 597.753,77.15 597.064,78.033 C596.381,78.915 595.435,79.357 594.226,79.357 Z M593.727,71.046 C592.91,71.046 592.311,71.284 591.932,71.76 C591.558,72.236 591.371,72.997 591.371,74.043 L591.371,74.348 C591.371,75.521 591.558,76.372 591.932,76.9 C592.305,77.423 592.916,77.684 593.762,77.684 C594.474,77.684 595.023,77.394 595.409,76.813 C595.794,76.232 595.987,75.405 595.987,74.33 C595.987,73.25 595.794,72.434 595.409,71.882 C595.029,71.325 594.469,71.046 593.727,71.046 Z" id="Shape" fill="#333333"></path>
            <path d="M604.719,79.357 C603.212,79.357 602.033,78.921 601.18,78.05 C600.334,77.173 599.91,75.968 599.91,74.435 C599.91,72.861 600.305,71.624 601.093,70.724 C601.881,69.823 602.964,69.373 604.342,69.373 C605.621,69.373 606.631,69.76 607.372,70.532 C608.114,71.304 608.485,72.367 608.485,73.72 L608.485,74.827 L602.03,74.827 C602.059,75.762 602.313,76.482 602.792,76.987 C603.271,77.487 603.945,77.736 604.815,77.736 C605.387,77.736 605.919,77.684 606.409,77.58 C606.905,77.469 607.437,77.289 608.003,77.039 L608.003,78.703 C607.501,78.941 606.993,79.11 606.479,79.209 C605.965,79.307 605.378,79.357 604.719,79.357 Z M604.342,70.924 C603.688,70.924 603.163,71.13 602.766,71.542 C602.374,71.955 602.141,72.556 602.065,73.346 L606.462,73.346 C606.45,72.55 606.257,71.949 605.883,71.542 C605.51,71.13 604.996,70.924 604.342,70.924 Z" id="Shape" fill="#333333"></path>
            <path d="M616.884,79.182 L616.472,77.841 L616.402,77.841 C615.935,78.427 615.465,78.828 614.992,79.043 C614.519,79.252 613.912,79.357 613.17,79.357 C612.219,79.357 611.474,79.101 610.937,78.59 C610.406,78.079 610.14,77.356 610.14,76.421 C610.14,75.428 610.511,74.679 611.252,74.173 C611.994,73.668 613.124,73.392 614.642,73.346 L616.314,73.293 L616.314,72.779 C616.314,72.164 616.168,71.705 615.877,71.403 C615.59,71.095 615.144,70.941 614.537,70.941 C614.04,70.941 613.564,71.014 613.109,71.159 C612.654,71.304 612.216,71.476 611.795,71.673 L611.13,70.21 C611.655,69.937 612.23,69.73 612.855,69.591 C613.48,69.446 614.069,69.373 614.624,69.373 C615.856,69.373 616.784,69.64 617.409,70.175 C618.04,70.709 618.355,71.548 618.355,72.692 L618.355,79.182 L616.884,79.182 Z M613.818,77.789 C614.566,77.789 615.164,77.582 615.614,77.17 C616.069,76.752 616.297,76.168 616.297,75.419 L616.297,74.583 L615.053,74.635 C614.084,74.67 613.378,74.832 612.934,75.123 C612.496,75.407 612.277,75.846 612.277,76.438 C612.277,76.868 612.405,77.202 612.662,77.44 C612.919,77.672 613.305,77.789 613.818,77.789 Z" id="Shape" fill="#333333"></path>
            <path d="M629.749,79.182 L627.683,79.182 L627.683,73.259 C627.683,72.515 627.531,71.961 627.227,71.595 C626.929,71.229 626.453,71.046 625.8,71.046 C624.93,71.046 624.293,71.301 623.89,71.813 C623.487,72.324 623.286,73.18 623.286,74.382 L623.286,79.182 L621.228,79.182 L621.228,69.548 L622.839,69.548 L623.128,70.811 L623.233,70.811 C623.525,70.352 623.94,69.998 624.477,69.748 C625.014,69.498 625.61,69.373 626.264,69.373 C628.588,69.373 629.749,70.549 629.749,72.901 L629.749,79.182 Z" id="Path" fill="#333333"></path>
            <path d="M647.529,66.446 L647.529,74.687 C647.529,75.628 647.324,76.453 646.916,77.161 C646.513,77.864 645.926,78.407 645.155,78.79 C644.39,79.168 643.474,79.357 642.405,79.357 C640.817,79.357 639.582,78.938 638.7,78.102 C637.819,77.266 637.378,76.116 637.378,74.652 L637.378,66.446 L639.48,66.446 L639.48,74.504 C639.48,75.556 639.725,76.331 640.215,76.83 C640.706,77.33 641.459,77.58 642.475,77.58 C644.449,77.58 645.435,76.549 645.435,74.487 L645.435,66.446 L647.529,66.446 Z" id="Path" fill="#333333"></path>
            <path d="M659.107,79.182 L657.04,79.182 L657.04,73.259 C657.04,72.515 656.888,71.961 656.585,71.595 C656.287,71.229 655.811,71.046 655.157,71.046 C654.287,71.046 653.651,71.301 653.248,71.813 C652.845,72.324 652.643,73.18 652.643,74.382 L652.643,79.182 L650.585,79.182 L650.585,69.548 L652.197,69.548 L652.486,70.811 L652.591,70.811 C652.883,70.352 653.297,69.998 653.834,69.748 C654.372,69.498 654.967,69.373 655.621,69.373 C657.945,69.373 659.107,70.549 659.107,72.901 L659.107,79.182 Z" id="Path" fill="#333333"></path>
            <path d="M664.029,79.182 L661.971,79.182 L661.971,69.548 L664.029,69.548 L664.029,79.182 Z M661.848,66.995 C661.848,66.629 661.947,66.348 662.146,66.15 C662.35,65.953 662.639,65.854 663.013,65.854 C663.375,65.854 663.655,65.953 663.854,66.15 C664.058,66.348 664.16,66.629 664.16,66.995 C664.16,67.344 664.058,67.619 663.854,67.823 C663.655,68.02 663.375,68.119 663.013,68.119 C662.639,68.119 662.35,68.02 662.146,67.823 C661.947,67.619 661.848,67.344 661.848,66.995 Z" id="Shape" fill="#333333"></path>
            <path d="M675.572,74.348 C675.572,75.921 675.166,77.15 674.355,78.033 C673.543,78.915 672.413,79.357 670.965,79.357 C670.06,79.357 669.261,79.153 668.566,78.747 C667.871,78.34 667.337,77.757 666.963,76.996 C666.589,76.235 666.402,75.352 666.402,74.348 C666.402,72.785 666.805,71.566 667.611,70.689 C668.417,69.812 669.552,69.373 671.018,69.373 C672.419,69.373 673.529,69.823 674.346,70.724 C675.164,71.618 675.572,72.826 675.572,74.348 Z M668.522,74.348 C668.522,76.572 669.348,77.684 671,77.684 C672.635,77.684 673.453,76.572 673.453,74.348 C673.453,72.146 672.63,71.046 670.983,71.046 C670.119,71.046 669.491,71.33 669.1,71.9 C668.715,72.469 668.522,73.285 668.522,74.348 Z" id="Shape" fill="#333333"></path>
            <path d="M686.467,79.182 L684.4,79.182 L684.4,73.259 C684.4,72.515 684.249,71.961 683.945,71.595 C683.647,71.229 683.171,71.046 682.517,71.046 C681.647,71.046 681.011,71.301 680.608,71.813 C680.205,72.324 680.004,73.18 680.004,74.382 L680.004,79.182 L677.946,79.182 L677.946,69.548 L679.557,69.548 L679.846,70.811 L679.951,70.811 C680.243,70.352 680.658,69.998 681.195,69.748 C681.732,69.498 682.328,69.373 682.982,69.373 C685.306,69.373 686.467,70.549 686.467,72.901 L686.467,79.182 Z" id="Path" fill="#333333"></path>
            <path d="M690.978,66.446 L691.109,66.638 C690.8,67.852 690.286,69.243 689.568,70.811 L688.079,70.811 C688.482,69.132 688.774,67.677 688.955,66.446 L690.978,66.446 Z" id="Path" fill="#333333"></path>
            <path d="M699.307,76.438 C699.307,77.379 698.962,78.102 698.273,78.607 C697.584,79.107 696.598,79.357 695.313,79.357 C694.023,79.357 692.986,79.162 692.204,78.773 L692.204,77.005 C693.343,77.527 694.402,77.789 695.383,77.789 C696.65,77.789 697.284,77.408 697.284,76.647 C697.284,76.403 697.214,76.2 697.074,76.038 C696.933,75.875 696.703,75.707 696.382,75.532 C696.061,75.358 695.614,75.161 695.042,74.94 C693.926,74.51 693.17,74.08 692.773,73.651 C692.382,73.221 692.186,72.663 692.186,71.978 C692.186,71.153 692.519,70.514 693.185,70.062 C693.856,69.603 694.767,69.373 695.917,69.373 C697.056,69.373 698.133,69.603 699.149,70.062 L698.484,71.603 C697.438,71.174 696.56,70.959 695.847,70.959 C694.761,70.959 694.218,71.267 694.218,71.882 C694.218,72.184 694.359,72.44 694.639,72.649 C694.925,72.858 695.544,73.145 696.496,73.511 C697.295,73.819 697.876,74.101 698.238,74.356 C698.6,74.612 698.869,74.908 699.044,75.245 C699.219,75.576 699.307,75.974 699.307,76.438 Z" id="Path" fill="#333333"></path>
            <polygon id="Path" fill="#333333" points="716.517 79.182 714.415 79.182 714.415 73.442 708.512 73.442 708.512 79.182 706.419 79.182 706.419 66.446 708.512 66.446 708.512 71.656 714.415 71.656 714.415 66.446 716.517 66.446"></polygon>
            <path d="M728.261,74.348 C728.261,75.921 727.856,77.15 727.044,78.033 C726.232,78.915 725.103,79.357 723.655,79.357 C722.75,79.357 721.95,79.153 721.255,78.747 C720.56,78.34 720.026,77.757 719.652,76.996 C719.278,76.235 719.092,75.352 719.092,74.348 C719.092,72.785 719.494,71.566 720.3,70.689 C721.106,69.812 722.242,69.373 723.707,69.373 C725.108,69.373 726.218,69.823 727.035,70.724 C727.853,71.618 728.261,72.826 728.261,74.348 Z M721.211,74.348 C721.211,76.572 722.037,77.684 723.69,77.684 C725.325,77.684 726.142,76.572 726.142,74.348 C726.142,72.146 725.319,71.046 723.672,71.046 C722.808,71.046 722.18,71.33 721.789,71.9 C721.404,72.469 721.211,73.285 721.211,74.348 Z" id="Shape" fill="#333333"></path>
            <path d="M735.548,69.373 C735.963,69.373 736.304,69.402 736.573,69.46 L736.371,71.368 C736.08,71.299 735.776,71.264 735.461,71.264 C734.637,71.264 733.969,71.531 733.455,72.065 C732.947,72.599 732.693,73.293 732.693,74.147 L732.693,79.182 L730.635,79.182 L730.635,69.548 L732.246,69.548 L732.518,71.246 L732.623,71.246 C732.944,70.671 733.362,70.215 733.875,69.879 C734.395,69.542 734.953,69.373 735.548,69.373 Z" id="Path" fill="#333333"></path>
            <path d="M740.435,79.182 L738.377,79.182 L738.377,69.548 L740.435,69.548 L740.435,79.182 Z M738.254,66.995 C738.254,66.629 738.354,66.348 738.552,66.15 C738.757,65.953 739.046,65.854 739.419,65.854 C739.781,65.854 740.062,65.953 740.26,66.15 C740.464,66.348 740.567,66.629 740.567,66.995 C740.567,67.344 740.464,67.619 740.26,67.823 C740.062,68.02 739.781,68.119 739.419,68.119 C739.046,68.119 738.757,68.02 738.552,67.823 C738.354,67.619 738.254,67.344 738.254,66.995 Z" id="Shape" fill="#333333"></path>
            <polygon id="Path" fill="#333333" points="749.859 79.182 742.511 79.182 742.511 77.919 747.407 71.116 742.809 71.116 742.809 69.548 749.719 69.548 749.719 70.976 744.928 77.614 749.859 77.614"></polygon>
            <path d="M760.562,74.348 C760.562,75.921 760.156,77.15 759.344,78.033 C758.533,78.915 757.403,79.357 755.955,79.357 C755.05,79.357 754.25,79.153 753.555,78.747 C752.86,78.34 752.326,77.757 751.952,76.996 C751.579,76.235 751.392,75.352 751.392,74.348 C751.392,72.785 751.795,71.566 752.6,70.689 C753.406,69.812 754.542,69.373 756.007,69.373 C757.409,69.373 758.518,69.823 759.335,70.724 C760.153,71.618 760.562,72.826 760.562,74.348 Z M753.511,74.348 C753.511,76.572 754.337,77.684 755.99,77.684 C757.625,77.684 758.442,76.572 758.442,74.348 C758.442,72.146 757.619,71.046 755.972,71.046 C755.108,71.046 754.48,71.33 754.089,71.9 C753.704,72.469 753.511,73.285 753.511,74.348 Z" id="Shape" fill="#333333"></path>
            <path d="M771.457,79.182 L769.39,79.182 L769.39,73.259 C769.39,72.515 769.238,71.961 768.934,71.595 C768.637,71.229 768.161,71.046 767.507,71.046 C766.637,71.046 766,71.301 765.598,71.813 C765.195,72.324 764.993,73.18 764.993,74.382 L764.993,79.182 L762.935,79.182 L762.935,69.548 L764.547,69.548 L764.836,70.811 L764.941,70.811 C765.233,70.352 765.647,69.998 766.184,69.748 C766.721,69.498 767.317,69.373 767.971,69.373 C770.295,69.373 771.457,70.549 771.457,72.901 L771.457,79.182 Z" id="Path" fill="#333333"></path>
            <path d="M429.362,103.714 L420.683,103.714 L420.683,102.163 L423.985,98.862 C424.96,97.869 425.605,97.166 425.921,96.753 C426.242,96.335 426.475,95.943 426.621,95.577 C426.767,95.212 426.84,94.82 426.84,94.401 C426.84,93.826 426.665,93.373 426.315,93.042 C425.97,92.711 425.491,92.546 424.878,92.546 C424.388,92.546 423.912,92.636 423.451,92.816 C422.995,92.996 422.467,93.321 421.865,93.792 L420.753,92.441 C421.466,91.843 422.157,91.419 422.829,91.169 C423.5,90.92 424.216,90.795 424.975,90.795 C426.166,90.795 427.12,91.106 427.839,91.727 C428.557,92.343 428.916,93.173 428.916,94.218 C428.916,94.793 428.811,95.339 428.601,95.856 C428.396,96.373 428.078,96.907 427.646,97.459 C427.22,98.005 426.507,98.746 425.509,99.681 L423.284,101.824 L423.284,101.911 L429.362,101.911 L429.362,103.714 Z" id="Path" fill="#333333"></path>
            <path d="M439.61,97.346 C439.61,99.559 439.25,101.202 438.532,102.277 C437.82,103.351 436.728,103.888 435.257,103.888 C433.832,103.888 432.752,103.334 432.016,102.224 C431.281,101.115 430.913,99.489 430.913,97.346 C430.913,95.098 431.269,93.443 431.981,92.38 C432.699,91.312 433.791,90.777 435.257,90.777 C436.687,90.777 437.77,91.335 438.506,92.45 C439.242,93.565 439.61,95.197 439.61,97.346 Z M432.997,97.346 C432.997,99.082 433.175,100.322 433.531,101.066 C433.893,101.809 434.469,102.181 435.257,102.181 C436.045,102.181 436.62,101.803 436.982,101.048 C437.35,100.293 437.534,99.059 437.534,97.346 C437.534,95.638 437.35,94.404 436.982,93.643 C436.62,92.877 436.045,92.494 435.257,92.494 C434.469,92.494 433.893,92.868 433.531,93.617 C433.175,94.367 432.997,95.609 432.997,97.346 Z" id="Shape" fill="#333333"></path>
            <path d="M449.857,103.714 L441.177,103.714 L441.177,102.163 L444.479,98.862 C445.454,97.869 446.099,97.166 446.415,96.753 C446.736,96.335 446.969,95.943 447.115,95.577 C447.261,95.212 447.334,94.82 447.334,94.401 C447.334,93.826 447.159,93.373 446.809,93.042 C446.464,92.711 445.986,92.546 445.372,92.546 C444.882,92.546 444.406,92.636 443.945,92.816 C443.489,92.996 442.961,93.321 442.36,93.792 L441.247,92.441 C441.96,91.843 442.652,91.419 443.323,91.169 C443.994,90.92 444.71,90.795 445.469,90.795 C446.66,90.795 447.615,91.106 448.333,91.727 C449.051,92.343 449.41,93.173 449.41,94.218 C449.41,94.793 449.305,95.339 449.095,95.856 C448.89,96.373 448.572,96.907 448.14,97.459 C447.714,98.005 447.001,98.746 446.003,99.681 L443.778,101.824 L443.778,101.911 L449.857,101.911 L449.857,103.714 Z" id="Path" fill="#333333"></path>
            <path d="M460.104,97.346 C460.104,99.559 459.745,101.202 459.026,102.277 C458.314,103.351 457.222,103.888 455.751,103.888 C454.326,103.888 453.246,103.334 452.51,102.224 C451.775,101.115 451.407,99.489 451.407,97.346 C451.407,95.098 451.763,93.443 452.475,92.38 C453.193,91.312 454.285,90.777 455.751,90.777 C457.181,90.777 458.264,91.335 459,92.45 C459.736,93.565 460.104,95.197 460.104,97.346 Z M453.491,97.346 C453.491,99.082 453.669,100.322 454.026,101.066 C454.388,101.809 454.963,102.181 455.751,102.181 C456.539,102.181 457.114,101.803 457.476,101.048 C457.844,100.293 458.028,99.059 458.028,97.346 C458.028,95.638 457.844,94.404 457.476,93.643 C457.114,92.877 456.539,92.494 455.751,92.494 C454.963,92.494 454.388,92.868 454.026,93.617 C453.669,94.367 453.491,95.609 453.491,97.346 Z" id="Shape" fill="#333333"></path>
            <path d="M471.927,93.905 C472.342,93.905 472.683,93.934 472.952,93.992 L472.75,95.9 C472.459,95.83 472.155,95.795 471.84,95.795 C471.016,95.795 470.348,96.062 469.834,96.597 C469.326,97.131 469.072,97.825 469.072,98.679 L469.072,103.714 L467.014,103.714 L467.014,94.079 L468.625,94.079 L468.897,95.778 L469.002,95.778 C469.323,95.203 469.741,94.747 470.254,94.41 C470.774,94.073 471.332,93.905 471.927,93.905 Z" id="Path" fill="#333333"></path>
            <path d="M478.986,103.888 C477.48,103.888 476.3,103.453 475.448,102.581 C474.601,101.705 474.178,100.499 474.178,98.966 C474.178,97.392 474.572,96.155 475.36,95.255 C476.149,94.355 477.232,93.905 478.61,93.905 C479.888,93.905 480.898,94.291 481.64,95.063 C482.382,95.836 482.752,96.899 482.752,98.252 L482.752,99.358 L476.298,99.358 C476.327,100.293 476.581,101.013 477.059,101.519 C477.538,102.018 478.213,102.268 479.083,102.268 C479.655,102.268 480.186,102.216 480.677,102.111 C481.173,102.001 481.704,101.821 482.271,101.571 L482.271,103.235 C481.768,103.473 481.261,103.641 480.747,103.74 C480.233,103.839 479.646,103.888 478.986,103.888 Z M478.61,95.455 C477.956,95.455 477.43,95.662 477.033,96.074 C476.642,96.486 476.408,97.087 476.333,97.877 L480.729,97.877 C480.717,97.082 480.525,96.481 480.151,96.074 C479.777,95.662 479.264,95.455 478.61,95.455 Z" id="Shape" fill="#333333"></path>
            <path d="M491.598,100.97 C491.598,101.911 491.254,102.634 490.565,103.139 C489.876,103.638 488.889,103.888 487.604,103.888 C486.314,103.888 485.278,103.694 484.495,103.305 L484.495,101.536 C485.634,102.059 486.693,102.32 487.674,102.32 C488.941,102.32 489.575,101.94 489.575,101.179 C489.575,100.935 489.505,100.732 489.365,100.569 C489.225,100.406 488.994,100.238 488.673,100.064 C488.352,99.89 487.905,99.692 487.333,99.471 C486.218,99.042 485.462,98.612 485.064,98.182 C484.673,97.752 484.478,97.195 484.478,96.51 C484.478,95.685 484.81,95.046 485.476,94.593 C486.148,94.134 487.058,93.905 488.209,93.905 C489.347,93.905 490.424,94.134 491.44,94.593 L490.775,96.135 C489.73,95.705 488.851,95.49 488.139,95.49 C487.053,95.49 486.51,95.798 486.51,96.414 C486.51,96.716 486.65,96.971 486.93,97.18 C487.216,97.389 487.835,97.677 488.787,98.043 C489.587,98.351 490.168,98.632 490.53,98.888 C490.892,99.143 491.16,99.44 491.335,99.776 C491.51,100.107 491.598,100.505 491.598,100.97 Z" id="Path" fill="#333333"></path>
            <path d="M498.062,103.888 C496.555,103.888 495.376,103.453 494.523,102.581 C493.677,101.705 493.253,100.499 493.253,98.966 C493.253,97.392 493.647,96.155 494.436,95.255 C495.224,94.355 496.307,93.905 497.685,93.905 C498.964,93.905 499.974,94.291 500.715,95.063 C501.457,95.836 501.828,96.899 501.828,98.252 L501.828,99.358 L495.373,99.358 C495.402,100.293 495.656,101.013 496.135,101.519 C496.614,102.018 497.288,102.268 498.158,102.268 C498.73,102.268 499.261,102.216 499.752,102.111 C500.248,102.001 500.78,101.821 501.346,101.571 L501.346,103.235 C500.844,103.473 500.336,103.641 499.822,103.74 C499.308,103.839 498.721,103.888 498.062,103.888 Z M497.685,95.455 C497.031,95.455 496.506,95.662 496.109,96.074 C495.717,96.486 495.484,97.087 495.408,97.877 L499.804,97.877 C499.793,97.082 499.6,96.481 499.226,96.074 C498.853,95.662 498.339,95.455 497.685,95.455 Z" id="Shape" fill="#333333"></path>
            <path d="M510.227,103.714 L509.815,102.372 L509.745,102.372 C509.278,102.959 508.808,103.36 508.335,103.575 C507.862,103.784 507.255,103.888 506.513,103.888 C505.562,103.888 504.817,103.633 504.28,103.122 C503.749,102.61 503.483,101.887 503.483,100.952 C503.483,99.959 503.854,99.21 504.595,98.705 C505.337,98.2 506.467,97.924 507.985,97.877 L509.657,97.825 L509.657,97.311 C509.657,96.695 509.511,96.237 509.22,95.935 C508.933,95.627 508.487,95.473 507.88,95.473 C507.383,95.473 506.907,95.545 506.452,95.691 C505.996,95.836 505.559,96.007 505.138,96.205 L504.473,94.741 C504.998,94.468 505.573,94.262 506.198,94.123 C506.823,93.977 507.412,93.905 507.967,93.905 C509.199,93.905 510.127,94.172 510.752,94.706 C511.383,95.241 511.698,96.08 511.698,97.224 L511.698,103.714 L510.227,103.714 Z M507.161,102.32 C507.909,102.32 508.507,102.114 508.957,101.702 C509.412,101.283 509.64,100.7 509.64,99.951 L509.64,99.114 L508.396,99.167 C507.427,99.201 506.721,99.364 506.277,99.654 C505.839,99.939 505.62,100.377 505.62,100.97 C505.62,101.4 505.748,101.734 506.005,101.972 C506.262,102.204 506.648,102.32 507.161,102.32 Z" id="Shape" fill="#333333"></path>
            <path d="M519.484,93.905 C519.899,93.905 520.24,93.934 520.509,93.992 L520.307,95.9 C520.015,95.83 519.712,95.795 519.397,95.795 C518.573,95.795 517.905,96.062 517.391,96.597 C516.883,97.131 516.629,97.825 516.629,98.679 L516.629,103.714 L514.571,103.714 L514.571,94.079 L516.182,94.079 L516.454,95.778 L516.559,95.778 C516.88,95.203 517.297,94.747 517.811,94.41 C518.331,94.073 518.889,93.905 519.484,93.905 Z" id="Path" fill="#333333"></path>
            <path d="M526.219,103.888 C524.754,103.888 523.638,103.464 522.874,102.616 C522.114,101.763 521.735,100.54 521.735,98.949 C521.735,97.328 522.132,96.083 522.926,95.212 C523.726,94.34 524.879,93.905 526.386,93.905 C527.407,93.905 528.327,94.094 529.144,94.471 L528.523,96.118 C527.653,95.781 526.934,95.612 526.368,95.612 C524.692,95.612 523.854,96.719 523.854,98.931 C523.854,100.012 524.062,100.825 524.476,101.371 C524.897,101.911 525.51,102.181 526.315,102.181 C527.232,102.181 528.099,101.954 528.917,101.501 L528.917,103.287 C528.549,103.502 528.155,103.656 527.734,103.749 C527.32,103.842 526.815,103.888 526.219,103.888 Z" id="Path" fill="#333333"></path>
            <path d="M539.715,103.714 L537.649,103.714 L537.649,97.79 C537.649,97.047 537.497,96.492 537.193,96.126 C536.895,95.76 536.419,95.577 535.766,95.577 C534.901,95.577 534.265,95.836 533.856,96.353 C533.453,96.864 533.252,97.723 533.252,98.931 L533.252,103.714 L531.194,103.714 L531.194,90.159 L533.252,90.159 L533.252,93.6 C533.252,94.152 533.217,94.741 533.147,95.368 L533.278,95.368 C533.558,94.904 533.947,94.544 534.443,94.288 C534.945,94.033 535.529,93.905 536.195,93.905 C538.542,93.905 539.715,95.081 539.715,97.433 L539.715,103.714 Z" id="Path" fill="#333333"></path>
            <path d="M553.299,103.714 L552.888,102.372 L552.818,102.372 C552.351,102.959 551.881,103.36 551.408,103.575 C550.935,103.784 550.327,103.888 549.586,103.888 C548.634,103.888 547.89,103.633 547.353,103.122 C546.821,102.61 546.556,101.887 546.556,100.952 C546.556,99.959 546.926,99.21 547.668,98.705 C548.409,98.2 549.539,97.924 551.057,97.877 L552.73,97.825 L552.73,97.311 C552.73,96.695 552.584,96.237 552.292,95.935 C552.006,95.627 551.559,95.473 550.952,95.473 C550.456,95.473 549.98,95.545 549.525,95.691 C549.069,95.836 548.631,96.007 548.211,96.205 L547.545,94.741 C548.071,94.468 548.646,94.262 549.271,94.123 C549.895,93.977 550.485,93.905 551.04,93.905 C552.272,93.905 553.2,94.172 553.825,94.706 C554.455,95.241 554.771,96.08 554.771,97.224 L554.771,103.714 L553.299,103.714 Z M550.234,102.32 C550.981,102.32 551.58,102.114 552.029,101.702 C552.485,101.283 552.713,100.7 552.713,99.951 L552.713,99.114 L551.469,99.167 C550.5,99.201 549.793,99.364 549.349,99.654 C548.912,99.939 548.693,100.377 548.693,100.97 C548.693,101.4 548.821,101.734 549.078,101.972 C549.335,102.204 549.72,102.32 550.234,102.32 Z" id="Shape" fill="#333333"></path>
            <path d="M566.165,103.714 L564.098,103.714 L564.098,97.79 C564.098,97.047 563.946,96.492 563.643,96.126 C563.345,95.76 562.869,95.577 562.215,95.577 C561.345,95.577 560.709,95.833 560.306,96.344 C559.903,96.855 559.702,97.712 559.702,98.914 L559.702,103.714 L557.643,103.714 L557.643,94.079 L559.255,94.079 L559.544,95.342 L559.649,95.342 C559.941,94.883 560.356,94.529 560.893,94.279 C561.43,94.03 562.025,93.905 562.679,93.905 C565.003,93.905 566.165,95.081 566.165,97.433 L566.165,103.714 Z" id="Path" fill="#333333"></path>
            <path d="M572.296,103.888 C571.087,103.888 570.144,103.453 569.467,102.581 C568.79,101.71 568.451,100.488 568.451,98.914 C568.451,97.334 568.793,96.106 569.476,95.229 C570.165,94.346 571.116,93.905 572.331,93.905 C573.604,93.905 574.573,94.372 575.239,95.307 L575.344,95.307 C575.244,94.616 575.195,94.07 575.195,93.67 L575.195,90.159 L577.262,90.159 L577.262,103.714 L575.65,103.714 L575.291,102.451 L575.195,102.451 C574.535,103.409 573.569,103.888 572.296,103.888 Z M572.848,102.233 C573.694,102.233 574.31,101.998 574.696,101.527 C575.081,101.051 575.279,100.282 575.291,99.219 L575.291,98.931 C575.291,97.718 575.093,96.855 574.696,96.344 C574.299,95.833 573.677,95.577 572.83,95.577 C572.106,95.577 571.549,95.871 571.157,96.457 C570.766,97.038 570.571,97.869 570.571,98.949 C570.571,100.017 570.76,100.833 571.14,101.397 C571.519,101.954 572.089,102.233 572.848,102.233 Z" id="Shape" fill="#333333"></path>
            <path d="M586.922,103.714 L584.864,103.714 L584.864,94.079 L586.922,94.079 L586.922,103.714 Z M584.741,91.527 C584.741,91.161 584.84,90.879 585.039,90.682 C585.243,90.484 585.532,90.385 585.906,90.385 C586.268,90.385 586.548,90.484 586.747,90.682 C586.951,90.879 587.053,91.161 587.053,91.527 C587.053,91.875 586.951,92.151 586.747,92.354 C586.548,92.552 586.268,92.65 585.906,92.65 C585.532,92.65 585.243,92.552 585.039,92.354 C584.84,92.151 584.741,91.875 584.741,91.527 Z" id="Shape" fill="#333333"></path>
            <path d="M598.395,103.714 L596.328,103.714 L596.328,97.79 C596.328,97.047 596.176,96.492 595.873,96.126 C595.575,95.76 595.099,95.577 594.445,95.577 C593.575,95.577 592.939,95.833 592.536,96.344 C592.133,96.855 591.932,97.712 591.932,98.914 L591.932,103.714 L589.874,103.714 L589.874,94.079 L591.485,94.079 L591.774,95.342 L591.879,95.342 C592.171,94.883 592.586,94.529 593.123,94.279 C593.66,94.03 594.256,93.905 594.909,93.905 C597.233,93.905 598.395,95.081 598.395,97.433 L598.395,103.714 Z" id="Path" fill="#333333"></path>
            <path d="M609.781,103.714 L607.714,103.714 L607.714,97.79 C607.714,97.047 607.562,96.492 607.258,96.126 C606.961,95.76 606.485,95.577 605.831,95.577 C604.961,95.577 604.325,95.833 603.922,96.344 C603.519,96.855 603.317,97.712 603.317,98.914 L603.317,103.714 L601.259,103.714 L601.259,94.079 L602.871,94.079 L603.16,95.342 L603.265,95.342 C603.557,94.883 603.971,94.529 604.508,94.279 C605.046,94.03 605.641,93.905 606.295,93.905 C608.619,93.905 609.781,95.081 609.781,97.433 L609.781,103.714 Z" id="Path" fill="#333333"></path>
            <path d="M621.237,98.879 C621.237,100.453 620.831,101.681 620.019,102.564 C619.208,103.447 618.078,103.888 616.63,103.888 C615.725,103.888 614.925,103.685 614.23,103.278 C613.535,102.872 613.001,102.288 612.627,101.527 C612.254,100.767 612.067,99.884 612.067,98.879 C612.067,97.317 612.47,96.097 613.275,95.22 C614.081,94.343 615.217,93.905 616.682,93.905 C618.084,93.905 619.193,94.355 620.01,95.255 C620.828,96.149 621.237,97.357 621.237,98.879 Z M614.186,98.879 C614.186,101.103 615.012,102.216 616.665,102.216 C618.3,102.216 619.117,101.103 619.117,98.879 C619.117,96.678 618.294,95.577 616.647,95.577 C615.783,95.577 615.155,95.862 614.764,96.431 C614.379,97 614.186,97.816 614.186,98.879 Z" id="Shape" fill="#333333"></path>
            <path d="M625.817,103.714 L622.139,94.079 L624.311,94.079 L626.281,99.681 C626.62,100.621 626.824,101.382 626.894,101.963 L626.964,101.963 C627.017,101.545 627.221,100.784 627.577,99.681 L629.548,94.079 L631.738,94.079 L628.042,103.714 L625.817,103.714 Z" id="Path" fill="#333333"></path>
            <path d="M639.27,103.714 L638.858,102.372 L638.788,102.372 C638.321,102.959 637.851,103.36 637.378,103.575 C636.905,103.784 636.298,103.888 635.556,103.888 C634.604,103.888 633.86,103.633 633.323,103.122 C632.791,102.61 632.526,101.887 632.526,100.952 C632.526,99.959 632.897,99.21 633.638,98.705 C634.38,98.2 635.509,97.924 637.028,97.877 L638.7,97.825 L638.7,97.311 C638.7,96.695 638.554,96.237 638.262,95.935 C637.976,95.627 637.53,95.473 636.922,95.473 C636.426,95.473 635.95,95.545 635.495,95.691 C635.039,95.836 634.602,96.007 634.181,96.205 L633.516,94.741 C634.041,94.468 634.616,94.262 635.241,94.123 C635.866,93.977 636.455,93.905 637.01,93.905 C638.242,93.905 639.17,94.172 639.795,94.706 C640.426,95.241 640.741,96.08 640.741,97.224 L640.741,103.714 L639.27,103.714 Z M636.204,102.32 C636.952,102.32 637.55,102.114 638,101.702 C638.455,101.283 638.683,100.7 638.683,99.951 L638.683,99.114 L637.439,99.167 C636.47,99.201 635.763,99.364 635.32,99.654 C634.882,99.939 634.663,100.377 634.663,100.97 C634.663,101.4 634.791,101.734 635.048,101.972 C635.305,102.204 635.69,102.32 636.204,102.32 Z" id="Shape" fill="#333333"></path>
            <path d="M647.222,102.233 C647.724,102.233 648.226,102.155 648.728,101.998 L648.728,103.54 C648.501,103.638 648.206,103.72 647.844,103.784 C647.488,103.853 647.117,103.888 646.732,103.888 C644.781,103.888 643.806,102.866 643.806,100.822 L643.806,95.63 L642.484,95.63 L642.484,94.724 L643.903,93.975 L644.603,91.936 L645.873,91.936 L645.873,94.079 L648.632,94.079 L648.632,95.63 L645.873,95.63 L645.873,100.787 C645.873,101.281 645.996,101.646 646.241,101.885 C646.492,102.117 646.819,102.233 647.222,102.233 Z" id="Path" fill="#333333"></path>
            <path d="M652.731,103.714 L650.673,103.714 L650.673,94.079 L652.731,94.079 L652.731,103.714 Z M650.55,91.527 C650.55,91.161 650.649,90.879 650.848,90.682 C651.052,90.484 651.341,90.385 651.715,90.385 C652.077,90.385 652.357,90.484 652.556,90.682 C652.76,90.879 652.862,91.161 652.862,91.527 C652.862,91.875 652.76,92.151 652.556,92.354 C652.357,92.552 652.077,92.65 651.715,92.65 C651.341,92.65 651.052,92.552 650.848,92.354 C650.649,92.151 650.55,91.875 650.55,91.527 Z" id="Shape" fill="#333333"></path>
            <path d="M664.274,98.879 C664.274,100.453 663.868,101.681 663.057,102.564 C662.245,103.447 661.115,103.888 659.667,103.888 C658.762,103.888 657.962,103.685 657.268,103.278 C656.573,102.872 656.039,102.288 655.665,101.527 C655.291,100.767 655.104,99.884 655.104,98.879 C655.104,97.317 655.507,96.097 656.313,95.22 C657.119,94.343 658.254,93.905 659.72,93.905 C661.121,93.905 662.231,94.355 663.048,95.255 C663.865,96.149 664.274,97.357 664.274,98.879 Z M657.224,98.879 C657.224,101.103 658.05,102.216 659.702,102.216 C661.337,102.216 662.155,101.103 662.155,98.879 C662.155,96.678 661.331,95.577 659.685,95.577 C658.821,95.577 658.193,95.862 657.802,96.431 C657.417,97 657.224,97.816 657.224,98.879 Z" id="Shape" fill="#333333"></path>
            <path d="M675.169,103.714 L673.102,103.714 L673.102,97.79 C673.102,97.047 672.951,96.492 672.647,96.126 C672.349,95.76 671.873,95.577 671.219,95.577 C670.349,95.577 669.713,95.833 669.31,96.344 C668.907,96.855 668.706,97.712 668.706,98.914 L668.706,103.714 L666.648,103.714 L666.648,94.079 L668.259,94.079 L668.548,95.342 L668.653,95.342 C668.945,94.883 669.36,94.529 669.897,94.279 C670.434,94.03 671.03,93.905 671.684,93.905 C674.007,93.905 675.169,95.081 675.169,97.433 L675.169,103.714 Z" id="Path" fill="#333333"></path>
            <path d="M687.606,103.888 C686.38,103.888 685.428,103.45 684.751,102.573 L684.628,102.573 C684.71,103.386 684.751,103.879 684.751,104.054 L684.751,108 L682.693,108 L682.693,94.079 L684.357,94.079 C684.403,94.259 684.5,94.689 684.646,95.368 L684.751,95.368 C685.393,94.393 686.356,93.905 687.641,93.905 C688.85,93.905 689.79,94.34 690.461,95.212 C691.138,96.083 691.477,97.305 691.477,98.879 C691.477,100.453 691.133,101.681 690.444,102.564 C689.76,103.447 688.815,103.888 687.606,103.888 Z M687.107,95.577 C686.289,95.577 685.691,95.816 685.311,96.292 C684.938,96.768 684.751,97.529 684.751,98.574 L684.751,98.879 C684.751,100.052 684.938,100.903 685.311,101.432 C685.685,101.954 686.295,102.216 687.142,102.216 C687.854,102.216 688.403,101.925 688.788,101.344 C689.174,100.764 689.366,99.936 689.366,98.862 C689.366,97.781 689.174,96.965 688.788,96.414 C688.409,95.856 687.848,95.577 687.107,95.577 Z" id="Shape" fill="#333333"></path>
            <path d="M698.781,93.905 C699.196,93.905 699.538,93.934 699.806,93.992 L699.605,95.9 C699.313,95.83 699.009,95.795 698.694,95.795 C697.871,95.795 697.202,96.062 696.688,96.597 C696.18,97.131 695.926,97.825 695.926,98.679 L695.926,103.714 L693.868,103.714 L693.868,94.079 L695.48,94.079 L695.751,95.778 L695.856,95.778 C696.177,95.203 696.595,94.747 697.109,94.41 C697.628,94.073 698.186,93.905 698.781,93.905 Z" id="Path" fill="#333333"></path>
            <path d="M710.202,98.879 C710.202,100.453 709.796,101.681 708.985,102.564 C708.173,103.447 707.043,103.888 705.595,103.888 C704.69,103.888 703.89,103.685 703.196,103.278 C702.501,102.872 701.966,102.288 701.593,101.527 C701.219,100.767 701.032,99.884 701.032,98.879 C701.032,97.317 701.435,96.097 702.241,95.22 C703.047,94.343 704.182,93.905 705.648,93.905 C707.049,93.905 708.158,94.355 708.976,95.255 C709.793,96.149 710.202,97.357 710.202,98.879 Z M703.152,98.879 C703.152,101.103 703.978,102.216 705.63,102.216 C707.265,102.216 708.083,101.103 708.083,98.879 C708.083,96.678 707.259,95.577 705.613,95.577 C704.749,95.577 704.121,95.862 703.73,96.431 C703.344,97 703.152,97.816 703.152,98.879 Z" id="Shape" fill="#333333"></path>
            <path d="M720.756,94.079 L720.756,95.203 L719.1,95.508 C719.252,95.711 719.378,95.961 719.477,96.257 C719.576,96.553 719.626,96.867 719.626,97.198 C719.626,98.191 719.281,98.972 718.592,99.541 C717.903,100.11 716.955,100.395 715.746,100.395 C715.437,100.395 715.156,100.372 714.905,100.325 C714.461,100.598 714.24,100.918 714.24,101.283 C714.24,101.504 714.342,101.67 714.546,101.78 C714.756,101.89 715.139,101.946 715.693,101.946 L717.384,101.946 C718.452,101.946 719.264,102.172 719.819,102.625 C720.373,103.078 720.651,103.731 720.651,104.585 C720.651,105.677 720.198,106.519 719.293,107.111 C718.388,107.704 717.08,108 715.369,108 C714.05,108 713.043,107.768 712.348,107.303 C711.653,106.838 711.306,106.176 711.306,105.317 C711.306,104.724 711.492,104.225 711.866,103.818 C712.246,103.418 712.774,103.139 713.451,102.982 C713.177,102.866 712.949,102.68 712.768,102.425 C712.593,102.163 712.505,101.89 712.505,101.606 C712.505,101.246 712.608,100.941 712.812,100.691 C713.016,100.441 713.32,100.195 713.723,99.951 C713.221,99.736 712.812,99.387 712.497,98.905 C712.187,98.417 712.033,97.848 712.033,97.198 C712.033,96.152 712.362,95.342 713.022,94.767 C713.688,94.192 714.634,93.905 715.86,93.905 C716.134,93.905 716.42,93.925 716.718,93.966 C717.022,94.001 717.249,94.038 717.401,94.079 L720.756,94.079 Z M713.145,105.212 C713.145,105.654 713.343,105.993 713.74,106.232 C714.143,106.47 714.707,106.589 715.431,106.589 C716.552,106.589 717.387,106.429 717.936,106.11 C718.484,105.79 718.759,105.366 718.759,104.838 C718.759,104.42 718.607,104.12 718.303,103.94 C718.006,103.766 717.448,103.679 716.631,103.679 L715.072,103.679 C714.482,103.679 714.012,103.816 713.662,104.089 C713.317,104.367 713.145,104.742 713.145,105.212 Z M714.029,97.198 C714.029,97.802 714.184,98.266 714.494,98.592 C714.809,98.917 715.258,99.079 715.842,99.079 C717.033,99.079 717.629,98.446 717.629,97.18 C717.629,96.553 717.48,96.071 717.182,95.734 C716.89,95.392 716.444,95.22 715.842,95.22 C715.247,95.22 714.794,95.389 714.485,95.726 C714.181,96.062 714.029,96.553 714.029,97.198 Z" id="Shape" fill="#333333"></path>
            <path d="M727.473,93.905 C727.888,93.905 728.229,93.934 728.498,93.992 L728.296,95.9 C728.005,95.83 727.701,95.795 727.386,95.795 C726.562,95.795 725.894,96.062 725.38,96.597 C724.872,97.131 724.618,97.825 724.618,98.679 L724.618,103.714 L722.56,103.714 L722.56,94.079 L724.171,94.079 L724.443,95.778 L724.548,95.778 C724.869,95.203 725.287,94.747 725.8,94.41 C726.32,94.073 726.878,93.905 727.473,93.905 Z" id="Path" fill="#333333"></path>
            <path d="M736.363,103.714 L735.951,102.372 L735.881,102.372 C735.414,102.959 734.944,103.36 734.471,103.575 C733.998,103.784 733.391,103.888 732.649,103.888 C731.698,103.888 730.953,103.633 730.416,103.122 C729.885,102.61 729.619,101.887 729.619,100.952 C729.619,99.959 729.99,99.21 730.731,98.705 C731.473,98.2 732.603,97.924 734.121,97.877 L735.793,97.825 L735.793,97.311 C735.793,96.695 735.647,96.237 735.356,95.935 C735.069,95.627 734.623,95.473 734.016,95.473 C733.519,95.473 733.043,95.545 732.588,95.691 C732.133,95.836 731.695,96.007 731.274,96.205 L730.609,94.741 C731.134,94.468 731.709,94.262 732.334,94.123 C732.959,93.977 733.548,93.905 734.103,93.905 C735.335,93.905 736.263,94.172 736.888,94.706 C737.519,95.241 737.834,96.08 737.834,97.224 L737.834,103.714 L736.363,103.714 Z M733.297,102.32 C734.045,102.32 734.643,102.114 735.093,101.702 C735.548,101.283 735.776,100.7 735.776,99.951 L735.776,99.114 L734.532,99.167 C733.563,99.201 732.857,99.364 732.413,99.654 C731.975,99.939 731.756,100.377 731.756,100.97 C731.756,101.4 731.884,101.734 732.141,101.972 C732.398,102.204 732.784,102.32 733.297,102.32 Z" id="Shape" fill="#333333"></path>
            <path d="M748.869,103.714 L746.802,103.714 L746.802,97.773 C746.802,97.035 746.662,96.486 746.382,96.126 C746.102,95.76 745.664,95.577 745.068,95.577 C744.274,95.577 743.69,95.836 743.317,96.353 C742.949,96.864 742.765,97.718 742.765,98.914 L742.765,103.714 L740.707,103.714 L740.707,94.079 L742.318,94.079 L742.607,95.342 L742.712,95.342 C742.981,94.883 743.369,94.529 743.877,94.279 C744.391,94.03 744.954,93.905 745.568,93.905 C747.056,93.905 748.043,94.41 748.528,95.421 L748.668,95.421 C748.954,94.944 749.357,94.573 749.877,94.306 C750.396,94.038 750.992,93.905 751.663,93.905 C752.819,93.905 753.66,94.195 754.186,94.776 C754.717,95.357 754.983,96.242 754.983,97.433 L754.983,103.714 L752.924,103.714 L752.924,97.773 C752.924,97.035 752.781,96.486 752.495,96.126 C752.215,95.76 751.777,95.577 751.182,95.577 C750.382,95.577 749.795,95.827 749.421,96.327 C749.053,96.82 748.869,97.581 748.869,98.609 L748.869,103.714 Z" id="Path" fill="#333333"></path>
            <path d="M766.018,103.714 L763.951,103.714 L763.951,97.773 C763.951,97.035 763.811,96.486 763.531,96.126 C763.25,95.76 762.812,95.577 762.217,95.577 C761.423,95.577 760.839,95.836 760.465,96.353 C760.097,96.864 759.913,97.718 759.913,98.914 L759.913,103.714 L757.855,103.714 L757.855,94.079 L759.467,94.079 L759.756,95.342 L759.861,95.342 C760.129,94.883 760.518,94.529 761.026,94.279 C761.54,94.03 762.103,93.905 762.716,93.905 C764.205,93.905 765.192,94.41 765.676,95.421 L765.816,95.421 C766.103,94.944 766.505,94.573 767.025,94.306 C767.545,94.038 768.14,93.905 768.812,93.905 C769.968,93.905 770.809,94.195 771.334,94.776 C771.865,95.357 772.131,96.242 772.131,97.433 L772.131,103.714 L770.073,103.714 L770.073,97.773 C770.073,97.035 769.93,96.486 769.644,96.126 C769.364,95.76 768.926,95.577 768.33,95.577 C767.53,95.577 766.943,95.827 766.57,96.327 C766.202,96.82 766.018,97.581 766.018,98.609 L766.018,103.714 Z" id="Path" fill="#333333"></path>
            <path d="M779.234,103.888 C777.728,103.888 776.548,103.453 775.696,102.581 C774.849,101.705 774.426,100.499 774.426,98.966 C774.426,97.392 774.82,96.155 775.608,95.255 C776.396,94.355 777.479,93.905 778.857,93.905 C780.136,93.905 781.146,94.291 781.888,95.063 C782.629,95.836 783,96.899 783,98.252 L783,99.358 L776.545,99.358 C776.574,100.293 776.828,101.013 777.307,101.519 C777.786,102.018 778.46,102.268 779.33,102.268 C779.903,102.268 780.434,102.216 780.924,102.111 C781.421,102.001 781.952,101.821 782.518,101.571 L782.518,103.235 C782.016,103.473 781.508,103.641 780.994,103.74 C780.481,103.839 779.894,103.888 779.234,103.888 Z M778.857,95.455 C778.203,95.455 777.678,95.662 777.281,96.074 C776.89,96.486 776.656,97.087 776.58,97.877 L780.977,97.877 C780.965,97.082 780.772,96.481 780.399,96.074 C780.025,95.662 779.511,95.455 778.857,95.455 Z" id="Shape" fill="#333333"></path>
        </g>
    </g>
</svg>
