<?xml version="1.0" encoding="UTF-8"?>
<svg width="1200px" height="790px" viewBox="0 0 1200 790" version="1.1" xmlns="http://www.w3.org/2000/svg" xmlns:xlink="http://www.w3.org/1999/xlink">
    <title>ESP website integrations1Ba</title>
    <defs>
        <linearGradient x1="50%" y1="0%" x2="50%" y2="100%" id="linearGradient-1">
            <stop stop-color="#8400DB" offset="0%"></stop>
            <stop stop-color="#4D00B4" offset="100%"></stop>
        </linearGradient>
        <linearGradient x1="0%" y1="49.9999777%" x2="100.000024%" y2="49.9999777%" id="linearGradient-2">
            <stop stop-color="#A3A2A5" offset="0%"></stop>
            <stop stop-color="#9F9EA0" offset="27.05%"></stop>
            <stop stop-color="#929194" offset="56.07%"></stop>
            <stop stop-color="#7C7C80" offset="85.92%"></stop>
            <stop stop-color="#707073" offset="100%"></stop>
        </linearGradient>
        <linearGradient x1="-0.661193461%" y1="79.9148322%" x2="70.3915924%" y2="24.2689758%" id="linearGradient-3">
            <stop stop-color="#969598" offset="0%"></stop>
            <stop stop-color="#908F92" offset="33.96%"></stop>
            <stop stop-color="#7F7F82" offset="79.17%"></stop>
            <stop stop-color="#757578" offset="100%"></stop>
        </linearGradient>
        <linearGradient x1="6.06021085%" y1="-2.83492963%" x2="50.00952%" y2="85.0511445%" id="linearGradient-4">
            <stop stop-color="#9E9EA0" offset="0%"></stop>
            <stop stop-color="#9B9B9D" offset="27.59%"></stop>
            <stop stop-color="#919194" offset="49.4%"></stop>
            <stop stop-color="#808083" offset="69.23%"></stop>
            <stop stop-color="#69696D" offset="87.77%"></stop>
            <stop stop-color="#55565A" offset="100%"></stop>
        </linearGradient>
    </defs>
    <g id="ESP-website-integrations1Ba" stroke="none" stroke-width="1" fill="none" fill-rule="evenodd">
        <path d="M312.5,646 C450.84733,646 563,533.84733 563,395.5 C563,257.15267 450.84733,145 312.5,145 C174.15267,145 62,257.15267 62,395.5 C62,533.84733 174.15267,646 312.5,646 Z M312.5,640 C177.466379,640 68,530.533621 68,395.5 C68,260.466379 177.466379,151 312.5,151 C447.533621,151 557,260.466379 557,395.5 C557,530.533621 447.533621,640 312.5,640 Z" id="Oval" fill="#9013FE" fill-rule="nonzero"></path>
        <circle id="Oval" fill="url(#linearGradient-1)" cx="312.5" cy="395.5" r="244.5"></circle>
        <g id="Group-2" transform="translate(758.000000, 261.000000)">
            <circle id="Oval" fill="#FFFFFF" cx="135" cy="135" r="135"></circle>
            <g id="kleros-symbol" transform="translate(51.000000, 60.000000)" fill-rule="nonzero">
                <polygon id="Path" fill="#45464D" opacity="0.7" points="133.381411 3.77718897 49.0824928 0 0 61.5574073 34.3923467 143.824633 119.534475 149 168 79.7930126"></polygon>
                <g id="Group">
                    <polygon id="Path" fill="#656569" points="167.847575 79.7154168 119.890532 30.9128112 107.277449 124.531491"></polygon>
                    <polygon id="Path" fill="url(#linearGradient-2)" points="32.7506551 68.7388056 119.890532 30.9128112 107.277449 124.531491"></polygon>
                    <polygon id="Path" fill="url(#linearGradient-3)" points="119.890532 30.9128112 49.0898492 0.0698111888 32.7506551 68.7388056"></polygon>
                    <polygon id="Path" fill="url(#linearGradient-4)" points="32.7506551 68.7388056 34.4194413 143.629331 107.277449 124.531491"></polygon>
                    <polygon id="Path" fill="#757578" points="119.890532 30.9128112 133.275501 3.84003217 49.0898492 0.0698111888"></polygon>
                    <polygon id="Path" fill="#6C6D70" points="133.275501 3.84003217 167.847575 79.7154168 119.890532 30.9128112"></polygon>
                    <polygon id="Path" fill="#6C6D70" points="167.847575 79.7154168 119.447169 148.794734 107.277449 124.531491"></polygon>
                    <polygon id="Path" fill="#55565A" points="119.447169 148.794734 34.4194413 143.629331 107.277449 124.531491"></polygon>
                    <polygon id="Path" fill="#55565A" points="49.0898492 0.0698111888 0.0733053152 61.5134517 32.7506551 68.7388056"></polygon>
                    <polygon id="Path" fill="#656569" points="0.0733053152 61.5134517 34.4194413 143.629331 32.7506551 68.7388056"></polygon>
                    <polygon id="Path" fill="#151A22" opacity="0.7" points="110.972618 43.8064168 102.140262 110.92206 50.0835204 70.5143021"></polygon>
                    <polygon id="Path" fill="#151A22" opacity="0.7" points="103.923263 30.4235077 55.2628628 9.38866713 45.0412361 53.614993"></polygon>
                    <polygon id="Path" fill="#23262E" opacity="0.7" points="91.5896959 121.089695 38.7052064 83.1778434 39.9842077 134.550126"></polygon>
                    <polygon id="Path" fill="#23262E" opacity="0.7" points="158.961642 79.5478699 122.923461 42.8348951 113.411214 113.432971"></polygon>
                    <polygon id="Path" fill="#43444B" opacity="0.7" points="103.988885 129.346796 111.838368 144.42247 59.3874808 141.050694"></polygon>
                    <polygon id="Path" fill="#34363D" opacity="0.7" points="151.918517 96.2048196 112.876895 125.404027 120.634591 140.624533"></polygon>
                    <polygon id="Path" fill="#34363D" opacity="0.7" points="133.451392 14.4413301 154.093795 58.8747972 125.868756 30.0698671"></polygon>
                    <polygon id="Path" fill="#36383F" opacity="0.7" points="124.003728 6.96236364 115.323797 22.8964028 74.4391595 4.94284056"></polygon>
                    <polygon id="Path" fill="#3B3C43" opacity="0.7" points="42.1401731 14.1900098 30.6345612 63.136614 7.42335723 58.2006503"></polygon>
                    <polygon id="Path" fill="#45464D" opacity="0.7" points="29.2346996 71.7694448 30.2474759 124.369779 5.91177256 66.8122252"></polygon>
                </g>
            </g>
        </g>
        <path d="M893.5,585 C998.15796,585 1083,500.15796 1083,395.5 C1083,290.84204 998.15796,206 893.5,206 C788.84204,206 704,290.84204 704,395.5 C704,500.15796 788.84204,585 893.5,585 Z M893.5,583 C789.946609,583 706,499.053391 706,395.5 C706,291.946609 789.946609,208 893.5,208 C997.053391,208 1081,291.946609 1081,395.5 C1081,499.053391 997.053391,583 893.5,583 Z" id="Oval" fill="#9013FE" fill-rule="nonzero"></path>
        <path d="M893.5,632 C1024.11534,632 1130,526.115343 1130,395.5 C1130,264.884657 1024.11534,159 893.5,159 C762.884657,159 657,264.884657 657,395.5 C657,526.115343 762.884657,632 893.5,632 Z M893.5,630 C763.989226,630 659,525.010774 659,395.5 C659,265.989226 763.989226,161 893.5,161 C1023.01077,161 1128,265.989226 1128,395.5 C1128,525.010774 1023.01077,630 893.5,630 Z" id="Oval" fill="#9013FE" fill-rule="nonzero"></path>
        <circle id="Oval" fill="#9013FE" cx="1017.5" cy="196.5" r="10.5"></circle>
        <circle id="Oval" fill="#9013FE" cx="705.5" cy="384.5" r="10.5"></circle>
        <circle id="Oval" fill="#9013FE" cx="996.5" cy="554.5" r="10.5"></circle>
        <polygon id="Path-17" fill="#FFFFFF" fill-rule="nonzero" points="895.461373 48 896.144 83.028 906.142645 82.8330646 894.612925 107.0625 882.147209 83.3010622 892.145 83.106 891.538627 52 314 52 314 107.0625 310 107.0625 310 48"></polygon>
        <polygon id="Path-17" fill="#FFFFFF" fill-rule="nonzero" transform="translate(608.071323, 702.531250) scale(-1, -1) translate(-608.071323, -702.531250) " points="895.461373 673 896.144 708.028 906.142645 707.833065 894.612925 732.0625 882.147209 708.301062 892.145 708.106 891.538627 677 314 677 314 732.0625 310 732.0625 310 673"></polygon>
        <path d="M534.896,86.064 L534.896,114 L542.432,114 L542.432,86.064 L552.704,86.064 L552.704,79.728 L524.624,79.728 L524.624,86.064 L534.896,86.064 Z M561.968,101.616 C561.968,100.623995 562.063999,99.648 562.256,98.688 C562.448001,97.7279952 562.775998,96.8800037 563.24,96.144 C563.704002,95.4079963 564.319996,94.8080023 565.088,94.344 C565.856004,93.8799977 566.815994,93.648 567.968,93.648 C569.120006,93.648 570.087996,93.8799977 570.872,94.344 C571.656004,94.8080023 572.279998,95.4079963 572.744,96.144 C573.208002,96.8800037 573.535999,97.7279952 573.728,98.688 C573.920001,99.648 574.016,100.623995 574.016,101.616 C574.016,102.608005 573.920001,103.575995 573.728,104.52 C573.535999,105.464005 573.208002,106.311996 572.744,107.064 C572.279998,107.816004 571.656004,108.415998 570.872,108.864 C570.087996,109.312002 569.120006,109.536 567.968,109.536 C566.815994,109.536 565.856004,109.312002 565.088,108.864 C564.319996,108.415998 563.704002,107.816004 563.24,107.064 C562.775998,106.311996 562.448001,105.464005 562.256,104.52 C562.063999,103.575995 561.968,102.608005 561.968,101.616 Z M555.152,101.616 C555.152,103.60001 555.455997,105.391992 556.064,106.992 C556.672003,108.592008 557.535994,109.959994 558.656,111.096 C559.776006,112.232006 561.119992,113.103997 562.688,113.712 C564.256008,114.320003 566.01599,114.624 567.968,114.624 C569.92001,114.624 571.687992,114.320003 573.272,113.712 C574.856008,113.103997 576.207994,112.232006 577.328,111.096 C578.448006,109.959994 579.311997,108.592008 579.92,106.992 C580.528003,105.391992 580.832,103.60001 580.832,101.616 C580.832,99.6319901 580.528003,97.8320081 579.92,96.216 C579.311997,94.5999919 578.448006,93.2240057 577.328,92.088 C576.207994,90.9519943 574.856008,90.0720031 573.272,89.448 C571.687992,88.8239969 569.92001,88.512 567.968,88.512 C566.01599,88.512 564.256008,88.8239969 562.688,89.448 C561.119992,90.0720031 559.776006,90.9519943 558.656,92.088 C557.535994,93.2240057 556.672003,94.5999919 556.064,96.216 C555.455997,97.8320081 555.152,99.6319901 555.152,101.616 Z M585.872,79.728 L585.872,114 L592.688,114 L592.688,105.456 L595.328,102.912 L602.144,114 L610.4,114 L599.984,98.304 L609.344,89.184 L601.28,89.184 L592.688,98.112 L592.688,79.728 L585.872,79.728 Z M629.504,98.928 L618.416,98.928 C618.448,98.4479976 618.551999,97.904003 618.728,97.296 C618.904001,96.687997 619.207998,96.1120027 619.64,95.568 C620.072002,95.0239973 620.647996,94.5680018 621.368,94.2 C622.088004,93.8319982 622.991995,93.648 624.08,93.648 C625.744008,93.648 626.983996,94.0959955 627.8,94.992 C628.616004,95.8880045 629.183998,97.1999914 629.504,98.928 Z M618.416,103.248 L636.32,103.248 C636.448001,101.32799 636.288002,99.4880088 635.84,97.728 C635.391998,95.9679912 634.664005,94.4000069 633.656,93.024 C632.647995,91.6479931 631.360008,90.5520041 629.792,89.736 C628.223992,88.9199959 626.384011,88.512 624.272,88.512 C622.383991,88.512 620.664008,88.8479966 619.112,89.52 C617.559992,90.1920034 616.224006,91.1119942 615.104,92.28 C613.983994,93.4480058 613.120003,94.831992 612.512,96.432 C611.903997,98.032008 611.6,99.7599907 611.6,101.616 C611.6,103.53601 611.895997,105.295992 612.488,106.896 C613.080003,108.496008 613.919995,109.871994 615.008,111.024 C616.096005,112.176006 617.423992,113.063997 618.992,113.688 C620.560008,114.312003 622.31999,114.624 624.272,114.624 C627.088014,114.624 629.48799,113.984006 631.472,112.704 C633.45601,111.423994 634.927995,109.296015 635.888,106.32 L629.888,106.32 C629.663999,107.088004 629.056005,107.815997 628.064,108.504 C627.071995,109.192003 625.888007,109.536 624.512,109.536 C622.59199,109.536 621.120005,109.040005 620.096,108.048 C619.071995,107.055995 618.512,105.456011 618.416,103.248 Z M640.352,89.184 L640.352,114 L647.168,114 L647.168,100.992 C647.168,98.4639874 647.583996,96.6480055 648.416,95.544 C649.248004,94.4399945 650.591991,93.888 652.448,93.888 C654.080008,93.888 655.215997,94.391995 655.856,95.4 C656.496003,96.408005 656.816,97.9359898 656.816,99.984 L656.816,114 L663.632,114 L663.632,98.736 C663.632,97.1999923 663.496001,95.8000063 663.224,94.536 C662.951999,93.2719937 662.480003,92.2000044 661.808,91.32 C661.135997,90.4399956 660.216006,89.7520025 659.048,89.256 C657.879994,88.7599975 656.384009,88.512 654.56,88.512 C653.119993,88.512 651.712007,88.8399967 650.336,89.496 C648.959993,90.1520033 647.840004,91.1999928 646.976,92.64 L646.832,92.64 L646.832,89.184 L640.352,89.184 Z M674.096,105.936 C674.096,106.672004 674.247998,107.303997 674.552,107.832 C674.856002,108.360003 675.247998,108.791998 675.728,109.128 C676.208002,109.464002 676.759997,109.711999 677.384,109.872 C678.008003,110.032001 678.655997,110.112 679.328,110.112 C679.808002,110.112 680.311997,110.056001 680.84,109.944 C681.368003,109.831999 681.847998,109.656001 682.28,109.416 C682.712002,109.175999 683.071999,108.856002 683.36,108.456 C683.648001,108.055998 683.792,107.552003 683.792,106.944 C683.792,105.919995 683.112007,105.152003 681.752,104.64 C680.391993,104.127997 678.496012,103.616003 676.064,103.104 C675.071995,102.879999 674.104005,102.616002 673.16,102.312 C672.215995,102.007998 671.376004,101.608002 670.64,101.112 C669.903996,100.615998 669.312002,99.9920038 668.864,99.24 C668.415998,98.4879962 668.192,97.5680054 668.192,96.48 C668.192,94.879992 668.503997,93.5680051 669.128,92.544 C669.752003,91.5199949 670.575995,90.712003 671.6,90.12 C672.624005,89.527997 673.775994,89.1120012 675.056,88.872 C676.336006,88.6319988 677.647993,88.512 678.992,88.512 C680.336007,88.512 681.639994,88.6399987 682.904,88.896 C684.168006,89.1520013 685.295995,89.583997 686.288,90.192 C687.280005,90.800003 688.103997,91.607995 688.76,92.616 C689.416003,93.624005 689.807999,94.8959923 689.936,96.432 L683.456,96.432 C683.36,95.1199934 682.864004,94.2320023 681.968,93.768 C681.071996,93.3039977 680.016006,93.072 678.8,93.072 C678.415998,93.072 678.000002,93.0959998 677.552,93.144 C677.103998,93.1920002 676.696002,93.2959992 676.328,93.456 C675.959998,93.6160008 675.648001,93.8479985 675.392,94.152 C675.135999,94.4560015 675.008,94.8639974 675.008,95.376 C675.008,95.984003 675.231998,96.4799981 675.68,96.864 C676.128002,97.2480019 676.711996,97.5599988 677.432,97.8 C678.152004,98.0400012 678.975995,98.255999 679.904,98.448 C680.832005,98.640001 681.775995,98.8479989 682.736,99.072 C683.728005,99.2960011 684.695995,99.5679984 685.64,99.888 C686.584005,100.208002 687.423996,100.631997 688.16,101.16 C688.896004,101.688003 689.487998,102.343996 689.936,103.128 C690.384002,103.912004 690.608,104.879994 690.608,106.032 C690.608,107.664008 690.280003,109.031994 689.624,110.136 C688.967997,111.240006 688.112005,112.127997 687.056,112.8 C685.999995,113.472003 684.792007,113.943999 683.432,114.216 C682.071993,114.488001 680.688007,114.624 679.28,114.624 C677.839993,114.624 676.432007,114.480001 675.056,114.192 C673.679993,113.903999 672.456005,113.424003 671.384,112.752 C670.311995,112.079997 669.432003,111.192006 668.744,110.088 C668.055997,108.983994 667.68,107.600008 667.616,105.936 L674.096,105.936 Z" id="Tokens" fill="#FFFFFF" fill-rule="nonzero"></path>
        <path d="M220.652,355.856 L220.652,345.584 L226.508,345.584 C227.372004,345.584 228.203996,345.647999 229.004,345.776 C229.804004,345.904001 230.507997,346.151998 231.116,346.52 C231.724003,346.888002 232.211998,347.407997 232.58,348.08 C232.948002,348.752003 233.132,349.631995 233.132,350.72 C233.132,351.808005 232.948002,352.687997 232.58,353.36 C232.211998,354.032003 231.724003,354.551998 231.116,354.92 C230.507997,355.288002 229.804004,355.535999 229.004,355.664 C228.203996,355.792001 227.372004,355.856 226.508,355.856 L220.652,355.856 Z M213.116,339.728 L213.116,374 L220.652,374 L220.652,361.712 L228.572,361.712 C230.716011,361.712 232.539992,361.400003 234.044,360.776 C235.548008,360.151997 236.771995,359.328005 237.716,358.304 C238.660005,357.279995 239.347998,356.104007 239.78,354.776 C240.212002,353.447993 240.428,352.096007 240.428,350.72 C240.428,349.311993 240.212002,347.952007 239.78,346.64 C239.347998,345.327993 238.660005,344.160005 237.716,343.136 C236.771995,342.111995 235.548008,341.288003 234.044,340.664 C232.539992,340.039997 230.716011,339.728 228.572,339.728 L213.116,339.728 Z M244.412,349.184 L244.412,374 L251.228,374 L251.228,362.816 C251.228,361.695994 251.339999,360.656005 251.564,359.696 C251.788001,358.735995 252.163997,357.896004 252.692,357.176 C253.220003,356.455996 253.915996,355.888002 254.78,355.472 C255.644004,355.055998 256.699994,354.848 257.948,354.848 C258.364002,354.848 258.795998,354.872 259.244,354.92 C259.692002,354.968 260.075998,355.024 260.396,355.088 L260.396,348.752 C259.851997,348.591999 259.356002,348.512 258.908,348.512 C258.043996,348.512 257.212004,348.639999 256.412,348.896 C255.611996,349.152001 254.860004,349.512 254.156,349.976 C253.451996,350.440002 252.828003,350.999997 252.284,351.656 C251.739997,352.312003 251.308002,353.023996 250.988,353.792 L250.892,353.792 L250.892,349.184 L244.412,349.184 Z M268.268,361.616 C268.268,360.623995 268.363999,359.648 268.556,358.688 C268.748001,357.727995 269.075998,356.880004 269.54,356.144 C270.004002,355.407996 270.619996,354.808002 271.388,354.344 C272.156004,353.879998 273.115994,353.648 274.268,353.648 C275.420006,353.648 276.387996,353.879998 277.172,354.344 C277.956004,354.808002 278.579998,355.407996 279.044,356.144 C279.508002,356.880004 279.835999,357.727995 280.028,358.688 C280.220001,359.648 280.316,360.623995 280.316,361.616 C280.316,362.608005 280.220001,363.575995 280.028,364.52 C279.835999,365.464005 279.508002,366.311996 279.044,367.064 C278.579998,367.816004 277.956004,368.415998 277.172,368.864 C276.387996,369.312002 275.420006,369.536 274.268,369.536 C273.115994,369.536 272.156004,369.312002 271.388,368.864 C270.619996,368.415998 270.004002,367.816004 269.54,367.064 C269.075998,366.311996 268.748001,365.464005 268.556,364.52 C268.363999,363.575995 268.268,362.608005 268.268,361.616 Z M261.452,361.616 C261.452,363.60001 261.755997,365.391992 262.364,366.992 C262.972003,368.592008 263.835994,369.959994 264.956,371.096 C266.076006,372.232006 267.419992,373.103997 268.988,373.712 C270.556008,374.320003 272.31599,374.624 274.268,374.624 C276.22001,374.624 277.987992,374.320003 279.572,373.712 C281.156008,373.103997 282.507994,372.232006 283.628,371.096 C284.748006,369.959994 285.611997,368.592008 286.22,366.992 C286.828003,365.391992 287.132,363.60001 287.132,361.616 C287.132,359.63199 286.828003,357.832008 286.22,356.216 C285.611997,354.599992 284.748006,353.224006 283.628,352.088 C282.507994,350.951994 281.156008,350.072003 279.572,349.448 C277.987992,348.823997 276.22001,348.512 274.268,348.512 C272.31599,348.512 270.556008,348.823997 268.988,349.448 C267.419992,350.072003 266.076006,350.951994 264.956,352.088 C263.835994,353.224006 262.972003,354.599992 262.364,356.216 C261.755997,357.832008 261.452,359.63199 261.452,361.616 Z M303.788,377.072 L314.156,349.184 L307.1,349.184 L301.676,366.176 L301.58,366.176 L295.964,349.184 L288.716,349.184 L297.404,372.464 C297.596001,372.944002 297.692,373.455997 297.692,374 C297.692,374.736004 297.476002,375.407997 297.044,376.016 C296.611998,376.624003 295.948004,376.976 295.052,377.072 C294.379997,377.104 293.708003,377.088 293.036,377.024 L291.068,376.832 L291.068,376.832 L291.068,382.448 C291.772004,382.512 292.467997,382.568 293.156,382.616 C293.844003,382.664 294.539996,382.688 295.244,382.688 C297.580012,382.688 299.403993,382.256004 300.716,381.392 C302.028007,380.527996 303.051996,379.08801 303.788,377.072 Z M333.164,358.928 L322.076,358.928 C322.108,358.447998 322.211999,357.904003 322.388,357.296 C322.564001,356.687997 322.867998,356.112003 323.3,355.568 C323.732002,355.023997 324.307996,354.568002 325.028,354.2 C325.748004,353.831998 326.651995,353.648 327.74,353.648 C329.404008,353.648 330.643996,354.095996 331.46,354.992 C332.276004,355.888004 332.843998,357.199991 333.164,358.928 Z M322.076,363.248 L339.98,363.248 C340.108001,361.32799 339.948002,359.488009 339.5,357.728 C339.051998,355.967991 338.324005,354.400007 337.316,353.024 C336.307995,351.647993 335.020008,350.552004 333.452,349.736 C331.883992,348.919996 330.044011,348.512 327.932,348.512 C326.043991,348.512 324.324008,348.847997 322.772,349.52 C321.219992,350.192003 319.884006,351.111994 318.764,352.28 C317.643994,353.448006 316.780003,354.831992 316.172,356.432 C315.563997,358.032008 315.26,359.759991 315.26,361.616 C315.26,363.53601 315.555997,365.295992 316.148,366.896 C316.740003,368.496008 317.579995,369.871994 318.668,371.024 C319.756005,372.176006 321.083992,373.063997 322.652,373.688 C324.220008,374.312003 325.97999,374.624 327.932,374.624 C330.748014,374.624 333.14799,373.984006 335.132,372.704 C337.11601,371.423994 338.587995,369.296015 339.548,366.32 L333.548,366.32 C333.323999,367.088004 332.716005,367.815997 331.724,368.504 C330.731995,369.192003 329.548007,369.536 328.172,369.536 C326.25199,369.536 324.780005,369.040005 323.756,368.048 C322.731995,367.055995 322.172,365.456011 322.076,363.248 Z M360.908,357.92 L367.58,357.92 C367.484,356.319992 367.100003,354.936006 366.428,353.768 C365.755997,352.599994 364.884005,351.624004 363.812,350.84 C362.739995,350.055996 361.524007,349.472002 360.164,349.088 C358.803993,348.703998 357.388007,348.512 355.916,348.512 C353.89999,348.512 352.108008,348.847997 350.54,349.52 C348.971992,350.192003 347.644005,351.127994 346.556,352.328 C345.467995,353.528006 344.644003,354.951992 344.084,356.6 C343.523997,358.248008 343.244,360.03199 343.244,361.952 C343.244,363.808009 343.547997,365.512 344.156,367.064 C344.764003,368.616008 345.611995,369.951994 346.7,371.072 C347.788005,372.192006 349.107992,373.063997 350.66,373.688 C352.212008,374.312003 353.915991,374.624 355.772,374.624 C359.068016,374.624 361.771989,373.760009 363.884,372.032 C365.996011,370.303991 367.275998,367.792016 367.724,364.496 L361.148,364.496 C360.923999,366.032008 360.372004,367.255995 359.492,368.168 C358.611996,369.080005 357.356008,369.536 355.724,369.536 C354.667995,369.536 353.772004,369.296002 353.036,368.816 C352.299996,368.335998 351.716002,367.720004 351.284,366.968 C350.851998,366.215996 350.540001,365.376005 350.348,364.448 C350.155999,363.519995 350.06,362.608004 350.06,361.712 C350.06,360.783995 350.155999,359.848005 350.348,358.904 C350.540001,357.959995 350.867998,357.096004 351.332,356.312 C351.796002,355.527996 352.395996,354.888002 353.132,354.392 C353.868004,353.895998 354.779995,353.648 355.868,353.648 C358.780015,353.648 360.459998,355.071986 360.908,357.92 Z M380.204,349.184 L380.204,341.744 L373.388,341.744 L373.388,349.184 L369.26,349.184 L369.26,353.744 L373.388,353.744 L373.388,368.384 C373.388,369.632006 373.595998,370.639996 374.012,371.408 C374.428002,372.176004 374.995996,372.767998 375.716,373.184 C376.436004,373.600002 377.267995,373.879999 378.212,374.024 C379.156005,374.168001 380.155995,374.24 381.212,374.24 C381.884003,374.24 382.571996,374.224 383.276,374.192 C383.980004,374.16 384.619997,374.096 385.196,374 L385.196,368.72 C384.875998,368.784 384.540002,368.832 384.188,368.864 C383.835998,368.896 383.468002,368.912 383.084,368.912 C381.931994,368.912 381.164002,368.720002 380.78,368.336 C380.395998,367.951998 380.204,367.184006 380.204,366.032 L380.204,353.744 L385.196,353.744 L385.196,349.184 L380.204,349.184 Z M394.508,361.616 C394.508,360.623995 394.603999,359.648 394.796,358.688 C394.988001,357.727995 395.315998,356.880004 395.78,356.144 C396.244002,355.407996 396.859996,354.808002 397.628,354.344 C398.396004,353.879998 399.355994,353.648 400.508,353.648 C401.660006,353.648 402.627996,353.879998 403.412,354.344 C404.196004,354.808002 404.819998,355.407996 405.284,356.144 C405.748002,356.880004 406.075999,357.727995 406.268,358.688 C406.460001,359.648 406.556,360.623995 406.556,361.616 C406.556,362.608005 406.460001,363.575995 406.268,364.52 C406.075999,365.464005 405.748002,366.311996 405.284,367.064 C404.819998,367.816004 404.196004,368.415998 403.412,368.864 C402.627996,369.312002 401.660006,369.536 400.508,369.536 C399.355994,369.536 398.396004,369.312002 397.628,368.864 C396.859996,368.415998 396.244002,367.816004 395.78,367.064 C395.315998,366.311996 394.988001,365.464005 394.796,364.52 C394.603999,363.575995 394.508,362.608005 394.508,361.616 Z M387.692,361.616 C387.692,363.60001 387.995997,365.391992 388.604,366.992 C389.212003,368.592008 390.075994,369.959994 391.196,371.096 C392.316006,372.232006 393.659992,373.103997 395.228,373.712 C396.796008,374.320003 398.55599,374.624 400.508,374.624 C402.46001,374.624 404.227992,374.320003 405.812,373.712 C407.396008,373.103997 408.747994,372.232006 409.868,371.096 C410.988006,369.959994 411.851997,368.592008 412.46,366.992 C413.068003,365.391992 413.372,363.60001 413.372,361.616 C413.372,359.63199 413.068003,357.832008 412.46,356.216 C411.851997,354.599992 410.988006,353.224006 409.868,352.088 C408.747994,350.951994 407.396008,350.072003 405.812,349.448 C404.227992,348.823997 402.46001,348.512 400.508,348.512 C398.55599,348.512 396.796008,348.823997 395.228,349.448 C393.659992,350.072003 392.316006,350.951994 391.196,352.088 C390.075994,353.224006 389.212003,354.599992 388.604,356.216 C387.995997,357.832008 387.692,359.63199 387.692,361.616 Z M271.364,424.664 L271.364,403.064 L276.74,403.064 C278.596009,403.064 280.155994,403.327997 281.42,403.856 C282.684006,404.384003 283.699996,405.143995 284.468,406.136 C285.236004,407.128005 285.787998,408.319993 286.124,409.712 C286.460002,411.104007 286.628,412.663991 286.628,414.392 C286.628,416.280009 286.388002,417.879993 285.908,419.192 C285.427998,420.504007 284.788004,421.567996 283.988,422.384 C283.187996,423.200004 282.276005,423.783998 281.252,424.136 C280.227995,424.488002 279.172005,424.664 278.084,424.664 L271.364,424.664 Z M263.828,396.728 L263.828,431 L278.612,431 C281.236013,431 283.51599,430.560004 285.452,429.68 C287.38801,428.799996 289.003994,427.592008 290.3,426.056 C291.596006,424.519992 292.563997,422.696011 293.204,420.584 C293.844003,418.471989 294.164,416.168012 294.164,413.672 C294.164,410.823986 293.772004,408.344011 292.988,406.232 C292.203996,404.119989 291.116007,402.360007 289.724,400.952 C288.331993,399.543993 286.68401,398.488004 284.78,397.784 C282.87599,397.079996 280.820011,396.728 278.612,396.728 L263.828,396.728 Z M315.38,415.928 L304.292,415.928 C304.324,415.447998 304.427999,414.904003 304.604,414.296 C304.780001,413.687997 305.083998,413.112003 305.516,412.568 C305.948002,412.023997 306.523996,411.568002 307.244,411.2 C307.964004,410.831998 308.867995,410.648 309.956,410.648 C311.620008,410.648 312.859996,411.095996 313.676,411.992 C314.492004,412.888004 315.059998,414.199991 315.38,415.928 Z M304.292,420.248 L322.196,420.248 C322.324001,418.32799 322.164002,416.488009 321.716,414.728 C321.267998,412.967991 320.540005,411.400007 319.532,410.024 C318.523995,408.647993 317.236008,407.552004 315.668,406.736 C314.099992,405.919996 312.260011,405.512 310.148,405.512 C308.259991,405.512 306.540008,405.847997 304.988,406.52 C303.435992,407.192003 302.100006,408.111994 300.98,409.28 C299.859994,410.448006 298.996003,411.831992 298.388,413.432 C297.779997,415.032008 297.476,416.759991 297.476,418.616 C297.476,420.53601 297.771997,422.295992 298.364,423.896 C298.956003,425.496008 299.795995,426.871994 300.884,428.024 C301.972005,429.176006 303.299992,430.063997 304.868,430.688 C306.436008,431.312003 308.19599,431.624 310.148,431.624 C312.964014,431.624 315.36399,430.984006 317.348,429.704 C319.33201,428.423994 320.803995,426.296015 321.764,423.32 L315.764,423.32 C315.539999,424.088004 314.932005,424.815997 313.94,425.504 C312.947995,426.192003 311.764007,426.536 310.388,426.536 C308.46799,426.536 306.996005,426.040005 305.972,425.048 C304.947995,424.055995 304.388,422.456011 304.292,420.248 Z M326.948,396.728 L326.948,431 L334.484,431 L334.484,416.84 L348.836,416.84 L348.836,410.984 L334.484,410.984 L334.484,403.064 L351.044,403.064 L351.044,396.728 L326.948,396.728 Z M361.7,402.344 L361.7,396.728 L354.884,396.728 L354.884,402.344 L361.7,402.344 Z M354.884,406.184 L361.7,406.184 L361.7,431 L354.884,431 L354.884,406.184 Z" id="ProyectoDeFi" fill="#FFFFFF" fill-rule="nonzero"></path>
        <path d="M549.844,680.664 L549.844,659.064 L555.22,659.064 C557.076009,659.064 558.635994,659.327997 559.9,659.856 C561.164006,660.384003 562.179996,661.143995 562.948,662.136 C563.716004,663.128005 564.267998,664.319993 564.604,665.712 C564.940002,667.104007 565.108,668.663991 565.108,670.392 C565.108,672.280009 564.868002,673.879993 564.388,675.192 C563.907998,676.504007 563.268004,677.567996 562.468,678.384 C561.667996,679.200004 560.756005,679.783998 559.732,680.136 C558.707995,680.488002 557.652005,680.664 556.564,680.664 L549.844,680.664 Z M542.308,652.728 L542.308,687 L557.092,687 C559.716013,687 561.99599,686.560004 563.932,685.68 C565.86801,684.799996 567.483994,683.592008 568.78,682.056 C570.076006,680.519992 571.043997,678.696011 571.684,676.584 C572.324003,674.471989 572.644,672.168012 572.644,669.672 C572.644,666.823986 572.252004,664.344011 571.468,662.232 C570.683996,660.119989 569.596007,658.360007 568.204,656.952 C566.811993,655.543993 565.16401,654.488004 563.26,653.784 C561.35599,653.079996 559.300011,652.728 557.092,652.728 L542.308,652.728 Z M593.86,671.928 L582.772,671.928 C582.804,671.447998 582.907999,670.904003 583.084,670.296 C583.260001,669.687997 583.563998,669.112003 583.996,668.568 C584.428002,668.023997 585.003996,667.568002 585.724,667.2 C586.444004,666.831998 587.347995,666.648 588.436,666.648 C590.100008,666.648 591.339996,667.095996 592.156,667.992 C592.972004,668.888004 593.539998,670.199991 593.86,671.928 Z M582.772,676.248 L600.676,676.248 C600.804001,674.32799 600.644002,672.488009 600.196,670.728 C599.747998,668.967991 599.020005,667.400007 598.012,666.024 C597.003995,664.647993 595.716008,663.552004 594.148,662.736 C592.579992,661.919996 590.740011,661.512 588.628,661.512 C586.739991,661.512 585.020008,661.847997 583.468,662.52 C581.915992,663.192003 580.580006,664.111994 579.46,665.28 C578.339994,666.448006 577.476003,667.831992 576.868,669.432 C576.259997,671.032008 575.956,672.759991 575.956,674.616 C575.956,676.53601 576.251997,678.295992 576.844,679.896 C577.436003,681.496008 578.275995,682.871994 579.364,684.024 C580.452005,685.176006 581.779992,686.063997 583.348,686.688 C584.916008,687.312003 586.67599,687.624 588.628,687.624 C591.444014,687.624 593.84399,686.984006 595.828,685.704 C597.81201,684.423994 599.283995,682.296015 600.244,679.32 L594.244,679.32 C594.019999,680.088004 593.412005,680.815997 592.42,681.504 C591.427995,682.192003 590.244007,682.536 588.868,682.536 C586.94799,682.536 585.476005,682.040005 584.452,681.048 C583.427995,680.055995 582.868,678.456011 582.772,676.248 Z M621.604,670.92 L628.276,670.92 C628.18,669.319992 627.796003,667.936006 627.124,666.768 C626.451997,665.599994 625.580005,664.624004 624.508,663.84 C623.435995,663.055996 622.220007,662.472002 620.86,662.088 C619.499993,661.703998 618.084007,661.512 616.612,661.512 C614.59599,661.512 612.804008,661.847997 611.236,662.52 C609.667992,663.192003 608.340005,664.127994 607.252,665.328 C606.163995,666.528006 605.340003,667.951992 604.78,669.6 C604.219997,671.248008 603.94,673.03199 603.94,674.952 C603.94,676.808009 604.243997,678.512 604.852,680.064 C605.460003,681.616008 606.307995,682.951994 607.396,684.072 C608.484005,685.192006 609.803992,686.063997 611.356,686.688 C612.908008,687.312003 614.611991,687.624 616.468,687.624 C619.764016,687.624 622.467989,686.760009 624.58,685.032 C626.692011,683.303991 627.971998,680.792016 628.42,677.496 L621.844,677.496 C621.619999,679.032008 621.068004,680.255995 620.188,681.168 C619.307996,682.080005 618.052008,682.536 616.42,682.536 C615.363995,682.536 614.468004,682.296002 613.732,681.816 C612.995996,681.335998 612.412002,680.720004 611.98,679.968 C611.547998,679.215996 611.236001,678.376005 611.044,677.448 C610.851999,676.519995 610.756,675.608004 610.756,674.712 C610.756,673.783995 610.851999,672.848005 611.044,671.904 C611.236001,670.959995 611.563998,670.096004 612.028,669.312 C612.492002,668.527996 613.091996,667.888002 613.828,667.392 C614.564004,666.895998 615.475995,666.648 616.564,666.648 C619.476015,666.648 621.155998,668.071986 621.604,670.92 Z M639.268,658.344 L639.268,652.728 L632.452,652.728 L632.452,658.344 L639.268,658.344 Z M632.452,662.184 L632.452,687 L639.268,687 L639.268,662.184 L632.452,662.184 Z M649.924,678.936 L643.444,678.936 C643.508,680.600008 643.883997,681.983994 644.572,683.088 C645.260003,684.192006 646.139995,685.079997 647.212,685.752 C648.284005,686.424003 649.507993,686.903999 650.884,687.192 C652.260007,687.480001 653.667993,687.624 655.108,687.624 C656.516007,687.624 657.899993,687.488001 659.26,687.216 C660.620007,686.943999 661.827995,686.472003 662.884,685.8 C663.940005,685.127997 664.795997,684.240006 665.452,683.136 C666.108003,682.031994 666.436,680.664008 666.436,679.032 C666.436,677.879994 666.212002,676.912004 665.764,676.128 C665.315998,675.343996 664.724004,674.688003 663.988,674.16 C663.251996,673.631997 662.412005,673.208002 661.468,672.888 C660.523995,672.567998 659.556005,672.296001 658.564,672.072 C657.603995,671.847999 656.660005,671.640001 655.732,671.448 C654.803995,671.255999 653.980004,671.040001 653.26,670.8 C652.539996,670.559999 651.956002,670.248002 651.508,669.864 C651.059998,669.479998 650.836,668.984003 650.836,668.376 C650.836,667.863997 650.963999,667.456002 651.22,667.152 C651.476001,666.847998 651.787998,666.616001 652.156,666.456 C652.524002,666.295999 652.931998,666.192 653.38,666.144 C653.828002,666.096 654.243998,666.072 654.628,666.072 C655.844006,666.072 656.899996,666.303998 657.796,666.768 C658.692004,667.232002 659.188,668.119993 659.284,669.432 L665.764,669.432 C665.635999,667.895992 665.244003,666.624005 664.588,665.616 C663.931997,664.607995 663.108005,663.800003 662.116,663.192 C661.123995,662.583997 659.996006,662.152001 658.732,661.896 C657.467994,661.639999 656.164007,661.512 654.82,661.512 C653.475993,661.512 652.164006,661.631999 650.884,661.872 C649.603994,662.112001 648.452005,662.527997 647.428,663.12 C646.403995,663.712003 645.580003,664.519995 644.956,665.544 C644.331997,666.568005 644.02,667.879992 644.02,669.48 C644.02,670.568005 644.243998,671.487996 644.692,672.24 C645.140002,672.992004 645.731996,673.615998 646.468,674.112 C647.204004,674.608002 648.043995,675.007998 648.988,675.312 C649.932005,675.616002 650.899995,675.879999 651.892,676.104 C654.324012,676.616003 656.219993,677.127997 657.58,677.64 C658.940007,678.152003 659.62,678.919995 659.62,679.944 C659.62,680.552003 659.476001,681.055998 659.188,681.456 C658.899999,681.856002 658.540002,682.175999 658.108,682.416 C657.675998,682.656001 657.196003,682.831999 656.668,682.944 C656.139997,683.056001 655.636002,683.112 655.156,683.112 C654.483997,683.112 653.836003,683.032001 653.212,682.872 C652.587997,682.711999 652.036002,682.464002 651.556,682.128 C651.075998,681.791998 650.684002,681.360003 650.38,680.832 C650.075998,680.303997 649.924,679.672004 649.924,678.936 Z M677.428,658.344 L677.428,652.728 L670.612,652.728 L670.612,658.344 L677.428,658.344 Z M670.612,662.184 L670.612,687 L677.428,687 L677.428,662.184 L670.612,662.184 Z M688.852,674.616 C688.852,675.608005 688.947999,676.575995 689.14,677.52 C689.332001,678.464005 689.659998,679.311996 690.124,680.064 C690.588002,680.816004 691.203996,681.415998 691.972,681.864 C692.740004,682.312002 693.699994,682.536 694.852,682.536 C696.004006,682.536 696.971996,682.312002 697.756,681.864 C698.540004,681.415998 699.163998,680.816004 699.628,680.064 C700.092002,679.311996 700.419999,678.464005 700.612,677.52 C700.804001,676.575995 700.9,675.608005 700.9,674.616 C700.9,673.623995 700.804001,672.648 700.612,671.688 C700.419999,670.727995 700.092002,669.880004 699.628,669.144 C699.163998,668.407996 698.540004,667.808002 697.756,667.344 C696.971996,666.879998 696.004006,666.648 694.852,666.648 C693.699994,666.648 692.740004,666.879998 691.972,667.344 C691.203996,667.808002 690.588002,668.407996 690.124,669.144 C689.659998,669.880004 689.332001,670.727995 689.14,671.688 C688.947999,672.648 688.852,673.623995 688.852,674.616 Z M682.036,674.616 C682.036,672.63199 682.339997,670.832008 682.948,669.216 C683.556003,667.599992 684.419994,666.224006 685.54,665.088 C686.660006,663.951994 688.003992,663.072003 689.572,662.448 C691.140008,661.823997 692.89999,661.512 694.852,661.512 C696.80401,661.512 698.571992,661.823997 700.156,662.448 C701.740008,663.072003 703.091994,663.951994 704.212,665.088 C705.332006,666.224006 706.195997,667.599992 706.804,669.216 C707.412003,670.832008 707.716,672.63199 707.716,674.616 C707.716,676.60001 707.412003,678.391992 706.804,679.992 C706.195997,681.592008 705.332006,682.959994 704.212,684.096 C703.091994,685.232006 701.740008,686.103997 700.156,686.712 C698.571992,687.320003 696.80401,687.624 694.852,687.624 C692.89999,687.624 691.140008,687.320003 689.572,686.712 C688.003992,686.103997 686.660006,685.232006 685.54,684.096 C684.419994,682.959994 683.556003,681.592008 682.948,679.992 C682.339997,678.391992 682.036,676.60001 682.036,674.616 Z M703.828,649.32 L696.004,657.816 L691.252,657.816 L696.34,649.32 L703.828,649.32 Z M712.132,662.184 L718.612,662.184 L718.612,665.64 L718.756,665.64 C719.620004,664.199993 720.739993,663.152003 722.116,662.496 C723.492007,661.839997 724.899993,661.512 726.34,661.512 C728.164009,661.512 729.659994,661.759998 730.828,662.256 C731.996006,662.752002 732.915997,663.439996 733.588,664.32 C734.260003,665.200004 734.731999,666.271994 735.004,667.536 C735.276001,668.800006 735.412,670.199992 735.412,671.736 L735.412,687 L728.596,687 L728.596,672.984 C728.596,670.93599 728.276003,669.408005 727.636,668.4 C726.995997,667.391995 725.860008,666.888 724.228,666.888 C722.371991,666.888 721.028004,667.439994 720.196,668.544 C719.363996,669.648006 718.948,671.463987 718.948,673.992 L718.948,687 L712.132,687 L712.132,662.184 Z" id="Decisión" fill="#FFFFFF" fill-rule="nonzero"></path>
    </g>
</svg>
