<?xml version="1.0" encoding="UTF-8"?>
<svg width="1200px" height="790px" viewBox="0 0 1200 790" version="1.1" xmlns="http://www.w3.org/2000/svg" xmlns:xlink="http://www.w3.org/1999/xlink">
    <title>website integrations1Ba</title>
    <defs>
        <linearGradient x1="50%" y1="0%" x2="50%" y2="100%" id="linearGradient-1">
            <stop stop-color="#8400DB" offset="0%"></stop>
            <stop stop-color="#4D00B4" offset="100%"></stop>
        </linearGradient>
        <linearGradient x1="0%" y1="49.9999777%" x2="100.000024%" y2="49.9999777%" id="linearGradient-2">
            <stop stop-color="#A3A2A5" offset="0%"></stop>
            <stop stop-color="#9F9EA0" offset="27.05%"></stop>
            <stop stop-color="#929194" offset="56.07%"></stop>
            <stop stop-color="#7C7C80" offset="85.92%"></stop>
            <stop stop-color="#707073" offset="100%"></stop>
        </linearGradient>
        <linearGradient x1="-0.661193461%" y1="79.9148322%" x2="70.3915924%" y2="24.2689758%" id="linearGradient-3">
            <stop stop-color="#969598" offset="0%"></stop>
            <stop stop-color="#908F92" offset="33.96%"></stop>
            <stop stop-color="#7F7F82" offset="79.17%"></stop>
            <stop stop-color="#757578" offset="100%"></stop>
        </linearGradient>
        <linearGradient x1="6.06021085%" y1="-2.83492963%" x2="50.00952%" y2="85.0511445%" id="linearGradient-4">
            <stop stop-color="#9E9EA0" offset="0%"></stop>
            <stop stop-color="#9B9B9D" offset="27.59%"></stop>
            <stop stop-color="#919194" offset="49.4%"></stop>
            <stop stop-color="#808083" offset="69.23%"></stop>
            <stop stop-color="#69696D" offset="87.77%"></stop>
            <stop stop-color="#55565A" offset="100%"></stop>
        </linearGradient>
    </defs>
    <g id="website-integrations1Ba" stroke="none" stroke-width="1" fill="none" fill-rule="evenodd">
        <path d="M312.5,646 C450.84733,646 563,533.84733 563,395.5 C563,257.15267 450.84733,145 312.5,145 C174.15267,145 62,257.15267 62,395.5 C62,533.84733 174.15267,646 312.5,646 Z M312.5,640 C177.466379,640 68,530.533621 68,395.5 C68,260.466379 177.466379,151 312.5,151 C447.533621,151 557,260.466379 557,395.5 C557,530.533621 447.533621,640 312.5,640 Z" id="Oval" fill="#9013FE" fill-rule="nonzero"></path>
        <circle id="Oval" fill="url(#linearGradient-1)" cx="312.5" cy="395.5" r="244.5"></circle>
        <g id="Group-2" transform="translate(758.000000, 261.000000)">
            <circle id="Oval" fill="#FFFFFF" cx="135" cy="135" r="135"></circle>
            <g id="kleros-symbol" transform="translate(51.000000, 60.000000)" fill-rule="nonzero">
                <polygon id="Path" fill="#45464D" opacity="0.7" points="133.381411 3.77718897 49.0824928 0 0 61.5574073 34.3923467 143.824633 119.534475 149 168 79.7930126"></polygon>
                <g id="Group">
                    <polygon id="Path" fill="#656569" points="167.847575 79.7154168 119.890532 30.9128112 107.277449 124.531491"></polygon>
                    <polygon id="Path" fill="url(#linearGradient-2)" points="32.7506551 68.7388056 119.890532 30.9128112 107.277449 124.531491"></polygon>
                    <polygon id="Path" fill="url(#linearGradient-3)" points="119.890532 30.9128112 49.0898492 0.0698111888 32.7506551 68.7388056"></polygon>
                    <polygon id="Path" fill="url(#linearGradient-4)" points="32.7506551 68.7388056 34.4194413 143.629331 107.277449 124.531491"></polygon>
                    <polygon id="Path" fill="#757578" points="119.890532 30.9128112 133.275501 3.84003217 49.0898492 0.0698111888"></polygon>
                    <polygon id="Path" fill="#6C6D70" points="133.275501 3.84003217 167.847575 79.7154168 119.890532 30.9128112"></polygon>
                    <polygon id="Path" fill="#6C6D70" points="167.847575 79.7154168 119.447169 148.794734 107.277449 124.531491"></polygon>
                    <polygon id="Path" fill="#55565A" points="119.447169 148.794734 34.4194413 143.629331 107.277449 124.531491"></polygon>
                    <polygon id="Path" fill="#55565A" points="49.0898492 0.0698111888 0.0733053152 61.5134517 32.7506551 68.7388056"></polygon>
                    <polygon id="Path" fill="#656569" points="0.0733053152 61.5134517 34.4194413 143.629331 32.7506551 68.7388056"></polygon>
                    <polygon id="Path" fill="#151A22" opacity="0.7" points="110.972618 43.8064168 102.140262 110.92206 50.0835204 70.5143021"></polygon>
                    <polygon id="Path" fill="#151A22" opacity="0.7" points="103.923263 30.4235077 55.2628628 9.38866713 45.0412361 53.614993"></polygon>
                    <polygon id="Path" fill="#23262E" opacity="0.7" points="91.5896959 121.089695 38.7052064 83.1778434 39.9842077 134.550126"></polygon>
                    <polygon id="Path" fill="#23262E" opacity="0.7" points="158.961642 79.5478699 122.923461 42.8348951 113.411214 113.432971"></polygon>
                    <polygon id="Path" fill="#43444B" opacity="0.7" points="103.988885 129.346796 111.838368 144.42247 59.3874808 141.050694"></polygon>
                    <polygon id="Path" fill="#34363D" opacity="0.7" points="151.918517 96.2048196 112.876895 125.404027 120.634591 140.624533"></polygon>
                    <polygon id="Path" fill="#34363D" opacity="0.7" points="133.451392 14.4413301 154.093795 58.8747972 125.868756 30.0698671"></polygon>
                    <polygon id="Path" fill="#36383F" opacity="0.7" points="124.003728 6.96236364 115.323797 22.8964028 74.4391595 4.94284056"></polygon>
                    <polygon id="Path" fill="#3B3C43" opacity="0.7" points="42.1401731 14.1900098 30.6345612 63.136614 7.42335723 58.2006503"></polygon>
                    <polygon id="Path" fill="#45464D" opacity="0.7" points="29.2346996 71.7694448 30.2474759 124.369779 5.91177256 66.8122252"></polygon>
                </g>
            </g>
        </g>
        <path d="M893.5,585 C998.15796,585 1083,500.15796 1083,395.5 C1083,290.84204 998.15796,206 893.5,206 C788.84204,206 704,290.84204 704,395.5 C704,500.15796 788.84204,585 893.5,585 Z M893.5,583 C789.946609,583 706,499.053391 706,395.5 C706,291.946609 789.946609,208 893.5,208 C997.053391,208 1081,291.946609 1081,395.5 C1081,499.053391 997.053391,583 893.5,583 Z" id="Oval" fill="#9013FE" fill-rule="nonzero"></path>
        <path d="M893.5,632 C1024.11534,632 1130,526.115343 1130,395.5 C1130,264.884657 1024.11534,159 893.5,159 C762.884657,159 657,264.884657 657,395.5 C657,526.115343 762.884657,632 893.5,632 Z M893.5,630 C763.989226,630 659,525.010774 659,395.5 C659,265.989226 763.989226,161 893.5,161 C1023.01077,161 1128,265.989226 1128,395.5 C1128,525.010774 1023.01077,630 893.5,630 Z" id="Oval" fill="#9013FE" fill-rule="nonzero"></path>
        <circle id="Oval" fill="#9013FE" cx="1017.5" cy="196.5" r="10.5"></circle>
        <circle id="Oval" fill="#9013FE" cx="705.5" cy="384.5" r="10.5"></circle>
        <circle id="Oval" fill="#9013FE" cx="996.5" cy="554.5" r="10.5"></circle>
        <polygon id="Path-17" fill="#FFFFFF" fill-rule="nonzero" points="895.461373 48 896.144 83.028 906.142645 82.8330646 894.612925 107.0625 882.147209 83.3010622 892.145 83.106 891.538627 52 314 52 314 107.0625 310 107.0625 310 48"></polygon>
        <polygon id="Path-17" fill="#FFFFFF" fill-rule="nonzero" transform="translate(608.071323, 702.531250) scale(-1, -1) translate(-608.071323, -702.531250) " points="895.461373 673 896.144 708.028 906.142645 707.833065 894.612925 732.0625 882.147209 708.301062 892.145 708.106 891.538627 677 314 677 314 732.0625 310 732.0625 310 673"></polygon>
        <path d="M534.896,86.064 L534.896,114 L542.432,114 L542.432,86.064 L552.704,86.064 L552.704,79.728 L524.624,79.728 L524.624,86.064 L534.896,86.064 Z M561.968,101.616 C561.968,100.623995 562.063999,99.648 562.256,98.688 C562.448001,97.7279952 562.775998,96.8800037 563.24,96.144 C563.704002,95.4079963 564.319996,94.8080023 565.088,94.344 C565.856004,93.8799977 566.815994,93.648 567.968,93.648 C569.120006,93.648 570.087996,93.8799977 570.872,94.344 C571.656004,94.8080023 572.279998,95.4079963 572.744,96.144 C573.208002,96.8800037 573.535999,97.7279952 573.728,98.688 C573.920001,99.648 574.016,100.623995 574.016,101.616 C574.016,102.608005 573.920001,103.575995 573.728,104.52 C573.535999,105.464005 573.208002,106.311996 572.744,107.064 C572.279998,107.816004 571.656004,108.415998 570.872,108.864 C570.087996,109.312002 569.120006,109.536 567.968,109.536 C566.815994,109.536 565.856004,109.312002 565.088,108.864 C564.319996,108.415998 563.704002,107.816004 563.24,107.064 C562.775998,106.311996 562.448001,105.464005 562.256,104.52 C562.063999,103.575995 561.968,102.608005 561.968,101.616 Z M555.152,101.616 C555.152,103.60001 555.455997,105.391992 556.064,106.992 C556.672003,108.592008 557.535994,109.959994 558.656,111.096 C559.776006,112.232006 561.119992,113.103997 562.688,113.712 C564.256008,114.320003 566.01599,114.624 567.968,114.624 C569.92001,114.624 571.687992,114.320003 573.272,113.712 C574.856008,113.103997 576.207994,112.232006 577.328,111.096 C578.448006,109.959994 579.311997,108.592008 579.92,106.992 C580.528003,105.391992 580.832,103.60001 580.832,101.616 C580.832,99.6319901 580.528003,97.8320081 579.92,96.216 C579.311997,94.5999919 578.448006,93.2240057 577.328,92.088 C576.207994,90.9519943 574.856008,90.0720031 573.272,89.448 C571.687992,88.8239969 569.92001,88.512 567.968,88.512 C566.01599,88.512 564.256008,88.8239969 562.688,89.448 C561.119992,90.0720031 559.776006,90.9519943 558.656,92.088 C557.535994,93.2240057 556.672003,94.5999919 556.064,96.216 C555.455997,97.8320081 555.152,99.6319901 555.152,101.616 Z M585.872,79.728 L585.872,114 L592.688,114 L592.688,105.456 L595.328,102.912 L602.144,114 L610.4,114 L599.984,98.304 L609.344,89.184 L601.28,89.184 L592.688,98.112 L592.688,79.728 L585.872,79.728 Z M629.504,98.928 L618.416,98.928 C618.448,98.4479976 618.551999,97.904003 618.728,97.296 C618.904001,96.687997 619.207998,96.1120027 619.64,95.568 C620.072002,95.0239973 620.647996,94.5680018 621.368,94.2 C622.088004,93.8319982 622.991995,93.648 624.08,93.648 C625.744008,93.648 626.983996,94.0959955 627.8,94.992 C628.616004,95.8880045 629.183998,97.1999914 629.504,98.928 Z M618.416,103.248 L636.32,103.248 C636.448001,101.32799 636.288002,99.4880088 635.84,97.728 C635.391998,95.9679912 634.664005,94.4000069 633.656,93.024 C632.647995,91.6479931 631.360008,90.5520041 629.792,89.736 C628.223992,88.9199959 626.384011,88.512 624.272,88.512 C622.383991,88.512 620.664008,88.8479966 619.112,89.52 C617.559992,90.1920034 616.224006,91.1119942 615.104,92.28 C613.983994,93.4480058 613.120003,94.831992 612.512,96.432 C611.903997,98.032008 611.6,99.7599907 611.6,101.616 C611.6,103.53601 611.895997,105.295992 612.488,106.896 C613.080003,108.496008 613.919995,109.871994 615.008,111.024 C616.096005,112.176006 617.423992,113.063997 618.992,113.688 C620.560008,114.312003 622.31999,114.624 624.272,114.624 C627.088014,114.624 629.48799,113.984006 631.472,112.704 C633.45601,111.423994 634.927995,109.296015 635.888,106.32 L629.888,106.32 C629.663999,107.088004 629.056005,107.815997 628.064,108.504 C627.071995,109.192003 625.888007,109.536 624.512,109.536 C622.59199,109.536 621.120005,109.040005 620.096,108.048 C619.071995,107.055995 618.512,105.456011 618.416,103.248 Z M640.352,89.184 L640.352,114 L647.168,114 L647.168,100.992 C647.168,98.4639874 647.583996,96.6480055 648.416,95.544 C649.248004,94.4399945 650.591991,93.888 652.448,93.888 C654.080008,93.888 655.215997,94.391995 655.856,95.4 C656.496003,96.408005 656.816,97.9359898 656.816,99.984 L656.816,114 L663.632,114 L663.632,98.736 C663.632,97.1999923 663.496001,95.8000063 663.224,94.536 C662.951999,93.2719937 662.480003,92.2000044 661.808,91.32 C661.135997,90.4399956 660.216006,89.7520025 659.048,89.256 C657.879994,88.7599975 656.384009,88.512 654.56,88.512 C653.119993,88.512 651.712007,88.8399967 650.336,89.496 C648.959993,90.1520033 647.840004,91.1999928 646.976,92.64 L646.832,92.64 L646.832,89.184 L640.352,89.184 Z M674.096,105.936 C674.096,106.672004 674.247998,107.303997 674.552,107.832 C674.856002,108.360003 675.247998,108.791998 675.728,109.128 C676.208002,109.464002 676.759997,109.711999 677.384,109.872 C678.008003,110.032001 678.655997,110.112 679.328,110.112 C679.808002,110.112 680.311997,110.056001 680.84,109.944 C681.368003,109.831999 681.847998,109.656001 682.28,109.416 C682.712002,109.175999 683.071999,108.856002 683.36,108.456 C683.648001,108.055998 683.792,107.552003 683.792,106.944 C683.792,105.919995 683.112007,105.152003 681.752,104.64 C680.391993,104.127997 678.496012,103.616003 676.064,103.104 C675.071995,102.879999 674.104005,102.616002 673.16,102.312 C672.215995,102.007998 671.376004,101.608002 670.64,101.112 C669.903996,100.615998 669.312002,99.9920038 668.864,99.24 C668.415998,98.4879962 668.192,97.5680054 668.192,96.48 C668.192,94.879992 668.503997,93.5680051 669.128,92.544 C669.752003,91.5199949 670.575995,90.712003 671.6,90.12 C672.624005,89.527997 673.775994,89.1120012 675.056,88.872 C676.336006,88.6319988 677.647993,88.512 678.992,88.512 C680.336007,88.512 681.639994,88.6399987 682.904,88.896 C684.168006,89.1520013 685.295995,89.583997 686.288,90.192 C687.280005,90.800003 688.103997,91.607995 688.76,92.616 C689.416003,93.624005 689.807999,94.8959923 689.936,96.432 L683.456,96.432 C683.36,95.1199934 682.864004,94.2320023 681.968,93.768 C681.071996,93.3039977 680.016006,93.072 678.8,93.072 C678.415998,93.072 678.000002,93.0959998 677.552,93.144 C677.103998,93.1920002 676.696002,93.2959992 676.328,93.456 C675.959998,93.6160008 675.648001,93.8479985 675.392,94.152 C675.135999,94.4560015 675.008,94.8639974 675.008,95.376 C675.008,95.984003 675.231998,96.4799981 675.68,96.864 C676.128002,97.2480019 676.711996,97.5599988 677.432,97.8 C678.152004,98.0400012 678.975995,98.255999 679.904,98.448 C680.832005,98.640001 681.775995,98.8479989 682.736,99.072 C683.728005,99.2960011 684.695995,99.5679984 685.64,99.888 C686.584005,100.208002 687.423996,100.631997 688.16,101.16 C688.896004,101.688003 689.487998,102.343996 689.936,103.128 C690.384002,103.912004 690.608,104.879994 690.608,106.032 C690.608,107.664008 690.280003,109.031994 689.624,110.136 C688.967997,111.240006 688.112005,112.127997 687.056,112.8 C685.999995,113.472003 684.792007,113.943999 683.432,114.216 C682.071993,114.488001 680.688007,114.624 679.28,114.624 C677.839993,114.624 676.432007,114.480001 675.056,114.192 C673.679993,113.903999 672.456005,113.424003 671.384,112.752 C670.311995,112.079997 669.432003,111.192006 668.744,110.088 C668.055997,108.983994 667.68,107.600008 667.616,105.936 L674.096,105.936 Z" id="Tokens" fill="#FFFFFF" fill-rule="nonzero"></path>
        <path d="M519.344,685.664 L519.344,664.064 L524.72,664.064 C526.576009,664.064 528.135994,664.327997 529.4,664.856 C530.664006,665.384003 531.679996,666.143995 532.448,667.136 C533.216004,668.128005 533.767998,669.319993 534.104,670.712 C534.440002,672.104007 534.608,673.663991 534.608,675.392 C534.608,677.280009 534.368002,678.879993 533.888,680.192 C533.407998,681.504007 532.768004,682.567996 531.968,683.384 C531.167996,684.200004 530.256005,684.783998 529.232,685.136 C528.207995,685.488002 527.152005,685.664 526.064,685.664 L519.344,685.664 Z M511.808,657.728 L511.808,692 L526.592,692 C529.216013,692 531.49599,691.560004 533.432,690.68 C535.36801,689.799996 536.983994,688.592008 538.28,687.056 C539.576006,685.519992 540.543997,683.696011 541.184,681.584 C541.824003,679.471989 542.144,677.168012 542.144,674.672 C542.144,671.823986 541.752004,669.344011 540.968,667.232 C540.183996,665.119989 539.096007,663.360007 537.704,661.952 C536.311993,660.543993 534.66401,659.488004 532.76,658.784 C530.85599,658.079996 528.800011,657.728 526.592,657.728 L511.808,657.728 Z M563.36,676.928 L552.272,676.928 C552.304,676.447998 552.407999,675.904003 552.584,675.296 C552.760001,674.687997 553.063998,674.112003 553.496,673.568 C553.928002,673.023997 554.503996,672.568002 555.224,672.2 C555.944004,671.831998 556.847995,671.648 557.936,671.648 C559.600008,671.648 560.839996,672.095996 561.656,672.992 C562.472004,673.888004 563.039998,675.199991 563.36,676.928 Z M552.272,681.248 L570.176,681.248 C570.304001,679.32799 570.144002,677.488009 569.696,675.728 C569.247998,673.967991 568.520005,672.400007 567.512,671.024 C566.503995,669.647993 565.216008,668.552004 563.648,667.736 C562.079992,666.919996 560.240011,666.512 558.128,666.512 C556.239991,666.512 554.520008,666.847997 552.968,667.52 C551.415992,668.192003 550.080006,669.111994 548.96,670.28 C547.839994,671.448006 546.976003,672.831992 546.368,674.432 C545.759997,676.032008 545.456,677.759991 545.456,679.616 C545.456,681.53601 545.751997,683.295992 546.344,684.896 C546.936003,686.496008 547.775995,687.871994 548.864,689.024 C549.952005,690.176006 551.279992,691.063997 552.848,691.688 C554.416008,692.312003 556.17599,692.624 558.128,692.624 C560.944014,692.624 563.34399,691.984006 565.328,690.704 C567.31201,689.423994 568.783995,687.296015 569.744,684.32 L563.744,684.32 C563.519999,685.088004 562.912005,685.815997 561.92,686.504 C560.927995,687.192003 559.744007,687.536 558.368,687.536 C556.44799,687.536 554.976005,687.040005 553.952,686.048 C552.927995,685.055995 552.368,683.456011 552.272,681.248 Z M591.104,675.92 L597.776,675.92 C597.68,674.319992 597.296003,672.936006 596.624,671.768 C595.951997,670.599994 595.080005,669.624004 594.008,668.84 C592.935995,668.055996 591.720007,667.472002 590.36,667.088 C588.999993,666.703998 587.584007,666.512 586.112,666.512 C584.09599,666.512 582.304008,666.847997 580.736,667.52 C579.167992,668.192003 577.840005,669.127994 576.752,670.328 C575.663995,671.528006 574.840003,672.951992 574.28,674.6 C573.719997,676.248008 573.44,678.03199 573.44,679.952 C573.44,681.808009 573.743997,683.512 574.352,685.064 C574.960003,686.616008 575.807995,687.951994 576.896,689.072 C577.984005,690.192006 579.303992,691.063997 580.856,691.688 C582.408008,692.312003 584.111991,692.624 585.968,692.624 C589.264016,692.624 591.967989,691.760009 594.08,690.032 C596.192011,688.303991 597.471998,685.792016 597.92,682.496 L591.344,682.496 C591.119999,684.032008 590.568004,685.255995 589.688,686.168 C588.807996,687.080005 587.552008,687.536 585.92,687.536 C584.863995,687.536 583.968004,687.296002 583.232,686.816 C582.495996,686.335998 581.912002,685.720004 581.48,684.968 C581.047998,684.215996 580.736001,683.376005 580.544,682.448 C580.351999,681.519995 580.256,680.608004 580.256,679.712 C580.256,678.783995 580.351999,677.848005 580.544,676.904 C580.736001,675.959995 581.063998,675.096004 581.528,674.312 C581.992002,673.527996 582.591996,672.888002 583.328,672.392 C584.064004,671.895998 584.975995,671.648 586.064,671.648 C588.976015,671.648 590.655998,673.071986 591.104,675.92 Z M608.768,663.344 L608.768,657.728 L601.952,657.728 L601.952,663.344 L608.768,663.344 Z M601.952,667.184 L601.952,692 L608.768,692 L608.768,667.184 L601.952,667.184 Z M619.424,683.936 L612.944,683.936 C613.008,685.600008 613.383997,686.983994 614.072,688.088 C614.760003,689.192006 615.639995,690.079997 616.712,690.752 C617.784005,691.424003 619.007993,691.903999 620.384,692.192 C621.760007,692.480001 623.167993,692.624 624.608,692.624 C626.016007,692.624 627.399993,692.488001 628.76,692.216 C630.120007,691.943999 631.327995,691.472003 632.384,690.8 C633.440005,690.127997 634.295997,689.240006 634.952,688.136 C635.608003,687.031994 635.936,685.664008 635.936,684.032 C635.936,682.879994 635.712002,681.912004 635.264,681.128 C634.815998,680.343996 634.224004,679.688003 633.488,679.16 C632.751996,678.631997 631.912005,678.208002 630.968,677.888 C630.023995,677.567998 629.056005,677.296001 628.064,677.072 C627.103995,676.847999 626.160005,676.640001 625.232,676.448 C624.303995,676.255999 623.480004,676.040001 622.76,675.8 C622.039996,675.559999 621.456002,675.248002 621.008,674.864 C620.559998,674.479998 620.336,673.984003 620.336,673.376 C620.336,672.863997 620.463999,672.456002 620.72,672.152 C620.976001,671.847998 621.287998,671.616001 621.656,671.456 C622.024002,671.295999 622.431998,671.192 622.88,671.144 C623.328002,671.096 623.743998,671.072 624.128,671.072 C625.344006,671.072 626.399996,671.303998 627.296,671.768 C628.192004,672.232002 628.688,673.119993 628.784,674.432 L635.264,674.432 C635.135999,672.895992 634.744003,671.624005 634.088,670.616 C633.431997,669.607995 632.608005,668.800003 631.616,668.192 C630.623995,667.583997 629.496006,667.152001 628.232,666.896 C626.967994,666.639999 625.664007,666.512 624.32,666.512 C622.975993,666.512 621.664006,666.631999 620.384,666.872 C619.103994,667.112001 617.952005,667.527997 616.928,668.12 C615.903995,668.712003 615.080003,669.519995 614.456,670.544 C613.831997,671.568005 613.52,672.879992 613.52,674.48 C613.52,675.568005 613.743998,676.487996 614.192,677.24 C614.640002,677.992004 615.231996,678.615998 615.968,679.112 C616.704004,679.608002 617.543995,680.007998 618.488,680.312 C619.432005,680.616002 620.399995,680.879999 621.392,681.104 C623.824012,681.616003 625.719993,682.127997 627.08,682.64 C628.440007,683.152003 629.12,683.919995 629.12,684.944 C629.12,685.552003 628.976001,686.055998 628.688,686.456 C628.399999,686.856002 628.040002,687.175999 627.608,687.416 C627.175998,687.656001 626.696003,687.831999 626.168,687.944 C625.639997,688.056001 625.136002,688.112 624.656,688.112 C623.983997,688.112 623.336003,688.032001 622.712,687.872 C622.087997,687.711999 621.536002,687.464002 621.056,687.128 C620.575998,686.791998 620.184002,686.360003 619.88,685.832 C619.575998,685.303997 619.424,684.672004 619.424,683.936 Z M646.928,663.344 L646.928,657.728 L640.112,657.728 L640.112,663.344 L646.928,663.344 Z M640.112,667.184 L640.112,692 L646.928,692 L646.928,667.184 L640.112,667.184 Z M658.352,679.616 C658.352,678.623995 658.447999,677.648 658.64,676.688 C658.832001,675.727995 659.159998,674.880004 659.624,674.144 C660.088002,673.407996 660.703996,672.808002 661.472,672.344 C662.240004,671.879998 663.199994,671.648 664.352,671.648 C665.504006,671.648 666.471996,671.879998 667.256,672.344 C668.040004,672.808002 668.663998,673.407996 669.128,674.144 C669.592002,674.880004 669.919999,675.727995 670.112,676.688 C670.304001,677.648 670.4,678.623995 670.4,679.616 C670.4,680.608005 670.304001,681.575995 670.112,682.52 C669.919999,683.464005 669.592002,684.311996 669.128,685.064 C668.663998,685.816004 668.040004,686.415998 667.256,686.864 C666.471996,687.312002 665.504006,687.536 664.352,687.536 C663.199994,687.536 662.240004,687.312002 661.472,686.864 C660.703996,686.415998 660.088002,685.816004 659.624,685.064 C659.159998,684.311996 658.832001,683.464005 658.64,682.52 C658.447999,681.575995 658.352,680.608005 658.352,679.616 Z M651.536,679.616 C651.536,681.60001 651.839997,683.391992 652.448,684.992 C653.056003,686.592008 653.919994,687.959994 655.04,689.096 C656.160006,690.232006 657.503992,691.103997 659.072,691.712 C660.640008,692.320003 662.39999,692.624 664.352,692.624 C666.30401,692.624 668.071992,692.320003 669.656,691.712 C671.240008,691.103997 672.591994,690.232006 673.712,689.096 C674.832006,687.959994 675.695997,686.592008 676.304,684.992 C676.912003,683.391992 677.216,681.60001 677.216,679.616 C677.216,677.63199 676.912003,675.832008 676.304,674.216 C675.695997,672.599992 674.832006,671.224006 673.712,670.088 C672.591994,668.951994 671.240008,668.072003 669.656,667.448 C668.071992,666.823997 666.30401,666.512 664.352,666.512 C662.39999,666.512 660.640008,666.823997 659.072,667.448 C657.503992,668.072003 656.160006,668.951994 655.04,670.088 C653.919994,671.224006 653.056003,672.599992 652.448,674.216 C651.839997,675.832008 651.536,677.63199 651.536,679.616 Z M681.632,667.184 L688.112,667.184 L688.112,670.64 L688.256,670.64 C689.120004,669.199993 690.239993,668.152003 691.616,667.496 C692.992007,666.839997 694.399993,666.512 695.84,666.512 C697.664009,666.512 699.159994,666.759998 700.328,667.256 C701.496006,667.752002 702.415997,668.439996 703.088,669.32 C703.760003,670.200004 704.231999,671.271994 704.504,672.536 C704.776001,673.800006 704.912,675.199992 704.912,676.736 L704.912,692 L698.096,692 L698.096,677.984 C698.096,675.93599 697.776003,674.408005 697.136,673.4 C696.495997,672.391995 695.360008,671.888 693.728,671.888 C691.871991,671.888 690.528004,672.439994 689.696,673.544 C688.863996,674.648006 688.448,676.463987 688.448,678.992 L688.448,692 L681.632,692 L681.632,667.184 Z" id="Decision" fill="#FFFFFF" fill-rule="nonzero"></path>
        <path d="M276.624,358.664 L276.624,337.064 L282,337.064 C283.856009,337.064 285.415994,337.327997 286.68,337.856 C287.944006,338.384003 288.959996,339.143995 289.728,340.136 C290.496004,341.128005 291.047998,342.319993 291.384,343.712 C291.720002,345.104007 291.888,346.663991 291.888,348.392 C291.888,350.280009 291.648002,351.879993 291.168,353.192 C290.687998,354.504007 290.048004,355.567996 289.248,356.384 C288.447996,357.200004 287.536005,357.783998 286.512,358.136 C285.487995,358.488002 284.432005,358.664 283.344,358.664 L276.624,358.664 Z M269.088,330.728 L269.088,365 L283.872,365 C286.496013,365 288.77599,364.560004 290.712,363.68 C292.64801,362.799996 294.263994,361.592008 295.56,360.056 C296.856006,358.519992 297.823997,356.696011 298.464,354.584 C299.104003,352.471989 299.424,350.168012 299.424,347.672 C299.424,344.823986 299.032004,342.344011 298.248,340.232 C297.463996,338.119989 296.376007,336.360007 294.984,334.952 C293.591993,333.543993 291.94401,332.488004 290.04,331.784 C288.13599,331.079996 286.080011,330.728 283.872,330.728 L269.088,330.728 Z M320.64,349.928 L309.552,349.928 C309.584,349.447998 309.687999,348.904003 309.864,348.296 C310.040001,347.687997 310.343998,347.112003 310.776,346.568 C311.208002,346.023997 311.783996,345.568002 312.504,345.2 C313.224004,344.831998 314.127995,344.648 315.216,344.648 C316.880008,344.648 318.119996,345.095996 318.936,345.992 C319.752004,346.888004 320.319998,348.199991 320.64,349.928 Z M309.552,354.248 L327.456,354.248 C327.584001,352.32799 327.424002,350.488009 326.976,348.728 C326.527998,346.967991 325.800005,345.400007 324.792,344.024 C323.783995,342.647993 322.496008,341.552004 320.928,340.736 C319.359992,339.919996 317.520011,339.512 315.408,339.512 C313.519991,339.512 311.800008,339.847997 310.248,340.52 C308.695992,341.192003 307.360006,342.111994 306.24,343.28 C305.119994,344.448006 304.256003,345.831992 303.648,347.432 C303.039997,349.032008 302.736,350.759991 302.736,352.616 C302.736,354.53601 303.031997,356.295992 303.624,357.896 C304.216003,359.496008 305.055995,360.871994 306.144,362.024 C307.232005,363.176006 308.559992,364.063997 310.128,364.688 C311.696008,365.312003 313.45599,365.624 315.408,365.624 C318.224014,365.624 320.62399,364.984006 322.608,363.704 C324.59201,362.423994 326.063995,360.296015 327.024,357.32 L321.024,357.32 C320.799999,358.088004 320.192005,358.815997 319.2,359.504 C318.207995,360.192003 317.024007,360.536 315.648,360.536 C313.72799,360.536 312.256005,360.040005 311.232,359.048 C310.207995,358.055995 309.648,356.456011 309.552,354.248 Z M332.976,344.744 L332.976,365 L339.792,365 L339.792,344.744 L344.496,344.744 L344.496,340.184 L339.792,340.184 L339.792,338.696 C339.792,337.671995 339.991998,336.944002 340.392,336.512 C340.792002,336.079998 341.455995,335.864 342.384,335.864 C343.248004,335.864 344.079996,335.912 344.88,336.008 L344.88,330.92 C344.303997,330.888 343.712003,330.848 343.104,330.8 C342.495997,330.752 341.888003,330.728 341.28,330.728 C338.495986,330.728 336.416007,331.431993 335.04,332.84 C333.663993,334.248007 332.976,336.055989 332.976,338.264 L332.976,340.184 L328.896,340.184 L328.896,344.744 L332.976,344.744 Z M348.624,340.184 L348.624,365 L355.44,365 L355.44,340.184 L348.624,340.184 Z M355.44,336.344 L355.44,330.728 L348.624,330.728 L348.624,336.344 L355.44,336.344 Z M240.168,403.856 L240.168,393.584 L246.024,393.584 C246.888004,393.584 247.719996,393.647999 248.52,393.776 C249.320004,393.904001 250.023997,394.151998 250.632,394.52 C251.240003,394.888002 251.727998,395.407997 252.096,396.08 C252.464002,396.752003 252.648,397.631995 252.648,398.72 C252.648,399.808005 252.464002,400.687997 252.096,401.36 C251.727998,402.032003 251.240003,402.551998 250.632,402.92 C250.023997,403.288002 249.320004,403.535999 248.52,403.664 C247.719996,403.792001 246.888004,403.856 246.024,403.856 L240.168,403.856 Z M232.632,387.728 L232.632,422 L240.168,422 L240.168,409.712 L248.088,409.712 C250.232011,409.712 252.055992,409.400003 253.56,408.776 C255.064008,408.151997 256.287995,407.328005 257.232,406.304 C258.176005,405.279995 258.863998,404.104007 259.296,402.776 C259.728002,401.447993 259.944,400.096007 259.944,398.72 C259.944,397.311993 259.728002,395.952007 259.296,394.64 C258.863998,393.327993 258.176005,392.160005 257.232,391.136 C256.287995,390.111995 255.064008,389.288003 253.56,388.664 C252.055992,388.039997 250.232011,387.728 248.088,387.728 L232.632,387.728 Z M263.928,397.184 L263.928,422 L270.744,422 L270.744,410.816 C270.744,409.695994 270.855999,408.656005 271.08,407.696 C271.304001,406.735995 271.679997,405.896004 272.208,405.176 C272.736003,404.455996 273.431996,403.888002 274.296,403.472 C275.160004,403.055998 276.215994,402.848 277.464,402.848 C277.880002,402.848 278.311998,402.872 278.76,402.92 C279.208002,402.968 279.591998,403.024 279.912,403.088 L279.912,396.752 C279.367997,396.591999 278.872002,396.512 278.424,396.512 C277.559996,396.512 276.728004,396.639999 275.928,396.896 C275.127996,397.152001 274.376004,397.512 273.672,397.976 C272.967996,398.440002 272.344003,398.999997 271.8,399.656 C271.255997,400.312003 270.824002,401.023996 270.504,401.792 L270.408,401.792 L270.408,397.184 L263.928,397.184 Z M288.648,409.616 C288.648,408.623995 288.743999,407.648 288.936,406.688 C289.128001,405.727995 289.455998,404.880004 289.92,404.144 C290.384002,403.407996 290.999996,402.808002 291.768,402.344 C292.536004,401.879998 293.495994,401.648 294.648,401.648 C295.800006,401.648 296.767996,401.879998 297.552,402.344 C298.336004,402.808002 298.959998,403.407996 299.424,404.144 C299.888002,404.880004 300.215999,405.727995 300.408,406.688 C300.600001,407.648 300.696,408.623995 300.696,409.616 C300.696,410.608005 300.600001,411.575995 300.408,412.52 C300.215999,413.464005 299.888002,414.311996 299.424,415.064 C298.959998,415.816004 298.336004,416.415998 297.552,416.864 C296.767996,417.312002 295.800006,417.536 294.648,417.536 C293.495994,417.536 292.536004,417.312002 291.768,416.864 C290.999996,416.415998 290.384002,415.816004 289.92,415.064 C289.455998,414.311996 289.128001,413.464005 288.936,412.52 C288.743999,411.575995 288.648,410.608005 288.648,409.616 Z M281.832,409.616 C281.832,411.60001 282.135997,413.391992 282.744,414.992 C283.352003,416.592008 284.215994,417.959994 285.336,419.096 C286.456006,420.232006 287.799992,421.103997 289.368,421.712 C290.936008,422.320003 292.69599,422.624 294.648,422.624 C296.60001,422.624 298.367992,422.320003 299.952,421.712 C301.536008,421.103997 302.887994,420.232006 304.008,419.096 C305.128006,417.959994 305.991997,416.592008 306.6,414.992 C307.208003,413.391992 307.512,411.60001 307.512,409.616 C307.512,407.63199 307.208003,405.832008 306.6,404.216 C305.991997,402.599992 305.128006,401.224006 304.008,400.088 C302.887994,398.951994 301.536008,398.072003 299.952,397.448 C298.367992,396.823997 296.60001,396.512 294.648,396.512 C292.69599,396.512 290.936008,396.823997 289.368,397.448 C287.799992,398.072003 286.456006,398.951994 285.336,400.088 C284.215994,401.224006 283.352003,402.599992 282.744,404.216 C282.135997,405.832008 281.832,407.63199 281.832,409.616 Z M319.368,393.344 L319.368,387.728 L312.552,387.728 L312.552,393.344 L319.368,393.344 Z M308.472,424.88 L308.472,430.496 C309.112003,430.624001 309.831996,430.688 310.632,430.688 C312.360009,430.688 313.783994,430.536002 314.904,430.232 C316.024006,429.927998 316.911997,429.464003 317.568,428.84 C318.224003,428.215997 318.687999,427.440005 318.96,426.512 C319.232001,425.583995 319.368,424.480006 319.368,423.2 L319.368,397.184 L312.552,397.184 L312.552,422.864 C312.552,423.792005 312.288003,424.391999 311.76,424.664 C311.231997,424.936001 310.616004,425.072 309.912,425.072 C309.303997,425.072 308.824002,425.008001 308.472,424.88 Z M341.976,406.928 L330.888,406.928 C330.92,406.447998 331.023999,405.904003 331.2,405.296 C331.376001,404.687997 331.679998,404.112003 332.112,403.568 C332.544002,403.023997 333.119996,402.568002 333.84,402.2 C334.560004,401.831998 335.463995,401.648 336.552,401.648 C338.216008,401.648 339.455996,402.095996 340.272,402.992 C341.088004,403.888004 341.655998,405.199991 341.976,406.928 Z M330.888,411.248 L348.792,411.248 C348.920001,409.32799 348.760002,407.488009 348.312,405.728 C347.863998,403.967991 347.136005,402.400007 346.128,401.024 C345.119995,399.647993 343.832008,398.552004 342.264,397.736 C340.695992,396.919996 338.856011,396.512 336.744,396.512 C334.855991,396.512 333.136008,396.847997 331.584,397.52 C330.031992,398.192003 328.696006,399.111994 327.576,400.28 C326.455994,401.448006 325.592003,402.831992 324.984,404.432 C324.375997,406.032008 324.072,407.759991 324.072,409.616 C324.072,411.53601 324.367997,413.295992 324.96,414.896 C325.552003,416.496008 326.391995,417.871994 327.48,419.024 C328.568005,420.176006 329.895992,421.063997 331.464,421.688 C333.032008,422.312003 334.79199,422.624 336.744,422.624 C339.560014,422.624 341.95999,421.984006 343.944,420.704 C345.92801,419.423994 347.399995,417.296015 348.36,414.32 L342.36,414.32 C342.135999,415.088004 341.528005,415.815997 340.536,416.504 C339.543995,417.192003 338.360007,417.536 336.984,417.536 C335.06399,417.536 333.592005,417.040005 332.568,416.048 C331.543995,415.055995 330.984,413.456011 330.888,411.248 Z M369.72,405.92 L376.392,405.92 C376.296,404.319992 375.912003,402.936006 375.24,401.768 C374.567997,400.599994 373.696005,399.624004 372.624,398.84 C371.551995,398.055996 370.336007,397.472002 368.976,397.088 C367.615993,396.703998 366.200007,396.512 364.728,396.512 C362.71199,396.512 360.920008,396.847997 359.352,397.52 C357.783992,398.192003 356.456005,399.127994 355.368,400.328 C354.279995,401.528006 353.456003,402.951992 352.896,404.6 C352.335997,406.248008 352.056,408.03199 352.056,409.952 C352.056,411.808009 352.359997,413.512 352.968,415.064 C353.576003,416.616008 354.423995,417.951994 355.512,419.072 C356.600005,420.192006 357.919992,421.063997 359.472,421.688 C361.024008,422.312003 362.727991,422.624 364.584,422.624 C367.880016,422.624 370.583989,421.760009 372.696,420.032 C374.808011,418.303991 376.087998,415.792016 376.536,412.496 L369.96,412.496 C369.735999,414.032008 369.184004,415.255995 368.304,416.168 C367.423996,417.080005 366.168008,417.536 364.536,417.536 C363.479995,417.536 362.584004,417.296002 361.848,416.816 C361.111996,416.335998 360.528002,415.720004 360.096,414.968 C359.663998,414.215996 359.352001,413.376005 359.16,412.448 C358.967999,411.519995 358.872,410.608004 358.872,409.712 C358.872,408.783995 358.967999,407.848005 359.16,406.904 C359.352001,405.959995 359.679998,405.096004 360.144,404.312 C360.608002,403.527996 361.207996,402.888002 361.944,402.392 C362.680004,401.895998 363.591995,401.648 364.68,401.648 C367.592015,401.648 369.271998,403.071986 369.72,405.92 Z M389.016,397.184 L394.008,397.184 L394.008,401.744 L389.016,401.744 L389.016,414.032 C389.016,415.184006 389.207998,415.951998 389.592,416.336 C389.976002,416.720002 390.743994,416.912 391.896,416.912 C392.280002,416.912 392.647998,416.896 393,416.864 C393.352002,416.832 393.687998,416.784 394.008,416.72 L394.008,422 C393.431997,422.096 392.792004,422.16 392.088,422.192 C391.383996,422.224 390.696003,422.24 390.024,422.24 C388.967995,422.24 387.968005,422.168001 387.024,422.024 C386.079995,421.879999 385.248004,421.600002 384.528,421.184 C383.807996,420.767998 383.240002,420.176004 382.824,419.408 C382.407998,418.639996 382.2,417.632006 382.2,416.384 L382.2,401.744 L378.072,401.744 L378.072,397.184 L382.2,397.184 L382.2,389.744 L389.016,389.744 L389.016,397.184 Z" id="DefProject" fill="#FFFFFF" fill-rule="nonzero"></path>
    </g>
</svg>
