<svg width="312" height="191" viewBox="0 0 312 191" fill="none" xmlns="http://www.w3.org/2000/svg">
<path d="M197.723 26.0301L193.892 29.8606C195.467 32.2826 196.459 35.0364 196.791 37.9061C197.124 40.7758 196.787 43.6835 195.807 46.4013C194.112 51.1038 190.623 54.9434 186.104 57.0805C181.585 59.2177 176.403 59.4784 171.693 57.8057C170.342 57.3264 169.056 56.6832 167.862 55.8904L155.587 68.1654L144.879 57.3704C142.358 59.0508 139.48 60.1221 136.474 60.4998C133.467 60.8775 130.414 60.5512 127.555 59.5468C125.162 58.6947 122.961 57.3782 121.078 55.6728C119.195 53.9674 117.668 51.9068 116.584 49.6093C115.5 47.3119 114.88 44.8229 114.761 42.2853C114.642 39.7478 115.026 37.2117 115.89 34.8228C116.421 33.3098 117.153 31.8751 118.066 30.557L113.452 25.9431L112.581 27.423C107.914 35.0574 105.363 43.7966 105.191 52.7429C105.019 61.6893 107.231 70.5203 111.6 78.3288C115.97 86.1373 122.339 92.642 130.055 97.1745C137.77 101.707 146.552 104.104 155.5 104.12H155.587C164.527 104.125 173.307 101.751 181.026 97.2413C188.745 92.7321 195.126 86.2501 199.512 78.4606C203.899 70.6711 206.134 61.8547 205.987 52.9162C205.841 43.9776 203.319 35.239 198.68 27.5971L197.723 26.0301Z" fill="#001428"/>
<path d="M123.724 36.2157C122.368 38.024 121.635 40.2234 121.635 42.4838C121.639 45.2068 122.723 47.817 124.649 49.7425C126.574 51.668 129.184 52.7518 131.907 52.7564C134.184 52.768 136.396 52 138.175 50.58L123.724 36.2157Z" fill="#001428"/>
<path d="M174.13 49.7094C175.82 50.867 177.827 51.475 179.876 51.4506C182.599 51.446 185.209 50.3622 187.134 48.4367C189.06 46.5112 190.144 43.901 190.148 41.1779C190.16 39.131 189.553 37.1283 188.407 35.4322L174.13 49.7094Z" fill="#001428"/>
<path d="M155.761 60.5044L114.148 18.7174L115.803 16.9762C120.846 11.5979 126.942 7.31522 133.711 4.39468C140.481 1.47414 147.779 -0.0217149 155.152 0.000238177H155.239C162.791 0.0110935 170.256 1.60491 177.154 4.67885C184.051 7.75279 190.228 12.2386 195.285 17.8468L196.852 19.5879L155.761 60.5044ZM120.939 18.7174L155.761 53.627L190.149 19.4138C180.924 10.1486 168.401 4.92019 155.326 4.8754H155.239C142.431 4.80458 130.11 9.77684 120.939 18.7174V18.7174Z" fill="#001428"/>
<path d="M109.882 87.4049L105.007 87.0566C84.2877 85.7508 55.7332 80.6145 37.2772 63.9867C25.8729 53.8011 23.6965 44.1378 23.6094 43.7026L23 40.7426H98.3908L97.9555 43.5285C97.6083 46.0673 97.4338 48.6269 97.4332 51.1894C97.3929 62.6193 100.757 73.8024 107.096 83.3132L109.882 87.4049Z" fill="#001428"/>
<path d="M201.118 87.4049L203.817 83.3132C210.143 73.861 213.507 62.7373 213.48 51.3635C213.482 48.7431 213.308 46.1254 212.958 43.5285L212.61 40.7426H288L287.391 43.7026C287.304 44.1378 285.128 53.8011 273.81 63.9867C255.354 80.6145 226.713 85.7508 205.993 87.0566L201.118 87.4049Z" fill="#001428"/>
<path d="M43.9009 162.49V178.42C39.8133 180.87 34.9899 182.341 30.7388 182.341C19.0482 182.341 9.81025 173.437 9.81025 162C9.81025 150.645 18.9665 141.741 30.657 141.741C36.6249 141.741 42.7563 144.192 47.171 148.276L52.6483 141.169C47.0074 136.268 38.8322 133.163 30.657 133.163C13.3256 133.163 0 145.662 0 162C0 178.338 13.1621 191 30.0848 191C37.933 191 46.5169 187.977 52.3213 183.566V162.49H43.9009Z" fill="#001428"/>
<path d="M115.599 190.592V133.408H106.116V174.499L75.4591 133.408H65.9758V190.592H75.6226V149.583L106.116 190.592H115.599Z" fill="#001428"/>
<path d="M156.311 133.163C139.225 133.163 125.981 145.58 125.981 162C125.981 178.338 139.225 191 156.311 191C173.397 191 186.641 178.338 186.641 162C186.641 145.662 173.397 133.163 156.311 133.163ZM156.393 141.823C167.593 141.823 176.749 150.645 176.749 162C176.749 173.355 167.593 182.341 156.393 182.341C145.193 182.341 135.791 173.355 135.791 162C135.791 150.645 145.111 141.823 156.393 141.823Z" fill="#001428"/>
<path d="M215.71 133C203.284 133 194.863 139.127 194.863 148.93C194.863 169.27 225.765 162.163 225.765 174.907C225.765 179.318 221.76 181.851 215.056 181.851C208.924 181.851 201.567 178.91 195.681 173.518L191.511 181.851C197.397 187.242 205.9 190.918 214.892 190.918C227.482 190.918 236.475 184.628 236.475 174.417C236.557 153.831 205.654 160.53 205.654 148.031C205.654 144.192 209.333 142.068 214.974 142.068C219.307 142.068 225.52 143.62 231.733 147.377L235.739 138.882C230.425 135.369 223.149 133 215.71 133Z" fill="#001428"/>
<path d="M257.409 190.592V133.408H247.762V190.592H257.409Z" fill="#001428"/>
<path d="M291.235 133C278.808 133 270.388 139.127 270.388 148.93C270.388 169.27 301.29 162.163 301.29 174.907C301.29 179.318 297.284 181.851 290.581 181.851C284.449 181.851 277.092 178.91 271.206 173.518L267.036 181.851C272.922 187.242 281.425 190.918 290.417 190.918C303.007 190.918 312 184.628 312 174.417C312.082 153.831 281.179 160.53 281.179 148.031C281.179 144.192 284.858 142.068 290.499 142.068C294.832 142.068 301.045 143.62 307.258 147.377L311.264 138.882C305.95 135.369 298.674 133 291.235 133Z" fill="#001428"/>
</svg>
