<svg width="1098" height="411" viewBox="0 0 1098 411" fill="none" xmlns="http://www.w3.org/2000/svg">
<path fill-rule="evenodd" clip-rule="evenodd" d="M454.358 0L686.155 10.4001L780 219.707L647.602 411L414.545 396.019L319 169.236L454.358 0ZM624.296 120.65L456.305 194.326L599.927 305.794L624.296 120.65ZM604.847 83.7313L470.594 25.7059L442.393 147.707L604.847 83.7313ZM570.818 333.84L424.912 229.257L428.441 370.973L570.818 333.84ZM756.695 219.246L657.267 117.969L631.024 312.72L756.695 219.246ZM605.027 356.62L481.974 388.904L626.684 398.205L605.027 356.62ZM737.265 265.195L629.549 345.742L650.953 387.729L737.265 265.195ZM686.315 39.6444L665.393 82.7569L743.266 162.217L686.315 39.6444ZM660.248 19.0136L523.501 13.4417L636.301 62.9676L660.248 19.0136ZM434.389 38.9504L338.607 160.357L402.645 173.972L434.389 38.9504ZM398.784 197.788L334.437 184.112L401.578 342.889L398.784 197.788Z" fill="url(#paint0_linear)"/>
<path fill-rule="evenodd" clip-rule="evenodd" d="M846.779 51L950.861 55.656L993 149.36L933.55 235L828.902 228.293L786 126.765L846.779 51ZM923.085 105.013L847.653 137.997L912.143 187.9L923.085 105.013ZM914.352 88.4855L854.069 62.5083L841.406 117.127L914.352 88.4855ZM899.072 200.456L833.557 153.636L835.142 217.08L899.072 200.456ZM982.535 149.154L937.89 103.813L926.106 191.001L982.535 149.154ZM914.433 210.655L859.179 225.108L924.157 229.272L914.433 210.655ZM973.811 169.725L925.444 205.785L935.055 224.582L973.811 169.725ZM950.933 68.7483L941.539 88.0493L976.506 123.622L950.933 68.7483ZM939.228 59.5122L877.826 57.0177L928.476 79.1899L939.228 59.5122ZM837.813 68.4377L794.804 122.79L823.559 128.885L837.813 68.4377ZM821.825 139.547L792.932 133.425L823.08 204.507L821.825 139.547Z" fill="#9013FE" fill-opacity="0.16"/>
<path fill-rule="evenodd" clip-rule="evenodd" d="M165.779 51L269.861 55.656L312 149.36L252.55 235L147.902 228.293L105 126.765L165.779 51ZM242.085 105.013L166.653 137.997L231.143 187.9L242.085 105.013ZM233.352 88.4855L173.069 62.5083L160.406 117.127L233.352 88.4855ZM218.072 200.456L152.557 153.636L154.142 217.08L218.072 200.456ZM301.535 149.154L256.89 103.813L245.106 191.001L301.535 149.154ZM233.433 210.655L178.179 225.108L243.157 229.272L233.433 210.655ZM292.811 169.725L244.444 205.785L254.055 224.582L292.811 169.725ZM269.933 68.7483L260.539 88.0493L295.506 123.622L269.933 68.7483ZM258.228 59.5122L196.826 57.0177L247.476 79.1899L258.228 59.5122ZM156.813 68.4377L113.804 122.79L142.559 128.885L156.813 68.4377ZM140.825 139.547L111.932 133.425L142.08 204.507L140.825 139.547Z" fill="#9013FE" fill-opacity="0.16"/>
<path fill-rule="evenodd" clip-rule="evenodd" d="M1028.77 51L1078.05 53.2015L1098 97.5074L1069.85 138L1020.31 134.829L1000 86.8236L1028.77 51ZM1064.9 76.539L1029.19 92.1346L1059.72 115.73L1064.9 76.539ZM1060.77 68.7241L1032.23 56.4414L1026.23 82.2664L1060.77 68.7241ZM1053.53 121.667L1022.51 99.5289L1023.27 129.527L1053.53 121.667ZM1093.05 97.4097L1071.91 75.9715L1066.33 117.196L1093.05 97.4097ZM1060.8 126.489L1034.65 133.323L1065.41 135.292L1060.8 126.489ZM1088.92 107.136L1066.02 124.186L1070.57 133.074L1088.92 107.136ZM1078.08 59.3919L1073.64 68.5179L1090.19 85.3378L1078.08 59.3919ZM1072.54 55.0248L1043.47 53.8453L1067.45 64.3289L1072.54 55.0248ZM1024.53 59.245L1004.17 84.9441L1017.78 87.8263L1024.53 59.245ZM1016.96 92.8675L1003.28 89.9727L1017.55 123.582L1016.96 92.8675Z" fill="#9013FE" fill-opacity="0.12"/>
<path fill-rule="evenodd" clip-rule="evenodd" d="M28.7747 51L78.0502 53.2015L98 97.5074L69.8546 138L20.3112 134.829L0 86.8236L28.7747 51ZM64.9002 76.539L29.1885 92.1346L59.7198 115.73L64.9002 76.539ZM60.7657 68.7241L32.2261 56.4414L26.231 82.2664L60.7657 68.7241ZM53.5319 121.667L22.5149 99.5289L23.2652 129.527L53.5319 121.667ZM93.0458 97.4097L71.9093 75.9715L66.3305 117.196L93.0458 97.4097ZM60.8041 126.489L34.6453 133.323L65.4078 135.292L60.8041 126.489ZM88.9152 107.136L66.017 124.186L70.5669 133.074L88.9152 107.136ZM78.0842 59.3919L73.6367 68.5179L90.1911 85.3378L78.0842 59.3919ZM72.5429 55.0248L43.4731 53.8453L67.4522 64.3289L72.5429 55.0248ZM24.5296 59.245L4.16816 84.9441L17.7814 87.8263L24.5296 59.245ZM16.9606 92.8675L3.28169 89.9727L17.5546 123.582L16.9606 92.8675Z" fill="#9013FE" fill-opacity="0.12"/>
<defs>
<linearGradient id="paint0_linear" x1="549.5" y1="0" x2="549.5" y2="411" gradientUnits="userSpaceOnUse">
<stop stop-color="#9013FE"/>
<stop offset="1" stop-color="#9013FE" stop-opacity="0"/>
</linearGradient>
</defs>
</svg>
