<?xml version="1.0" encoding="UTF-8"?>
<svg width="610px" height="697px" viewBox="0 0 610 697" version="1.1" xmlns="http://www.w3.org/2000/svg" xmlns:xlink="http://www.w3.org/1999/xlink">
    <!-- Generator: Sketch 58 (84663) - https://sketch.com -->
    <title>Group 114 Copy 2</title>
    <desc>Created with Sketch.</desc>
    <defs>
        <linearGradient x1="27.5896563%" y1="13.597511%" x2="62.4996925%" y2="51.4716746%" id="heraldlinearGradient1">
            <stop stop-color="#9013FE" offset="0%"></stop>
            <stop stop-color="#BD73FF" offset="100%"></stop>
        </linearGradient>
        <linearGradient x1="50%" y1="-2.48949813e-15%" x2="50%" y2="100%" id="heraldlinearGradient2">
            <stop stop-color="#BD73FF" offset="0%"></stop>
            <stop stop-color="#FFFFFF" offset="100%"></stop>
        </linearGradient>
    </defs>
    <g id="Logos,-Icons,-Illustrations" stroke="none" stroke-width="1" fill="none" fill-rule="evenodd">
        <g id="guild-of-justice" transform="translate(-1027.000000, -855.000000)">
            <g id="Group-114-Copy-2" transform="translate(1027.000000, 855.000000)">
                <path d="M609.329956,49.9903382 L609.329956,362.886915 C609.329956,508.320805 529.513149,573.727671 400.599596,644.417091 L304.89692,696.803978 L209.194244,644.417091 C80.2806913,573.727671 0.46388443,508.320805 0.46388443,362.886915 L0.46388443,49.9903382 C111.059117,17.1293479 215.592658,0.698852772 314.064506,0.698852772 C412.536354,0.698852772 510.958171,17.1293479 609.329956,49.9903382 Z" id="fill" fill="url(#heraldlinearGradient1)" opacity="0.975771949"></path>
                <path d="M573,82.4337527 L573,358.146128 C573,486.296854 502.735273,542.549913 389.249455,604.838699 L305,651 L220.750545,604.838699 C107.264727,542.549913 37,486.296854 37,358.146128 L37,82.4337527 C134.359744,53.4779176 226.383228,39 313.070455,39 C399.757681,39 486.400862,53.4779176 573,82.4337527 Z" id="fill" fill="#4D00B4"></path>
                <path d="M560.633912,92.4077666 L562,92.8642946 L562,356.50171 C562,415.570314 546.488407,460.571691 514.606417,498.574567 C487.197683,531.245386 449.213211,558.246309 386.123354,592.855701 L305,637.28025 L223.875357,592.854995 C160.786789,558.246309 122.802317,531.245386 95.3935833,498.574567 C63.5115928,460.571691 48,415.570314 48,356.50171 L48,92.8126606 L52.2130792,91.5640056 C143.999876,64.5235741 230.822291,51 312.678977,51 C395.379629,51 478.033742,64.8039174 560.633912,92.4077666 Z M560,94.3046472 C477.601567,66.7682157 395.161226,53 312.678977,53 C230.196729,53 142.63707,66.7682157 50,94.3046472 L50,356.50171 C50,478.370537 116.856364,531.866094 224.837273,591.101508 L305,635 L385.162727,591.101508 C493.143636,531.866094 560,478.370537 560,356.50171 L560,94.3046472 Z" id="fill" fill="url(#heraldlinearGradient2)" fill-rule="nonzero"></path>
                <g id="kleros" transform="translate(176.000000, 93.000000)" fill="#FFFFFF">
                    <polygon id="Fill-1" points="23.4042186 0 7.94579856 17.1840701 5.78651844 17.1840701 5.78651844 0.950294782 0 0.950294782 0 39.0492392 5.78651844 39.0492392 5.78651844 21.2061613 7.77296808 21.2061613 25.9950245 40 30.4 36.8554983 12.868715 18.9397152 27.8086437 2.92498777"></polygon>
                    <polygon id="Fill-2" points="52 0 57.3596461 0 57.3596461 33.2699239 79.2 33.2699239 79.2 37.6 52 37.6"></polygon>
                    <polygon id="Fill-3" points="100.8 0 128 0 128 4.33007609 106.40717 4.33007609 106.40717 15.5885499 124.233616 15.5885499 124.233616 19.918626 106.40717 19.918626 106.40717 33.2699239 128 33.2699239 128 37.6 100.8 37.6"></polygon>
                    <path d="M162.072847,17.8275866 C167.639268,17.8275866 171.321652,15.0557962 171.321652,10.6364949 C171.321652,7.11566233 168.924036,4.49425329 163.786054,4.49425329 L154.53725,4.49425329 L154.53725,17.8275866 L162.072847,17.8275866 Z M148.8,0 L163.956883,0 C171.407885,0 177.315964,3.07159822 177.315964,10.6364949 C177.315964,15.4305561 173.634126,20.1496652 168.238535,21.5727977 L179.2,37.3781135 L174.232847,40 L162.844036,22.3218399 L154.53725,22.3218399 L154.53725,39.0256245 L148.8,39.0256245 L148.8,0 Z" id="Fill-4"></path>
                    <path d="M204.150729,20.0366556 C204.150729,25.6768869 205.301189,35.3246385 213.6,35.3246385 C221.898811,35.3246385 223.048748,25.6768869 223.048748,20.0366556 C223.048748,14.3226401 221.898811,4.67536153 213.6,4.67536153 C205.301189,4.67536153 204.150729,14.3226401 204.150729,20.0366556 M228.8,20.0366556 C228.8,23.1540363 228.553884,40 213.6,40 C206.698811,40 198.4,35.5474099 198.4,20.0366556 C198.4,4.60063142 206.533862,0 213.6,0 C220.418975,0 228.8,4.45306311 228.8,20.0366556" id="Fill-6"></path>
                    <path d="M255.214168,27.0869791 C256.257392,31.8365416 258.744252,35.3246938 264.361293,35.3246938 C268.775047,35.3246938 272.224843,33.097952 272.224843,28.7934541 C272.224843,24.0438916 267.891376,22.8572104 263.799793,21.298775 C257.701028,18.9239938 251.923924,17.4398146 251.923924,10.1669583 C251.923924,3.63666462 257.621253,0 264.200207,0 C271.18162,0 275.273714,3.71092087 276.958725,9.72189377 L271.823407,11.1318167 C270.860471,7.34711252 268.693737,4.67577922 264.120431,4.67577922 C260.670124,4.67577922 257.300103,6.30799792 257.300103,9.79567706 C257.300103,13.4323417 259.707699,14.4709833 262.916633,15.80665 L271.823407,19.4433146 C275.594864,21.3730313 277.6,24.4899021 277.6,28.496902 C277.6,35.8440146 272.064269,40 264.361293,40 C256.578029,40 251.684085,35.398477 250.4,28.496902 L255.214168,27.0869791 Z" id="Fill-8"></path>
                </g>
                <path d="M216.256245,141 L432.465362,150.666297 L520,345.204768 L396.504884,523 L179.120412,509.07559 L90,298.294372 L216.256245,141 Z M375,253 L218,321.445504 L352.225217,425 L375,253 Z M357,218.744381 L231.386629,165 L205,278 L357,218.744381 Z M325,451.674721 L189,355 L192.289732,486 L325,451.674721 Z M498,345.125865 L405.432385,251 L381,432 L498,345.125865 Z M355.796454,473 L241,503.276856 L376,512 L355.796454,473 Z M480,388 L380,463.594032 L399.870235,503 L480,388 Z M432.343504,177 L413,217.449155 L485,292 L432.343504,177 Z M409,158.175187 L281,153 L386.58477,199 L409,158.175187 Z M197,177 L108,290.294209 L167.5038,303 L197,177 Z M163.378245,324.747304 L103,312 L166,460 L163.378245,324.747304 Z" id="Combined-Shape" fill="#6306CC" fill-rule="nonzero"></path>
                <path d="M154.872559,455.691406 L184.140137,455.691406 L184.140137,429.148438 L194.379395,429.148438 L194.379395,497 L184.140137,497 L184.140137,465.31543 L154.872559,465.31543 L154.872559,497 L144.633301,497 L144.633301,429.148438 L154.872559,429.148438 L154.872559,455.691406 Z M248.080566,438.772461 L220.878418,438.772461 L220.878418,455.076172 L247.289551,455.076172 L247.289551,464.700195 L220.878418,464.700195 L220.878418,487.375977 L248.080566,487.375977 L248.080566,497 L210.63916,497 L210.63916,429.148438 L248.080566,429.148438 L248.080566,438.772461 Z M284.51123,468.083984 L305.51709,497 L292.992676,497 L273.612793,469.226562 L271.76709,469.226562 L271.76709,497 L261.527832,497 L261.527832,429.148438 L273.524902,429.148438 C282.489791,429.148438 288.964336,430.832991 292.94873,434.202148 C297.343284,437.952167 299.540527,442.90329 299.540527,449.055664 C299.540527,453.860376 298.163588,457.991194 295.409668,461.448242 C292.655748,464.905291 289.022972,467.117183 284.51123,468.083984 Z M271.76709,460.305664 L275.019043,460.305664 C284.716357,460.305664 289.564941,456.599646 289.564941,449.1875 C289.564941,442.244106 284.848192,438.772461 275.414551,438.772461 L271.76709,438.772461 L271.76709,460.305664 Z M355.570801,480.520508 L326.522949,480.520508 L318.964355,497 L307.934082,497 L341.508301,424.885742 L373.895996,497 L362.689941,497 L355.570801,480.520508 Z M351.395996,470.896484 L341.33252,447.825195 L330.785645,470.896484 L351.395996,470.896484 Z M392.616699,429.148438 L392.616699,487.375977 L412.567871,487.375977 L412.567871,497 L382.377441,497 L382.377441,429.148438 L392.616699,429.148438 Z M436.518066,429.148438 C443.344272,429.148438 448.734844,429.822259 452.689941,431.169922 C456.93801,432.488288 460.79051,434.729476 464.247559,437.893555 C471.249547,444.280305 474.750488,452.673776 474.750488,463.074219 C474.750488,473.503958 471.103064,481.941374 463.808105,488.386719 C460.305201,491.469275 456.64152,493.653838 452.816961,494.940468 L452.294434,495.110352 C448.544415,496.370123 443.227085,497 436.342285,497 L422.279785,497 L422.279785,429.148438 L436.518066,429.148438 Z M437.133301,438.772461 L432.519043,438.772461 L432.519043,487.375977 L437.133301,487.375977 C441.732933,487.375977 445.556137,486.892583 448.603027,485.925781 C451.649918,484.900385 454.403796,483.274425 456.864746,481.047852 C461.903834,476.448219 464.42334,470.457068 464.42334,463.074219 C464.42334,455.632775 461.93313,449.597679 456.952637,444.96875 C452.470192,440.83787 445.863813,438.772461 437.133301,438.772461 L437.133301,438.772461 Z" id="HERALD" fill="#FFFFFF" fill-rule="nonzero"></path>
                <g id="Group-113" transform="translate(304.500000, 273.500000) scale(-1, 1) translate(-304.500000, -273.500000) translate(155.000000, 174.000000)" fill="#FFFFFF">
                    <path d="M291.603634,109.361362 C297.676742,108.408677 300.009908,111.287014 298.603131,117.996372 C296.492966,128.060408 285.202798,146.478641 193.837312,181.742552 C141.565643,197.365132 105.158251,202.38077 84.6151363,196.789465 C81.2192298,195.818579 79.5212766,193.350022 79.5212766,189.383794 C79.5212766,185.417566 81.2192298,183.783649 84.6151363,184.482042 C151.434966,176.246932 204.125021,160.538547 242.685304,137.356889 C281.245586,114.175231 297.551696,104.843388 291.603634,109.361362 Z M27.9512102,-9.9475983e-14 C42.2028991,43.0486161 80.0938297,77.2589452 141.624002,102.630987 C168.61191,115.353604 166.862849,132.541369 136.376818,154.194283 C105.890787,175.847198 78.7429711,180.696075 54.9333697,168.740914 C65.3399454,169.028448 72.6460785,167.258804 76.8517691,163.431982 C53.7068841,165.446814 37.4066978,160.966505 27.9512102,149.991052 C48.8145289,153.786507 62.1804517,153.786507 68.0489787,149.991052 C28.2192916,149.481855 6.90237699,137.930811 4.09823492,115.33792 C21.7299445,126.669915 35.8018673,130.681805 46.3140034,127.37359 C11.5846567,117.803397 -3.61289451,99.5428671 0.721349692,72.5919993 C12.0194398,88.2987007 23.1429896,96.1520514 34.0919991,96.1520514 C15.5844524,82.6055181 6.330679,69.309924 6.330679,56.265269 C6.330679,31.7056424 13.5375227,12.9505528 27.9512102,-9.9475983e-14 Z M209.441175,26.9741004 C243.541008,40.1296087 267.032248,65.2723047 279.914894,102.402189 C231.193096,135.474081 182.844829,157.060019 134.870093,167.16 C155.145105,158.927605 167.019322,144.796839 170.492743,124.767704 C175.702874,94.724 132.171905,87.6430519 118.887557,80.5750531 C110.031324,75.8630539 102.21065,70.4923376 95.4255319,64.462904 C120.797469,26.9741004 158.802683,14.4778326 209.441175,26.9741004 Z M140.067054,117.238784 C136.298953,117.238784 133.244303,120.294685 133.244303,124.06433 C133.244303,127.833975 136.298953,130.889876 140.067054,130.889876 C143.835155,130.889876 146.889804,127.833975 146.889804,124.06433 C146.889804,120.294685 143.835155,117.238784 140.067054,117.238784 Z" id="Combined-Shape"></path>
                </g>
            </g>
        </g>
    </g>
</svg>
