<svg width="128" height="128" viewBox="0 0 128 128" fill="none" xmlns="http://www.w3.org/2000/svg">
<g clip-path="url(#clip0)">
<path opacity="0.21789" fill-rule="evenodd" clip-rule="evenodd" d="M54.897 1L109.794 32.6948V96.0844L54.897 127.779L0 96.0844V32.6948L54.897 1Z" fill="#9013FE"/>
<path opacity="0.343424" fill-rule="evenodd" clip-rule="evenodd" d="M69.2908 8.75L116.517 35.8774V90.1323L69.2908 117.26L22.0649 90.1323V35.8774L69.2908 8.75Z" fill="#9013FE"/>
<path fill-rule="evenodd" clip-rule="evenodd" d="M87.0074 17.0547L128 40.722V88.0566L87.0074 111.724L46.0144 88.0566V40.722L87.0074 17.0547Z" fill="#9013FE"/>
<path d="M112.751 44.7363H60.7102C59.7929 44.7363 59.0493 45.4799 59.0493 46.3972C59.0493 47.3145 59.7929 48.0581 60.7102 48.0581H112.751C113.668 48.0581 114.411 47.3145 114.411 46.3972C114.411 45.4799 113.668 44.7363 112.751 44.7363Z" fill="white"/>
<path d="M112.751 53.041H60.7107C59.7934 53.041 59.0498 53.7846 59.0498 54.7019C59.0498 55.6191 59.7934 56.3627 60.7107 56.3627H112.751C113.668 56.3627 114.412 55.6191 114.412 54.7019C114.412 53.7846 113.668 53.041 112.751 53.041Z" fill="white"/>
<path d="M112.751 62.4512H60.7107C59.7934 62.4512 59.0498 63.1948 59.0498 64.112C59.0498 65.0293 59.7934 65.7729 60.7107 65.7729H112.751C113.668 65.7729 114.412 65.0293 114.412 64.112C114.412 63.1948 113.668 62.4512 112.751 62.4512Z" fill="white"/>
<path d="M112.751 71.8633H60.7107C59.7934 71.8633 59.0498 72.6069 59.0498 73.5241C59.0498 74.4414 59.7934 75.185 60.7107 75.185H112.751C113.668 75.185 114.412 74.4414 114.412 73.5241C114.412 72.6069 113.668 71.8633 112.751 71.8633Z" fill="white"/>
<path d="M112.751 80.7207H60.7107C59.7934 80.7207 59.0498 81.4643 59.0498 82.3816C59.0498 83.2988 59.7934 84.0424 60.7107 84.0424H112.751C113.668 84.0424 114.412 83.2988 114.412 82.3816C114.412 81.4643 113.668 80.7207 112.751 80.7207Z" fill="white"/>
</g>
<defs>
<clipPath id="clip0">
<rect width="128" height="128" fill="white"/>
</clipPath>
</defs>
</svg>
