<svg width="128" height="128" viewBox="0 0 128 128" fill="none" xmlns="http://www.w3.org/2000/svg">
<g clip-path="url(#clip0)">
<path opacity="0.21789" fill-rule="evenodd" clip-rule="evenodd" d="M55.2369 1L110.134 32.6948V96.0844L55.2369 127.779L0.339844 96.0844V32.6948L55.2369 1Z" fill="#9013FE"/>
<path opacity="0.343424" fill-rule="evenodd" clip-rule="evenodd" d="M69.6306 8.75L116.856 35.8774V90.1323L69.6306 117.26L22.4048 90.1323V35.8774L69.6306 8.75Z" fill="#9013FE"/>
<path fill-rule="evenodd" clip-rule="evenodd" d="M87.346 17.0547L128.339 40.722V88.0566L87.346 111.724L46.353 88.0566V40.722L87.346 17.0547Z" fill="#9013FE"/>
<path d="M68.4269 78.2735V48.4522C68.4269 47.6232 67.7666 46.9512 66.9522 46.9512C66.1378 46.9512 65.4775 47.6232 65.4775 48.4522V79.7746C65.4775 80.6036 66.1378 81.2757 66.9522 81.2757H109.4C110.214 81.2757 110.874 80.6036 110.874 79.7746C110.874 78.9456 110.214 78.2735 109.4 78.2735H68.4269Z" fill="white"/>
<path d="M77.1428 67.5851L85.263 73.4778C85.8819 73.9269 86.7528 73.6225 86.9673 72.8821L90.5941 60.3625L93.8454 66.5504C94.2529 67.3259 95.3421 67.3461 95.7773 66.5863L105.742 49.1899C106.049 48.6546 105.869 47.9686 105.341 47.6577C104.813 47.3467 104.137 47.5287 103.83 48.064L94.8629 63.7185L91.2724 56.885C90.8067 55.9987 89.5149 56.1326 89.2358 57.0961L85.2843 70.7363L77.5338 65.1118C77.0384 64.7524 76.3496 64.8669 75.9934 65.3679L70.669 72.8568C70.312 73.359 70.4241 74.0596 70.9194 74.4216C71.4147 74.7836 72.1057 74.6699 72.4628 74.1677L77.1428 67.5851Z" fill="white"/>
<path fill-rule="evenodd" clip-rule="evenodd" d="M106.386 45.5957L105.915 53.4993L99.8172 49.9583L106.386 45.5957Z" fill="white" stroke="white"/>
</g>
<defs>
<clipPath id="clip0">
<rect width="128" height="128" fill="white"/>
</clipPath>
</defs>
</svg>
