<svg width="128" height="128" viewBox="0 0 128 128" fill="none" xmlns="http://www.w3.org/2000/svg">
<g clip-path="url(#clip0)">
<path opacity="0.21789" fill-rule="evenodd" clip-rule="evenodd" d="M54.897 1L109.794 32.6948V96.0844L54.897 127.779L0 96.0844V32.6948L54.897 1Z" fill="#9013FE"/>
<path opacity="0.343424" fill-rule="evenodd" clip-rule="evenodd" d="M69.2906 8.75L116.516 35.8774V90.1323L69.2906 117.26L22.0648 90.1323V35.8774L69.2906 8.75Z" fill="#9013FE"/>
<path fill-rule="evenodd" clip-rule="evenodd" d="M87.0074 17.0547L128 40.722V88.0566L87.0074 111.724L46.0144 88.0566V40.722L87.0074 17.0547Z" fill="#9013FE"/>
<path fill-rule="evenodd" clip-rule="evenodd" d="M104.373 54.1669C107.763 56.5069 109.633 60.6771 109.981 66.6772C107.489 66.8842 105.931 67.6096 105.308 68.8537L88.7785 57.6563C85.2842 56.283 82.5978 56.4116 80.7191 58.042C77.901 60.4877 75.8131 61.0338 74.9377 60.4418C74.0624 59.8498 73.3514 58.1214 74.9377 57.0575C75.9952 56.3482 77.8052 54.692 80.3677 52.0888C83.793 51.8239 86.2175 51.6914 87.6415 51.6914C89.0654 51.6914 92.6176 52.8872 98.2981 55.2787C99.3565 55.9549 100.458 56.1882 101.603 55.9787C102.748 55.7692 103.671 55.1652 104.373 54.1669Z" fill="white"/>
<path fill-rule="evenodd" clip-rule="evenodd" d="M105.552 52.0712L110.955 48.3691C115.734 52.5378 118.261 56.6747 118.536 60.7798L118.839 65.7915L112.38 68.8531C112.057 62.7688 111.234 58.7179 109.91 56.7004C108.586 54.6829 107.133 53.1399 105.552 52.0712Z" fill="white"/>
<path fill-rule="evenodd" clip-rule="evenodd" d="M63.3329 48.3691C58.9015 52.8292 56.4832 57.2395 56.0781 61.6002L55.7275 66.0472L62.0081 69.4067C62.3837 62.0974 64.1077 56.9332 67.18 53.9142L69.0144 52.1092L63.3329 48.3691Z" fill="white"/>
<path fill-rule="evenodd" clip-rule="evenodd" d="M64.0309 67.4499C64.6482 62.3095 66.0934 58.4063 68.3666 55.7402L70.5786 53.3516C71.7645 53.9516 72.6985 54.2516 73.3804 54.2516C74.0624 54.2516 74.8691 54.5498 75.8005 55.146L73.3804 57.2681C72.6345 59.0472 72.8784 60.2348 74.1122 60.8309C75.9629 61.7251 77.7857 61.6676 79.4104 60.4007C81.035 59.1339 82.6052 57.2964 85.9504 57.7796C88.1805 58.1017 93.3342 61.3252 101.411 67.4499C105.912 70.0635 107.518 72.1471 106.229 73.7005C105.585 74.7415 104.493 74.8908 102.955 74.1484C103.536 76.7087 103.135 78.1047 101.753 78.3362C100.372 78.5677 99.3025 78.4871 98.5459 78.0943C98.7808 80.6648 97.8741 81.8325 95.8259 81.5972L94.3712 81.3356C94.5047 83.2256 93.9422 84.226 92.6838 84.3367C90.7961 84.5027 88.2642 83.48 86.9729 82.015C88.2188 80.3078 88.3598 79.0009 87.396 78.0943C86.4323 77.1876 85.3464 77.5958 84.1385 79.3186C85.7677 76.343 85.9467 74.4703 84.6756 73.7005C83.4045 72.9307 82.044 73.6627 80.5941 75.8964C81.3798 73.9769 81.2307 72.6823 80.1469 72.0126C79.0631 71.3429 77.8745 71.8009 76.581 73.3865C77.1568 71.6219 76.8368 70.5156 75.621 70.0677C74.4053 69.6198 73.0762 70.4208 71.6337 72.4707C68.3172 69.3889 66.1708 67.7817 65.1947 67.649L64.0309 67.4499Z" fill="white"/>
<path d="M72.7124 76.1664C73.5655 76.6011 74.829 75.831 75.5345 74.4464C76.24 73.0618 76.1203 71.587 75.2672 71.1523C74.4141 70.7176 73.1506 71.4877 72.4451 72.8723C71.7396 74.2569 71.8593 75.7318 72.7124 76.1664Z" fill="white"/>
<path d="M76.1582 79.5122C77.118 80.0012 78.6659 78.8867 79.6156 77.0227C80.5653 75.1588 80.5572 73.2514 79.5974 72.7624C78.6377 72.2734 77.0897 73.3879 76.14 75.2519C75.1903 77.1158 75.1985 79.0232 76.1582 79.5122Z" fill="white"/>
<path d="M80.2691 81.7848C81.1222 82.2195 82.6717 80.8882 83.7299 78.8113C84.7882 76.7344 84.9545 74.6983 84.1013 74.2636C83.2482 73.8289 81.6988 75.1602 80.6405 77.2372C79.5823 79.3141 79.416 81.3501 80.2691 81.7848Z" fill="white"/>
<path d="M84.3513 83.5595C84.9911 83.8855 86.0817 83.0274 86.7872 81.6427C87.4927 80.2581 87.5459 78.8714 86.9061 78.5454C86.2662 78.2194 85.1756 79.0775 84.4701 80.4621C83.7646 81.8468 83.7114 83.2335 84.3513 83.5595Z" fill="white"/>
<path d="M94.4801 81.5868C93.5782 81.0519 92.9198 80.6552 92.505 80.3967C89.1712 78.3195 86.8769 76.5017 85.6222 74.9434" stroke="#9013FE" stroke-width="1.35" stroke-linecap="round" stroke-linejoin="round"/>
<path d="M98.3554 78.2644C97.1716 77.6403 96.3075 77.1775 95.7631 76.8759C91.3874 74.4525 88.3762 72.3317 86.7294 70.5137" stroke="#9013FE" stroke-width="1.35" stroke-linecap="round" stroke-linejoin="round"/>
<path d="M103.509 74.7655C102.138 74.1452 101.136 73.6841 100.505 73.3823C95.4269 70.9563 91.8962 68.7696 89.9127 66.8223" stroke="#9013FE" stroke-width="1.35" stroke-linecap="round" stroke-linejoin="round"/>
</g>
<defs>
<clipPath id="clip0">
<rect width="128" height="128" fill="white"/>
</clipPath>
</defs>
</svg>
