<svg width="128" height="128" viewBox="0 0 128 128" fill="none" xmlns="http://www.w3.org/2000/svg">
<g clip-path="url(#clip0)">
<path opacity="0.21789" fill-rule="evenodd" clip-rule="evenodd" d="M54.897 1L109.794 32.6948V96.0844L54.897 127.779L0 96.0844V32.6948L54.897 1Z" fill="#9013FE"/>
<path opacity="0.343424" fill-rule="evenodd" clip-rule="evenodd" d="M69.2906 8.75L116.516 35.8774V90.1323L69.2906 117.26L22.0648 90.1323V35.8774L69.2906 8.75Z" fill="#9013FE"/>
<path fill-rule="evenodd" clip-rule="evenodd" d="M87.0074 17.0547L128 40.722V88.0566L87.0074 111.724L46.0144 88.0566V40.722L87.0074 17.0547Z" fill="#9013FE"/>
<path d="M112.718 72.6042C112.738 72.554 112.749 72.503 112.749 72.4516C112.749 72.3088 112.669 72.1706 112.521 72.0388L106.964 56.0701C107.754 55.7037 108.302 54.909 108.302 53.9847C108.302 52.7133 107.266 51.6825 105.989 51.6825C105.41 51.6825 104.882 51.8954 104.477 52.2446L88.9323 47.6112V42.946L86.3497 40.6973V46.8415L71.3975 42.3849C71.1068 41.444 70.2269 40.7599 69.186 40.7599C67.9082 40.7599 66.8724 41.7906 66.8724 43.0621C66.8724 43.8726 67.2943 44.5838 67.9305 44.9941L62.3715 60.9686L62.4649 61.0007C62.428 61.0685 62.4068 61.1376 62.4068 61.2078C62.4068 62.0923 65.4379 62.8093 69.1769 62.8093C72.514 62.8093 75.2852 62.238 75.8428 61.4864L75.947 61.4505L75.9157 61.3604C75.9359 61.3102 75.947 61.2593 75.947 61.2078C75.947 61.065 75.867 60.9267 75.719 60.795L70.2578 45.1014C70.3974 45.0286 70.5289 44.943 70.65 44.8445C71.2785 44.4087 71.8912 44.2797 72.4882 44.4576C74.1007 44.9383 76.5467 46.6022 77.7723 46.9675C79.6784 47.5357 82.5375 48.3879 86.3497 49.5243V65.534C85.7037 65.9423 85.2737 66.6588 85.2737 67.4768C85.2737 67.9889 85.4436 68.46 85.7276 68.8423C84.9636 69.4083 84.4666 70.3113 84.4666 71.3318C84.4666 72.609 85.2422 73.7051 86.3497 74.182V79.3128C77.9927 79.4493 71.4456 80.7097 71.4456 82.2449L71.4994 83.8512C71.4994 85.4775 78.8332 86.8092 87.8965 86.8092C96.9599 86.8092 104.294 85.5043 104.294 83.878L104.267 82.2449C104.267 80.6835 97.494 79.4063 88.9323 79.3067V74.1305C89.9817 73.6303 90.7081 72.5668 90.7081 71.3316C90.7081 70.311 90.2111 69.4082 89.4471 68.8421C89.7312 68.4599 89.901 67.9886 89.901 67.4767C89.901 66.7049 89.5181 66.0235 88.9323 65.6059V50.294C92.275 51.2903 94.7821 52.0375 96.4534 52.5356C99.2092 53.357 100.855 52.8387 102.581 53.3531C103.219 53.5432 103.625 54.0006 103.8 54.7252C103.98 55.2538 104.348 55.6952 104.825 55.9723L99.1739 72.2123L99.2673 72.2444C99.2304 72.3124 99.2092 72.3813 99.2092 72.4515C99.2092 73.336 102.24 74.053 105.979 74.053C109.316 74.053 112.087 73.4817 112.645 72.7302L112.749 72.6942L112.718 72.6042ZM75.0764 60.4226C73.9153 59.9355 71.7091 59.6062 69.1766 59.6062C66.4556 59.6062 64.1109 59.9861 63.035 60.5338L68.3666 45.213C68.6217 45.3092 68.897 45.3643 69.186 45.3643C69.4011 45.3643 69.6086 45.3328 69.8061 45.2782L75.0764 60.4226ZM99.8379 71.7775L105.269 56.1715C105.496 56.2453 105.737 56.2866 105.989 56.2866C106.167 56.2866 106.34 56.2646 106.507 56.2267L111.879 71.666C110.718 71.1789 108.512 70.8498 105.979 70.8498C103.258 70.8499 100.914 71.2298 99.8379 71.7775Z" fill="white"/>
<path d="M87.5604 48.4231C89.2064 48.4231 90.5407 47.99 90.5407 45.0477C90.5407 43.0863 89.5473 40.7683 87.5604 38.0938C85.5735 40.7683 84.5801 43.0863 84.5801 45.0477C84.5801 47.99 85.9144 48.4231 87.5604 48.4231Z" fill="white"/>
<path d="M69.2916 64.6662C74.3366 64.6662 78.4264 63.0888 78.4264 61.143C78.4264 59.1971 60.1569 59.1971 60.1569 61.143C60.1569 63.0888 64.2466 64.6662 69.2916 64.6662Z" fill="white"/>
<path d="M105.831 75.1857C110.876 75.1857 114.965 73.6083 114.965 71.6625C114.965 69.7167 96.6958 69.7167 96.6958 71.6625C96.6958 73.6083 100.786 75.1857 105.831 75.1857Z" fill="white"/>
<path d="M87.8379 81.8294C91.8128 81.8294 95.035 80.8379 95.035 79.6149C95.035 78.3918 91.8128 77.4004 87.8379 77.4004C83.8631 77.4004 80.6409 78.3918 80.6409 79.6149C80.6409 80.8379 83.8631 81.8294 87.8379 81.8294Z" fill="white"/>
</g>
<defs>
<clipPath id="clip0">
<rect width="128" height="128" fill="white"/>
</clipPath>
</defs>
</svg>
