<svg width="128" height="128" viewBox="0 0 128 128" fill="none" xmlns="http://www.w3.org/2000/svg">
<g clip-path="url(#clip0)">
<path opacity="0.21789" fill-rule="evenodd" clip-rule="evenodd" d="M54.897 1L109.794 32.6948V96.0844L54.897 127.779L0 96.0844V32.6948L54.897 1Z" fill="#9013FE"/>
<path opacity="0.343424" fill-rule="evenodd" clip-rule="evenodd" d="M69.2906 8.75L116.516 35.8774V90.1323L69.2906 117.26L22.0648 90.1323V35.8774L69.2906 8.75Z" fill="#9013FE"/>
<path fill-rule="evenodd" clip-rule="evenodd" d="M87.0074 17.0547L128 40.722V88.0566L87.0074 111.724L46.0144 88.0566V40.722L87.0074 17.0547Z" fill="#9013FE"/>
<path d="M111.534 49.7926V78.4326L86.7307 92.7526L61.9277 78.4326V49.7926L86.7307 35.4727L111.534 49.7926ZM63.5886 50.7515V77.4737L86.7307 90.8348L109.873 77.4737V50.7515L86.7307 37.3905L63.5886 50.7515Z" fill="white"/>
<path d="M105.226 53.4345V74.7917L86.7297 85.4703L68.2338 74.7917V53.4345L86.7297 42.7559L105.226 53.4345ZM86.7297 43.3951L68.7874 53.7541V74.4721L86.7297 84.8311L104.672 74.4721V53.7541L86.7297 43.3951Z" fill="white"/>
<path d="M80.789 51.3789L95.2641 52.0233L101.124 64.9925L92.8565 76.8455L78.3028 75.9172L72.3362 61.8652L80.789 51.3789ZM91.4012 58.8547L80.9105 63.4198L89.8794 70.3266L91.4012 58.8547ZM90.1866 56.5671L81.8029 52.9717L80.0418 60.5312L90.1866 56.5671ZM88.0616 72.0644L78.9501 65.5842L79.1705 74.3653L88.0616 72.0644ZM99.6691 64.9639L93.4601 58.6885L91.8213 70.7558L99.6691 64.9639ZM90.1979 73.4759L82.5135 75.4764L91.5503 76.0527L90.1979 73.4759ZM98.4558 67.8111L91.7292 72.8019L93.0658 75.4036L98.4558 67.8111ZM95.2741 53.8354L93.9676 56.5067L98.8305 61.4302L95.2741 53.8354ZM93.6462 52.557L85.1068 52.2118L92.1508 55.2805L93.6462 52.557ZM79.5419 53.7924L73.5606 61.315L77.5596 62.1587L79.5419 53.7924ZM77.3185 63.6343L73.3002 62.787L77.493 72.6251L77.3185 63.6343Z" fill="white"/>
</g>
<defs>
<clipPath id="clip0">
<rect width="128" height="128" fill="white"/>
</clipPath>
</defs>
</svg>
