<?xml version="1.0" encoding="UTF-8"?>
<svg width="205px" height="208px" viewBox="0 0 205 208" version="1.1" xmlns="http://www.w3.org/2000/svg" xmlns:xlink="http://www.w3.org/1999/xlink">
    <!-- Generator: Sketch 58 (84663) - https://sketch.com -->
    <title>email-icon</title>
    <desc>Created with Sketch.</desc>
    <g id="Logos,-Icons,-Illustrations" stroke="none" stroke-width="1" fill="none" fill-rule="evenodd">
        <g id="email-icon">
            <ellipse id="Oval" fill="#9013FE" cx="102.5" cy="103.75" rx="102.5" ry="103.75"></ellipse>
            <path d="M153.010742,90.0864583 C153.810547,89.4486979 155,90.0453125 155,91.0533854 L155,133.125 C155,138.576823 150.59082,143 145.15625,143 L59.84375,143 C54.4091797,143 50,138.576823 50,133.125 L50,91.0739583 C50,90.0453125 51.1689453,89.4692708 51.9892578,90.1070313 C56.5830078,93.6867187 62.6738281,98.2333333 83.5917969,113.477865 C87.9189453,116.646094 95.2197266,123.311719 102.5,123.270573 C109.821289,123.332292 117.265625,116.522656 121.428711,113.477865 C142.34668,98.2333333 148.416992,93.6661458 153.010742,90.0864583 Z M102.5,116.666667 C107.257812,116.748958 114.107422,110.659375 117.552734,108.149479 C144.766602,88.3377604 146.837891,86.6096354 153.113281,81.6721354 C154.302734,80.7463542 155,79.30625 155,77.7838542 L155,73.875 C155,68.4231771 150.59082,64 145.15625,64 L59.84375,64 C54.4091797,64 50,68.4231771 50,73.875 L50,77.7838542 C50,79.30625 50.6972656,80.7257812 51.8867188,81.6721354 C58.1621094,86.5890625 60.2333984,88.3377604 87.4472656,108.149479 C90.8925781,110.659375 97.7421875,116.748958 102.5,116.666667 Z" id="Shape" fill="#FFFFFF" fill-rule="nonzero"></path>
        </g>
    </g>
</svg>