<?xml version="1.0" encoding="UTF-8"?>
<svg width="205px" height="208px" viewBox="0 0 205 208" version="1.1" xmlns="http://www.w3.org/2000/svg" xmlns:xlink="http://www.w3.org/1999/xlink">
    <title>payroll-icon</title>
    <g id="Logos,-Icons,-Illustrations" stroke="none" stroke-width="1" fill="none" fill-rule="evenodd">
        <g id="payroll-icon">
            <ellipse id="Oval" fill="#9013FE" cx="102.5" cy="103.75" rx="102.5" ry="103.75"></ellipse>
            <path d="M157.866163,119.208594 C155.498489,116.951563 151.841279,117.099219 149.346765,119.208594 L130.912734,134.796875 C128.65076,136.716406 125.839147,137.75 122.921835,137.75 L99.3085171,137.75 C97.5539017,137.75 96.1163855,136.23125 96.1163855,134.375 C96.1163855,132.51875 97.5539017,131 99.3085171,131 L114.930936,131 C118.123068,131 121.06152,128.700781 121.568879,125.389063 C122.224217,121.170313 119.137785,117.5 115.269175,117.5 L83.3267192,117.5 C77.9360333,117.5 72.7144671,119.461719 68.549898,123.047656 L59.2694625,131 L48.1921316,131 C46.4375162,131 45,132.51875 45,134.375 L45,154.625 C45,156.48125 46.4375162,158 48.1921316,158 L119.412604,158 C122.308777,158 125.120389,156.966406 127.403503,155.046875 L157.591344,129.523438 C160.635496,126.971094 160.868035,122.077344 157.866163,119.208594 L157.866163,119.208594 Z M102.753476,42.46 L102.753476,47.14 C104.553485,47.14 106.253468,47.3799976 107.853476,47.86 C109.453484,48.3400024 110.84347,49.0599952 112.023476,50.02 C113.203482,50.9800048 114.143472,52.1999926 114.843476,53.68 C115.543479,55.1600074 115.893476,56.8799902 115.893476,58.84 L109.053476,58.84 C108.973475,56.7999898 108.443481,55.2400054 107.463476,54.16 C106.483471,53.0799946 104.913486,52.54 102.753476,52.54 L102.753476,65.2 C104.553485,65.6800024 106.313467,66.2399968 108.033476,66.88 C109.753484,67.5200032 111.273469,68.339995 112.593476,69.34 C113.913482,70.340005 114.973472,71.5799926 115.773476,73.06 C116.57348,74.5400074 116.973476,76.3599892 116.973476,78.52 C116.973476,80.7600112 116.603479,82.7099917 115.863476,84.37 C115.123472,86.0300083 114.113482,87.4099945 112.833476,88.51 C111.553469,89.6100055 110.053484,90.4499971 108.333476,91.03 C106.613467,91.6100029 104.753486,91.9399996 102.753476,92.02 L102.753476,96.7 L100.173476,96.7 L100.173476,92.02 C98.0134648,91.9799998 96.0334846,91.6400032 94.2334756,91 C92.4334666,90.3599968 90.893482,89.4500059 89.6134756,88.27 C88.3334692,87.0899941 87.3434791,85.6400086 86.6434756,83.92 C85.9434721,82.1999914 85.6134754,80.2200112 85.6534756,77.98 L92.4934756,77.98 C92.4534754,80.6200132 93.0334696,82.6999924 94.2334756,84.22 C95.4334816,85.7400076 97.4134618,86.5399996 100.173476,86.62 L100.173476,72.1 C98.5334674,71.6599978 96.9034837,71.1300031 95.2834756,70.51 C93.6634675,69.8899969 92.2034821,69.0900049 90.9034756,68.11 C89.6034691,67.1299951 88.5534796,65.9000074 87.7534756,64.42 C86.9534716,62.9399926 86.5534756,61.100011 86.5534756,58.9 C86.5534756,56.9799904 86.9234719,55.2900073 87.6634756,53.83 C88.4034793,52.3699927 89.4034693,51.1500049 90.6634756,50.17 C91.9234819,49.1899951 93.3734674,48.4400026 95.0134756,47.92 C96.6534838,47.3999974 98.3734666,47.14 100.173476,47.14 L100.173476,42.46 L102.753476,42.46 Z M102.753476,72.64 L102.753476,86.62 C104.913486,86.4599992 106.683469,85.8300055 108.063476,84.73 C109.443483,83.6299945 110.133476,81.880012 110.133476,79.48 C110.133476,78.3599944 109.923478,77.4200038 109.503476,76.66 C109.083474,75.8999962 108.523479,75.2600026 107.823476,74.74 C107.123472,74.2199974 106.33348,73.8000016 105.453476,73.48 C104.573471,73.1599984 103.67348,72.8800012 102.753476,72.64 L102.753476,72.64 Z M100.173476,52.54 C98.0134648,52.54 96.3434815,52.9899955 95.1634756,53.89 C93.9834697,54.7900045 93.3934756,56.2999894 93.3934756,58.42 C93.3934756,59.3800048 93.5934736,60.1999966 93.9934756,60.88 C94.3934756,61.5600034 94.9034725,62.1399976 95.5234756,62.62 C96.1434787,63.1000024 96.8634715,63.4899985 97.6834756,63.79 C98.5034797,64.0900015 99.3334714,64.339999 100.173476,64.54 L100.173476,52.54 Z" id="Shape" fill="#FFFFFF" fill-rule="nonzero"></path>
        </g>
    </g>
</svg>
