<svg width="79" height="80" viewBox="0 0 79 80" fill="none" xmlns="http://www.w3.org/2000/svg">
<path d="M39.3326 80C61.0555 80 78.6653 62.0914 78.6653 40C78.6653 17.9086 61.0555 0 39.3326 0C17.6098 0 0 17.9086 0 40C0 62.0914 17.6098 80 39.3326 80Z" fill="#9013FE"/>
<path fill-rule="evenodd" clip-rule="evenodd" d="M42.0446 24.6147C42.0446 25.9018 41.7553 26.6423 41.2872 27.0614L54.2277 30.9375C54.5822 30.6307 55.0436 30.4437 55.5493 30.4437C56.6663 30.4437 57.5718 31.3491 57.5718 32.4661C57.5718 33.278 57.0923 33.9762 56.4021 34.298L60.9309 47.3757C62.3667 47.6048 63.316 47.9429 63.316 48.3901C63.316 50.2249 59.7368 51.7124 55.3216 51.7124C50.9064 51.7124 47.3272 50.2249 47.3272 48.3901C47.3272 47.9149 48.3993 47.5628 49.9883 47.3337L54.5324 34.2121C54.1153 33.9686 53.7937 33.5809 53.6357 33.1166C53.4833 32.48 53.128 32.0783 52.5704 31.9112C51.904 31.7116 51.251 31.689 50.5223 31.6639C49.6011 31.632 48.5586 31.5959 47.2139 31.1931L40.639 29.2239V42.6748C41.1511 43.0417 41.4858 43.6402 41.4858 44.3182C41.4858 44.7679 41.3374 45.1818 41.089 45.5176C41.757 46.0149 42.1913 46.808 42.1913 47.7046C42.1913 48.7897 41.5564 49.7239 40.639 50.1632V52.9716C43.6248 53.1279 45.8993 53.9359 45.8993 54.9089C45.8993 54.9254 45.8987 54.9418 45.8974 54.9582C50.7167 55.3752 54.0442 56.2632 54.0442 57.2914L54.0677 58.7261C54.0677 60.1547 47.6565 61.301 39.7337 61.301C31.8106 61.301 25.3996 60.1311 25.3996 58.7024L25.3526 57.2914C25.3526 56.2796 28.5745 55.4036 33.2693 54.9786C33.2667 54.9555 33.2654 54.9322 33.2654 54.9089C33.2654 53.9515 35.467 53.1541 38.3813 52.9795V50.2085C37.4133 49.7896 36.7353 48.8267 36.7353 47.7047C36.7353 46.8083 37.1697 46.0151 37.8375 45.5178C37.5894 45.182 37.4407 44.7682 37.4407 44.3183C37.4407 43.5997 37.8166 42.9703 38.3813 42.6117V28.5478L30.8832 26.3018C30.3842 26.1523 29.6538 25.7554 28.8734 25.3313C27.9781 24.8448 27.0171 24.3225 26.264 24.0969C25.7421 23.9406 25.2065 24.0539 24.6571 24.4368C24.5513 24.5233 24.4363 24.5985 24.3142 24.6624L28.8333 37.7122C30.3359 37.9415 31.3381 38.2859 31.3381 38.7453C31.3381 40.5801 27.759 42.0676 23.3438 42.0676C18.9286 42.0676 15.3494 40.5801 15.3494 38.7453C15.3494 38.2996 16.2926 37.9623 17.7208 37.7331L22.2797 24.5682C21.7236 24.2078 21.3548 23.583 21.3548 22.871C21.3548 21.7541 22.2603 20.8486 23.3773 20.8486C24.2873 20.8486 25.0564 21.4496 25.3106 22.2761L36.932 25.757C36.8681 25.4347 36.8339 25.0569 36.8339 24.6147C36.8339 22.8916 37.7024 20.8553 39.4393 18.5059C41.1763 20.8553 42.0446 22.8916 42.0446 24.6147ZM56.002 34.4355L60.4593 47.3065C57.6467 46.9285 53.362 46.9168 50.4581 47.2714L54.92 34.3871C55.1182 34.4519 55.3296 34.4882 55.5496 34.4882C55.7054 34.4882 55.8564 34.4689 56.002 34.4355ZM18.1927 37.6636L22.661 24.7605C22.884 24.845 23.1247 24.8934 23.3773 24.8934C23.5654 24.8934 23.7467 24.8658 23.9194 24.8178L28.3619 37.646C25.4527 37.2711 21.0553 37.2769 18.1927 37.6636Z" fill="white"/>
</svg>
