<svg width="128" height="128" viewBox="0 0 128 128" fill="none" xmlns="http://www.w3.org/2000/svg">
<path fill-rule="evenodd" clip-rule="evenodd" d="M64.7107 0.314075L117.917 31.1418C118.64 31.5607 119.086 32.3348 119.086 33.1725V94.8275C119.086 95.6652 118.64 96.4394 117.917 96.8582L64.7107 127.686C63.988 128.105 63.0975 128.105 62.3748 127.686L9.16822 96.8582C8.44533 96.4394 8 95.6652 8 94.8275V33.1725C8 32.3348 8.44533 31.5607 9.16822 31.1418L62.3748 0.314075C63.0975 -0.104692 63.988 -0.104692 64.7107 0.314075Z" fill="#AE52FF"/>
<path fill-rule="evenodd" clip-rule="evenodd" d="M64.6098 121.809L112.831 93.87C113.553 93.4511 113.999 92.677 113.999 91.8392V35.9617C113.999 35.124 113.553 34.3498 112.831 33.931L64.6098 5.99198C63.887 5.57321 62.9966 5.57321 62.2738 5.99198L14.053 33.931C13.3301 34.3498 12.8848 35.124 12.8848 35.9617V91.8392C12.8848 92.677 13.3301 93.4511 14.053 93.87L62.2738 121.809C62.9966 122.228 63.887 122.228 64.6098 121.809Z" fill="url(#paint0_linear)"/>
<path d="M95.5597 32.8809H31.3235V36.5298H95.5597V32.8809Z" fill="#9013FE"/>
<path d="M95.5597 44.4355H31.3235V48.0845H95.5597V44.4355Z" fill="#9013FE"/>
<path d="M95.5597 55.9941H31.3235V59.643H95.5597V55.9941Z" fill="#9013FE"/>
<path d="M95.5597 67.5469H31.3235V71.1958H95.5597V67.5469Z" fill="#9013FE"/>
<path d="M95.5597 79.1035H31.3235V82.7524H95.5597V79.1035Z" fill="#9013FE"/>
<path fill-rule="evenodd" clip-rule="evenodd" d="M63.5789 122.737L12.9085 94.0657C12.6491 93.9189 12.5574 93.5889 12.7036 93.3286C12.7518 93.2428 12.8224 93.1718 12.9078 93.1233L63.8459 64.2012L114.01 93.0751C114.269 93.2237 114.358 93.5544 114.21 93.8136C114.162 93.897 114.093 93.9661 114.01 94.0139L64.1118 122.735C63.9469 122.83 63.7444 122.83 63.5789 122.737Z" fill="#4D00B4"/>
<path d="M36.655 90.1053L77.6611 115.242C78.1371 115.534 78.7587 115.383 79.0495 114.906C79.3403 114.428 79.1901 113.804 78.7141 113.512L37.708 88.3753C37.232 88.0835 36.6104 88.2342 36.3196 88.7119C36.0288 89.1896 36.179 89.8135 36.655 90.1053Z" fill="#9013FE"/>
<path d="M61.2993 75.9139L102.306 101.051C102.782 101.343 103.403 101.192 103.694 100.714C103.985 100.237 103.835 99.6128 103.358 99.321L62.3523 74.1839C61.8763 73.8921 61.2547 74.0428 60.9639 74.5205C60.6731 74.9982 60.8233 75.6221 61.2993 75.9139Z" fill="#9013FE"/>
<path fill-rule="evenodd" clip-rule="evenodd" d="M63.8009 87.4073L82.4741 76.5913C82.6966 76.4625 82.8336 76.2242 82.8336 75.9664V34.8004C82.8336 34.5426 82.6966 34.3044 82.4741 34.1755L63.8009 23.3595C63.5785 23.2308 63.3046 23.2308 63.0823 23.3595L44.4091 34.1755C44.1866 34.3044 44.0496 34.5426 44.0496 34.8004V75.9664C44.0496 76.2242 44.1866 76.4625 44.4091 76.5913L63.0823 87.4073C63.3046 87.5361 63.5785 87.5361 63.8009 87.4073Z" fill="white"/>
<path d="M60.2634 48.8192L54.0266 42.5464C53.6519 42.1696 53.6519 41.5585 54.0266 41.1816L55.3835 39.8169C55.7582 39.44 56.3658 39.44 56.7405 39.8169L60.9419 44.0425L69.9408 34.9916C70.3155 34.6148 70.923 34.6148 71.2977 34.9916L72.6546 36.3564C73.0293 36.7333 73.0293 37.3443 72.6546 37.7212L61.6203 48.8193C61.2456 49.1961 60.6381 49.1961 60.2634 48.8192Z" fill="#4D00B4"/>
<path fill-rule="evenodd" clip-rule="evenodd" d="M39.6623 99.7725L53.9006 91.5228C54.123 91.394 54.2601 91.1558 54.2601 90.898V74.3988C54.2601 74.141 54.123 73.9028 53.9006 73.774L39.6623 65.5243C39.4399 65.3954 39.1659 65.3954 38.9435 65.5243L24.7052 73.774C24.4827 73.9028 24.3457 74.141 24.3457 74.3988V90.898C24.3457 91.1558 24.4827 91.394 24.7052 91.5228L38.9435 99.7725C39.1659 99.9014 39.4399 99.9014 39.6623 99.7725Z" fill="#EBD4FF"/>
<path d="M39.3025 89.6418C43.1514 89.6418 46.2715 86.5106 46.2715 82.648C46.2715 78.7855 43.1514 75.6543 39.3025 75.6543C35.4536 75.6543 32.3335 78.7855 32.3335 82.648C32.3335 86.5106 35.4536 89.6418 39.3025 89.6418ZM39.3025 87.2092C36.7924 87.2092 34.7575 85.1671 34.7575 82.648C34.7575 80.129 36.7924 78.0869 39.3025 78.0869C41.8127 78.0869 43.8475 80.129 43.8475 82.648C43.8475 85.1671 41.8127 87.2092 39.3025 87.2092Z" fill="#9013FE"/>
<path d="M79.3996 86.8056C80.0689 86.8056 80.6116 86.261 80.6116 85.5893C80.6116 84.9176 80.0689 84.373 79.3996 84.373C78.7302 84.373 78.1875 84.9176 78.1875 85.5893C78.1875 86.261 78.7302 86.8056 79.3996 86.8056Z" fill="white"/>
<path d="M82.43 88.6299C83.0994 88.6299 83.642 88.0853 83.642 87.4136C83.642 86.7418 83.0994 86.1973 82.43 86.1973C81.7606 86.1973 81.218 86.7418 81.218 87.4136C81.218 88.0853 81.7606 88.6299 82.43 88.6299Z" fill="white"/>
<path d="M85.4601 90.4541C86.1294 90.4541 86.6721 89.9095 86.6721 89.2378C86.6721 88.566 86.1294 88.0215 85.4601 88.0215C84.7907 88.0215 84.248 88.566 84.248 89.2378C84.248 89.9095 84.7907 90.4541 85.4601 90.4541Z" fill="white"/>
<path d="M97.1756 97.7529C97.845 97.7529 98.3876 97.2084 98.3876 96.5366C98.3876 95.8649 97.845 95.3203 97.1756 95.3203C96.5063 95.3203 95.9636 95.8649 95.9636 96.5366C95.9636 97.2084 96.5063 97.7529 97.1756 97.7529Z" fill="white"/>
<path d="M51.5238 98.9697C52.1931 98.9697 52.7358 98.4252 52.7358 97.7534C52.7358 97.0817 52.1931 96.5371 51.5238 96.5371C50.8544 96.5371 50.3118 97.0817 50.3118 97.7534C50.3118 98.4252 50.8544 98.9697 51.5238 98.9697Z" fill="white"/>
<path d="M61.8258 105.454C62.4951 105.454 63.0378 104.91 63.0378 104.238C63.0378 103.566 62.4951 103.021 61.8258 103.021C61.1564 103.021 60.6138 103.566 60.6138 104.238C60.6138 104.91 61.1564 105.454 61.8258 105.454Z" fill="white"/>
<path d="M64.8558 107.28C65.5252 107.28 66.0678 106.736 66.0678 106.064C66.0678 105.392 65.5252 104.848 64.8558 104.848C64.1864 104.848 63.6438 105.392 63.6438 106.064C63.6438 106.736 64.1864 107.28 64.8558 107.28Z" fill="white"/>
<defs>
<linearGradient id="paint0_linear" x1="63.4418" y1="122.123" x2="63.4418" y2="5.6779" gradientUnits="userSpaceOnUse">
<stop stop-color="#9013FE"/>
<stop offset="1" stop-color="#4D00B4"/>
</linearGradient>
</defs>
</svg>
