<?xml version="1.0" encoding="UTF-8"?>
<svg width="205px" height="208px" viewBox="0 0 205 208" version="1.1" xmlns="http://www.w3.org/2000/svg" xmlns:xlink="http://www.w3.org/1999/xlink">
    <title>e-commerce-icon</title>
    <g id="Logos,-Icons,-Illustrations" stroke="none" stroke-width="1" fill="none" fill-rule="evenodd">
        <g id="e-commerce-icon">
            <ellipse id="Oval" fill="#9013FE" cx="102.5" cy="103.75" rx="102.5" ry="103.75"></ellipse>
            <path d="M140.901892,117.124986 L78.8121366,117.124986 L80.1984043,123.937484 L137.050843,123.937484 C140.312861,123.937484 142.730622,126.982032 142.007729,130.179223 L140.839198,135.347355 C144.798056,137.278911 147.527807,141.357895 147.527807,146.078104 C147.527807,152.720716 142.12274,158.0945 135.492165,157.9987 C129.175486,157.90737 123.98053,152.754992 123.810027,146.407446 C123.716832,142.940097 125.098864,139.797407 127.368996,137.562268 L82.9643737,137.562268 C85.1622806,139.726514 86.5277913,142.741258 86.5277913,146.078104 C86.5277913,152.850792 80.9090121,158.304623 74.1011562,157.986778 C68.0562241,157.704698 63.140004,152.795441 62.8222956,146.721247 C62.5770247,142.030416 65.032699,137.895868 68.7636548,135.739073 L53.8849461,62.6249971 L39.0833346,62.6249971 C36.2758513,62.6249971 34,60.3374878 34,57.5156232 L34,54.1093739 C34,51.2875093 36.2758513,49 39.0833346,49 L60.7995521,49 C63.2143478,49 65.2957615,50.7075953 65.7797374,53.0853702 L67.7211476,62.6249971 L150.914579,62.6249971 C154.176597,62.6249971 156.594358,65.6695453 155.871465,68.866736 L145.858779,113.147977 C145.332866,115.474232 143.275386,117.124986 140.901892,117.124986 Z" id="Shape" fill="#FFFFFF" fill-rule="nonzero"></path>
        </g>
    </g>
</svg>
