<?xml version="1.0" encoding="UTF-8"?>
<svg width="205px" height="208px" viewBox="0 0 205 208" version="1.1" xmlns="http://www.w3.org/2000/svg" xmlns:xlink="http://www.w3.org/1999/xlink">
    <title>content-moderation-icon</title>
    <g id="Logos,-Icons,-Illustrations" stroke="none" stroke-width="1" fill="none" fill-rule="evenodd">
        <g id="content-moderation-icon">
            <ellipse id="Oval" fill="#9013FE" cx="102.5" cy="103.75" rx="102.5" ry="103.75"></ellipse>
            <g id="comments-solid" transform="translate(36.000000, 53.000000)" fill="#FFFFFF" fill-rule="nonzero">
                <path d="M95.3333333,36.4285714 C95.3333333,16.3017857 73.9979167,0 47.6666667,0 C21.3354167,0 0,16.3017857 0,36.4285714 C0,44.2379464 3.23125,51.4325893 8.70833333,57.375 C5.6375,64.2508929 0.572916667,69.7151786 0.504166667,69.7834821 C0,70.3071429 -0.1375,71.08125 0.160416667,71.7642857 C0.458333333,72.4473214 1.1,72.8571429 1.83333333,72.8571429 C10.2208333,72.8571429 17.1645833,70.0566964 22.1604167,67.1651786 C29.5395833,70.7397321 38.2708333,72.8571429 47.6666667,72.8571429 C73.9979167,72.8571429 95.3333333,56.5553571 95.3333333,36.4285714 Z M123.291667,86.5178571 C128.76875,80.5982143 132,73.3808036 132,65.5714286 C132,50.3397321 119.739583,37.29375 102.36875,31.8522321 C102.575,33.3549107 102.666667,34.8803571 102.666667,36.4285714 C102.666667,60.5397321 77.9854167,80.1428571 47.6666667,80.1428571 C45.1916667,80.1428571 42.7854167,79.9607143 40.4020833,79.7102679 C47.6208333,92.8017857 64.5791667,102 84.3333333,102 C93.7291667,102 102.460417,99.9053571 109.839583,96.3080357 C114.835417,99.1995536 121.779167,102 130.166667,102 C130.9,102 131.564583,101.567411 131.839583,100.907143 C132.1375,100.246875 132,99.4727679 131.495833,98.9263393 C131.427083,98.8580357 126.3625,93.4165179 123.291667,86.5178571 Z" id="Shape"></path>
            </g>
        </g>
    </g>
</svg>
