<?xml version="1.0" encoding="UTF-8"?>
<svg width="205px" height="208px" viewBox="0 0 205 208" version="1.1" xmlns="http://www.w3.org/2000/svg" xmlns:xlink="http://www.w3.org/1999/xlink">
    <title>restaurant-listings-icon</title>
    <g id="Logos,-Icons,-Illustrations" stroke="none" stroke-width="1" fill="none" fill-rule="evenodd">
        <g id="restaurant-listings-icon">
            <ellipse id="Oval" fill="#9013FE" cx="102.5" cy="103.75" rx="102.5" ry="103.75"></ellipse>
            <path d="M99.9788462,52.2362326 C100.148077,53.2368158 103.384615,72.3543406 103.384615,79.6564686 C103.384615,90.7906172 97.5038462,98.7314154 88.8096154,101.924766 L91.5384615,152.613882 C91.6865385,155.530476 89.3807692,158 86.4615385,158 L72.9230769,158 C70.025,158 67.6980769,155.551765 67.8461538,152.613882 L70.575,101.924766 C61.8596154,98.7314154 56,90.7693282 56,79.6564686 C56,72.3330516 59.2365385,53.2368158 59.4057692,52.2362326 C60.0826923,47.914565 68.9884615,47.850698 69.5384615,52.4704117 L69.5384615,82.530484 C69.8134615,83.2543101 72.7326923,83.2117321 72.9230769,82.530484 C73.2192308,77.1443663 74.5942308,52.8961917 74.6153846,52.3426777 C75.3134615,47.914565 84.0711538,47.914565 84.7480769,52.3426777 C84.7903846,52.9174807 86.1442308,77.1443663 86.4403846,82.530484 C86.6307692,83.2117321 89.5711538,83.2543101 89.825,82.530484 L89.825,52.4704117 C90.375,47.871987 99.3019231,47.914565 99.9788462,52.2362326 Z M125.194231,113.058914 L122.021154,152.464859 C121.767308,155.44532 124.115385,158 127.076923,158 L138.923077,158 C141.736538,158 144,155.722077 144,152.890639 L144,54.1096649 C144,51.2995165 141.736538,49.0003042 138.923077,49.0003042 C121.471154,49.0003042 92.0884615,87.0011747 125.194231,113.058914 Z" id="Shape" fill="#FFFFFF" fill-rule="nonzero"></path>
        </g>
    </g>
</svg>
