<?xml version="1.0" encoding="UTF-8"?>
<svg width="232px" height="229px" viewBox="0 0 232 229" version="1.1" xmlns="http://www.w3.org/2000/svg" xmlns:xlink="http://www.w3.org/1999/xlink">
    <title>Group</title>
    <g id="Logos,-Icons,-Illustrations" stroke="none" stroke-width="1" fill="none" fill-rule="evenodd">
        <g id="Group" transform="translate(-15.000000, 0.000000)">
            <polygon id="Polygon" fill="#9013FE" opacity="0.217889695" points="114.5 0 213.659909 57.25 213.659909 171.75 114.5 229 15.3400913 171.75 15.3400913 57.25"></polygon>
            <polygon id="Polygon" fill="#9013FE" opacity="0.343424479" points="140.5 14 225.803502 63 225.803502 161 140.5 210 55.1964977 161 55.1964977 63"></polygon>
            <polygon id="Polygon" fill="#9013FE" points="172.5 29 246.545172 71.75 246.545172 157.25 172.5 200 98.454828 157.25 98.454828 71.75"></polygon>
            <g id="Group-121" transform="translate(116.000000, 85.000000)">
                <path d="M87.8703498,11.0363573 C93.9934253,15.2631523 97.3699754,22.7955835 98,33.6336508 C93.4976787,34.007395 90.6838234,35.3178065 89.5584339,37.5648855 L59.701377,17.3392523 C53.3896759,14.8586473 48.5370864,15.0908916 45.1436084,18.0359852 C40.0533914,22.4536255 36.282026,23.4398948 34.7008551,22.3705713 C33.1196843,21.3012478 31.8355796,18.1794076 34.7008551,16.2576245 C36.6110388,14.9764357 39.880421,11.9848164 44.5090018,7.28276647 C50.6959707,6.80417915 55.075469,6.5648855 57.6474968,6.5648855 C60.2195245,6.5648855 66.6358478,8.72480876 76.8964667,13.0446553 C78.8081463,14.2659214 80.7978785,14.6873448 82.8656635,14.3089256 C84.9334484,13.9305064 86.6016772,12.8396503 87.8703498,11.0363573 Z" id="Path-57" fill="#FFFFFF"></path>
                <path d="M90,7.25190999 L99.758762,0.564885496 C108.391052,8.09463984 112.955442,15.5670626 113.451934,22.9821538 L114,32.0346243 L102.331861,37.5648855 C101.749541,26.5748475 100.262567,19.2577423 97.8709377,15.6135698 C95.4793088,11.9693973 92.8556629,9.18217732 90,7.25190999 Z" id="Path-105" fill="#FFFFFF"></path>
                <path d="M13.7375215,0.564885496 C5.73311515,8.62098502 1.36499701,16.587374 0.633167033,24.4640523 L0,32.4966004 L11.3445141,38.5648855 C12.0229575,25.3620445 15.1369387,16.0340426 20.6864578,10.5808797 L24,7.32052969 L13.7375215,0.564885496 Z" id="Path-111" fill="#FFFFFF"></path>
                <path d="M15,35.0305964 C16.1150805,25.7455738 18.725573,18.695179 22.8314775,13.879412 L26.8270554,9.5648855 C28.9691837,10.6487557 30.6561589,11.1906908 31.8879811,11.1906908 C33.1198033,11.1906908 34.5769154,11.7291761 36.2593175,12.8061467 L31.8879811,16.6392371 C30.5405876,19.8529001 30.9812023,21.9980891 33.2098253,23.0748042 C36.5527597,24.6898768 39.8452196,24.5860001 42.7798323,22.297741 C45.7144451,20.0094818 48.5505452,16.6904089 54.5929779,17.5632035 C58.6212663,18.1450667 67.930181,23.967531 82.5197219,35.0305964 C90.650231,39.7515583 93.5510535,43.5150142 91.2221893,46.3209642 C90.0585829,48.2013505 88.0869941,48.4710085 85.307423,47.1299379 C86.3568283,51.7546892 85.6336393,54.27616 83.137856,54.6943501 C80.6420727,55.1125403 78.7108164,54.9668828 77.344087,54.2573778 C77.7683714,58.900528 76.1306844,61.0096221 72.4310258,60.5846601 L69.8033841,60.1122317 C70.0444894,63.5261098 69.0284933,65.3330286 66.7553959,65.5329881 C63.3457497,65.8329275 58.7724335,63.9855696 56.439949,61.3393956 C58.6903078,58.2556744 58.945069,55.8950018 57.2042326,54.2573778 C55.4633961,52.6197538 53.5020334,53.356921 51.3201443,56.4688793 C54.2629506,51.09412 54.5863722,47.7114816 52.2904091,46.3209642 C49.9944461,44.9304467 47.5369627,46.2526074 44.9179591,50.2874461 C46.3371524,46.8201603 46.0679096,44.4817196 44.1102308,43.2721241 C42.152552,42.0625285 40.005533,42.8897733 37.669174,45.7538584 C38.709179,42.5663883 38.1311867,40.5681343 35.9351972,39.7590967 C33.7392077,38.9500591 31.3384438,40.3968591 28.7329055,44.0994966 C22.7422381,38.532955 18.8653074,35.6298362 17.1021134,35.3901403 L15,35.0305964 Z" id="Path-112" fill="#FFFFFF"></path>
                <ellipse id="Oval" fill="#FFFFFF" transform="translate(32.989307, 46.248255) rotate(27.000000) translate(-32.989307, -46.248255) " cx="32.9893066" cy="46.248255" rx="3.13148594" ry="5.08244376"></ellipse>
                <ellipse id="Oval" fill="#FFFFFF" transform="translate(40.012302, 50.720630) rotate(27.000000) translate(-40.012302, -50.720630) " cx="40.0123016" cy="50.72063" rx="3.52292313" ry="6.84175093"></ellipse>
                <ellipse id="Oval" fill="#FFFFFF" transform="translate(47.791506, 54.131251) rotate(27.000000) translate(-47.791506, -54.131251) " cx="47.7915056" cy="54.1312515" rx="3.13148967" ry="7.62366505"></ellipse>
                <ellipse id="Oval" fill="#FFFFFF" transform="translate(54.010945, 59.598987) rotate(27.000000) translate(-54.010945, -59.598987) " cx="54.0109446" cy="59.5989874" rx="2.34861619" ry="5.08244345"></ellipse>
                <path d="M70,60.5648855 C68.3708057,59.5986189 67.1816081,58.8820798 66.4324071,58.4152682 C60.410518,54.663154 56.2663823,51.3796931 54,48.5648855" id="Path-113" stroke="#9013FE" stroke-width="1.35" stroke-linecap="round" stroke-linejoin="round"></path>
                <path d="M77,54.5648855 C74.8616825,53.4375745 73.3008606,52.6016122 72.3175344,52.0569987 C64.4138049,47.6795321 58.9746268,43.8488277 56,40.5648855" id="Path-113" stroke="#9013FE" stroke-width="1.35" stroke-linecap="round" stroke-linejoin="round"></path>
                <path d="M85.7781489,49.0838271 C83.3854957,47.7933115 81.6390244,46.8363283 80.5387351,46.2128773 C71.6948856,41.201735 65.6086012,36.8167424 62.279882,33.0578995" id="Path-113" stroke="#9013FE" stroke-width="1.35" stroke-linecap="round" stroke-linejoin="round" transform="translate(74.029015, 41.070863) rotate(-4.000000) translate(-74.029015, -41.070863) "></path>
            </g>
        </g>
    </g>
</svg>
