<?xml version="1.0" encoding="UTF-8"?>
<svg width="232px" height="229px" viewBox="0 0 232 229" version="1.1" xmlns="http://www.w3.org/2000/svg" xmlns:xlink="http://www.w3.org/1999/xlink">
    <!-- Generator: Sketch 58 (84663) - https://sketch.com -->
    <title>Group</title>
    <desc>Created with Sketch.</desc>
    <g id="Logos,-Icons,-Illustrations" stroke="none" stroke-width="1" fill="none" fill-rule="evenodd">
        <g id="Group" transform="translate(-15.000000, 0.000000)">
            <polygon id="Polygon" fill="#9013FE" opacity="0.217889695" points="114.5 0 213.659909 57.25 213.659909 171.75 114.5 229 15.3400913 171.75 15.3400913 57.25"></polygon>
            <polygon id="Polygon" fill="#9013FE" opacity="0.343424479" points="140.5 14 225.803502 63 225.803502 161 140.5 210 55.1964977 161 55.1964977 63"></polygon>
            <polygon id="Polygon" fill="#9013FE" points="172.5 29 246.545172 71.75 246.545172 157.25 172.5 200 98.454828 157.25 98.454828 71.75"></polygon>
            <path d="M130.995117,128 L130.995117,101.984375 L140.06543,101.984375 C143.229508,101.984375 145.488274,102.514643 146.841797,103.575195 C148.195319,104.635747 148.87207,106.408191 148.87207,108.892578 C148.87207,111.705092 147.966806,113.893547 146.15625,115.458008 C144.345694,117.022469 141.81154,117.804688 138.553711,117.804688 L136.303711,117.804688 L136.303711,128 L130.995117,128 Z M136.303711,114.236328 L137.358398,114.236328 C139.20997,114.236328 140.67187,113.805668 141.744141,112.944336 C142.816412,112.083004 143.352539,110.91407 143.352539,109.4375 C143.352539,106.847643 141.706071,105.552734 138.413086,105.552734 L136.303711,105.552734 L136.303711,114.236328 Z M174.483398,128 L174.483398,119.105469 L165.588867,119.105469 L165.588867,116.064453 L174.483398,116.064453 L174.483398,107.1875 L177.524414,107.1875 L177.524414,116.064453 L186.401367,116.064453 L186.401367,119.105469 L177.524414,119.105469 L177.524414,128 L174.483398,128 Z M218.727539,123.798828 L218.727539,127.15625 C216.231433,128.011723 213.975596,128.439453 211.959961,128.439453 C209.627918,128.439453 207.741218,127.935552 206.299805,126.927734 C204.858391,125.919917 204.137695,124.601571 204.137695,122.972656 C204.137695,120.593738 205.81346,118.765631 209.165039,117.488281 C206.247056,116.749996 204.788086,115.308604 204.788086,113.164062 C204.788086,111.640617 205.514641,110.442387 206.967773,109.569336 C208.420906,108.696285 210.413073,108.259766 212.944336,108.259766 C214.760751,108.259766 216.512687,108.429686 218.200195,108.769531 L218.200195,112.003906 C216.512687,111.664061 214.948249,111.494141 213.506836,111.494141 C211.163074,111.494141 209.991211,112.18554 209.991211,113.568359 C209.991211,115.220711 211.918926,116.046875 215.774414,116.046875 L216.670898,116.046875 L216.670898,119.298828 L214.807617,119.298828 C211.303693,119.298828 209.551758,120.341786 209.551758,122.427734 C209.551758,124.24415 210.741199,125.152344 213.120117,125.152344 C214.538093,125.152344 216.407215,124.701176 218.727539,123.798828 Z" id="P+ε" fill="#FFFFFF" fill-rule="nonzero"></path>
        </g>
    </g>
</svg>