<?xml version="1.0" encoding="UTF-8"?>
<svg width="205px" height="208px" viewBox="0 0 205 208" version="1.1" xmlns="http://www.w3.org/2000/svg" xmlns:xlink="http://www.w3.org/1999/xlink">
    <title>social-media-icon</title>
    <g id="Logos,-Icons,-Illustrations" stroke="none" stroke-width="1" fill="none" fill-rule="evenodd">
        <g id="social-media-icon">
            <ellipse id="Oval" fill="#9013FE" cx="102.5" cy="103.75" rx="102.5" ry="103.75"></ellipse>
            <g id="bullhorn-solid" transform="translate(44.000000, 53.000000)" fill="#FFFFFF" fill-rule="nonzero">
                <path d="M116,48.28125 C116,43.5275586 113.392014,39.4216406 109.555556,37.1926562 L109.555556,6.43951172 C109.555556,4.67925781 108.149861,0 103.111111,0 C101.677222,0 100.253403,0.478789062 99.0873611,1.41222656 L81.9632639,15.0979492 C73.3619444,21.965957 62.5634722,25.75 51.5555556,25.75 L12.8888889,25.75 C5.76979167,25.75 0,31.5135742 0,38.625 L0,57.9375 C0,65.0489258 5.76979167,70.8125 12.8888889,70.8125 L19.6756944,70.8125 C19.3957639,72.9207813 19.2366667,75.0652734 19.2366667,77.25 C19.2366667,85.2506055 21.1015278,92.8106445 24.3841667,99.5680078 C25.429375,101.718535 27.7111111,103 30.1036111,103 L45.0627778,103 C50.3089583,103 53.4586806,96.9970313 50.27875,92.82875 C46.9759722,88.4995313 45.0124306,83.1000781 45.0124306,77.25 C45.0124306,75.0149805 45.3386806,72.8664648 45.9005556,70.8125 L51.5555556,70.8125 C62.5634722,70.8125 73.3619444,74.596543 81.96125,81.4645508 L99.0853472,95.1502734 C100.227451,96.0632314 101.646329,96.5612189 103.109097,96.5625 C108.127708,96.5625 109.553542,91.9798047 109.553542,90.125 L109.553542,59.3718555 C113.392014,57.1408594 116,53.0349414 116,48.28125 Z M96.6666667,76.7309766 L90.0107639,71.4119922 C79.1357639,62.7213672 65.4755556,57.9375 51.5555556,57.9375 L51.5555556,38.625 C65.4755556,38.625 79.1357639,33.8411328 90.0107639,25.1505078 L96.6666667,19.8315234 L96.6666667,76.7309766 Z" id="Shape"></path>
            </g>
        </g>
    </g>
</svg>
