<?xml version="1.0" encoding="UTF-8"?>
<svg width="205px" height="208px" viewBox="0 0 205 208" version="1.1" xmlns="http://www.w3.org/2000/svg" xmlns:xlink="http://www.w3.org/1999/xlink">
    <!-- Generator: Sketch 58 (84663) - https://sketch.com -->
    <title>otc-icon</title>
    <desc>Created with Sketch.</desc>
    <g id="Logos,-Icons,-Illustrations" stroke="none" stroke-width="1" fill="none" fill-rule="evenodd">
        <g id="otc-icon">
            <ellipse id="Oval" fill="#9013FE" cx="102.5" cy="103.75" rx="102.5" ry="103.75"></ellipse>
            <g id="Group-71" transform="translate(40.000000, 41.217514)" fill="#FFFFFF" fill-rule="nonzero">
                <g id="Group-69" transform="translate(0.000000, 0.782486)">
                    <g id="copyright">
                        <path d="M62.5,130 C99.7792206,130 130,99.7792206 130,62.5 C130,25.2207794 99.7792206,-5 62.5,-5 C25.2207794,-5 -5,25.2207794 -5,62.5 C-5,99.7792206 25.2207794,130 62.5,130 Z M62.5,120 C30.7436269,120 5,94.2563731 5,62.5 C5,30.7436269 30.7436269,5 62.5,5 C94.2563731,5 120,30.7436269 120,62.5 C120,94.2563731 94.2563731,120 62.5,120 Z" id="Oval"></path>
                    </g>
                </g>
                <path d="M36.6942561,53.1384856 C35.3262493,53.1384856 34.1442611,53.4144828 33.1482561,53.9664856 C32.1522511,54.5184883 31.3422592,55.256481 30.7182561,56.1804856 C30.094253,57.1044902 29.6322576,58.1544797 29.3322561,59.3304856 C29.0322546,60.5064915 28.8822561,61.7064795 28.8822561,62.9304856 C28.8822561,64.1544917 29.0322546,65.3544797 29.3322561,66.5304856 C29.6322576,67.7064915 30.094253,68.756481 30.7182561,69.6804856 C31.3422592,70.6044902 32.1522511,71.3424828 33.1482561,71.8944856 C34.1442611,72.4464883 35.3262493,72.7224856 36.6942561,72.7224856 C38.062263,72.7224856 39.2442511,72.4464883 40.2402561,71.8944856 C41.2362611,71.3424828 42.046253,70.6044902 42.6702561,69.6804856 C43.2942592,68.756481 43.7562546,67.7064915 44.0562561,66.5304856 C44.3562576,65.3544797 44.5062561,64.1544917 44.5062561,62.9304856 C44.5062561,61.7064795 44.3562576,60.5064915 44.0562561,59.3304856 C43.7562546,58.1544797 43.2942592,57.1044902 42.6702561,56.1804856 C42.046253,55.256481 41.2362611,54.5184883 40.2402561,53.9664856 C39.2442511,53.4144828 38.062263,53.1384856 36.6942561,53.1384856 Z M36.6942561,49.4664856 C38.6142657,49.4664856 40.3362485,49.826482 41.8602561,50.5464856 C43.3842637,51.2664892 44.6742508,52.2384795 45.7302561,53.4624856 C46.7862614,54.6864917 47.5962533,56.1144774 48.1602561,57.7464856 C48.7242589,59.3784937 49.0062561,61.1064765 49.0062561,62.9304856 C49.0062561,64.7784948 48.7242589,66.5184774 48.1602561,68.1504856 C47.5962533,69.7824937 46.7862614,71.2104795 45.7302561,72.4344856 C44.6742508,73.6584917 43.3842637,74.624482 41.8602561,75.3324856 C40.3362485,76.0404891 38.6142657,76.3944856 36.6942561,76.3944856 C34.7742465,76.3944856 33.0522637,76.0404891 31.5282561,75.3324856 C30.0042485,74.624482 28.7142614,73.6584917 27.6582561,72.4344856 C26.6022508,71.2104795 25.7922589,69.7824937 25.2282561,68.1504856 C24.6642533,66.5184774 24.3822561,64.7784948 24.3822561,62.9304856 C24.3822561,61.1064765 24.6642533,59.3784937 25.2282561,57.7464856 C25.7922589,56.1144774 26.6022508,54.6864917 27.6582561,53.4624856 C28.7142614,52.2384795 30.0042485,51.2664892 31.5282561,50.5464856 C33.0522637,49.826482 34.7742465,49.4664856 36.6942561,49.4664856 Z M52.0860854,50.0784856 L72.8940854,50.0784856 L72.8940854,53.9664856 L64.7220854,53.9664856 L64.7220854,75.7824856 L60.2220854,75.7824856 L60.2220854,53.9664856 L52.0860854,53.9664856 L52.0860854,50.0784856 Z M94.6579146,58.2504856 C94.4659137,57.5064819 94.2019163,56.8224887 93.8659146,56.1984856 C93.5299129,55.5744825 93.0979173,55.0344879 92.5699146,54.5784856 C92.041912,54.1224833 91.4239182,53.7684868 90.7159146,53.5164856 C90.0079111,53.2644843 89.1859193,53.1384856 88.2499146,53.1384856 C86.8819078,53.1384856 85.6999196,53.4144828 84.7039146,53.9664856 C83.7079096,54.5184883 82.8979177,55.256481 82.2739146,56.1804856 C81.6499115,57.1044902 81.1879161,58.1544797 80.8879146,59.3304856 C80.5879131,60.5064915 80.4379146,61.7064795 80.4379146,62.9304856 C80.4379146,64.1544917 80.5879131,65.3544797 80.8879146,66.5304856 C81.1879161,67.7064915 81.6499115,68.756481 82.2739146,69.6804856 C82.8979177,70.6044902 83.7079096,71.3424828 84.7039146,71.8944856 C85.6999196,72.4464883 86.8819078,72.7224856 88.2499146,72.7224856 C89.2579197,72.7224856 90.1459108,72.5484873 90.9139146,72.2004856 C91.6819185,71.8524838 92.3419119,71.3724886 92.8939146,70.7604856 C93.4459174,70.1484825 93.8779131,69.4344897 94.1899146,68.6184856 C94.5019162,67.8024815 94.7059141,66.9264903 94.8019146,65.9904856 L99.1939146,65.9904856 C99.0979141,67.5264933 98.7679174,68.9304792 98.2039146,70.2024856 C97.6399118,71.4744919 96.8779194,72.572481 95.9179146,73.4964856 C94.9579098,74.4204902 93.8299211,75.1344831 92.5339146,75.6384856 C91.2379081,76.1424881 89.8099224,76.3944856 88.2499146,76.3944856 C86.329905,76.3944856 84.6079222,76.0404891 83.0839146,75.3324856 C81.559907,74.624482 80.2699199,73.6584917 79.2139146,72.4344856 C78.1579093,71.2104795 77.3479174,69.7824937 76.7839146,68.1504856 C76.2199118,66.5184774 75.9379146,64.7784948 75.9379146,62.9304856 C75.9379146,61.1064765 76.2199118,59.3784937 76.7839146,57.7464856 C77.3479174,56.1144774 78.1579093,54.6864917 79.2139146,53.4624856 C80.2699199,52.2384795 81.559907,51.2664892 83.0839146,50.5464856 C84.6079222,49.826482 86.329905,49.4664856 88.2499146,49.4664856 C89.6899218,49.4664856 91.0459083,49.6644836 92.3179146,50.0604856 C93.589921,50.4564876 94.7119098,51.0324818 95.6839146,51.7884856 C96.6559195,52.5444894 97.4419116,53.4624802 98.0419146,54.5424856 C98.6419176,55.622491 99.0139139,56.8584786 99.1579146,58.2504856 L94.6579146,58.2504856 Z" id="OTC"></path>
            </g>
        </g>
    </g>
</svg>