<?xml version="1.0" encoding="UTF-8"?>
<svg width="205px" height="208px" viewBox="0 0 205 208" version="1.1" xmlns="http://www.w3.org/2000/svg" xmlns:xlink="http://www.w3.org/1999/xlink">
    <title>finance-icon</title>
    <g id="Logos,-Icons,-Illustrations" stroke="none" stroke-width="1" fill="none" fill-rule="evenodd">
        <g id="finance-icon">
            <ellipse id="Oval" fill="#9013FE" cx="102.5" cy="103.75" rx="102.5" ry="103.75"></ellipse>
            <path d="M81.7576302,121.910891 L61,121.910891 C61.9814531,133.507575 65.5637034,142.303234 71.7468582,148.29813 C77.930013,154.293026 86.5175991,157.683531 97.5098743,158.469747 L97.5098743,171 L106.195691,171 L106.195691,158.469747 C113.55659,157.978362 119.592436,156.504229 124.303411,154.047305 C129.014386,151.59038 132.768388,148.789512 135.56553,145.644664 C138.362671,142.499801 140.301012,139.281278 141.38061,135.988999 C142.460209,132.69672 143,129.969574 143,127.807481 C143,125.350556 142.828248,122.549704 142.48474,119.40484 C142.141231,116.259977 141.037113,113.115161 139.172352,109.970297 C137.307591,106.825433 134.412348,103.803462 130.486535,100.90429 C126.791653,98.1756588 121.618892,95.860571 114.968112,93.9589661 L113.70377,93.6072607 C112.673244,93.3124298 111.684135,93.0452421 110.736424,92.8056934 L109.802513,92.5753575 C108.575697,92.2805281 107.373435,91.9857 106.195691,91.6908691 L106.195691,65.5984598 C109.532632,65.5984598 112.378803,66.974317 114.734291,69.7260726 C117.089778,72.4778282 118.316576,75.8191956 118.414722,79.750275 L139.319569,79.750275 C139.025133,74.6398718 137.945551,70.2174738 136.08079,66.4829483 C134.216029,62.7484228 131.811505,59.6281753 128.867145,57.1221122 C125.922786,54.6160491 122.512287,52.6505388 118.635548,51.2255226 C114.758808,49.8005063 110.61223,48.84232 106.195691,48.3509351 L106.195691,37 L97.5098743,37 L97.5098743,48.3509351 C93.0933352,48.6457661 88.8240781,49.5056768 84.7019749,50.9306931 C80.5798717,52.3557094 76.9485338,54.3703573 73.8078995,56.9746975 C70.6672494,59.5790376 68.1400455,62.7975798 66.2262118,66.630363 C64.3123782,70.4631655 63.3554758,74.8855635 63.3554758,79.8976898 C63.3554758,84.8115391 64.1896984,88.9145417 65.8581688,92.2068207 C67.5266391,95.4990997 69.7594115,98.250814 72.556553,100.462046 C75.3536944,102.673278 78.5188333,104.442238 82.0520646,105.768977 C85.5852959,107.095716 89.1675462,108.250458 92.7989228,109.233223 C93.5350127,109.380639 94.2296898,109.541873 94.8829657,109.716928 L95.5224417,109.89659 C96.3566768,110.142282 97.0191478,110.363402 97.5098743,110.559956 L97.5098743,141.369637 C92.9951899,140.485144 89.2166367,138.421358 86.1741472,135.178218 C83.1316425,131.935077 81.6594848,127.512679 81.7576302,121.910891 Z M106,141 L106,113 C111.82719,114.555563 115.950605,116.281241 118.37037,118.177083 C120.790136,120.072926 122,122.916648 122,126.708333 C122,129.041678 121.506178,131.059019 120.518519,132.760417 C119.530859,134.461814 118.271613,135.895827 116.740741,137.0625 C115.209869,138.229172 113.481491,139.128469 111.555556,139.760417 C109.62962,140.392364 107.777787,140.805555 106,141 Z M96,65 L96,89 C91.3777547,87.92024 88.0555657,86.4969413 86.0333333,84.7300613 C84.011101,82.9631813 83,80.4601389 83,77.2208589 C83,75.1594989 83.3611075,73.3681058 84.0833333,71.8466258 C84.8055592,70.3251458 85.7925863,69.0490849 87.0444444,68.0184049 C88.2963026,66.9877249 89.6925849,66.2269939 91.2333333,65.7361963 C92.7740818,65.2453963 94.3629548,65 96,65 Z" id="$" fill="#FFFFFF" fill-rule="nonzero"></path>
        </g>
    </g>
</svg>
