<?xml version="1.0" encoding="UTF-8"?>
<svg width="205px" height="208px" viewBox="0 0 205 208" version="1.1" xmlns="http://www.w3.org/2000/svg" xmlns:xlink="http://www.w3.org/1999/xlink">
    <title>gaming-icon</title>
    <g id="Logos,-Icons,-Illustrations" stroke="none" stroke-width="1" fill="none" fill-rule="evenodd">
        <g id="gaming-icon">
            <ellipse id="Oval" fill="#9013FE" cx="102.5" cy="103.75" rx="102.5" ry="103.75"></ellipse>
            <path d="M136.516174,70 L67.5053915,70 C48.4411627,70 33,85.43875 33,104.5 C33,123.56125 48.4411627,139 67.5053915,139 C77.1669011,139 85.8795124,135.0325 92.1336146,128.65 L111.866385,128.65 C118.120488,135.0325 126.854665,139 136.494609,139 C155.558837,139 171,123.56125 171,104.5 C171,85.43875 155.580403,70 136.516174,70 Z M88.2086263,108.8125 C88.2086263,110.235625 87.0440694,111.4 85.620722,111.4 L74.4064698,111.4 L74.4064698,122.6125 C74.4064698,124.035625 73.2419128,125.2 71.8185654,125.2 L63.1922175,125.2 C61.7688701,125.2 60.6043132,124.035625 60.6043132,122.6125 L60.6043132,111.4 L49.3900609,111.4 C47.9667135,111.4 46.8021566,110.235625 46.8021566,108.8125 L46.8021566,100.1875 C46.8021566,98.764375 47.9667135,97.6 49.3900609,97.6 L60.6043132,97.6 L60.6043132,86.3875 C60.6043132,84.964375 61.7688701,83.8 63.1922175,83.8 L71.8185654,83.8 C73.2419128,83.8 74.4064698,84.964375 74.4064698,86.3875 L74.4064698,97.6 L85.620722,97.6 C87.0440694,97.6 88.2086263,98.764375 88.2086263,100.1875 L88.2086263,108.8125 Z M127.889827,123.475 C122.174871,123.475 117.538209,118.839063 117.538209,113.125 C117.538209,107.410938 122.174871,102.775 127.889827,102.775 C133.604782,102.775 138.241444,107.410938 138.241444,113.125 C138.241444,118.839063 133.604782,123.475 127.889827,123.475 Z M145.142522,106.225 C139.427567,106.225 134.790905,101.589062 134.790905,95.875 C134.790905,90.1609375 139.427567,85.525 145.142522,85.525 C150.857478,85.525 155.49414,90.1609375 155.49414,95.875 C155.49414,101.589062 150.857478,106.225 145.142522,106.225 Z" id="Shape" fill="#FFFFFF" fill-rule="nonzero"></path>
        </g>
    </g>
</svg>
