<?xml version="1.0" encoding="UTF-8"?>
<svg width="232px" height="229px" viewBox="0 0 232 229" version="1.1" xmlns="http://www.w3.org/2000/svg" xmlns:xlink="http://www.w3.org/1999/xlink">
    <title>Group 179</title>
    <g id="Logos,-Icons,-Illustrations" stroke="none" stroke-width="1" fill="none" fill-rule="evenodd">
        <g id="Group-179" transform="translate(-15.000000, 0.000000)">
            <g id="Group" fill="#9013FE">
                <polygon id="Polygon" opacity="0.217889695" points="114.5 0 213.659909 57.25 213.659909 171.75 114.5 229 15.3400913 171.75 15.3400913 57.25"></polygon>
                <polygon id="Polygon" opacity="0.343424479" points="140.5 14 225.803502 63 225.803502 161 140.5 210 55.1964977 161 55.1964977 63"></polygon>
                <polygon id="Polygon" points="172.5 29 246.545172 71.75 246.545172 157.25 172.5 200 98.454828 157.25 98.454828 71.75"></polygon>
            </g>
            <g id="Group-8" transform="translate(97.000000, 74.000000)" fill="#FFFFFF">
                <g id="Group-7" transform="translate(83.657268, 40.906691) rotate(-135.000000) translate(-83.657268, -40.906691) translate(75.157268, -7.093309)">
                    <path d="M8.1496011,0 C11.9023384,8.42856248 13.778707,13.678617 13.778707,15.7501635 C13.778707,18.8574833 11.2584705,21.3764637 8.1496011,21.3764637 C5.04073175,21.3764637 2.52049519,18.8574833 2.52049519,15.7501635 C2.52049519,13.678617 4.39686382,8.42856248 8.1496011,0 Z M8.1496011,0 L7.89755158,0.582204967 L7.89735677,13.9702864 C7.03708448,14.1283227 6.38525447,14.881693 6.38525447,15.7872304 C6.38525447,16.8075444 7.21279483,17.6346723 8.23361761,17.6346723 C9.25444038,17.6346723 10.0819807,16.8075444 10.0819807,15.7872304 C10.0819807,14.8237146 9.34400989,14.0324753 8.40219079,13.9473687 L8.40219079,13.9473687 L8.40165062,0.582204967 L8.1496011,0 L8.1496011,0 Z" id="Combined-Shape"></path>
                    <rect id="Rectangle" x="2.6885282" y="20.3218605" width="10.7541128" height="34.7654968"></rect>
                    <path d="M16.0748972,66.1059387 L16.1750497,64.8345297 C16.1773836,64.8337407 16.1797174,64.8329513 16.1820513,64.8321616 L16.0969797,66.099192 L16.0748972,66.1059387 Z M8.61410915,36.6129387 C11.5353766,36.6129387 13.9709964,38.8480128 14.2213959,41.7585288 L16.1902433,64.6434078 L16.1750497,64.8345297 C13.4561286,65.7537364 10.7713521,66.2133397 8.12072043,66.2133397 C5.50317361,66.2133397 2.82522447,65.7615563 0.124383812,64.8651533 L0.13089718,64.8669387 L0.11289718,64.6434078 L2.07846208,41.7593109 C2.32848142,38.8484597 4.76424731,36.6129387 7.68581606,36.6129387 L8.61410915,36.6129387 Z M0.124383812,64.8651533 L0.13089718,64.8669387 L0.20889718,65.8679387 L0.124383812,64.8651533 Z M16.0748972,66.1059387 L14.1875923,90.0416255 C13.9567506,92.9692286 11.5136967,95.2272304 8.57700669,95.2272304 L7.7228633,95.2272304 C4.78589642,95.2272304 2.3427099,92.9688161 2.11222114,90.0409074 L0.22289718,66.0369387 L0.234390141,66.1634302 C2.6159735,66.9176175 5.0234168,67.3237183 7.45672004,67.3817327 L8.06558459,67.3889845 C10.7746566,67.3889845 13.4517883,66.9590537 16.0969797,66.099192 L16.0748972,66.1059387 Z" id="Combined-Shape"></path>
                </g>
                <path d="M17.01656,52.3793828 C19.0907657,49.6400855 18.8493641,47.752438 16.1902452,47.1720179 C12.726152,46.4158917 9.90115485,50.8798484 8.86855273,57.1078932 C8.75259665,57.8072716 8.66569656,58.490879 8.60764275,59.152494 C7.33075603,60.17163 5.91826369,61.2562634 4.37037361,62.4060586 L4.87126724,63.0803772 C6.18954447,62.1011418 7.41096031,61.1683662 8.53563946,60.2818493 C8.35938401,64.8212384 9.65581495,68.0478364 12.3479406,67.6778144 C13.9586448,67.4564295 17.0171251,66.0415027 20.5164255,64.017785 L20.3986367,64.6318093 C19.9803791,66.9447883 19.9479985,68.7712282 20.4158152,69.5053608 C21.3527891,70.9757297 26.788473,69.8436505 32.6023231,67.3552762 C32.1675429,68.9452739 32.0067225,70.3953551 32.2013682,71.5325897 L32.3361677,72.2825873 C33.0704286,76.170593 34.0531148,78.2672437 35.4348127,78.5892276 L35.6254541,77.771147 C34.6425855,77.5421043 33.7170026,75.4086758 33.0293283,71.3908786 C32.8298578,70.2254545 33.0597131,68.6491824 33.6081532,66.9128278 L34.046536,66.7124663 C41.1836522,63.4129285 45.5370011,59.5767878 44.4600769,56.3345686 C43.8644647,54.5414012 42.5913745,54.0278941 41.0217476,54.7851702 C39.7307696,55.4080104 38.2335057,56.885732 36.7784903,58.9050033 C35.1099547,61.2205981 33.7377761,63.8706684 32.9247654,66.2976147 L32.3048864,66.5663832 L31.6742002,66.8298353 C26.5335282,68.936842 21.6903402,69.9423578 21.1242104,69.053945 C20.6920444,68.3757581 20.869009,66.1749473 21.4998636,63.4399271 C24.71606,61.5209054 28.2139211,59.1523575 31.2586394,56.7609946 L32.0255356,56.1504404 C35.2815944,53.5217697 37.6555327,51.1214426 38.7936751,49.2033485 C40.2952628,46.6727456 39.6427326,44.8678316 36.6762387,44.3504899 C31.4177546,43.4334367 26.8211509,47.7114023 23.4387739,55.1071576 C22.2742842,57.6533791 21.3464148,60.4408822 20.7626156,62.9003037 L20.0320149,63.3276208 C16.6531877,65.2803849 13.7267164,66.6404099 12.2335613,66.8456381 C10.2248485,67.1217277 9.15182165,64.1359393 9.39887519,59.8727047 L9.41776984,59.5800734 C13.0689746,56.6473949 15.6002664,54.2498094 17.01656,52.3793828 Z M37.4599966,59.3960726 C38.8405284,57.4801697 40.2478967,56.0911704 41.3867511,55.5417231 C42.5058598,55.0018023 43.2291713,55.2935536 43.6629019,56.5993555 C44.5049813,59.134544 40.6929793,62.6006876 34.3455515,65.6433216 L33.9903216,65.8119125 C34.7924496,63.685685 36.010662,61.4074602 37.4599966,59.3960726 Z M24.2026755,55.4565205 C27.4437621,48.3697044 31.7662157,44.3468846 36.531925,45.1780004 C38.8804801,45.5875766 39.2901089,46.7206195 38.0712771,48.7746981 C36.9118289,50.7286985 34.3147075,53.2926037 30.7397922,56.1003907 C28.203613,58.0923401 25.3400616,60.0725963 22.6020908,61.7816326 L21.78492,62.2859474 C22.3607483,60.0952014 23.1898497,57.6711203 24.2026755,55.4565205 Z M9.69723996,57.2452885 C10.6586704,51.4465095 13.2287444,47.3853729 16.0111116,47.9926951 C17.953336,48.4166349 18.0992964,49.5579776 16.3468827,51.8723007 C15.1139426,53.5005817 12.9746074,55.5712502 9.93244551,58.0785458 L9.53052208,58.4080601 C9.57637157,58.0275587 9.63186788,57.6395742 9.69723996,57.2452885 Z" id="Path-2" fill-rule="nonzero" transform="translate(24.496655, 61.408419) rotate(-10.000000) translate(-24.496655, -61.408419) "></path>
                <path d="M50.1870531,75.0438641 L49.6908638,74.3660764 L48.9592489,74.8940452 C37.152396,83.2883031 32.341919,80.448217 33.9904995,66.090288 L34.043534,65.6426487 C35.0108508,57.7184269 32.6271685,53.5445458 26.9078532,53.3869297 C21.3718989,53.2343667 12.6998368,56.8888613 0.837022904,64.3385975 L1.28375082,65.0499583 L2.42723526,64.3375565 L3.55021194,63.6494182 C14.1210419,57.2273494 21.9140701,54.0896271 26.8847128,54.2266109 C31.9352097,54.3657953 34.0530767,57.9291554 33.2529239,65.1695395 L33.2097234,65.5408647 C31.2828811,81.3254826 37.1381132,84.5966266 50.1870531,75.0438641 Z" id="Path-4" fill-rule="nonzero"></path>
            </g>
        </g>
    </g>
</svg>
