<?xml version="1.0" encoding="UTF-8"?>
<svg width="205px" height="208px" viewBox="0 0 205 208" version="1.1" xmlns="http://www.w3.org/2000/svg" xmlns:xlink="http://www.w3.org/1999/xlink">
    <!-- Generator: Sketch 58 (84663) - https://sketch.com -->
    <title>domain-name-transfer-icon</title>
    <desc>Created with Sketch.</desc>
    <g id="Logos,-Icons,-Illustrations" stroke="none" stroke-width="1" fill="none" fill-rule="evenodd">
        <g id="domain-name-transfer-icon">
            <ellipse id="Oval" fill="#9013FE" cx="102.5" cy="103.75" rx="102.5" ry="103.75"></ellipse>
            <g id="globe-solid2" transform="translate(47.500000, 47.500000)" fill="#FFFFFF" fill-rule="nonzero">
                <path d="M54.99985,0 C24.6728355,0 0,25.2335818 0,56.2498466 C0,87.2664182 24.6728355,112.5 54.99985,112.5 C85.3271645,112.5 110,87.2664182 110,56.2498466 C110,25.2335818 85.3271645,0 54.99985,0 Z M104.000235,56.2498466 C104.000235,61.0762147 103.327661,65.7445777 102.07671,70.1647345 L81.6577079,70.1647345 C82.1031905,65.6074353 82.3581805,60.9415268 82.3581805,56.2759251 C82.3581805,51.6103234 82.1031905,46.9447217 81.6577079,42.3874226 L102.092009,42.3874226 C103.333061,46.7919322 104.000235,51.4425004 104.000235,56.2498466 Z M99.5727076,35.4434781 L80.8087411,35.4434781 C79.327699,25.6499178 76.7774987,16.6773708 73.2031384,9.72422214 C84.8813819,14.5205233 94.3499118,23.7872974 99.5727076,35.4434781 Z M75.5466468,56.2759251 C75.5466468,61.0933959 75.2916568,65.7160447 74.8464742,70.1647345 L35.5288111,70.1647345 C35.0833286,65.7160447 34.8286385,61.0937027 34.8286385,56.2759251 C34.8286385,51.4581475 35.0833286,46.8361123 35.5288111,42.3874226 L74.8464742,42.3874226 C75.2916568,46.8364191 75.5466468,51.4584544 75.5466468,56.2759251 Z M63.2609271,6.85190261 C68.0823386,12.3547784 71.9428877,22.6352402 73.9765082,35.4431713 L36.4197763,35.4431713 C38.4629964,22.5741857 42.3505445,12.2559868 47.2043547,6.77274661 C49.7437555,6.355797 52.3470537,6.13581696 54.99985,6.13581696 C57.81494,6.13612377 60.5742321,6.38371636 63.2609271,6.85190261 Z M37.272343,9.53124105 C33.6460847,16.5110818 31.0655856,25.5584895 29.5875434,35.4434781 L10.4272924,35.4434781 C15.7205855,23.6292922 25.3754081,14.2695558 37.272343,9.53124105 Z M28.7175774,70.1647345 L7.92329027,70.1647345 C6.67233917,65.7448845 5.99976546,61.0765216 5.99976546,56.2498466 C5.99976546,51.4425004 6.6666394,46.7916254 7.90799087,42.3874226 L28.7388766,42.3874226 C28.293094,46.9447217 28.0387039,51.6103234 28.0387039,56.2759251 C28.0387039,60.9415268 28.293094,65.6071285 28.7175774,70.1647345 Z M10.4509915,77.1086789 L29.5875434,77.1086789 C31.0781851,86.9672822 33.6523845,95.9932134 37.2642433,102.965384 C25.3886075,98.2332054 15.7484844,88.8955591 10.4509915,77.1086789 Z M47.1527568,105.718356 C42.3232455,100.220696 38.4557967,89.9319504 36.4197763,77.1086789 L73.9762082,77.1086789 C71.9500874,89.8705891 68.1099375,100.122211 63.312825,105.6392 C60.6096307,106.113829 57.8326393,106.363876 54.99955,106.363876 C52.3290544,106.363876 49.7086568,106.141135 47.1527568,105.718356 Z M73.2634361,102.75062 C76.8176971,95.8082093 79.354398,86.8666498 80.8300403,77.1086789 L99.5487086,77.1086789 C94.3301126,88.7200659 84.8966813,97.9543186 73.2634361,102.75062 Z" id="Shape"></path>
            </g>
        </g>
    </g>
</svg>