<svg width="79" height="80" viewBox="0 0 79 80" fill="none" xmlns="http://www.w3.org/2000/svg">
<path d="M39.3674 80C61.1094 80 78.7347 62.0914 78.7347 40C78.7347 17.9086 61.1094 0 39.3674 0C17.6254 0 0 17.9086 0 40C0 62.0914 17.6254 80 39.3674 80Z" fill="#9013FE"/>
<path d="M18.4356 56.7679V26.1301C18.4356 25.2783 17.7478 24.5879 16.8993 24.5879C16.0509 24.5879 15.363 25.2783 15.363 26.1301V58.31C15.363 59.1617 16.0509 59.8522 16.8993 59.8522H61.1208C61.9693 59.8522 62.6571 59.1617 62.6571 58.31C62.6571 57.4583 61.9693 56.7679 61.1208 56.7679H18.4356Z" fill="white"/>
<path d="M27.6344 45.6913L36.0969 51.7716C36.7418 52.235 37.6495 51.9209 37.873 51.157L41.6527 38.2387L45.0411 44.6236C45.4657 45.4238 46.6008 45.4447 47.0544 44.6606L57.4393 26.7103C57.7589 26.1579 57.5719 25.4501 57.0216 25.1293C56.4713 24.8085 55.7661 24.9962 55.4466 25.5486L46.1014 41.7016L42.3595 34.6504C41.8742 33.7359 40.528 33.8741 40.2371 34.8683L36.1191 48.9428L28.0419 43.1392C27.5256 42.7683 26.8078 42.8865 26.4366 43.4034L20.8878 51.1309C20.5157 51.6491 20.6325 52.3719 21.1487 52.7455C21.6649 53.119 22.3851 53.0017 22.7572 52.4835L27.6344 45.6913Z" fill="white"/>
<path fill-rule="evenodd" clip-rule="evenodd" d="M57.7621 23.2376L57.2733 31.4128L50.9536 27.7501L57.7621 23.2376Z" fill="white" stroke="white"/>
</svg>
