<?xml version="1.0" encoding="UTF-8"?>
<svg width="205px" height="208px" viewBox="0 0 205 208" version="1.1" xmlns="http://www.w3.org/2000/svg" xmlns:xlink="http://www.w3.org/1999/xlink">
    <title>anti-spam-icon</title>
    <g id="Logos,-Icons,-Illustrations" stroke="none" stroke-width="1" fill="none" fill-rule="evenodd">
        <g id="anti-spam-icon">
            <ellipse id="Oval" fill="#9013FE" cx="102.5" cy="103.75" rx="102.5" ry="103.75"></ellipse>
            <g id="Group-71" transform="translate(35.000000, 36.217514)">
                <g id="Group-69" transform="translate(5.000000, 5.782486)">
                    <g id="copyright"></g>
                </g>
                <path d="M67.5,135.782486 C104.779221,135.782486 135,105.561706 135,68.2824856 C135,31.003265 104.779221,0.782485579 67.5,0.782485579 C30.2207794,0.782485579 0,31.003265 0,68.2824856 C0,105.561706 30.2207794,135.782486 67.5,135.782486 Z M67.5,125.782486 C35.7436269,125.782486 10,100.038859 10,68.2824856 C10,36.5261125 35.7436269,10.7824856 67.5,10.7824856 C99.2563731,10.7824856 125,36.5261125 125,68.2824856 C125,100.038859 99.2563731,125.782486 67.5,125.782486 Z" id="Oval" fill="#FFFFFF" fill-rule="nonzero"></path>
                <path d="M19.9943415,74.2144856 C19.9943415,75.1984905 20.1623398,76.0384821 20.4983415,76.7344856 C20.8343432,77.4304891 21.3023385,78.0004834 21.9023415,78.4444856 C22.5023445,78.8884878 23.1923376,79.2124846 23.9723415,79.4164856 C24.7523454,79.6204866 25.5983369,79.7224856 26.5103415,79.7224856 C27.4943415,79.7224856 28.334338,79.6084867 29.0303415,79.3804856 C29.726345,79.1524844 30.2903393,78.8584874 30.7223415,78.4984856 C31.1543437,78.1384838 31.4663405,77.7244879 31.6583415,77.2564856 C31.8503425,76.7884832 31.9463415,76.314488 31.9463415,75.8344856 C31.9463415,74.8504807 31.7243437,74.1244879 31.2803415,73.6564856 C30.8363393,73.1884832 30.3503441,72.8584865 29.8223415,72.6664856 C29.0243375,72.3724841 28.1115014,72.0922676 27.0838118,71.8258297 L25.2022915,71.3495103 C24.3005084,71.1169489 23.284529,70.8479417 22.1543415,70.5424856 C21.050336,70.2544841 20.1323452,69.8764879 19.4003415,69.4084856 C18.6683378,68.9404832 18.0863437,68.4184885 17.6543415,67.8424856 C17.2223393,67.2664827 16.9163424,66.6544888 16.7363415,66.0064856 C16.5563406,65.3584823 16.4663415,64.6984889 16.4663415,64.0264856 C16.4663415,62.7304791 16.7363388,61.6084903 17.2763415,60.6604856 C17.8163442,59.7124808 18.5303371,58.9264887 19.4183415,58.3024856 C20.3063459,57.6784825 21.3143359,57.2164871 22.4423415,56.9164856 C23.5703471,56.6164841 24.7103357,56.4664856 25.8623415,56.4664856 C27.2063482,56.4664856 28.4723356,56.6404838 29.6603415,56.9884856 C30.8483474,57.3364873 31.892337,57.8584821 32.7923415,58.5544856 C33.692346,59.2504891 34.4063389,60.1084805 34.9343415,61.1284856 C35.4623441,62.1484907 35.7263415,63.3304789 35.7263415,64.6744856 L31.2263415,64.6744856 C31.1063409,63.0184773 30.5423465,61.848489 29.5343415,61.1644856 C28.5263365,60.4804822 27.2423493,60.1384856 25.6823415,60.1384856 C25.1543389,60.1384856 24.6143443,60.192485 24.0623415,60.3004856 C23.5103387,60.4084861 23.0063438,60.5884843 22.5503415,60.8404856 C22.0943392,61.0924868 21.716343,61.4344834 21.4163415,61.8664856 C21.11634,62.2984877 20.9663415,62.8384823 20.9663415,63.4864856 C20.9663415,64.3984901 21.2483387,65.112483 21.8123415,65.6284856 C22.3763443,66.1444882 23.1143369,66.5344843 24.0263415,66.7984856 L25.9897818,67.3291257 L25.9897818,67.3291257 L31.1854524,68.7064855 C31.2820448,68.7331521 31.3676745,68.7571521 31.4423415,68.7784856 C32.2823457,69.0424869 33.0143384,69.4024833 33.6383415,69.8584856 C34.2623446,70.3144879 34.7843394,70.8364826 35.2043415,71.4244856 C35.6243436,72.0124885 35.9363405,72.6424822 36.1403415,73.3144856 C36.3443425,73.9864889 36.4463415,74.6584822 36.4463415,75.3304856 C36.4463415,76.7704928 36.1523444,78.0004805 35.5643415,79.0204856 C34.9763386,80.0404907 34.2023463,80.8744823 33.2423415,81.5224856 C32.2823367,82.1704888 31.1903476,82.6444841 29.9663415,82.9444856 C28.7423354,83.2444871 27.4943415,83.3944856 26.2223415,83.3944856 C24.7583342,83.3944856 23.378348,83.2144874 22.0823415,82.8544856 C20.786335,82.4944838 19.6583463,81.9424893 18.6983415,81.1984856 C17.7383367,80.4544819 16.9703444,79.5004914 16.3943415,78.3364856 C15.8183386,77.1724798 15.5183416,75.7984935 15.4943415,74.2144856 L19.9943415,74.2144856 Z M41.7941708,57.0784856 L53.1341708,57.0784856 C54.9581799,57.0784856 56.446165,57.3424829 57.5981708,57.8704856 C58.7501765,58.3984882 59.6381676,59.0584816 60.2621708,59.8504856 C60.8861739,60.6424895 61.3121696,61.5064809 61.5401708,62.4424856 C61.7681719,63.3784903 61.8821708,64.2424816 61.8821708,65.0344856 C61.8821708,65.8264895 61.7681719,66.684481 61.5401708,67.6084856 C61.3121696,68.5324902 60.8861739,69.3904816 60.2621708,70.1824856 C59.6381676,70.9744895 58.7501765,71.628483 57.5981708,72.1444856 C56.446165,72.6604882 54.9581799,72.9184856 53.1341708,72.9184856 L46.2941708,72.9184856 L46.2941708,82.7824856 L41.7941708,82.7824856 L41.7941708,57.0784856 Z M46.2941708,69.2464856 L52.8821708,69.2464856 C53.3861733,69.2464856 53.9021681,69.1744863 54.4301708,69.0304856 C54.9581734,68.8864849 55.4441685,68.6524872 55.8881708,68.3284856 C56.332173,68.004484 56.6921694,67.5724883 56.9681708,67.0324856 C57.2441721,66.4924829 57.3821708,65.8144897 57.3821708,64.9984856 C57.3821708,64.1584814 57.262172,63.4624883 57.0221708,62.9104856 C56.7821696,62.3584828 56.4581728,61.9204872 56.0501708,61.5964856 C55.6421687,61.272484 55.1741734,61.0504862 54.6461708,60.9304856 C54.1181681,60.810485 53.5541738,60.7504856 52.9541708,60.7504856 L46.2941708,60.7504856 L46.2941708,69.2464856 Z M71.442,57.0784856 L76.23,57.0784856 L86.13,82.7824856 L81.306,82.7824856 L78.894,75.9784856 L68.634,75.9784856 L66.222,82.7824856 L61.578,82.7824856 L71.442,57.0784856 Z M69.858,72.5584856 L77.706,72.5584856 L73.854,61.5064856 L73.746,61.5064856 L69.858,72.5584856 Z M89.9298293,57.0784856 L96.2658293,57.0784856 L103.357829,77.2024856 L103.429829,77.2024856 L110.341829,57.0784856 L116.605829,57.0784856 L116.605829,82.7824856 L112.321829,82.7824856 L112.321829,62.9464856 L112.249829,62.9464856 L105.121829,82.7824856 L101.413829,82.7824856 L94.2858293,62.9464856 L94.2138293,62.9464856 L94.2138293,82.7824856 L89.9298293,82.7824856 L89.9298293,57.0784856 Z" id="SPAM" fill="#FFFFFF" fill-rule="nonzero"></path>
                <rect id="Rectangle" fill="#FFFFFF" transform="translate(68.782486, 64.500000) rotate(-315.000000) translate(-68.782486, -64.500000) " x="63.2824856" y="2" width="11" height="125"></rect>
            </g>
        </g>
    </g>
</svg>
