<?xml version="1.0" encoding="UTF-8"?>
<svg width="232px" height="229px" viewBox="0 0 232 229" version="1.1" xmlns="http://www.w3.org/2000/svg" xmlns:xlink="http://www.w3.org/1999/xlink">
    <title>Group 184</title>
    <g id="Logos,-Icons,-Illustrations" stroke="none" stroke-width="1" fill="none" fill-rule="evenodd">
        <g id="Group-184" transform="translate(-15.000000, 0.000000)">
            <g id="Group-182-Copy" fill="#9013FE">
                <g id="Group">
                    <polygon id="Polygon" opacity="0.217889695" points="114.5 0 213.659909 57.25 213.659909 171.75 114.5 229 15.3400913 171.75 15.3400913 57.25"></polygon>
                    <polygon id="Polygon" opacity="0.343424479" points="140.5 14 225.803502 63 225.803502 161 140.5 210 55.1964977 161 55.1964977 63"></polygon>
                    <polygon id="Polygon" points="172.5 29 246.545172 71.75 246.545172 157.25 172.5 200 98.454828 157.25 98.454828 71.75"></polygon>
                </g>
            </g>
            <g id="Group-183" transform="translate(122.000000, 79.000000)" fill="#FFFFFF">
                <rect id="Rectangle" x="0" y="0" width="100" height="6" rx="3"></rect>
                <rect id="Rectangle" x="0" y="15" width="100" height="6" rx="3"></rect>
                <rect id="Rectangle" x="0" y="32" width="100" height="6" rx="3"></rect>
                <rect id="Rectangle" x="0" y="49" width="100" height="6" rx="3"></rect>
                <rect id="Rectangle" x="0" y="65" width="100" height="6" rx="3"></rect>
            </g>
        </g>
    </g>
</svg>
