<svg width="21" height="21" viewBox="0 0 21 21" fill="none" xmlns="http://www.w3.org/2000/svg">
<path d="M20.7144 18.1558L16.6248 14.067C16.4403 13.8824 16.1901 13.7799 15.9275 13.7799H15.2589C16.391 12.3322 17.0637 10.5113 17.0637 8.53042C17.0637 3.81818 13.2449 0 8.53187 0C3.81883 0 0 3.81818 0 8.53042C0 13.2427 3.81883 17.0608 8.53187 17.0608C10.5131 17.0608 12.3343 16.3882 13.7823 15.2563V15.9248C13.7823 16.1873 13.8848 16.4375 14.0694 16.622L18.1589 20.7109C18.5445 21.0964 19.168 21.0964 19.5495 20.7109L20.7103 19.5502C21.0959 19.1647 21.0959 18.5414 20.7144 18.1558ZM8.53187 13.7799C5.63186 13.7799 3.28149 11.434 3.28149 8.53042C3.28149 5.6309 5.62776 3.28093 8.53187 3.28093C11.4319 3.28093 13.7823 5.62679 13.7823 8.53042C13.7823 11.4299 11.436 13.7799 8.53187 13.7799Z" fill="white"/>
</svg>
