<?xml version="1.0" encoding="UTF-8"?>
<svg width="232px" height="229px" viewBox="0 0 232 229" version="1.1" xmlns="http://www.w3.org/2000/svg" xmlns:xlink="http://www.w3.org/1999/xlink">
    <title>Group 187</title>
    <g id="Logos,-Icons,-Illustrations" stroke="none" stroke-width="1" fill="none" fill-rule="evenodd">
        <g id="Group-187" transform="translate(-15.000000, 0.000000)">
            <g id="Group-186" fill="#9013FE">
                <g id="Group-182-Copy-3">
                    <g id="Group">
                        <polygon id="Polygon" opacity="0.217889695" points="114.5 0 213.659909 57.25 213.659909 171.75 114.5 229 15.3400913 171.75 15.3400913 57.25"></polygon>
                        <polygon id="Polygon" opacity="0.343424479" points="140.5 14 225.803502 63 225.803502 161 140.5 210 55.1964977 161 55.1964977 63"></polygon>
                        <polygon id="Polygon" points="172.5 29 246.545172 71.75 246.545172 157.25 172.5 200 98.454828 157.25 98.454828 71.75"></polygon>
                    </g>
                </g>
            </g>
            <g id="exclamation-triangle-solid" transform="translate(137.000000, 75.000000)" fill="#FFFFFF" fill-rule="nonzero">
                <path d="M71.1896406,55.0016256 C73.49689,59.0008756 70.6007658,64 65.9925171,64 L6.00678413,64 C1.38966044,64 -1.49308874,58.9931256 0.809660605,55.0016256 L30.8029021,2.99812562 C33.1112764,-1.00299938 38.8928998,-0.995749384 41.1971491,2.99812562 L71.1896406,55.0016256 Z M36.0000256,44.2500006 C32.8244015,44.2500006 30.2500272,46.8243756 30.2500272,50.0000006 C30.2500272,53.1756256 32.8244015,55.7500006 36.0000256,55.7500006 C39.1756497,55.7500006 41.7500272,53.1756256 41.7500272,50.0000006 C41.7500272,46.8243756 39.1756497,44.2500006 36.0000256,44.2500006 Z M30.5409022,23.5817506 L31.4681519,40.5817506 C31.5115269,41.3772506 32.1692767,42.0000006 32.9659015,42.0000006 L39.0341497,42.0000006 C39.8307745,42.0000006 40.4885243,41.3772506 40.5318993,40.5817506 L41.4591491,23.5817506 C41.506024,22.7225006 40.8218992,22.0000006 39.9613995,22.0000006 L32.0385267,22.0000006 C31.178027,22.0000006 30.4940272,22.7225006 30.5409022,23.5817506 L30.5409022,23.5817506 Z" id="Shape"></path>
            </g>
        </g>
    </g>
</svg>
