<svg width="79" height="80" viewBox="0 0 79 80" fill="none" xmlns="http://www.w3.org/2000/svg">
<path d="M39.4548 80C61.2452 80 78.9097 62.0914 78.9097 40C78.9097 17.9086 61.2452 0 39.4548 0C17.6645 0 0 17.9086 0 40C0 62.0914 17.6645 80 39.4548 80Z" fill="#9013FE"/>
<path d="M28.0995 47.8065H26.007L17.389 34.8636H17.3027C17.4178 36.3826 17.4753 37.775 17.4753 39.0408V47.8065H15.7819V32.3848H17.8528L26.4493 45.2748H26.5356L26.5238 45.0949L26.4385 43.4447C26.3882 42.4145 26.3702 41.6779 26.3846 41.2348V32.3848H28.0995V47.8065ZM34.1804 47.8065H32.3337V32.3848H41.187V33.9776H34.1804V39.6209H40.7633V41.2137H34.1804V47.8065ZM48.2414 47.8065H46.4502V33.9776H41.5719V32.3848H53.1197V33.9776H48.2414V47.8065ZM62.7428 44.8358C62.7428 45.9089 62.3475 46.7366 61.5568 47.3188C60.7662 47.9009 59.6565 48.192 58.2277 48.192C56.7158 48.192 55.5367 47.95 54.6906 47.466V45.8458C55.2385 46.1264 55.8263 46.3473 56.454 46.5086C57.0816 46.67 57.6868 46.7506 58.2694 46.7506C59.171 46.7506 59.8645 46.6051 60.35 46.314C60.8355 46.0229 61.0783 45.5793 61.0783 44.9831C61.0783 44.5342 60.8858 44.1502 60.5009 43.8311C60.116 43.5119 59.3652 43.1349 58.2486 42.7001L57.9787 42.5969C57.0585 42.24 56.3943 41.9254 55.9858 41.6532C55.5385 41.3551 55.2056 41.0167 54.9871 40.6379C54.7686 40.2592 54.6594 39.8068 54.6594 39.2807C54.6594 38.3409 55.0374 37.5991 55.7934 37.0556C56.5493 36.512 57.5862 36.2402 58.904 36.2402C60.1316 36.2402 61.3314 36.4927 62.5035 36.9977L61.8897 38.418C60.7454 37.9411 59.7085 37.7026 58.7791 37.7026C57.9607 37.7026 57.3435 37.8324 56.9273 38.0919C56.5112 38.3514 56.3031 38.7091 56.3031 39.165C56.3031 39.4736 56.3811 39.7366 56.5372 39.9541C56.6932 40.1715 56.9447 40.3784 57.2914 40.5748L57.3848 40.6257C57.7514 40.8192 58.3861 41.0863 59.2889 41.427C60.6413 41.925 61.5551 42.4265 62.0302 42.9315C62.5053 43.4365 62.7428 44.0713 62.7428 44.8358Z" fill="white"/>
</svg>
