<?xml version="1.0" encoding="UTF-8"?>
<svg width="205px" height="208px" viewBox="0 0 205 208" version="1.1" xmlns="http://www.w3.org/2000/svg" xmlns:xlink="http://www.w3.org/1999/xlink">
    <!-- Generator: Sketch 58 (84663) - https://sketch.com -->
    <title>predition-markets-icon</title>
    <desc>Created with Sketch.</desc>
    <g id="Logos,-Icons,-Illustrations" stroke="none" stroke-width="1" fill="none" fill-rule="evenodd">
        <g id="predition-markets-icon">
            <ellipse id="Oval" fill="#9013FE" cx="102.5" cy="103.75" rx="102.5" ry="103.75"></ellipse>
            <g id="Group-76" transform="translate(40.000000, 55.000000)" fill="#FFFFFF">
                <path d="M8,92.2403955 L8,12.7735986 C8,10.5644596 6.209139,8.77359859 4,8.77359859 C1.790861,8.77359859 0,10.5644596 0,12.7735986 L0,96.2403955 C0,98.4495345 1.790861,100.240395 4,100.240395 L119.138672,100.240395 C121.347811,100.240395 123.138672,98.4495345 123.138672,96.2403955 C123.138672,94.0312565 121.347811,92.2403955 119.138672,92.2403955 L8,92.2403955 Z" id="Path-17" fill-rule="nonzero"></path>
                <path d="M31.9509,63.5119836 L53.9843632,79.2827964 C55.6636507,80.484774 58.0269277,79.6701471 58.6088861,77.688713 L68.4500372,44.1818604 L77.2721801,60.7426758 C78.3778568,62.818238 81.3331314,62.872435 82.5141668,60.8388089 L109.553229,14.2802152 C110.385311,12.8474533 109.898363,11.0114351 108.465601,10.1793537 C107.032839,9.34727235 105.196821,9.83422012 104.364739,11.266982 L80.0330452,53.1637552 L70.2903199,34.8748339 C69.0267289,32.5028367 65.5215246,32.8612605 64.7641608,35.43991 L54.042227,71.9456244 L33.0117306,56.8927015 C31.6676084,55.9306241 29.7985106,56.2370618 28.8319624,57.5779727 L14.3846968,77.6209414 C13.4158681,78.9650162 13.720065,80.8399949 15.0641397,81.8088236 C16.4082145,82.7776524 18.2831932,82.4734554 19.2520219,81.1293807 L31.9509,63.5119836 Z" id="Path-116" fill-rule="nonzero"></path>
                <polygon id="Triangle" stroke="#FFFFFF" transform="translate(105.643740, 13.500000) rotate(-330.000000) translate(-105.643740, -13.500000) " points="105.64374 4 115.14374 23 96.1437402 23"></polygon>
            </g>
        </g>
    </g>
</svg>