<?xml version="1.0" encoding="UTF-8"?>
<svg width="205px" height="208px" viewBox="0 0 205 208" version="1.1" xmlns="http://www.w3.org/2000/svg" xmlns:xlink="http://www.w3.org/1999/xlink">
    <title>small-claims-icon</title>
    <g id="Logos,-Icons,-Illustrations" stroke="none" stroke-width="1" fill="none" fill-rule="evenodd">
        <g id="small-claims-icon">
            <ellipse id="Oval" fill="#9013FE" cx="102.5" cy="103.75" rx="102.5" ry="103.75"></ellipse>
            <g id="Group-19" transform="translate(45.000000, 43.000000)" fill="#FFFFFF">
                <path d="M100.697245,37.6055339 L92.2815281,38.8092208 L68.2364408,14.7361213 L69.4387164,6.31052588 L64.6298264,1.49577831 C62.6377937,-0.498592772 59.4082055,-0.498592772 57.4163853,1.49577831 L30.9669592,27.9762516 C28.9749265,29.9706227 28.9749265,33.2040019 30.9669592,35.1981602 L35.7758492,40.012695 L44.191566,38.8090081 L52.6072828,47.2346035 L35.383946,64.4781577 C10.1249861,80.1694918 -1.61057276,91.1165102 0.177269355,97.3192129 L9.79526177,106.948495 C16.6488916,107.881745 27.5830043,96.1323399 42.5975997,71.700279 L59.8209365,54.4567249 L68.2366533,62.8823203 L67.0343777,71.3079158 L71.8432676,76.1224506 C73.8353004,78.1168217 77.0648886,78.1168217 79.0567088,76.1224506 L105.506135,49.6419773 C107.497955,47.647819 107.497955,44.4144398 105.506135,42.4200687 L100.697245,37.6055339 Z" id="Path"></path>
                <path d="M100,95 L100,100 L107,100 L107,106 L57,106 L57,100 L66,100 L66,95 L100,95 Z" id="Combined-Shape"></path>
            </g>
        </g>
    </g>
</svg>
