<svg width="128" height="124" viewBox="0 0 128 124" fill="none" xmlns="http://www.w3.org/2000/svg">
<path d="M61.3128 123.48C95.175 123.48 122.626 95.9872 122.626 62.073C122.626 28.1589 95.175 0.666016 61.3128 0.666016C27.4507 0.666016 0 28.1589 0 62.073C0 95.9872 27.4507 123.48 61.3128 123.48Z" fill="#E0C2FC"/>
<path d="M61.313 118.816C92.6021 118.816 117.967 93.4123 117.967 62.075C117.967 30.7378 92.6021 5.33398 61.313 5.33398C30.0238 5.33398 4.65894 30.7378 4.65894 62.075C4.65894 93.4123 30.0238 118.816 61.313 118.816Z" fill="url(#paint0_linear)"/>
<path d="M61.2295 103.814C84.2025 103.814 102.826 85.1625 102.826 62.1543C102.826 39.146 84.2025 20.4941 61.2295 20.4941C38.2566 20.4941 19.6333 39.146 19.6333 62.1543C19.6333 85.1625 38.2566 103.814 61.2295 103.814ZM61.2295 102.148C39.1755 102.148 21.2971 84.2422 21.2971 62.1543C21.2971 40.0663 39.1755 22.1605 61.2295 22.1605C83.2836 22.1605 101.162 40.0663 101.162 62.1543C101.162 84.2422 83.2836 102.148 61.2295 102.148Z" fill="#E0C2FC"/>
<path d="M19.2343 47.7092C19.8124 50.2194 22.314 51.7839 24.8216 51.2036C27.3293 50.6233 28.8935 48.1179 28.3154 45.6077C27.7372 43.0974 25.2357 41.533 22.728 42.1133C20.2203 42.6936 18.6561 45.199 19.2343 47.7092Z" fill="#E0C2FC"/>
<path d="M56.3647 103.534C56.9429 106.044 59.4444 107.608 61.952 107.028C64.4597 106.448 66.0239 103.942 65.4457 101.432C64.8676 98.9217 62.3661 97.3572 59.8584 97.9375C57.3508 98.5178 55.7866 101.023 56.3647 103.534Z" fill="#E0C2FC"/>
<path d="M87.5155 36.6214C88.0936 39.1316 90.5952 40.6961 93.1029 40.1158C95.6106 39.5354 97.1748 37.03 96.5966 34.5198C96.0185 32.0096 93.5169 30.4451 91.0092 31.0254C88.5015 31.6057 86.9373 34.1111 87.5155 36.6214Z" fill="#E0C2FC"/>
<path fill-rule="evenodd" clip-rule="evenodd" d="M50.0541 39.3994L76.2005 40.5353L86.7654 63.8657L71.811 85.2105L45.5229 83.5639L34.768 58.285L50.0541 39.3994Z" fill="#5100B6"/>
<path fill-rule="evenodd" clip-rule="evenodd" d="M49.7502 39.2695L76.277 40.4487L87.0166 64.1796L71.865 85.8681L45.194 84.1696L34.2598 58.4572L49.7502 39.2695ZM69.1038 53.1267L49.922 61.4457L66.3212 74.032L69.1038 53.1267ZM66.883 48.9581L51.5536 42.4062L48.3334 56.1818L66.883 48.9581ZM62.9975 77.1989L46.3374 65.39L46.7404 81.3917L62.9975 77.1989ZM84.2215 64.2596L72.8685 52.824L69.872 74.8141L84.2215 64.2596ZM66.9036 79.771L52.853 83.4164L69.3764 84.4667L66.9036 79.771ZM82.0029 69.4479L69.7036 78.5428L72.1475 83.2838L82.0029 69.4479ZM76.1853 43.98L73.7964 48.848L82.6882 57.8202L76.1853 43.98ZM73.2089 41.6505L57.5947 41.0214L70.4745 46.6135L73.2089 41.6505ZM47.4195 43.9017L36.4828 57.6102L43.7949 59.1476L47.4195 43.9017ZM43.354 61.8367L36.0067 60.2925L43.6731 78.2206L43.354 61.8367Z" fill="white"/>
<path fill-rule="evenodd" clip-rule="evenodd" d="M128 3.00977L117.771 27.9406L114.07 15.5739L102.179 10.5937L128 3.00977Z" fill="#E0C2FC"/>
<path fill-rule="evenodd" clip-rule="evenodd" d="M128 3.01172L117.772 27.9416L114.071 15.5755L128 3.01172Z" fill="#CE9CFD"/>
<defs>
<linearGradient id="paint0_linear" x1="61.313" y1="5.33398" x2="61.313" y2="118.816" gradientUnits="userSpaceOnUse">
<stop stop-color="#8710F4"/>
<stop offset="1" stop-color="#5A00BD"/>
</linearGradient>
</defs>
</svg>
