<?xml version="1.0" encoding="UTF-8"?>
<svg width="232px" height="229px" viewBox="0 0 232 229" version="1.1" xmlns="http://www.w3.org/2000/svg" xmlns:xlink="http://www.w3.org/1999/xlink">
    <title>Group</title>
    <g id="Logos,-Icons,-Illustrations" stroke="none" stroke-width="1" fill="none" fill-rule="evenodd">
        <g id="Group" transform="translate(-15.000000, 0.000000)">
            <polygon id="Polygon" fill="#9013FE" opacity="0.217889695" points="114.5 0 213.659909 57.25 213.659909 171.75 114.5 229 15.3400913 171.75 15.3400913 57.25"></polygon>
            <polygon id="Polygon" fill="#9013FE" opacity="0.343424479" points="140.5 14 225.803502 63 225.803502 161 140.5 210 55.1964977 161 55.1964977 63"></polygon>
            <polygon id="Polygon" fill="#9013FE" points="172.5 29 246.545172 71.75 246.545172 157.25 172.5 200 98.454828 157.25 98.454828 71.75"></polygon>
            <g id="kleros-symbol-white-flat" transform="translate(124.000000, 70.000000)" fill="#FFFFFF" fill-rule="nonzero">
                <path d="M29.3619175,0 L79.6431079,2.22679093 L100,47.041936 L71.2802056,88 L20.7256773,84.7922828 L0,36.2353526 L29.3619175,0 Z M66.2247308,25.8325264 L29.7841671,41.6074273 L60.9385783,65.4740343 L66.2247308,25.8325264 Z M62.0057891,17.9278722 L32.8837849,5.50394902 L26.7663508,31.6258113 L62.0057891,17.9278722 Z M54.6243784,71.4790818 L22.97442,49.0866799 L23.7400073,79.4297171 L54.6243784,71.4790818 Z M94.9446757,46.9430924 L73.3768445,25.2585468 L67.6842105,66.9569977 L94.9446757,46.9430924 Z M62.0449528,76.3565016 L35.3523616,83.2689686 L66.7427024,85.2605374 L62.0449528,76.3565016 Z M90.7298401,56.7814483 L67.3642684,74.0274262 L72.0070624,83.0174808 L90.7298401,56.7814483 Z M79.6777792,8.48833057 L75.1395275,17.7192376 L92.0317175,34.732496 L79.6777792,8.48833057 Z M74.0233617,4.07103299 L44.3603293,2.87803107 L68.8288013,13.4821102 L74.0233617,4.07103299 Z M25.0301986,8.33975272 L4.25322163,34.3343073 L18.144335,37.249561 L25.0301986,8.33975272 Z M17.3067371,42.3487528 L3.34866638,39.4206743 L17.912827,73.4165366 L17.3067371,42.3487528 Z" id="Combined-Shape"></path>
            </g>
        </g>
    </g>
</svg>
