<?xml version="1.0" encoding="UTF-8"?>
<svg width="205px" height="208px" viewBox="0 0 205 208" version="1.1" xmlns="http://www.w3.org/2000/svg" xmlns:xlink="http://www.w3.org/1999/xlink">
    <title>freelancing-icon</title>
    <g id="Logos,-Icons,-Illustrations" stroke="none" stroke-width="1" fill="none" fill-rule="evenodd">
        <g id="freelancing-icon">
            <ellipse id="Oval" fill="#9013FE" cx="102.5" cy="103.75" rx="102.5" ry="103.75"></ellipse>
            <path d="M88.5999375,105.169727 C89.889,106.463672 91.9783125,106.463672 93.267375,105.169727 L95.6000625,102.828203 C96.889125,101.534258 96.889125,99.4370313 95.6000625,98.1430859 L88.2328125,90.75 L95.598,83.3548438 C96.8870625,82.0608984 96.8870625,79.9636719 95.598,78.6697266 L93.2653125,76.3282031 C91.97625,75.0342578 89.8869375,75.0342578 88.597875,76.3282031 L76.56525,88.4064063 C75.2761875,89.7003516 75.2761875,91.7975781 76.56525,93.0915234 L88.5999375,105.169727 L88.5999375,105.169727 Z M108.402,102.830273 L110.734687,105.171797 C112.02375,106.465742 114.113062,106.465742 115.402125,105.171797 L127.43475,93.0935938 C128.723812,91.7996484 128.723812,89.7024219 127.43475,88.4084766 L115.402125,76.3302734 C114.113062,75.0363281 112.02375,75.0363281 110.734687,76.3302734 L108.402,78.6717969 C107.112937,79.9657422 107.112937,82.0629688 108.402,83.3569141 L115.767187,90.75 L108.402,98.1451563 C107.112937,99.4391016 107.112937,101.536328 108.402,102.830273 L108.402,102.830273 Z M164.7,137.125 L114.692625,137.125 C114.54,141.226289 111.658688,143.75 107.94,143.75 L95.4,143.75 C91.5451875,143.75 88.589625,140.133164 88.6411875,137.125 L39.3,137.125 C37.485,137.125 36,138.615625 36,140.4375 L36,143.75 C36,151.0375 41.94,157 49.2,157 L154.8,157 C162.06,157 168,151.0375 168,143.75 L168,140.4375 C168,138.615625 166.515,137.125 164.7,137.125 Z M154.8,60.9375 C154.8,55.471875 150.345,51 144.9,51 L59.1,51 C53.655,51 49.2,55.471875 49.2,60.9375 L49.2,130.5 L154.8,130.5 L154.8,60.9375 Z M141.6,117.25 L62.4,117.25 L62.4,64.25 L141.6,64.25 L141.6,117.25 Z" id="Shape" fill="#FFFFFF" fill-rule="nonzero"></path>
        </g>
    </g>
</svg>
