<?xml version="1.0" encoding="UTF-8"?>
<svg width="205px" height="208px" viewBox="0 0 205 208" version="1.1" xmlns="http://www.w3.org/2000/svg" xmlns:xlink="http://www.w3.org/1999/xlink">
    <title>bounties-icon</title>
    <g id="Logos,-Icons,-Illustrations" stroke="none" stroke-width="1" fill="none" fill-rule="evenodd">
        <g id="bounties-icon">
            <ellipse id="Oval" fill="#9013FE" cx="102.5" cy="103.75" rx="102.5" ry="103.75"></ellipse>
            <g id="coins-solid" transform="translate(57.500000, 60.000000)" fill="#FFFFFF" fill-rule="nonzero">
                <path d="M0,71.2441406 L0,78.75 C0,84.9550781 15.1171875,90 33.75,90 C52.3828125,90 67.5,84.9550781 67.5,78.75 L67.5,71.2441406 C60.2402344,76.359375 46.96875,78.75 33.75,78.75 C20.53125,78.75 7.25976563,76.359375 0,71.2441406 Z M56.25,22.5 C74.8828125,22.5 90,17.4550781 90,11.25 C90,5.04492188 74.8828125,0 56.25,0 C37.6171875,0 22.5,5.04492188 22.5,11.25 C22.5,17.4550781 37.6171875,22.5 56.25,22.5 Z M0,52.8046875 L0,61.875 C0,68.0800781 15.1171875,73.125 33.75,73.125 C52.3828125,73.125 67.5,68.0800781 67.5,61.875 L67.5,52.8046875 C60.2402344,58.78125 46.9511719,61.875 33.75,61.875 C20.5488281,61.875 7.25976563,58.78125 0,52.8046875 Z M73.125,54.7382813 C83.1972656,52.7871094 90,49.1660156 90,45 L90,37.4941406 C85.921875,40.3769531 79.9277344,42.3457031 73.125,43.5585938 L73.125,54.7382813 Z M33.75,28.125 C15.1171875,28.125 0,34.4179688 0,42.1875 C0,49.9570313 15.1171875,56.25 33.75,56.25 C52.3828125,56.25 67.5,49.9570313 67.5,42.1875 C67.5,34.4179688 52.3828125,28.125 33.75,28.125 Z M72.2988281,38.0214844 C82.8457031,36.1230469 90,32.3964844 90,28.125 L90,20.6191406 C83.7597656,25.03125 73.0371094,27.4042969 61.7519531,27.9667969 C66.9375,30.4804687 70.7519531,33.8554688 72.2988281,38.0214844 Z" id="Shape"></path>
            </g>
        </g>
    </g>
</svg>
