<svg width="128" height="128" viewBox="0 0 128 128" fill="none" xmlns="http://www.w3.org/2000/svg">
<path d="M61.8779 127.409C63.2452 128.197 64.9299 128.197 66.2972 127.409L117.965 97.6156C119.333 96.8271 120.175 95.37 120.175 93.7931V34.2069C120.175 32.63 119.333 31.1729 117.965 30.3844L66.2972 0.591339C64.9299 -0.197113 63.2452 -0.197113 61.8779 0.591339L10.2097 30.3844C8.84232 31.1729 8 32.63 8 34.2069V93.7931C8 95.37 8.84232 96.8271 10.2097 97.6156L61.8779 127.409ZM64.0876 123.586L12.4194 93.7931V34.2069L64.0876 4.4138L115.756 34.2069V93.7931L64.0876 123.586Z" fill="#4D00B4"/>
<path fill-rule="evenodd" clip-rule="evenodd" d="M49.7006 36.5684L82.8206 38.0309L96.2296 67.4662L77.312 94.368L44.012 92.2612L30.3601 60.3683L49.7006 36.5684ZM71.1175 86.8053L53.5746 91.327L74.2049 92.6297L71.1175 86.8053ZM89.9697 74.0008L74.6134 85.2818L77.6648 91.1625L89.9697 74.0008ZM45.4396 68.9675L45.9428 88.8156L66.2405 83.6149L45.4396 68.9675ZM32.5412 62.6447L42.113 84.8822L41.7147 64.56L32.5412 62.6447ZM78.565 53.3809L74.8237 80.6569L92.7398 67.5653L78.565 53.3809ZM73.8645 53.7564L49.9151 64.0751L70.3904 79.6869L73.8645 53.7564ZM46.7907 42.3139L33.1357 59.3176L42.2652 61.2245L46.7907 42.3139ZM82.7061 42.4111L79.7235 48.4493L90.8253 59.5781L82.7061 42.4111ZM51.9522 40.459L47.9317 57.5459L71.0917 48.5858L51.9522 40.459ZM59.4948 38.7413L75.576 45.6777L78.9899 39.5217L59.4948 38.7413Z" fill="#9013FE"/>
<path fill-rule="evenodd" clip-rule="evenodd" d="M117.5 33.6223L100.833 43.2407L100.5 42.6633L117.167 33.0449L117.5 33.6223ZM27.4999 85.7235L11.4999 94.9557L11.1667 94.3782L27.1667 85.1461L27.4999 85.7235Z" fill="#4D00B4"/>
<path fill-rule="evenodd" clip-rule="evenodd" d="M117.165 94.956L100.56 85.2301L100.897 84.6548L117.502 94.3807L117.165 94.956ZM27.0986 42.9608L10.4949 32.9531L10.839 32.3821L27.4427 42.3898L27.0986 42.9608Z" fill="#4D00B4"/>
<path fill-rule="evenodd" clip-rule="evenodd" d="M64.0618 125.333L64.0616 105.989L64.7282 105.989L64.7284 125.333L64.0618 125.333ZM63.9371 21.2394L63.937 2.66584L64.6037 2.66584L64.6038 21.2394L63.9371 21.2394Z" fill="#4D00B4"/>
</svg>
