<?xml version="1.0" encoding="UTF-8"?>
<svg width="205px" height="208px" viewBox="0 0 205 208" version="1.1" xmlns="http://www.w3.org/2000/svg" xmlns:xlink="http://www.w3.org/1999/xlink">
    <title>derivatives-icon</title>
    <g id="Logos,-Icons,-Illustrations" stroke="none" stroke-width="1" fill="none" fill-rule="evenodd">
        <g id="derivatives-icon">
            <ellipse id="Oval" fill="#9013FE" cx="102.5" cy="103.75" rx="102.5" ry="103.75"></ellipse>
            <g id="Group-76" transform="translate(44.000000, 62.000000)" fill="#FFFFFF">
                <path d="M4,85.2403955 L4,5.77359859 C4,3.56445959 2.209139,1.77359859 0,1.77359859 C-2.209139,1.77359859 -4,3.56445959 -4,5.77359859 L-4,89.2403955 C-4,91.4495345 -2.209139,93.2403955 0,93.2403955 L115.138672,93.2403955 C117.347811,93.2403955 119.138672,91.4495345 119.138672,89.2403955 C119.138672,87.0312565 117.347811,85.2403955 115.138672,85.2403955 L4,85.2403955 Z" id="Path-17" fill-rule="nonzero"></path>
                <rect id="Rectangle" x="12" y="67" width="18" height="22"></rect>
                <rect id="Rectangle-Copy-2" x="38" y="65" width="18" height="24"></rect>
                <rect id="Rectangle-Copy-4" x="64" y="42" width="18" height="47"></rect>
                <rect id="Rectangle-Copy-6" x="90" y="19" width="18" height="70"></rect>
                <path d="M21.8410427,49.148 L26.7910427,62 L24.3790427,62 L23.1730427,58.598 L18.0430427,58.598 L16.8370427,62 L14.5150427,62 L19.4470427,49.148 L21.8410427,49.148 Z M20.6530427,51.362 L20.5990427,51.362 L18.6550427,56.888 L22.5790427,56.888 L20.6530427,51.362 Z" id="A" fill-rule="nonzero"></path>
                <path d="M47.9220427,46.148 C49.0740484,46.148 49.9980392,46.4119974 50.6940427,46.94 C51.3900462,47.4680026 51.7380427,48.2659947 51.7380427,49.334 C51.7380427,49.9820032 51.5790443,50.5369977 51.2610427,50.999 C50.9430411,51.4610023 50.4900456,51.8179987 49.9020427,52.07 L49.9020427,52.106 C50.6940466,52.2740008 51.2940406,52.6489971 51.7020427,53.231 C52.1100447,53.8130029 52.3140427,54.5419956 52.3140427,55.418 C52.3140427,55.9220025 52.2240436,56.3929978 52.0440427,56.831 C51.8640418,57.2690022 51.5820446,57.6469984 51.1980427,57.965 C50.8140408,58.2830016 50.3220457,58.5349991 49.7220427,58.721 C49.1220397,58.9070009 48.4080468,59 47.5800427,59 L41.6760427,59 L41.6760427,46.148 L47.9220427,46.148 Z M47.9040427,53.15 L43.9260427,53.15 L43.9260427,57.164 L47.9040427,57.164 C48.5880461,57.164 49.1190408,56.9870018 49.4970427,56.633 C49.8750446,56.2789982 50.0640427,55.7780032 50.0640427,55.13 C50.0640427,54.4939968 49.8750446,54.0050017 49.4970427,53.663 C49.1190408,53.3209983 48.5880461,53.15 47.9040427,53.15 L47.9040427,53.15 Z M47.5980427,47.984 L43.9260427,47.984 L43.9260427,51.53 L47.5980427,51.53 C48.1380454,51.53 48.5880409,51.3770015 48.9480427,51.071 C49.3080445,50.7649985 49.4880427,50.3240029 49.4880427,49.748 C49.4880427,49.0999968 49.3260443,48.6440013 49.0020427,48.38 C48.6780411,48.1159987 48.2100457,47.984 47.5980427,47.984 Z" id="B" fill-rule="nonzero"></path>
                <path d="M76.1900427,27.234 C76.0940422,26.8619981 75.9620435,26.5200016 75.7940427,26.208 C75.6260418,25.8959984 75.410044,25.6260011 75.1460427,25.398 C74.8820414,25.1699989 74.5730445,24.9930006 74.2190427,24.867 C73.8650409,24.7409994 73.454045,24.678 72.9860427,24.678 C72.3020393,24.678 71.7110452,24.8159986 71.2130427,25.092 C70.7150402,25.3680014 70.3100442,25.7369977 69.9980427,26.199 C69.6860411,26.6610023 69.4550434,27.1859971 69.3050427,27.774 C69.1550419,28.3620029 69.0800427,28.9619969 69.0800427,29.574 C69.0800427,30.1860031 69.1550419,30.7859971 69.3050427,31.374 C69.4550434,31.9620029 69.6860411,32.4869977 69.9980427,32.949 C70.3100442,33.4110023 70.7150402,33.7799986 71.2130427,34.056 C71.7110452,34.3320014 72.3020393,34.47 72.9860427,34.47 C73.4900452,34.47 73.9340408,34.3830009 74.3180427,34.209 C74.7020446,34.0349991 75.0320413,33.7950015 75.3080427,33.489 C75.5840441,33.1829985 75.8000419,32.826002 75.9560427,32.418 C76.1120435,32.009998 76.2140424,31.5720023 76.2620427,31.104 L78.4580427,31.104 C78.4100424,31.8720038 78.2450441,32.5739968 77.9630427,33.21 C77.6810413,33.8460032 77.3000451,34.3949977 76.8200427,34.857 C76.3400403,35.3190023 75.7760459,35.6759987 75.1280427,35.928 C74.4800394,36.1800013 73.7660466,36.306 72.9860427,36.306 C72.0260379,36.306 71.1650465,36.1290018 70.4030427,35.775 C69.6410389,35.4209982 68.9960453,34.9380031 68.4680427,34.326 C67.94004,33.7139969 67.5350441,33.0000041 67.2530427,32.184 C66.9710413,31.3679959 66.8300427,30.4980046 66.8300427,29.574 C66.8300427,28.6619954 66.9710413,27.7980041 67.2530427,26.982 C67.5350441,26.1659959 67.94004,25.4520031 68.4680427,24.84 C68.9960453,24.2279969 69.6410389,23.7420018 70.4030427,23.382 C71.1650465,23.0219982 72.0260379,22.842 72.9860427,22.842 C73.7060463,22.842 74.3840395,22.940999 75.0200427,23.139 C75.6560459,23.337001 76.2170403,23.6249981 76.7030427,24.003 C77.1890451,24.3810019 77.5820412,24.8399973 77.8820427,25.38 C78.1820442,25.9200027 78.3680423,26.5379965 78.4400427,27.234 L76.1900427,27.234 Z" id="C" fill-rule="nonzero"></path>
                <path d="M98.8420427,0.148 C99.8260476,0.148 100.678039,0.31599832 101.398043,0.652 C102.118046,0.98800168 102.70604,1.44699709 103.162043,2.029 C103.618045,2.61100291 103.957042,3.2919961 104.179043,4.072 C104.401044,4.8520039 104.512043,5.68599556 104.512043,6.574 C104.512043,7.46200444 104.401044,8.2959961 104.179043,9.076 C103.957042,9.8560039 103.618045,10.5369971 103.162043,11.119 C102.70604,11.7010029 102.118046,12.1599983 101.398043,12.496 C100.678039,12.8320017 99.8260476,13 98.8420427,13 L93.5140427,13 L93.5140427,0.148 L98.8420427,0.148 Z M97.9780427,1.984 L95.7640427,1.984 L95.7640427,11.164 L97.9780427,11.164 C98.8540471,11.164 99.5710399,11.0470012 100.129043,10.813 C100.687045,10.5789988 101.125041,10.2550021 101.443043,9.841 C101.761044,9.42699793 101.977042,8.94100279 102.091043,8.383 C102.205043,7.82499721 102.262043,7.22200324 102.262043,6.574 C102.262043,5.92599676 102.205043,5.32300279 102.091043,4.765 C101.977042,4.20699721 101.761044,3.72100207 101.443043,3.307 C101.125041,2.89299793 100.687045,2.56900117 100.129043,2.335 C99.5710399,2.10099883 98.8540471,1.984 97.9780427,1.984 L97.9780427,1.984 Z" id="D" fill-rule="nonzero"></path>
            </g>
        </g>
    </g>
</svg>
