<?xml version="1.0" encoding="UTF-8"?>
<svg width="232px" height="229px" viewBox="0 0 232 229" version="1.1" xmlns="http://www.w3.org/2000/svg" xmlns:xlink="http://www.w3.org/1999/xlink">
    <title>Group</title>
    <g id="Logos,-Icons,-Illustrations" stroke="none" stroke-width="1" fill="none" fill-rule="evenodd">
        <g id="Group" transform="translate(-15.000000, 0.000000)">
            <polygon id="Polygon" fill="#9013FE" opacity="0.217889695" points="114.5 0 213.659909 57.25 213.659909 171.75 114.5 229 15.3400913 171.75 15.3400913 57.25"></polygon>
            <polygon id="Polygon" fill="#9013FE" opacity="0.343424479" points="140.5 14 225.803502 63 225.803502 161 140.5 210 55.1964977 161 55.1964977 63"></polygon>
            <polygon id="Polygon" fill="#9013FE" points="172.5 29 246.545172 71.75 246.545172 157.25 172.5 200 98.454828 157.25 98.454828 71.75"></polygon>
            <g id="gavel" transform="translate(128.000000, 69.000000)" fill="#FFFFFF" fill-rule="nonzero">
                <path d="M83.757522,31.2793691 L76.7575324,32.2805663 L56.7574129,12.2571481 L57.7574372,5.24894293 L53.7575192,1.24415253 C52.1005942,-0.414717509 49.4143024,-0.414717509 47.7575539,1.24415253 L25.7575636,23.2699667 C24.10064,24.9288353 24.10064,27.6182815 25.7575636,29.2769746 L29.7574816,33.2815879 L36.7574712,32.2803893 L43.7574594,39.2885959 L29.431507,53.6313644 C8.42171752,66.6830356 -1.33963537,75.7884985 0.147448358,80.9477559 L8.14746088,88.9571596 C13.8481439,89.7334141 22.9428723,79.960544 35.4316488,59.6385493 L49.7576012,45.2957808 L56.7575907,52.303986 L55.7575664,59.3121911 L59.7574844,63.3168045 C61.4144094,64.9756745 64.1007012,64.9756745 65.7574497,63.3168045 L87.7574386,41.2909904 C89.4141871,39.6322987 89.4141871,36.9428525 87.7574386,35.2839825 L83.757522,31.2793691 Z" id="Path"></path>
            </g>
        </g>
    </g>
</svg>
