<svg width="80" height="80" viewBox="0 0 80 80" fill="none" xmlns="http://www.w3.org/2000/svg">
<path d="M39.6355 80C61.5256 80 79.271 62.0914 79.271 40C79.271 17.9086 61.5256 0 39.6355 0C17.7454 0 0 17.9086 0 40C0 62.0914 17.7454 80 39.6355 80Z" fill="#9013FE"/>
<path d="M51.2653 48.9637C53.0162 48.9637 54.3835 49.5273 55.3673 50.6544C56.3512 51.7816 56.8431 53.3371 56.8431 55.3209C56.8431 57.2991 56.3498 58.8546 55.3632 59.9874C54.3766 61.1202 53.0051 61.6866 51.2486 61.6866C49.4533 61.6866 48.0679 61.1301 47.0924 60.017C46.1169 58.9039 45.6291 57.3329 45.6291 55.304C45.6291 53.292 46.1183 51.7323 47.0965 50.6249C48.0748 49.5174 49.4644 48.9637 51.2653 48.9637ZM26.2874 48.9637C28.246 48.9637 29.768 49.4953 30.8535 50.5586C31.939 51.6219 32.4817 53.1071 32.4817 55.0142C32.4817 57.0508 31.9175 58.6077 30.7889 59.685C29.6603 60.7624 28.0363 61.301 25.917 61.301H22.4279V48.9637H26.2874ZM39.6653 48.9637L44.4691 61.301H42.9987L41.4782 57.3931H36.5825L35.0788 61.301H33.6418L38.4706 48.9637H39.6653ZM26.0789 50.1203H23.9746V60.1444H25.7381C27.4647 60.1444 28.7625 59.7167 29.6315 58.8614C30.5005 58.006 30.935 56.7401 30.935 55.0637C30.935 53.4273 30.5275 52.1944 29.7124 51.3647C28.8974 50.5351 27.6863 50.1203 26.0789 50.1203ZM51.073 50.1203C49.6738 50.1203 48.6101 50.5463 47.8817 51.3983C47.1534 52.2503 46.7892 53.4894 46.7892 55.1157C46.7892 56.7642 47.1534 58.0144 47.8817 58.8664C48.6101 59.7184 49.6681 60.1444 51.0557 60.1444C52.4549 60.1444 53.5114 59.7198 54.2254 58.8706C54.9393 58.0214 55.2963 56.7698 55.2963 55.1157C55.2963 53.4783 54.9408 52.2364 54.2297 51.39C53.5186 50.5435 52.4664 50.1203 51.073 50.1203ZM39.0432 50.5059C38.9233 51.0633 38.7516 51.6758 38.5281 52.3436L37.122 56.289H40.9889L39.5991 52.3436C39.4192 51.8442 39.2339 51.2317 39.0432 50.5059ZM31.021 37.7982C30.1991 40.4189 31.4108 41.1146 34.2218 41.1549V39.5661C34.2218 39.192 34.6623 38.9977 34.9412 39.2378L38.1315 41.9848C38.3321 42.1576 38.3324 42.4683 38.1315 42.6414L34.9412 45.3881C34.662 45.6285 34.2218 45.4333 34.2218 45.0598V43.6131C31.3103 43.5798 29.0015 42.998 29.0015 40.247C29.0015 39.1366 29.719 38.0366 30.512 37.4615C30.7595 37.282 31.1122 37.5072 31.021 37.7982ZM44.6624 35.1326V36.5794C47.574 36.6126 49.8827 37.1944 49.8827 39.9455C49.8827 41.0559 49.1652 42.1559 48.3722 42.731C48.1247 42.9105 47.772 42.6852 47.8633 42.3943C48.6852 39.7736 47.4734 39.0778 44.6624 39.0375V40.6263C44.6624 41.0004 44.2219 41.1948 43.943 40.9546L40.7528 38.2076C40.5521 38.0348 40.5518 37.7241 40.7528 37.5511L43.943 34.8044C44.2223 34.5639 44.6624 34.7591 44.6624 35.1326ZM51.2653 18.5059C53.0162 18.5059 54.3835 19.0694 55.3673 20.1966C56.3512 21.3238 56.8431 22.8793 56.8431 24.8631C56.8431 26.8413 56.3498 28.3967 55.3632 29.5295C54.3766 30.6624 53.0051 31.2288 51.2486 31.2288C49.4533 31.2288 48.0679 30.6722 47.0924 29.5591C46.1169 28.4461 45.6291 26.8751 45.6291 24.8462C45.6291 22.8342 46.1183 21.2745 47.0965 20.167C48.0748 19.0596 49.4644 18.5059 51.2653 18.5059ZM26.2874 18.5059C28.246 18.5059 29.768 19.0375 30.8535 20.1008C31.939 21.164 32.4817 22.6492 32.4817 24.5564C32.4817 26.5929 31.9175 28.1499 30.7889 29.2272C29.6603 30.3045 28.0363 30.8432 25.917 30.8432H22.4279V18.5059H26.2874ZM39.6653 18.5059L44.4691 30.8432H42.9987L41.4782 26.9353H36.5825L35.0788 30.8432H33.6418L38.4706 18.5059H39.6653ZM26.0789 19.6625H23.9746V29.6866H25.7381C27.4647 29.6866 28.7625 29.2589 29.6315 28.4035C30.5005 27.5482 30.935 26.2823 30.935 24.6059C30.935 22.9695 30.5275 21.7365 29.7124 20.9069C28.8974 20.0773 27.6863 19.6625 26.0789 19.6625ZM51.073 19.6625C49.6738 19.6625 48.6101 20.0885 47.8817 20.9405C47.1534 21.7925 46.7892 23.0316 46.7892 24.6579C46.7892 26.3064 47.1534 27.5566 47.8817 28.4086C48.6101 29.2606 49.6681 29.6866 51.0557 29.6866C52.4549 29.6866 53.5114 29.262 54.2254 28.4128C54.9393 27.5635 55.2963 26.3119 55.2963 24.6579C55.2963 23.0205 54.9408 21.7786 54.2297 20.9321C53.5186 20.0857 52.4664 19.6625 51.073 19.6625ZM39.0432 20.048C38.9233 20.6054 38.7516 21.218 38.5281 21.8857L37.122 25.8312H40.9889L39.5991 21.8857C39.4192 21.3864 39.2339 20.7738 39.0432 20.048Z" fill="white"/>
</svg>
