<?xml version="1.0" encoding="UTF-8"?>
<svg width="232px" height="229px" viewBox="0 0 232 229" version="1.1" xmlns="http://www.w3.org/2000/svg" xmlns:xlink="http://www.w3.org/1999/xlink">
    <!-- Generator: Sketch 58 (84663) - https://sketch.com -->
    <title>package-icon</title>
    <desc>Created with Sketch.</desc>
    <g id="Logos,-Icons,-Illustrations" stroke="none" stroke-width="1" fill="none" fill-rule="evenodd">
        <g id="package-icon" transform="translate(-15.000000, 0.000000)">
            <polygon id="Polygon" fill="#9013FE" opacity="0.217889695" points="114.5 0 213.659909 57.25 213.659909 171.75 114.5 229 15.3400913 171.75 15.3400913 57.25"></polygon>
            <polygon id="Polygon" fill="#9013FE" opacity="0.343424479" points="140.5 14 225.803502 63 225.803502 161 140.5 210 55.1964977 161 55.1964977 63"></polygon>
            <polygon id="Polygon" fill="#9013FE" points="172.5 29 246.545172 71.75 246.545172 157.25 172.5 200 98.454828 157.25 98.454828 71.75"></polygon>
            <g id="box-open-solid" transform="translate(134.000000, 88.000000)" fill="#FFFFFF" fill-rule="nonzero">
                <path d="M50.5537137,26.5036651 C48.5469652,26.5036651 46.6589593,25.4389614 45.6377737,23.7354355 L38.0026301,11.1246115 L30.3793607,23.7354355 C29.3463009,25.4507914 27.4582949,26.5154952 25.4515464,26.5154952 C24.9172051,26.5154952 24.3828638,26.4445149 23.872271,26.2907244 L7.60454671,21.6533482 L7.60454671,42.7108216 C7.60454671,44.4498377 8.79197184,45.964083 10.4781155,46.3781344 L36.1502469,52.7781867 C37.3614205,53.0739378 38.6319654,53.0739378 39.8312648,52.7781867 L65.5271446,46.3781344 C67.2132883,45.9522529 68.4007134,44.4380076 68.4007134,42.7108216 L68.4007134,21.6533482 L52.1329891,26.2788943 C51.6223963,26.4326849 51.088055,26.5036651 50.5537137,26.5036651 Z M75.798372,13.2303588 L69.6831326,1.06907643 C69.3150308,0.335613874 68.519456,-0.0902676108 67.7001326,0.0162027604 L38.0026301,3.78998592 L48.8913185,21.7834787 C49.3425401,22.5287713 50.2449832,22.8836725 51.088055,22.6470717 L74.5871984,15.9630984 C75.7627493,15.6200272 76.3327133,14.3187226 75.798372,13.2303588 L75.798372,13.2303588 Z M6.32212757,1.06907643 L0.206888137,13.2303588 C-0.339327423,14.3187226 0.242510891,15.6200272 1.40618752,15.9512683 L24.9053309,22.6352416 C25.7484027,22.8718425 26.6508458,22.5169412 27.1020674,21.7716486 L38.0026301,3.78998592 L8.29325328,0.0162027604 C7.47392994,-0.0784375696 6.69022936,0.335613874 6.32212757,1.06907643 Z" id="Shape"></path>
            </g>
        </g>
    </g>
</svg>