<?xml version="1.0" encoding="UTF-8"?>
<svg width="205px" height="208px" viewBox="0 0 205 208" version="1.1" xmlns="http://www.w3.org/2000/svg" xmlns:xlink="http://www.w3.org/1999/xlink">
    <!-- Generator: Sketch 58 (84663) - https://sketch.com -->
    <title>insurance-icon</title>
    <desc>Created with Sketch.</desc>
    <g id="Logos,-Icons,-Illustrations" stroke="none" stroke-width="1" fill="none" fill-rule="evenodd">
        <g id="insurance-icon">
            <ellipse id="Oval" fill="#9013FE" cx="102.5" cy="103.75" rx="102.5" ry="103.75"></ellipse>
            <path d="M159,79.5000347 C159,132.227326 126.715675,161.622383 106.384487,170.120197 C103.578339,171.293268 100.421424,171.293268 97.615275,170.120197 C72.1925625,159.494057 45,126.795711 45,79.5000347 C45,74.8826537 47.7672627,70.7181451 52.0155125,68.9422812 C84.6842956,54.0138222 101.512458,46.5483573 102.5,46.5458864 C103.500141,46.5434001 119.99505,54.008865 151.984725,68.9422812 C156.232882,70.7182191 159,74.8827115 159,79.5000347 Z M102,155.347968 L102.015675,155.356069 C124.277738,144.230969 142.983713,118.110846 143.772213,82.0301022 L102,64.5676807 L102,155.347968 Z" id="Shape" fill="#FFFFFF" fill-rule="nonzero"></path>
        </g>
    </g>
</svg>