<svg width="128" height="128" viewBox="0 0 128 128" fill="none" xmlns="http://www.w3.org/2000/svg">
<g clip-path="url(#clip0)">
<path opacity="0.21789" fill-rule="evenodd" clip-rule="evenodd" d="M54.897 1L109.794 32.6948V96.0844L54.897 127.779L0 96.0844V32.6948L54.897 1Z" fill="#9013FE"/>
<path opacity="0.343424" fill-rule="evenodd" clip-rule="evenodd" d="M69.2906 8.75L116.516 35.8774V90.1323L69.2906 117.26L22.0648 90.1323V35.8774L69.2906 8.75Z" fill="#9013FE"/>
<path fill-rule="evenodd" clip-rule="evenodd" d="M87.0074 17.0547L128 40.722V88.0566L87.0074 111.724L46.0144 88.0566V40.722L87.0074 17.0547Z" fill="#9013FE"/>
<path d="M87.4999 40C75.0934 40 65 50.3177 65 62.9999C65 75.6823 75.0934 86 87.4999 86C99.9066 86 110 75.6823 110 62.9999C110 50.3177 99.9066 40 87.4999 40ZM107.546 62.9999C107.546 64.9734 107.27 66.8822 106.759 68.6896H98.4054C98.5877 66.8262 98.692 64.9183 98.692 63.0106C98.692 61.1029 98.5877 59.1952 98.4054 57.3317H106.765C107.273 59.1327 107.546 61.0343 107.546 62.9999ZM105.734 54.4924H98.0581C97.4522 50.488 96.409 46.8192 94.9467 43.9761C99.7242 45.9373 103.598 49.7264 105.734 54.4924ZM95.9054 63.0106C95.9054 64.9804 95.8011 66.8706 95.619 68.6896H79.5345C79.3523 66.8706 79.2481 64.9805 79.2481 63.0106C79.2481 61.0407 79.3523 59.1508 79.5345 57.3317H95.619C95.8011 59.1509 95.9054 61.0408 95.9054 63.0106ZM90.8795 42.8017C92.8519 45.0517 94.4312 49.2553 95.2631 54.4923H79.899C80.7349 49.2303 82.3252 45.0113 84.3109 42.7693C85.3497 42.5988 86.4147 42.5089 87.4999 42.5089C88.6516 42.509 89.7804 42.6102 90.8795 42.8017ZM80.2478 43.8972C78.7643 46.7512 77.7086 50.4506 77.104 54.4924H69.2657C71.4311 49.6618 75.3808 45.8347 80.2478 43.8972ZM76.7481 68.6896H68.2413C67.7296 66.8824 67.4544 64.9735 67.4544 62.9999C67.4544 61.0343 67.7273 59.1326 68.2351 57.3317H76.7568C76.5744 59.1952 76.4704 61.1029 76.4704 63.0106C76.4704 64.9183 76.5744 66.826 76.7481 68.6896ZM69.2754 71.5289H77.104C77.7138 75.56 78.7669 79.2506 80.2445 82.1014C75.3862 80.1665 71.4426 76.3484 69.2754 71.5289ZM84.2898 83.2271C82.3141 80.9791 80.7319 76.7722 79.899 71.5289H95.263C94.4341 76.7471 92.8632 80.9389 90.9007 83.1947C89.7948 83.3888 88.6588 83.491 87.4998 83.491C86.4073 83.491 85.3354 83.3999 84.2898 83.2271ZM94.9714 82.0136C96.4254 79.1749 97.4632 75.5188 98.0668 71.5289H105.724C103.59 76.2766 99.7305 80.0524 94.9714 82.0136Z" fill="white"/>
</g>
<defs>
<clipPath id="clip0">
<rect width="128" height="128" fill="white"/>
</clipPath>
</defs>
</svg>
