<svg width="128" height="128" viewBox="0 0 128 128" fill="none" xmlns="http://www.w3.org/2000/svg">
<g clip-path="url(#clip0)">
<path opacity="0.21789" fill-rule="evenodd" clip-rule="evenodd" d="M54.897 1L109.794 32.6948V96.0844L54.897 127.779L0 96.0844V32.6948L54.897 1Z" fill="#9013FE"/>
<path opacity="0.343424" fill-rule="evenodd" clip-rule="evenodd" d="M69.2903 8.75L116.516 35.8774V90.1323L69.2903 117.26L22.0645 90.1323V35.8774L69.2903 8.75Z" fill="#9013FE"/>
<path fill-rule="evenodd" clip-rule="evenodd" d="M87.0066 17.0547L128 40.722V88.0566L87.0066 111.724L46.0137 88.0566V40.722L87.0066 17.0547Z" fill="#9013FE"/>
<path d="M70.1209 59.1294C72.8691 59.1294 75.1035 56.895 75.1035 54.1468C75.1035 51.3986 72.8691 49.1642 70.1209 49.1642C67.3727 49.1642 65.1383 51.3986 65.1383 54.1468C65.1383 56.895 67.3727 59.1294 70.1209 59.1294ZM104.999 59.1294C107.747 59.1294 109.982 56.895 109.982 54.1468C109.982 51.3986 107.747 49.1642 104.999 49.1642C102.251 49.1642 100.016 51.3986 100.016 54.1468C100.016 56.895 102.251 59.1294 104.999 59.1294ZM107.837 61.3439H102.925C101.574 61.3439 100.353 61.8982 99.4628 62.7959C102.556 64.5212 104.751 67.636 105.227 71.3363C104.847 72.7945 104.847 73.5236 105.227 73.5236C105.973 73.5236 107.661 72.7945 110.293 71.3363C111.652 71.3363 112.75 70.22 112.75 68.8382V66.3401C112.75 63.5844 110.547 61.3439 107.837 61.3439ZM87.56 61.3439C92.3026 61.3439 96.1411 57.5054 96.1411 52.7628C96.1411 48.0202 92.3026 44.1816 87.56 44.1816C82.8174 44.1816 78.9788 48.0202 78.9788 52.7628C78.9788 57.5054 82.8174 61.3439 87.56 61.3439ZM93.8159 64.112H93.1697C91.5504 64.8889 89.752 65.355 87.8368 65.355C85.9216 65.355 84.131 64.8889 82.5038 64.112H81.8577C76.9062 64.112 72.889 68.1206 72.889 73.0613V75.2986C72.889 77.3573 74.5628 79.0275 76.6259 79.0275C81.5891 82.7398 85.3261 84.596 87.8368 84.596C90.3087 84.596 94.0456 82.7398 99.0476 79.0275C101.111 79.0275 102.785 77.3573 102.785 75.2986V73.0613C102.785 68.1206 98.7673 64.112 93.8159 64.112ZM76.2107 63.3372C75.3203 62.4471 74.0999 61.8975 72.7489 61.8975H67.8364C65.1268 61.8975 62.9238 64.1189 62.9238 66.8511V69.3279C62.9238 70.6979 64.0215 71.8047 65.3801 71.8047C68.1569 73.3197 69.843 74.0772 70.4385 74.0772C70.9671 74.0772 70.9671 73.3197 70.4385 71.8047C70.9221 68.136 73.1174 65.0477 76.2107 63.3372Z" fill="white"/>
</g>
<defs>
<clipPath id="clip0">
<rect width="128" height="128" fill="white"/>
</clipPath>
</defs>
</svg>
