<svg width="16" height="15" viewBox="0 0 16 15" fill="none" xmlns="http://www.w3.org/2000/svg">
<path d="M4.66666 1.35742V3.85742C4.66666 4.27164 4.33087 4.60742 3.91666 4.60742H0.75C0.335781 4.60742 0 4.27164 0 3.85742V1.35742C0 0.943203 0.335781 0.607422 0.75 0.607422H3.91666C4.33087 0.607422 4.66666 0.943203 4.66666 1.35742ZM10.3333 8.85742V6.35742C10.3333 5.9432 9.99756 5.60742 9.58334 5.60742H6.41666C6.00244 5.60742 5.66666 5.9432 5.66666 6.35742V8.85742C5.66666 9.27164 6.00244 9.60742 6.41666 9.60742H9.58331C9.99756 9.60742 10.3333 9.27164 10.3333 8.85742ZM11.3333 1.35742V3.85742C11.3333 4.27164 11.6691 4.60742 12.0833 4.60742H15.25C15.6642 4.60742 16 4.27164 16 3.85742V1.35742C16 0.943203 15.6642 0.607422 15.25 0.607422H12.0833C11.6691 0.607422 11.3333 0.943203 11.3333 1.35742ZM10.3333 3.85742V1.35742C10.3333 0.943203 9.99756 0.607422 9.58334 0.607422H6.41666C6.00244 0.607422 5.66666 0.943203 5.66666 1.35742V3.85742C5.66666 4.27164 6.00244 4.60742 6.41666 4.60742H9.58331C9.99756 4.60742 10.3333 4.27164 10.3333 3.85742ZM3.91666 5.60742H0.75C0.335781 5.60742 0 5.9432 0 6.35742V8.85742C0 9.27164 0.335781 9.60742 0.75 9.60742H3.91666C4.33087 9.60742 4.66666 9.27164 4.66666 8.85742V6.35742C4.66666 5.9432 4.33087 5.60742 3.91666 5.60742ZM0 11.3574V13.8574C0 14.2716 0.335781 14.6074 0.75 14.6074H3.91666C4.33087 14.6074 4.66666 14.2716 4.66666 13.8574V11.3574C4.66666 10.9432 4.33087 10.6074 3.91666 10.6074H0.75C0.335781 10.6074 0 10.9432 0 11.3574ZM12.0833 9.60742H15.25C15.6642 9.60742 16 9.27164 16 8.85742V6.35742C16 5.9432 15.6642 5.60742 15.25 5.60742H12.0833C11.6691 5.60742 11.3333 5.9432 11.3333 6.35742V8.85742C11.3333 9.27164 11.6691 9.60742 12.0833 9.60742ZM12.0833 14.6074H15.25C15.6642 14.6074 16 14.2716 16 13.8574V11.3574C16 10.9432 15.6642 10.6074 15.25 10.6074H12.0833C11.6691 10.6074 11.3333 10.9432 11.3333 11.3574V13.8574C11.3333 14.2716 11.6691 14.6074 12.0833 14.6074ZM5.66666 11.3574V13.8574C5.66666 14.2716 6.00244 14.6074 6.41666 14.6074H9.58331C9.99753 14.6074 10.3333 14.2716 10.3333 13.8574V11.3574C10.3333 10.9432 9.99753 10.6074 9.58331 10.6074H6.41666C6.00244 10.6074 5.66666 10.9432 5.66666 11.3574Z" fill="#E5E5E5"/>
</svg>
