<?xml version="1.0" encoding="UTF-8"?>
<svg width="1314px" height="584px" viewBox="0 0 1314 584" version="1.1" xmlns="http://www.w3.org/2000/svg" xmlns:xlink="http://www.w3.org/1999/xlink">
    <!-- Generator: Sketch 58 (84663) - https://sketch.com -->
    <title>ESP cases disputes</title>
    <desc>Created with Sketch.</desc>
    <defs>
        <linearGradient x1="50%" y1="0%" x2="50%" y2="100%" id="linearGradient-1">
            <stop stop-color="#8400DB" offset="0%"></stop>
            <stop stop-color="#4D00B4" offset="100%"></stop>
        </linearGradient>
        <linearGradient x1="0%" y1="49.9999777%" x2="100.000024%" y2="49.9999777%" id="linearGradient-2">
            <stop stop-color="#A3A2A5" offset="0%"></stop>
            <stop stop-color="#9F9EA0" offset="27.05%"></stop>
            <stop stop-color="#929194" offset="56.07%"></stop>
            <stop stop-color="#7C7C80" offset="85.92%"></stop>
            <stop stop-color="#707073" offset="100%"></stop>
        </linearGradient>
        <linearGradient x1="-0.661193461%" y1="79.9148322%" x2="70.3915924%" y2="24.2689758%" id="linearGradient-3">
            <stop stop-color="#969598" offset="0%"></stop>
            <stop stop-color="#908F92" offset="33.96%"></stop>
            <stop stop-color="#7F7F82" offset="79.17%"></stop>
            <stop stop-color="#757578" offset="100%"></stop>
        </linearGradient>
        <linearGradient x1="6.06021085%" y1="-2.83492963%" x2="50.00952%" y2="85.0511445%" id="linearGradient-4">
            <stop stop-color="#9E9EA0" offset="0%"></stop>
            <stop stop-color="#9B9B9D" offset="27.59%"></stop>
            <stop stop-color="#919194" offset="49.4%"></stop>
            <stop stop-color="#808083" offset="69.23%"></stop>
            <stop stop-color="#69696D" offset="87.77%"></stop>
            <stop stop-color="#55565A" offset="100%"></stop>
        </linearGradient>
    </defs>
    <g id="ESP-cases-disputes" stroke="none" stroke-width="1" fill="none" fill-rule="evenodd">
        <g id="Group-3" transform="translate(36.000000, 39.000000)">
            <path d="M250.5,501 C388.84733,501 501,388.84733 501,250.5 C501,112.15267 388.84733,0 250.5,0 C112.15267,0 0,112.15267 0,250.5 C0,388.84733 112.15267,501 250.5,501 Z M250.5,495 C115.466379,495 6,385.533621 6,250.5 C6,115.466379 115.466379,6 250.5,6 C385.533621,6 495,115.466379 495,250.5 C495,385.533621 385.533621,495 250.5,495 Z" id="Oval" fill="#9013FE" fill-rule="nonzero"></path>
            <circle id="Oval" fill="url(#linearGradient-1)" cx="250.5" cy="250.5" r="244.5"></circle>
            <g id="Group-2" transform="translate(863.000000, 116.000000)">
                <circle id="Oval" fill="#FFFFFF" cx="135" cy="135" r="135"></circle>
                <g id="kleros-symbol" transform="translate(51.000000, 60.000000)" fill-rule="nonzero">
                    <polygon id="Path" fill="#45464D" opacity="0.7" points="133.381411 3.77718897 49.0824928 0 0 61.5574073 34.3923467 143.824633 119.534475 149 168 79.7930126"></polygon>
                    <g id="Group">
                        <polygon id="Path" fill="#656569" points="167.847575 79.7154168 119.890532 30.9128112 107.277449 124.531491"></polygon>
                        <polygon id="Path" fill="url(#linearGradient-2)" points="32.7506551 68.7388056 119.890532 30.9128112 107.277449 124.531491"></polygon>
                        <polygon id="Path" fill="url(#linearGradient-3)" points="119.890532 30.9128112 49.0898492 0.0698111888 32.7506551 68.7388056"></polygon>
                        <polygon id="Path" fill="url(#linearGradient-4)" points="32.7506551 68.7388056 34.4194413 143.629331 107.277449 124.531491"></polygon>
                        <polygon id="Path" fill="#757578" points="119.890532 30.9128112 133.275501 3.84003217 49.0898492 0.0698111888"></polygon>
                        <polygon id="Path" fill="#6C6D70" points="133.275501 3.84003217 167.847575 79.7154168 119.890532 30.9128112"></polygon>
                        <polygon id="Path" fill="#6C6D70" points="167.847575 79.7154168 119.447169 148.794734 107.277449 124.531491"></polygon>
                        <polygon id="Path" fill="#55565A" points="119.447169 148.794734 34.4194413 143.629331 107.277449 124.531491"></polygon>
                        <polygon id="Path" fill="#55565A" points="49.0898492 0.0698111888 0.0733053152 61.5134517 32.7506551 68.7388056"></polygon>
                        <polygon id="Path" fill="#656569" points="0.0733053152 61.5134517 34.4194413 143.629331 32.7506551 68.7388056"></polygon>
                        <polygon id="Path" fill="#151A22" opacity="0.7" points="110.972618 43.8064168 102.140262 110.92206 50.0835204 70.5143021"></polygon>
                        <polygon id="Path" fill="#151A22" opacity="0.7" points="103.923263 30.4235077 55.2628628 9.38866713 45.0412361 53.614993"></polygon>
                        <polygon id="Path" fill="#23262E" opacity="0.7" points="91.5896959 121.089695 38.7052064 83.1778434 39.9842077 134.550126"></polygon>
                        <polygon id="Path" fill="#23262E" opacity="0.7" points="158.961642 79.5478699 122.923461 42.8348951 113.411214 113.432971"></polygon>
                        <polygon id="Path" fill="#43444B" opacity="0.7" points="103.988885 129.346796 111.838368 144.42247 59.3874808 141.050694"></polygon>
                        <polygon id="Path" fill="#34363D" opacity="0.7" points="151.918517 96.2048196 112.876895 125.404027 120.634591 140.624533"></polygon>
                        <polygon id="Path" fill="#34363D" opacity="0.7" points="133.451392 14.4413301 154.093795 58.8747972 125.868756 30.0698671"></polygon>
                        <polygon id="Path" fill="#36383F" opacity="0.7" points="124.003728 6.96236364 115.323797 22.8964028 74.4391595 4.94284056"></polygon>
                        <polygon id="Path" fill="#3B3C43" opacity="0.7" points="42.1401731 14.1900098 30.6345612 63.136614 7.42335723 58.2006503"></polygon>
                        <polygon id="Path" fill="#45464D" opacity="0.7" points="29.2346996 71.7694448 30.2474759 124.369779 5.91177256 66.8122252"></polygon>
                    </g>
                </g>
            </g>
            <path d="M998.5,440 C1103.15796,440 1188,355.15796 1188,250.5 C1188,145.84204 1103.15796,61 998.5,61 C893.84204,61 809,145.84204 809,250.5 C809,355.15796 893.84204,440 998.5,440 Z M998.5,438 C894.946609,438 811,354.053391 811,250.5 C811,146.946609 894.946609,63 998.5,63 C1102.05339,63 1186,146.946609 1186,250.5 C1186,354.053391 1102.05339,438 998.5,438 Z" id="Oval" fill="#9013FE" fill-rule="nonzero"></path>
            <path d="M998.5,487 C1129.11534,487 1235,381.115343 1235,250.5 C1235,119.884657 1129.11534,14 998.5,14 C867.884657,14 762,119.884657 762,250.5 C762,381.115343 867.884657,487 998.5,487 Z M998.5,485 C868.989226,485 764,380.010774 764,250.5 C764,120.989226 868.989226,16 998.5,16 C1128.01077,16 1233,120.989226 1233,250.5 C1233,380.010774 1128.01077,485 998.5,485 Z" id="Oval" fill="#9013FE" fill-rule="nonzero"></path>
            <circle id="Oval" fill="#9013FE" cx="1122.5" cy="51.5" r="10.5"></circle>
            <circle id="Oval" fill="#9013FE" cx="810.5" cy="239.5" r="10.5"></circle>
            <circle id="Oval" fill="#9013FE" cx="1101.5" cy="409.5" r="10.5"></circle>
            <polygon id="Line-20" fill="#009AFF" fill-rule="nonzero" transform="translate(625.500000, 265.500000) rotate(-180.000000) translate(-625.500000, -265.500000) " points="707.5 248.5 741.5 265.5 707.5 282.5 707.5 268.5 509.5 268.5 509.5 262.5 707.5 262.5"></polygon>
            <polygon id="Line-20" fill="#FFFFFF" fill-rule="nonzero" points="708.5 177.5 742.5 194.5 708.5 211.5 708.5 197.5 510.5 197.5 510.5 191.5 708.5 191.5"></polygon>
        </g>
        <path d="M266.708,241.064 L266.708,269 L274.244,269 L274.244,241.064 L284.516,241.064 L284.516,234.728 L256.436,234.728 L256.436,241.064 L266.708,241.064 Z M306.596,269 L306.596,244.184 L299.78,244.184 L299.78,257.192 C299.78,259.720013 299.364004,261.535994 298.532,262.64 C297.699996,263.744006 296.356009,264.296 294.5,264.296 C292.867992,264.296 291.732003,263.792005 291.092,262.784 C290.451997,261.775995 290.132,260.24801 290.132,258.2 L290.132,244.184 L283.316,244.184 L283.316,259.448 C283.316,260.984008 283.451999,262.383994 283.724,263.648 C283.996001,264.912006 284.467997,265.983996 285.14,266.864 C285.812003,267.744004 286.731994,268.423998 287.9,268.904 C289.068006,269.384002 290.563991,269.624 292.388,269.624 C293.828007,269.624 295.235993,269.304003 296.612,268.664 C297.988007,268.023997 299.107996,266.984007 299.972,265.544 L300.116,265.544 L300.116,269 L306.596,269 Z M167.636,307.856 L167.636,297.584 L173.492,297.584 C174.356004,297.584 175.187996,297.647999 175.988,297.776 C176.788004,297.904001 177.491997,298.151998 178.1,298.52 C178.708003,298.888002 179.195998,299.407997 179.564,300.08 C179.932002,300.752003 180.116,301.631995 180.116,302.72 C180.116,303.808005 179.932002,304.687997 179.564,305.36 C179.195998,306.032003 178.708003,306.551998 178.1,306.92 C177.491997,307.288002 176.788004,307.535999 175.988,307.664 C175.187996,307.792001 174.356004,307.856 173.492,307.856 L167.636,307.856 Z M160.1,291.728 L160.1,326 L167.636,326 L167.636,313.712 L175.556,313.712 C177.700011,313.712 179.523992,313.400003 181.028,312.776 C182.532008,312.151997 183.755995,311.328005 184.7,310.304 C185.644005,309.279995 186.331998,308.104007 186.764,306.776 C187.196002,305.447993 187.412,304.096007 187.412,302.72 C187.412,301.311993 187.196002,299.952007 186.764,298.64 C186.331998,297.327993 185.644005,296.160005 184.7,295.136 C183.755995,294.111995 182.532008,293.288003 181.028,292.664 C179.523992,292.039997 177.700011,291.728 175.556,291.728 L160.1,291.728 Z M191.588,291.728 L191.588,326 L198.404,326 L198.404,291.728 L191.588,291.728 Z M203.492,308.816 C203.588,307.215992 203.987996,305.888005 204.692,304.832 C205.396004,303.775995 206.291995,302.928003 207.38,302.288 C208.468005,301.647997 209.691993,301.192001 211.052,300.92 C212.412007,300.647999 213.779993,300.512 215.156,300.512 C216.404006,300.512 217.667994,300.599999 218.948,300.776 C220.228006,300.952001 221.395995,301.295997 222.452,301.808 C223.508005,302.320003 224.371997,303.031995 225.044,303.944 C225.716003,304.856005 226.052,306.063992 226.052,307.568 L226.052,320.48 C226.052,321.600006 226.115999,322.671995 226.244,323.696 C226.372001,324.720005 226.595998,325.487997 226.916,326 L220.004,326 C219.875999,325.615998 219.772,325.224002 219.692,324.824 C219.612,324.423998 219.556,324.016002 219.524,323.6 C218.435995,324.720006 217.156007,325.503998 215.684,325.952 C214.211993,326.400002 212.708008,326.624 211.172,326.624 C209.987994,326.624 208.884005,326.480001 207.86,326.192 C206.835995,325.903999 205.940004,325.456003 205.172,324.848 C204.403996,324.239997 203.804002,323.472005 203.372,322.544 C202.939998,321.615995 202.724,320.512 202.724,319.232 C202.724,317.823993 202.971998,316.664005 203.468,315.752 C203.964002,314.839995 204.603996,314.112003 205.388,313.568 C206.172004,313.023997 207.067995,312.616001 208.076,312.344 C209.084005,312.071999 210.099995,311.856001 211.124,311.696 C211.892004,311.575999 212.650999,311.474 213.400999,311.39 L214.148,311.312 C215.140005,311.216 216.019996,311.072001 216.788,310.88 C217.556004,310.687999 218.163998,310.408002 218.612,310.04 C219.019275,309.705453 219.228199,309.232069 219.238777,308.619835 L219.236,308.432 C219.236,307.695996 219.116001,307.112002 218.876,306.68 C218.635999,306.247998 218.316002,305.912001 217.916,305.672 C217.515998,305.431999 217.052003,305.272 216.524,305.192 C215.995997,305.112 215.428003,305.072 214.82,305.072 C213.475993,305.072 212.420004,305.359997 211.652,305.936 C210.883996,306.512 210.436001,307.471993 210.308,308.816 L203.492,308.816 Z M219.236,313.856 C218.947999,314.112001 218.588002,314.311999 218.156,314.456 C217.723998,314.600001 217.260002,314.72 216.764,314.816 C216.433332,314.88 216.092,314.936889 215.740001,314.986667 L215.204,315.056 C214.659997,315.12 214.116003,315.2 213.572,315.296 C213.059997,315.392 212.556002,315.519999 212.06,315.68 C211.563998,315.840001 211.132002,316.055999 210.764,316.328 C210.395998,316.600001 210.100001,316.943998 209.876,317.36 C209.651999,317.776002 209.54,318.303997 209.54,318.944 C209.54,319.552003 209.651999,320.063998 209.876,320.48 C210.100001,320.896002 210.403998,321.223999 210.788,321.464 C211.172002,321.704001 211.619997,321.872 212.132,321.968 C212.644003,322.064 213.171997,322.112 213.716,322.112 C215.060007,322.112 216.099996,321.888002 216.836,321.44 C217.572004,320.991998 218.115998,320.456003 218.468,319.832 C218.820002,319.207997 219.036,318.576003 219.116,317.936 L219.174776,317.418774 C219.215592,317.013877 219.236,316.674287 219.236,316.4 L219.236,313.856 Z M239.972,301.184 L239.972,293.744 L233.156,293.744 L233.156,301.184 L229.028,301.184 L229.028,305.744 L233.156,305.744 L233.156,320.384 C233.156,321.632006 233.363998,322.639996 233.78,323.408 C234.196002,324.176004 234.763996,324.767998 235.484,325.184 C236.204004,325.600002 237.035995,325.879999 237.98,326.024 C238.924005,326.168001 239.923995,326.24 240.98,326.24 C241.652003,326.24 242.339996,326.224 243.044,326.192 C243.748004,326.16 244.387997,326.096 244.964,326 L244.964,320.72 C244.643998,320.784 244.308002,320.832 243.956,320.864 C243.603998,320.896 243.236002,320.912 242.852,320.912 C241.699994,320.912 240.932002,320.720002 240.548,320.336 C240.163998,319.951998 239.972,319.184006 239.972,318.032 L239.972,305.744 L244.964,305.744 L244.964,301.184 L239.972,301.184 Z M247.94,308.816 C248.036,307.215992 248.435996,305.888005 249.14,304.832 C249.844004,303.775995 250.739995,302.928003 251.828,302.288 C252.916005,301.647997 254.139993,301.192001 255.5,300.92 C256.860007,300.647999 258.227993,300.512 259.604,300.512 C260.852006,300.512 262.115994,300.599999 263.396,300.776 C264.676006,300.952001 265.843995,301.295997 266.9,301.808 C267.956005,302.320003 268.819997,303.031995 269.492,303.944 C270.164003,304.856005 270.5,306.063992 270.5,307.568 L270.5,320.48 C270.5,321.600006 270.563999,322.671995 270.692,323.696 C270.820001,324.720005 271.043998,325.487997 271.364,326 L264.452,326 C264.323999,325.615998 264.22,325.224002 264.14,324.824 C264.06,324.423998 264.004,324.016002 263.972,323.6 C262.883995,324.720006 261.604007,325.503998 260.132,325.952 C258.659993,326.400002 257.156008,326.624 255.62,326.624 C254.435994,326.624 253.332005,326.480001 252.308,326.192 C251.283995,325.903999 250.388004,325.456003 249.62,324.848 C248.851996,324.239997 248.252002,323.472005 247.82,322.544 C247.387998,321.615995 247.172,320.512 247.172,319.232 C247.172,317.823993 247.419998,316.664005 247.916,315.752 C248.412002,314.839995 249.051996,314.112003 249.836,313.568 C250.620004,313.023997 251.515995,312.616001 252.524,312.344 C253.532005,312.071999 254.547995,311.856001 255.572,311.696 C256.340004,311.575999 257.098999,311.474 257.848999,311.39 L258.596,311.312 C259.588005,311.216 260.467996,311.072001 261.236,310.88 C262.004004,310.687999 262.611998,310.408002 263.06,310.04 C263.467275,309.705453 263.676199,309.232069 263.686777,308.619835 L263.684,308.432 C263.684,307.695996 263.564001,307.112002 263.324,306.68 C263.083999,306.247998 262.764002,305.912001 262.364,305.672 C261.963998,305.431999 261.500003,305.272 260.972,305.192 C260.443997,305.112 259.876003,305.072 259.268,305.072 C257.923993,305.072 256.868004,305.359997 256.1,305.936 C255.331996,306.512 254.884001,307.471993 254.756,308.816 L247.94,308.816 Z M263.684,313.856 C263.395999,314.112001 263.036002,314.311999 262.604,314.456 C262.171998,314.600001 261.708002,314.72 261.212,314.816 C260.881332,314.88 260.54,314.936889 260.188001,314.986667 L259.652,315.056 C259.107997,315.12 258.564003,315.2 258.02,315.296 C257.507997,315.392 257.004002,315.519999 256.508,315.68 C256.011998,315.840001 255.580002,316.055999 255.212,316.328 C254.843998,316.600001 254.548001,316.943998 254.324,317.36 C254.099999,317.776002 253.988,318.303997 253.988,318.944 C253.988,319.552003 254.099999,320.063998 254.324,320.48 C254.548001,320.896002 254.851998,321.223999 255.236,321.464 C255.620002,321.704001 256.067997,321.872 256.58,321.968 C257.092003,322.064 257.619997,322.112 258.164,322.112 C259.508007,322.112 260.547996,321.888002 261.284,321.44 C262.020004,320.991998 262.563998,320.456003 262.916,319.832 C263.268002,319.207997 263.484,318.576003 263.564,317.936 L263.622776,317.418774 C263.663592,317.013877 263.684,316.674287 263.684,316.4 L263.684,313.856 Z M277.268,305.744 L277.268,326 L284.084,326 L284.084,305.744 L288.788,305.744 L288.788,301.184 L284.084,301.184 L284.084,299.696 C284.084,298.671995 284.283998,297.944002 284.684,297.512 C285.084002,297.079998 285.747995,296.864 286.676,296.864 C287.540004,296.864 288.371996,296.912 289.172,297.008 L289.172,291.92 C288.595997,291.888 288.004003,291.848 287.396,291.8 C286.787997,291.752 286.180003,291.728 285.572,291.728 C282.787986,291.728 280.708007,292.431993 279.332,293.84 C277.955993,295.248007 277.268,297.055989 277.268,299.264 L277.268,301.184 L273.188,301.184 L273.188,305.744 L277.268,305.744 Z M297.812,313.616 C297.812,312.623995 297.907999,311.648 298.1,310.688 C298.292001,309.727995 298.619998,308.880004 299.084,308.144 C299.548002,307.407996 300.163996,306.808002 300.932,306.344 C301.700004,305.879998 302.659994,305.648 303.812,305.648 C304.964006,305.648 305.931996,305.879998 306.716,306.344 C307.500004,306.808002 308.123998,307.407996 308.588,308.144 C309.052002,308.880004 309.379999,309.727995 309.572,310.688 C309.764001,311.648 309.86,312.623995 309.86,313.616 C309.86,314.608005 309.764001,315.575995 309.572,316.52 C309.379999,317.464005 309.052002,318.311996 308.588,319.064 C308.123998,319.816004 307.500004,320.415998 306.716,320.864 C305.931996,321.312002 304.964006,321.536 303.812,321.536 C302.659994,321.536 301.700004,321.312002 300.932,320.864 C300.163996,320.415998 299.548002,319.816004 299.084,319.064 C298.619998,318.311996 298.292001,317.464005 298.1,316.52 C297.907999,315.575995 297.812,314.608005 297.812,313.616 Z M290.996,313.616 C290.996,315.60001 291.299997,317.391992 291.908,318.992 C292.516003,320.592008 293.379994,321.959994 294.5,323.096 C295.620006,324.232006 296.963992,325.103997 298.532,325.712 C300.100008,326.320003 301.85999,326.624 303.812,326.624 C305.76401,326.624 307.531992,326.320003 309.116,325.712 C310.700008,325.103997 312.051994,324.232006 313.172,323.096 C314.292006,321.959994 315.155997,320.592008 315.764,318.992 C316.372003,317.391992 316.676,315.60001 316.676,313.616 C316.676,311.63199 316.372003,309.832008 315.764,308.216 C315.155997,306.599992 314.292006,305.224006 313.172,304.088 C312.051994,302.951994 310.700008,302.072003 309.116,301.448 C307.531992,300.823997 305.76401,300.512 303.812,300.512 C301.85999,300.512 300.100008,300.823997 298.532,301.448 C296.963992,302.072003 295.620006,302.951994 294.5,304.088 C293.379994,305.224006 292.516003,306.599992 291.908,308.216 C291.299997,309.832008 290.996,311.63199 290.996,313.616 Z M321.092,301.184 L321.092,326 L327.908,326 L327.908,314.816 C327.908,313.695994 328.019999,312.656005 328.244,311.696 C328.468001,310.735995 328.843997,309.896004 329.372,309.176 C329.900003,308.455996 330.595996,307.888002 331.46,307.472 C332.324004,307.055998 333.379994,306.848 334.628,306.848 C335.044002,306.848 335.475998,306.872 335.924,306.92 C336.372002,306.968 336.755998,307.024 337.076,307.088 L337.076,300.752 C336.531997,300.591999 336.036002,300.512 335.588,300.512 C334.723996,300.512 333.892004,300.639999 333.092,300.896 C332.291996,301.152001 331.540004,301.512 330.836,301.976 C330.131996,302.440002 329.508003,302.999997 328.964,303.656 C328.419997,304.312003 327.988002,305.023996 327.668,305.792 L327.572,305.792 L327.572,301.184 L321.092,301.184 Z M394.628,300.512 C395.876006,300.512 397.139994,300.599999 398.42,300.776 C399.700006,300.952001 400.867995,301.295997 401.924,301.808 C402.980005,302.320003 403.843997,303.031995 404.516,303.944 C405.188003,304.856005 405.524,306.063992 405.524,307.568 L405.524,320.48 C405.524,321.600006 405.587999,322.671995 405.716,323.696 C405.844001,324.720005 406.067998,325.487997 406.388,326 L399.476,326 C399.347999,325.615998 399.244,325.224002 399.164,324.824 C399.084,324.423998 399.028,324.016002 398.996,323.6 C397.907995,324.720006 396.628007,325.503998 395.156,325.952 C393.683993,326.400002 392.180008,326.624 390.644,326.624 C389.459994,326.624 388.356005,326.480001 387.332,326.192 C386.307995,325.903999 385.412004,325.456003 384.644,324.848 C383.875996,324.239997 383.276002,323.472005 382.844,322.544 C382.411998,321.615995 382.196,320.512 382.196,319.232 C382.196,317.823993 382.443998,316.664005 382.94,315.752 C383.436002,314.839995 384.075996,314.112003 384.86,313.568 C385.644004,313.023997 386.539995,312.616001 387.548,312.344 C388.556005,312.071999 389.571995,311.856001 390.596,311.696 C391.364004,311.575999 392.122999,311.474 392.872999,311.39 L393.62,311.312 C394.612005,311.216 395.491996,311.072001 396.26,310.88 C397.028004,310.687999 397.635998,310.408002 398.084,310.04 C398.491275,309.705453 398.700199,309.232069 398.710777,308.619835 L398.708,308.432 C398.708,307.695996 398.588001,307.112002 398.348,306.68 C398.107999,306.247998 397.788002,305.912001 397.388,305.672 C396.987998,305.431999 396.524003,305.272 395.996,305.192 C395.467997,305.112 394.900003,305.072 394.292,305.072 C392.947993,305.072 391.892004,305.359997 391.124,305.936 C390.355996,306.512 389.908001,307.471993 389.78,308.816 L382.964,308.816 C383.06,307.215992 383.459996,305.888005 384.164,304.832 C384.868004,303.775995 385.763995,302.928003 386.852,302.288 C387.940005,301.647997 389.163993,301.192001 390.524,300.92 C391.884007,300.647999 393.251993,300.512 394.628,300.512 Z M368.804,300.512 C370.116007,300.512 371.331994,300.671998 372.452,300.992 C373.572006,301.312002 374.531996,301.823996 375.332,302.528 C376.132004,303.232004 376.755998,304.151994 377.204,305.288 C377.611275,306.320732 377.833422,307.545184 377.870446,308.961387 L377.876,309.392 L377.876,326 L371.06,326 L371.06,311.936 C371.06,311.103996 371.028,310.320004 370.964,309.584 C370.9,308.847996 370.724001,308.208003 370.436,307.664 C370.147999,307.119997 369.724003,306.688002 369.164,306.368 C368.603997,306.047998 367.844005,305.888 366.884,305.888 C365.923995,305.888 365.148003,306.071998 364.556,306.44 C363.963997,306.808002 363.500002,307.287997 363.164,307.88 C362.827998,308.472003 362.604001,309.143996 362.492,309.896 C362.4024,310.497603 362.34864,311.104319 362.33072,311.716159 L362.324,312.176 L362.324,326 L355.508,326 L355.508,312.08 C355.508,311.343996 355.492,310.616004 355.46,309.896 C355.428,309.175996 355.292001,308.512 355.052,307.904 C354.811999,307.295997 354.412003,306.808002 353.852,306.44 C353.291997,306.071998 352.468005,305.888 351.38,305.888 C351.059998,305.888 350.636003,305.959999 350.108,306.104 C349.579997,306.248001 349.068002,306.519998 348.572,306.92 C348.075998,307.320002 347.652002,307.895996 347.3,308.648 C346.979998,309.33164 346.805454,310.207004 346.776364,311.274114 L346.772,311.6 L346.772,326 L339.956,326 L339.956,301.184 L346.388,301.184 L346.388,304.544 L346.484,304.544 C347.380004,303.263994 348.459994,302.272004 349.724,301.568 C350.988006,300.863996 352.435992,300.512 354.068,300.512 C355.636008,300.512 357.067994,300.815997 358.364,301.424 C359.660006,302.032003 360.643997,303.103992 361.316,304.64 C362.052004,303.551995 363.051994,302.592004 364.316,301.76 C365.580006,300.927996 367.075991,300.512 368.804,300.512 Z M398.708,313.856 C398.419999,314.112001 398.060002,314.311999 397.628,314.456 C397.195998,314.600001 396.732002,314.72 396.236,314.816 C395.739998,314.912 395.220003,314.992 394.676,315.056 L394.676,315.056 L394.131999,315.125333 C393.769333,315.175111 393.406668,315.232 393.044,315.296 C392.531997,315.392 392.028002,315.519999 391.532,315.68 C391.035998,315.840001 390.604002,316.055999 390.236,316.328 C389.867998,316.600001 389.572001,316.943998 389.348,317.36 C389.123999,317.776002 389.012,318.303997 389.012,318.944 C389.012,319.552003 389.123999,320.063998 389.348,320.48 C389.572001,320.896002 389.875998,321.223999 390.26,321.464 C390.644002,321.704001 391.091997,321.872 391.604,321.968 C392.116003,322.064 392.643997,322.112 393.188,322.112 C394.532007,322.112 395.571996,321.888002 396.308,321.44 C397.044004,320.991998 397.587998,320.456003 397.94,319.832 C398.292002,319.207997 398.508,318.576003 398.588,317.936 C398.668,317.295997 398.708,316.784002 398.708,316.4 L398.708,316.4 Z" id="TuPlataforma" fill="#FFFFFF" fill-rule="nonzero"></path>
        <path d="M610.66,144.248 L617.956,144.248 C617.731999,142.26399 617.188004,140.504008 616.324,138.968 C615.459996,137.431992 614.364007,136.144005 613.036,135.104 C611.707993,134.063995 610.204008,133.272003 608.524,132.728 C606.843992,132.183997 605.060009,131.912 603.172,131.912 C600.547987,131.912 598.18801,132.375995 596.092,133.304 C593.99599,134.232005 592.228007,135.511992 590.788,137.144 C589.347993,138.776008 588.244004,140.687989 587.476,142.88 C586.707996,145.072011 586.324,147.447987 586.324,150.008 C586.324,152.504012 586.707996,154.831989 587.476,156.992 C588.244004,159.152011 589.347993,161.031992 590.788,162.632 C592.228007,164.232008 593.99599,165.487995 596.092,166.4 C598.18801,167.312005 600.547987,167.768 603.172,167.768 C605.284011,167.768 607.219991,167.448003 608.98,166.808 C610.740009,166.167997 612.275993,165.240006 613.588,164.024 C614.900007,162.807994 615.955996,161.336009 616.756,159.608 C617.556004,157.879991 618.051999,155.944011 618.244,153.8 L610.948,153.8 C610.659999,156.104012 609.868006,157.959993 608.572,159.368 C607.275994,160.776007 605.476012,161.48 603.172,161.48 C601.475992,161.48 600.036006,161.152003 598.852,160.496 C597.667994,159.839997 596.708004,158.968005 595.972,157.88 C595.235996,156.791995 594.700002,155.568007 594.364,154.208 C594.027998,152.847993 593.86,151.448007 593.86,150.008 C593.86,148.503992 594.027998,147.048007 594.364,145.64 C594.700002,144.231993 595.235996,142.976006 595.972,141.872 C596.708004,140.767994 597.667994,139.888003 598.852,139.232 C600.036006,138.575997 601.475992,138.248 603.172,138.248 C604.100005,138.248 604.987996,138.399998 605.836,138.704 C606.684004,139.008002 607.443997,139.431997 608.116,139.976 C608.788003,140.520003 609.347998,141.151996 609.796,141.872 C610.244002,142.592004 610.531999,143.383996 610.66,144.248 Z M622.372,149.816 C622.468,148.215992 622.867996,146.888005 623.572,145.832 C624.276004,144.775995 625.171995,143.928003 626.26,143.288 C627.348005,142.647997 628.571993,142.192001 629.932,141.92 C631.292007,141.647999 632.659993,141.512 634.036,141.512 C635.284006,141.512 636.547994,141.599999 637.828,141.776 C639.108006,141.952001 640.275995,142.295997 641.332,142.808 C642.388005,143.320003 643.251997,144.031995 643.924,144.944 C644.596003,145.856005 644.932,147.063992 644.932,148.568 L644.932,161.48 C644.932,162.600006 644.995999,163.671995 645.124,164.696 C645.252001,165.720005 645.475998,166.487997 645.796,167 L638.884,167 C638.755999,166.615998 638.652,166.224002 638.572,165.824 C638.492,165.423998 638.436,165.016002 638.404,164.6 C637.315995,165.720006 636.036007,166.503998 634.564,166.952 C633.091993,167.400002 631.588008,167.624 630.052,167.624 C628.867994,167.624 627.764005,167.480001 626.74,167.192 C625.715995,166.903999 624.820004,166.456003 624.052,165.848 C623.283996,165.239997 622.684002,164.472005 622.252,163.544 C621.819998,162.615995 621.604,161.512 621.604,160.232 C621.604,158.823993 621.851998,157.664005 622.348,156.752 C622.844002,155.839995 623.483996,155.112003 624.268,154.568 C625.052004,154.023997 625.947995,153.616001 626.956,153.344 C627.964005,153.071999 628.979995,152.856001 630.004,152.696 C630.772004,152.575999 631.530999,152.474 632.280999,152.39 L633.028,152.312 C634.020005,152.216 634.899996,152.072001 635.668,151.88 C636.436004,151.687999 637.043998,151.408002 637.492,151.04 C637.899275,150.705453 638.108199,150.232069 638.118777,149.619835 L638.116,149.432 C638.116,148.695996 637.996001,148.112002 637.756,147.68 C637.515999,147.247998 637.196002,146.912001 636.796,146.672 C636.395998,146.431999 635.932003,146.272 635.404,146.192 C634.875997,146.112 634.308003,146.072 633.7,146.072 C632.355993,146.072 631.300004,146.359997 630.532,146.936 C629.763996,147.512 629.316001,148.471993 629.188,149.816 L622.372,149.816 Z M638.116,154.856 C637.827999,155.112001 637.468002,155.311999 637.036,155.456 C636.603998,155.600001 636.140002,155.72 635.644,155.816 C635.313332,155.88 634.972,155.936889 634.620001,155.986667 L634.084,156.056 C633.539997,156.12 632.996003,156.2 632.452,156.296 C631.939997,156.392 631.436002,156.519999 630.94,156.68 C630.443998,156.840001 630.012002,157.055999 629.644,157.328 C629.275998,157.600001 628.980001,157.943998 628.756,158.36 C628.531999,158.776002 628.42,159.303997 628.42,159.944 C628.42,160.552003 628.531999,161.063998 628.756,161.48 C628.980001,161.896002 629.283998,162.223999 629.668,162.464 C630.052002,162.704001 630.499997,162.872 631.012,162.968 C631.524003,163.064 632.051997,163.112 632.596,163.112 C633.940007,163.112 634.979996,162.888002 635.716,162.44 C636.452004,161.991998 636.995998,161.456003 637.348,160.832 C637.700002,160.207997 637.916,159.576003 637.996,158.936 L638.054776,158.418774 C638.095592,158.013877 638.116,157.674287 638.116,157.4 L638.116,154.856 Z M655.492,158.936 L649.012,158.936 C649.076,160.600008 649.451997,161.983994 650.14,163.088 C650.828003,164.192006 651.707995,165.079997 652.78,165.752 C653.852005,166.424003 655.075993,166.903999 656.452,167.192 C657.828007,167.480001 659.235993,167.624 660.676,167.624 C662.084007,167.624 663.467993,167.488001 664.828,167.216 C666.188007,166.943999 667.395995,166.472003 668.452,165.8 C669.508005,165.127997 670.363997,164.240006 671.02,163.136 C671.676003,162.031994 672.004,160.664008 672.004,159.032 C672.004,157.879994 671.780002,156.912004 671.332,156.128 C670.883998,155.343996 670.292004,154.688003 669.556,154.16 C668.819996,153.631997 667.980005,153.208002 667.036,152.888 C666.091995,152.567998 665.124005,152.296001 664.132,152.072 C663.171995,151.847999 662.228005,151.640001 661.3,151.448 C660.371995,151.255999 659.548004,151.040001 658.828,150.8 C658.107996,150.559999 657.524002,150.248002 657.076,149.864 C656.627998,149.479998 656.404,148.984003 656.404,148.376 C656.404,147.863997 656.531999,147.456002 656.788,147.152 C657.044001,146.847998 657.355998,146.616001 657.724,146.456 C658.092002,146.295999 658.499998,146.192 658.948,146.144 C659.396002,146.096 659.811998,146.072 660.196,146.072 C661.412006,146.072 662.467996,146.303998 663.364,146.768 C664.260004,147.232002 664.756,148.119993 664.852,149.432 L671.332,149.432 C671.203999,147.895992 670.812003,146.624005 670.156,145.616 C669.499997,144.607995 668.676005,143.800003 667.684,143.192 C666.691995,142.583997 665.564006,142.152001 664.3,141.896 C663.035994,141.639999 661.732007,141.512 660.388,141.512 C659.043993,141.512 657.732006,141.631999 656.452,141.872 C655.171994,142.112001 654.020005,142.527997 652.996,143.12 C651.971995,143.712003 651.148003,144.519995 650.524,145.544 C649.899997,146.568005 649.588,147.879992 649.588,149.48 C649.588,150.568005 649.811998,151.487996 650.26,152.24 C650.708002,152.992004 651.299996,153.615998 652.036,154.112 C652.772004,154.608002 653.611995,155.007998 654.556,155.312 C655.500005,155.616002 656.467995,155.879999 657.46,156.104 L658.404217,156.308801 C660.388079,156.752535 661.969327,157.196264 663.148,157.64 C664.508007,158.152003 665.188,158.919995 665.188,159.944 C665.188,160.552003 665.044001,161.055998 664.756,161.456 C664.467999,161.856002 664.108002,162.175999 663.676,162.416 C663.243998,162.656001 662.764003,162.831999 662.236,162.944 C661.707997,163.056001 661.204002,163.112 660.724,163.112 C660.051997,163.112 659.404003,163.032001 658.78,162.872 C658.155997,162.711999 657.604002,162.464002 657.124,162.128 C656.643998,161.791998 656.252002,161.360003 655.948,160.832 C655.643998,160.303997 655.492,159.672004 655.492,158.936 Z M682.036,154.616 C682.036,153.623995 682.131999,152.648 682.324,151.688 C682.516001,150.727995 682.843998,149.880004 683.308,149.144 C683.772002,148.407996 684.387996,147.808002 685.156,147.344 C685.924004,146.879998 686.883994,146.648 688.036,146.648 C689.188006,146.648 690.155996,146.879998 690.94,147.344 C691.724004,147.808002 692.347998,148.407996 692.812,149.144 C693.276002,149.880004 693.603999,150.727995 693.796,151.688 C693.988001,152.648 694.084,153.623995 694.084,154.616 C694.084,155.608005 693.988001,156.575995 693.796,157.52 C693.603999,158.464005 693.276002,159.311996 692.812,160.064 C692.347998,160.816004 691.724004,161.415998 690.94,161.864 C690.155996,162.312002 689.188006,162.536 688.036,162.536 C686.883994,162.536 685.924004,162.312002 685.156,161.864 C684.387996,161.415998 683.772002,160.816004 683.308,160.064 C682.843998,159.311996 682.516001,158.464005 682.324,157.52 C682.131999,156.575995 682.036,155.608005 682.036,154.616 Z M675.22,154.616 C675.22,156.60001 675.523997,158.391992 676.132,159.992 C676.740003,161.592008 677.603994,162.959994 678.724,164.096 C679.844006,165.232006 681.187992,166.103997 682.756,166.712 C684.324008,167.320003 686.08399,167.624 688.036,167.624 C689.98801,167.624 691.755992,167.320003 693.34,166.712 C694.924008,166.103997 696.275994,165.232006 697.396,164.096 C698.516006,162.959994 699.379997,161.592008 699.988,159.992 C700.596003,158.391992 700.9,156.60001 700.9,154.616 C700.9,152.63199 700.596003,150.832008 699.988,149.216 C699.379997,147.599992 698.516006,146.224006 697.396,145.088 C696.275994,143.951994 694.924008,143.072003 693.34,142.448 C691.755992,141.823997 689.98801,141.512 688.036,141.512 C686.08399,141.512 684.324008,141.823997 682.756,142.448 C681.187992,143.072003 679.844006,143.951994 678.724,145.088 C677.603994,146.224006 676.740003,147.599992 676.132,149.216 C675.523997,150.832008 675.22,152.63199 675.22,154.616 Z M710.596,158.936 C710.596,159.672004 710.747998,160.303997 711.052,160.832 C711.356002,161.360003 711.747998,161.791998 712.228,162.128 C712.708002,162.464002 713.259997,162.711999 713.884,162.872 C714.508003,163.032001 715.155997,163.112 715.828,163.112 C716.308002,163.112 716.811997,163.056001 717.34,162.944 C717.868003,162.831999 718.347998,162.656001 718.78,162.416 C719.212002,162.175999 719.571999,161.856002 719.86,161.456 C720.148001,161.055998 720.292,160.552003 720.292,159.944 C720.292,158.919995 719.612007,158.152003 718.252,157.64 C716.891993,157.127997 714.996012,156.616003 712.564,156.104 C711.571995,155.879999 710.604005,155.616002 709.66,155.312 C708.715995,155.007998 707.876004,154.608002 707.14,154.112 C706.403996,153.615998 705.812002,152.992004 705.364,152.24 C704.915998,151.487996 704.692,150.568005 704.692,149.48 C704.692,147.879992 705.003997,146.568005 705.628,145.544 C706.252003,144.519995 707.075995,143.712003 708.1,143.12 C709.124005,142.527997 710.275994,142.112001 711.556,141.872 C712.836006,141.631999 714.147993,141.512 715.492,141.512 C716.836007,141.512 718.139994,141.639999 719.404,141.896 C720.668006,142.152001 721.795995,142.583997 722.788,143.192 C723.780005,143.800003 724.603997,144.607995 725.26,145.616 C725.916003,146.624005 726.307999,147.895992 726.436,149.432 L719.956,149.432 C719.86,148.119993 719.364004,147.232002 718.468,146.768 C717.571996,146.303998 716.516006,146.072 715.3,146.072 C714.915998,146.072 714.500002,146.096 714.052,146.144 C713.603998,146.192 713.196002,146.295999 712.828,146.456 C712.459998,146.616001 712.148001,146.847998 711.892,147.152 C711.635999,147.456002 711.508,147.863997 711.508,148.376 C711.508,148.984003 711.731998,149.479998 712.18,149.864 C712.628002,150.248002 713.211996,150.559999 713.932,150.8 C714.652004,151.040001 715.475995,151.255999 716.404,151.448 C717.332005,151.640001 718.275995,151.847999 719.236,152.072 C720.228005,152.296001 721.195995,152.567998 722.14,152.888 C723.084005,153.208002 723.923996,153.631997 724.66,154.16 C725.396004,154.688003 725.987998,155.343996 726.436,156.128 C726.884002,156.912004 727.108,157.879994 727.108,159.032 C727.108,160.664008 726.780003,162.031994 726.124,163.136 C725.467997,164.240006 724.612005,165.127997 723.556,165.8 C722.499995,166.472003 721.292007,166.943999 719.932,167.216 C718.571993,167.488001 717.188007,167.624 715.78,167.624 C714.339993,167.624 712.932007,167.480001 711.556,167.192 C710.179993,166.903999 708.956005,166.424003 707.884,165.752 C706.811995,165.079997 705.932003,164.192006 705.244,163.088 C704.555997,161.983994 704.18,160.600008 704.116,158.936 L710.596,158.936 Z" id="Casos" fill="#FFFFFF" fill-rule="nonzero"></path>
        <path d="M554.18,397.664 L554.18,376.064 L559.556,376.064 C561.412009,376.064 562.971994,376.327997 564.236,376.856 C565.500006,377.384003 566.515996,378.143995 567.284,379.136 C568.052004,380.128005 568.603998,381.319993 568.94,382.712 C569.276002,384.104007 569.444,385.663991 569.444,387.392 C569.444,389.280009 569.204002,390.879993 568.724,392.192 C568.243998,393.504007 567.604004,394.567996 566.804,395.384 C566.003996,396.200004 565.092005,396.783998 564.068,397.136 C563.043995,397.488002 561.988005,397.664 560.9,397.664 L554.18,397.664 Z M546.644,369.728 L546.644,404 L561.428,404 C564.052013,404 566.33199,403.560004 568.268,402.68 C570.20401,401.799996 571.819994,400.592008 573.116,399.056 C574.412006,397.519992 575.379997,395.696011 576.02,393.584 C576.660003,391.471989 576.98,389.168012 576.98,386.672 C576.98,383.823986 576.588004,381.344011 575.804,379.232 C575.019996,377.119989 573.932007,375.360007 572.54,373.952 C571.147993,372.543993 569.50001,371.488004 567.596,370.784 C565.69199,370.079996 563.636011,369.728 561.428,369.728 L546.644,369.728 Z M598.196,388.928 L587.108,388.928 C587.14,388.447998 587.243999,387.904003 587.42,387.296 C587.596001,386.687997 587.899998,386.112003 588.332,385.568 C588.764002,385.023997 589.339996,384.568002 590.06,384.2 C590.780004,383.831998 591.683995,383.648 592.772,383.648 C594.436008,383.648 595.675996,384.095996 596.492,384.992 C597.308004,385.888004 597.875998,387.199991 598.196,388.928 Z M587.108,393.248 L605.012,393.248 C605.140001,391.32799 604.980002,389.488009 604.532,387.728 C604.083998,385.967991 603.356005,384.400007 602.348,383.024 C601.339995,381.647993 600.052008,380.552004 598.484,379.736 C596.915992,378.919996 595.076011,378.512 592.964,378.512 C591.075991,378.512 589.356008,378.847997 587.804,379.52 C586.251992,380.192003 584.916006,381.111994 583.796,382.28 C582.675994,383.448006 581.812003,384.831992 581.204,386.432 C580.595997,388.032008 580.292,389.759991 580.292,391.616 C580.292,393.53601 580.587997,395.295992 581.18,396.896 C581.772003,398.496008 582.611995,399.871994 583.7,401.024 C584.788005,402.176006 586.115992,403.063997 587.684,403.688 C589.252008,404.312003 591.01199,404.624 592.964,404.624 C595.780014,404.624 598.17999,403.984006 600.164,402.704 C602.14801,401.423994 603.619995,399.296015 604.58,396.32 L598.58,396.32 C598.355999,397.088004 597.748005,397.815997 596.756,398.504 C595.763995,399.192003 594.580007,399.536 593.204,399.536 C591.28399,399.536 589.812005,399.040005 588.788,398.048 C587.763995,397.055995 587.204,395.456011 587.108,393.248 Z M625.94,387.92 L632.612,387.92 C632.516,386.319992 632.132003,384.936006 631.46,383.768 C630.787997,382.599994 629.916005,381.624004 628.844,380.84 C627.771995,380.055996 626.556007,379.472002 625.196,379.088 C623.835993,378.703998 622.420007,378.512 620.948,378.512 C618.93199,378.512 617.140008,378.847997 615.572,379.52 C614.003992,380.192003 612.676005,381.127994 611.588,382.328 C610.499995,383.528006 609.676003,384.951992 609.116,386.6 C608.555997,388.248008 608.276,390.03199 608.276,391.952 C608.276,393.808009 608.579997,395.512 609.188,397.064 C609.796003,398.616008 610.643995,399.951994 611.732,401.072 C612.820005,402.192006 614.139992,403.063997 615.692,403.688 C617.244008,404.312003 618.947991,404.624 620.804,404.624 C624.100016,404.624 626.803989,403.760009 628.916,402.032 C631.028011,400.303991 632.307998,397.792016 632.756,394.496 L626.18,394.496 C625.955999,396.032008 625.404004,397.255995 624.524,398.168 C623.643996,399.080005 622.388008,399.536 620.756,399.536 C619.699995,399.536 618.804004,399.296002 618.068,398.816 C617.331996,398.335998 616.748002,397.720004 616.316,396.968 C615.883998,396.215996 615.572001,395.376005 615.38,394.448 C615.187999,393.519995 615.092,392.608004 615.092,391.712 C615.092,390.783995 615.187999,389.848005 615.38,388.904 C615.572001,387.959995 615.899998,387.096004 616.364,386.312 C616.828002,385.527996 617.427996,384.888002 618.164,384.392 C618.900004,383.895998 619.811995,383.648 620.9,383.648 C623.812015,383.648 625.491998,385.071986 625.94,387.92 Z M643.604,375.344 L643.604,369.728 L636.788,369.728 L636.788,375.344 L643.604,375.344 Z M636.788,379.184 L636.788,404 L643.604,404 L643.604,379.184 L636.788,379.184 Z M654.26,395.936 L647.78,395.936 C647.844,397.600008 648.219997,398.983994 648.908,400.088 C649.596003,401.192006 650.475995,402.079997 651.548,402.752 C652.620005,403.424003 653.843993,403.903999 655.22,404.192 C656.596007,404.480001 658.003993,404.624 659.444,404.624 C660.852007,404.624 662.235993,404.488001 663.596,404.216 C664.956007,403.943999 666.163995,403.472003 667.22,402.8 C668.276005,402.127997 669.131997,401.240006 669.788,400.136 C670.444003,399.031994 670.772,397.664008 670.772,396.032 C670.772,394.879994 670.548002,393.912004 670.1,393.128 C669.651998,392.343996 669.060004,391.688003 668.324,391.16 C667.587996,390.631997 666.748005,390.208002 665.804,389.888 C664.859995,389.567998 663.892005,389.296001 662.9,389.072 C661.939995,388.847999 660.996005,388.640001 660.068,388.448 C659.139995,388.255999 658.316004,388.040001 657.596,387.8 C656.875996,387.559999 656.292002,387.248002 655.844,386.864 C655.395998,386.479998 655.172,385.984003 655.172,385.376 C655.172,384.863997 655.299999,384.456002 655.556,384.152 C655.812001,383.847998 656.123998,383.616001 656.492,383.456 C656.860002,383.295999 657.267998,383.192 657.716,383.144 C658.164002,383.096 658.579998,383.072 658.964,383.072 C660.180006,383.072 661.235996,383.303998 662.132,383.768 C663.028004,384.232002 663.524,385.119993 663.62,386.432 L670.1,386.432 C669.971999,384.895992 669.580003,383.624005 668.924,382.616 C668.267997,381.607995 667.444005,380.800003 666.452,380.192 C665.459995,379.583997 664.332006,379.152001 663.068,378.896 C661.803994,378.639999 660.500007,378.512 659.156,378.512 C657.811993,378.512 656.500006,378.631999 655.22,378.872 C653.939994,379.112001 652.788005,379.527997 651.764,380.12 C650.739995,380.712003 649.916003,381.519995 649.292,382.544 C648.667997,383.568005 648.356,384.879992 648.356,386.48 C648.356,387.568005 648.579998,388.487996 649.028,389.24 C649.476002,389.992004 650.067996,390.615998 650.804,391.112 C651.540004,391.608002 652.379995,392.007998 653.324,392.312 C654.268005,392.616002 655.235995,392.879999 656.228,393.104 C658.660012,393.616003 660.555993,394.127997 661.916,394.64 C663.276007,395.152003 663.956,395.919995 663.956,396.944 C663.956,397.552003 663.812001,398.055998 663.524,398.456 C663.235999,398.856002 662.876002,399.175999 662.444,399.416 C662.011998,399.656001 661.532003,399.831999 661.004,399.944 C660.475997,400.056001 659.972002,400.112 659.492,400.112 C658.819997,400.112 658.172003,400.032001 657.548,399.872 C656.923997,399.711999 656.372002,399.464002 655.892,399.128 C655.411998,398.791998 655.020002,398.360003 654.716,397.832 C654.411998,397.303997 654.26,396.672004 654.26,395.936 Z M681.764,375.344 L681.764,369.728 L674.948,369.728 L674.948,375.344 L681.764,375.344 Z M674.948,379.184 L674.948,404 L681.764,404 L681.764,379.184 L674.948,379.184 Z M693.188,391.616 C693.188,390.623995 693.283999,389.648 693.476,388.688 C693.668001,387.727995 693.995998,386.880004 694.46,386.144 C694.924002,385.407996 695.539996,384.808002 696.308,384.344 C697.076004,383.879998 698.035994,383.648 699.188,383.648 C700.340006,383.648 701.307996,383.879998 702.092,384.344 C702.876004,384.808002 703.499998,385.407996 703.964,386.144 C704.428002,386.880004 704.755999,387.727995 704.948,388.688 C705.140001,389.648 705.236,390.623995 705.236,391.616 C705.236,392.608005 705.140001,393.575995 704.948,394.52 C704.755999,395.464005 704.428002,396.311996 703.964,397.064 C703.499998,397.816004 702.876004,398.415998 702.092,398.864 C701.307996,399.312002 700.340006,399.536 699.188,399.536 C698.035994,399.536 697.076004,399.312002 696.308,398.864 C695.539996,398.415998 694.924002,397.816004 694.46,397.064 C693.995998,396.311996 693.668001,395.464005 693.476,394.52 C693.283999,393.575995 693.188,392.608005 693.188,391.616 Z M686.372,391.616 C686.372,393.60001 686.675997,395.391992 687.284,396.992 C687.892003,398.592008 688.755994,399.959994 689.876,401.096 C690.996006,402.232006 692.339992,403.103997 693.908,403.712 C695.476008,404.320003 697.23599,404.624 699.188,404.624 C701.14001,404.624 702.907992,404.320003 704.492,403.712 C706.076008,403.103997 707.427994,402.232006 708.548,401.096 C709.668006,399.959994 710.531997,398.592008 711.14,396.992 C711.748003,395.391992 712.052,393.60001 712.052,391.616 C712.052,389.63199 711.748003,387.832008 711.14,386.216 C710.531997,384.599992 709.668006,383.224006 708.548,382.088 C707.427994,380.951994 706.076008,380.072003 704.492,379.448 C702.907992,378.823997 701.14001,378.512 699.188,378.512 C697.23599,378.512 695.476008,378.823997 693.908,379.448 C692.339992,380.072003 690.996006,380.951994 689.876,382.088 C688.755994,383.224006 687.892003,384.599992 687.284,386.216 C686.675997,387.832008 686.372,389.63199 686.372,391.616 Z M716.468,379.184 L716.468,404 L723.284,404 L723.284,390.992 C723.284,388.463987 723.699996,386.648006 724.532,385.544 C725.364004,384.439994 726.707991,383.888 728.564,383.888 C730.196008,383.888 731.331997,384.391995 731.972,385.4 C732.612003,386.408005 732.932,387.93599 732.932,389.984 L732.932,404 L739.748,404 L739.748,388.736 C739.748,387.199992 739.612001,385.800006 739.34,384.536 C739.067999,383.271994 738.596003,382.200004 737.924,381.32 C737.251997,380.439996 736.332006,379.752002 735.164,379.256 C733.995994,378.759998 732.500009,378.512 730.676,378.512 C729.235993,378.512 727.828007,378.839997 726.452,379.496 C725.075993,380.152003 723.956004,381.199993 723.092,382.64 L722.948,382.64 L722.948,379.184 L716.468,379.184 Z M761.636,388.928 L750.548,388.928 C750.58,388.447998 750.683999,387.904003 750.86,387.296 C751.036001,386.687997 751.339998,386.112003 751.772,385.568 C752.204002,385.023997 752.779996,384.568002 753.5,384.2 C754.220004,383.831998 755.123995,383.648 756.212,383.648 C757.876008,383.648 759.115996,384.095996 759.932,384.992 C760.748004,385.888004 761.315998,387.199991 761.636,388.928 Z M750.548,393.248 L768.452,393.248 C768.580001,391.32799 768.420002,389.488009 767.972,387.728 C767.523998,385.967991 766.796005,384.400007 765.788,383.024 C764.779995,381.647993 763.492008,380.552004 761.924,379.736 C760.355992,378.919996 758.516011,378.512 756.404,378.512 C754.515991,378.512 752.796008,378.847997 751.244,379.52 C749.691992,380.192003 748.356006,381.111994 747.236,382.28 C746.115994,383.448006 745.252003,384.831992 744.644,386.432 C744.035997,388.032008 743.732,389.759991 743.732,391.616 C743.732,393.53601 744.027997,395.295992 744.62,396.896 C745.212003,398.496008 746.051995,399.871994 747.14,401.024 C748.228005,402.176006 749.555992,403.063997 751.124,403.688 C752.692008,404.312003 754.45199,404.624 756.404,404.624 C759.220014,404.624 761.61999,403.984006 763.604,402.704 C765.58801,401.423994 767.059995,399.296015 768.02,396.32 L762.02,396.32 C761.795999,397.088004 761.188005,397.815997 760.196,398.504 C759.203995,399.192003 758.020007,399.536 756.644,399.536 C754.72399,399.536 753.252005,399.040005 752.228,398.048 C751.203995,397.055995 750.644,395.456011 750.548,393.248 Z M777.764,395.936 C777.764,396.672004 777.915998,397.303997 778.22,397.832 C778.524002,398.360003 778.915998,398.791998 779.396,399.128 C779.876002,399.464002 780.427997,399.711999 781.052,399.872 C781.676003,400.032001 782.323997,400.112 782.996,400.112 C783.476002,400.112 783.979997,400.056001 784.508,399.944 C785.036003,399.831999 785.515998,399.656001 785.948,399.416 C786.380002,399.175999 786.739999,398.856002 787.028,398.456 C787.316001,398.055998 787.46,397.552003 787.46,396.944 C787.46,395.919995 786.780007,395.152003 785.42,394.64 C784.059993,394.127997 782.164012,393.616003 779.732,393.104 C778.739995,392.879999 777.772005,392.616002 776.828,392.312 C775.883995,392.007998 775.044004,391.608002 774.308,391.112 C773.571996,390.615998 772.980002,389.992004 772.532,389.24 C772.083998,388.487996 771.86,387.568005 771.86,386.48 C771.86,384.879992 772.171997,383.568005 772.796,382.544 C773.420003,381.519995 774.243995,380.712003 775.268,380.12 C776.292005,379.527997 777.443994,379.112001 778.724,378.872 C780.004006,378.631999 781.315993,378.512 782.66,378.512 C784.004007,378.512 785.307994,378.639999 786.572,378.896 C787.836006,379.152001 788.963995,379.583997 789.956,380.192 C790.948005,380.800003 791.771997,381.607995 792.428,382.616 C793.084003,383.624005 793.475999,384.895992 793.604,386.432 L787.124,386.432 C787.028,385.119993 786.532004,384.232002 785.636,383.768 C784.739996,383.303998 783.684006,383.072 782.468,383.072 C782.083998,383.072 781.668002,383.096 781.22,383.144 C780.771998,383.192 780.364002,383.295999 779.996,383.456 C779.627998,383.616001 779.316001,383.847998 779.06,384.152 C778.803999,384.456002 778.676,384.863997 778.676,385.376 C778.676,385.984003 778.899998,386.479998 779.348,386.864 C779.796002,387.248002 780.379996,387.559999 781.1,387.8 C781.820004,388.040001 782.643995,388.255999 783.572,388.448 C784.500005,388.640001 785.443995,388.847999 786.404,389.072 C787.396005,389.296001 788.363995,389.567998 789.308,389.888 C790.252005,390.208002 791.091996,390.631997 791.828,391.16 C792.564004,391.688003 793.155998,392.343996 793.604,393.128 C794.052002,393.912004 794.276,394.879994 794.276,396.032 C794.276,397.664008 793.948003,399.031994 793.292,400.136 C792.635997,401.240006 791.780005,402.127997 790.724,402.8 C789.667995,403.472003 788.460007,403.943999 787.1,404.216 C785.739993,404.488001 784.356007,404.624 782.948,404.624 C781.507993,404.624 780.100007,404.480001 778.724,404.192 C777.347993,403.903999 776.124005,403.424003 775.052,402.752 C773.979995,402.079997 773.100003,401.192006 772.412,400.088 C771.723997,398.983994 771.348,397.600008 771.284,395.936 L777.764,395.936 Z" id="Decisiones" fill="#009AFF" fill-rule="nonzero"></path>
    </g>
</svg>