<svg width="128" height="128" viewBox="0 0 128 128" fill="none" xmlns="http://www.w3.org/2000/svg">
<path fill-rule="evenodd" clip-rule="evenodd" d="M37.5833 8L101.943 10.8773L128 68.7848L91.2387 121.708L26.5289 117.563L0 54.8211L37.5833 8ZM84.7676 41.3792L38.1237 61.7626L78.0014 92.6016L84.7676 41.3792ZM79.3674 31.1653L42.0912 15.1119L34.2609 48.865L79.3674 31.1653ZM69.9192 100.361L29.4073 71.4269L30.3872 110.634L69.9192 100.361ZM121.529 68.657L93.9224 40.6376L86.6358 94.5178L121.529 68.657ZM79.4175 106.663L45.251 115.595L85.4307 118.169L79.4175 106.663ZM116.134 81.3696L86.2263 103.654L92.169 115.27L116.134 81.3696ZM101.988 18.9681L96.1786 30.8957L117.801 52.8792L101.988 18.9681ZM94.7499 13.2603L56.7812 11.7188L88.1009 25.4208L94.7499 13.2603ZM32.0387 18.7761L5.44412 52.3647L23.2247 56.1316L32.0387 18.7761ZM22.1526 62.7205L4.28629 58.937L22.9284 102.864L22.1526 62.7205Z" fill="#4D00B4"/>
</svg>
