<svg width="23" height="32" viewBox="0 0 23 32" fill="none" xmlns="http://www.w3.org/2000/svg">
<path d="M11.0222 5.0001C7.70679 5.0001 5.0101 7.6914 5.0101 11.0002C5.0101 11.5527 5.45851 12.0002 6.01212 12.0002C6.56574 12.0002 7.01414 11.5527 7.01414 11.0002C7.01414 8.79392 8.81277 7.00014 11.0222 7.00014C11.5758 7.00014 12.0242 6.55263 12.0242 6.00012C12.0242 5.44761 11.5758 5.0001 11.0222 5.0001ZM6.01588 28.6987C6.01588 28.8956 6.07412 29.0874 6.18372 29.2512L7.71869 31.5537C7.90469 31.8325 8.21782 32 8.55287 32H13.4909C13.8266 32 14.1398 31.8325 14.3251 31.5537L15.8601 29.2512C15.9691 29.0874 16.0273 28.8949 16.0279 28.6987L16.0311 25.9999H6.01337L6.01588 28.6987ZM11.0222 0C4.61681 0 0 5.18573 0 11.0002C0 13.7734 1.0302 16.3034 2.728 18.2366C3.7701 19.4235 5.40465 21.9117 6.01087 23.9967V24.0005H9.01693V23.993C9.0163 23.6948 8.97184 23.3986 8.88228 23.1136C8.5322 22.0004 7.45315 19.0654 4.98881 16.2591C3.70247 14.7947 3.01483 12.9371 3.00919 11.0002C2.99667 6.39762 6.7461 3.00006 11.0222 3.00006C15.4424 3.00006 19.0384 6.58888 19.0384 11.0002C19.0384 12.9359 18.3345 14.8034 17.0563 16.2591C14.607 19.0472 13.5229 21.9761 13.1672 23.1005C13.0754 23.3895 13.0285 23.691 13.0281 23.9942V24.0005H16.0342V23.9973C16.6404 21.9117 18.275 19.4235 19.3171 18.2372C21.0142 16.3034 22.0444 13.7734 22.0444 11.0002C22.0444 4.9251 17.1095 0 11.0222 0Z" fill="white"/>
</svg>
