<?xml version="1.0" encoding="UTF-8"?>
<svg width="604px" height="606px" viewBox="0 0 604 606" version="1.1" xmlns="http://www.w3.org/2000/svg" xmlns:xlink="http://www.w3.org/1999/xlink">
    <title>symbol-linguo</title>
    <g id="symbol-linguo" stroke="none" stroke-width="1" fill="none" fill-rule="evenodd">
        <g id="Group-125" transform="translate(29.000000, -19.000000)">
            <ellipse id="Oval" fill="#5FCAFF" cx="272.96496" cy="324.027605" rx="272.96496" ry="272.907391"></ellipse>
            <g id="Group-124" transform="translate(75.631267, 0.000000)">
                <g id="Group-120">
                    <g id="Group-118" transform="translate(336.743476, 292.413291)">
                        <g id="hand" transform="translate(60.735203, 60.428705) rotate(-45.000000) translate(-60.735203, -60.428705) translate(27.218087, 8.651383)"></g>
                    </g>
                    <g id="BODY" transform="translate(44.776128, 337.606411)" fill="#FFFFFF" fill-rule="nonzero">
                        <path d="M12.1315276,98.5129118 L12.1315276,89.0662794 C12.1315276,82.7702333 17.2354814,77.6662794 23.5315276,77.6662794 L138.603464,77.6662794 L138.603464,0.223307385 L160.356637,0.223307385 L160.356637,77.6662794 L274.922685,77.6662794 C281.218731,77.6662794 286.322685,82.7702333 286.322685,89.0662794 L286.322685,98.5129118 L296.629802,98.5129118 L296.629802,146.438112 L286.322685,146.438112 L286.322685,224.369272 C246.793306,246.629536 201.158759,259.328584 152.557565,259.328584 C101.202205,259.328584 53.1592517,245.149479 12.1315276,220.49331 L12.1315276,146.438112 L0.496109427,146.438112 L0.496109427,98.5129118 L12.1315276,98.5129118 Z" id="Combined-Shape"></path>
                    </g>
                    <g id="HEAD" transform="translate(168.157511, 224.541692) rotate(-10.000000) translate(-168.157511, -224.541692) translate(33.771981, 20.673215)" fill="#FFFFFF">
                        <g id="ROBOT" transform="translate(0.000000, 0.000000)">
                            <path d="M253.574886,204.211783 L253.574886,360.11416 L215.167224,360.11416 C194.607054,389.417144 165.81727,407.628538 133.949695,407.628538 C102.082119,407.628538 73.2923352,389.417144 52.7321656,360.11416 L14.2520089,360.11416 L14.2520089,204.219469 L0.243530294,204.219469 L0.243530294,140.98483 L22.909587,140.98483 C39.1583343,92.2208791 76.6386113,64.8347428 121.255094,60.364096 L124.08024,34.8219644 C118.791935,31.5137516 115.274866,25.6396884 115.274866,18.9446293 C115.274866,8.60726533 123.659645,0.227176065 134.002793,0.227176065 C144.345942,0.227176065 152.73072,8.60726533 152.73072,18.9446293 C152.73072,25.5906168 149.26502,31.4275993 144.041342,34.7488087 L146.866167,60.2880275 C191.734191,64.5150017 229.002467,91.932894 245.071166,140.977144 L268.329645,140.977144 L268.329645,204.211783 L253.574886,204.211783 Z" id="Combined-Shape"></path>
                        </g>
                    </g>
                </g>
                <g id="AAAAAAAA" transform="translate(9.617044, 7.588157)">
                    <path d="M316.034528,457.670407 C339.854237,455.727693 352.442483,445.972282 352.442483,428.592529 C352.442483,424.810712 351.64108,420.927041 350.096875,416.511329 C348.996547,413.3649 348.331088,411.817267 345.214537,404.876306 C339.914399,393.072216 338.050858,386.798719 338.596748,379.304776 C339.313105,369.47066 345.06572,359.796535 357.626795,349.376483 L353.747525,344.705363 C340.000168,356.109495 333.386165,367.23221 332.538858,378.863988 C332.181162,383.774432 332.845158,388.68236 334.407217,393.940936 C335.587825,397.915382 336.995806,401.399205 339.673023,407.361711 C342.703411,414.110776 343.344808,415.602449 344.363079,418.514234 C345.699775,422.336566 346.36856,425.57756 346.36856,428.592529 C346.36856,442.293866 336.544804,449.906903 315.54051,451.619994 L316.034528,457.670407 Z" id="Path-148" fill="#000000" fill-rule="nonzero"></path>
                    <g id="Group-118" transform="translate(295.981125, 287.133313)">
                        <rect id="Rectangle" fill="#00AAFF" x="0" y="150.059127" width="28.8511308" height="30.3526269"></rect>
                        <g id="hand" transform="translate(83.271697, 54.357798) rotate(-13.000000) translate(-83.271697, -54.357798) translate(52.113746, 5.900095)">
                            <path d="M62.2577034,5.91930908 C41.1266013,8.63216402 24.8018493,26.5775634 24.8018493,48.3112645 C24.8018493,70.0449656 41.1266013,87.9903649 62.2577034,90.7032199 L62.2577034,96.1166518 C35.7009707,96.1166518 14.1724853,74.6002064 14.1724853,48.0583259 C14.1724853,21.5164454 35.7009707,0 62.2577034,0 L62.2577034,5.91930908 Z" id="Combined-Shape" fill="#FFFFFF"></path>
                            <path d="M47.5636277,86.2486823 C51.6188955,88.0135486 57.169406,89.7359097 62.2577034,90.5578655 L62.2577034,96.1166518 C58.2256174,96.1166518 68.4500218,98.8790828 47.5430353,93.6598679 L47.5636277,86.2486823 Z M47.7741519,10.4811836 L47.7971307,2.21112492 C52.3611691,0.774588796 57.2189282,-2.62332378e-11 62.2577034,-2.62332378e-11 L62.2577034,5.91930908 C57.7728811,6.49507992 53.5045607,7.75700006 49.5628609,9.59565969 C48.9588222,9.87742174 48.3624538,10.1727276 47.7741519,10.4811836 Z" id="Combined-Shape" fill="#000000"></path>
                            <ellipse id="Oval" fill="#FFFFFF" cx="12.1478446" cy="46.5406946" rx="12.1478446" ry="12.1410508"></ellipse>
                            <ellipse id="Oval" fill="#000000" cx="10.1008203" cy="46.2998853" rx="4.55544171" ry="4.55289403"></ellipse>
                        </g>
                    </g>
                    <g id="BODY" transform="translate(12.293330, 391.157623)">
                        <path d="M41.7432249,163.277765 L41.7432249,35.6821015 C41.7432249,29.3860554 46.8471787,24.2821015 53.1432249,24.2821015 L290.003402,24.2821015 C296.299448,24.2821015 301.403402,29.3860554 301.403402,35.6821015 L301.403402,167.448753 C263.713804,187.087451 220.865313,198.189216 175.423319,198.189216 C126.856968,198.189216 81.2530111,185.50837 41.7431639,163.277731 Z" id="Combined-Shape" fill="#0043C5"></path>
                        <path d="M130.764349,106.595838 C105.053618,89.0110298 83.9426374,85.4781783 67.8478422,96.6902409 C51.3965347,108.15066 34.5077832,114.867614 21.8671676,112.45494 C9.4735206,110.089405 0.818601225,97.7185644 4.35692218,86.2397185 C9.94518486,68.1105532 21.3848426,61.0387172 39.698427,64.3549934 L40.8375067,58.0672684 C19.3209312,54.1709853 4.78392575,63.1575583 -1.75097808,84.3577701 C-6.47541913,99.684568 4.72072062,115.687681 20.6686538,118.731612 C28.8453001,120.292263 38.1479237,118.752241 48.1981439,114.755091 C56.0689102,111.624749 64.072574,107.10841 71.5016911,101.933089 C84.9857329,92.5397471 103.398247,95.6210194 127.155667,111.869864 L130.764349,106.595838 Z" id="Path-150" fill="#000000" fill-rule="nonzero"></path>
                        <g id="Group-101" transform="translate(29.826415, 23.776224)">
                            <rect id="Rectangle" fill="#00AAFF" x="0.39771107" y="22.2585931" width="11.6416844" height="30.3526269"></rect>
                            <rect id="Rectangle" fill="#FFFFFF" x="34.1878581" y="15.9758486" width="35.9373735" height="35.9172752"></rect>
                            <rect id="Rectangle" fill="#FFFFFF" x="80.7545956" y="15.9758486" width="35.9373735" height="35.9172752"></rect>
                            <rect id="Rectangle" fill="#FFFFFF" x="125.296692" y="15.9758486" width="35.9373735" height="35.9172752"></rect>
                            <rect id="Rectangle" fill="#FFFFFF" x="169.838789" y="15.9758486" width="35.9373735" height="35.9172752"></rect>
                            <rect id="Rectangle" fill="#FFFFFF" x="214.380886" y="15.9758486" width="35.9373735" height="35.9172752"></rect>
                            <rect id="Rectangle" fill="#000000" x="33.1755377" y="0.293658073" width="217.142721" height="9.10578807"></rect>
                        </g>
                        <g id="Group-117" transform="translate(71.272610, 46.328476)" fill="#000000" fill-rule="nonzero">
                            <path d="M9.35384031,0.546347284 L12.664128,0.546347284 L21.9268594,22.0360071 L17.5536354,22.0360071 L15.549241,17.1188816 L6.22577034,17.1188816 L4.28211521,22.0360071 L0,22.0360071 L9.35384031,0.546347284 Z M14.2129781,13.8407979 L10.9026905,5.09924132 L7.53166363,13.8407979 L14.2129781,13.8407979 Z" id="A"></path>
                            <path d="M50.0744276,0.546347284 L58.4564403,0.546347284 C59.2663007,0.546347284 60.0660258,0.642462975 60.8556396,0.83469724 C61.6452535,1.0269315 62.3488091,1.34057218 62.9663276,1.77562867 C63.5838461,2.21068517 64.0849397,2.77220315 64.4696234,3.46019947 C64.8543071,4.14819578 65.046646,4.97782595 65.046646,5.94911487 C65.046646,7.16322602 64.7024605,8.16485269 64.0140792,8.95402493 C63.3256979,9.74319718 62.4247418,10.3097739 61.3111838,10.653772 L61.3111838,10.7144773 C62.6676999,10.896594 63.7812412,11.4227053 64.6518411,12.2928139 C65.5224409,13.1629269 65.9577343,14.3264326 65.9577343,15.783366 C65.9577343,16.9570068 65.724903,17.9434573 65.2592333,18.7427471 C64.7935636,19.5420369 64.1811159,20.1844945 63.4218718,20.6701389 C62.6626277,21.1557834 61.7920409,21.5048351 60.8100852,21.7173045 C59.8281295,21.929774 58.8310039,22.0360071 57.8186785,22.0360071 L50.0744276,22.0360071 L50.0744276,0.546347284 Z M53.9009986,9.28790383 L57.3023951,9.28790383 C58.5779252,9.28790383 59.549743,9.0349678 60.2178778,8.52908816 C60.8860126,8.02320851 61.220075,7.30487019 61.220075,6.37405165 C61.220075,5.40276273 60.8758895,4.71477471 60.1875082,4.31007302 C59.4991269,3.9053693 58.426078,3.70302048 56.9683294,3.70302048 L53.9009986,3.70302048 L53.9009986,9.28790383 Z M53.9009986,18.8186287 L57.3327647,18.8186287 C57.8186809,18.8186287 58.3450823,18.7832176 58.9119845,18.7123945 C59.4788868,18.6415713 60.0002265,18.4948684 60.4760195,18.2722814 C60.9518125,18.0496943 61.3466135,17.7259362 61.6604343,17.3009973 C61.9742552,16.8760584 62.1311633,16.3094817 62.1311633,15.6012502 C62.1311633,14.4680798 61.7464816,13.6789194 60.9771181,13.2337453 C60.2077507,12.7885712 59.043594,12.5659875 57.4846128,12.5659875 L53.9009986,12.5659875 L53.9009986,18.8186287 Z" id="B"></path>
                            <path d="M108.37902,5.58488335 C107.812118,4.81594629 107.073131,4.25442831 106.162038,3.90031256 C105.250945,3.5461968 104.360112,3.36914159 103.489512,3.36914159 C102.375954,3.36914159 101.363644,3.57149041 100.452551,3.97619412 C99.5414584,4.38089784 98.7569179,4.9373571 98.0989064,5.6455886 C97.4408949,6.3538201 96.9347397,7.18345028 96.5804258,8.13450401 C96.2261119,9.08555774 96.0489576,10.1175367 96.0489576,11.230472 C96.0489576,12.4041127 96.2210504,13.4765615 96.565241,14.4478504 C96.9094317,15.4191393 97.4004022,16.2538282 98.0381672,16.9519421 C98.6759322,17.650056 99.4402265,18.1913391 100.331073,18.5758077 C101.221919,18.9602762 102.224106,19.1525076 103.337664,19.1525076 C104.491715,19.1525076 105.514149,18.9248651 106.404995,18.4695735 C107.295842,18.0142818 108.014582,17.412294 108.561238,16.6635922 L111.628568,18.8186287 C110.676982,20.0125046 109.512826,20.9382505 108.136063,21.595894 C106.7593,22.2535376 105.149727,22.5823544 103.307295,22.5823544 C101.626835,22.5823544 100.083061,22.3041248 98.675929,21.7476572 C97.2687967,21.1911896 96.0590859,20.4121466 95.0467605,19.4105049 C94.034435,18.4088632 93.244833,17.2150051 92.6779308,15.8288949 C92.1110285,14.4427847 91.8275817,12.9099924 91.8275817,11.230472 C91.8275817,9.51048116 92.1262132,7.95745395 92.7234852,6.57134372 C93.3207572,5.1852335 94.1407285,4.00655161 95.1834237,3.03526269 C96.2261189,2.06397377 97.4560759,1.31528313 98.8733315,0.789168299 C100.290587,0.263053469 101.829299,0 103.489512,0 C104.177894,0 104.896634,0.0657633673 105.645755,0.197292075 C106.394876,0.328820782 107.113616,0.531169605 107.801997,0.804344613 C108.490379,1.07751962 109.138257,1.4164539 109.745652,1.82115761 C110.353048,2.22586133 110.869326,2.7114985 111.294503,3.2780837 L108.37902,5.58488335 Z" id="C"></path>
                            <path d="M137.381999,0.546347284 L145.004771,0.546347284 C146.40178,0.546347284 147.808892,0.728461224 149.226147,1.09269457 C150.643403,1.45692791 151.918914,2.05891566 153.052718,2.89867587 C154.186523,3.73843608 155.107725,4.84123716 155.816353,6.2071122 C156.524981,7.57298724 156.879289,9.26765863 156.879289,11.2911772 C156.879289,13.1730495 156.524981,14.7918401 155.816353,16.1475975 C155.107725,17.503355 154.186523,18.6162735 153.052718,19.4863865 C151.918914,20.3564995 150.643403,20.998957 149.226147,21.4137783 C147.808892,21.8285996 146.40178,22.0360071 145.004771,22.0360071 L137.381999,22.0360071 L137.381999,0.546347284 Z M144.397379,18.6972182 C145.389458,18.6972182 146.381522,18.5808676 147.373601,18.348163 C148.36568,18.1154583 149.261574,17.7208781 150.061312,17.1644105 C150.861049,16.6079429 151.513989,15.8541935 152.020151,14.9031398 C152.526314,13.9520861 152.779392,12.7481106 152.779392,11.2911772 C152.779392,9.75330309 152.526314,8.49874039 152.020151,7.52745147 C151.513989,6.55616255 150.861049,5.79735447 150.061312,5.25100445 C149.261574,4.70465444 148.36568,4.3303081 147.373601,4.12795726 C146.381522,3.9256054 145.389458,3.82443099 144.397379,3.82443099 L141.20857,3.82443099 L141.20857,18.6972182 L144.397379,18.6972182 Z" id="D"></path>
                            <polygon id="E" points="184.262556 0.546347284 198.505903 0.546347284 198.505903 3.88513624 188.089127 3.88513624 188.089127 9.34860908 197.95925 9.34860908 197.95925 12.5659875 188.089127 12.5659875 188.089127 18.6365129 199.052556 18.6365129 199.052556 22.0360071 184.262556 22.0360071"></polygon>
                        </g>
                        <rect id="Rectangle" fill="#000000" x="161.19703" y="0" width="20.7525678" height="24.2821015"></rect>
                    </g>
                    <g id="HEAD" transform="translate(157.921979, 214.744835) rotate(-10.000000) translate(-157.921979, -214.744835) translate(32.394252, 19.223330)">
                        <g id="ROBOT" transform="translate(0.000000, 18.717453)">
                            <rect id="Rectangle" fill="#CDDEFF" x="222.204323" y="123.939893" width="28.8511308" height="47.5524488"></rect>
                            <rect id="Rectangle" fill="#CDDEFF" x="0" y="123.939893" width="28.8511308" height="47.5524488"></rect>
                            <path d="M236.376809,171.492342 C236.376809,86.8377125 187.140837,42.3751127 125.780807,42.3751127 C64.4207776,42.3751127 14.1724853,86.8377125 14.1724853,171.492342 L236.376809,171.492342 Z" id="Oval" stroke="#979797" stroke-width="0.95" fill="#0043C5"></path>
                            <path d="M230.302886,372.325557 C230.302886,292.141139 183.280142,227.138825 125.274647,227.138825 C67.2691521,227.138825 20.2464076,292.141139 20.2464076,372.325557 L230.302886,372.325557 Z" id="Oval" fill="#0043C5" transform="translate(125.274647, 299.732191) rotate(-180.000000) translate(-125.274647, -299.732191) "></path>
                            <path d="M210.056479,350.572841 C210.056479,285.754775 172.09836,233.20935 125.274647,233.20935 C78.4509342,233.20935 40.4928152,285.754775 40.4928152,350.572841 L210.056479,350.572841 Z" id="Oval" fill="#000000" transform="translate(125.274647, 291.891095) rotate(-180.000000) translate(-125.274647, -291.891095) "></path>
                            <polygon id="Rectangle" fill="#00AAFF" points="120.972285 0 129.577009 0 133.62629 53.6229742 116.923004 53.6229742"></polygon>
                            <rect id="Rectangle" fill="#00AAFF" x="14.1724853" y="171.492342" width="222.204323" height="153.280766"></rect>
                            <polygon id="Triangle" fill="#FFFFFF" points="125.780807 302.514515 140.206373 318.702582 111.355242 318.702582"></polygon>
                            <rect id="Rectangle" fill="#CDDEFF" x="35.4312133" y="312.632057" width="179.686867" height="12.1410508"></rect>
                        </g>
                        <g id="EYE1" transform="translate(131.601649, 122.422262)">
                            <ellipse id="Oval" fill="#FFFFFF" cx="43.2766962" cy="43.2524933" rx="43.2766962" ry="43.2524933"></ellipse>
                            <ellipse id="Oval" fill="#000000" cx="58.2084218" cy="58.1758682" rx="14.6786455" ry="14.6704363"></ellipse>
                        </g>
                        <rect id="Rectangle" fill="#FFFFFF" x="171.588304" y="179.080499" width="38.9743346" height="3.03526269"></rect>
                        <g id="EYE1" transform="translate(33.912733, 122.422262)">
                            <ellipse id="Oval" fill="#FFFFFF" cx="43.2766962" cy="43.2524933" rx="43.2766962" ry="43.2524933"></ellipse>
                            <ellipse id="Oval" fill="#000000" cx="58.2084218" cy="58.1758682" rx="14.6786455" ry="14.6704363"></ellipse>
                        </g>
                        <rect id="Rectangle" fill="#FFFFFF" x="73.8993877" y="179.080499" width="38.9743346" height="3.03526269"></rect>
                        <ellipse id="Oval" stroke="#FFFFFF" stroke-width="3.8" fill="#FFFFFF" cx="125.780807" cy="245.097462" rx="28.5980507" ry="28.582057"></ellipse>
                        <ellipse id="Oval" fill="#000000" cx="125.780807" cy="245.097462" rx="15.944046" ry="15.9351291"></ellipse>
                        <ellipse id="Oval" fill="#000000" cx="125.274647" cy="12.3939893" rx="12.4009247" ry="12.3939893"></ellipse>
                        <ellipse id="Oval" fill="#FFFFFF" cx="125.35446" cy="12.2645516" rx="1.51848057" ry="1.51763134"></ellipse>
                        <polygon id="Line-14" fill="#000000" fill-rule="nonzero" transform="translate(125.527727, 316.173197) scale(1, -1) translate(-125.527727, -316.173197) " points="13.6663251 317.690828 237.389129 317.690828 237.389129 314.655565 13.6663251 314.655565"></polygon>
                    </g>
                </g>
                <g id="hand" transform="translate(168.235202, 522.098802) rotate(36.000000) translate(-168.235202, -522.098802) translate(137.077250, 473.641099)">
                    <path d="M62.2577034,5.91930908 C41.1266013,8.63216402 24.8018493,26.5775634 24.8018493,48.3112645 C24.8018493,70.0449656 41.1266013,87.9903649 62.2577034,90.7032199 L62.2577034,96.1166518 C35.7009707,96.1166518 14.1724853,74.6002064 14.1724853,48.0583259 C14.1724853,21.5164454 35.7009707,0 62.2577034,0 L62.2577034,5.91930908 Z" id="Combined-Shape" fill="#FFFFFF"></path>
                    <path d="M47.5636277,86.2486823 C51.6188955,88.0135486 57.169406,89.7359097 62.2577034,90.5578655 L62.2577034,96.1166518 C58.2256174,96.1166518 68.4500218,98.8790828 47.5430353,93.6598679 L47.5636277,86.2486823 Z M47.7741519,10.4811836 L47.7971307,2.21112492 C52.3611691,0.774588796 57.2189282,-2.62332378e-11 62.2577034,-2.62332378e-11 L62.2577034,5.91930908 C57.7728811,6.49507992 53.5045607,7.75700006 49.5628609,9.59565969 C48.9588222,9.87742174 48.3624538,10.1727276 47.7741519,10.4811836 Z" id="Combined-Shape" fill="#000000"></path>
                    <ellipse id="Oval" fill="#FFFFFF" cx="12.1478446" cy="46.5406946" rx="12.1478446" ry="12.1410508"></ellipse>
                    <ellipse id="Oval" fill="#000000" cx="10.1008203" cy="46.2998853" rx="4.55544171" ry="4.55289403"></ellipse>
                </g>
            </g>
        </g>
    </g>
</svg>
