<?xml version="1.0" encoding="UTF-8"?>
<svg width="1200px" height="790px" viewBox="0 0 1200 790" version="1.1" xmlns="http://www.w3.org/2000/svg" xmlns:xlink="http://www.w3.org/1999/xlink">
    <title>ESPwebsite-integrations3b</title>
    <defs>
        <linearGradient x1="50%" y1="0%" x2="50%" y2="100%" id="marketplaceESLinearGradient1">
            <stop stop-color="#8400DB" offset="0%"></stop>
            <stop stop-color="#4D00B4" offset="100%"></stop>
        </linearGradient>
        <linearGradient x1="0%" y1="49.9999777%" x2="100.000024%" y2="49.9999777%" id="marketplaceESLinearGradient2">
            <stop stop-color="#A3A2A5" offset="0%"></stop>
            <stop stop-color="#9F9EA0" offset="27.05%"></stop>
            <stop stop-color="#929194" offset="56.07%"></stop>
            <stop stop-color="#7C7C80" offset="85.92%"></stop>
            <stop stop-color="#707073" offset="100%"></stop>
        </linearGradient>
        <linearGradient x1="-0.661193461%" y1="79.9148322%" x2="70.3915924%" y2="24.2689758%" id="marketplaceESLinearGradient3">
            <stop stop-color="#969598" offset="0%"></stop>
            <stop stop-color="#908F92" offset="33.96%"></stop>
            <stop stop-color="#7F7F82" offset="79.17%"></stop>
            <stop stop-color="#757578" offset="100%"></stop>
        </linearGradient>
        <linearGradient x1="6.06021085%" y1="-2.83492963%" x2="50.00952%" y2="85.0511445%" id="marketplaceESLinearGradient4">
            <stop stop-color="#9E9EA0" offset="0%"></stop>
            <stop stop-color="#9B9B9D" offset="27.59%"></stop>
            <stop stop-color="#919194" offset="49.4%"></stop>
            <stop stop-color="#808083" offset="69.23%"></stop>
            <stop stop-color="#69696D" offset="87.77%"></stop>
            <stop stop-color="#55565A" offset="100%"></stop>
        </linearGradient>
    </defs>
    <g id="ESPwebsite-integrations3b" stroke="none" stroke-width="1" fill="none" fill-rule="evenodd">
        <path d="M312.5,646 C450.84733,646 563,533.84733 563,395.5 C563,257.15267 450.84733,145 312.5,145 C174.15267,145 62,257.15267 62,395.5 C62,533.84733 174.15267,646 312.5,646 Z M312.5,640 C177.466379,640 68,530.533621 68,395.5 C68,260.466379 177.466379,151 312.5,151 C447.533621,151 557,260.466379 557,395.5 C557,530.533621 447.533621,640 312.5,640 Z" id="Oval" fill="#9013FE" fill-rule="nonzero"></path>
        <circle id="Oval" fill="url(#marketplaceESLinearGradient1)" cx="312.5" cy="395.5" r="244.5"></circle>
        <g id="Group-2" transform="translate(758.000000, 261.000000)">
            <circle id="Oval" fill="#FFFFFF" cx="135" cy="135" r="135"></circle>
            <g id="kleros-symbol" transform="translate(51.000000, 60.000000)" fill-rule="nonzero">
                <polygon id="Path" fill="#45464D" opacity="0.7" points="133.381411 3.77718897 49.0824928 0 0 61.5574073 34.3923467 143.824633 119.534475 149 168 79.7930126"></polygon>
                <g id="Group">
                    <polygon id="Path" fill="#656569" points="167.847575 79.7154168 119.890532 30.9128112 107.277449 124.531491"></polygon>
                    <polygon id="Path" fill="url(#marketplaceESLinearGradient2)" points="32.7506551 68.7388056 119.890532 30.9128112 107.277449 124.531491"></polygon>
                    <polygon id="Path" fill="url(#marketplaceESLinearGradient3)" points="119.890532 30.9128112 49.0898492 0.0698111888 32.7506551 68.7388056"></polygon>
                    <polygon id="Path" fill="url(#marketplaceESLinearGradient4)" points="32.7506551 68.7388056 34.4194413 143.629331 107.277449 124.531491"></polygon>
                    <polygon id="Path" fill="#757578" points="119.890532 30.9128112 133.275501 3.84003217 49.0898492 0.0698111888"></polygon>
                    <polygon id="Path" fill="#6C6D70" points="133.275501 3.84003217 167.847575 79.7154168 119.890532 30.9128112"></polygon>
                    <polygon id="Path" fill="#6C6D70" points="167.847575 79.7154168 119.447169 148.794734 107.277449 124.531491"></polygon>
                    <polygon id="Path" fill="#55565A" points="119.447169 148.794734 34.4194413 143.629331 107.277449 124.531491"></polygon>
                    <polygon id="Path" fill="#55565A" points="49.0898492 0.0698111888 0.0733053152 61.5134517 32.7506551 68.7388056"></polygon>
                    <polygon id="Path" fill="#656569" points="0.0733053152 61.5134517 34.4194413 143.629331 32.7506551 68.7388056"></polygon>
                    <polygon id="Path" fill="#151A22" opacity="0.7" points="110.972618 43.8064168 102.140262 110.92206 50.0835204 70.5143021"></polygon>
                    <polygon id="Path" fill="#151A22" opacity="0.7" points="103.923263 30.4235077 55.2628628 9.38866713 45.0412361 53.614993"></polygon>
                    <polygon id="Path" fill="#23262E" opacity="0.7" points="91.5896959 121.089695 38.7052064 83.1778434 39.9842077 134.550126"></polygon>
                    <polygon id="Path" fill="#23262E" opacity="0.7" points="158.961642 79.5478699 122.923461 42.8348951 113.411214 113.432971"></polygon>
                    <polygon id="Path" fill="#43444B" opacity="0.7" points="103.988885 129.346796 111.838368 144.42247 59.3874808 141.050694"></polygon>
                    <polygon id="Path" fill="#34363D" opacity="0.7" points="151.918517 96.2048196 112.876895 125.404027 120.634591 140.624533"></polygon>
                    <polygon id="Path" fill="#34363D" opacity="0.7" points="133.451392 14.4413301 154.093795 58.8747972 125.868756 30.0698671"></polygon>
                    <polygon id="Path" fill="#36383F" opacity="0.7" points="124.003728 6.96236364 115.323797 22.8964028 74.4391595 4.94284056"></polygon>
                    <polygon id="Path" fill="#3B3C43" opacity="0.7" points="42.1401731 14.1900098 30.6345612 63.136614 7.42335723 58.2006503"></polygon>
                    <polygon id="Path" fill="#45464D" opacity="0.7" points="29.2346996 71.7694448 30.2474759 124.369779 5.91177256 66.8122252"></polygon>
                </g>
            </g>
        </g>
        <path d="M893.5,585 C998.15796,585 1083,500.15796 1083,395.5 C1083,290.84204 998.15796,206 893.5,206 C788.84204,206 704,290.84204 704,395.5 C704,500.15796 788.84204,585 893.5,585 Z M893.5,583 C789.946609,583 706,499.053391 706,395.5 C706,291.946609 789.946609,208 893.5,208 C997.053391,208 1081,291.946609 1081,395.5 C1081,499.053391 997.053391,583 893.5,583 Z" id="Oval" fill="#9013FE" fill-rule="nonzero"></path>
        <path d="M893.5,632 C1024.11534,632 1130,526.115343 1130,395.5 C1130,264.884657 1024.11534,159 893.5,159 C762.884657,159 657,264.884657 657,395.5 C657,526.115343 762.884657,632 893.5,632 Z M893.5,630 C763.989226,630 659,525.010774 659,395.5 C659,265.989226 763.989226,161 893.5,161 C1023.01077,161 1128,265.989226 1128,395.5 C1128,525.010774 1023.01077,630 893.5,630 Z" id="Oval" fill="#9013FE" fill-rule="nonzero"></path>
        <path d="M172.248,377.728 L172.248,412 L179.304,412 L179.304,387.952 L179.4,387.952 L187.8,412 L193.608,412 L202.008,387.712 L202.104,387.712 L202.104,412 L209.16,412 L209.16,377.728 L198.552,377.728 L190.968,401.296 L190.872,401.296 L182.856,377.728 L172.248,377.728 Z M214.776,394.816 C214.872,393.215992 215.271996,391.888005 215.976,390.832 C216.680004,389.775995 217.575995,388.928003 218.664,388.288 C219.752005,387.647997 220.975993,387.192001 222.336,386.92 C223.696007,386.647999 225.063993,386.512 226.44,386.512 C227.688006,386.512 228.951994,386.599999 230.232,386.776 C231.512006,386.952001 232.679995,387.295997 233.736,387.808 C234.792005,388.320003 235.655997,389.031995 236.328,389.944 C237.000003,390.856005 237.336,392.063992 237.336,393.568 L237.336,406.48 C237.336,407.600006 237.399999,408.671995 237.528,409.696 C237.656001,410.720005 237.879998,411.487997 238.2,412 L231.288,412 C231.159999,411.615998 231.056,411.224002 230.976,410.824 C230.896,410.423998 230.84,410.016002 230.808,409.6 C229.719995,410.720006 228.440007,411.503998 226.968,411.952 C225.495993,412.400002 223.992008,412.624 222.456,412.624 C221.271994,412.624 220.168005,412.480001 219.144,412.192 C218.119995,411.903999 217.224004,411.456003 216.456,410.848 C215.687996,410.239997 215.088002,409.472005 214.656,408.544 C214.223998,407.615995 214.008,406.512 214.008,405.232 C214.008,403.823993 214.255998,402.664005 214.752,401.752 C215.248002,400.839995 215.887996,400.112003 216.672,399.568 C217.456004,399.023997 218.351995,398.616001 219.36,398.344 C220.368005,398.071999 221.383995,397.856001 222.408,397.696 C223.176004,397.575999 223.934999,397.474 224.684999,397.39 L225.432,397.312 C226.424005,397.216 227.303996,397.072001 228.072,396.88 C228.840004,396.687999 229.447998,396.408002 229.896,396.04 C230.303275,395.705453 230.512199,395.232069 230.522777,394.619835 L230.52,394.432 C230.52,393.695996 230.400001,393.112002 230.16,392.68 C229.919999,392.247998 229.600002,391.912001 229.2,391.672 C228.799998,391.431999 228.336003,391.272 227.808,391.192 C227.279997,391.112 226.712003,391.072 226.104,391.072 C224.759993,391.072 223.704004,391.359997 222.936,391.936 C222.167996,392.512 221.720001,393.471993 221.592,394.816 L214.776,394.816 Z M230.52,399.856 C230.231999,400.112001 229.872002,400.311999 229.44,400.456 C229.007998,400.600001 228.544002,400.72 228.048,400.816 C227.717332,400.88 227.376,400.936889 227.024001,400.986667 L226.488,401.056 C225.943997,401.12 225.400003,401.2 224.856,401.296 C224.343997,401.392 223.840002,401.519999 223.344,401.68 C222.847998,401.840001 222.416002,402.055999 222.048,402.328 C221.679998,402.600001 221.384001,402.943998 221.16,403.36 C220.935999,403.776002 220.824,404.303997 220.824,404.944 C220.824,405.552003 220.935999,406.063998 221.16,406.48 C221.384001,406.896002 221.687998,407.223999 222.072,407.464 C222.456002,407.704001 222.903997,407.872 223.416,407.968 C223.928003,408.064 224.455997,408.112 225,408.112 C226.344007,408.112 227.383996,407.888002 228.12,407.44 C228.856004,406.991998 229.399998,406.456003 229.752,405.832 C230.104002,405.207997 230.32,404.576003 230.4,403.936 C230.48,403.295997 230.52,402.784002 230.52,402.4 L230.52,399.856 Z M242.616,387.184 L242.616,412 L249.432,412 L249.432,400.816 C249.432,399.695994 249.543999,398.656005 249.768,397.696 C249.992001,396.735995 250.367997,395.896004 250.896,395.176 C251.424003,394.455996 252.119996,393.888002 252.984,393.472 C253.848004,393.055998 254.903994,392.848 256.152,392.848 C256.568002,392.848 256.999998,392.872 257.448,392.92 C257.896002,392.968 258.279998,393.024 258.6,393.088 L258.6,386.752 C258.055997,386.591999 257.560002,386.512 257.112,386.512 C256.247996,386.512 255.416004,386.639999 254.616,386.896 C253.815996,387.152001 253.064004,387.512 252.36,387.976 C251.655996,388.440002 251.032003,388.999997 250.488,389.656 C249.943997,390.312003 249.512002,391.023996 249.192,391.792 L249.096,391.792 L249.096,387.184 L242.616,387.184 Z M261.912,377.728 L261.912,412 L268.728,412 L268.728,403.456 L271.368,400.912 L278.184,412 L286.44,412 L276.024,396.304 L285.384,387.184 L277.32,387.184 L268.728,396.112 L268.728,377.728 L261.912,377.728 Z M305.544,396.928 L294.456,396.928 C294.488,396.447998 294.591999,395.904003 294.768,395.296 C294.944001,394.687997 295.247998,394.112003 295.68,393.568 C296.112002,393.023997 296.687996,392.568002 297.408,392.2 C298.128004,391.831998 299.031995,391.648 300.12,391.648 C301.784008,391.648 303.023996,392.095996 303.84,392.992 C304.656004,393.888004 305.223998,395.199991 305.544,396.928 Z M294.456,401.248 L312.36,401.248 C312.488001,399.32799 312.328002,397.488009 311.88,395.728 C311.431998,393.967991 310.704005,392.400007 309.696,391.024 C308.687995,389.647993 307.400008,388.552004 305.832,387.736 C304.263992,386.919996 302.424011,386.512 300.312,386.512 C298.423991,386.512 296.704008,386.847997 295.152,387.52 C293.599992,388.192003 292.264006,389.111994 291.144,390.28 C290.023994,391.448006 289.160003,392.831992 288.552,394.432 C287.943997,396.032008 287.64,397.759991 287.64,399.616 C287.64,401.53601 287.935997,403.295992 288.528,404.896 C289.120003,406.496008 289.959995,407.871994 291.048,409.024 C292.136005,410.176006 293.463992,411.063997 295.032,411.688 C296.600008,412.312003 298.35999,412.624 300.312,412.624 C303.128014,412.624 305.52799,411.984006 307.512,410.704 C309.49601,409.423994 310.967995,407.296015 311.928,404.32 L305.928,404.32 C305.703999,405.088004 305.096005,405.815997 304.104,406.504 C303.111995,407.192003 301.928007,407.536 300.552,407.536 C298.63199,407.536 297.160005,407.040005 296.136,406.048 C295.111995,405.055995 294.552,403.456011 294.456,401.248 Z M325.032,387.184 L325.032,379.744 L318.216,379.744 L318.216,387.184 L314.088,387.184 L314.088,391.744 L318.216,391.744 L318.216,406.384 C318.216,407.632006 318.423998,408.639996 318.84,409.408 C319.256002,410.176004 319.823996,410.767998 320.544,411.184 C321.264004,411.600002 322.095995,411.879999 323.04,412.024 C323.984005,412.168001 324.983995,412.24 326.04,412.24 C326.712003,412.24 327.399996,412.224 328.104,412.192 C328.808004,412.16 329.447997,412.096 330.024,412 L330.024,406.72 C329.703998,406.784 329.368002,406.832 329.016,406.864 C328.663998,406.896 328.296002,406.912 327.912,406.912 C326.759994,406.912 325.992002,406.720002 325.608,406.336 C325.223998,405.951998 325.032,405.184006 325.032,404.032 L325.032,391.744 L330.024,391.744 L330.024,387.184 L325.032,387.184 Z M345.816,407.536 C344.727995,407.536 343.800004,407.312002 343.032,406.864 C342.263996,406.415998 341.648002,405.832004 341.184,405.112 C340.719998,404.391996 340.384001,403.552005 340.176,402.592 C339.967999,401.631995 339.864,400.656005 339.864,399.664 C339.864,398.639995 339.959999,397.648 340.152,396.688 C340.344001,395.727995 340.671998,394.880004 341.136,394.144 C341.600002,393.407996 342.207996,392.808002 342.96,392.344 C343.712004,391.879998 344.647994,391.648 345.768,391.648 C346.856005,391.648 347.775996,391.879998 348.528,392.344 C349.280004,392.808002 349.895998,393.415996 350.376,394.168 C350.856002,394.920004 351.199999,395.775995 351.408,396.736 C351.616001,397.696005 351.72,398.671995 351.72,399.664 C351.72,400.656005 351.624001,401.631995 351.432,402.592 C351.239999,403.552005 350.912002,404.391996 350.448,405.112 C349.983998,405.832004 349.376004,406.415998 348.624,406.864 C347.871996,407.312002 346.936006,407.536 345.816,407.536 Z M333.288,387.184 L333.288,420.688 L340.104,420.688 L340.104,408.928 L340.2,408.928 C341.032004,410.144006 342.095994,411.063997 343.392,411.688 C344.688006,412.312003 346.103992,412.624 347.64,412.624 C349.464009,412.624 351.055993,412.272004 352.416,411.568 C353.776007,410.863996 354.911995,409.920006 355.824,408.736 C356.736005,407.551994 357.415998,406.192008 357.864,404.656 C358.312002,403.119992 358.536,401.520008 358.536,399.856 C358.536,398.095991 358.312002,396.408008 357.864,394.792 C357.415998,393.175992 356.728005,391.760006 355.8,390.544 C354.871995,389.327994 353.704007,388.352004 352.296,387.616 C350.887993,386.879996 349.20801,386.512 347.256,386.512 C345.719992,386.512 344.312006,386.815997 343.032,387.424 C341.751994,388.032003 340.696004,389.007993 339.864,390.352 L339.768,390.352 L339.768,387.184 L333.288,387.184 Z M362.808,377.728 L362.808,412 L369.624,412 L369.624,377.728 L362.808,377.728 Z M374.712,394.816 C374.808,393.215992 375.207996,391.888005 375.912,390.832 C376.616004,389.775995 377.511995,388.928003 378.6,388.288 C379.688005,387.647997 380.911993,387.192001 382.272,386.92 C383.632007,386.647999 384.999993,386.512 386.376,386.512 C387.624006,386.512 388.887994,386.599999 390.168,386.776 C391.448006,386.952001 392.615995,387.295997 393.672,387.808 C394.728005,388.320003 395.591997,389.031995 396.264,389.944 C396.936003,390.856005 397.272,392.063992 397.272,393.568 L397.272,406.48 C397.272,407.600006 397.335999,408.671995 397.464,409.696 C397.592001,410.720005 397.815998,411.487997 398.136,412 L391.224,412 C391.095999,411.615998 390.992,411.224002 390.912,410.824 C390.832,410.423998 390.776,410.016002 390.744,409.6 C389.655995,410.720006 388.376007,411.503998 386.904,411.952 C385.431993,412.400002 383.928008,412.624 382.392,412.624 C381.207994,412.624 380.104005,412.480001 379.08,412.192 C378.055995,411.903999 377.160004,411.456003 376.392,410.848 C375.623996,410.239997 375.024002,409.472005 374.592,408.544 C374.159998,407.615995 373.944,406.512 373.944,405.232 C373.944,403.823993 374.191998,402.664005 374.688,401.752 C375.184002,400.839995 375.823996,400.112003 376.608,399.568 C377.392004,399.023997 378.287995,398.616001 379.296,398.344 C380.304005,398.071999 381.319995,397.856001 382.344,397.696 C383.112004,397.575999 383.870999,397.474 384.620999,397.39 L385.368,397.312 C386.360005,397.216 387.239996,397.072001 388.008,396.88 C388.776004,396.687999 389.383998,396.408002 389.832,396.04 C390.239275,395.705453 390.448199,395.232069 390.458777,394.619835 L390.456,394.432 C390.456,393.695996 390.336001,393.112002 390.096,392.68 C389.855999,392.247998 389.536002,391.912001 389.136,391.672 C388.735998,391.431999 388.272003,391.272 387.744,391.192 C387.215997,391.112 386.648003,391.072 386.04,391.072 C384.695993,391.072 383.640004,391.359997 382.872,391.936 C382.103996,392.512 381.656001,393.471993 381.528,394.816 L374.712,394.816 Z M390.456,399.856 C390.167999,400.112001 389.808002,400.311999 389.376,400.456 C388.943998,400.600001 388.480002,400.72 387.984,400.816 C387.653332,400.88 387.312,400.936889 386.960001,400.986667 L386.424,401.056 C385.879997,401.12 385.336003,401.2 384.792,401.296 C384.279997,401.392 383.776002,401.519999 383.28,401.68 C382.783998,401.840001 382.352002,402.055999 381.984,402.328 C381.615998,402.600001 381.320001,402.943998 381.096,403.36 C380.871999,403.776002 380.76,404.303997 380.76,404.944 C380.76,405.552003 380.871999,406.063998 381.096,406.48 C381.320001,406.896002 381.623998,407.223999 382.008,407.464 C382.392002,407.704001 382.839997,407.872 383.352,407.968 C383.864003,408.064 384.391997,408.112 384.936,408.112 C386.280007,408.112 387.319996,407.888002 388.056,407.44 C388.792004,406.991998 389.335998,406.456003 389.688,405.832 C390.040002,405.207997 390.256,404.576003 390.336,403.936 C390.416,403.295997 390.456,402.784002 390.456,402.4 L390.456,399.856 Z M414.456,386.512 C415.928007,386.512 417.343993,386.703998 418.704,387.088 C420.064007,387.472002 421.279995,388.055996 422.352,388.84 C423.424005,389.624004 424.295997,390.599994 424.968,391.768 C425.584003,392.838672 425.958,394.090828 426.09,395.524498 L426.12,395.92 L419.448,395.92 C418.999998,393.071986 417.320015,391.648 414.408,391.648 C413.319995,391.648 412.408004,391.895998 411.672,392.392 C410.935996,392.888002 410.336002,393.527996 409.872,394.312 C409.407998,395.096004 409.080001,395.959995 408.888,396.904 C408.695999,397.848005 408.6,398.783995 408.6,399.712 C408.6,400.608004 408.695999,401.519995 408.888,402.448 C409.080001,403.376005 409.391998,404.215996 409.824,404.968 C410.256002,405.720004 410.839996,406.335998 411.576,406.816 C412.312004,407.296002 413.207995,407.536 414.264,407.536 C415.896008,407.536 417.151996,407.080005 418.032,406.168 C418.849147,405.321139 419.383469,404.205271 419.634979,402.820369 L419.688,402.496 L426.264,402.496 C425.815998,405.792016 424.536011,408.303991 422.424,410.032 C420.311989,411.760009 417.608016,412.624 414.312,412.624 C412.455991,412.624 410.752008,412.312003 409.2,411.688 C407.647992,411.063997 406.328005,410.192006 405.24,409.072 C404.151995,407.951994 403.304003,406.616008 402.696,405.064 C402.087997,403.512 401.784,401.808009 401.784,399.952 C401.784,398.03199 402.063997,396.248008 402.624,394.6 C403.184003,392.951992 404.007995,391.528006 405.096,390.328 C406.184005,389.127994 407.511992,388.192003 409.08,387.52 C410.648008,386.847997 412.43999,386.512 414.456,386.512 Z M441.576,386.512 C443.688011,386.512 445.527992,386.919996 447.096,387.736 C448.664008,388.552004 449.951995,389.647993 450.96,391.024 C451.968005,392.400007 452.695998,393.967991 453.144,395.728 C453.592002,397.488009 453.752001,399.32799 453.624,401.248 L435.72,401.248 C435.816,403.456011 436.375995,405.055995 437.4,406.048 C438.424005,407.040005 439.89599,407.536 441.816,407.536 C443.192007,407.536 444.375995,407.192003 445.368,406.504 C446.360005,405.815997 446.967999,405.088004 447.192,404.32 L453.192,404.32 C452.231995,407.296015 450.76001,409.423994 448.776,410.704 C446.79199,411.984006 444.392014,412.624 441.576,412.624 C439.62399,412.624 437.864008,412.312003 436.296,411.688 C434.727992,411.063997 433.400005,410.176006 432.312,409.024 C431.223995,407.871994 430.384003,406.496008 429.792,404.896 C429.199997,403.295992 428.904,401.53601 428.904,399.616 C428.904,397.759991 429.207997,396.032008 429.816,394.432 C430.424003,392.831992 431.287994,391.448006 432.408,390.28 C433.528006,389.111994 434.863992,388.192003 436.416,387.52 C437.968008,386.847997 439.687991,386.512 441.576,386.512 Z M441.384,391.648 C440.295995,391.648 439.392004,391.831998 438.672,392.2 C437.951996,392.568002 437.376002,393.023997 436.944,393.568 C436.511998,394.112003 436.208001,394.687997 436.032,395.296 C435.855999,395.904003 435.752,396.447998 435.72,396.928 L435.72,396.928 L446.808,396.928 C446.487998,395.199991 445.920004,393.888004 445.104,392.992 C444.287996,392.095996 443.048008,391.648 441.384,391.648 Z" id="Marketplace" fill="#FFFFFF" fill-rule="nonzero"></path>
        <g id="cart-plus-solid" transform="translate(257.000000, 252.000000)" fill="#9013FE" fill-rule="nonzero">
            <path d="M78.8620516,49.9999894 L33.0581335,49.9999894 L34.08079,54.9999884 L76.0211134,54.9999884 C78.4275202,54.9999884 80.2111144,57.2345191 79.6778331,59.5810812 L78.8158016,63.3742053 C81.7362711,64.7918613 83.7500216,67.7856107 83.7500216,71.2499849 C83.7500216,76.1252964 79.7626768,80.0693581 74.8712693,79.9990456 C70.2114244,79.9320143 66.3790796,76.1504526 66.2532983,71.4917036 C66.1845483,68.9468604 67.2040798,66.6402984 68.8787678,64.99983 L36.1212593,64.99983 C37.742666,66.5882672 38.75001,68.800923 38.75001,71.2499849 C38.75001,76.2207651 34.6050089,80.2235768 29.5828201,79.9902956 C25.123444,79.7832644 21.4967243,76.1801401 21.2623492,71.7220161 C21.0814117,68.2792043 22.8929747,65.2446737 25.6453191,63.6617053 L14.6692225,10 L3.75000097,10 C1.67890668,10 0,8.32109199 0,6.24999868 L0,3.74999921 C0,1.67890589 1.67890668,0 3.75000097,0 L19.7701614,0 C21.5515681,0 23.0870372,1.25328098 23.4440685,2.99843687 L24.8762564,10 L86.2484598,10 C88.6548666,10 90.4384608,12.2345287 89.9051794,14.5810907 L82.5187713,47.0810838 C82.1308024,48.7884272 80.6129895,49.9999894 78.8620516,49.9999894 Z" id="Shape"></path>
        </g>
        <circle id="Oval" fill="#9013FE" cx="1017.5" cy="196.5" r="10.5"></circle>
        <circle id="Oval" fill="#9013FE" cx="705.5" cy="384.5" r="10.5"></circle>
        <circle id="Oval" fill="#9013FE" cx="996.5" cy="554.5" r="10.5"></circle>
        <polygon id="Path-17" fill="#FFFFFF" fill-rule="nonzero" points="895.461373 48 896.144 83.028 906.142645 82.8330646 894.612925 107.0625 882.147209 83.3010622 892.145 83.106 891.538627 52 314 52 314 107.0625 310 107.0625 310 48"></polygon>
        <polygon id="Path-17" fill="#FFFFFF" fill-rule="nonzero" transform="translate(608.071323, 702.531250) scale(-1, -1) translate(-608.071323, -702.531250) " points="895.461373 673 896.144 708.028 906.142645 707.833065 894.612925 732.0625 882.147209 708.301062 892.145 708.106 891.538627 677 314 677 314 732.0625 310 732.0625 310 673"></polygon>
        <path d="M522.976,118.664 L522.976,97.064 L528.352,97.064 C530.208009,97.064 531.767994,97.3279974 533.032,97.856 C534.296006,98.3840026 535.311996,99.143995 536.08,100.136 C536.848004,101.128005 537.399998,102.319993 537.736,103.712 C538.072002,105.104007 538.24,106.663991 538.24,108.392 C538.24,110.280009 538.000002,111.879993 537.52,113.192 C537.039998,114.504007 536.400004,115.567996 535.6,116.384 C534.799996,117.200004 533.888005,117.783998 532.864,118.136 C531.839995,118.488002 530.784005,118.664 529.696,118.664 L522.976,118.664 Z M515.44,90.728 L515.44,125 L530.224,125 C532.848013,125 535.12799,124.560004 537.064,123.68 C539.00001,122.799996 540.615994,121.592008 541.912,120.056 C543.208006,118.519992 544.175997,116.696011 544.816,114.584 C545.456003,112.471989 545.776,110.168012 545.776,107.672 C545.776,104.823986 545.384004,102.344011 544.6,100.232 C543.815996,98.1199894 542.728007,96.360007 541.336,94.952 C539.943993,93.543993 538.29601,92.4880035 536.392,91.784 C534.48799,91.0799965 532.432011,90.728 530.224,90.728 L515.44,90.728 Z M557.296,96.344 L557.296,90.728 L550.48,90.728 L550.48,96.344 L557.296,96.344 Z M550.48,100.184 L550.48,125 L557.296,125 L557.296,100.184 L550.48,100.184 Z M567.952,116.936 L561.472,116.936 C561.536,118.600008 561.911997,119.983994 562.6,121.088 C563.288003,122.192006 564.167995,123.079997 565.24,123.752 C566.312005,124.424003 567.535993,124.903999 568.912,125.192 C570.288007,125.480001 571.695993,125.624 573.136,125.624 C574.544007,125.624 575.927993,125.488001 577.288,125.216 C578.648007,124.943999 579.855995,124.472003 580.912,123.8 C581.968005,123.127997 582.823997,122.240006 583.48,121.136 C584.136003,120.031994 584.464,118.664008 584.464,117.032 C584.464,115.879994 584.240002,114.912004 583.792,114.128 C583.343998,113.343996 582.752004,112.688003 582.016,112.16 C581.279996,111.631997 580.440005,111.208002 579.496,110.888 C578.551995,110.567998 577.584005,110.296001 576.592,110.072 C575.631995,109.847999 574.688005,109.640001 573.76,109.448 C572.831995,109.255999 572.008004,109.040001 571.288,108.8 C570.567996,108.559999 569.984002,108.248002 569.536,107.864 C569.087998,107.479998 568.864,106.984003 568.864,106.376 C568.864,105.863997 568.991999,105.456002 569.248,105.152 C569.504001,104.847998 569.815998,104.616001 570.184,104.456 C570.552002,104.295999 570.959998,104.192 571.408,104.144 C571.856002,104.096 572.271998,104.072 572.656,104.072 C573.872006,104.072 574.927996,104.303998 575.824,104.768 C576.720004,105.232002 577.216,106.119993 577.312,107.432 L583.792,107.432 C583.663999,105.895992 583.272003,104.624005 582.616,103.616 C581.959997,102.607995 581.136005,101.800003 580.144,101.192 C579.151995,100.583997 578.024006,100.152001 576.76,99.896 C575.495994,99.6399987 574.192007,99.512 572.848,99.512 C571.503993,99.512 570.192006,99.6319988 568.912,99.872 C567.631994,100.112001 566.480005,100.527997 565.456,101.12 C564.431995,101.712003 563.608003,102.519995 562.984,103.544 C562.359997,104.568005 562.048,105.879992 562.048,107.48 C562.048,108.568005 562.271998,109.487996 562.72,110.24 C563.168002,110.992004 563.759996,111.615998 564.496,112.112 C565.232004,112.608002 566.071995,113.007998 567.016,113.312 C567.960005,113.616002 568.927995,113.879999 569.92,114.104 C572.352012,114.616003 574.247993,115.127997 575.608,115.64 C576.968007,116.152003 577.648,116.919995 577.648,117.944 C577.648,118.552003 577.504001,119.055998 577.216,119.456 C576.927999,119.856002 576.568002,120.175999 576.136,120.416 C575.703998,120.656001 575.224003,120.831999 574.696,120.944 C574.167997,121.056001 573.664002,121.112 573.184,121.112 C572.511997,121.112 571.864003,121.032001 571.24,120.872 C570.615997,120.711999 570.064002,120.464002 569.584,120.128 C569.103998,119.791998 568.712002,119.360003 568.408,118.832 C568.103998,118.303997 567.952,117.672004 567.952,116.936 Z M600.976,120.536 C599.887995,120.536 598.960004,120.312002 598.192,119.864 C597.423996,119.415998 596.808002,118.832004 596.344,118.112 C595.879998,117.391996 595.544001,116.552005 595.336,115.592 C595.127999,114.631995 595.024,113.656005 595.024,112.664 C595.024,111.639995 595.119999,110.648 595.312,109.688 C595.504001,108.727995 595.831998,107.880004 596.296,107.144 C596.760002,106.407996 597.367996,105.808002 598.12,105.344 C598.872004,104.879998 599.807994,104.648 600.928,104.648 C602.016005,104.648 602.935996,104.879998 603.688,105.344 C604.440004,105.808002 605.055998,106.415996 605.536,107.168 C606.016002,107.920004 606.359999,108.775995 606.568,109.736 C606.776001,110.696005 606.88,111.671995 606.88,112.664 C606.88,113.656005 606.784001,114.631995 606.592,115.592 C606.399999,116.552005 606.072002,117.391996 605.608,118.112 C605.143998,118.832004 604.536004,119.415998 603.784,119.864 C603.031996,120.312002 602.096006,120.536 600.976,120.536 Z M588.448,100.184 L588.448,133.688 L595.264,133.688 L595.264,121.928 L595.36,121.928 C596.192004,123.144006 597.255994,124.063997 598.552,124.688 C599.848006,125.312003 601.263992,125.624 602.8,125.624 C604.624009,125.624 606.215993,125.272004 607.576,124.568 C608.936007,123.863996 610.071995,122.920006 610.984,121.736 C611.896005,120.551994 612.575998,119.192008 613.024,117.656 C613.472002,116.119992 613.696,114.520008 613.696,112.856 C613.696,111.095991 613.472002,109.408008 613.024,107.792 C612.575998,106.175992 611.888005,104.760006 610.96,103.544 C610.031995,102.327994 608.864007,101.352004 607.456,100.616 C606.047993,99.8799963 604.36801,99.512 602.416,99.512 C600.879992,99.512 599.472006,99.815997 598.192,100.424 C596.911994,101.032003 595.856004,102.007993 595.024,103.352 L594.928,103.352 L594.928,100.184 L588.448,100.184 Z M641.056,125 L641.056,100.184 L634.24,100.184 L634.24,113.192 C634.24,115.720013 633.824004,117.535994 632.992,118.64 C632.159996,119.744006 630.816009,120.296 628.96,120.296 C627.327992,120.296 626.192003,119.792005 625.552,118.784 C624.911997,117.775995 624.592,116.24801 624.592,114.2 L624.592,100.184 L617.776,100.184 L617.776,115.448 C617.776,116.984008 617.911999,118.383994 618.184,119.648 C618.456001,120.912006 618.927997,121.983996 619.6,122.864 C620.272003,123.744004 621.191994,124.423998 622.36,124.904 C623.528006,125.384002 625.023991,125.624 626.848,125.624 C628.288007,125.624 629.695993,125.304003 631.072,124.664 C632.448007,124.023997 633.567996,122.984007 634.432,121.544 L634.576,121.544 L634.576,125 L641.056,125 Z M654.88,100.184 L654.88,92.744 L648.064,92.744 L648.064,100.184 L643.936,100.184 L643.936,104.744 L648.064,104.744 L648.064,119.384 C648.064,120.632006 648.271998,121.639996 648.688,122.408 C649.104002,123.176004 649.671996,123.767998 650.392,124.184 C651.112004,124.600002 651.943995,124.879999 652.888,125.024 C653.832005,125.168001 654.831995,125.24 655.888,125.24 C656.560003,125.24 657.247996,125.224 657.952,125.192 C658.656004,125.16 659.295997,125.096 659.872,125 L659.872,119.72 C659.551998,119.784 659.216002,119.832 658.864,119.864 C658.511998,119.896 658.144002,119.912 657.76,119.912 C656.607994,119.912 655.840002,119.720002 655.456,119.336 C655.071998,118.951998 654.88,118.184006 654.88,117.032 L654.88,104.744 L659.872,104.744 L659.872,100.184 L654.88,100.184 Z M662.848,107.816 C662.944,106.215992 663.343996,104.888005 664.048,103.832 C664.752004,102.775995 665.647995,101.928003 666.736,101.288 C667.824005,100.647997 669.047993,100.192001 670.408,99.92 C671.768007,99.6479986 673.135993,99.512 674.512,99.512 C675.760006,99.512 677.023994,99.5999991 678.304,99.776 C679.584006,99.9520009 680.751995,100.295997 681.808,100.808 C682.864005,101.320003 683.727997,102.031995 684.4,102.944 C685.072003,103.856005 685.408,105.063992 685.408,106.568 L685.408,119.48 C685.408,120.600006 685.471999,121.671995 685.6,122.696 C685.728001,123.720005 685.951998,124.487997 686.272,125 L679.36,125 C679.231999,124.615998 679.128,124.224002 679.048,123.824 C678.968,123.423998 678.912,123.016002 678.88,122.6 C677.791995,123.720006 676.512007,124.503998 675.04,124.952 C673.567993,125.400002 672.064008,125.624 670.528,125.624 C669.343994,125.624 668.240005,125.480001 667.216,125.192 C666.191995,124.903999 665.296004,124.456003 664.528,123.848 C663.759996,123.239997 663.160002,122.472005 662.728,121.544 C662.295998,120.615995 662.08,119.512 662.08,118.232 C662.08,116.823993 662.327998,115.664005 662.824,114.752 C663.320002,113.839995 663.959996,113.112003 664.744,112.568 C665.528004,112.023997 666.423995,111.616001 667.432,111.344 C668.440005,111.071999 669.455995,110.856001 670.48,110.696 C671.248004,110.575999 672.006999,110.474 672.756999,110.39 L673.504,110.312 C674.496005,110.216 675.375996,110.072001 676.144,109.88 C676.912004,109.687999 677.519998,109.408002 677.968,109.04 C678.375275,108.705453 678.584199,108.232069 678.594777,107.619835 L678.592,107.432 C678.592,106.695996 678.472001,106.112002 678.232,105.68 C677.991999,105.247998 677.672002,104.912001 677.272,104.672 C676.871998,104.431999 676.408003,104.272 675.88,104.192 C675.351997,104.112 674.784003,104.072 674.176,104.072 C672.831993,104.072 671.776004,104.359997 671.008,104.936 C670.239996,105.512 669.792001,106.471993 669.664,107.816 L662.848,107.816 Z M678.592,112.856 C678.303999,113.112001 677.944002,113.311999 677.512,113.456 C677.079998,113.600001 676.616002,113.72 676.12,113.816 C675.789332,113.88 675.448,113.936889 675.096001,113.986667 L674.56,114.056 C674.015997,114.12 673.472003,114.2 672.928,114.296 C672.415997,114.392 671.912002,114.519999 671.416,114.68 C670.919998,114.840001 670.488002,115.055999 670.12,115.328 C669.751998,115.600001 669.456001,115.943998 669.232,116.36 C669.007999,116.776002 668.896,117.303997 668.896,117.944 C668.896,118.552003 669.007999,119.063998 669.232,119.48 C669.456001,119.896002 669.759998,120.223999 670.144,120.464 C670.528002,120.704001 670.975997,120.872 671.488,120.968 C672.000003,121.064 672.527997,121.112 673.072,121.112 C674.416007,121.112 675.455996,120.888002 676.192,120.44 C676.928004,119.991998 677.471998,119.456003 677.824,118.832 C678.176002,118.207997 678.392,117.576003 678.472,116.936 L678.530776,116.418774 C678.571592,116.013877 678.592,115.674287 678.592,115.4 L678.592,112.856 Z M695.968,116.936 C695.968,117.672004 696.119998,118.303997 696.424,118.832 C696.728002,119.360003 697.119998,119.791998 697.6,120.128 C698.080002,120.464002 698.631997,120.711999 699.256,120.872 C699.880003,121.032001 700.527997,121.112 701.2,121.112 C701.680002,121.112 702.183997,121.056001 702.712,120.944 C703.240003,120.831999 703.719998,120.656001 704.152,120.416 C704.584002,120.175999 704.943999,119.856002 705.232,119.456 C705.520001,119.055998 705.664,118.552003 705.664,117.944 C705.664,116.919995 704.984007,116.152003 703.624,115.64 C702.263993,115.127997 700.368012,114.616003 697.936,114.104 C696.943995,113.879999 695.976005,113.616002 695.032,113.312 C694.087995,113.007998 693.248004,112.608002 692.512,112.112 C691.775996,111.615998 691.184002,110.992004 690.736,110.24 C690.287998,109.487996 690.064,108.568005 690.064,107.48 C690.064,105.879992 690.375997,104.568005 691,103.544 C691.624003,102.519995 692.447995,101.712003 693.472,101.12 C694.496005,100.527997 695.647994,100.112001 696.928,99.872 C698.208006,99.6319988 699.519993,99.512 700.864,99.512 C702.208007,99.512 703.511994,99.6399987 704.776,99.896 C706.040006,100.152001 707.167995,100.583997 708.16,101.192 C709.152005,101.800003 709.975997,102.607995 710.632,103.616 C711.288003,104.624005 711.679999,105.895992 711.808,107.432 L705.328,107.432 C705.232,106.119993 704.736004,105.232002 703.84,104.768 C702.943996,104.303998 701.888006,104.072 700.672,104.072 C700.287998,104.072 699.872002,104.096 699.424,104.144 C698.975998,104.192 698.568002,104.295999 698.2,104.456 C697.831998,104.616001 697.520001,104.847998 697.264,105.152 C697.007999,105.456002 696.88,105.863997 696.88,106.376 C696.88,106.984003 697.103998,107.479998 697.552,107.864 C698.000002,108.248002 698.583996,108.559999 699.304,108.8 C700.024004,109.040001 700.847995,109.255999 701.776,109.448 C702.704005,109.640001 703.647995,109.847999 704.608,110.072 C705.600005,110.296001 706.567995,110.567998 707.512,110.888 C708.456005,111.208002 709.295996,111.631997 710.032,112.16 C710.768004,112.688003 711.359998,113.343996 711.808,114.128 C712.256002,114.912004 712.48,115.879994 712.48,117.032 C712.48,118.664008 712.152003,120.031994 711.496,121.136 C710.839997,122.240006 709.984005,123.127997 708.928,123.8 C707.871995,124.472003 706.664007,124.943999 705.304,125.216 C703.943993,125.488001 702.560007,125.624 701.152,125.624 C699.711993,125.624 698.304007,125.480001 696.928,125.192 C695.551993,124.903999 694.328005,124.424003 693.256,123.752 C692.183995,123.079997 691.304003,122.192006 690.616,121.088 C689.927997,119.983994 689.552,118.600008 689.488,116.936 L695.968,116.936 Z" id="Disputas" fill="#FFFFFF" fill-rule="nonzero"></path>
        <path d="M497.68,666.664 L497.68,645.064 L503.056,645.064 C504.912009,645.064 506.471994,645.327997 507.736,645.856 C509.000006,646.384003 510.015996,647.143995 510.784,648.136 C511.552004,649.128005 512.103998,650.319993 512.44,651.712 C512.776002,653.104007 512.944,654.663991 512.944,656.392 C512.944,658.280009 512.704002,659.879993 512.224,661.192 C511.743998,662.504007 511.104004,663.567996 510.304,664.384 C509.503996,665.200004 508.592005,665.783998 507.568,666.136 C506.543995,666.488002 505.488005,666.664 504.4,666.664 L497.68,666.664 Z M490.144,638.728 L490.144,673 L504.928,673 C507.552013,673 509.83199,672.560004 511.768,671.68 C513.70401,670.799996 515.319994,669.592008 516.616,668.056 C517.912006,666.519992 518.879997,664.696011 519.52,662.584 C520.160003,660.471989 520.48,658.168012 520.48,655.672 C520.48,652.823986 520.088004,650.344011 519.304,648.232 C518.519996,646.119989 517.432007,644.360007 516.04,642.952 C514.647993,641.543993 513.00001,640.488004 511.096,639.784 C509.19199,639.079996 507.136011,638.728 504.928,638.728 L490.144,638.728 Z M541.696,657.928 L530.608,657.928 C530.64,657.447998 530.743999,656.904003 530.92,656.296 C531.096001,655.687997 531.399998,655.112003 531.832,654.568 C532.264002,654.023997 532.839996,653.568002 533.56,653.2 C534.280004,652.831998 535.183995,652.648 536.272,652.648 C537.936008,652.648 539.175996,653.095996 539.992,653.992 C540.808004,654.888004 541.375998,656.199991 541.696,657.928 Z M530.608,662.248 L548.512,662.248 C548.640001,660.32799 548.480002,658.488009 548.032,656.728 C547.583998,654.967991 546.856005,653.400007 545.848,652.024 C544.839995,650.647993 543.552008,649.552004 541.984,648.736 C540.415992,647.919996 538.576011,647.512 536.464,647.512 C534.575991,647.512 532.856008,647.847997 531.304,648.52 C529.751992,649.192003 528.416006,650.111994 527.296,651.28 C526.175994,652.448006 525.312003,653.831992 524.704,655.432 C524.095997,657.032008 523.792,658.759991 523.792,660.616 C523.792,662.53601 524.087997,664.295992 524.68,665.896 C525.272003,667.496008 526.111995,668.871994 527.2,670.024 C528.288005,671.176006 529.615992,672.063997 531.184,672.688 C532.752008,673.312003 534.51199,673.624 536.464,673.624 C539.280014,673.624 541.67999,672.984006 543.664,671.704 C545.64801,670.423994 547.119995,668.296015 548.08,665.32 L542.08,665.32 C541.855999,666.088004 541.248005,666.815997 540.256,667.504 C539.263995,668.192003 538.080007,668.536 536.704,668.536 C534.78399,668.536 533.312005,668.040005 532.288,667.048 C531.263995,666.055995 530.704,664.456011 530.608,662.248 Z M569.44,656.92 L576.112,656.92 C576.016,655.319992 575.632003,653.936006 574.96,652.768 C574.287997,651.599994 573.416005,650.624004 572.344,649.84 C571.271995,649.055996 570.056007,648.472002 568.696,648.088 C567.335993,647.703998 565.920007,647.512 564.448,647.512 C562.43199,647.512 560.640008,647.847997 559.072,648.52 C557.503992,649.192003 556.176005,650.127994 555.088,651.328 C553.999995,652.528006 553.176003,653.951992 552.616,655.6 C552.055997,657.248008 551.776,659.03199 551.776,660.952 C551.776,662.808009 552.079997,664.512 552.688,666.064 C553.296003,667.616008 554.143995,668.951994 555.232,670.072 C556.320005,671.192006 557.639992,672.063997 559.192,672.688 C560.744008,673.312003 562.447991,673.624 564.304,673.624 C567.600016,673.624 570.303989,672.760009 572.416,671.032 C574.528011,669.303991 575.807998,666.792016 576.256,663.496 L569.68,663.496 C569.455999,665.032008 568.904004,666.255995 568.024,667.168 C567.143996,668.080005 565.888008,668.536 564.256,668.536 C563.199995,668.536 562.304004,668.296002 561.568,667.816 C560.831996,667.335998 560.248002,666.720004 559.816,665.968 C559.383998,665.215996 559.072001,664.376005 558.88,663.448 C558.687999,662.519995 558.592,661.608004 558.592,660.712 C558.592,659.783995 558.687999,658.848005 558.88,657.904 C559.072001,656.959995 559.399998,656.096004 559.864,655.312 C560.328002,654.527996 560.927996,653.888002 561.664,653.392 C562.400004,652.895998 563.311995,652.648 564.4,652.648 C567.312015,652.648 568.991998,654.071986 569.44,656.92 Z M587.104,644.344 L587.104,638.728 L580.288,638.728 L580.288,644.344 L587.104,644.344 Z M580.288,648.184 L580.288,673 L587.104,673 L587.104,648.184 L580.288,648.184 Z M597.76,664.936 L591.28,664.936 C591.344,666.600008 591.719997,667.983994 592.408,669.088 C593.096003,670.192006 593.975995,671.079997 595.048,671.752 C596.120005,672.424003 597.343993,672.903999 598.72,673.192 C600.096007,673.480001 601.503993,673.624 602.944,673.624 C604.352007,673.624 605.735993,673.488001 607.096,673.216 C608.456007,672.943999 609.663995,672.472003 610.72,671.8 C611.776005,671.127997 612.631997,670.240006 613.288,669.136 C613.944003,668.031994 614.272,666.664008 614.272,665.032 C614.272,663.879994 614.048002,662.912004 613.6,662.128 C613.151998,661.343996 612.560004,660.688003 611.824,660.16 C611.087996,659.631997 610.248005,659.208002 609.304,658.888 C608.359995,658.567998 607.392005,658.296001 606.4,658.072 C605.439995,657.847999 604.496005,657.640001 603.568,657.448 C602.639995,657.255999 601.816004,657.040001 601.096,656.8 C600.375996,656.559999 599.792002,656.248002 599.344,655.864 C598.895998,655.479998 598.672,654.984003 598.672,654.376 C598.672,653.863997 598.799999,653.456002 599.056,653.152 C599.312001,652.847998 599.623998,652.616001 599.992,652.456 C600.360002,652.295999 600.767998,652.192 601.216,652.144 C601.664002,652.096 602.079998,652.072 602.464,652.072 C603.680006,652.072 604.735996,652.303998 605.632,652.768 C606.528004,653.232002 607.024,654.119993 607.12,655.432 L613.6,655.432 C613.471999,653.895992 613.080003,652.624005 612.424,651.616 C611.767997,650.607995 610.944005,649.800003 609.952,649.192 C608.959995,648.583997 607.832006,648.152001 606.568,647.896 C605.303994,647.639999 604.000007,647.512 602.656,647.512 C601.311993,647.512 600.000006,647.631999 598.72,647.872 C597.439994,648.112001 596.288005,648.527997 595.264,649.12 C594.239995,649.712003 593.416003,650.519995 592.792,651.544 C592.167997,652.568005 591.856,653.879992 591.856,655.48 C591.856,656.568005 592.079998,657.487996 592.528,658.24 C592.976002,658.992004 593.567996,659.615998 594.304,660.112 C595.040004,660.608002 595.879995,661.007998 596.824,661.312 C597.768005,661.616002 598.735995,661.879999 599.728,662.104 C602.160012,662.616003 604.055993,663.127997 605.416,663.64 C606.776007,664.152003 607.456,664.919995 607.456,665.944 C607.456,666.552003 607.312001,667.055998 607.024,667.456 C606.735999,667.856002 606.376002,668.175999 605.944,668.416 C605.511998,668.656001 605.032003,668.831999 604.504,668.944 C603.975997,669.056001 603.472002,669.112 602.992,669.112 C602.319997,669.112 601.672003,669.032001 601.048,668.872 C600.423997,668.711999 599.872002,668.464002 599.392,668.128 C598.911998,667.791998 598.520002,667.360003 598.216,666.832 C597.911998,666.303997 597.76,665.672004 597.76,664.936 Z M625.264,644.344 L625.264,638.728 L618.448,638.728 L618.448,644.344 L625.264,644.344 Z M618.448,648.184 L618.448,673 L625.264,673 L625.264,648.184 L618.448,648.184 Z M636.688,660.616 C636.688,659.623995 636.783999,658.648 636.976,657.688 C637.168001,656.727995 637.495998,655.880004 637.96,655.144 C638.424002,654.407996 639.039996,653.808002 639.808,653.344 C640.576004,652.879998 641.535994,652.648 642.688,652.648 C643.840006,652.648 644.807996,652.879998 645.592,653.344 C646.376004,653.808002 646.999998,654.407996 647.464,655.144 C647.928002,655.880004 648.255999,656.727995 648.448,657.688 C648.640001,658.648 648.736,659.623995 648.736,660.616 C648.736,661.608005 648.640001,662.575995 648.448,663.52 C648.255999,664.464005 647.928002,665.311996 647.464,666.064 C646.999998,666.816004 646.376004,667.415998 645.592,667.864 C644.807996,668.312002 643.840006,668.536 642.688,668.536 C641.535994,668.536 640.576004,668.312002 639.808,667.864 C639.039996,667.415998 638.424002,666.816004 637.96,666.064 C637.495998,665.311996 637.168001,664.464005 636.976,663.52 C636.783999,662.575995 636.688,661.608005 636.688,660.616 Z M629.872,660.616 C629.872,662.60001 630.175997,664.391992 630.784,665.992 C631.392003,667.592008 632.255994,668.959994 633.376,670.096 C634.496006,671.232006 635.839992,672.103997 637.408,672.712 C638.976008,673.320003 640.73599,673.624 642.688,673.624 C644.64001,673.624 646.407992,673.320003 647.992,672.712 C649.576008,672.103997 650.927994,671.232006 652.048,670.096 C653.168006,668.959994 654.031997,667.592008 654.64,665.992 C655.248003,664.391992 655.552,662.60001 655.552,660.616 C655.552,658.63199 655.248003,656.832008 654.64,655.216 C654.031997,653.599992 653.168006,652.224006 652.048,651.088 C650.927994,649.951994 649.576008,649.072003 647.992,648.448 C646.407992,647.823997 644.64001,647.512 642.688,647.512 C640.73599,647.512 638.976008,647.823997 637.408,648.448 C635.839992,649.072003 634.496006,649.951994 633.376,651.088 C632.255994,652.224006 631.392003,653.599992 630.784,655.216 C630.175997,656.832008 629.872,658.63199 629.872,660.616 Z M659.968,648.184 L659.968,673 L666.784,673 L666.784,659.992 C666.784,657.463987 667.199996,655.648006 668.032,654.544 C668.864004,653.439994 670.207991,652.888 672.064,652.888 C673.696008,652.888 674.831997,653.391995 675.472,654.4 C676.112003,655.408005 676.432,656.93599 676.432,658.984 L676.432,673 L683.248,673 L683.248,657.736 C683.248,656.199992 683.112001,654.800006 682.84,653.536 C682.567999,652.271994 682.096003,651.200004 681.424,650.32 C680.751997,649.439996 679.832006,648.752002 678.664,648.256 C677.495994,647.759998 676.000009,647.512 674.176,647.512 C672.735993,647.512 671.328007,647.839997 669.952,648.496 C668.575993,649.152003 667.456004,650.199993 666.592,651.64 L666.448,651.64 L666.448,648.184 L659.968,648.184 Z M705.136,657.928 L694.048,657.928 C694.08,657.447998 694.183999,656.904003 694.36,656.296 C694.536001,655.687997 694.839998,655.112003 695.272,654.568 C695.704002,654.023997 696.279996,653.568002 697,653.2 C697.720004,652.831998 698.623995,652.648 699.712,652.648 C701.376008,652.648 702.615996,653.095996 703.432,653.992 C704.248004,654.888004 704.815998,656.199991 705.136,657.928 Z M694.048,662.248 L711.952,662.248 C712.080001,660.32799 711.920002,658.488009 711.472,656.728 C711.023998,654.967991 710.296005,653.400007 709.288,652.024 C708.279995,650.647993 706.992008,649.552004 705.424,648.736 C703.855992,647.919996 702.016011,647.512 699.904,647.512 C698.015991,647.512 696.296008,647.847997 694.744,648.52 C693.191992,649.192003 691.856006,650.111994 690.736,651.28 C689.615994,652.448006 688.752003,653.831992 688.144,655.432 C687.535997,657.032008 687.232,658.759991 687.232,660.616 C687.232,662.53601 687.527997,664.295992 688.12,665.896 C688.712003,667.496008 689.551995,668.871994 690.64,670.024 C691.728005,671.176006 693.055992,672.063997 694.624,672.688 C696.192008,673.312003 697.95199,673.624 699.904,673.624 C702.720014,673.624 705.11999,672.984006 707.104,671.704 C709.08801,670.423994 710.559995,668.296015 711.52,665.32 L705.52,665.32 C705.295999,666.088004 704.688005,666.815997 703.696,667.504 C702.703995,668.192003 701.520007,668.536 700.144,668.536 C698.22399,668.536 696.752005,668.040005 695.728,667.048 C694.703995,666.055995 694.144,664.456011 694.048,662.248 Z M721.264,664.936 C721.264,665.672004 721.415998,666.303997 721.72,666.832 C722.024002,667.360003 722.415998,667.791998 722.896,668.128 C723.376002,668.464002 723.927997,668.711999 724.552,668.872 C725.176003,669.032001 725.823997,669.112 726.496,669.112 C726.976002,669.112 727.479997,669.056001 728.008,668.944 C728.536003,668.831999 729.015998,668.656001 729.448,668.416 C729.880002,668.175999 730.239999,667.856002 730.528,667.456 C730.816001,667.055998 730.96,666.552003 730.96,665.944 C730.96,664.919995 730.280007,664.152003 728.92,663.64 C727.559993,663.127997 725.664012,662.616003 723.232,662.104 C722.239995,661.879999 721.272005,661.616002 720.328,661.312 C719.383995,661.007998 718.544004,660.608002 717.808,660.112 C717.071996,659.615998 716.480002,658.992004 716.032,658.24 C715.583998,657.487996 715.36,656.568005 715.36,655.48 C715.36,653.879992 715.671997,652.568005 716.296,651.544 C716.920003,650.519995 717.743995,649.712003 718.768,649.12 C719.792005,648.527997 720.943994,648.112001 722.224,647.872 C723.504006,647.631999 724.815993,647.512 726.16,647.512 C727.504007,647.512 728.807994,647.639999 730.072,647.896 C731.336006,648.152001 732.463995,648.583997 733.456,649.192 C734.448005,649.800003 735.271997,650.607995 735.928,651.616 C736.584003,652.624005 736.975999,653.895992 737.104,655.432 L730.624,655.432 C730.528,654.119993 730.032004,653.232002 729.136,652.768 C728.239996,652.303998 727.184006,652.072 725.968,652.072 C725.583998,652.072 725.168002,652.096 724.72,652.144 C724.271998,652.192 723.864002,652.295999 723.496,652.456 C723.127998,652.616001 722.816001,652.847998 722.56,653.152 C722.303999,653.456002 722.176,653.863997 722.176,654.376 C722.176,654.984003 722.399998,655.479998 722.848,655.864 C723.296002,656.248002 723.879996,656.559999 724.6,656.8 C725.320004,657.040001 726.143995,657.255999 727.072,657.448 C728.000005,657.640001 728.943995,657.847999 729.904,658.072 C730.896005,658.296001 731.863995,658.567998 732.808,658.888 C733.752005,659.208002 734.591996,659.631997 735.328,660.16 C736.064004,660.688003 736.655998,661.343996 737.104,662.128 C737.552002,662.912004 737.776,663.879994 737.776,665.032 C737.776,666.664008 737.448003,668.031994 736.792,669.136 C736.135997,670.240006 735.280005,671.127997 734.224,671.8 C733.167995,672.472003 731.960007,672.943999 730.6,673.216 C729.239993,673.488001 727.856007,673.624 726.448,673.624 C725.007993,673.624 723.600007,673.480001 722.224,673.192 C720.847993,672.903999 719.624005,672.424003 718.552,671.752 C717.479995,671.079997 716.600003,670.192006 715.912,669.088 C715.223997,667.983994 714.848,666.600008 714.784,664.936 L721.264,664.936 Z" id="Decisiones" fill="#FFFFFF" fill-rule="nonzero"></path>
    </g>
</svg>
