<svg width="16" height="17" viewBox="0 0 16 17" fill="none" xmlns="http://www.w3.org/2000/svg">
<path d="M14.4938 1.58398L8.61133 5.90705L9.7052 3.35932L14.4938 1.58398Z" fill="#E17726" stroke="#E17726" stroke-width="0.263143" stroke-linecap="round" stroke-linejoin="round"/>
<path d="M0.924805 1.58398L6.7549 5.9474L5.7134 3.35932L0.924805 1.58398Z" fill="#E27625" stroke="#E27625" stroke-width="0.263143" stroke-linecap="round" stroke-linejoin="round"/>
<path d="M12.3757 11.6074L10.8105 13.9822L14.1619 14.8987L15.122 11.6592L12.3757 11.6074Z" fill="#E27625" stroke="#E27625" stroke-width="0.263143" stroke-linecap="round" stroke-linejoin="round"/>
<path d="M0.301758 11.6592L1.25599 14.8987L4.6016 13.9822L3.04225 11.6074L0.301758 11.6592Z" fill="#E27625" stroke="#E27625" stroke-width="0.263143" stroke-linecap="round" stroke-linejoin="round"/>
<path d="M4.42119 7.59585L3.49023 8.99077L6.80675 9.14064L6.6962 5.5957L4.42119 7.59585Z" fill="#E27625" stroke="#E27625" stroke-width="0.263143" stroke-linecap="round" stroke-linejoin="round"/>
<path d="M10.9969 7.59518L8.68691 5.55469L8.61133 9.13999L11.9278 8.99012L10.9969 7.59518Z" fill="#E27625" stroke="#E27625" stroke-width="0.263143" stroke-linecap="round" stroke-linejoin="round"/>
<path d="M4.60156 13.9815L6.60893 13.0189L4.88085 11.6816L4.60156 13.9815Z" fill="#E27625" stroke="#E27625" stroke-width="0.263143" stroke-linecap="round" stroke-linejoin="round"/>
<path d="M8.80859 13.0189L10.8101 13.9815L10.5367 11.6816L8.80859 13.0189Z" fill="#E27625" stroke="#E27625" stroke-width="0.263143" stroke-linecap="round" stroke-linejoin="round"/>
<path d="M10.8101 13.9821L8.80859 13.0195L8.97149 14.3107L8.95404 14.8582L10.8101 13.9821Z" fill="#D5BFB2" stroke="#D5BFB2" stroke-width="0.263143" stroke-linecap="round" stroke-linejoin="round"/>
<path d="M4.60156 13.9821L6.46347 14.8582L6.45183 14.3107L6.60894 13.0195L4.60156 13.9821Z" fill="#D5BFB2" stroke="#D5BFB2" stroke-width="0.263143" stroke-linecap="round" stroke-linejoin="round"/>
<path d="M6.49904 10.8289L4.83496 10.3447L6.01029 9.80859L6.49904 10.8289Z" fill="#233447" stroke="#233447" stroke-width="0.263143" stroke-linecap="round" stroke-linejoin="round"/>
<path d="M8.91895 10.8289L9.40771 9.80859L10.5889 10.3447L8.91895 10.8289Z" fill="#233447" stroke="#233447" stroke-width="0.263143" stroke-linecap="round" stroke-linejoin="round"/>
<path d="M4.60231 13.9822L4.89324 11.6074L3.04297 11.6592L4.60231 13.9822Z" fill="#CC6228" stroke="#CC6228" stroke-width="0.263143" stroke-linecap="round" stroke-linejoin="round"/>
<path d="M10.5254 11.6074L10.8105 13.9822L12.3756 11.6592L10.5254 11.6074Z" fill="#CC6228" stroke="#CC6228" stroke-width="0.263143" stroke-linecap="round" stroke-linejoin="round"/>
<path d="M11.9278 8.99023L8.61133 9.1401L8.91967 10.8289L9.40843 9.80867L10.5896 10.3447L11.9278 8.99023Z" fill="#CC6228" stroke="#CC6228" stroke-width="0.263143" stroke-linecap="round" stroke-linejoin="round"/>
<path d="M4.8343 10.3447L6.00963 9.80867L6.49838 10.8289L6.80676 9.1401L3.49023 8.99023L4.8343 10.3447Z" fill="#CC6228" stroke="#CC6228" stroke-width="0.263143" stroke-linecap="round" stroke-linejoin="round"/>
<path d="M3.49023 8.99023L4.88085 11.682L4.8343 10.3447L3.49023 8.99023Z" fill="#E27525" stroke="#E27525" stroke-width="0.263143" stroke-linecap="round" stroke-linejoin="round"/>
<path d="M10.5886 10.3447L10.5361 11.682L11.9268 8.99023L10.5886 10.3447Z" fill="#E27525" stroke="#E27525" stroke-width="0.263143" stroke-linecap="round" stroke-linejoin="round"/>
<path d="M6.80642 9.14062L6.49805 10.8295L6.88788 12.8239L6.97516 10.1955L6.80642 9.14062Z" fill="#E27525" stroke="#E27525" stroke-width="0.263143" stroke-linecap="round" stroke-linejoin="round"/>
<path d="M8.61024 9.14062L8.44727 10.1897L8.52879 12.8239L8.91858 10.8295L8.61024 9.14062Z" fill="#E27525" stroke="#E27525" stroke-width="0.263143" stroke-linecap="round" stroke-linejoin="round"/>
<path d="M8.91916 10.8279L8.5293 12.8223L8.80861 13.0183L10.5367 11.681L10.589 10.3438L8.91916 10.8279Z" fill="#F5841F" stroke="#F5841F" stroke-width="0.263143" stroke-linecap="round" stroke-linejoin="round"/>
<path d="M4.83496 10.3438L4.88151 11.681L6.60959 13.0183L6.88887 12.8223L6.49904 10.8279L4.83496 10.3438Z" fill="#F5841F" stroke="#F5841F" stroke-width="0.263143" stroke-linecap="round" stroke-linejoin="round"/>
<path d="M8.9538 14.8586L8.97125 14.311L8.81993 14.1842H6.5973L6.45183 14.311L6.46347 14.8586L4.60156 13.9824L5.25323 14.5128L6.57403 15.4177H8.83738L10.164 14.5128L10.8099 13.9824L8.9538 14.8586Z" fill="#C0AC9D" stroke="#C0AC9D" stroke-width="0.263143" stroke-linecap="round" stroke-linejoin="round"/>
<path d="M8.80864 13.0182L8.52932 12.8223H6.88853L6.60925 13.0182L6.45215 14.3094L6.5976 14.1826H8.82029L8.97153 14.3094L8.80864 13.0182Z" fill="#161616" stroke="#161616" stroke-width="0.263143" stroke-linecap="round" stroke-linejoin="round"/>
<path d="M14.7434 6.18949L15.238 3.80316L14.4932 1.58398L8.80859 5.76295L10.9963 7.59593L14.0859 8.48936L14.7667 7.69969L14.4699 7.48642L14.9412 7.05987L14.5805 6.78319L15.0518 6.42582L14.7434 6.18949Z" fill="#763E1A" stroke="#763E1A" stroke-width="0.263143" stroke-linecap="round" stroke-linejoin="round"/>
<path d="M0.179688 3.80316L0.680075 6.18949L0.360059 6.42582L0.83717 6.78319L0.476429 7.05987L0.947723 7.48642L0.650983 7.69969L1.33175 8.48936L4.42135 7.59593L6.60909 5.76295L0.924446 1.58398L0.179688 3.80316Z" fill="#763E1A" stroke="#763E1A" stroke-width="0.263143" stroke-linecap="round" stroke-linejoin="round"/>
<path d="M14.0864 8.48914L10.9968 7.5957L11.9277 8.99063L10.5371 11.6824L12.3757 11.6594H15.122L14.0864 8.48914Z" fill="#F5841F" stroke="#F5841F" stroke-width="0.263143" stroke-linecap="round" stroke-linejoin="round"/>
<path d="M4.42123 7.5957L1.33162 8.48914L0.301758 11.6594H3.04225L4.88089 11.6824L3.49027 8.99063L4.42123 7.5957Z" fill="#F5841F" stroke="#F5841F" stroke-width="0.263143" stroke-linecap="round" stroke-linejoin="round"/>
<path d="M8.61046 9.13882L8.80833 5.76105L9.70433 3.35742H5.71289L6.60893 5.76105L6.80676 9.13882L6.8824 10.1994L6.88821 12.822H8.52901L8.5348 10.1994L8.61046 9.13882Z" fill="#F5841F" stroke="#F5841F" stroke-width="0.263143" stroke-linecap="round" stroke-linejoin="round"/>
</svg>
