<svg width="999" height="456" viewBox="0 0 999 456" fill="none" xmlns="http://www.w3.org/2000/svg">
<path fill-rule="evenodd" clip-rule="evenodd" d="M498.822 455.641L236.421 307.746C235.078 306.989 234.603 305.286 235.36 303.943C235.61 303.501 235.975 303.135 236.418 302.885L500.205 153.693L759.986 302.636C761.324 303.402 761.786 305.108 761.019 306.446C760.773 306.875 760.416 307.232 759.986 307.478L501.582 455.631C500.728 456.121 499.68 456.124 498.822 455.641Z" fill="#4D00B4"/>
<path fill-rule="evenodd" clip-rule="evenodd" d="M744.679 293.859L501.583 433.235C500.729 433.725 499.68 433.729 498.823 433.246L251.948 294.101L252.74 293.654L500.206 422.409L743.9 293.412L744.679 293.859ZM714.28 276.43L501.583 398.377C500.729 398.866 499.68 398.87 498.823 398.387L282.818 276.642L284.842 275.498L500.206 387.55L712.287 275.287L714.28 276.43ZM687.682 261.18L501.583 367.878C500.729 368.367 499.68 368.371 498.823 367.888L309.828 261.366L312.929 259.612L500.206 357.051L684.628 259.429L687.682 261.18ZM663.364 247.238L501.582 339.993C500.729 340.483 499.68 340.487 498.823 340.004L334.522 247.4L338.608 245.089L500.205 329.167L659.34 244.931L663.364 247.238ZM637.76 232.558L501.697 310.628C500.843 311.118 499.793 311.122 498.936 310.638L360.637 232.63L362.88 231.361L500.319 302.925L635.547 231.289L637.76 232.558Z" fill="#B969FF"/>
<path d="M481.798 231.476L507.828 208.938C508.704 208.179 509.98 209.197 509.435 210.22L500.937 226.167H515.709C516.68 226.167 517.126 227.376 516.389 228.007L489.983 250.61C489.109 251.359 487.844 250.351 488.377 249.331L496.755 233.312H482.482C481.514 233.312 481.066 232.11 481.798 231.476Z" fill="white"/>
<path fill-rule="evenodd" clip-rule="evenodd" d="M499.225 -2.4829e-07C502.362 -3.85417e-07 504.905 2.16067 504.905 4.82598L504.905 160.636C504.905 163.302 502.362 165.462 499.225 165.462C496.088 165.462 493.544 163.302 493.544 160.636L493.544 4.82598C493.544 2.16067 496.088 -1.11163e-07 499.225 -2.4829e-07Z" fill="url(#paint0_linear_14181_184562)"/>
<path fill-rule="evenodd" clip-rule="evenodd" d="M704.984 190.75C728.562 159.403 740.351 140.561 740.351 134.225C740.351 124.625 736.995 124.389 740.351 114.422C743.707 104.455 736.327 81.0207 717.652 61.6889C698.976 42.3571 681.243 36.6486 659.981 31.2271C638.718 25.8055 637.356 26.4976 617.252 31.2271C597.148 35.9566 569.763 41.5514 554.373 56.0717C544.274 65.6002 544.116 71.7558 553.898 74.5384C544.379 87.0736 539.62 103.802 539.62 124.723C544.462 134.731 544.462 143.419 539.62 150.786C532.358 161.837 518.417 175.046 520.913 181.369C523.41 187.692 539.62 187.692 539.62 191.704C539.62 195.716 531.91 199.671 535.765 205.094C539.62 210.517 531.169 209.259 537.746 218.449C544.322 227.639 528.604 235.115 548.667 247.31C568.73 259.506 592.74 244.447 592.74 273.753C592.74 293.29 625.874 291.372 692.141 267.998C682.61 246.26 686.652 220.828 704.266 191.704L704.984 190.75Z" fill="white"/>
<path fill-rule="evenodd" clip-rule="evenodd" d="M596.448 116.298C596.448 97.0489 612.059 81.4414 631.312 81.4414C650.566 81.4414 666.177 97.0489 666.177 116.298C666.177 135.547 650.566 151.154 631.312 151.154C612.059 151.154 596.448 135.547 596.448 116.298ZM602.362 116.298C602.362 132.279 615.327 145.241 631.312 145.241C647.297 145.241 660.262 132.279 660.262 116.298C660.262 100.317 647.297 87.3545 631.312 87.3545C615.327 87.3545 602.362 100.317 602.362 116.298ZM644.183 103.37C644.525 103.37 644.806 103.651 644.806 103.993C644.806 104.141 644.759 104.289 644.665 104.397L634.541 116.457L644.65 128.509C644.743 128.626 644.798 128.766 644.798 128.914C644.798 129.264 644.518 129.536 644.175 129.536L639.039 129.513L631.311 120.301L623.583 129.52L618.439 129.544C618.097 129.544 617.817 129.264 617.817 128.921C617.818 128.774 617.871 128.631 617.965 128.517L628.089 116.465L617.965 104.405C617.871 104.289 617.817 104.149 617.817 104.001C617.817 103.651 618.097 103.378 618.439 103.378L623.583 103.402L631.311 112.614L639.047 103.394L644.183 103.37Z" fill="#9013FE"/>
<path fill-rule="evenodd" clip-rule="evenodd" d="M296.282 54.8344C259.208 94.2343 248.641 130.98 264.579 165.072C280.517 199.164 280.517 223.42 264.579 237.841L310.305 248.268C309.808 255.16 308.184 261.746 305.435 268.025C371.892 291.496 405.12 293.422 405.12 273.804C405.12 244.376 429.199 259.497 449.319 247.251C469.439 235.005 453.676 227.498 460.271 218.27C466.867 209.042 458.392 210.305 462.258 204.859C466.123 199.414 458.392 195.443 458.392 191.414C458.392 187.385 474.649 187.385 477.152 181.036C479.656 174.686 465.675 161.423 458.392 150.326C453.536 142.928 453.536 134.205 458.392 124.155C458.392 107.536 455.405 93.551 449.431 82.2007C453.646 81.3436 456.434 80.0403 457.155 79.5695C461.973 76.4241 459.164 41.3597 398.81 30.0992C358.574 22.5922 324.398 30.8373 296.282 54.8344Z" fill="white"/>
<path fill-rule="evenodd" clip-rule="evenodd" d="M332.35 118.044C332.35 98.795 347.961 83.1875 367.214 83.1875C386.468 83.1875 402.079 98.795 402.079 118.044C402.079 137.293 386.468 152.9 367.214 152.9C347.961 152.9 332.35 137.293 332.35 118.044ZM338.264 118.044C338.264 134.025 351.229 146.987 367.214 146.987C383.199 146.987 396.164 134.025 396.164 118.044C396.164 102.063 383.199 89.1006 367.214 89.1006C351.229 89.1006 338.264 102.063 338.264 118.044ZM378.117 105.671H381.767C382.273 105.671 382.568 106.246 382.265 106.659L365.875 129.377C365.646 129.697 365.344 129.958 364.994 130.137C364.645 130.317 364.257 130.411 363.864 130.411C363.47 130.411 363.083 130.317 362.733 130.137C362.383 129.958 362.081 129.697 361.852 129.377L352.155 115.933C351.859 115.521 352.155 114.945 352.661 114.945H356.311C357.113 114.945 357.86 115.334 358.327 115.98L363.868 123.667L376.101 106.705C376.568 106.052 377.323 105.671 378.117 105.671Z" fill="#9013FE"/>
<path fill-rule="evenodd" clip-rule="evenodd" d="M71.7412 227.902L0.386498 187.684C0.0212462 187.479 -0.107923 187.016 0.0979893 186.65C0.165844 186.53 0.265258 186.431 0.38552 186.363L72.1172 145.793L142.759 186.295C143.123 186.503 143.249 186.967 143.04 187.331C142.973 187.448 142.876 187.545 142.759 187.612L72.4917 227.899C72.2595 228.032 71.9743 228.033 71.7412 227.902Z" fill="#4D00B4"/>
<path fill-rule="evenodd" clip-rule="evenodd" d="M138.597 183.909L72.4916 221.81C72.2594 221.943 71.9743 221.944 71.7411 221.813L4.6084 183.975L4.8236 183.853L72.1171 218.866L138.385 183.788L138.597 183.909ZM130.33 179.17L72.4916 212.331C72.2594 212.464 71.9743 212.465 71.7411 212.333L13.003 179.227L13.5532 178.916L72.1171 209.387L129.788 178.859L130.33 179.17ZM123.098 175.023L72.4916 204.037C72.2594 204.17 71.9743 204.171 71.7411 204.04L20.3475 175.073L21.1907 174.596L72.1171 201.093L122.267 174.547L123.098 175.023ZM116.485 171.231L72.4914 196.454C72.2592 196.588 71.9741 196.589 71.7409 196.457L27.0626 171.275L28.1739 170.647L72.117 193.51L115.391 170.604L116.485 171.231ZM109.522 167.24L72.5228 188.469C72.2905 188.602 72.0051 188.603 71.7718 188.472L34.1642 167.259L34.774 166.914L72.1481 186.375L108.921 166.895L109.522 167.24Z" fill="#B969FF"/>
<path d="M67.1115 166.945L74.1897 160.816C74.428 160.61 74.7749 160.886 74.6268 161.164L72.3161 165.501H76.3329C76.5969 165.501 76.7183 165.83 76.5177 166.001L69.3374 172.148C69.0996 172.351 68.7555 172.077 68.9005 171.8L71.1788 167.444H67.2976C67.0343 167.444 66.9125 167.117 67.1115 166.945Z" fill="white"/>
<path fill-rule="evenodd" clip-rule="evenodd" d="M71.8508 104C72.7038 104 73.3954 104.588 73.3954 105.312L73.3954 147.682C73.3954 148.407 72.7038 148.994 71.8508 148.994C70.9977 148.994 70.3062 148.407 70.3062 147.682L70.3062 105.312C70.3062 104.588 70.9977 104 71.8508 104Z" fill="url(#paint1_linear_14181_184562)"/>
<path fill-rule="evenodd" clip-rule="evenodd" d="M127.803 155.871C134.214 147.346 137.42 142.223 137.42 140.5C137.42 137.889 136.507 137.825 137.42 135.114C138.333 132.404 136.326 126.032 131.247 120.775C126.169 115.518 121.347 113.966 115.565 112.491C109.783 111.017 109.412 111.205 103.946 112.491C98.4788 113.778 91.0319 115.299 86.847 119.247C84.1007 121.838 84.0577 123.512 86.7178 124.269C84.1294 127.678 82.8352 132.227 82.8352 137.916C84.1517 140.637 84.1517 143 82.8352 145.003C80.8604 148.008 77.0694 151.6 77.7482 153.319C78.4271 155.039 82.8352 155.039 82.8352 156.13C82.8352 157.221 80.7387 158.296 81.7869 159.771C82.8352 161.246 80.5371 160.904 82.3255 163.403C84.1139 165.902 79.8396 167.935 85.2953 171.251C90.751 174.567 97.2801 170.472 97.2801 178.441C97.2801 183.754 106.29 183.233 124.31 176.876C121.718 170.965 122.818 164.05 127.607 156.13L127.803 155.871Z" fill="white"/>
<path fill-rule="evenodd" clip-rule="evenodd" d="M98.2886 135.625C98.2886 130.391 102.534 126.146 107.769 126.146C113.005 126.146 117.25 130.391 117.25 135.625C117.25 140.859 113.005 145.103 107.769 145.103C102.534 145.103 98.2886 140.859 98.2886 135.625ZM99.8969 135.625C99.8969 139.971 103.423 143.496 107.769 143.496C112.116 143.496 115.642 139.971 115.642 135.625C115.642 131.279 112.116 127.754 107.769 127.754C103.423 127.754 99.8969 131.279 99.8969 135.625ZM111.269 132.11C111.362 132.11 111.439 132.186 111.439 132.279C111.439 132.319 111.426 132.359 111.4 132.389L108.647 135.668L111.396 138.946C111.422 138.977 111.436 139.015 111.436 139.056C111.436 139.151 111.36 139.225 111.267 139.225L109.87 139.218L107.769 136.713L105.668 139.221L104.269 139.227C104.176 139.227 104.099 139.151 104.099 139.058C104.1 139.018 104.114 138.979 104.14 138.948L106.893 135.67L104.14 132.391C104.114 132.359 104.099 132.321 104.099 132.281C104.099 132.186 104.176 132.112 104.269 132.112L105.668 132.118L107.769 134.623L109.873 132.116L111.269 132.11Z" fill="#9013FE"/>
<path fill-rule="evenodd" clip-rule="evenodd" d="M16.6646 118.911C6.58323 129.625 3.70959 139.617 8.04366 148.888C12.3777 158.158 12.3777 164.754 8.04366 168.676L20.4779 171.511C20.3427 173.386 19.9013 175.176 19.1537 176.884C37.2252 183.266 46.261 183.79 46.261 178.455C46.261 170.453 52.8088 174.565 58.28 171.235C63.7513 167.905 59.4648 165.863 61.2583 163.354C63.0518 160.845 60.7471 161.188 61.7984 159.707C62.8496 158.226 60.7471 157.147 60.7471 156.051C60.7471 154.955 65.1679 154.955 65.8487 153.229C66.5294 151.502 62.7276 147.896 60.7471 144.878C59.4269 142.866 59.4269 140.494 60.7471 137.761C60.7471 133.242 59.9349 129.439 58.3104 126.353C59.4566 126.12 60.2148 125.765 60.4109 125.637C61.7209 124.782 60.9572 115.247 44.5452 112.185C33.6038 110.143 24.3103 112.385 16.6646 118.911Z" fill="white"/>
<path fill-rule="evenodd" clip-rule="evenodd" d="M26.4722 136.1C26.4722 130.865 30.7173 126.621 35.9529 126.621C41.1885 126.621 45.4336 130.865 45.4336 136.1C45.4336 141.334 41.1885 145.578 35.9529 145.578C30.7173 145.578 26.4722 141.334 26.4722 136.1ZM28.0805 136.1C28.0805 140.445 31.6061 143.97 35.9529 143.97C40.2996 143.97 43.8253 140.445 43.8253 136.1C43.8253 131.754 40.2996 128.229 35.9529 128.229C31.6061 128.229 28.0805 131.754 28.0805 136.1ZM38.9176 132.735H39.9101C40.0477 132.735 40.1282 132.891 40.0456 133.004L35.5888 139.181C35.5265 139.268 35.4444 139.339 35.3493 139.388C35.2541 139.437 35.1487 139.463 35.0418 139.463C34.9348 139.463 34.8294 139.437 34.7343 139.388C34.6391 139.339 34.557 139.268 34.4947 139.181L31.8579 135.526C31.7775 135.413 31.8579 135.257 31.9955 135.257H32.988C33.2059 135.257 33.4091 135.363 33.5361 135.538L35.0428 137.629L38.3695 133.016C38.4965 132.839 38.7018 132.735 38.9176 132.735Z" fill="#9013FE"/>
<path fill-rule="evenodd" clip-rule="evenodd" d="M926.741 227.902L855.386 187.684C855.021 187.479 854.892 187.016 855.098 186.65C855.166 186.53 855.265 186.431 855.386 186.363L927.117 145.793L997.759 186.295C998.123 186.503 998.249 186.967 998.04 187.331C997.973 187.448 997.876 187.545 997.759 187.612L927.492 227.899C927.26 228.032 926.974 228.033 926.741 227.902Z" fill="#4D00B4"/>
<path fill-rule="evenodd" clip-rule="evenodd" d="M993.597 183.909L927.492 221.81C927.259 221.943 926.974 221.944 926.741 221.813L859.608 183.975L859.824 183.853L927.117 218.866L993.385 183.788L993.597 183.909ZM985.33 179.17L927.492 212.331C927.259 212.464 926.974 212.465 926.741 212.333L868.003 179.227L868.553 178.916L927.117 209.387L984.788 178.859L985.33 179.17ZM978.098 175.023L927.492 204.037C927.259 204.17 926.974 204.171 926.741 204.04L875.347 175.073L876.191 174.596L927.117 201.093L977.267 174.547L978.098 175.023ZM971.485 171.231L927.491 196.454C927.259 196.588 926.974 196.589 926.741 196.457L882.063 171.275L883.174 170.647L927.117 193.51L970.391 170.604L971.485 171.231ZM964.522 167.24L927.523 188.469C927.29 188.602 927.005 188.603 926.772 188.472L889.164 167.259L889.774 166.914L927.148 186.375L963.921 166.895L964.522 167.24Z" fill="#B969FF"/>
<path d="M922.111 166.945L929.19 160.816C929.428 160.61 929.775 160.886 929.627 161.164L927.316 165.501H931.333C931.597 165.501 931.718 165.83 931.518 166.001L924.337 172.148C924.1 172.351 923.755 172.077 923.901 171.8L926.179 167.444H922.298C922.034 167.444 921.912 167.117 922.111 166.945Z" fill="white"/>
<path fill-rule="evenodd" clip-rule="evenodd" d="M926.851 104C927.704 104 928.395 104.588 928.395 105.312L928.395 147.682C928.395 148.407 927.704 148.994 926.851 148.994C925.998 148.994 925.306 148.407 925.306 147.682L925.306 105.312C925.306 104.588 925.998 104 926.851 104Z" fill="url(#paint2_linear_14181_184562)"/>
<path fill-rule="evenodd" clip-rule="evenodd" d="M982.803 155.871C989.214 147.346 992.42 142.223 992.42 140.5C992.42 137.889 991.507 137.825 992.42 135.114C993.333 132.404 991.326 126.032 986.247 120.775C981.169 115.518 976.347 113.966 970.565 112.491C964.783 111.017 964.412 111.205 958.946 112.491C953.479 113.778 946.032 115.299 941.847 119.247C939.101 121.838 939.058 123.512 941.718 124.269C939.129 127.678 937.835 132.227 937.835 137.916C939.152 140.637 939.152 143 937.835 145.003C935.86 148.008 932.069 151.6 932.748 153.319C933.427 155.039 937.835 155.039 937.835 156.13C937.835 157.221 935.739 158.296 936.787 159.771C937.835 161.246 935.537 160.904 937.325 163.403C939.114 165.902 934.84 167.935 940.295 171.251C945.751 174.567 952.28 170.472 952.28 178.441C952.28 183.754 961.29 183.233 979.31 176.876C976.718 170.965 977.818 164.05 982.607 156.13L982.803 155.871Z" fill="white"/>
<path fill-rule="evenodd" clip-rule="evenodd" d="M953.289 135.625C953.289 130.391 957.534 126.146 962.769 126.146C968.005 126.146 972.25 130.391 972.25 135.625C972.25 140.859 968.005 145.103 962.769 145.103C957.534 145.103 953.289 140.859 953.289 135.625ZM954.897 135.625C954.897 139.971 958.423 143.496 962.769 143.496C967.116 143.496 970.642 139.971 970.642 135.625C970.642 131.279 967.116 127.754 962.769 127.754C958.423 127.754 954.897 131.279 954.897 135.625ZM966.269 132.11C966.362 132.11 966.439 132.186 966.439 132.279C966.439 132.319 966.426 132.359 966.4 132.389L963.647 135.668L966.396 138.946C966.422 138.977 966.436 139.015 966.436 139.056C966.436 139.151 966.36 139.225 966.267 139.225L964.87 139.218L962.769 136.713L960.668 139.221L959.269 139.227C959.176 139.227 959.099 139.151 959.099 139.058C959.1 139.018 959.114 138.979 959.14 138.948L961.893 135.67L959.14 132.391C959.114 132.359 959.099 132.321 959.099 132.281C959.099 132.186 959.176 132.112 959.269 132.112L960.668 132.118L962.769 134.623L964.873 132.116L966.269 132.11Z" fill="#9013FE"/>
<path fill-rule="evenodd" clip-rule="evenodd" d="M871.665 118.911C861.583 129.625 858.71 139.617 863.044 148.888C867.378 158.158 867.378 164.754 863.044 168.676L875.478 171.511C875.343 173.386 874.901 175.176 874.154 176.884C892.225 183.266 901.261 183.79 901.261 178.455C901.261 170.453 907.809 174.565 913.28 171.235C918.751 167.905 914.465 165.863 916.258 163.354C918.052 160.845 915.747 161.188 916.798 159.707C917.85 158.226 915.747 157.147 915.747 156.051C915.747 154.955 920.168 154.955 920.849 153.229C921.529 151.502 917.728 147.896 915.747 144.878C914.427 142.866 914.427 140.494 915.747 137.761C915.747 133.242 914.935 129.439 913.31 126.353C914.457 126.12 915.215 125.765 915.411 125.637C916.721 124.782 915.957 115.247 899.545 112.185C888.604 110.143 879.31 112.385 871.665 118.911Z" fill="white"/>
<path fill-rule="evenodd" clip-rule="evenodd" d="M881.472 136.1C881.472 130.865 885.717 126.621 890.953 126.621C896.188 126.621 900.434 130.865 900.434 136.1C900.434 141.334 896.188 145.578 890.953 145.578C885.717 145.578 881.472 141.334 881.472 136.1ZM883.08 136.1C883.08 140.445 886.606 143.97 890.953 143.97C895.3 143.97 898.825 140.445 898.825 136.1C898.825 131.754 895.3 128.229 890.953 128.229C886.606 128.229 883.08 131.754 883.08 136.1ZM893.918 132.735H894.91C895.048 132.735 895.128 132.891 895.046 133.004L890.589 139.181C890.527 139.268 890.444 139.339 890.349 139.388C890.254 139.437 890.149 139.463 890.042 139.463C889.935 139.463 889.829 139.437 889.734 139.388C889.639 139.339 889.557 139.268 889.495 139.181L886.858 135.526C886.777 135.413 886.858 135.257 886.995 135.257H887.988C888.206 135.257 888.409 135.363 888.536 135.538L890.043 137.629L893.369 133.016C893.497 132.839 893.702 132.735 893.918 132.735Z" fill="#9013FE"/>
<defs>
<linearGradient id="paint0_linear_14181_184562" x1="500.036" y1="4.82598" x2="500.036" y2="160.636" gradientUnits="userSpaceOnUse">
<stop stop-color="#9013FE"/>
<stop offset="0.583333" stop-color="#4D00B4"/>
</linearGradient>
<linearGradient id="paint1_linear_14181_184562" x1="72.0714" y1="105.312" x2="72.0714" y2="147.682" gradientUnits="userSpaceOnUse">
<stop stop-color="#9013FE"/>
<stop offset="0.583333" stop-color="#4D00B4"/>
</linearGradient>
<linearGradient id="paint2_linear_14181_184562" x1="927.071" y1="105.312" x2="927.071" y2="147.682" gradientUnits="userSpaceOnUse">
<stop stop-color="#9013FE"/>
<stop offset="0.583333" stop-color="#4D00B4"/>
</linearGradient>
</defs>
</svg>
