<svg xmlns="http://www.w3.org/2000/svg" width="355" height="407" viewBox="0 0 355 407" version="1.1"><path d="M 82.916 128.469 C 69.665 131.814, 57.592 139.241, 49.500 149.028 C 39.700 160.880, 33.898 172.455, 31.786 184.366 C 30.370 192.352, 31.940 201.146, 36.903 213.027 C 43.966 229.935, 44.588 240.528, 39.031 249.289 L 36.146 253.839 47.823 256.494 C 64.855 260.367, 63.338 259.554, 62.486 264.353 C 60.994 272.754, 60.216 271.986, 74.982 276.696 C 90.647 281.693, 97.518 283.086, 106.927 283.175 C 116.349 283.263, 119.218 281.719, 120.251 276 C 121.730 267.819, 121.957 267.258, 124.463 265.616 C 125.831 264.720, 130.425 263.503, 134.673 262.913 C 143.369 261.703, 148.814 259.323, 151.920 255.375 C 153.672 253.147, 153.920 251.876, 153.386 247.854 C 152.976 244.760, 153.160 242.512, 153.897 241.624 C 154.531 240.860, 154.950 238.932, 154.829 237.339 C 154.708 235.746, 154.960 233.873, 155.390 233.177 C 155.836 232.457, 155.457 230.820, 154.510 229.375 C 152.271 225.958, 153.136 224.310, 157.832 223.045 C 165.801 220.899, 165.746 217.974, 157.533 207.133 C 151.261 198.854, 150.493 196.769, 151.506 190.760 C 153.091 181.359, 152.254 173.150, 148.511 161.388 C 147.998 159.775, 148.329 159.147, 149.914 158.733 C 152.809 157.976, 153.475 155.528, 152.066 150.827 C 149.472 142.169, 137.526 133.505, 122.500 129.385 C 114.243 127.120, 90.440 126.570, 82.916 128.469 M 242.500 130.449 C 226.282 134.645, 221.829 136.260, 215.795 140.131 C 207.102 145.710, 203.707 151.703, 207.953 153.975 C 209.851 154.991, 209.824 155.192, 206.985 161.195 C 202.035 171.662, 201.165 179.476, 203.584 191.737 C 204.538 196.568, 203.628 198.822, 197.412 207.026 C 194.299 211.137, 191.410 215.400, 190.994 216.500 C 189.802 219.648, 191.686 221.892, 196.549 223.117 C 201.937 224.473, 202.642 225.371, 200.676 228.372 C 198.936 231.027, 199.013 240.106, 200.793 242.250 C 201.518 243.124, 201.730 245.480, 201.364 248.575 C 200.834 253.049, 201.045 253.775, 203.640 256.394 C 207.487 260.276, 211.605 261.872, 220.770 263.034 C 230.316 264.245, 232.681 266.217, 233.910 273.996 C 235.127 281.690, 237.094 283.005, 247.361 282.983 C 258.568 282.959, 270.727 280.181, 289.585 273.337 L 293.669 271.855 292.335 266.709 C 288.444 251.711, 292.977 237.738, 308.969 215.435 C 321.116 198.494, 323.377 193.980, 322.682 188.067 C 322.386 185.555, 322.611 181.605, 323.181 179.288 C 324.677 173.214, 321.512 163.466, 315.063 154.283 C 306.166 141.614, 295.007 134.374, 276.902 129.524 C 264.490 126.199, 258.285 126.366, 242.500 130.449 M 251.764 159.996 C 240.190 163.481, 233.702 175.564, 237.410 186.729 C 240.272 195.345, 248.151 201, 257.293 201 C 272.094 201, 281.894 186.486, 276.547 172.485 C 272.939 163.035, 261.243 157.142, 251.764 159.996 M 91.728 161.289 C 75.179 166.604, 71.647 188.627, 85.771 198.441 C 91.557 202.461, 100.724 203.202, 106.736 200.135 C 115.503 195.662, 120.466 185.158, 118.051 176.188 C 116.809 171.578, 111.289 164.718, 107.062 162.532 C 103.157 160.513, 95.961 159.929, 91.728 161.289 M 248.520 165.229 C 242.632 168.649, 239.831 174.097, 240.273 181.263 C 241.204 196.325, 258.361 203.071, 269.358 192.698 C 275.421 186.980, 276.416 177.845, 271.726 170.954 C 268.107 165.637, 264.656 163.668, 258.263 163.273 C 253.628 162.987, 251.721 163.370, 248.520 165.229 M 90.450 165.407 C 86.464 167.143, 82.344 172.121, 80.897 176.949 C 76.290 192.327, 95.387 205.222, 107.935 195.204 C 115.102 189.482, 116.927 180.959, 112.697 172.960 C 108.687 165.376, 98.478 161.910, 90.450 165.407 M 250 173.826 C 250 174.280, 251.125 175.708, 252.500 177 C 253.875 178.292, 255 179.705, 255 180.140 C 255 180.575, 253.603 182.521, 251.896 184.465 C 249.086 187.666, 248.985 188, 250.824 188 C 251.941 188, 253.827 186.764, 255.016 185.252 L 257.177 182.505 259.602 185.323 C 260.935 186.873, 262.713 187.997, 263.553 187.821 C 264.743 187.571, 264.434 186.728, 262.152 184.003 L 259.224 180.505 262.196 176.753 C 264.883 173.359, 264.980 173, 263.199 173 C 262.116 173, 260.463 174.171, 259.526 175.601 L 257.821 178.203 255.106 175.601 C 252.439 173.046, 250 172.198, 250 173.826 M 99.996 178.750 C 98.158 181.363, 96.467 183.725, 96.241 184 C 96.014 184.275, 94.978 183.452, 93.940 182.172 C 92.902 180.891, 91.331 179.991, 90.448 180.172 C 89.138 180.440, 89.415 181.287, 91.956 184.788 C 93.667 187.147, 95.472 188.826, 95.966 188.521 C 96.460 188.216, 99.150 184.823, 101.943 180.983 C 106.024 175.372, 106.660 174, 105.181 174 C 104.119 174, 101.922 176.013, 99.996 178.750 M 174.836 242.884 C 170.620 246.523, 167.133 249.838, 167.086 250.250 C 167.038 250.662, 169.033 251, 171.517 251 L 176.034 251 173.517 255.967 C 172.133 258.698, 171 261.201, 171 261.528 C 171 261.855, 174.869 258.832, 179.597 254.811 L 188.195 247.500 183.597 247.195 C 181.069 247.028, 179 246.672, 179 246.405 C 179 246.139, 179.926 244.105, 181.058 241.885 C 182.191 239.666, 182.978 237.495, 182.808 237.059 C 182.639 236.624, 179.051 239.245, 174.836 242.884" stroke="none" fill="#fbfafb" fill-rule="evenodd"/><path d="M 88.476 49.585 C 41.189 76.857, 1.938 99.893, 1.250 100.776 C -0.578 103.125, -0.578 303.881, 1.250 306.210 C 3.110 308.579, 173.067 406.342, 176.118 406.797 C 177.557 407.012, 180.206 406.428, 182.003 405.498 C 195.142 398.704, 351.975 307.374, 353.750 305.483 L 356 303.087 355.921 201.794 C 355.878 146.082, 355.620 101.049, 355.348 101.720 C 355.018 102.533, 354.126 102.141, 352.677 100.547 C 349.077 96.587, 180.619 -0, 177.312 -0 C 175.358 -0, 147.187 15.724, 88.476 49.585 M 0.481 203.500 C 0.481 259.600, 0.602 282.403, 0.750 254.174 C 0.897 225.944, 0.897 180.044, 0.750 152.174 C 0.602 124.303, 0.481 147.400, 0.481 203.500 M 82.916 128.469 C 69.665 131.814, 57.592 139.241, 49.500 149.028 C 39.700 160.880, 33.898 172.455, 31.786 184.366 C 30.370 192.352, 31.940 201.146, 36.903 213.027 C 43.966 229.935, 44.588 240.528, 39.031 249.289 L 36.146 253.839 47.823 256.494 C 64.855 260.367, 63.338 259.554, 62.486 264.353 C 60.994 272.754, 60.216 271.986, 74.982 276.696 C 90.647 281.693, 97.518 283.086, 106.927 283.175 C 116.349 283.263, 119.218 281.719, 120.251 276 C 121.730 267.819, 121.957 267.258, 124.463 265.616 C 125.831 264.720, 130.425 263.503, 134.673 262.913 C 143.369 261.703, 148.814 259.323, 151.920 255.375 C 153.672 253.147, 153.920 251.876, 153.386 247.854 C 152.976 244.760, 153.160 242.512, 153.897 241.624 C 154.531 240.860, 154.950 238.932, 154.829 237.339 C 154.708 235.746, 154.960 233.873, 155.390 233.177 C 155.836 232.457, 155.457 230.820, 154.510 229.375 C 152.271 225.958, 153.136 224.310, 157.832 223.045 C 165.801 220.899, 165.746 217.974, 157.533 207.133 C 151.261 198.854, 150.493 196.769, 151.506 190.760 C 153.091 181.359, 152.254 173.150, 148.511 161.388 C 147.998 159.775, 148.329 159.147, 149.914 158.733 C 152.809 157.976, 153.475 155.528, 152.066 150.827 C 149.472 142.169, 137.526 133.505, 122.500 129.385 C 114.243 127.120, 90.440 126.570, 82.916 128.469 M 242.500 130.449 C 226.282 134.645, 221.829 136.260, 215.795 140.131 C 207.102 145.710, 203.707 151.703, 207.953 153.975 C 209.851 154.991, 209.824 155.192, 206.985 161.195 C 202.035 171.662, 201.165 179.476, 203.584 191.737 C 204.538 196.568, 203.628 198.822, 197.412 207.026 C 194.299 211.137, 191.410 215.400, 190.994 216.500 C 189.802 219.648, 191.686 221.892, 196.549 223.117 C 201.937 224.473, 202.642 225.371, 200.676 228.372 C 198.936 231.027, 199.013 240.106, 200.793 242.250 C 201.518 243.124, 201.730 245.480, 201.364 248.575 C 200.834 253.049, 201.045 253.775, 203.640 256.394 C 207.487 260.276, 211.605 261.872, 220.770 263.034 C 230.316 264.245, 232.681 266.217, 233.910 273.996 C 235.127 281.690, 237.094 283.005, 247.361 282.983 C 258.568 282.959, 270.727 280.181, 289.585 273.337 L 293.669 271.855 292.335 266.709 C 288.444 251.711, 292.977 237.738, 308.969 215.435 C 321.116 198.494, 323.377 193.980, 322.682 188.067 C 322.386 185.555, 322.611 181.605, 323.181 179.288 C 324.677 173.214, 321.512 163.466, 315.063 154.283 C 306.166 141.614, 295.007 134.374, 276.902 129.524 C 264.490 126.199, 258.285 126.366, 242.500 130.449 M 251.764 159.996 C 240.190 163.481, 233.702 175.564, 237.410 186.729 C 240.272 195.345, 248.151 201, 257.293 201 C 272.094 201, 281.894 186.486, 276.547 172.485 C 272.939 163.035, 261.243 157.142, 251.764 159.996 M 91.728 161.289 C 75.179 166.604, 71.647 188.627, 85.771 198.441 C 91.557 202.461, 100.724 203.202, 106.736 200.135 C 115.503 195.662, 120.466 185.158, 118.051 176.188 C 116.809 171.578, 111.289 164.718, 107.062 162.532 C 103.157 160.513, 95.961 159.929, 91.728 161.289 M 248.520 165.229 C 242.632 168.649, 239.831 174.097, 240.273 181.263 C 241.204 196.325, 258.361 203.071, 269.358 192.698 C 275.421 186.980, 276.416 177.845, 271.726 170.954 C 268.107 165.637, 264.656 163.668, 258.263 163.273 C 253.628 162.987, 251.721 163.370, 248.520 165.229 M 90.450 165.407 C 86.464 167.143, 82.344 172.121, 80.897 176.949 C 76.290 192.327, 95.387 205.222, 107.935 195.204 C 115.102 189.482, 116.927 180.959, 112.697 172.960 C 108.687 165.376, 98.478 161.910, 90.450 165.407 M 250 173.826 C 250 174.280, 251.125 175.708, 252.500 177 C 253.875 178.292, 255 179.705, 255 180.140 C 255 180.575, 253.603 182.521, 251.896 184.465 C 249.086 187.666, 248.985 188, 250.824 188 C 251.941 188, 253.827 186.764, 255.016 185.252 L 257.177 182.505 259.602 185.323 C 260.935 186.873, 262.713 187.997, 263.553 187.821 C 264.743 187.571, 264.434 186.728, 262.152 184.003 L 259.224 180.505 262.196 176.753 C 264.883 173.359, 264.980 173, 263.199 173 C 262.116 173, 260.463 174.171, 259.526 175.601 L 257.821 178.203 255.106 175.601 C 252.439 173.046, 250 172.198, 250 173.826 M 99.996 178.750 C 98.158 181.363, 96.467 183.725, 96.241 184 C 96.014 184.275, 94.978 183.452, 93.940 182.172 C 92.902 180.891, 91.331 179.991, 90.448 180.172 C 89.138 180.440, 89.415 181.287, 91.956 184.788 C 93.667 187.147, 95.472 188.826, 95.966 188.521 C 96.460 188.216, 99.150 184.823, 101.943 180.983 C 106.024 175.372, 106.660 174, 105.181 174 C 104.119 174, 101.922 176.013, 99.996 178.750 M 174.836 242.884 C 170.620 246.523, 167.133 249.838, 167.086 250.250 C 167.038 250.662, 169.033 251, 171.517 251 L 176.034 251 173.517 255.967 C 172.133 258.698, 171 261.201, 171 261.528 C 171 261.855, 174.869 258.832, 179.597 254.811 L 188.195 247.500 183.597 247.195 C 181.069 247.028, 179 246.672, 179 246.405 C 179 246.139, 179.926 244.105, 181.058 241.885 C 182.191 239.666, 182.978 237.495, 182.808 237.059 C 182.639 236.624, 179.051 239.245, 174.836 242.884" stroke="none" fill="#8415ea" fill-rule="evenodd"/></svg>