<?xml version="1.0" encoding="UTF-8"?>
<svg width="562px" height="586px" viewBox="0 0 562 586" version="1.1" xmlns="http://www.w3.org/2000/svg" xmlns:xlink="http://www.w3.org/1999/xlink">
    <!-- Generator: Sketch 55.2 (78181) - https://sketchapp.com -->
    <title>symbol-uniswap-ninja</title>
    <desc>Created with Sketch.</desc>
    <defs>
        <path d="M243.237068,34.1739896 L264.730986,0.163311591 L282.930257,41.4572923 L308.563235,11.0739623 L315.713562,45.8312789 C336.773346,59.0457342 349.852701,73.0583204 354.951626,87.8690376 C360.050552,102.679755 401.909639,137.778446 480.528889,193.165113 C497.533576,204.655529 502.761311,216.35096 496.212092,228.251408 C486.388264,246.102079 504.730656,252.358396 480.528889,260.949032 C456.327121,269.539667 439.252781,272.406073 429.368842,260.949032 C422.779549,253.311004 417.579485,247.764137 413.768649,244.30843 L315.713562,244.30843 C297.767157,248.211249 288.793955,256.295966 288.793955,268.562582 C288.793955,280.829197 294.651655,302.677171 306.367055,334.106503 C330.747513,343.727497 344.776595,364.968534 348.454304,397.829614 C352.132012,430.690694 344.397712,465.694839 325.251404,502.842051 C248.871553,477.3134 196.741866,458.340032 168.862344,445.921945 C67.3338385,400.699154 26.5766254,357.517153 46.5907047,316.375941 L35.808884,300.835556 L0.377839541,322.699767 C21.5025049,280.424572 36.285,256.79055 44.7253247,251.797702 C53.1656494,246.804854 39.781924,254.62978 4.57414841,275.272479 C22.2505509,251.860637 31.0887521,234.879614 31.0887521,224.32941 C31.0887521,208.504103 30.0840424,183.905077 51.2058453,165.347817 L13.5564248,193.165113 C28.3226995,160.087971 44.292145,139.671266 61.4647614,131.914997 C78.6373778,124.158728 84.7028475,116.301381 79.6611703,108.342957 L35.808884,131.914997 C54.2466904,99.3546859 74.1777262,81.6994947 95.6019917,78.9494233 C117.026257,76.199352 139.86265,63.701975 164.111171,41.4572923 C174.330013,31.746222 196.767575,29.3184544 231.423858,34.1739896 L243.237068,34.1739896 Z" id="path-1"></path>
    </defs>
    <g id="symbol-uniswap-ninja" stroke="none" stroke-width="1" fill="none" fill-rule="evenodd">
        <g id="Group-52" transform="translate(-28.000000, -95.000000)">
            <g id="Group-49">
                <path d="M75.0187414,412.177372 C66.6986384,423.552627 73.2860227,444.216987 94.7808945,474.17045 C116.275766,504.123913 141.011853,529.374793 168.989153,549.92309 L136.828425,594.227941 L118.475987,702.715109 L208.248006,577.450026 L320.477048,655.32501 C359.240905,611.279051 380.776804,572.797123 385.084748,539.879226 C389.392691,506.96133 379.981051,480.438017 356.849829,460.309287 C349.873155,418.033086 356.272097,397.583006 376.046654,398.959047 L458.417106,422.905837 C469.52165,443.875656 480.509529,455.080028 491.380743,456.518952 C507.687564,458.677339 528.089859,460.309287 541.268444,458.372604 C554.447029,456.43592 559.360628,443.616669 565.037986,428.171267 C570.715344,412.725866 577.802952,412.291267 577.802952,398.959047 C577.802952,385.626827 520.326973,326.928442 493.590532,283.753488 C498.786522,262.99994 495.081769,248.194968 482.476274,239.338574 C469.870779,230.482179 467.407492,222.582876 475.086413,215.640663 L591.030198,101.498966 C499.720971,135.094977 451.724853,152.340742 447.041845,153.236261 L451.803196,132.347543 C431.614593,134.604931 417.539357,140.741328 409.577489,150.756734 L405.228987,104.558854 C377.45605,112.238259 361.329665,126.920246 356.849829,148.604813 C332.228631,135.196785 308.331711,130.603956 285.159069,134.826326 C250.400107,141.159882 254.307898,153.792907 205.091435,156.352977 C155.874972,158.913048 134.923484,176.308832 94.7808945,184.077301 C68.0191685,189.25628 37.6351886,186.712178 3.62895486,176.444995 L42.0207547,215.640663 L13.3435921,244.885441 L64.1916348,247.452905 L56.8080204,256.528427 L83.056419,269.83061 L64.1916348,295.559606 L85.8801971,295.559606 C81.3699761,305.86066 59.1761966,324.685736 19.2988585,352.034833 L70.4946854,343.689541 L19.2988585,395.973607 L61.1660561,387.512018 L32.2083762,427.263646 L75.0187414,412.177372 Z" id="Path-135" fill="#FFFFFF"></path>
                <g id="FINAL">
                    <g id="Group-45">
                        <g id="Group-41">
                            <g id="Group-38" transform="translate(318.400829, 342.169899) rotate(-345.000000) translate(-318.400829, -342.169899) translate(65.900829, 56.169899)">
                                <g id="Group-37" transform="translate(4.602773, 67.837437)">
                                    <g id="clothes" transform="translate(0.232949, 0.443989)">
                                        <mask id="mask-2" fill="white">
                                            <use xlink:href="#path-1"></use>
                                        </mask>
                                        <use id="Mask" fill="#20175F" xlink:href="#path-1"></use>
                                        <path d="M307.360296,337.937101 C334.34072,405.468612 326.704917,460.746057 284.452887,503.769436 C242.200857,546.792814 264.151727,550.995948 350.305497,516.378837 L375.403996,372.749009 L330.719311,331.681868 L306.790107,328.366802 L307.360296,337.937101 Z" id="Path-133" fill="#060129" mask="url(#mask-2)"></path>
                                        <path d="M65.8228094,289.786024 C141.098821,353.54554 235.309319,389.56007 348.454304,397.829614 C461.599288,406.099157 451.630936,448.450198 318.549247,524.882737 L73.9533082,433.292095 L16.6795429,341.431191 L65.8228094,289.786024 Z" id="Path-132" fill="#150E4C" mask="url(#mask-2)"></path>
                                    </g>
                                    <path d="M452.372349,211.313878 C465.226526,214.357646 474.65534,208.567621 480.658791,193.943802 C497.663479,205.434218 502.891213,217.12965 496.341994,229.030097 C486.518166,246.880768 504.860559,253.137085 480.658791,261.727721 C456.457023,270.318356 439.382683,273.184762 429.498744,261.727721 C422.909452,254.089693 417.709387,248.542826 413.898551,245.087119 C426.693572,219.527857 439.518171,208.27011 452.372349,211.313878 Z" id="Path-106" fill="#150E4C"></path>
                                    <path d="M446.996722,226.704361 C453.322935,231.069765 456.486042,237.49677 456.486042,245.985374 C456.486042,258.718281 446.996722,245.985374 446.996722,236.344867 C446.996722,229.917863 446.996722,226.704361 446.996722,226.704361 Z" id="Path-107" fill="#D9B4FC"></path>
                                    <path d="M397.548208,145.378043 C345.978279,162.80928 307.802184,166.367038 283.019922,156.051316 C258.237661,145.735593 234.189063,123.617488 210.874129,89.6969985 C191.409162,79.2759892 201.198346,75.2189907 240.241679,77.5260029 C259.643805,78.6724455 283.624296,68.7807511 304.501759,72.3037846 C318.591574,74.681415 334.967617,81.3680513 353.629886,92.3636934 L397.548208,145.378043 Z" id="Path-126" fill="#4F0397" transform="translate(299.354358, 116.672631) rotate(-6.000000) translate(-299.354358, -116.672631) "></path>
                                    <g id="Group-36" transform="translate(282.748096, 88.617810)">
                                        <ellipse id="Oval" fill="#F6ECFE" cx="16.1211538" cy="16.1113751" rx="16.1211538" ry="16.1113751"></ellipse>
                                        <ellipse id="Oval" fill="#20175F" cx="16.1211538" cy="16.1113751" rx="10.2589161" ry="10.2526932"></ellipse>
                                        <ellipse id="Oval" fill="#FFFFFF" cx="20.5178322" cy="14.6467046" rx="2.93111888" ry="2.92934093"></ellipse>
                                    </g>
                                </g>
                                <path d="M249.751315,101.608202 L271.827798,66.9319199 L284.407587,95.1573676 C288.715546,95.4809635 292.977487,97.6312416 297.193408,101.608202 C301.40933,105.585162 310.408924,109.546971 324.19219,113.493629 C352.754319,126.775169 367.035384,138.898792 367.035384,149.864496 C367.035384,166.313053 386.396093,174.1335 390.233477,168.47868 C396.829374,158.758879 383.974922,153.749682 386.719743,154.523447 C390.705985,155.647169 394.612335,158.026994 397.839265,162.505341 C409.675717,178.932023 392.066734,183.029317 388.281315,184.497028 C378.923088,188.12547 325.450512,194.862871 310.397697,168.47868 C295.344881,142.094489 298.059308,108.007657 289.323755,113.493629 C280.588203,118.979602 279.304225,158.331587 249.751315,154.523447 C220.198406,150.715307 238.138304,168.47868 210.431716,168.47868 C182.725128,168.47868 188.833559,190.8962 151.848322,201.262043 C134.915784,206.007721 153.827839,221.028311 119.012324,235.349158 C84.1968086,249.670004 96.1327648,298.78799 81.7419062,308.408808 C70.7208049,315.77682 66.752071,334.347254 69.8357045,364.12011 L13.8454778,415.52349 L36.7010608,373.488451 L0.309704126,395.780555 C22.006926,352.678016 37.1900813,328.581466 45.85917,323.490906 C54.5282588,318.400345 40.7817849,326.378408 4.61974847,347.425094 C22.7752468,323.555072 31.8529959,306.241723 31.8529959,295.485047 C31.8529959,279.350032 30.8210549,254.269592 52.5153367,235.349158 L13.8454778,263.710851 C29.011973,229.986375 45.4142496,209.170106 63.0523073,201.262043 C80.6903651,193.35398 87.7424187,186.705068 84.208468,181.315305 L36.7010608,201.262043 C55.6385999,168.064513 76.1098405,150.063802 98.1147827,147.25991 C120.119725,144.456019 143.575068,131.714063 168.480814,109.034042 C178.976624,99.1329217 202.022327,96.6576417 237.617923,101.608202 L249.751315,101.608202 Z" id="Path-106" fill="#D456FD"></path>
                                <path d="M248.07279,102.455415 C250.977193,74.6686332 258.613178,57.1860367 270.980744,50.0076257 C282.170901,81.301607 287.765979,101.211971 287.765979,109.738718 C287.765979,122.528838 254.106773,117.022021 248.07279,109.738718 L248.07279,102.455415 Z" id="Path-108" fill="#20175F"></path>
                                <path d="M259.797266,107.657524 C261.72753,89.5412192 266.802401,78.1429923 275.021878,73.4628432 C282.45885,93.8657565 286.177336,106.846829 286.177336,112.40606 C286.177336,120.744907 263.807447,117.154596 259.797266,112.40606 L259.797266,107.657524 Z" id="Path-108" fill="#150E4C"></path>
                                <path d="M293.257196,106.193915 C295.619794,83.2453046 301.824353,68.8060229 311.870872,62.8760697 C320.956213,88.7194322 325.498349,105.162103 325.497281,112.204082 C325.495678,122.767051 298.156504,118.223285 293.256283,112.208972 L293.257196,106.193915 Z" id="Path-108" fill="#20175F" transform="translate(309.376782, 90.705772) rotate(15.000000) translate(-309.376782, -90.705772) "></path>
                                <path d="M302.526755,112.503322 C304.03021,98.0094607 307.978555,88.8899099 314.37179,85.144669 C320.153389,101.466786 323.043852,111.851627 323.043177,116.299193 C323.042164,122.970542 305.644505,120.100815 302.526178,116.302305 L302.526755,112.503322 Z" id="Path-108" fill="#150E4C" transform="translate(312.784677, 102.721322) rotate(15.000000) translate(-312.784677, -102.721322) "></path>
                                <g id="Group-43" transform="translate(293.192958, 0.340833)">
                                    <path d="M1.81543669e-12,111.86694 L143.624825,5.7909233e-12 L49.288931,136.958676 C43.3861456,143.320293 33.9625909,145.009459 21.0182671,142.026174 C8.07394323,139.042889 1.0678542,128.989811 1.81543669e-12,111.86694 Z" id="Path-109" fill="#F8E71C"></path>
                                    <path d="M48.1784647,74.3415512 L143.624825,5.28821431e-12 L80.55614,91.564337 C69.8554588,93.0394093 62.3369429,92.6236193 58.0005923,90.3169671 C53.6642418,88.0103149 50.3901992,82.6851762 48.1784647,74.3415512 Z" id="Path-109" fill="#009AFF"></path>
                                    <path d="M99.0568184,45.3720566 C96.623156,43.6780733 95.4755201,41.0190167 95.6139108,37.3948868 L143.624825,1.36957112e-12 L110.655834,47.8650189 C105.356819,47.8970273 101.490481,47.0660399 99.0568184,45.3720566 Z" id="Path-109" fill="#BD10E0"></path>
                                </g>
                            </g>
                            <polygon id="Path-127" fill="#4F0397" points="326.786981 216.646063 326.786981 202.80768 310.942395 202.80768 301.531842 219.435785 310.942395 226.053982"></polygon>
                            <path d="M311.317227,205.239874 C262.150968,168.090991 211.326721,159.591096 158.844487,179.74019 C106.362254,199.889284 67.4210093,206.47679 42.0207547,199.502709 L63.0709971,217.243076 L46.0151859,231.935448 C78.9659312,235.652648 100.590561,232.980561 110.889075,223.919188 C126.336847,210.327128 189.575905,180.940199 222.82928,182.67094 C244.998197,183.824767 275.593374,195.348813 314.61481,217.243076 L311.317227,205.239874 Z" id="Path-128" stroke="#4F0397" fill="#4F0397"></path>
                            <path d="M308.783793,203.860426 C258.29347,182.423806 213.785697,185.184572 175.260473,212.142722 C136.73525,239.100873 106.000565,252.133835 83.056419,251.241609 L106.751511,265.51863 L94.7184205,277.497524 C123.113065,274.21292 140.433904,267.797309 146.680939,258.250692 C156.051492,243.930765 201.160048,207.190159 229.296153,202.191409 C248.053557,198.858909 276.493109,202.536848 314.61481,213.225225 L308.783793,203.860426 Z" id="Path-128" stroke="#4F0397" fill="#4F0397"></path>
                        </g>
                        <g id="Group-40" transform="translate(95.078247, 364.120026)">
                            <g id="Group-44" transform="translate(124.591347, 154.295895) rotate(35.000000) translate(-124.591347, -154.295895) translate(87.091347, -7.704105)">
                                <g id="Group-39" transform="translate(0.340192, 0.407627)">
                                    <polygon id="Rectangle" fill="#009AFF" points="26.1707043 115.268375 49.7243381 115.268375 49.7243381 322.227502 26.5354419 273.44425"></polygon>
                                    <ellipse id="Oval" fill="#F8E71C" cx="36.638986" cy="107.409167" rx="36.638986" ry="13.0986789"></ellipse>
                                    <rect id="Rectangle" fill="#9013FE" x="26.1707043" y="0" width="23.5536339" height="107.409167"></rect>
                                    <polygon id="Rectangle" fill="#FFFFFF" transform="translate(37.405418, 13.310002) rotate(-315.000000) translate(-37.405418, -13.310002) " points="33.6172828 9.52186638 43.3699042 7.3455156 41.1935535 17.098137 31.440932 19.2744878"></polygon>
                                    <polygon id="Rectangle" fill="#FFFFFF" transform="translate(37.405418, 31.726941) rotate(-315.000000) translate(-37.405418, -31.726941) " points="33.6172828 27.9388059 43.3699042 25.7624552 41.1935535 35.5150766 31.440932 37.6914273"></polygon>
                                    <polygon id="Rectangle" fill="#FFFFFF" transform="translate(37.405418, 50.143881) rotate(-315.000000) translate(-37.405418, -50.143881) " points="33.6172828 46.3557455 43.3699042 44.1793947 41.1935535 53.9320161 31.440932 56.1083669"></polygon>
                                    <polygon id="Rectangle" fill="#FFFFFF" transform="translate(37.405418, 68.560820) rotate(-315.000000) translate(-37.405418, -68.560820) " points="33.6172828 64.772685 43.3699042 62.5963343 41.1935535 72.3489557 31.440932 74.5253065"></polygon>
                                    <polygon id="Rectangle" fill="#FFFFFF" transform="translate(37.405418, 86.977760) rotate(-315.000000) translate(-37.405418, -86.977760) " points="33.6172828 83.1896246 43.3699042 81.0132738 41.1935535 90.7658952 31.440932 92.942246"></polygon>
                                </g>
                            </g>
                        </g>
                        <path d="M162.196629,431.220417 L172.145176,456.429995 L197.370055,466.372508 L172.145176,476.315021 L162.196629,501.524599 L152.248081,476.315021 L127.023202,466.372508 L152.248081,456.429995 L162.196629,431.220417 Z M163.662188,472.23119 C167.709219,472.23119 170.989985,468.952413 170.989985,464.907837 C170.989985,460.863262 167.709219,457.584485 163.662188,457.584485 C159.615158,457.584485 156.334391,460.863262 156.334391,464.907837 C156.334391,468.952413 159.615158,472.23119 163.662188,472.23119 Z" id="Combined-Shape" fill="#FFFFFF"></path>
                        <path d="M127.023202,396.068326 L135.313658,417.076308 L156.334391,425.361735 L135.313658,433.647162 L127.023202,454.655144 L118.732746,433.647162 L97.7120134,425.361735 L118.732746,417.076308 L127.023202,396.068326 Z M127.023202,431.220417 C130.260827,431.220417 132.88544,428.597396 132.88544,425.361735 C132.88544,422.126074 130.260827,419.503053 127.023202,419.503053 C123.785578,419.503053 121.160964,422.126074 121.160964,425.361735 C121.160964,428.597396 123.785578,431.220417 127.023202,431.220417 Z" id="Combined-Shape" fill="#FFFFFF"></path>
                    </g>
                    <g id="Group-47" transform="translate(235.072543, 496.061843) rotate(8.000000) translate(-235.072543, -496.061843) translate(202.572543, 476.561843)" fill="#20175F">
                        <ellipse id="Oval" cx="5.86223776" cy="5.85868185" rx="5.86223776" ry="5.85868185"></ellipse>
                        <ellipse id="Oval" cx="58.6223776" cy="32.2227502" rx="5.86223776" ry="5.85868185"></ellipse>
                        <path d="M5.93658503,6.31926363 C13.2971381,28.5252485 31.0959681,37.6733801 58.8317481,33.6723973 L58.413007,30.7731031 C31.9970548,34.5836961 15.5994978,26.1557821 8.71900937,5.39810007 L5.93658503,6.31926363 Z" id="Path-134" fill-rule="nonzero"></path>
                    </g>
                </g>
            </g>
        </g>
    </g>
</svg>