<svg width="190" height="75" viewBox="0 0 190 75" fill="none" xmlns="http://www.w3.org/2000/svg">
<path fill-rule="evenodd" clip-rule="evenodd" d="M75 37.5C75 58.2107 58.2107 75 37.5 75C16.7893 75 0 58.2107 0 37.5C0 16.7893 16.7893 0 37.5 0C58.2107 0 75 16.7893 75 37.5ZM49.2733 36.1919C47.093 40.5523 44.2558 43.6047 39.6802 43.6047C35.1046 43.6047 31.3953 39.8954 31.3953 35.3198C31.3953 30.7441 34.6657 27.907 39.6802 25.5087C39.6802 25.5087 52.5436 20.7122 53.4157 21.5843C54.2878 22.4564 49.2733 36.1919 49.2733 36.1919ZM61.1443 52.3256C61.2974 52.2413 61.6758 52.5482 61.4281 53.1991C56.2689 59.3305 48.5386 63.2267 39.8983 63.2267C24.3652 63.2267 11.7733 50.6347 11.7733 35.1017C11.7733 26.6219 15.5261 19.0186 21.4614 13.862C22.4234 13.2347 22.8247 13.4419 22.6744 13.716C20.4509 17.7728 19.186 22.4327 19.186 27.389C19.186 43.0877 31.8757 55.814 47.5291 55.814C52.4636 55.814 57.1035 54.5493 61.1443 52.3256Z" fill="#CBC6DA"/>
<path d="M116.031 37.4917C116.031 41.4452 115.028 44.5183 113.022 46.711C111.027 48.9037 108.197 50 104.532 50C100.823 50 97.9705 48.9147 95.9756 46.7442C93.9919 44.5626 93 41.4673 93 37.4585C93 33.4496 93.9975 30.371 95.9924 28.2226C97.9985 26.0742 100.856 25 104.566 25C108.22 25 111.044 26.0908 113.039 28.2724C115.034 30.454 116.031 33.5271 116.031 37.4917ZM97.27 37.4917C97.27 40.4817 97.8808 42.7519 99.1024 44.3023C100.324 45.8416 102.134 46.6113 104.532 46.6113C106.92 46.6113 108.718 45.8472 109.929 44.3189C111.15 42.7907 111.761 40.515 111.761 37.4917C111.761 34.5127 111.156 32.2536 109.946 30.7143C108.746 29.175 106.953 28.4053 104.566 28.4053C102.156 28.4053 100.335 29.175 99.1024 30.7143C97.8808 32.2536 97.27 34.5127 97.27 37.4917Z" fill="#CBC6DA"/>
<path d="M136.558 49.6678H132.59V38.3389C132.59 36.9324 132.321 35.8859 131.783 35.1993C131.245 34.5017 130.405 34.1528 129.262 34.1528C127.737 34.1528 126.617 34.6456 125.899 35.6312C125.193 36.6058 124.84 38.2337 124.84 40.515V49.6678H120.89V31.2957H123.983L124.538 33.7043H124.739C125.255 32.8295 126 32.1539 126.975 31.6777C127.961 31.2016 129.043 30.9635 130.22 30.9635C133.078 30.9635 134.972 31.9269 135.902 33.8538H136.171C136.72 32.9457 137.493 32.237 138.491 31.7276C139.488 31.2182 140.631 30.9635 141.92 30.9635C144.139 30.9635 145.753 31.5172 146.762 32.6246C147.782 33.732 148.292 35.4208 148.292 37.691V49.6678H144.341V38.3389C144.341 36.9324 144.066 35.8859 143.517 35.1993C142.979 34.5017 142.139 34.1528 140.996 34.1528C139.46 34.1528 138.334 34.629 137.617 35.5814C136.911 36.5227 136.558 37.9734 136.558 39.9336V49.6678Z" fill="#CBC6DA"/>
<path d="M161.925 50C159.034 50 156.77 49.1694 155.134 47.5083C153.509 45.8361 152.696 43.5382 152.696 40.6146C152.696 37.6135 153.453 35.2547 154.966 33.5382C156.479 31.8217 158.558 30.9635 161.203 30.9635C163.657 30.9635 165.596 31.6999 167.019 33.1728C168.443 34.6456 169.154 36.6722 169.154 39.2525V41.3621H156.764C156.821 43.1451 157.308 44.5183 158.227 45.4817C159.146 46.4341 160.44 46.9103 162.11 46.9103C163.209 46.9103 164.229 46.8106 165.17 46.6113C166.123 46.4009 167.143 46.0576 168.23 45.5814V48.7542C167.266 49.2082 166.291 49.5293 165.305 49.7176C164.318 49.9059 163.192 50 161.925 50ZM161.203 33.9203C159.947 33.9203 158.939 34.3134 158.177 35.0997C157.426 35.8859 156.977 37.0321 156.832 38.5382H165.271C165.248 37.021 164.879 35.8749 164.161 35.0997C163.444 34.3134 162.458 33.9203 161.203 33.9203Z" fill="#CBC6DA"/>
<path d="M190 49.6678H186.033V38.3721C186.033 36.9546 185.741 35.897 185.158 35.1993C184.587 34.5017 183.673 34.1528 182.418 34.1528C180.748 34.1528 179.527 34.6401 178.753 35.6146C177.98 36.5891 177.593 38.2226 177.593 40.515V49.6678H173.643V31.2957H176.736L177.291 33.7043H177.493C178.053 32.8295 178.849 32.1539 179.88 31.6777C180.911 31.2016 182.054 30.9635 183.309 30.9635C187.77 30.9635 190 33.206 190 37.691V49.6678Z" fill="#CBC6DA"/>
</svg>
