<svg width="1049" height="412" viewBox="0 0 1049 412" fill="none" xmlns="http://www.w3.org/2000/svg">
<path fill-rule="evenodd" clip-rule="evenodd" d="M720.451 205.931C720.451 319.384 628.619 411.357 515.34 411.357C402.06 411.357 310.228 319.384 310.228 205.931C310.228 92.4765 402.06 0.503906 515.34 0.503906C628.619 0.503906 720.451 92.4765 720.451 205.931ZM704.866 205.933C704.866 310.766 620.012 395.75 515.34 395.75C410.667 395.75 325.813 310.766 325.813 205.933C325.813 101.1 410.667 16.1153 515.34 16.1153C620.012 16.1153 704.866 101.1 704.866 205.933ZM529.452 339.226C529.386 338.684 529.291 338.141 529.166 337.598C527.232 329.2 518.863 323.967 510.474 325.908C503.992 327.408 499.395 332.753 498.532 338.979C432.553 330.824 381.475 274.486 381.475 206.201C381.475 193.521 383.236 181.254 386.526 169.63C388.684 170.089 390.974 170.094 393.265 169.563C401.654 167.622 406.887 159.241 404.952 150.843C404.006 146.733 401.518 143.381 398.24 141.257C421.048 100.192 464.815 72.4086 515.062 72.4086C550.048 72.4086 581.894 85.8791 605.709 107.924C603.055 111.476 601.923 116.13 602.996 120.788C604.93 129.186 613.298 134.42 621.687 132.478C623.076 132.157 624.378 131.659 625.575 131.014C640.137 152.442 648.648 178.326 648.648 206.201C648.648 275.223 596.462 332.037 529.452 339.226ZM529.108 344.866C527.735 350.383 523.39 354.95 517.478 356.318C509.089 358.26 500.721 353.026 498.787 344.628L498.786 344.624C429.603 336.552 375.909 277.657 375.909 206.201C375.909 192.772 377.805 179.786 381.344 167.498C378.038 165.376 375.525 162.008 374.573 157.874C372.639 149.476 377.872 141.095 386.261 139.153C388.577 138.617 390.891 138.628 393.069 139.101C416.74 96.0237 462.497 66.8339 515.062 66.8339C551.659 66.8339 584.956 80.9837 609.798 104.119C611.258 103.185 612.899 102.481 614.683 102.068C623.073 100.127 631.441 105.36 633.375 113.758C634.541 118.822 633.102 123.879 629.935 127.523C645.253 149.913 654.215 177.009 654.215 206.201C654.215 278.422 599.363 337.813 529.108 344.866ZM565.399 133.591L476.659 129.647L424.838 193.836L461.417 279.852L550.64 285.534L601.327 212.979L565.399 133.591ZM477.233 203.833L541.403 176.003L532.094 245.939L477.233 203.833ZM482.692 140.14L533.973 162.058L471.919 186.224L482.692 140.14ZM465.242 217.028L520.975 256.533L466.59 270.559L465.242 217.028ZM553.997 174.991L591.977 213.246L543.973 248.555L553.997 174.991ZM487.039 277.332L534.042 265.137L542.315 280.846L487.039 277.332ZM543.409 261.028L584.555 230.603L551.585 276.889L543.409 261.028ZM557.101 161.69L565.093 145.405L586.847 191.704L557.101 161.69ZM502.901 135.507L555.136 137.612L545.988 154.215L502.901 135.507ZM432.275 191.002L468.862 145.143L456.736 196.145L432.275 191.002ZM430.682 199.975L455.261 205.141L456.329 259.951L430.682 199.975ZM704.212 91.7466L691.829 50.3763L652.049 33.7156L738.43 8.34495L738.424 8.35849L738.43 8.35348L704.214 91.7522L704.212 91.7466Z" fill="url(#paint0_linear)"/>
<path fill-rule="evenodd" clip-rule="evenodd" d="M938.254 149.754C938.254 202.843 895.282 245.881 842.274 245.881C789.266 245.881 746.295 202.843 746.295 149.754C746.295 96.6645 789.266 53.627 842.274 53.627C895.282 53.627 938.254 96.6645 938.254 149.754ZM930.961 149.755C930.961 198.811 891.255 238.578 842.274 238.578C793.294 238.578 753.588 198.811 753.588 149.755C753.588 100.7 793.294 60.9325 842.274 60.9325C891.255 60.9325 930.961 100.7 930.961 149.755Z" fill="#9013FE" fill-opacity="0.16"/>
<path fill-rule="evenodd" clip-rule="evenodd" d="M848.878 212.131C848.847 211.878 848.803 211.624 848.744 211.371C847.839 207.441 843.924 204.992 839.998 205.9C836.965 206.602 834.814 209.103 834.41 212.015C803.536 208.2 779.634 181.837 779.634 149.883C779.634 143.951 780.458 138.211 781.998 132.772C783.007 132.986 784.079 132.989 785.151 132.741C789.077 131.832 791.526 127.91 790.62 123.981C790.177 122.057 789.013 120.488 787.479 119.495C798.152 100.278 818.632 87.277 842.145 87.277C858.517 87.277 873.419 93.5807 884.563 103.897C883.321 105.559 882.79 107.737 883.293 109.918C884.198 113.847 888.114 116.296 892.039 115.388C892.689 115.237 893.299 115.004 893.859 114.702C900.673 124.729 904.655 136.84 904.655 149.883C904.655 182.182 880.235 208.767 848.878 212.131ZM848.718 214.77C848.076 217.353 846.042 219.49 843.275 220.131C839.35 221.039 835.434 218.59 834.529 214.66C834.529 214.659 834.528 214.658 834.528 214.657C802.155 210.88 777.03 183.32 777.03 149.883C777.03 143.6 777.917 137.524 779.573 131.774C778.026 130.781 776.85 129.205 776.405 127.271C775.5 123.341 777.948 119.419 781.874 118.511C782.957 118.26 784.04 118.265 785.059 118.486C796.136 98.3279 817.547 84.6684 842.145 84.6684C859.27 84.6684 874.852 91.2901 886.476 102.117C887.159 101.68 887.927 101.351 888.762 101.158C892.687 100.249 896.603 102.698 897.508 106.628C898.054 108.997 897.38 111.363 895.899 113.068C903.067 123.545 907.26 136.224 907.26 149.883C907.26 183.679 881.593 211.47 848.718 214.77Z" fill="#9013FE" fill-opacity="0.16"/>
<path fill-rule="evenodd" clip-rule="evenodd" d="M824.174 114.059L865.699 115.904L882.511 153.053L858.793 187.004L817.042 184.345L799.925 144.095L824.174 114.059ZM854.47 135.751L824.443 148.773L850.115 168.476L854.47 135.751ZM850.994 129.225L826.997 118.969L821.956 140.533L850.994 129.225ZM844.912 173.433L818.832 154.948L819.463 179.997L844.912 173.433ZM878.136 153.178L860.364 135.277L855.673 169.7L878.136 153.178ZM851.026 177.46L829.031 183.166L854.897 184.811L851.026 177.46ZM874.663 161.3L855.409 175.537L859.235 182.959L874.663 161.3ZM865.556 121.432L861.816 129.053L875.736 143.098L865.556 121.432ZM860.896 117.786L836.454 116.801L856.616 125.555L860.896 117.786ZM820.526 121.31L803.405 142.769L814.852 145.176L820.526 121.31ZM814.161 149.385L802.66 146.968L814.661 175.033L814.161 149.385Z" fill="#9013FE" fill-opacity="0.16"/>
<path fill-rule="evenodd" clip-rule="evenodd" d="M946.667 57.2969L930.655 96.3237L924.86 76.9649L906.246 69.1688L946.667 57.2969Z" fill="#9013FE" fill-opacity="0.16"/>
<path fill-rule="evenodd" clip-rule="evenodd" d="M946.667 57.3008L930.656 96.3262L924.862 76.9681L946.667 57.3008Z" fill="#9013FE" fill-opacity="0.16"/>
<path fill-rule="evenodd" clip-rule="evenodd" d="M294.203 149.754C294.203 202.843 251.232 245.881 198.224 245.881C145.216 245.881 102.244 202.843 102.244 149.754C102.244 96.6645 145.216 53.627 198.224 53.627C251.232 53.627 294.203 96.6645 294.203 149.754ZM286.91 149.755C286.91 198.811 247.204 238.578 198.224 238.578C149.243 238.578 109.537 198.811 109.537 149.755C109.537 100.7 149.243 60.9325 198.224 60.9325C247.204 60.9325 286.91 100.7 286.91 149.755Z" fill="#9013FE" fill-opacity="0.16"/>
<path fill-rule="evenodd" clip-rule="evenodd" d="M204.827 212.131C204.796 211.878 204.752 211.624 204.693 211.371C203.788 207.441 199.873 204.992 195.947 205.9C192.914 206.602 190.763 209.103 190.359 212.015C159.485 208.199 135.583 181.837 135.583 149.883C135.583 143.951 136.407 138.211 137.947 132.772C138.957 132.986 140.028 132.989 141.1 132.741C145.026 131.832 147.475 127.91 146.569 123.981C146.126 122.057 144.962 120.489 143.428 119.495C154.101 100.278 174.581 87.277 198.094 87.277C214.466 87.277 229.368 93.5807 240.512 103.897C239.27 105.559 238.739 107.737 239.242 109.918C240.147 113.847 244.063 116.296 247.988 115.388C248.638 115.237 249.248 115.004 249.808 114.702C256.622 124.729 260.604 136.84 260.604 149.883C260.604 182.182 236.184 208.767 204.827 212.131ZM204.667 214.77C204.025 217.353 201.991 219.49 199.224 220.131C195.299 221.039 191.383 218.59 190.478 214.66C190.478 214.659 190.477 214.658 190.477 214.657C158.104 210.88 132.979 183.32 132.979 149.883C132.979 143.6 133.866 137.524 135.522 131.774C133.975 130.781 132.799 129.205 132.354 127.271C131.449 123.341 133.897 119.419 137.823 118.511C138.906 118.26 139.989 118.265 141.008 118.486C152.085 98.3279 173.497 84.6684 198.094 84.6684C215.22 84.6684 230.801 91.29 242.426 102.116C243.109 101.68 243.876 101.351 244.711 101.158C248.636 100.249 252.552 102.698 253.457 106.628C254.003 108.997 253.329 111.363 251.848 113.068C259.016 123.545 263.209 136.224 263.209 149.883C263.209 183.679 237.542 211.47 204.667 214.77Z" fill="#9013FE" fill-opacity="0.16"/>
<path fill-rule="evenodd" clip-rule="evenodd" d="M180.123 114.059L221.649 115.904L238.46 153.053L214.742 187.004L172.991 184.345L155.875 144.095L180.123 114.059ZM210.42 135.751L180.392 148.773L206.064 168.476L210.42 135.751ZM206.943 129.225L182.946 118.969L177.906 140.533L206.943 129.225ZM200.861 173.433L174.781 154.948L175.412 179.997L200.861 173.433ZM234.085 153.178L216.313 135.277L211.622 169.7L234.085 153.178ZM206.975 177.46L184.98 183.166L210.846 184.811L206.975 177.46ZM230.612 161.3L211.359 175.537L215.184 182.959L230.612 161.3ZM221.505 121.432L217.765 129.053L231.685 143.098L221.505 121.432ZM216.846 117.786L192.403 116.801L212.565 125.555L216.846 117.786ZM176.475 121.31L159.355 142.769L170.801 145.176L176.475 121.31ZM170.111 149.385L158.609 146.968L170.61 175.033L170.111 149.385Z" fill="#9013FE" fill-opacity="0.16"/>
<path fill-rule="evenodd" clip-rule="evenodd" d="M302.616 57.2969L286.604 96.3237L280.81 76.9649L262.195 69.1688L302.616 57.2969Z" fill="#9013FE" fill-opacity="0.16"/>
<path fill-rule="evenodd" clip-rule="evenodd" d="M302.616 57.3008L286.605 96.3262L280.811 76.9681L302.616 57.3008Z" fill="#9013FE" fill-opacity="0.16"/>
<path fill-rule="evenodd" clip-rule="evenodd" d="M1045.02 104.313C1045.02 129.41 1024.71 149.755 999.651 149.755C974.593 149.755 954.279 129.41 954.279 104.313C954.279 79.2161 974.593 58.8711 999.651 58.8711C1024.71 58.8711 1045.02 79.2161 1045.02 104.313ZM1041.58 104.313C1041.58 127.502 1022.81 146.302 999.651 146.302C976.497 146.302 957.726 127.502 957.726 104.313C957.726 81.1226 976.497 62.3235 999.651 62.3235C1022.81 62.3235 1041.58 81.1226 1041.58 104.313Z" fill="#9013FE" fill-opacity="0.12"/>
<path fill-rule="evenodd" clip-rule="evenodd" d="M1002.77 133.799C1002.76 133.679 1002.74 133.56 1002.71 133.44C1002.28 131.582 1000.43 130.425 998.574 130.854C997.141 131.186 996.124 132.367 995.933 133.744C981.338 131.94 970.039 119.478 970.039 104.373C970.039 101.568 970.428 98.8552 971.156 96.2844C971.633 96.3858 972.14 96.387 972.647 96.2696C974.502 95.8402 975.66 93.9862 975.232 92.1286C975.023 91.2192 974.472 90.4776 973.747 90.0078C978.792 80.9233 988.474 74.7768 999.589 74.7768C1007.33 74.7768 1014.37 77.7567 1019.64 82.6333C1019.05 83.4191 1018.8 84.4486 1019.04 85.4792C1019.47 87.3368 1021.32 88.4946 1023.18 88.0651C1023.48 87.994 1023.77 87.8839 1024.04 87.7411C1027.26 92.4811 1029.14 98.2067 1029.14 104.373C1029.14 119.641 1017.6 132.209 1002.77 133.799ZM1002.7 135.046C1002.39 136.267 1001.43 137.278 1000.12 137.581C998.268 138.011 996.417 136.853 995.989 134.995C995.989 134.994 995.988 134.994 995.988 134.993C980.685 133.207 968.807 120.179 968.807 104.373C968.807 101.402 969.227 98.5305 970.01 95.8127C969.278 95.3433 968.722 94.5984 968.512 93.6838C968.084 91.8262 969.242 89.9722 971.097 89.5427C971.609 89.4242 972.121 89.4266 972.603 89.5311C977.839 80.0013 987.961 73.5437 999.589 73.5437C1007.68 73.5437 1015.05 76.6738 1020.55 81.7916C1020.87 81.5852 1021.23 81.4294 1021.63 81.3381C1023.48 80.9087 1025.33 82.0664 1025.76 83.924C1026.02 85.0441 1025.7 86.1628 1025 86.9687C1028.39 91.9216 1030.37 97.9153 1030.37 104.373C1030.37 120.349 1018.24 133.486 1002.7 135.046Z" fill="#9013FE" fill-opacity="0.12"/>
<path fill-rule="evenodd" clip-rule="evenodd" d="M991.094 87.4375L1010.72 88.3101L1018.67 105.871L1007.46 121.921L987.723 120.664L979.631 101.637L991.094 87.4375ZM1005.42 97.6919L991.222 103.848L1003.36 113.162L1005.42 97.6919ZM1003.77 94.6071L992.429 89.7586L990.046 99.9528L1003.77 94.6071ZM1000.9 115.506L988.569 106.767L988.867 118.608L1000.9 115.506ZM1016.6 105.93L1008.2 97.4679L1005.98 113.741L1016.6 105.93ZM1003.79 117.409L993.391 120.107L1005.62 120.884L1003.79 117.409ZM1014.96 109.77L1005.86 116.5L1007.67 120.009L1014.96 109.77ZM1010.66 90.9233L1008.89 94.5257L1015.47 101.165L1010.66 90.9233ZM1008.45 89.1994L996.899 88.7339L1006.43 92.8721L1008.45 89.1994ZM989.37 90.8653L981.276 101.01L986.687 102.147L989.37 90.8653ZM986.361 104.137L980.924 102.995L986.597 116.262L986.361 104.137Z" fill="#9013FE" fill-opacity="0.12"/>
<path fill-rule="evenodd" clip-rule="evenodd" d="M1049 60.6055L1041.43 79.0545L1038.69 69.9031L1029.89 66.2176L1049 60.6055Z" fill="#9013FE" fill-opacity="0.12"/>
<path fill-rule="evenodd" clip-rule="evenodd" d="M1049 60.6074L1041.43 79.0558L1038.69 69.9047L1049 60.6074Z" fill="#9013FE" fill-opacity="0.12"/>
<path fill-rule="evenodd" clip-rule="evenodd" d="M90.7443 104.313C90.7443 129.41 70.4305 149.755 45.3721 149.755C20.3138 149.755 0 129.41 0 104.313C0 79.2161 20.3138 58.8711 45.3721 58.8711C70.4305 58.8711 90.7443 79.2161 90.7443 104.313ZM87.2967 104.313C87.2967 127.502 68.5264 146.302 45.3721 146.302C22.2178 146.302 3.44752 127.502 3.44752 104.313C3.44752 81.1226 22.2178 62.3235 45.3721 62.3235C68.5264 62.3235 87.2967 81.1226 87.2967 104.313Z" fill="#9013FE" fill-opacity="0.12"/>
<path fill-rule="evenodd" clip-rule="evenodd" d="M48.4936 133.799C48.4789 133.679 48.4579 133.56 48.4304 133.44C48.0025 131.582 46.1514 130.425 44.2957 130.854C42.8624 131.186 41.8456 132.367 41.6541 133.744C27.059 131.94 15.7599 119.478 15.76 104.373C15.76 101.568 16.1494 98.8551 16.877 96.2843C17.3544 96.3858 17.8611 96.387 18.3681 96.2697C20.2238 95.8402 21.3813 93.9862 20.9535 92.1286C20.744 91.2191 20.1934 90.4774 19.4681 90.0076C24.5131 80.9232 34.195 74.7768 45.3103 74.7768C53.0497 74.7768 60.0942 77.7567 65.3624 82.6334C64.7753 83.4191 64.5247 84.4486 64.7621 85.4792C65.1899 87.3368 67.0411 88.4946 68.8968 88.0651C69.204 87.994 69.4921 87.8839 69.757 87.7412C72.978 92.4811 74.8607 98.2067 74.8607 104.373C74.8607 119.641 63.3168 132.209 48.4936 133.799ZM48.4179 135.046C48.1146 136.267 47.1533 137.278 45.845 137.581C43.9893 138.011 42.1381 136.853 41.7103 134.995C41.7101 134.994 41.71 134.994 41.7098 134.993C26.4061 133.207 14.5287 120.179 14.5287 104.373C14.5287 101.402 14.9481 98.5303 15.7308 95.8125C14.9995 95.3431 14.4439 94.5983 14.2333 93.6838C13.8055 91.8262 14.963 89.9722 16.8187 89.5427C17.3307 89.4242 17.8424 89.4266 18.3239 89.5311C23.56 80.0013 33.6822 73.5437 45.3103 73.5437C53.4061 73.5437 60.7718 76.6738 66.267 81.7916C66.5899 81.5852 66.9529 81.4294 67.3475 81.3381C69.2032 80.9087 71.0544 82.0664 71.4822 83.924C71.7402 85.0441 71.4218 86.1628 70.7215 86.9688C74.1097 91.9217 76.092 97.9153 76.092 104.373C76.092 120.348 63.9588 133.486 48.4179 135.046Z" fill="#9013FE" fill-opacity="0.12"/>
<path fill-rule="evenodd" clip-rule="evenodd" d="M36.8156 87.4375L56.4457 88.3101L64.3932 105.871L53.1808 121.921L33.444 120.664L25.3525 101.637L36.8156 87.4375ZM51.1375 97.6919L36.9427 103.848L49.0784 113.162L51.1375 97.6919ZM49.4941 94.6071L38.1501 89.7586L35.7672 99.9528L49.4941 94.6071ZM46.6188 115.506L34.2901 106.767L34.5883 118.608L46.6188 115.506ZM62.3248 105.93L53.9234 97.4679L51.706 113.741L62.3248 105.93ZM49.5093 117.409L39.1117 120.107L51.3392 120.884L49.5093 117.409ZM60.683 109.77L51.5814 116.5L53.3899 120.009L60.683 109.77ZM56.3779 90.9233L54.6101 94.5257L61.1901 101.165L56.3779 90.9233ZM54.1753 89.1994L42.6206 88.7339L52.1518 92.8721L54.1753 89.1994ZM35.0909 90.8653L26.9976 101.01L32.4087 102.147L35.0909 90.8653ZM32.0824 104.137L26.6453 102.995L32.3185 116.262L32.0824 104.137Z" fill="#9013FE" fill-opacity="0.12"/>
<path fill-rule="evenodd" clip-rule="evenodd" d="M94.7212 60.6055L87.1519 79.0545L84.4127 69.9031L75.6132 66.2176L94.7212 60.6055Z" fill="#9013FE" fill-opacity="0.12"/>
<path fill-rule="evenodd" clip-rule="evenodd" d="M94.7212 60.6074L87.1524 79.0558L84.4133 69.9047L94.7212 60.6074Z" fill="#9013FE" fill-opacity="0.12"/>
<defs>
<linearGradient id="paint0_linear" x1="524.329" y1="0.503906" x2="524.329" y2="411.357" gradientUnits="userSpaceOnUse">
<stop stop-color="#9013FE"/>
<stop offset="1" stop-color="#9013FE" stop-opacity="0"/>
</linearGradient>
</defs>
</svg>
