<svg width="139" height="139" viewBox="0 0 139 139" fill="none" xmlns="http://www.w3.org/2000/svg">
<circle cx="69.5" cy="69.5" r="69.5" fill="white"/>
<path d="M119.141 72.4382L90.7609 43.696L83.2969 98.8324L119.141 72.4382Z" fill="#656569"/>
<path d="M39.1992 65.9735L90.7665 43.696L83.3025 98.8324L39.1992 65.9735Z" fill="url(#paint0_linear)"/>
<path d="M90.7665 43.6954L48.8684 25.5305L39.1992 65.9729L90.7665 43.6954Z" fill="url(#paint1_linear)"/>
<path d="M39.1992 65.9724L40.1867 110.079L83.3024 98.8313L39.1992 65.9724Z" fill="url(#paint2_linear)"/>
<path d="M90.7633 43.6954L98.6845 27.7512L48.8652 25.5305L90.7633 43.6954Z" fill="#757578"/>
<path d="M98.6868 27.7505L119.145 72.4368L90.7656 43.6946L98.6868 27.7505Z" fill="#6C6D70"/>
<path d="M119.141 72.4358L90.4986 113.12L83.2969 98.83L119.141 72.4358Z" fill="#6C6D70"/>
<path d="M90.503 113.12L40.1855 110.077L83.3013 98.8301L90.503 113.12Z" fill="#55565A"/>
<path d="M48.8643 25.5305L19.8574 61.7173L39.1951 65.9729L48.8643 25.5305Z" fill="#55565A"/>
<path d="M19.8574 61.7185L40.1826 110.08L39.1951 65.974L19.8574 61.7185Z" fill="#656569"/>
<path opacity="0.7" d="M85.4858 51.2903L80.2589 90.8175L49.4531 67.0198L85.4858 51.2903Z" fill="#151A22"/>
<path opacity="0.7" d="M81.3158 43.4055L52.5197 31.0173L46.4707 57.0641L81.3158 43.4055Z" fill="#151A22"/>
<path opacity="0.7" d="M74.0106 96.8058L42.7148 74.4778L43.4719 104.733L74.0106 96.8058Z" fill="#23262E"/>
<path opacity="0.7" d="M113.883 72.3377L92.5567 50.7158L86.9277 92.2944L113.883 72.3377Z" fill="#23262E"/>
<path opacity="0.7" d="M81.3509 101.668L85.9961 110.547L54.957 108.561L81.3509 101.668Z" fill="#43444B"/>
<path opacity="0.7" d="M109.713 82.1475L86.6094 99.3442L91.2002 108.308L109.713 82.1475Z" fill="#34363D"/>
<path opacity="0.7" d="M98.7902 33.9934L111.006 60.1621L94.3027 43.1978L98.7902 33.9934Z" fill="#34363D"/>
<path opacity="0.7" d="M93.1963 29.5912L88.0599 38.9752L63.8652 28.4016L93.1963 29.5912Z" fill="#36383F"/>
<path opacity="0.7" d="M44.7515 33.8469L37.9427 62.6736L24.207 59.7667L44.7515 33.8469Z" fill="#3B3C43"/>
<path opacity="0.7" d="M37.1143 67.7585L37.7137 98.737L23.3125 64.8389L37.1143 67.7585Z" fill="#45464D"/>
<defs>
<linearGradient id="paint0_linear" x1="39.1992" y1="71.2642" x2="90.7665" y2="71.2642" gradientUnits="userSpaceOnUse">
<stop stop-color="#A3A2A5"/>
<stop offset="0.2705" stop-color="#9F9EA0"/>
<stop offset="0.5607" stop-color="#929194"/>
<stop offset="0.8592" stop-color="#7C7C80"/>
<stop offset="1" stop-color="#707073"/>
</linearGradient>
<linearGradient id="paint1_linear" x1="38.8584" y1="65.2339" x2="75.4513" y2="28.9471" gradientUnits="userSpaceOnUse">
<stop stop-color="#969598"/>
<stop offset="0.3396" stop-color="#908F92"/>
<stop offset="0.7917" stop-color="#7F7F82"/>
<stop offset="1" stop-color="#757578"/>
</linearGradient>
<linearGradient id="paint2_linear" x1="41.6824" y1="64.7221" x2="61.2146" y2="103.506" gradientUnits="userSpaceOnUse">
<stop stop-color="#9E9EA0"/>
<stop offset="0.2759" stop-color="#9B9B9D"/>
<stop offset="0.494" stop-color="#919194"/>
<stop offset="0.6923" stop-color="#808083"/>
<stop offset="0.8777" stop-color="#69696D"/>
<stop offset="1" stop-color="#55565A"/>
</linearGradient>
</defs>
</svg>
