<svg width="128" height="128" viewBox="0 0 128 128" fill="none" xmlns="http://www.w3.org/2000/svg">
<path opacity="0.21789" fill-rule="evenodd" clip-rule="evenodd" d="M54.897 1L109.794 32.6948V96.0844L54.897 127.779L0 96.0844V32.6948L54.897 1Z" fill="#9013FE"/>
<path opacity="0.343424" fill-rule="evenodd" clip-rule="evenodd" d="M69.2903 8.75L116.516 35.8774V90.1323L69.2903 117.26L22.0645 90.1323V35.8774L69.2903 8.75Z" fill="#9013FE"/>
<path fill-rule="evenodd" clip-rule="evenodd" d="M86.993 17L127.986 40.6673V88.0019L86.993 111.669L46 88.0019V40.6673L86.993 17Z" fill="#9013FE"/>
<path d="M111.648 55.7366L90.2913 49.2645C89.1275 48.9118 87.8719 48.9118 86.7089 49.2645L65.3517 55.7366C63.5494 56.2826 63.5494 58.6336 65.3517 59.1796L69.075 60.3078C68.258 61.304 67.7558 62.5191 67.706 63.8498C66.9687 64.2666 66.4496 65.0188 66.4496 65.9167C66.4496 66.7309 66.8845 67.4158 67.5108 67.8538L65.5561 76.5296C65.3862 77.2841 65.968 78 66.7513 78H71.0472C71.8312 78 72.4131 77.2841 72.2431 76.5296L70.2885 67.8538C70.9148 67.4158 71.3496 66.7309 71.3496 65.9167C71.3496 65.043 70.8543 64.3119 70.1507 63.8875C70.2089 62.7532 70.7969 61.7503 71.7348 61.1144L86.7081 65.6524C87.4018 65.8624 88.7325 66.1244 90.2905 65.6524L111.648 59.1803C113.451 58.6336 113.451 56.2834 111.648 55.7366ZM91.0102 67.9626C88.8259 68.6241 86.9646 68.2586 85.9885 67.9626L74.8853 64.5982L73.7997 73.1667C73.7997 75.8363 80.381 78 88.4997 78C96.6184 78 103.2 75.8363 103.2 73.1667L102.114 64.5974L91.0102 67.9626Z" fill="white"/>
</svg>
