<svg width="128" height="128" viewBox="0 0 128 128" fill="none" xmlns="http://www.w3.org/2000/svg">
<path opacity="0.21789" fill-rule="evenodd" clip-rule="evenodd" d="M54.897 1L109.794 32.6948V96.0844L54.897 127.779L0 96.0844V32.6948L54.897 1Z" fill="#9013FE"/>
<path opacity="0.343424" fill-rule="evenodd" clip-rule="evenodd" d="M69.2903 8.75L116.516 35.8774V90.1323L69.2903 117.26L22.0645 90.1323V35.8774L69.2903 8.75Z" fill="#9013FE"/>
<path fill-rule="evenodd" clip-rule="evenodd" d="M86.993 17L127.986 40.6673V88.0019L86.993 111.669L46 88.0019V40.6673L86.993 17Z" fill="#9013FE"/>
<path d="M106.453 78.5859L98.6641 70.7969C98.3125 70.4453 97.8359 70.25 97.3359 70.25H96.0625C98.2188 67.4922 99.5 64.0234 99.5 60.25C99.5 51.2734 92.2266 44 83.25 44C74.2734 44 67 51.2734 67 60.25C67 69.2266 74.2734 76.5 83.25 76.5C87.0234 76.5 90.4922 75.2188 93.25 73.0625V74.3359C93.25 74.8359 93.4453 75.3125 93.7969 75.6641L101.586 83.4531C102.32 84.1875 103.508 84.1875 104.234 83.4531L106.445 81.2422C107.18 80.5078 107.18 79.3203 106.453 78.5859ZM83.25 70.25C77.7266 70.25 73.25 65.7812 73.25 60.25C73.25 54.7266 77.7188 50.25 83.25 50.25C88.7734 50.25 93.25 54.7188 93.25 60.25C93.25 65.7734 88.7812 70.25 83.25 70.25Z" fill="white"/>
</svg>
