<svg width="179" height="24" viewBox="0 0 179 24" fill="none" xmlns="http://www.w3.org/2000/svg">
<g clip-path="url(#clip0_17000_8521)">
<path fill-rule="evenodd" clip-rule="evenodd" d="M5.60624 13.8601C5.60624 14.6385 5.32473 15.2492 4.76172 15.6923C4.1987 16.1354 3.42205 16.357 2.43177 16.357C1.4415 16.357 0.630902 16.2032 0 15.8959V14.5427C0.399304 14.7303 0.822568 14.878 1.2698 14.9858C1.72101 15.0935 2.14027 15.1474 2.5276 15.1474C3.09462 15.1474 3.51189 15.0397 3.77943 14.8241C4.05095 14.6085 4.18672 14.3191 4.18672 13.9559C4.18672 13.6286 4.06293 13.3511 3.81536 13.1236C3.56779 12.8961 3.05668 12.6266 2.28203 12.3152C1.48341 11.9919 0.920398 11.6227 0.592968 11.2075C0.265538 10.7924 0.101823 10.2934 0.101823 9.71055C0.101823 8.98011 0.361371 8.40531 0.880467 7.98613C1.39957 7.56695 2.09636 7.35742 2.97083 7.35742C3.80937 7.35742 4.64391 7.54107 5.47448 7.90825L5.01926 9.07592C4.24062 8.74863 3.54583 8.58492 2.93489 8.58492C2.4717 8.58492 2.12031 8.68665 1.88073 8.89025C1.64114 9.08993 1.52136 9.35537 1.52136 9.6867C1.52136 9.91415 1.56927 10.1098 1.6651 10.2735C1.76093 10.4332 1.91866 10.5848 2.13827 10.7285C2.35789 10.8722 2.75321 11.0619 3.32421 11.2974C3.9671 11.5647 4.43828 11.8143 4.73775 12.0458C5.03723 12.2774 5.25686 12.5388 5.39661 12.8302C5.53636 13.1215 5.60624 13.4649 5.60624 13.8601ZM12.2549 16.2376H7.30151V7.48361H12.2549V8.69318H8.73302V11.0762H12.0333V12.2738H8.73302V15.0221H12.2549V16.2376ZM15.9391 9.45912C16.4103 8.87636 17.0572 8.58492 17.8798 8.58492C18.2431 8.58492 18.5884 8.63881 18.916 8.74661C19.2474 8.85036 19.5608 8.97216 19.8562 9.11176L20.3714 7.92024C19.6127 7.54499 18.7862 7.35742 17.8917 7.35742C17.0411 7.35742 16.3005 7.53905 15.6696 7.90232C15.0386 8.26558 14.5555 8.78851 14.2201 9.47111C13.8887 10.1537 13.723 10.95 13.723 11.8602C13.723 13.3052 14.0663 14.4169 14.7532 15.1953C15.44 15.9697 16.4242 16.357 17.706 16.357C18.5765 16.357 19.3551 16.2272 20.042 15.9678V14.7403C19.6666 14.8561 19.3052 14.9519 18.9579 15.0277C18.6104 15.0995 18.2511 15.1355 17.8798 15.1355C17.0212 15.1355 16.3644 14.86 15.9092 14.3091C15.458 13.7583 15.2323 12.946 15.2323 11.8722C15.2323 10.8463 15.4679 10.0419 15.9391 9.45912ZM28.7937 7.48361V13.148C28.7937 13.7946 28.6539 14.3615 28.3744 14.8486C28.0989 15.3315 27.6975 15.7047 27.1705 15.9683C26.6474 16.2277 26.0205 16.3574 25.2897 16.3574C24.2037 16.3574 23.3591 16.07 22.7562 15.4952C22.1532 14.9204 21.8518 14.13 21.8518 13.124V7.48361H23.2893V13.0223C23.2893 13.7448 23.4569 14.2777 23.7924 14.621C24.1278 14.9643 24.6429 15.136 25.3377 15.136C26.6873 15.136 27.3622 14.4274 27.3622 13.0103V7.48361H28.7937ZM33.4577 11.5552H32.4634V8.69318H33.4098C34.0607 8.69318 34.5478 8.80097 34.8713 9.01643C35.1946 9.23202 35.3564 9.58733 35.3564 10.0822C35.3564 10.5693 35.2066 10.9365 34.9072 11.184C34.6077 11.4315 34.1246 11.5552 33.4577 11.5552ZM32.4634 16.2376V12.7408H33.877L35.9733 16.2376H37.6026L35.1289 12.3637C36.2628 11.9006 36.8298 11.1242 36.8298 10.0344C36.8298 9.18014 36.5584 8.54147 36.0152 8.11837C35.4722 7.69516 34.6357 7.48361 33.5057 7.48361H31.032V16.2376H32.4634ZM43.8307 16.2376H38.8773V7.48361H43.8307V8.69318H40.3089V11.0762H43.609V12.2738H40.3089V15.0221H43.8307V16.2376ZM51.6494 15.094C52.452 14.3275 52.8532 13.2219 52.8532 11.7769C52.8532 10.4156 52.4659 9.35975 51.6913 8.60937C50.9167 7.85886 49.8325 7.48361 48.439 7.48361H45.7317V16.2376H48.1814C49.6907 16.2376 50.8467 15.8565 51.6494 15.094ZM48.403 8.68119C50.3635 8.68119 51.3438 9.72907 51.3438 11.8247C51.3438 13.9643 50.2897 15.0341 48.1814 15.0341H47.1631V8.68119H48.403ZM57.9727 7.48361H60.4463C61.6083 7.48361 62.4488 7.65729 62.968 8.00452C63.487 8.35188 63.7466 8.90069 63.7466 9.6512C63.7466 10.1701 63.6008 10.5992 63.3094 10.9385C63.0218 11.2739 62.6006 11.4914 62.0455 11.5912V11.651C63.3752 11.8786 64.0401 12.5772 64.0401 13.7468C64.0401 14.5291 63.7745 15.1399 63.2435 15.579C62.7164 16.0181 61.9776 16.2376 61.0273 16.2376H57.9727V7.48361ZM58.9908 11.232H60.6679C61.3867 11.232 61.9038 11.1202 62.2193 10.8966C62.5347 10.669 62.6924 10.2879 62.6924 9.75293C62.6924 9.26193 62.5167 8.90877 62.1654 8.69318C61.814 8.47356 61.2549 8.36387 60.4883 8.36387H58.9908V11.232ZM58.9908 12.0942V15.3695H60.8177C61.5245 15.3695 62.0555 15.2337 62.4109 14.9623C62.7703 14.6869 62.9499 14.2577 62.9499 13.675C62.9499 13.132 62.7662 12.7329 62.3989 12.4774C62.0356 12.2219 61.4805 12.0942 60.7338 12.0942H58.9908ZM70.4906 7.48361L68.1547 11.8607L65.8368 7.48361H64.7227L67.6396 12.8905V16.2376H68.6698V12.8427L71.5927 7.48361H70.4906Z" fill="white"/>
<path fill-rule="evenodd" clip-rule="evenodd" d="M91.5278 0L105.116 0.607306L110.618 12.8297L102.856 24L89.1939 23.1252L83.5928 9.88237L91.5278 0ZM101.49 7.04523L91.6419 11.3475L100.061 17.8565L101.49 7.04523ZM100.35 4.88942L92.4796 1.50108L90.8263 8.62522L100.35 4.88942ZM98.3549 19.4943L89.8016 13.3873L90.0085 21.6626L98.3549 19.4943ZM109.252 12.8027L103.423 6.88869L101.884 18.261L109.252 12.8027ZM100.36 20.8245L93.1467 22.7097L101.63 23.2528L100.36 20.8245ZM108.112 15.4858L101.798 20.1893L103.053 22.6411L108.112 15.4858ZM105.126 2.315L103.899 4.83252L108.464 9.47253L105.126 2.315ZM103.598 1.11028L95.5811 0.784918L102.194 3.67694L103.598 1.11028ZM90.3572 2.27448L84.7422 9.36387L88.4963 10.159L90.3572 2.27448ZM88.2699 11.5497L84.4977 10.7511L88.4337 20.0227L88.2699 11.5497Z" fill="white"/>
<path fill-rule="evenodd" clip-rule="evenodd" d="M119.975 11.1537H119.519V7.09484H118.297V16.6198H119.519V12.1588H119.939L123.788 16.8574L124.718 16.0713L121.015 11.5922L124.171 7.58866L123.24 6.85742L119.975 11.1537ZM130.611 7.09476H129.388V16.6198H135.589V15.5227H130.611V7.09476ZM140.094 7.09476H146.022V8.19167H141.316V11.0439H145.201V12.1407H141.316V15.5228H146.022V16.6199H140.094V7.09476ZM154.121 7.09476H150.892V16.6196H152.115V12.5426H153.884L156.309 16.8573L157.367 16.2173L155.033 12.3599C156.181 12.0125 156.965 10.8607 156.965 9.69078C156.965 7.84435 155.707 7.09476 154.121 7.09476ZM155.688 9.69078C155.688 10.7696 154.904 11.4459 153.72 11.4459H152.115V8.19167H154.083C155.178 8.19167 155.688 8.8316 155.688 9.69078ZM167.966 11.8659C167.966 12.6338 167.911 16.7838 164.591 16.7838C163.059 16.7838 161.217 15.687 161.217 11.8659C161.217 8.06324 163.023 6.92985 164.591 6.92985C166.105 6.92985 167.966 8.02677 167.966 11.8659ZM162.494 11.8659C162.494 13.2554 162.749 15.632 164.591 15.632C166.434 15.632 166.689 13.2554 166.689 11.8659C166.689 10.4583 166.434 8.08161 164.591 8.08161C162.749 8.08161 162.494 10.4583 162.494 11.8659ZM175.627 15.632C174.35 15.632 173.784 14.773 173.547 13.6028L172.453 13.95C172.745 15.6501 173.857 16.7837 175.627 16.7837C177.378 16.7837 178.637 15.7598 178.637 13.95C178.637 12.9629 178.18 12.195 177.323 11.7196L175.298 10.8238C174.569 10.4949 174.021 10.2389 174.021 9.34296C174.021 8.48392 174.788 8.08161 175.572 8.08161C176.612 8.08161 177.104 8.73978 177.323 9.67204L178.491 9.32472C178.108 7.84399 177.177 6.92985 175.59 6.92985C174.094 6.92985 172.799 7.82575 172.799 9.43442C172.799 11.0684 173.892 11.5163 175.136 12.0263C175.256 12.0755 175.377 12.1253 175.499 12.1768C175.575 12.2082 175.652 12.239 175.728 12.2697C176.584 12.6144 177.414 12.9489 177.414 14.0232C177.414 15.0837 176.63 15.632 175.627 15.632Z" fill="white"/>
</g>
<defs>
<clipPath id="clip0_17000_8521">
<rect width="179" height="24" fill="white"/>
</clipPath>
</defs>
</svg>
