<svg xmlns="http://www.w3.org/2000/svg" width="99.21099999999998px" height="46.032000000000004px" viewBox="0 0 141.73 65.76">
<path fill="#CBC6DA" d="m122.6 41 4.48-21h8.58a4.26 4.26 0 0 1 2 .47 4.78 4.78 0 0 1 1.5 1.25 5.39 5.39 0 0 1 1 1.77 6.89 6.89 0 0 1 .32 2.07 7.16 7.16 0 0 1-.44 2.45 8.71 8.71 0 0 1-1.22 2.19A8 8 0 0 1 137 32a6.14 6.14 0 0 1-2.19 1l3.1 8h-3L132 33.49h-5.14l-1.6 7.51Zm10.71-9.9a3.39 3.39 0 0 0 1.69-.44 5.16 5.16 0 0 0 1.39-1.21 6.4 6.4 0 0 0 1-1.65 5.66 5.66 0 0 0 .35-1.93 4.46 4.46 0 0 0-.2-1.33 4 4 0 0 0-.56-1.12 2.63 2.63 0 0 0-.86-.74 2 2 0 0 0-1.07-.3h-5.76l-1.87 8.72ZM109.94 20h13.3l-.51 2.36h-10.64l-1.45 6.79h9.25l-.47 2.22h-9.26l-1.54 7.24h10.91L119 41h-13.54ZM92.79 20h13.3l-.5 2.36H94.94l-1.45 6.8h9.25l-.47 2.21H93l-1.55 7.24h10.91l-.5 2.36H88.31ZM69.88 38.76 68 41.15h9.46a13.23 13.23 0 0 0 3.34-.41 8.64 8.64 0 0 0 2.75-1.3 6.19 6.19 0 0 0 1.87-2.16 6.51 6.51 0 0 0 .71-3.1 3.93 3.93 0 0 0-.41-1.86 3.68 3.68 0 0 0-1.1-1.32 6.24 6.24 0 0 0-1.74-.95 18.87 18.87 0 0 0-2.3-.74q-1.12-.27-2-.54a7.34 7.34 0 0 1-1.39-.62 2.67 2.67 0 0 1-.86-.8 2.21 2.21 0 0 1-.26-1.12 3.79 3.79 0 0 1 1.24-2.9 5.69 5.69 0 0 1 3.93-1.15h7.26l.7-2.36h-7.35a11.36 11.36 0 0 0-3.37.5 8.5 8.5 0 0 0-2.75 1.45A6.53 6.53 0 0 0 73.87 24a6.64 6.64 0 0 0-.68 3 4 4 0 0 0 .32 1.66 3.84 3.84 0 0 0 1 1.21 6.62 6.62 0 0 0 1.59.89 18.26 18.26 0 0 0 2.16.71c.77.22 1.46.43 2.07.62a6.05 6.05 0 0 1 1.53.72 2.71 2.71 0 0 1 1 .91A2 2 0 0 1 83.2 35a3.22 3.22 0 0 1-1.39 2.78 6.35 6.35 0 0 1-3.75 1Z"></path>
<path fill="#CBC6DA" d="M53.12 45.14a.7.7 0 0 1-.39-.11.78.78 0 0 1-.28-1.03 26.66 26.66 0 0 0-5.12-33.28.78.78 0 0 1 0-1.11.79.79 0 0 1 1.11-.06 28.2 28.2 0 0 1 5.36 35.21.79.79 0 0 1-.68.38ZM29.47 58.65c-.57 0-1.14 0-1.69-.06a24.28 24.28 0 0 1-2.51-.26 27.82 27.82 0 0 1-5.67-1.47c-.86-.32-1.69-.68-2.47-1.06A28.31 28.31 0 0 1 13 53.3a27.41 27.41 0 0 1-2.23-1.8A28.46 28.46 0 0 1 7.41 48a24.85 24.85 0 0 1-1.5-2.08 28.22 28.22 0 0 1-2.05-3.69c-.37-.81-.7-1.64-1-2.45a27.11 27.11 0 0 1-1-3.39c-.17-.77-.3-1.59-.41-2.41s-.18-1.87-.2-2.79v-.74a28.23 28.23 0 0 1 28.27-28.2A27.93 27.93 0 0 1 36.1 3a.79.79 0 0 1-.36 1.53 27.06 27.06 0 0 0-6.22-.74A26.67 26.67 0 0 0 2.87 30.43v.7c0 .87.09 1.75.2 2.64s.22 1.54.38 2.27a25.32 25.32 0 0 0 .9 3.2 23.71 23.71 0 0 0 .93 2.31A28.17 28.17 0 0 0 7.22 45c.44.67.91 1.32 1.42 2a26.13 26.13 0 0 0 3.15 3.33c.67.6 1.38 1.17 2.1 1.7a26.51 26.51 0 0 0 3.93 2.35 23.36 23.36 0 0 0 2.33 1 26.14 26.14 0 0 0 5.35 1.38 21.67 21.67 0 0 0 2.37.25 27.39 27.39 0 0 0 3.39 0 .79.79 0 0 1 .84.73.8.8 0 0 1-.74.84c-.62.05-1.26.07-1.89.07Z"></path>
<path fill="#CBC6DA" d="M44.12 35.1c0 .68-.7 1.15-1.91 1.29a10.6 10.6 0 0 1-10.66-6.3.81.81 0 0 1 0-.61.84.84 0 0 1 .41-.46.83.83 0 0 1 .6 0 .78.78 0 0 1 .46.41 9.38 9.38 0 0 0 6.41 5.16 9.54 9.54 0 0 0 2.37.27c-2-1-3.38-1.91-5.51-5.64a5.09 5.09 0 0 0-3.54-2.95 9.21 9.21 0 0 1-3.69-2c-3.32-2.85-2.36-5.94-2.12-6.58.34-1.37 2.2-2.1 5.83-2.28 1.33-.07 2.63 0 3.49 0-1.57-1.6-6.36-2-8-2h-.36l-.21-.15c-2.7-2-5.2-2.54-7.41-1.74-4.38 1.59-6.86 8.12-7.8 11.2a1.77 1.77 0 0 1 1 .3c1 .66.48 1.78 0 2.76a8.82 8.82 0 0 0-1 3.8v.35c0 3.75-.12 12.51 22.19 23.29l.16.08.11.13a20 20 0 0 1 1.63 2.76c.09.2.19.39.27.6a.7.7 0 0 1-.47 1h-.24a.91.91 0 0 1-.83-.53q-.12-.29-.27-.57a17.67 17.67 0 0 0-1.22-2.11c-23.05-11.18-23-20.62-22.92-24.65v-.35a10.24 10.24 0 0 1 1.16-4.45c.09-.2.25-.54.33-.78a1.05 1.05 0 0 0-.39.27.91.91 0 0 1-1.49-.9C11.22 21 13.9 12.13 19.74 10c2.68-1 5.6-.36 8.67 1.8a27.27 27.27 0 0 1 4.43.47c3.41.67 5.25 2 5.46 3.88l.11 1-1-.08c-4.88-.37-8.85.25-9 1v.18c0 .09-1.05 2.44 1.68 4.79a7.85 7.85 0 0 0 3.13 1.66c1.48.47 2.86.91 4.45 3.68 1.9 3.34 2.86 3.9 4.19 4.66.34.2.7.41 1.1.68l.19.12c.51.37.97.67.97 1.26Z"></path>
<path fill="#CBC6DA" d="M50.34 46.81a1 1 0 0 1-.72.89 1.64 1.64 0 0 1-.65.12 6 6 0 0 1-1.3-.19l-.55-.16a14.22 14.22 0 0 1-9-6.89.82.82 0 0 1 .19-1.09.79.79 0 0 1 .66-.13.73.73 0 0 1 .5.39 13.49 13.49 0 0 0 9.25 6.62c-3.35-3-6-8.23-6-8.27a.8.8 0 1 1 1.44-.69 30.61 30.61 0 0 0 5.14 7.4l.06.06c.49.54 1.12 1.13.98 1.94Z"></path>
<path fill="#CBC6DA" d="M61.71 62.9c-.28.64-.93 1-1.94 1h-.36a21.71 21.71 0 0 1-10.14-4l-.65-.48c-2.21-1.59-3.8-2.74-6.27-7.36a7.2 7.2 0 0 0-.91-.4A20.64 20.64 0 0 1 34.22 47c-6.78-6.32-9.83-12.14-9.08-17.32a.8.8 0 0 1 1.38-.43.77.77 0 0 1 .19.65c-.84 5.76 4.21 11.85 8.59 15.94 4.05 3.76 6.94 4.73 8 5a.34.34 0 0 1 .12 0l.27.16.08.28c4.28 8.82 14.89 11 15 11a6.14 6.14 0 0 0 1.18.11.36.36 0 0 0 .26-.18.24.24 0 0 0 0-.23 12.22 12.22 0 0 0-1.61-1.81c-7.1-6.76-8.73-9.39-9.07-10.36a.85.85 0 0 1 0-.61.76.76 0 0 1 .41-.45.81.81 0 0 1 1.06.38v.05c.07.22.89 2.4 8.73 9.87 1.77 1.69 2.4 2.95 1.98 3.85Z"></path>
<circle fill="#CBC6DA" cx="22.89" cy="14.11" r="1.08"></circle>
<path fill="#CBC6DA" d="M43.79 8.1a7.73 7.73 0 0 0 1.19 3c-.25-.38-1.69-2.41-2.75-2.41-.58 0-1.24.61-1.76 1.23a11.93 11.93 0 0 0-.86 1.2c.13-.27 1.32-2.68.74-3.62s-3.29-1-3.29-1 2.76-.17 3.29-1-.6-3.34-.74-3.61a12.72 12.72 0 0 0 .87 1.2c.51.62 1.17 1.24 1.76 1.24 1.06 0 2.49-2 2.75-2.41a7.67 7.67 0 0 0-1.2 3 1 1 0 0 0 .15.57c.6.93 3.45 1 3.45 1s-2.85.08-3.46 1a1 1 0 0 0-.14.61Z"></path>
</svg>