<svg width="128" height="128" viewBox="0 0 128 128" fill="none" xmlns="http://www.w3.org/2000/svg">
<path opacity="0.21789" fill-rule="evenodd" clip-rule="evenodd" d="M54.897 1L109.794 32.6948V96.0844L54.897 127.779L0 96.0844V32.6948L54.897 1Z" fill="#9013FE"/>
<path opacity="0.343424" fill-rule="evenodd" clip-rule="evenodd" d="M69.2903 8.75L116.516 35.8774V90.1323L69.2903 117.26L22.0645 90.1323V35.8774L69.2903 8.75Z" fill="#9013FE"/>
<path fill-rule="evenodd" clip-rule="evenodd" d="M86.993 17L127.986 40.6673V88.0019L86.993 111.669L46 88.0019V40.6673L86.993 17Z" fill="#9013FE"/>
<path d="M104 62.5312C104 61.1005 103.213 59.8648 102.056 59.1939V49.9381C102.056 49.4083 101.631 48 100.111 48C99.6785 48 99.2489 48.1441 98.897 48.425L93.7303 52.544C91.1351 54.6111 87.8769 55.75 84.5556 55.75H72.8889C70.7409 55.75 69 57.4847 69 59.625V65.4375C69 67.5778 70.7409 69.3125 72.8889 69.3125H74.9366C74.8522 69.947 74.8042 70.5925 74.8042 71.25C74.8042 73.6579 75.3668 75.9333 76.3573 77.9671C76.6727 78.6143 77.3611 79 78.083 79H82.5965C84.1794 79 85.1298 77.1933 84.1703 75.9387C83.1738 74.6358 82.5813 73.0107 82.5813 71.25C82.5813 70.5773 82.6798 69.9307 82.8493 69.3125H84.5556C87.8769 69.3125 91.1351 70.4514 93.7297 72.5185L98.8964 76.6375C99.241 76.9122 99.6691 77.0621 100.111 77.0625C101.625 77.0625 102.055 75.6832 102.055 75.125V65.8692C103.213 65.1977 104 63.962 104 62.5312ZM98.1667 71.0938L96.1584 69.4929C92.8772 66.8773 88.7556 65.4375 84.5556 65.4375V59.625C88.7556 59.625 92.8772 58.1852 96.1584 55.5696L98.1667 53.9687V71.0938Z" fill="white"/>
</svg>
