<svg width="320" height="32" viewBox="0 0 320 32" fill="none" xmlns="http://www.w3.org/2000/svg">
<path d="M12 4L14.6942 12.2918H23.4127L16.3593 17.4164L19.0534 25.7082L12 20.5836L4.94658 25.7082L7.64074 17.4164L0.587322 12.2918H9.30583L12 4Z" fill="#FFCD00"/>
<path d="M60 4L62.6942 12.2918H71.4127L64.3593 17.4164L67.0534 25.7082L60 20.5836L52.9466 25.7082L55.6407 17.4164L48.5873 12.2918H57.3058L60 4Z" fill="#FFCD00"/>
<path d="M108 4L110.694 12.2918H119.413L112.359 17.4164L115.053 25.7082L108 20.5836L100.947 25.7082L103.641 17.4164L96.5873 12.2918H105.306L108 4Z" fill="#FFCD00"/>
<path d="M144.256 2.3875C144.087 2.1375 144 1.8375 144 1.5375C144 0.6875 144.688 0 145.538 0H152.369C153.069 0 153.725 0.36875 154.081 0.96875L158.363 8.1C155.35 8.48125 152.656 9.8875 150.65 11.9687L144.256 2.3875ZM175.737 2.3875L169.35 11.9687C167.344 9.8875 164.65 8.48125 161.638 8.1L165.919 0.96875C166.281 0.36875 166.931 0 167.631 0H174.462C175.312 0 176 0.6875 176 1.5375C176 1.8375 175.912 2.1375 175.744 2.3875H175.737ZM149 21C149 18.0826 150.159 15.2847 152.222 13.2218C154.285 11.1589 157.083 10 160 10C162.917 10 165.715 11.1589 167.778 13.2218C169.841 15.2847 171 18.0826 171 21C171 23.9174 169.841 26.7153 167.778 28.7782C165.715 30.8411 162.917 32 160 32C157.083 32 154.285 30.8411 152.222 28.7782C150.159 26.7153 149 23.9174 149 21ZM160.525 15.0687C160.312 14.6312 159.694 14.6312 159.475 15.0687L158.075 17.9062C157.987 18.0812 157.825 18.2 157.637 18.225L154.5 18.6812C154.019 18.75 153.831 19.3375 154.175 19.6812L156.444 21.8937C156.581 22.0312 156.644 22.2188 156.613 22.4125L156.075 25.5312C155.994 26.0062 156.494 26.375 156.925 26.15L159.725 24.675C159.894 24.5875 160.1 24.5875 160.269 24.675L163.069 26.15C163.5 26.375 164 26.0125 163.919 25.5312L163.381 22.4125C163.35 22.225 163.412 22.0312 163.55 21.8937L165.819 19.6812C166.169 19.3437 165.975 18.7562 165.494 18.6812L162.362 18.225C162.175 18.2 162.006 18.075 161.925 17.9062L160.525 15.0687Z" fill="#FFCD00"/>
<path d="M212 4L214.694 12.2918H223.413L216.359 17.4164L219.053 25.7082L212 20.5836L204.947 25.7082L207.641 17.4164L200.587 12.2918H209.306L212 4Z" fill="#FFCD00"/>
<path d="M260 4L262.694 12.2918H271.413L264.359 17.4164L267.053 25.7082L260 20.5836L252.947 25.7082L255.641 17.4164L248.587 12.2918H257.306L260 4Z" fill="#FFCD00"/>
<path d="M308 4L310.694 12.2918H319.413L312.359 17.4164L315.053 25.7082L308 20.5836L300.947 25.7082L303.641 17.4164L296.587 12.2918H305.306L308 4Z" fill="#FFCD00"/>
</svg>
