<svg width="841" height="420" viewBox="0 0 841 420" fill="none" xmlns="http://www.w3.org/2000/svg">
<path d="M74.0004 419.5C74.0001 419.333 74 419.167 74 419C74 227.633 229.133 72.5 420.5 72.5C611.867 72.5 767 227.633 767 419C767 419.167 767 419.333 767 419.5H692C692 269.831 570.669 148.5 421 148.5C271.331 148.5 150 269.831 150 419.5H74.0004Z" fill="#7210D4"/>
<path fill-rule="evenodd" clip-rule="evenodd" d="M11.5 418.911C11.5 193.075 194.616 10 420.5 10C646.384 10 829.5 193.075 829.5 418.911C829.5 419.107 829.5 419.304 829.5 419.501L828.5 419.499C828.5 419.303 828.5 419.107 828.5 418.911C828.5 193.628 645.832 11 420.5 11C195.168 11 12.5 193.628 12.5 418.911C12.5 419.107 12.5001 419.303 12.5004 419.499L11.5004 419.501C11.5001 419.304 11.5 419.107 11.5 418.911Z" fill="white"/>
<path fill-rule="evenodd" clip-rule="evenodd" d="M160.5 419.125C160.5 275.462 276.906 159 420.5 159C564.094 159 680.5 275.462 680.5 419.125L680.5 419.5L679.5 419.5L679.5 419.125C679.5 276.014 563.542 160 420.5 160C277.458 160 161.5 276.014 161.5 419.125L161.5 419.5L160.5 419.5L160.5 419.125Z" fill="white"/>
<path fill-rule="evenodd" clip-rule="evenodd" d="M22.5 418.926C22.5 199.157 200.915 21 421 21C641.085 21 819.5 199.157 819.5 418.926C819.5 419.118 819.5 419.309 819.5 419.501L818.5 419.499C818.5 419.308 818.5 419.117 818.5 418.926C818.5 199.711 640.534 22 421 22C201.466 22 23.5 199.711 23.5 418.926C23.5 419.117 23.5001 419.308 23.5004 419.499L22.5004 419.501C22.5001 419.309 22.5 419.118 22.5 418.926Z" fill="#841DE6"/>
<path fill-rule="evenodd" clip-rule="evenodd" d="M167.5 419.135C167.5 279.332 280.996 166 421 166C561.003 166 674.5 279.332 674.5 419.136L674.5 419.5L673.5 419.5L673.5 419.135C673.5 279.886 560.453 167 421 167C281.547 167 168.5 279.885 168.5 419.135C168.5 419.135 168.5 419.135 168.5 419.135L168.5 419.5L167.5 419.5L167.5 419.135Z" fill="#841DE6"/>
<path fill-rule="evenodd" clip-rule="evenodd" d="M0.5 418.896C0.5 187.545 188.542 0 420.5 0C652.458 0 840.5 187.545 840.5 418.896C840.5 419.098 840.5 419.299 840.5 419.501L839.5 419.499C839.5 419.298 839.5 419.097 839.5 418.896C839.5 188.1 651.909 1 420.5 1C189.091 1 1.5 188.1 1.5 418.896C1.5 419.097 1.50014 419.298 1.50043 419.499L0.500428 419.501C0.500143 419.299 0.5 419.098 0.5 418.896Z" fill="#841DE6"/>
<path d="M692 419.644C692 347.823 664.061 282.527 618.458 234.033L670.29 179.004C730.181 241.286 767 325.915 767 419.144C767 419.311 767 419.478 767 419.645L692 419.644Z" fill="url(#paint0_linear_30_9515)"/>
<path d="M150 419.645C150 346.104 179.293 279.405 226.846 230.579L173.141 176.5C111.817 239.008 74 324.66 74 419.144C74 419.311 74.0001 419.478 74.0004 419.645H150Z" fill="url(#paint1_linear_30_9515)"/>
<path fill-rule="evenodd" clip-rule="evenodd" d="M498.833 244.573L362.571 238.5L283 337.324L307.674 395.5H313.142L292.075 346.011L329.901 353.997L330.706 395.5H345.841L345.261 372.373L377.742 395.5H420.171L363.715 351.975L462.469 308.952L451.001 395.5H469.898L481.851 307.387L540.3 366.527L501.086 395.5H525.995L528.878 393.359L527.359 395.5H534L554 366.796L498.833 244.573ZM372.115 253.511L451.036 287.394L355.537 324.752L372.115 253.511ZM486.628 286.825L498.927 261.65L532.406 333.225L486.628 286.825ZM403.216 246.349L483.603 249.603L469.526 275.269L403.216 246.349ZM294.526 332.139L350.832 261.245L332.171 340.09L294.526 332.139Z" fill="#801BE2"/>
<path d="M596 321.5H582V395.5H596V321.5Z" fill="white"/>
<path d="M556 328.5H542V395.5H556V328.5Z" fill="white"/>
<path d="M482 337.5H496V395.5H482V337.5Z" fill="white"/>
<path d="M476 346.5H462V395.5H476V346.5Z" fill="white"/>
<path d="M362 353.5H376V395.5H362V353.5Z" fill="white"/>
<path d="M276 365.5H262V395.5H276V365.5Z" fill="white"/>
<path d="M256 375.5H242V395.5H256V375.5Z" fill="white"/>
<path d="M282 384.5H296V395.5H282V384.5Z" fill="white"/>
<path d="M316 375.5H302V395.5H316V375.5Z" fill="white"/>
<path d="M322 365.5H336V395.5H322V365.5Z" fill="white"/>
<path d="M356 370.5H342V395.5H356V370.5Z" fill="white"/>
<path d="M396 365.5H382V395.5H396V365.5Z" fill="white"/>
<path d="M402 353.5H416V395.5H402V353.5Z" fill="white"/>
<path d="M436 365.5H422V395.5H436V365.5Z" fill="white"/>
<path d="M442 353.5H456V395.5H442V353.5Z" fill="white"/>
<path d="M516 346.5H502V395.5H516V346.5Z" fill="white"/>
<path d="M522 337.5H536V395.5H522V337.5Z" fill="white"/>
<path d="M562 328.5H576V395.5H562V328.5Z" fill="white"/>
<path d="M93 211.16C93 210.144 93.2673 209.28 93.802 208.568C94.3367 207.856 95.1117 207.5 96.1269 207.5C97.0609 207.5 97.8325 207.82 98.4416 208.461C99.0575 209.095 99.3655 210.031 99.3655 211.267C99.3655 212.471 99.0541 213.4 98.4315 214.053C97.8156 214.701 97.0541 215.024 96.1472 215.024C95.247 215.024 94.4958 214.704 93.8934 214.063C93.2978 213.422 93 212.455 93 211.16ZM96.1777 208.704C95.7242 208.704 95.3452 208.892 95.0406 209.267C94.7428 209.642 94.5939 210.332 94.5939 211.335C94.5939 212.248 94.7462 212.892 95.0508 213.267C95.3553 213.636 95.731 213.82 96.1777 213.82C96.6379 213.82 97.0169 213.633 97.3147 213.257C97.6193 212.882 97.7716 212.196 97.7716 211.199C97.7716 210.28 97.6193 209.636 97.3147 209.267C97.0102 208.892 96.6311 208.704 96.1777 208.704ZM96.1878 222.5L104.33 207.5H105.812L97.7005 222.5H96.1878ZM102.624 218.636C102.624 217.613 102.892 216.749 103.426 216.044C103.961 215.332 104.739 214.976 105.761 214.976C106.695 214.976 107.467 215.296 108.076 215.937C108.692 216.571 109 217.506 109 218.743C109 219.947 108.689 220.875 108.066 221.529C107.45 222.176 106.685 222.5 105.772 222.5C104.871 222.5 104.12 222.18 103.518 221.539C102.922 220.892 102.624 219.924 102.624 218.636ZM105.812 216.18C105.352 216.18 104.97 216.367 104.665 216.743C104.367 217.118 104.218 217.807 104.218 218.811C104.218 219.717 104.371 220.358 104.675 220.733C104.98 221.108 105.355 221.296 105.802 221.296C106.269 221.296 106.651 221.108 106.949 220.733C107.254 220.358 107.406 219.672 107.406 218.675C107.406 217.756 107.254 217.112 106.949 216.743C106.645 216.367 106.266 216.18 105.812 216.18Z" fill="white"/>
<path d="M413 40.1602C413 39.144 413.267 38.2799 413.802 37.568C414.337 36.856 415.112 36.5 416.127 36.5C417.061 36.5 417.832 36.8204 418.442 37.4612C419.058 38.0955 419.365 39.0307 419.365 40.267C419.365 41.4709 419.054 42.3997 418.431 43.0534C417.816 43.7006 417.054 44.0243 416.147 44.0243C415.247 44.0243 414.496 43.7039 413.893 43.0631C413.298 42.4223 413 41.4547 413 40.1602ZM416.178 37.7039C415.724 37.7039 415.345 37.8916 415.041 38.267C414.743 38.6424 414.594 39.3317 414.594 40.335C414.594 41.2476 414.746 41.8916 415.051 42.267C415.355 42.6359 415.731 42.8204 416.178 42.8204C416.638 42.8204 417.017 42.6327 417.315 42.2573C417.619 41.8819 417.772 41.1958 417.772 40.199C417.772 39.2799 417.619 38.6359 417.315 38.267C417.01 37.8916 416.631 37.7039 416.178 37.7039ZM416.188 51.5L424.33 36.5H425.812L417.701 51.5H416.188ZM422.624 47.6359C422.624 46.6133 422.892 45.7492 423.426 45.0437C423.961 44.3317 424.739 43.9757 425.761 43.9757C426.695 43.9757 427.467 44.2961 428.076 44.9369C428.692 45.5712 429 46.5065 429 47.7427C429 48.9466 428.689 49.8754 428.066 50.5291C427.45 51.1764 426.685 51.5 425.772 51.5C424.871 51.5 424.12 51.1796 423.518 50.5388C422.922 49.8916 422.624 48.9239 422.624 47.6359ZM425.812 45.1796C425.352 45.1796 424.97 45.3673 424.665 45.7427C424.367 46.1181 424.218 46.8074 424.218 47.8107C424.218 48.7168 424.371 49.3576 424.675 49.733C424.98 50.1084 425.355 50.2961 425.802 50.2961C426.269 50.2961 426.651 50.1084 426.949 49.733C427.254 49.3576 427.406 48.6715 427.406 47.6748C427.406 46.7557 427.254 46.1117 426.949 45.7427C426.645 45.3673 426.266 45.1796 425.812 45.1796Z" fill="white"/>
<path d="M733 211.16C733 210.144 733.267 209.28 733.802 208.568C734.337 207.856 735.112 207.5 736.127 207.5C737.061 207.5 737.832 207.82 738.442 208.461C739.058 209.095 739.365 210.031 739.365 211.267C739.365 212.471 739.054 213.4 738.431 214.053C737.816 214.701 737.054 215.024 736.147 215.024C735.247 215.024 734.496 214.704 733.893 214.063C733.298 213.422 733 212.455 733 211.16ZM736.178 208.704C735.724 208.704 735.345 208.892 735.041 209.267C734.743 209.642 734.594 210.332 734.594 211.335C734.594 212.248 734.746 212.892 735.051 213.267C735.355 213.636 735.731 213.82 736.178 213.82C736.638 213.82 737.017 213.633 737.315 213.257C737.619 212.882 737.772 212.196 737.772 211.199C737.772 210.28 737.619 209.636 737.315 209.267C737.01 208.892 736.631 208.704 736.178 208.704ZM736.188 222.5L744.33 207.5H745.812L737.701 222.5H736.188ZM742.624 218.636C742.624 217.613 742.892 216.749 743.426 216.044C743.961 215.332 744.739 214.976 745.761 214.976C746.695 214.976 747.467 215.296 748.076 215.937C748.692 216.571 749 217.506 749 218.743C749 219.947 748.689 220.875 748.066 221.529C747.45 222.176 746.685 222.5 745.772 222.5C744.871 222.5 744.12 222.18 743.518 221.539C742.922 220.892 742.624 219.924 742.624 218.636ZM745.812 216.18C745.352 216.18 744.97 216.367 744.665 216.743C744.367 217.118 744.218 217.807 744.218 218.811C744.218 219.717 744.371 220.358 744.675 220.733C744.98 221.108 745.355 221.296 745.802 221.296C746.269 221.296 746.651 221.108 746.949 220.733C747.254 220.358 747.406 219.672 747.406 218.675C747.406 217.756 747.254 217.112 746.949 216.743C746.645 216.367 746.266 216.18 745.812 216.18Z" fill="white"/>
<path fill-rule="evenodd" clip-rule="evenodd" d="M100.25 238.43C98.3994 238.079 97 236.453 97 234.5C97 232.291 98.7909 230.5 101 230.5C103.209 230.5 105 232.291 105 234.5C105 236.453 103.601 238.079 101.75 238.43V250.682L130.7 278.727C131.35 278.269 132.144 278 133 278C135.209 278 137 279.791 137 282C137 284.209 135.209 286 133 286C130.791 286 129 284.209 129 282C129 281.189 129.241 280.435 129.656 279.805L100.25 251.318V238.43Z" fill="white"/>
<path fill-rule="evenodd" clip-rule="evenodd" d="M420.25 69.4298C418.399 69.0787 417 67.4528 417 65.5C417 63.2909 418.791 61.5 421 61.5C423.209 61.5 425 63.2909 425 65.5C425 67.4528 423.601 69.0787 421.75 69.4298V81.6823L450.7 109.727C451.35 109.269 452.144 109 453 109C455.209 109 457 110.791 457 113C457 115.209 455.209 117 453 117C450.791 117 449 115.209 449 113C449 112.189 449.241 111.435 449.656 110.805L420.25 82.3177V69.4298Z" fill="white"/>
<path fill-rule="evenodd" clip-rule="evenodd" d="M741.75 238.43C743.601 238.079 745 236.453 745 234.5C745 232.291 743.209 230.5 741 230.5C738.791 230.5 737 232.291 737 234.5C737 236.453 738.399 238.079 740.25 238.43V250.682L711.3 278.727C710.65 278.269 709.856 278 709 278C706.791 278 705 279.791 705 282C705 284.209 706.791 286 709 286C711.209 286 713 284.209 713 282C713 281.189 712.759 280.435 712.344 279.805L741.75 251.318V238.43Z" fill="white"/>
<defs>
<linearGradient id="paint0_linear_30_9515" x1="420.5" y1="179.004" x2="420.5" y2="419.645" gradientUnits="userSpaceOnUse">
<stop stop-color="#BB63FF"/>
<stop offset="1" stop-color="#BB63FF" stop-opacity="0"/>
</linearGradient>
<linearGradient id="paint1_linear_30_9515" x1="420.5" y1="176.5" x2="420.5" y2="419.645" gradientUnits="userSpaceOnUse">
<stop stop-color="#9E30FF"/>
<stop offset="1" stop-color="#9E30FF" stop-opacity="0"/>
</linearGradient>
</defs>
</svg>
