<svg width="943" height="264" viewBox="0 0 943 264" fill="none" xmlns="http://www.w3.org/2000/svg">
<path d="M455.906 77.3984H421.307C420.007 77.3984 419.207 78.2984 419.207 79.4984V145.898C419.207 149.798 418.307 153.198 415.807 155.698C413.707 158.298 410.307 159.598 406.407 159.598C402.607 159.598 399.607 158.298 397.007 155.698C394.907 153.098 393.607 150.098 393.607 145.898V79.4984C393.607 78.1984 392.707 77.3984 391.507 77.3984H356.907C355.607 77.3984 354.807 78.2984 354.807 79.4984V145.398C354.807 160.398 359.907 171.998 369.307 180.898C378.707 189.898 391.507 194.198 405.607 194.598C421.407 194.598 434.206 190.298 443.606 181.298C453.406 172.298 458.106 160.298 458.106 145.798V79.3984C458.006 78.1984 457.206 77.3984 455.906 77.3984Z" fill="#E6E4FE"/>
<path d="M594.803 77.3957H563.203C561.903 77.3957 561.103 78.2957 561.103 79.4957V122.296C561.103 124.396 558.503 125.296 557.303 123.596L523.203 78.1957C522.803 77.7957 522.303 77.2957 521.503 77.2957H492.903C491.603 77.2957 490.803 78.1957 490.803 79.3957V188.995C490.803 190.295 491.703 191.095 492.903 191.095H524.503C525.803 191.095 526.603 190.195 526.603 188.995V143.996C526.603 141.896 529.203 140.996 530.403 142.696L565.403 190.195C565.803 190.595 566.303 191.095 567.103 191.095H594.403C595.703 191.095 596.503 190.195 596.503 188.995V79.4957C596.503 78.1957 595.703 76.8957 594.803 77.3957Z" fill="#E6E4FE"/>
<path d="M663.501 76.8955H629.401C628.101 76.8955 627.301 78.1955 627.301 79.4955V188.695C627.301 189.995 628.201 190.795 629.401 190.795H663.501C664.801 190.795 665.601 189.895 665.601 188.695V79.0955C665.601 77.7955 664.701 76.8955 663.501 76.8955Z" fill="#E6E4FE"/>
<path d="M796.402 90.1961C784.902 79.0961 769.902 73.4961 751.202 73.4961C732.402 73.4961 717.502 79.0961 706.002 90.1961C694.502 101.296 688.902 115.896 688.902 133.896C688.902 151.896 694.402 166.396 706.002 177.596C717.102 188.696 732.502 194.296 751.202 194.296C770.002 194.296 784.902 188.696 796.402 177.596C807.902 166.496 813.502 151.896 813.502 133.896C813.502 115.896 807.902 101.396 796.402 90.1961ZM767.802 152.696C763.502 156.996 758.002 159.596 750.702 159.596C743.902 159.596 737.902 157.496 733.602 152.696C729.302 147.896 727.202 141.996 727.202 134.296C727.202 126.596 729.302 120.596 733.602 115.896C737.902 111.196 743.402 108.996 750.702 108.996C757.502 108.996 763.502 111.096 767.802 115.896C772.102 120.596 774.202 126.596 774.202 134.296C774.202 141.996 772.102 147.996 767.802 152.696Z" fill="#E6E4FE"/>
<path d="M941.301 77.3957H909.701C908.401 77.3957 907.601 78.2957 907.601 79.4957V122.296C907.601 124.396 905.001 125.296 903.801 123.596L869.701 78.1957C869.301 77.7957 868.801 77.2957 868.001 77.2957H839.401C838.101 77.2957 837.301 78.1957 837.301 79.3957V188.995C837.301 190.295 838.201 191.095 839.401 191.095H871.001C872.301 191.095 873.101 190.195 873.101 188.995V143.996C873.101 141.896 875.701 140.996 876.901 142.696L911.901 190.195C912.301 190.595 912.801 191.095 913.601 191.095H940.901C942.201 191.095 943.001 190.195 943.001 188.995V79.4957C943.001 78.1957 942.101 76.8957 941.301 77.3957Z" fill="#E6E4FE"/>
<path d="M69.3941 63.9971C68.8941 63.9971 68.7941 64.2971 69.1941 64.5971L88.2941 83.697C88.694 84.097 89.394 84.097 89.794 83.697L93.294 80.197C94.294 79.197 95.594 78.697 96.894 78.697C96.894 78.697 106.294 78.697 109.194 78.697C109.494 78.697 109.694 78.297 109.394 78.097C98.694 68.8971 83.6941 64.1971 69.3941 63.9971Z" fill="#AD96EE"/>
<path d="M150.207 176.304H162.207C163.907 176.304 165.607 175.604 166.807 174.404L175.307 165.904C176.507 164.704 177.207 163.004 177.207 161.304V149.304C177.207 147.604 176.507 145.904 175.307 144.704L166.807 136.204C165.607 135.004 163.907 134.304 162.207 134.304H150.207C148.507 134.304 146.807 135.004 145.607 136.204L137.107 144.704C135.907 145.904 135.207 147.604 135.207 149.304V161.304C135.207 163.004 135.907 164.704 137.107 165.904L145.607 174.404C146.907 175.704 148.507 176.304 150.207 176.304Z" fill="#AD96EE"/>
<path d="M209.205 62.8018C208.905 62.7018 208.605 63.0018 208.605 63.3018C208.705 65.1018 208.805 66.9018 208.805 68.7018C208.805 69.8018 208.805 71.0018 208.705 72.1018C208.705 72.6018 208.905 73.0018 209.205 73.4018L262.905 126.502C263.205 126.802 263.805 126.602 263.805 126.102C262.605 94.7018 237.705 68.7018 209.205 62.8018Z" fill="#AD96EE"/>
<path d="M207.799 83.7021C207.499 83.4021 206.999 83.6021 206.899 84.0021C205.399 91.302 202.499 98.302 199.099 104.702C198.999 105.002 198.999 105.302 199.199 105.502L246.099 152.302C248.999 155.202 252.299 158.602 254.699 161.002C255.399 161.702 256.499 161.502 256.899 160.602C259.899 154.202 261.999 147.302 262.899 140.002C262.999 139.502 262.799 139.002 262.399 138.602L207.799 83.7021Z" fill="#AD96EE"/>
<path d="M185.802 153.301C185.502 153.001 184.902 153.201 184.902 153.701V165.401C184.902 166.801 184.402 168.101 183.402 169.001L180.402 172.601C180.202 172.801 180.202 173.101 180.102 173.101L205.002 197.401C205.702 198.101 206.202 198.201 206.802 198.101C213.001 197.101 218.801 195.201 224.301 192.601C224.601 192.401 224.701 192.001 224.401 191.801L185.802 153.301Z" fill="#AD96EE"/>
<path d="M202.994 158.797L203.097 158.9C203.097 158.9 203.097 158.797 202.994 158.797Z" fill="#AD96EE"/>
<path d="M194.197 198.9C194.697 198.9 194.797 198.6 194.397 198.3L175.297 179.2C174.897 178.8 174.197 178.8 173.797 179.2L170.297 182.7C169.297 183.7 167.997 184.2 166.697 184.2C166.697 184.2 157.297 184.2 154.397 184.2C154.097 184.2 153.897 184.6 154.197 184.8C164.797 194.1 179.797 198.8 194.197 198.9Z" fill="#AD96EE"/>
<path d="M251.105 167.899C245.805 162.599 221.005 137.799 215.905 132.799C215.505 132.399 214.905 132.599 214.805 133.199C214.005 137.599 211.905 141.599 208.805 144.799C205.505 148.099 201.205 150.299 196.605 150.999C196.105 151.099 195.805 151.699 196.205 152.099C201.205 157.099 224.505 180.499 232.105 188.099C232.305 188.099 232.505 188.099 232.705 188.099C240.005 183.399 246.305 177.299 251.305 170.199C251.805 169.399 251.705 168.499 251.105 167.899Z" fill="#AD96EE"/>
<path d="M178.406 113.599V101.599C178.406 99.8986 177.706 98.1986 176.506 96.9986L168.006 88.4986C166.806 87.2986 165.106 86.5986 163.406 86.5986H151.406C149.706 86.5986 148.006 87.2986 146.806 88.4986L138.306 96.9986C137.106 98.1986 136.406 99.8986 136.406 101.599V113.599C136.406 115.299 137.106 116.999 138.306 118.199L146.806 126.699C148.006 127.899 149.706 128.599 151.406 128.599H163.406C165.106 128.599 166.806 127.899 168.006 126.699L176.506 118.199C177.706 116.899 178.406 115.299 178.406 113.599Z" fill="#AD96EE"/>
<path d="M64.9044 54.5999C64.8044 54.8999 65.1044 55.1999 65.4044 55.1999C67.2044 55.0999 69.0044 54.9999 70.8044 54.9999C71.9044 54.9999 73.1044 54.9999 74.2044 55.0999C74.7044 55.0999 75.1044 54.8999 75.5044 54.5999L128.604 0.899998C128.904 0.599999 128.704 0 128.204 0C96.8043 1.2 70.8044 26.0999 64.9044 54.5999Z" fill="#AD96EE"/>
<path d="M85.8105 55.9998C85.5105 56.2998 85.7105 56.7998 86.1105 56.8998C93.4104 58.3998 100.41 61.2998 106.81 64.6998C107.11 64.7998 107.41 64.7998 107.61 64.5998L154.41 17.5999C157.31 14.6999 160.71 11.3999 163.11 8.99988C163.81 8.29988 163.61 7.19989 162.71 6.79989C156.31 3.79989 149.41 1.6999 142.11 0.799897C141.61 0.699898 141.11 0.899897 140.71 1.2999L85.8105 55.9998Z" fill="#AD96EE"/>
<path d="M155.399 77.9979C155.099 78.2979 155.299 78.8979 155.799 78.8979H167.499C168.899 78.8979 170.199 79.3979 171.099 80.3979L174.699 83.3979C174.899 83.5979 175.199 83.5978 175.199 83.6978L199.499 58.7979C200.199 58.0979 200.299 57.5979 200.199 56.9979C199.199 50.7979 197.299 44.9979 194.699 39.4979C194.499 39.1979 194.099 39.0979 193.899 39.3979L155.399 77.9979Z" fill="#AD96EE"/>
<path d="M201.004 69.5992C201.004 69.0992 200.704 68.9992 200.404 69.3992L181.304 88.4991C180.904 88.8991 180.904 89.5991 181.304 89.9991L184.804 93.4991C185.804 94.4991 186.304 95.7991 186.304 97.0991C186.304 97.0991 186.304 106.499 186.304 109.399C186.304 109.699 186.704 109.899 186.904 109.599C196.204 98.9991 200.904 83.9991 201.004 69.5992Z" fill="#AD96EE"/>
<path d="M124.904 76.8998C127.104 79.0998 130.004 80.2998 133.004 80.2998C136.104 80.2998 139.004 79.0998 141.104 76.8998C143.304 74.6998 144.504 71.7998 144.504 68.7998C144.504 65.6998 143.304 62.7998 141.104 60.6998C138.904 58.4998 136.004 57.2998 133.004 57.2998C129.904 57.2998 127.004 58.4998 124.904 60.6998C122.704 62.8998 121.504 65.7998 121.504 68.7998C121.504 71.8998 122.704 74.7998 124.904 76.8998Z" fill="#AD96EE"/>
<path d="M170.001 12.7008C164.701 18.0008 139.901 42.8007 134.901 47.9007C134.501 48.3007 134.701 48.9007 135.301 49.0007C139.701 49.8007 143.701 51.9007 146.901 55.0007C150.201 58.3007 152.401 62.6007 153.101 67.2007C153.201 67.7007 153.801 68.0007 154.201 67.6007C159.201 62.6007 182.601 39.3008 190.201 31.7008C190.201 31.5008 190.201 31.3008 190.201 31.1008C185.501 23.8008 179.401 17.5008 172.301 12.5008C171.501 12.0008 170.601 12.1008 170.001 12.7008Z" fill="#AD96EE"/>
<path d="M186.906 122.8C184.706 125 183.506 127.9 183.506 130.9C183.506 134 184.706 136.9 186.906 139C189.106 141.2 192.006 142.4 195.006 142.4C198.106 142.4 201.006 141.2 203.106 139C205.306 136.8 206.506 133.9 206.506 130.9C206.506 127.8 205.306 124.9 203.106 122.8C200.906 120.6 198.006 119.4 195.006 119.4C191.906 119.4 189.006 120.6 186.906 122.8Z" fill="#AD96EE"/>
<path d="M113.508 86.8037H101.508C99.8078 86.8037 98.1078 87.5037 96.9078 88.7037L88.4078 97.2037C87.2078 98.4037 86.5078 100.104 86.5078 101.804V113.804C86.5078 115.504 87.2078 117.204 88.4078 118.404L96.9078 126.904C98.1078 128.104 99.8078 128.804 101.508 128.804H113.508C115.208 128.804 116.908 128.104 118.108 126.904L126.608 118.404C127.808 117.204 128.508 115.504 128.508 113.804V101.804C128.508 100.104 127.808 98.4037 126.608 97.2037L118.108 88.7037C116.908 87.5037 115.308 86.8037 113.508 86.8037Z" fill="#AD96EE"/>
<path d="M54.5999 200.299C54.8999 200.399 55.1999 200.099 55.1999 199.799C55.0999 197.999 54.9999 196.199 54.9999 194.399C54.9999 193.299 54.9999 192.099 55.0999 190.999C55.0999 190.499 54.8999 190.099 54.5999 189.699L0.899998 136.599C0.599999 136.299 0 136.499 0 136.999C1.2 168.399 26.0999 194.399 54.5999 200.299Z" fill="#AD96EE"/>
<path d="M56.0062 179.398C56.3062 179.698 56.8062 179.498 56.9062 179.098C58.4062 171.798 61.3062 164.798 64.7062 158.398C64.8062 158.098 64.8062 157.798 64.6062 157.598L17.7063 110.798C14.8063 107.898 11.5063 104.498 9.10633 102.098C8.40633 101.398 7.30633 101.598 6.90633 102.498C3.90634 108.898 1.80634 115.798 0.906343 123.098C0.806343 123.598 1.00634 124.098 1.40634 124.498L56.0062 179.398Z" fill="#AD96EE"/>
<path d="M77.9022 109.802C78.2022 110.102 78.8022 109.902 78.8022 109.402V97.7021C78.8022 96.3021 79.3022 95.0021 80.3022 94.1021L83.3021 90.5021C83.5021 90.3021 83.5021 90.0021 83.6021 90.0021L58.7022 65.8022C58.0022 65.1022 57.5022 65.0022 56.9022 65.1022C50.7022 66.1022 44.9022 68.0022 39.4022 70.6022C39.1022 70.8022 39.0022 71.2022 39.3022 71.4022L77.9022 109.802Z" fill="#AD96EE"/>
<path d="M60.7977 104.4C60.695 104.194 60.695 104.297 60.7977 104.4V104.4Z" fill="#AD96EE"/>
<path d="M69.6089 64.1982C69.1089 64.1982 69.0089 64.4982 69.4089 64.7982L88.5089 83.8982C88.9089 84.2982 89.6089 84.2982 90.0089 83.8982L93.5089 80.3982C94.5089 79.3982 95.8089 78.8982 97.1089 78.8982C97.1089 78.8982 106.509 78.8982 109.409 78.8982C109.709 78.8982 109.909 78.4982 109.609 78.2982C98.9089 68.9982 83.9089 64.2982 69.6089 64.1982Z" fill="#AD96EE"/>
<path d="M12.5913 95.199C17.8913 100.499 42.6913 125.299 47.7913 130.299C48.1913 130.699 48.7913 130.499 48.8913 129.899C49.6913 125.499 51.7913 121.499 54.8913 118.299C58.1913 114.999 62.4912 112.799 67.0912 112.099C67.5912 111.999 67.8912 111.399 67.4912 110.999C62.4912 105.999 39.1913 82.599 31.5913 74.999C31.3913 74.999 31.1913 74.999 30.9913 74.999C23.6913 79.699 17.3913 85.799 12.3913 92.899C11.9913 93.699 12.0913 94.599 12.5913 95.199Z" fill="#AD96EE"/>
<path d="M85.3984 149.602V161.602C85.3984 163.302 86.0984 165.001 87.2984 166.201L95.7984 174.701C96.9984 175.901 98.6984 176.601 100.398 176.601H112.398C114.098 176.601 115.798 175.901 116.998 174.701L125.498 166.201C126.698 165.001 127.398 163.302 127.398 161.602V149.602C127.398 147.902 126.698 146.202 125.498 145.002L116.998 136.502C115.798 135.302 114.098 134.602 112.398 134.602H100.398C98.6984 134.602 96.9984 135.302 95.7984 136.502L87.2984 145.002C85.9984 146.202 85.3984 147.802 85.3984 149.602Z" fill="#AD96EE"/>
<path d="M198.903 208.502C199.003 208.202 198.703 207.902 198.403 207.902C196.603 208.002 194.803 208.102 193.003 208.102C191.903 208.102 190.703 208.102 189.603 208.002C189.103 208.002 188.703 208.202 188.303 208.502L135.203 262.202C134.903 262.502 135.103 263.102 135.603 263.102C167.003 261.902 193.003 237.002 198.903 208.502Z" fill="#AD96EE"/>
<path d="M177.992 207.099C178.292 206.799 178.092 206.299 177.692 206.199C170.392 204.699 163.392 201.799 156.992 198.399C156.692 198.299 156.392 198.299 156.192 198.499L109.392 245.399C106.492 248.299 103.092 251.599 100.692 253.999C99.9924 254.699 100.192 255.799 101.092 256.199C107.492 259.199 114.392 261.299 121.692 262.199C122.192 262.299 122.692 262.099 123.092 261.699L177.992 207.099Z" fill="#AD96EE"/>
<path d="M108.405 185.201C108.705 184.901 108.505 184.301 108.005 184.301H96.305C94.905 184.301 93.605 183.801 92.705 182.801L89.1051 179.801C88.9051 179.601 88.6051 179.601 88.6051 179.501L64.3051 204.401C63.6051 205.101 63.5051 205.601 63.6051 206.201C64.6051 212.401 66.5051 218.201 69.1051 223.701C69.3051 224.001 69.7051 224.101 69.9051 223.801L108.405 185.201Z" fill="#AD96EE"/>
<path d="M62.8027 193.505C62.8027 194.005 63.1027 194.105 63.4027 193.705L82.5027 174.605C82.9027 174.205 82.9027 173.505 82.5027 173.105L79.0027 169.605C78.0027 168.605 77.5027 167.305 77.5027 166.005C77.5027 166.005 77.5027 156.605 77.5027 153.705C77.5027 153.405 77.1027 153.205 76.9027 153.505C67.6027 164.205 62.9027 179.205 62.8027 193.505Z" fill="#AD96EE"/>
<path d="M138.909 186.204C136.709 184.004 133.809 182.804 130.809 182.804C127.709 182.804 124.809 184.004 122.709 186.204C120.509 188.404 119.309 191.304 119.309 194.304C119.309 197.404 120.509 200.304 122.709 202.404C124.909 204.604 127.809 205.804 130.809 205.804C133.909 205.804 136.809 204.604 138.909 202.404C141.109 200.204 142.309 197.304 142.309 194.304C142.309 191.304 141.109 188.304 138.909 186.204Z" fill="#AD96EE"/>
<path d="M93.8035 250.504C99.1035 245.204 123.903 220.404 128.903 215.304C129.303 214.904 129.103 214.304 128.503 214.204C124.103 213.404 120.103 211.304 116.903 208.204C113.603 204.904 111.403 200.604 110.703 196.004C110.603 195.504 110.003 195.204 109.603 195.604C104.603 200.604 81.2035 223.904 73.6035 231.504C73.6035 231.704 73.6035 231.904 73.6035 232.104C78.3035 239.404 84.4035 245.704 91.5035 250.704C92.3035 251.104 93.2035 251.004 93.8035 250.504Z" fill="#AD96EE"/>
<path d="M76.9047 140.298C79.1046 138.098 80.3046 135.198 80.3046 132.198C80.3046 129.098 79.1046 126.198 76.9047 124.098C74.7047 121.898 71.8047 120.698 68.8047 120.698C65.7047 120.698 62.8047 121.898 60.7047 124.098C58.5047 126.298 57.3047 129.198 57.3047 132.198C57.3047 135.298 58.5047 138.198 60.7047 140.298C62.9047 142.498 65.8047 143.698 68.8047 143.698C71.8047 143.698 74.8047 142.498 76.9047 140.298Z" fill="#AD96EE"/>
</svg>
