<svg width="300" height="75" viewBox="0 0 300 75" fill="none" xmlns="http://www.w3.org/2000/svg">
<path fill-rule="evenodd" clip-rule="evenodd" d="M1.17346 1.47099C8.65934 10.6578 16.8786 22.1992 18.2081 24.0659C18.279 24.1655 18.3303 24.2375 18.3608 24.2802C19.0695 25.2706 19.6545 26.0069 20.0988 26.566L20.0989 26.5661C21.0852 27.8072 21.3778 28.1756 20.7893 28.5139C20.3146 28.7867 19.8249 28.8767 19.3362 28.8767C18.7835 28.8767 18.1608 28.6075 17.7074 28.1727C17.387 27.8653 15.1941 24.645 12.208 19.9602C9.92324 16.3755 8.01117 13.4018 7.959 13.3521C7.83841 13.2369 7.84047 13.2408 11.975 20.7209C14.5712 25.418 16.347 28.889 16.347 29.111C16.347 29.5627 16.2251 29.8002 15.6741 30.4217C14.7554 31.4581 14.3447 32.6225 14.0483 35.0322C13.7159 37.7334 12.7814 39.6419 10.1915 42.9075C8.67551 44.8194 8.42745 45.1697 8.04491 45.9403C7.5631 46.9106 7.43058 47.4541 7.37689 48.6794C7.32014 49.975 7.43068 50.8119 7.82211 52.0503C8.16482 53.1347 8.52251 53.8509 9.43696 55.2831C10.2261 56.5188 10.6805 57.4372 10.6805 57.7966C10.6805 58.0825 10.7345 58.0828 11.9574 57.8038C14.8839 57.1353 17.2602 55.9603 18.5967 54.52C19.4238 53.6284 19.618 53.1362 19.6243 51.9147C19.6285 51.1156 19.6007 50.9484 19.3871 50.4887C19.0393 49.7403 18.4063 49.1184 17.0111 48.1541C15.183 46.8903 14.4022 45.8731 14.1865 44.4741C14.0096 43.3263 14.2148 42.5163 15.2262 40.3731C16.2729 38.1547 16.5323 37.2094 16.7078 34.9731C16.8211 33.5284 16.9781 32.9587 17.3886 32.5016C17.8167 32.0247 18.2021 31.8631 19.2617 31.7166C20.9891 31.4781 22.089 31.0262 22.9931 30.1838C23.7774 29.453 24.1056 28.7488 24.156 27.6888L24.1942 26.8853L23.7559 26.3687C22.1687 24.4974 0.11049 0 0.0128112 0C-0.0080559 0 0.514255 0.661991 1.17346 1.47099ZM11.5716 50.1453C11.9304 49.5025 11.7398 48.6766 11.1394 48.2728C10.5722 47.8916 9.69117 48.0712 9.69117 48.5681C9.69117 48.7197 9.77408 48.83 9.96101 48.9275C10.2757 49.0912 10.2986 49.2753 10.0509 49.6516C9.80018 50.0328 9.82041 50.3678 10.108 50.5953C10.5716 50.9625 11.2278 50.7606 11.5716 50.1453ZM22.3733 15.1014C21.6652 14.9903 21.6353 14.9773 21.9685 14.9255C22.6071 14.8262 24.115 14.9616 25.1542 15.2114C27.5801 15.7944 29.7875 17.2881 32.1437 19.9407L32.7696 20.6455L33.6653 20.4999C37.4379 19.8869 41.2758 20.3741 44.4859 21.8735C45.369 22.286 46.7613 23.1071 46.9352 23.3181C46.9904 23.3854 47.0925 23.8183 47.1612 24.2802C47.3997 25.8783 47.2804 27.1032 46.7969 28.0182C46.534 28.516 46.5194 28.6738 46.6961 29.0999C46.8372 29.4399 47.2308 29.6915 47.6207 29.691C48.4183 29.6899 49.2768 28.386 49.6748 26.5718L49.8328 25.8511L50.1459 26.2097C51.8629 28.1768 53.2118 30.8596 53.4434 32.7691L53.5037 33.2669L53.2152 32.8144C52.7182 32.0356 52.2194 31.5053 51.58 31.0777C50.4281 30.3069 49.2097 30.0446 45.9837 29.8727C43.0698 29.7174 41.4209 29.4658 39.7858 28.9266C37.0033 28.0095 35.6011 26.7879 32.2961 22.4038C30.8282 20.4564 29.921 19.379 29.0185 18.5114C26.9677 16.5399 24.9527 15.506 22.3733 15.1014ZM47.5923 19.4493C47.6657 18.1444 47.8408 17.2837 48.1926 16.4977C48.3319 16.1866 48.4623 15.9319 48.4823 15.9319C48.5026 15.9319 48.442 16.1616 48.3478 16.4422C48.0921 17.2051 48.05 18.2484 48.2263 19.4623C48.4499 21.0026 48.5772 21.2248 50.1871 22.8886C50.9423 23.669 51.8207 24.6532 52.1391 25.0758L52.7182 25.8442L52.1391 25.2951C51.4311 24.6236 49.8028 23.314 49.4432 23.1267C49.2019 23.0012 49.166 23.0034 49.0174 23.1531C48.8803 23.2911 48.8513 23.4983 48.8323 24.4783C48.8026 26.0058 48.5969 26.9861 48.0999 27.9664C47.8311 28.4966 47.7887 28.3834 48.0319 27.785C48.2135 27.3382 48.232 27.1417 48.2307 25.6631C48.2279 22.6923 47.8789 21.978 45.8332 20.7545C45.3153 20.4446 44.4612 19.9976 43.9358 19.7611C43.4107 19.5247 42.9934 19.3188 43.0083 19.3034C43.0664 19.2451 45.0615 19.8338 45.8644 20.1461C47.0588 20.6107 47.2558 20.6709 47.4009 20.6148C47.498 20.5773 47.5452 20.291 47.5923 19.4493ZM21.6143 17.1685C21.4218 19.4622 22.3112 22.5304 23.7488 24.5316C24.8632 26.0829 26.5907 27.2883 27.866 27.4048C28.7011 27.481 28.952 27.2167 28.5742 26.6589C28.0498 25.8843 27.4047 24.6918 27.234 24.1812C27.1279 23.8641 26.8975 22.9272 26.7218 22.0992C26.1222 19.2727 25.5328 18.1719 24.1713 17.3359C23.6751 17.0312 22.6156 16.6324 22.0011 16.5191L21.6739 16.4587L21.6143 17.1685ZM45.8488 39.4253C39.1305 36.6903 36.7642 34.3162 36.7642 30.3105C36.7642 29.7211 36.7845 29.2388 36.8089 29.2388C36.8335 29.2388 37.0932 29.4333 37.3864 29.6711C38.7487 30.7759 40.2743 31.2478 44.4977 31.8706C46.9826 32.2375 48.3812 32.5334 49.6714 32.9662C53.7718 34.3412 56.3089 37.1316 56.9138 40.9325C57.0896 42.0369 56.9866 44.1078 56.7016 45.1994C56.4765 46.0616 55.7897 47.6153 55.6077 47.675C55.5571 47.6916 55.5075 47.4959 55.4947 47.2297C55.4257 45.8025 54.7124 44.4131 53.5146 43.3722C52.1526 42.1888 50.3226 41.2469 45.8488 39.4253ZM40.8078 39.1244C40.9021 39.4084 41.0482 40.055 41.1322 40.5616C41.6704 43.7997 39.9893 46.4159 36.7193 47.4297C36.3731 47.5369 35.0095 47.8069 33.689 48.0291C31.016 48.4791 29.8229 48.7978 28.6244 49.3816C27.7745 49.7956 26.7454 50.4156 26.8066 50.4772C26.8263 50.4972 27.0203 50.4503 27.2376 50.3731C28.749 49.8366 30.431 49.5588 32.9866 49.4244C34.0008 49.3713 35.1543 49.2862 35.5502 49.2359C37.8269 48.9459 39.4049 48.2466 40.6321 46.9838C41.3148 46.2809 41.7219 45.6263 42.05 44.7031C42.2579 44.1175 42.286 43.9 42.2875 42.8625C42.2894 41.8053 42.2641 41.6119 42.0387 40.9616C41.7437 40.1091 41.3956 39.4694 40.9548 38.9691L40.6364 38.6078L40.8078 39.1244ZM44.2121 46.0919C43.3193 44.1516 43.1145 42.2784 43.6033 40.5316C43.6558 40.3447 43.7398 40.1919 43.7906 40.1919C43.8412 40.1919 44.0516 40.3072 44.2586 40.4478C44.6697 40.7278 45.4948 41.1994 47.6925 42.4109C50.4353 43.9228 51.999 45.0934 53.0622 46.4313C53.9935 47.6025 54.5697 48.9366 54.8469 50.5634C55.0043 51.485 54.9122 53.7025 54.6784 54.6303C53.941 57.5563 52.2272 59.8544 49.7828 61.1956C49.4248 61.3919 49.1032 61.5531 49.0683 61.5541C49.0336 61.5547 49.1641 61.2194 49.3583 60.8084C50.1805 59.0703 50.2742 57.3797 49.6527 55.4981C49.2718 54.3459 48.4957 52.94 46.9286 50.5638C45.1068 47.8013 44.6601 47.0659 44.2121 46.0919ZM27.3985 52.4556C24.5729 52.9197 21.4709 54.4316 18.9778 56.56L18.2356 57.1938L18.8879 57.2969C22.2918 57.8341 23.2084 58.3106 25.5696 60.77C26.9283 62.185 27.3872 62.5 28.5142 62.7909C30.1696 63.2181 31.8013 62.4331 32.361 60.94C32.611 60.2728 32.5776 59.1681 32.2908 58.6134C31.6083 57.2925 29.6202 56.8656 28.6588 57.8331C27.858 58.6391 28.0913 59.8531 29.0873 60.0619C29.3153 60.11 29.3088 60.0997 29.0292 59.9719C28.5933 59.7725 28.404 59.4963 28.4015 59.0566C28.396 58.0256 29.5627 57.4469 30.6481 57.9419C31.4429 58.3047 31.7585 58.7784 31.7585 59.6091C31.7585 60.8881 30.6819 61.8519 29.4289 61.6944C28.7592 61.61 27.9402 61.1769 27.501 60.675C26.396 59.4116 26.8264 57.4178 28.3693 56.6528C29.5439 56.0706 31.1053 56.2141 32.316 57.0156C33.7071 57.9369 34.2987 58.7788 35.4968 61.5419C35.887 62.4416 36.389 63.4544 36.6122 63.7925C37.7473 65.5103 39.1071 66.3528 40.7451 66.3528C41.6485 66.3528 42.3281 66.1859 43.1832 65.7544C43.8184 65.4334 44.7191 64.8238 44.6541 64.7584C44.6357 64.74 44.3722 64.8228 44.0685 64.9425C42.28 65.6478 40.4619 65.5994 39.4062 64.8178C38.7412 64.3259 38.2049 63.3459 37.9293 62.1203C37.8815 61.9081 37.7242 60.9712 37.5793 60.0381C37.2122 57.6731 36.8597 56.61 36.0378 55.39C35.1968 54.1419 33.58 53.0944 31.7725 52.6266C30.6448 52.3347 28.6162 52.2553 27.3985 52.4556ZM23.4411 34.1703C23.6851 33.2591 24.4734 32.39 25.2843 32.1381C25.8 31.9781 26.8658 32.0803 27.367 32.3378C28.3382 32.8372 29.0433 33.9744 28.8903 34.7953C28.7037 35.7963 27.0983 36.5972 25.2515 36.6103C24.3083 36.6169 23.9599 36.4888 23.5997 36.0025C23.3767 35.7013 23.2922 34.7263 23.4411 34.1703ZM27.119 32.6947C27.6034 32.9938 27.7279 33.4359 27.4432 33.845C27.247 34.1269 26.6397 34.3947 26.1959 34.3947C25.5292 34.3947 24.8018 33.9159 24.8018 33.4775C24.8018 32.5966 26.1966 32.125 27.119 32.6947ZM171.874 35.2172C170.368 30.2008 172.852 26.0398 178.154 24.7027C179.674 24.319 186.558 24.4922 187.738 24.9439C188.171 25.1094 188.36 25.7447 188.364 27.0504C188.367 28.0787 188.479 29.3275 188.612 29.8256C188.815 30.5805 188.697 30.729 187.901 30.7169C187.181 30.7057 186.746 30.2834 186.138 29.0059C185.167 26.9654 183.992 26.3164 181.253 26.3088C177.757 26.2987 175.199 28.6552 175.615 31.5025C175.886 33.3553 177.736 35.1784 181.886 37.6847C185.835 40.0688 188.139 42.0294 189.057 43.7859C191.513 48.4822 189.416 53.5078 183.945 56.04C181.137 57.3397 176.43 57.4741 173.121 56.3491L171.002 55.6284V52.2391C171.002 49.1694 171.075 48.8491 171.774 48.8491C172.359 48.8491 172.611 49.2359 172.817 50.4478C173.327 53.4612 175.615 55.2906 178.873 55.2906C182.065 55.2906 184.296 53.545 185.151 50.3797C185.515 49.0312 185.452 48.5341 184.73 47.0466C183.864 45.2631 182.374 44.0797 177.314 41.1572C174.506 39.5353 172.52 37.3669 171.874 35.2172ZM72.6715 26.7053C71.981 26.7053 71.7116 26.4795 71.7116 25.9001C71.7116 25.1331 71.981 25.0949 77.3919 25.0949C82.4142 25.0949 83.0569 25.1706 82.9417 25.7475C82.8696 26.1066 82.1757 26.6047 81.3987 26.8547L79.9858 27.3092L79.8653 37.5759C79.7844 44.4266 79.898 48.3784 80.2061 49.4528C81.1224 52.6481 83.9173 54.4856 87.8607 54.4856C90.6059 54.4856 92.2096 53.8431 94.2244 51.935C96.3915 49.8838 96.7371 47.9347 96.7302 37.8047C96.7236 27.8126 96.5497 26.9879 94.406 26.7806C93.4305 26.686 93.1036 26.4585 93.1036 25.8747C93.1036 25.1468 93.4255 25.0949 97.947 25.0949C102.521 25.0949 102.79 25.1396 102.79 25.9001C102.79 26.3961 102.519 26.7077 102.084 26.7113C100.215 26.7278 100.18 26.9059 99.9287 37.8625C99.6678 49.2406 99.4239 50.5878 97.1204 53.375C96.4561 54.1791 94.8718 55.3466 93.6 55.9697C91.5275 56.985 90.8682 57.1016 87.251 57.095C83.9167 57.0881 82.864 56.9269 81.1967 56.1672C78.763 55.0581 77.1802 53.6228 76.0133 51.4659C75.1989 49.9603 75.1292 49.1456 74.9407 38.9447C74.7247 27.2682 74.6201 26.7053 72.6715 26.7053ZM110.44 26.7053C109.517 26.7053 109.248 26.5233 109.248 25.9001C109.248 25.1452 109.506 25.0969 113.385 25.1279L117.523 25.1609L119.502 27.4429C120.59 28.6978 124.138 32.6238 127.384 36.1666C130.632 39.7097 134.36 43.8312 135.669 45.3259C136.978 46.8209 138.21 48.0438 138.407 48.0438C138.609 48.0438 138.71 43.8213 138.638 38.3456L138.511 28.6475L137.378 27.6764C136.755 27.1422 135.802 26.7053 135.259 26.7053C134.537 26.7053 134.273 26.4863 134.273 25.8888C134.273 25.1025 134.479 25.0763 139.822 25.1842C144.366 25.276 145.372 25.4029 145.372 25.8836C145.372 26.2262 144.81 26.5858 144.023 26.7464C143.281 26.8978 142.464 27.2312 142.207 27.4872C141.875 27.8177 141.706 32.0916 141.624 42.2256L141.509 56.4984H140.339C139.332 56.4984 138.133 55.3641 131.724 48.3456C127.629 43.8612 122.85 38.5319 121.103 36.5025C119.355 34.4728 117.79 32.7969 117.623 32.7784C117.155 32.7259 117.268 50.8591 117.747 52.5803C118.121 53.9216 118.378 54.1525 119.965 54.5762C121.244 54.9172 121.761 55.2631 121.761 55.7769C121.761 56.4366 121.273 56.4984 116.11 56.4984C110.854 56.4984 110.459 56.4459 110.459 55.7438C110.459 55.2297 110.84 54.9131 111.652 54.7509C114.116 54.2594 114.28 53.4791 114.418 41.5509C114.496 34.8703 114.382 30.196 114.118 29.2173C113.653 27.4961 112.496 26.7053 110.44 26.7053ZM152.762 26.7053C151.898 26.7053 151.629 26.5141 151.629 25.9001C151.629 25.1307 151.898 25.0949 157.683 25.0949C163.468 25.0949 163.737 25.1307 163.737 25.9001C163.737 26.4908 163.468 26.7053 162.728 26.7053C162.173 26.7053 161.348 27.075 160.896 27.5267C160.096 28.3243 160.075 28.7208 160.189 41.0472C160.3 53.08 160.348 53.7763 161.09 54.3172C161.521 54.6313 162.293 54.8881 162.805 54.8881C163.468 54.8881 163.737 55.1203 163.737 55.6934C163.737 56.4628 163.468 56.4984 157.683 56.4984C152.035 56.4984 151.629 56.4478 151.629 55.745C151.629 55.1781 152.025 54.9278 153.228 54.7359C155.616 54.355 155.738 53.575 155.589 39.6566C155.47 28.5103 155.419 27.8153 154.679 27.2762C154.248 26.9622 153.386 26.7053 152.762 26.7053ZM194.994 26.7053C194.442 26.7053 194.022 26.3989 193.891 25.9001C193.688 25.1215 193.88 25.0949 199.697 25.0949C205.444 25.0949 205.714 25.1307 205.714 25.9001C205.714 26.5189 205.444 26.7053 204.552 26.7053C202.011 26.7053 202.068 27.1659 205.914 37.695C207.871 43.0547 209.772 48.1459 210.137 49.0088L210.801 50.5778L213.884 42.3656C217.513 32.6991 217.984 30.9114 217.368 29.1484C216.938 27.9196 215.268 26.7053 214.008 26.7053C213.652 26.7053 213.382 26.3591 213.382 25.9001C213.382 25.1295 213.652 25.0949 219.639 25.0949C225.626 25.0949 225.895 25.1295 225.895 25.9001C225.895 26.473 225.626 26.7053 224.963 26.7053C223.266 26.7053 222.518 27.608 222.761 29.3618C223.012 31.1671 229.954 50.57 230.245 50.2797C230.719 49.8075 238.407 28.9201 238.407 28.106C238.407 27.1305 237.723 26.7053 236.154 26.7053C235.447 26.7053 235.178 26.4835 235.178 25.9001C235.178 25.1396 235.447 25.0949 240.022 25.0949C244.13 25.0949 244.865 25.1899 244.865 25.7197C244.865 26.0636 244.362 26.5197 243.746 26.7335C242.363 27.2146 242.015 27.7638 240.28 32.2122C239.518 34.1656 237.132 40.2794 234.979 45.7975C232.825 51.3163 230.971 56.0722 230.858 56.3662C230.744 56.6606 230.077 56.9012 229.374 56.9012H228.096L225.197 49.3522C223.602 45.2006 221.718 40.2819 221.011 38.4219C219.798 35.2347 219.696 35.0963 219.24 36.0059C218.973 36.5375 217.058 41.465 214.982 46.9562L211.209 56.9406L209.801 56.8203L208.393 56.7L203.022 42.64C200.021 34.7847 197.262 28.166 196.769 27.6426C196.283 27.1269 195.485 26.7053 194.994 26.7053ZM275.699 26.8761C275.632 26.7231 275.632 26.1735 275.632 26.1735C275.632 26.1735 275.617 25.9753 275.7 25.8695C275.782 25.7641 275.812 25.7613 276.109 25.733L276.111 25.7328C277.201 25.629 279.388 25.4544 281.212 25.3747C281.379 25.3674 281.565 25.3589 281.767 25.3498L281.771 25.3496L281.774 25.3495L281.775 25.3494C283.783 25.2582 287.377 25.1362 289.847 25.2597C294.586 25.4968 297.956 27.7898 299.105 31.5791C300.253 35.3681 299.646 38.925 298.08 41.1891C296.515 43.4531 293.882 45.4025 289.506 45.2756C285.893 45.1709 284.927 44.4938 284.154 43.9528C283.991 43.8384 283.837 43.73 283.668 43.6347V48.4669C283.706 51.7625 283.733 53.3453 283.988 53.9313C284.332 54.72 285.108 55.2059 286.621 55.5784C286.621 55.5784 287.305 55.7391 287.482 55.9103C287.658 56.0816 287.658 56.4619 287.658 56.4619C287.658 56.4619 287.694 56.8175 287.553 56.9987C287.411 57.18 287.137 57.1438 287.137 57.1438L280.438 57.0897L276.398 57.0791C276.398 57.0791 275.974 57.1603 275.815 56.9897C275.657 56.8188 275.671 56.4628 275.671 56.4628C275.671 56.4628 275.706 56.0794 275.892 55.9078C276.077 55.7359 276.767 55.5441 276.767 55.5441C278.324 55.1062 279 54.6431 279.353 53.7706C279.637 53.0672 279.639 51.7628 279.637 41.1181C279.634 31.0234 279.619 29.1404 279.388 28.5988C279.046 27.7972 278.189 27.5847 276.969 27.2823L276.968 27.2822C276.726 27.2223 276.47 27.1587 276.201 27.0864C276.201 27.0864 275.767 27.029 275.699 26.8761ZM295.206 35.1131C295.206 36.7684 295.177 39.36 293.416 41.0166C291.656 42.6731 288.19 43.1266 285.837 42.6653C285.095 42.52 284.671 42.2959 284.344 42.1231L284.312 42.1059L283.709 41.7884L283.674 35.9725C283.653 32.3284 283.691 29.9543 283.777 29.6148C283.855 27.6934 286.686 27.4543 288.07 27.5255C293.988 27.5255 295.033 32.5175 295.206 35.1131ZM257.114 25.3204C257.114 25.3204 256.825 25.4314 256.386 25.5978L254.806 26.4148L253.668 29.2588C253.042 30.823 251.897 33.6944 251.124 35.6397C249.716 39.1828 248.785 41.5106 247.806 43.9403C247.518 44.655 246.649 46.8313 245.874 48.7766C245.1 50.7216 244.325 52.5728 244.154 52.8903C244.125 52.9431 244.095 53 244.063 53.06C243.63 53.875 242.877 55.2906 241.548 55.5047C241.548 55.5047 240.818 55.5766 240.547 55.8441C240.277 56.1119 240.303 56.3306 240.303 56.3306V56.6678C240.303 56.6678 240.327 56.8312 240.481 56.9125C240.634 56.9941 240.842 56.9987 240.842 56.9987L245.702 56.9434H250.727C250.727 56.9434 251.082 56.985 251.219 56.8713C251.356 56.7575 251.394 56.5887 251.394 56.5887V56.2337C251.394 56.2337 251.324 55.8488 251.125 55.6984C250.926 55.5484 250.18 55.4456 250.18 55.4456C248.169 55.1809 247.823 53.6581 248.071 52.2888C248.193 51.6159 249.001 49.1272 249.912 46.6216L250.227 45.7556L255.491 45.7153C258.386 45.6931 260.886 45.7081 261.046 45.7487C261.274 45.8066 261.594 46.4569 262.534 48.7731C263.957 52.2825 264.071 52.71 263.756 53.3666C263.736 53.4066 263.716 53.4506 263.694 53.4981C263.398 54.1331 262.824 55.3669 261.377 55.4925C261.377 55.4925 260.61 55.5191 260.419 55.7487C260.228 55.9787 260.27 56.2431 260.27 56.2431V56.5944C260.27 56.5944 260.321 56.8003 260.419 56.8819C260.518 56.9634 260.684 56.9428 260.684 56.9428L265.463 56.9084L272.18 56.9081C272.18 56.9081 272.443 56.9362 272.515 56.835C272.587 56.7334 272.602 56.6141 272.602 56.6141V56.1475C272.602 56.1475 272.572 55.8994 272.443 55.7625C272.314 55.6259 271.443 55.4816 271.443 55.4816C270.33 55.3019 269.776 54.3825 269.363 53.6978C269.258 53.5231 269.162 53.3637 269.068 53.2359C268.877 52.975 268.194 51.545 267.659 50.1697C267.124 48.7944 265.917 45.6875 264.977 43.2659C264.037 40.8444 262.725 37.4663 262.062 35.7594C261.398 34.0522 260.138 30.8041 259.26 28.5412C259.116 28.1698 258.987 27.8362 258.872 27.5376L258.871 27.5362C258.283 26.0166 258.046 25.4034 257.98 25.3204C257.769 25.0509 257.114 25.3204 257.114 25.3204ZM256.801 34.5675C256.589 34.0516 256.216 33.1259 255.972 32.5106C255.529 31.3922 255.36 31.1346 255.223 31.3656C255.183 31.4331 254.904 32.1975 254.603 33.0644C252.655 38.6769 251.773 41.2041 251.596 41.6803C251.485 41.9797 251.394 42.2881 251.394 42.3659C251.394 42.4553 252.978 42.5075 255.693 42.5075C258.057 42.5075 259.992 42.4781 259.992 42.4422C259.992 42.4063 259.781 41.8706 259.523 41.2512C259.266 40.6319 258.634 39.0859 258.121 37.8156C257.607 36.5453 257.013 35.0837 256.801 34.5675Z" fill="#CBC6DA"/>
</svg>
