<svg width="128" height="128" viewBox="0 0 128 128" fill="none" xmlns="http://www.w3.org/2000/svg">
<path opacity="0.21789" fill-rule="evenodd" clip-rule="evenodd" d="M54.897 1L109.794 32.6948V96.0844L54.897 127.779L0 96.0844V32.6948L54.897 1Z" fill="#9013FE"/>
<path opacity="0.343424" fill-rule="evenodd" clip-rule="evenodd" d="M69.2903 8.75L116.516 35.8774V90.1323L69.2903 117.26L22.0645 90.1323V35.8774L69.2903 8.75Z" fill="#9013FE"/>
<path fill-rule="evenodd" clip-rule="evenodd" d="M86.993 17L127.986 40.6673V88.0019L86.993 111.669L46 88.0019V40.6673L86.993 17Z" fill="#9013FE"/>
<path d="M110 51.2143V52.75C110 52.9537 109.921 53.149 109.78 53.293C109.64 53.437 109.449 53.5179 109.25 53.5179H107V54.6697C107 55.3057 106.496 55.8214 105.875 55.8214H69.125C68.5037 55.8214 68 55.3057 68 54.6697V53.5179H65.75C65.5511 53.5179 65.3603 53.437 65.2197 53.293C65.079 53.149 65 52.9537 65 52.75V51.2143C65 51.0624 65.044 50.9139 65.1265 50.7876C65.2089 50.6613 65.3261 50.5629 65.4632 50.5048L87.2132 42.0584C87.3968 41.9805 87.6032 41.9805 87.7868 42.0584L109.537 50.5048C109.674 50.5629 109.791 50.6613 109.874 50.7876C109.956 50.9139 110 51.0624 110 51.2143ZM107.75 80.3929H67.25C66.0073 80.3929 65 81.4242 65 82.6964V84.2321C65 84.4358 65.079 84.6311 65.2197 84.7751C65.3603 84.9191 65.5511 85 65.75 85H109.25C109.449 85 109.64 84.9191 109.78 84.7751C109.921 84.6311 110 84.4358 110 84.2321V82.6964C110 81.4242 108.993 80.3929 107.75 80.3929ZM72.5 57.3572V75.7857H69.125C68.5037 75.7857 68 76.3014 68 76.9375V78.8571H107V76.9375C107 76.3014 106.496 75.7857 105.875 75.7857H102.5V57.3572H96.5V75.7857H90.5V57.3572H84.5V75.7857H78.5V57.3572H72.5Z" fill="white"/>
</svg>
