<svg width="137" height="29" viewBox="0 0 137 29" fill="none" xmlns="http://www.w3.org/2000/svg">
    <path d="M32.2479 16.2521C32.2479 19.3425 34.3363 21.4417 37.46 21.4417C40.5654 21.4417 42.6539 19.3425 42.6539 16.2521V7.40853H40.3112V16.2327C40.3112 18.0986 39.1671 19.1482 37.4418 19.1482C35.7165 19.1482 34.5906 18.0986 34.5906 16.2521V7.40853H32.2479V16.2521ZM45.7412 21.2084H48.0839V13.2589C48.0839 12.4426 47.9568 11.1209 47.9568 11.1209H47.9931L48.0999 11.3612C48.2902 11.7836 48.7022 12.6699 49.0646 13.2589L53.9498 21.2084H56.2744V7.40853H53.9498V15.3775C53.9498 16.1938 54.0769 17.5155 54.0769 17.5155H54.0406L53.9339 17.2752C53.7436 16.8528 53.3316 15.9665 52.9691 15.3775L48.0839 7.40853H45.7412V21.2084ZM59.8339 17.671L58.5626 19.5563L58.6008 19.5994C58.8575 19.8804 60.4008 21.4417 63.012 21.4417C65.6998 21.4417 67.2616 19.5952 67.2616 17.3989C67.2616 12.9868 61.1959 13.5893 61.1959 11.1403C61.1959 10.1685 62.0495 9.48823 63.1391 9.48823C64.7554 9.48823 65.9903 10.6933 65.9903 10.6933L67.0073 8.65246L66.9756 8.61872C66.762 8.39854 65.4709 7.17529 63.1573 7.17529C60.6874 7.17529 58.835 8.8857 58.835 11.1792C58.835 15.4164 64.9188 14.9888 64.9188 17.4572C64.9188 18.5845 64.029 19.1287 63.0483 19.1287C61.2322 19.1287 59.8339 17.671 59.8339 17.671ZM69.6043 21.2084H77.5223V19.051H71.947V7.40853H69.6043V21.2084ZM87.3109 21.2084H89.7263L85.1861 7.40853H82.7344L78.1943 21.2084H80.6096L81.6993 17.671H86.2213L87.3109 21.2084ZM83.9512 9.79922H83.9875L84.057 10.1342C84.1531 10.5875 84.3332 11.401 84.496 11.9372L85.6401 15.6302H82.2623L83.4064 11.9372L83.4325 11.8558C83.6801 11.0686 83.9512 9.79922 83.9512 9.79922ZM91.6695 17.671L90.3982 19.5563L90.4284 19.5906C90.6593 19.8459 92.2077 21.4417 94.8476 21.4417C97.5353 21.4417 99.0972 19.5952 99.0972 17.3989C99.0972 12.9868 93.0315 13.5893 93.0315 11.1403C93.0315 10.1685 93.8851 9.48823 94.9747 9.48823C96.591 9.48823 97.8259 10.6933 97.8259 10.6933L98.8429 8.65246L98.8112 8.61872C98.5975 8.39854 97.3065 7.17529 94.9929 7.17529C92.523 7.17529 90.6706 8.8857 90.6706 11.1792C90.6706 15.4164 96.7544 14.9888 96.7544 17.4572C96.7544 18.5845 95.8646 19.1287 94.8839 19.1287C93.0678 19.1287 91.6695 17.671 91.6695 17.671ZM101.44 21.2084H103.783V15.4164H109.685V21.2084H112.028V7.40853H109.685V13.2589H103.783V7.40853H101.44V21.2084ZM115.296 21.2084H123.305V19.051H117.639V15.3386H121.98V13.1812H117.639V9.56598H123.015V7.40853H115.296V21.2084ZM125.739 21.2084H130.134C134.111 21.2084 136.708 18.6428 136.708 14.289C136.708 9.93527 134.111 7.40853 130.134 7.40853H125.739V21.2084ZM128.082 19.051V9.56598H130.007C132.585 9.56598 134.292 11.2181 134.292 14.289C134.292 17.3989 132.622 19.051 130.007 19.051H128.082Z" fill="white"/>
    <path fill-rule="evenodd" clip-rule="evenodd" d="M12.8149 0C16.3836 0.86174 20.1521 0.86174 25.4588 4.88167V11.962C25.4588 24.7392 19.3551 24.7392 12.8097 28.6098C4.92004 24.7319 0 23.6649 0 11.962V4.88167C5.4361 0.863764 9.1957 0.86174 12.8149 0ZM13.6243 10.0799L13.3318 10.0824V25.205L13.5681 25.0513C15.1902 23.9682 16.1314 22.7349 16.3919 21.3513L16.3836 13.7878L16.6483 13.8358C17.8863 14.0876 19.1634 14.7323 20.4795 15.7698C20.6775 13.73 20.0692 12.3264 18.6547 11.5588C16.7567 10.5289 14.9824 10.0367 13.3318 10.0824L13.6243 10.0799ZM12.2419 3.27461C11.3585 3.36078 10.3144 3.57622 9.19008 3.92092L9.21256 16.2693C9.21256 17.1975 8.51819 17.9242 7.63989 17.9242C6.7616 17.9242 6.14385 17.1596 6.14385 16.2869V4.89037C4.7748 5.59413 3.74413 6.21659 3.05185 6.75776C3.05185 20.2509 2.66525 19.2854 12.2419 25.205V3.27461ZM13.3318 3.27461V6.72243L13.7183 6.77359C17.8037 7.34885 20.7002 8.86856 22.4076 11.3327C22.7414 8.79156 22.3129 7.08246 21.122 6.20545C19.1843 4.77848 16.5875 3.80153 13.3318 3.27461Z" fill="#01F496"/>
</svg>
