<?xml version="1.0" encoding="UTF-8"?>
<svg width="959px" height="360px" viewBox="0 0 959 360" version="1.1" xmlns="http://www.w3.org/2000/svg" xmlns:xlink="http://www.w3.org/1999/xlink">
    <!-- Generator: Sketch 52.5 (67469) - http://www.bohemiancoding.com/sketch -->
    <title>kleros-logo-fullwhite</title>
    <desc>Created with Sketch.</desc>
    <g id="kleros-logo-fullwhite" stroke="none" stroke-width="1" fill="none" fill-rule="evenodd">
        <path d="M126.251953,25.7250426 L299.425781,33.4751596 L369.537109,189.449667 L270.623047,332 L96.5078125,320.835869 L25.1263499,151.838464 L126.251953,25.7250426 Z M253.211448,115.632496 L127.706226,170.535418 L235.00537,253.600691 L253.211448,115.632496 Z M238.680959,88.1211596 L138.381643,44.8809716 L117.312542,135.795429 L238.680959,88.1211596 Z M213.258586,274.500642 L104.252724,196.566188 L106.889489,302.172011 L213.258586,274.500642 Z M352.126028,189.105652 L277.844097,113.634819 L258.238053,258.761993 L352.126028,189.105652 Z M238.815843,291.476 L146.883687,315.534131 L254.995398,322.465582 L238.815843,291.476 Z M337.60968,223.347039 L257.136138,283.369894 L273.12642,314.658855 L337.60968,223.347039 Z M299.545194,55.267805 L283.914966,87.3950284 L342.093486,146.607926 L299.545194,55.267805 Z M280.070771,39.8938546 L177.908097,35.741734 L262.180147,72.6481418 L280.070771,39.8938546 Z M111.333047,54.750695 L39.7749028,145.222071 L87.6173918,155.368312 L111.333047,54.750695 Z M84.7326144,173.115525 L36.6595172,162.924649 L86.8200533,281.243755 L84.7326144,173.115525 Z" id="Combined-Shape" fill="#FFFFFF"></path>
        <g id="kleros-logo" transform="translate(36.000000, 35.000000)">
            <g id="Group"></g>
            <g id="Group" transform="translate(393.000000, 103.000000)" fill="#FFFFFF">
                <polygon id="Path" points="10.683022 35.1901842 14.4097841 35.1901842 41.0923128 0.0309473684 48.6938194 6.01459211 22.9057137 38.7788421 53.1659339 75.4342632 45.5633392 81.8678553 14.1116432 43.4159211 10.683022 43.4159211 10.683022 79.9228158 0.695299559 79.9228158 0.695299559 1.97380263 10.683022 1.97380263 10.683022 35.1901842"></polygon>
                <polygon id="Path" points="91.3301542 1.97598684 101.317877 1.97598684 101.317877 70.9468026 142.010855 70.9468026 142.010855 79.925 91.3301542 79.925"></polygon>
                <polygon id="Path" points="178.832352 1.97598684 227.278084 1.97598684 227.278084 10.9530921 188.820075 10.9530921 188.820075 34.2935658 220.571 34.2935658 220.571 43.2695789 188.820075 43.2695789 188.820075 70.9478947 227.278084 70.9478947 227.278084 79.9260921 178.832352 79.9260921"></polygon>
                <path d="M267.080991,1.97598684 L293.465379,1.97598684 C306.433423,1.97598684 316.719286,8.11034211 316.719286,23.2207105 C316.719286,32.7951974 310.309256,42.2211579 300.918903,45.0639079 L319.998837,76.6323026 L311.353837,81.8689474 L291.527463,46.559 L277.067626,46.559 L277.067626,79.9239079 L267.080991,79.9239079 L267.080991,1.97598684 Z M290.185828,37.5840789 C299.874322,37.5840789 306.284352,32.0492895 306.284352,23.2207105 C306.284352,16.1897368 302.110379,10.9530921 293.16615,10.9530921 L277.066537,10.9530921 L277.066537,37.5840789 L290.185828,37.5840789 Z" id="Shape" fill-rule="nonzero"></path>
                <path d="M406.6077,41.0242105 C406.6077,47.3081842 406.160489,81.2704737 379.030749,81.2704737 C366.508828,81.2704737 351.453797,72.2944605 351.453797,41.0242105 C351.453797,9.90467105 366.210687,0.629421053 379.030749,0.629421053 C391.402511,0.629421053 406.6077,9.60652632 406.6077,41.0242105 Z M361.888731,41.0242105 C361.888731,52.3952105 363.975718,71.8445132 379.030749,71.8445132 C394.08578,71.8445132 396.172767,52.3952105 396.172767,41.0242105 C396.172767,29.5046842 394.08578,10.0553816 379.030749,10.0553816 C363.975718,10.0553816 361.888731,29.5046842 361.888731,41.0242105 Z" id="Shape" fill-rule="nonzero"></path>
                <path d="M452.222181,55.2390526 C454.160097,64.8146316 458.781282,71.8445132 469.216216,71.8445132 C477.414004,71.8445132 483.824035,67.3570526 483.824035,58.6791842 C483.824035,49.1036053 475.775317,46.7108026 468.172722,43.5688158 C456.844454,38.7799342 446.111379,35.7875658 446.111379,21.1260526 C446.111379,7.96072368 456.695383,0.629421053 468.918075,0.629421053 C481.886119,0.629421053 489.488714,8.11034211 492.619194,20.2283421 L483.078683,23.0710921 C481.289837,15.4416447 477.264934,10.0553816 468.769004,10.0553816 C462.358974,10.0553816 456.098013,13.3469868 456.098013,20.3779605 C456.098013,27.7092632 460.56904,29.8039211 466.532947,32.4959605 L483.078683,39.8272632 C490.083907,43.7173421 493.81067,50.0013158 493.81067,58.0796184 C493.81067,72.89075 483.525894,81.2693816 469.215128,81.2693816 C454.756379,81.2693816 445.661991,71.9930395 443.277952,58.0796184 L452.222181,55.2390526 Z" id="Path"></path>
            </g>
        </g>
    </g>
</svg>