<?xml version="1.0" encoding="utf-8"?>
<!-- Generator: Adobe Illustrator 15.0.0, SVG Export Plug-In . SVG Version: 6.00 Build 0)  -->
<!DOCTYPE svg PUBLIC "-//W3C//DTD SVG 1.1//EN" "http://www.w3.org/Graphics/SVG/1.1/DTD/svg11.dtd">
<svg version="1.1" id="Ebene_1" xmlns="http://www.w3.org/2000/svg" xmlns:xlink="http://www.w3.org/1999/xlink" x="0px" y="0px"
	 width="211.58px" height="59.032px" viewBox="0 0 211.58 59.032" enable-background="new 0 0 211.58 59.032" xml:space="preserve">
<path fill="#333333" d="M102.293,17.357h-7.757c-0.287,0-0.478,0.192-0.478,0.48v14.894c0,0.864-0.192,1.633-0.766,2.209
	c-0.479,0.577-1.246,0.865-2.107,0.865c-0.862,0-1.533-0.288-2.107-0.865c-0.479-0.576-0.766-1.249-0.766-2.209V17.838
	c0-0.288-0.192-0.48-0.479-0.48h-7.757c-0.287,0-0.478,0.192-0.478,0.48v14.797c0,3.364,1.149,5.958,3.256,7.975
	c2.106,2.019,4.979,2.979,8.139,3.075c3.543,0,6.416-0.961,8.523-2.979c2.202-2.018,3.256-4.707,3.256-7.975V17.838
	C102.772,17.55,102.581,17.357,102.293,17.357"/>
<path fill="#333333" d="M133.463,17.357h-7.086c-0.289,0-0.479,0.192-0.479,0.48v9.608c0,0.48-0.575,0.673-0.862,0.288l-7.66-10.185
	c-0.097-0.096-0.191-0.192-0.384-0.192h-6.416c-0.286,0-0.479,0.192-0.479,0.48v24.598c0,0.288,0.193,0.481,0.479,0.481h7.087
	c0.287,0,0.479-0.193,0.479-0.481V32.347c0-0.48,0.574-0.673,0.861-0.288l7.854,10.665c0.095,0.096,0.191,0.193,0.383,0.193h6.128
	c0.288,0,0.479-0.193,0.479-0.481V17.838C133.846,17.55,133.654,17.262,133.463,17.357"/>
<path fill="#333333" d="M148.859,17.262h-7.66c-0.287,0-0.479,0.288-0.479,0.576V42.34c0,0.288,0.192,0.479,0.479,0.479h7.66
	c0.289,0,0.479-0.191,0.479-0.479V17.742C149.339,17.454,149.148,17.262,148.859,17.262"/>
<path fill="#333333" d="M178.689,20.241c-2.586-2.499-5.938-3.748-10.151-3.748s-7.565,1.249-10.151,3.748
	c-2.585,2.498-3.83,5.764-3.83,9.8s1.245,7.302,3.83,9.801c2.49,2.498,5.938,3.747,10.151,3.747s7.565-1.249,10.151-3.747
	c2.584-2.499,3.83-5.765,3.83-9.801S181.273,22.739,178.689,20.241 M172.273,34.269c-0.959,0.96-2.203,1.537-3.832,1.537
	c-1.531,0-2.873-0.48-3.83-1.537s-1.437-2.402-1.437-4.132c0-1.729,0.479-3.075,1.437-4.132c0.957-1.056,2.203-1.537,3.83-1.537
	c1.533,0,2.873,0.481,3.832,1.537c0.957,1.057,1.436,2.403,1.436,4.132C173.709,31.866,173.23,33.212,172.273,34.269"/>
<path fill="#333333" d="M211.197,17.357h-7.086c-0.289,0-0.479,0.192-0.479,0.48v9.608c0,0.48-0.575,0.673-0.862,0.288l-7.66-10.185
	c-0.097-0.096-0.191-0.192-0.384-0.192h-6.416c-0.286,0-0.479,0.192-0.479,0.48v24.598c0,0.288,0.193,0.481,0.479,0.481h7.087
	c0.287,0,0.479-0.193,0.479-0.481V32.347c0-0.48,0.574-0.673,0.861-0.288l7.854,10.665c0.095,0.096,0.191,0.193,0.383,0.193h6.128
	c0.288,0,0.479-0.193,0.479-0.481V17.838C211.58,17.55,211.389,17.262,211.197,17.357"/>
<path fill="#7E6CFF" d="M43.615,14.367c0.103-0.001,0.127,0.059,0.054,0.131l-4.281,4.292c-0.095,0.095-0.249,0.095-0.343,0
	l-0.796-0.796c-0.216-0.216-0.509-0.337-0.815-0.337c0,0-2.1-0.004-2.765-0.009c-0.071-0.001-0.102-0.089-0.048-0.135
	C37.032,15.453,40.399,14.396,43.615,14.367"/>
<path fill="#7E6CFF" d="M25.478,39.56h-2.691c-0.389,0-0.755-0.15-1.03-0.426l-1.903-1.903c-0.275-0.274-0.427-0.641-0.427-1.029
	v-2.692c0-0.389,0.152-0.755,0.427-1.029l1.903-1.903c0.275-0.275,0.641-0.426,1.03-0.426h2.691c0.389,0,0.755,0.151,1.03,0.426
	l1.903,1.903c0.275,0.274,0.427,0.642,0.427,1.029v2.692c0,0.389-0.152,0.755-0.427,1.029l-1.903,1.903
	C26.233,39.409,25.867,39.56,25.478,39.56"/>
<path fill="#7E6CFF" d="M12.247,14.084c0.076-0.016,0.146,0.042,0.141,0.12c-0.028,0.402-0.043,0.808-0.043,1.217
	c0,0.254,0.006,0.507,0.017,0.758c0.004,0.107-0.035,0.211-0.111,0.287L0.196,28.385c-0.074,0.074-0.2,0.018-0.196-0.089
	C0.276,21.252,5.852,15.413,12.247,14.084"/>
<path fill="#7E6CFF" d="M12.565,18.786c0.065-0.064,0.175-0.031,0.193,0.059c0.336,1.644,0.981,3.203,1.747,4.642
	c0.032,0.059,0.021,0.132-0.026,0.179L3.947,34.161c-0.651,0.656-1.401,1.412-1.926,1.942c-0.149,0.151-0.402,0.107-0.493-0.084
	c-0.682-1.43-1.15-2.982-1.357-4.616c-0.015-0.116,0.026-0.232,0.109-0.315L12.565,18.786z"/>
<path fill="#7E6CFF" d="M17.49,34.392c0.072-0.072,0.195-0.021,0.195,0.081v2.63c0,0.307,0.121,0.6,0.337,0.814l0.684,0.807
	c0.046,0.045,0.045,0.119,0.061,0.104l-5.598,5.451c-0.149,0.147-0.273,0.185-0.394,0.164c-1.385-0.235-2.704-0.658-3.934-1.24
	c-0.071-0.034-0.087-0.129-0.031-0.186L17.49,34.392z"/>
<path fill="#7E6CFF" d="M13.611,35.646l0.027-0.026C13.623,35.635,13.611,35.646,13.611,35.646"/>
<path fill="#7E6CFF" d="M15.619,44.633c-0.102,0.001-0.126-0.059-0.054-0.13l4.282-4.293c0.094-0.095,0.248-0.095,0.342,0
	l0.797,0.796c0.216,0.216,0.508,0.337,0.814,0.337c0,0,2.1,0.004,2.765,0.01c0.071,0,0.102,0.088,0.049,0.135
	C22.202,43.547,18.836,44.604,15.619,44.633"/>
<path fill="#7E6CFF" d="M2.839,37.671c1.182-1.18,6.749-6.742,7.889-7.882c0.087-0.087,0.226-0.034,0.248,0.088
	c0.176,0.978,0.643,1.886,1.355,2.599h0.001c0.746,0.746,1.709,1.226,2.74,1.381c0.122,0.018,0.178,0.156,0.091,0.244
	c-1.112,1.112-6.357,6.361-8.062,8.068c-0.052,0.004-0.082,0.007-0.134,0.011c-1.632-1.065-3.05-2.433-4.169-4.026
	C2.693,38.004,2.71,37.801,2.839,37.671"/>
<path fill="#7E6CFF" d="M19.155,25.478v-2.691c0-0.39,0.151-0.755,0.427-1.03l1.903-1.904c0.274-0.274,0.64-0.426,1.029-0.426h2.692
	c0.389,0,0.755,0.152,1.03,0.426l1.903,1.904c0.275,0.275,0.426,0.64,0.426,1.03v2.691c0,0.389-0.151,0.755-0.426,1.03l-1.903,1.903
	c-0.275,0.275-0.641,0.426-1.03,0.426h-2.692c-0.389,0-0.755-0.151-1.029-0.426l-1.904-1.903
	C19.306,26.232,19.155,25.867,19.155,25.478"/>
<path fill="#7E6CFF" d="M44.631,12.247c0.016,0.076-0.042,0.146-0.12,0.14c-0.402-0.028-0.808-0.042-1.217-0.042
	c-0.254,0-0.507,0.006-0.758,0.016c-0.107,0.005-0.211-0.034-0.287-0.109L30.331,0.196c-0.075-0.075-0.018-0.2,0.088-0.196
	C37.463,0.275,43.302,5.851,44.631,12.247"/>
<path fill="#7E6CFF" d="M39.929,12.565c0.064,0.064,0.031,0.175-0.059,0.193c-1.644,0.336-3.203,0.98-4.642,1.747
	c-0.059,0.031-0.132,0.021-0.179-0.026L24.554,3.947c-0.657-0.651-1.412-1.401-1.943-1.927c-0.151-0.149-0.107-0.401,0.084-0.492
	c1.43-0.684,2.983-1.15,4.616-1.358c0.117-0.014,0.233,0.027,0.316,0.109L39.929,12.565z"/>
<path fill="#7E6CFF" d="M24.323,17.489c0.072,0.072,0.021,0.195-0.081,0.195h-2.63c-0.306,0-0.599,0.122-0.814,0.338l-0.807,0.684
	c-0.045,0.045-0.119,0.045-0.103,0.06l-5.451-5.597c-0.148-0.15-0.185-0.274-0.165-0.395c0.236-1.384,0.659-2.703,1.241-3.933
	c0.034-0.072,0.129-0.088,0.185-0.032L24.323,17.489z"/>
<path fill="#7E6CFF" d="M14.082,15.619c-0.001-0.103,0.059-0.126,0.131-0.054l4.292,4.282c0.095,0.094,0.095,0.248,0,0.342
	l-0.796,0.796c-0.216,0.217-0.337,0.509-0.337,0.815c0,0-0.004,2.1-0.009,2.765c-0.001,0.071-0.089,0.103-0.135,0.049
	C15.168,22.202,14.111,18.836,14.082,15.619"/>
<path fill="#7E6CFF" d="M31.169,17.262c-0.484,0.484-1.141,0.756-1.825,0.756c-0.685,0-1.342-0.271-1.825-0.756h-0.001
	c-0.484-0.484-0.756-1.141-0.756-1.826c0-0.685,0.272-1.341,0.756-1.825l0.001-0.001c0.483-0.484,1.14-0.756,1.824-0.756h0.001
	c0.685,0,1.342,0.273,1.825,0.757h0.001c0.484,0.484,0.755,1.141,0.755,1.825C31.925,16.121,31.653,16.777,31.169,17.262z"/>
<path fill="#7E6CFF" d="M21.044,2.839c1.18,1.181,6.742,6.748,7.882,7.889c0.087,0.087,0.034,0.226-0.088,0.248
	c-0.977,0.176-1.886,0.643-2.598,1.355h-0.001c-0.746,0.747-1.225,1.71-1.38,2.741c-0.018,0.122-0.157,0.178-0.244,0.09
	c-1.113-1.112-6.362-6.356-8.069-8.061c-0.004-0.052-0.007-0.083-0.011-0.134c1.066-1.633,2.433-3.05,4.027-4.169
	C20.711,2.693,20.914,2.709,21.044,2.839"/>
<path fill="#7E6CFF" d="M17.262,27.545c0.484,0.484,0.756,1.141,0.756,1.825c0,0.685-0.272,1.342-0.756,1.825v0.001
	c-0.484,0.484-1.141,0.756-1.826,0.756s-1.341-0.271-1.825-0.756v-0.001c-0.484-0.482-0.756-1.14-0.756-1.824v-0.001
	c0-0.685,0.272-1.341,0.756-1.825l0.001-0.001c0.483-0.484,1.14-0.755,1.824-0.755C16.121,26.79,16.778,27.062,17.262,27.545z"/>
<path fill="#7E6CFF" d="M33.711,19.472h2.691c0.39,0,0.755,0.151,1.03,0.426l1.904,1.904c0.274,0.274,0.426,0.64,0.426,1.029v2.691
	c0,0.39-0.152,0.754-0.426,1.029l-1.904,1.903c-0.275,0.275-0.64,0.427-1.03,0.427h-2.691c-0.389,0-0.755-0.151-1.03-0.427
	l-1.903-1.902c-0.275-0.276-0.426-0.642-0.426-1.03v-2.691c0-0.389,0.151-0.755,0.426-1.029l1.903-1.904
	C32.956,19.623,33.322,19.472,33.711,19.472"/>
<path fill="#7E6CFF" d="M46.942,44.948c-0.076,0.016-0.146-0.043-0.14-0.12c0.028-0.402,0.042-0.809,0.042-1.218
	c0-0.254-0.006-0.507-0.016-0.759c-0.005-0.106,0.034-0.211,0.11-0.286l12.055-11.918c0.075-0.074,0.2-0.018,0.196,0.088
	C58.913,37.78,53.338,43.619,46.942,44.948"/>
<path fill="#7E6CFF" d="M46.624,40.245c-0.064,0.065-0.175,0.031-0.193-0.059c-0.336-1.644-0.98-3.203-1.747-4.641
	c-0.031-0.059-0.021-0.132,0.026-0.18l10.532-10.496c0.651-0.656,1.401-1.412,1.927-1.943c0.149-0.15,0.401-0.107,0.492,0.084
	c0.683,1.431,1.15,2.983,1.358,4.617c0.014,0.116-0.027,0.233-0.109,0.315L46.624,40.245z"/>
<path fill="#7E6CFF" d="M41.7,24.64c-0.072,0.072-0.195,0.021-0.195-0.081v-2.63c0-0.306-0.122-0.599-0.338-0.815l-0.683-0.806
	c-0.046-0.045-0.046-0.119-0.061-0.104l5.597-5.451c0.15-0.147,0.274-0.186,0.395-0.165c1.384,0.236,2.703,0.659,3.933,1.241
	c0.072,0.034,0.088,0.128,0.032,0.184L41.7,24.64z"/>
<path fill="#7E6CFF" d="M45.578,23.385l-0.027,0.027C45.566,23.397,45.578,23.385,45.578,23.385"/>
<path fill="#7E6CFF" d="M43.57,14.399c0.103-0.001,0.126,0.058,0.054,0.13l-4.282,4.293c-0.094,0.095-0.248,0.095-0.342,0
	l-0.796-0.796c-0.217-0.216-0.509-0.337-0.815-0.337c0,0-2.1-0.004-2.765-0.01c-0.071,0-0.102-0.088-0.049-0.134
	C36.987,15.485,40.353,14.428,43.57,14.399"/>
<path fill="#7E6CFF" d="M56.35,21.36c-1.182,1.181-6.749,6.743-7.889,7.882c-0.088,0.087-0.226,0.034-0.248-0.087
	c-0.176-0.978-0.643-1.887-1.356-2.599c-0.746-0.747-1.709-1.226-2.741-1.381c-0.121-0.019-0.177-0.157-0.09-0.244
	c1.112-1.113,6.356-6.362,8.062-8.069c0.051-0.004,0.082-0.006,0.134-0.011c1.632,1.066,3.05,2.433,4.169,4.027
	C56.496,21.028,56.479,21.231,56.35,21.36"/>
<path fill="#7E6CFF" d="M40.035,33.554v2.691c0,0.391-0.152,0.755-0.427,1.03l-1.903,1.903c-0.275,0.274-0.641,0.427-1.029,0.427
	h-2.692c-0.389,0-0.755-0.152-1.03-0.427l-1.903-1.903c-0.275-0.275-0.427-0.64-0.427-1.03v-2.691c0-0.389,0.152-0.754,0.427-1.029
	l1.903-1.903c0.275-0.274,0.641-0.426,1.03-0.426h2.692c0.388,0,0.754,0.151,1.029,0.426l1.903,1.903
	C39.883,32.8,40.035,33.165,40.035,33.554"/>
<path fill="#7E6CFF" d="M14.558,46.785c-0.016-0.076,0.043-0.146,0.12-0.141c0.402,0.028,0.808,0.043,1.218,0.043
	c0.254,0,0.506-0.006,0.758-0.018c0.107-0.004,0.211,0.035,0.286,0.111l11.919,12.055c0.075,0.075,0.017,0.2-0.088,0.196
	C21.726,58.757,15.887,53.181,14.558,46.785"/>
<path fill="#7E6CFF" d="M19.26,46.467c-0.065-0.065-0.031-0.175,0.059-0.192c1.644-0.336,3.203-0.981,4.641-1.748
	c0.06-0.03,0.132-0.021,0.18,0.026l10.495,10.532c0.656,0.65,1.412,1.4,1.943,1.926c0.15,0.149,0.107,0.402-0.084,0.493
	c-1.431,0.683-2.983,1.149-4.617,1.356c-0.116,0.016-0.233-0.025-0.315-0.108L19.26,46.467z"/>
<path fill="#7E6CFF" d="M34.866,41.543c-0.072-0.071-0.021-0.194,0.081-0.194h2.63c0.306,0,0.599-0.123,0.815-0.339l0.807-0.684
	c0.044-0.045,0.118-0.045,0.102-0.06l5.451,5.597c0.148,0.149,0.186,0.274,0.165,0.395c-0.236,1.384-0.659,2.703-1.241,3.934
	c-0.034,0.071-0.128,0.088-0.184,0.032L34.866,41.543z"/>
<path fill="#7E6CFF" d="M45.107,43.413c0.001,0.102-0.058,0.126-0.13,0.055l-4.293-4.282c-0.095-0.095-0.095-0.248,0-0.343
	l0.796-0.797c0.216-0.216,0.337-0.508,0.337-0.813c0,0,0.004-2.101,0.01-2.765c0-0.071,0.089-0.103,0.134-0.05
	C44.021,36.83,45.078,40.196,45.107,43.413"/>
<path fill="#7E6CFF" d="M28.02,41.771c0.484-0.484,1.14-0.756,1.825-0.756c0.685,0,1.341,0.271,1.825,0.756
	c0.485,0.483,0.757,1.141,0.757,1.826c0,0.685-0.272,1.341-0.757,1.824c-0.483,0.484-1.14,0.756-1.825,0.756
	c-0.685,0-1.342-0.271-1.825-0.756l-0.001-0.001c-0.484-0.482-0.756-1.14-0.756-1.823C27.263,42.911,27.535,42.254,28.02,41.771z"/>
<path fill="#7E6CFF" d="M38.146,56.192c-1.181-1.182-6.742-6.748-7.882-7.889c-0.087-0.087-0.034-0.226,0.087-0.248
	c0.978-0.176,1.887-0.643,2.599-1.354V46.7c0.747-0.746,1.226-1.709,1.381-2.74c0.018-0.122,0.157-0.178,0.244-0.091
	c1.113,1.112,6.362,6.356,8.069,8.062c0.004,0.053,0.007,0.082,0.011,0.135c-1.066,1.632-2.433,3.05-4.027,4.168
	C38.479,56.339,38.274,56.323,38.146,56.192"/>
<path fill="#7E6CFF" d="M41.927,31.486c-0.484-0.483-0.756-1.141-0.756-1.825s0.272-1.342,0.756-1.826s1.141-0.756,1.826-0.756
	c0.685,0,1.341,0.272,1.825,0.756h0.001c0.484,0.484,0.756,1.141,0.756,1.825v0.001c0,0.685-0.273,1.342-0.757,1.825
	c-0.484,0.484-1.141,0.756-1.825,0.756C43.068,32.242,42.412,31.971,41.927,31.486z"/>
</svg>
