<svg width="300" height="298" viewBox="0 0 300 298" fill="none" xmlns="http://www.w3.org/2000/svg">
<path fill-rule="evenodd" clip-rule="evenodd" d="M205.933 126.436C212.889 136.186 216.665 148.026 216.566 159.965C216.566 171.705 212.79 183.445 205.933 192.996L220.441 204.039C229.682 191.304 234.75 175.784 234.75 160.064C234.85 143.449 229.384 127.133 219.348 114L211.028 121.5L205.933 126.436Z" fill="#0E0333"/>
<path fill-rule="evenodd" clip-rule="evenodd" d="M233.359 213.821L184.569 176.711C188.047 172.134 190.034 166.563 190.332 160.792C190.531 155.022 189.041 149.351 185.96 144.476L209.312 123.384L233.757 100.501C235.347 99.0083 235.446 96.4216 233.856 94.8297L230.478 91.447C213.088 73.8371 189.637 63.5895 164.993 62.7936L165.093 49.3623C165.192 48.4669 165.093 47.5715 164.894 46.6761C164.596 45.7807 164.198 44.9847 163.602 44.2883C163.006 43.5919 162.31 43.0944 161.416 42.6964C160.621 42.2985 159.727 42.0995 158.832 42.0995C157.938 42.0995 157.044 42.2985 156.249 42.6964C155.454 43.0944 154.659 43.5919 154.063 44.2883C153.466 44.9847 152.969 45.7807 152.771 46.5766C152.473 47.472 152.373 48.3674 152.572 49.2628L152.473 63.0921C146.61 63.689 140.747 64.7834 135.083 66.4748L135.182 49.2628C135.282 48.3674 135.182 47.472 134.984 46.5766C134.686 45.6812 134.288 44.8852 133.692 44.1888C133.096 43.4924 132.4 42.9949 131.506 42.5969C130.711 42.199 129.816 42 128.922 42C128.028 42 127.133 42.199 126.339 42.5969C125.544 42.9949 124.749 43.4924 124.152 44.1888C123.556 44.8852 123.059 45.6812 122.861 46.4771C122.562 47.3725 122.463 48.2679 122.662 49.1634L122.364 71.1509C102.291 80.105 85.7959 95.7251 75.7596 115.325C65.7233 134.925 62.5434 157.41 66.9157 178.999C71.2879 200.589 82.9142 220.089 99.8069 234.217C116.7 248.344 137.965 256.304 159.925 256.702L230.974 257C233.161 257 234.949 255.209 234.949 253.02V217.104C234.949 215.811 234.353 214.617 233.359 213.821ZM161.317 239.39C143.828 239.291 126.835 233.421 113.023 222.775C99.2107 212.03 89.2738 197.007 84.8022 180.093C80.3306 163.18 81.6224 145.172 88.2801 129.055C95.0372 112.937 106.862 99.4063 122.066 90.6511L121.966 116.817C121.867 117.713 121.966 118.608 122.165 119.503C122.463 120.399 122.861 121.195 123.457 121.891C124.053 122.588 124.749 123.085 125.643 123.483C126.438 123.881 127.332 124.08 128.227 124.08C129.121 124.08 130.015 123.881 130.81 123.483C131.605 123.085 132.4 122.588 132.996 121.891C133.592 121.195 134.089 120.399 134.288 119.603C134.586 118.708 134.686 117.812 134.487 116.917L134.586 84.7811C143.331 81.5974 152.572 80.105 161.913 80.105C179.104 80.105 195.798 85.776 209.411 96.1231C210.405 96.919 210.504 98.3119 209.61 99.2073L172.446 133.333C169.067 131.94 165.391 131.144 161.714 131.144C157.64 131.144 153.566 131.94 149.79 133.631C146.014 135.323 142.734 137.81 140.051 140.894C137.369 143.978 135.381 147.659 134.189 151.54C132.996 155.519 132.698 159.598 133.294 163.677C133.891 167.757 135.282 171.637 137.468 175.119C139.654 178.601 142.635 181.486 146.014 183.775C149.492 185.963 153.367 187.456 157.441 188.053C161.515 188.65 165.689 188.351 169.564 187.157L217.063 223.273C217.56 223.671 217.858 224.267 217.858 224.864L217.758 237.599C217.758 238.694 216.864 239.589 215.771 239.589L161.317 239.39ZM172.943 159.797C172.943 161.986 172.247 164.175 171.055 166.065C169.763 167.956 168.074 169.348 165.987 170.244C163.9 171.139 161.615 171.338 159.528 170.841C157.441 170.343 155.354 169.348 153.764 167.757C152.175 166.165 151.081 164.175 150.684 161.986C150.287 159.797 150.485 157.509 151.38 155.519C152.274 153.43 153.665 151.739 155.553 150.445C157.441 149.251 159.627 148.555 161.813 148.555C164.794 148.555 167.676 149.749 169.763 151.938C171.75 153.927 172.943 156.713 172.943 159.797Z" fill="#0E0333"/>
</svg>
