<svg width="215" height="43" viewBox="0 0 215 43" fill="none" xmlns="http://www.w3.org/2000/svg">
<path d="M18.0141 0.947266L0.854004 21.6043L18.0465 42.4884L35.3283 21.6448L18.0141 0.947266Z" fill="#5751FC"/>
<path d="M18.0465 42.4882L0.854004 21.604L22.4522 16.3789L18.0465 42.4882Z" fill="#3033BE"/>
<path d="M18.0137 0.947266L35.3279 21.6448L22.4518 16.371L18.0137 0.947266Z" fill="#51A0FC"/>
<path d="M50.4163 11.4609H58.2609C60.2611 11.4609 61.9644 12.1494 63.3708 13.5106C64.7615 14.8875 65.4492 16.5617 65.4492 18.5644C65.4492 20.5672 64.7615 22.2413 63.3708 23.6182C61.9644 24.9951 60.2611 25.6679 58.2609 25.6679H54.5573V32.6306H50.4006V11.4609H50.4163ZM54.573 21.7719H58.2765C59.1516 21.7719 59.886 21.4746 60.4642 20.8644C61.0424 20.2386 61.3393 19.4719 61.3393 18.5644C61.3393 17.6413 61.0424 16.8746 60.4642 16.2644C59.886 15.6542 59.1516 15.3569 58.2765 15.3569H54.573V21.7719Z" fill="#131D2C"/>
<path d="M78.8723 30.7532C77.3561 32.2865 75.4653 33.0532 73.215 33.0532C70.9653 33.0532 69.0901 32.2865 67.5582 30.7532C66.0426 29.2198 65.2769 27.3266 65.2769 25.0735C65.2769 22.8361 66.0426 20.9428 67.5582 19.4095C69.1056 17.8605 70.9808 17.0781 73.215 17.0781C75.4342 17.0781 77.3249 17.8605 78.8723 19.4095C80.4191 20.9585 81.185 22.8517 81.185 25.0735C81.185 27.3109 80.4191 29.2041 78.8723 30.7532ZM70.3084 28.0619C71.0899 28.8443 72.059 29.2355 73.2305 29.2355C74.3872 29.2355 75.3719 28.8443 76.1527 28.0619C76.9342 27.2797 77.3249 26.2783 77.3249 25.0735C77.3249 23.8687 76.9342 22.8673 76.1527 22.085C75.3719 21.3027 74.4028 20.9115 73.2305 20.9115C72.0745 20.9115 71.0899 21.3027 70.3084 22.085C69.5431 22.8986 69.168 23.8844 69.168 25.0735C69.168 26.2626 69.5431 27.264 70.3084 28.0619Z" fill="#131D2C"/>
<path d="M86.1069 32.6318H82.2319V10.5547H86.1069V32.6318Z" fill="#131D2C"/>
<path d="M95.7803 24.9795L102 32.6306H97.4835L92.0143 25.7618V32.6306H88.1387V11.4609H92.0143V24.1659L97.1862 17.5161H101.812L95.7803 24.9795Z" fill="#131D2C"/>
<path d="M112.783 19.3002V17.5165H116.658V32.6465H112.783V30.8629C111.627 32.3336 109.986 33.069 107.876 33.069C105.876 33.069 104.141 32.3023 102.704 30.769C101.282 29.22 100.563 27.3267 100.563 25.0893C100.563 22.8676 101.282 20.99 102.704 19.4253C104.141 17.8763 105.876 17.094 107.876 17.094C109.986 17.0784 111.627 17.8138 112.783 19.3002ZM105.626 28.156C106.407 28.9383 107.408 29.3296 108.595 29.3296C109.798 29.3296 110.783 28.9383 111.564 28.156C112.361 27.3424 112.767 26.3254 112.767 25.0737C112.767 23.822 112.361 22.8049 111.564 22.0227C110.783 21.209 109.783 20.8178 108.595 20.8178C107.392 20.8178 106.407 21.2247 105.626 22.0227C104.844 22.8049 104.454 23.822 104.454 25.0737C104.454 26.3254 104.844 27.3581 105.626 28.156Z" fill="#131D2C"/>
<path d="M134.238 17.1406C135.941 17.1406 137.301 17.6883 138.332 18.7679C139.348 19.8631 139.864 21.3339 139.864 23.1802V32.615H137.879V23.1958C137.879 21.9128 137.551 20.8958 136.894 20.1761C136.238 19.4564 135.348 19.0808 134.223 19.0808C132.925 19.0808 131.894 19.5189 131.16 20.3795C130.425 21.24 130.05 22.5386 130.05 24.2442V32.6306H128.05V23.1958C128.05 21.8815 127.737 20.8802 127.112 20.1761C126.487 19.4564 125.628 19.0808 124.534 19.0808C123.268 19.0808 122.221 19.5189 121.409 20.4108C120.612 21.3026 120.205 22.5856 120.205 24.2598V32.6463H118.221V17.5162H120.205V19.7223C121.283 18.0012 122.815 17.1563 124.799 17.1563C126.987 17.1563 128.503 18.0795 129.362 19.9101C130.457 18.0638 132.081 17.1406 134.238 17.1406Z" fill="#131D2C"/>
<path d="M155.131 20.4735V17.5163H157.116V32.6464H155.131V29.6893C153.74 31.911 151.725 33.0219 149.052 33.0219C146.912 33.0219 145.068 32.2553 143.551 30.7219C142.051 29.1886 141.302 27.311 141.302 25.0892C141.302 22.8674 142.051 20.9898 143.551 19.4564C145.083 17.9231 146.912 17.1564 149.052 17.1564C151.725 17.1408 153.756 18.2517 155.131 20.4735ZM145.005 29.3293C146.146 30.4715 147.552 31.0504 149.209 31.0504C150.865 31.0504 152.271 30.4715 153.412 29.3293C154.553 28.1402 155.131 26.7164 155.131 25.0579C155.131 23.3837 154.553 21.9755 153.412 20.8177C152.271 19.6442 150.865 19.0653 149.209 19.0653C147.552 19.0653 146.146 19.6442 145.005 20.8177C143.864 21.9599 143.286 23.3837 143.286 25.0579C143.286 26.732 143.849 28.1402 145.005 29.3293Z" fill="#131D2C"/>
<path d="M161.006 17.5179V20.0213C161.929 18.1907 163.506 17.2676 165.757 17.2676V19.2077C164.319 19.2077 163.163 19.6302 162.303 20.4751C161.444 21.3043 161.006 22.556 161.006 24.2302V32.648H159.022V17.5179H161.006Z" fill="#131D2C"/>
<path d="M171.07 24.7761L179.133 32.6462H176.492L168.976 25.355V32.6462H166.991V11.4609H168.976V24.1971L176.133 17.5161H178.836L171.07 24.7761Z" fill="#131D2C"/>
<path d="M185.775 17.1406C188.025 17.1406 189.807 17.9386 191.151 19.5346C192.542 21.1148 193.229 22.9768 193.229 25.136C193.229 25.2299 193.213 25.5428 193.167 26.0748H179.962C180.165 27.5925 180.806 28.7973 181.884 29.7048C182.962 30.6122 184.322 31.066 185.947 31.066C188.228 31.066 189.854 30.2055 190.792 28.5L192.542 29.5326C191.885 30.6279 190.963 31.4728 189.807 32.0986C188.666 32.7088 187.369 33.0062 185.931 33.0062C183.572 33.0062 181.634 32.2551 180.165 30.7687C178.68 29.2823 177.946 27.3735 177.946 25.089C177.946 22.8046 178.68 20.9271 180.134 19.425C181.587 17.9073 183.478 17.1406 185.775 17.1406ZM185.775 19.0808C184.213 19.0808 182.9 19.5502 181.837 20.4733C180.79 21.3965 180.181 22.6169 179.978 24.1346H191.197C190.979 22.523 190.369 21.287 189.369 20.4108C188.322 19.5189 187.119 19.0808 185.775 19.0808Z" fill="#131D2C"/>
<path d="M202.418 17.5156V19.4401H198.089V28.609C198.089 29.4382 198.245 30.0328 198.573 30.3926C198.902 30.7369 199.37 30.9246 200.011 30.9403C200.652 30.9403 201.449 30.9246 202.418 30.8777V32.6301C200.277 32.9587 198.683 32.8022 197.636 32.1763C196.62 31.5348 196.104 30.3457 196.104 28.609V19.4401H192.948V17.5H196.104V13.87L198.089 13.2598V17.5H202.418V17.5156Z" fill="#131D2C"/>
<path d="M205.527 21.4746C205.527 22.5543 206.902 23.5869 208.621 24.0407C209.199 24.1815 209.59 24.2754 209.762 24.3379C209.949 24.3849 210.293 24.4944 210.809 24.6665C211.355 24.823 211.715 24.9638 211.918 25.089C212.137 25.2141 212.434 25.4019 212.824 25.6679C213.199 25.9026 213.48 26.1686 213.637 26.4189C213.793 26.6536 213.95 26.9822 214.09 27.389C214.231 27.7645 214.293 28.187 214.293 28.625C214.293 29.9081 213.778 30.972 212.762 31.77C211.777 32.5836 210.48 32.9748 208.855 32.9748C207.449 32.9748 206.246 32.6619 205.214 32.036C204.199 31.3945 203.464 30.5496 203.042 29.5012L204.73 28.4999C205.011 29.2822 205.511 29.9081 206.23 30.3774C206.964 30.8156 207.839 31.0503 208.84 31.0503C209.855 31.0503 210.699 30.8468 211.34 30.4401C211.98 30.0332 212.309 29.4387 212.309 28.625C212.309 27.4516 211.278 26.591 209.215 26.059C208.636 25.9182 208.246 25.8243 208.074 25.793C207.886 25.7305 207.527 25.621 206.996 25.4645C206.48 25.2767 206.105 25.1359 205.886 25.0107C205.683 24.8856 205.402 24.7134 205.011 24.4631C204.636 24.1971 204.355 23.9468 204.199 23.7121C204.042 23.4461 203.886 23.1332 203.746 22.742C203.605 22.3352 203.542 21.9127 203.542 21.4746C203.542 20.2386 204.027 19.2216 204.98 18.3923C205.98 17.563 207.214 17.1562 208.683 17.1562C209.887 17.1562 210.949 17.4222 211.871 17.9699C212.809 18.5174 213.512 19.2685 213.95 20.2386L212.293 21.2087C211.731 19.8005 210.527 19.0964 208.683 19.0964C207.777 19.0964 207.027 19.3154 206.433 19.7379C205.824 20.1447 205.527 20.7236 205.527 21.4746Z" fill="#131D2C"/>
</svg>
