<svg width="3287" height="640" viewBox="0 0 3287 640" fill="none" xmlns="http://www.w3.org/2000/svg">
<g clip-path="url(#clip0)">
<path d="M262.168 0L-2.20703 318.25L262.668 640L528.918 318.875L262.168 0Z" fill="#5751FC"/>
<path d="M262.668 640.004L-2.20703 318.254L330.543 237.754L262.668 640.004Z" fill="#3033BE"/>
<path d="M262.168 0L528.918 318.875L330.543 237.625L262.168 0Z" fill="#51A0FC"/>
<path d="M761.366 161.98H882.223C913.039 161.98 939.281 172.586 960.949 193.558C982.375 214.771 992.969 240.564 992.969 271.419C992.969 302.274 982.375 328.067 960.949 349.28C939.281 370.493 913.039 380.858 882.223 380.858H825.165V488.128H761.125V161.98H761.366ZM825.406 320.835H882.464C895.946 320.835 907.261 316.255 916.169 306.854C925.077 297.212 929.651 285.4 929.651 271.419C929.651 257.197 925.077 245.385 916.169 235.984C907.261 226.583 895.946 222.003 882.464 222.003H825.406V320.835Z" fill="#131D2C"/>
<path d="M1199.78 459.205C1176.42 482.828 1147.29 494.64 1112.62 494.64C1077.96 494.64 1049.07 482.828 1025.47 459.205C1002.12 435.581 990.322 406.414 990.322 371.702C990.322 337.231 1002.12 308.063 1025.47 284.44C1049.31 260.575 1078.2 248.522 1112.62 248.522C1146.81 248.522 1175.94 260.575 1199.78 284.44C1223.61 308.304 1235.41 337.472 1235.41 371.702C1235.41 406.173 1223.61 435.34 1199.78 459.205ZM1067.84 417.743C1079.88 429.796 1094.81 435.823 1112.86 435.823C1130.68 435.823 1145.85 429.796 1157.88 417.743C1169.92 405.691 1175.94 390.263 1175.94 371.702C1175.94 353.141 1169.92 337.713 1157.88 325.66C1145.85 313.607 1130.92 307.581 1112.86 307.581C1095.05 307.581 1079.88 313.607 1067.84 325.66C1056.05 338.195 1050.27 353.382 1050.27 371.702C1050.27 390.022 1056.05 405.45 1067.84 417.743Z" fill="#131D2C"/>
<path d="M1311.24 488.129H1251.54V148H1311.24V488.129Z" fill="#131D2C"/>
<path d="M1460.27 370.252L1556.09 488.128H1486.51L1402.25 382.305V488.128H1342.54V161.98H1402.25V357.717L1481.93 255.268H1553.2L1460.27 370.252Z" fill="#131D2C"/>
<path d="M1722.21 282.748V255.268H1781.91V488.368H1722.21V460.888C1704.39 483.547 1679.11 494.877 1646.61 494.877C1615.79 494.877 1589.07 483.065 1566.92 459.442C1545.01 435.577 1533.94 406.409 1533.94 371.938C1533.94 337.709 1545.01 308.782 1566.92 284.676C1589.07 260.812 1615.79 248.759 1646.61 248.759C1679.11 248.518 1704.39 259.848 1722.21 282.748ZM1611.94 419.185C1623.98 431.238 1639.39 437.265 1657.68 437.265C1676.22 437.265 1691.39 431.238 1703.43 419.185C1715.71 406.65 1721.96 390.982 1721.96 371.697C1721.96 352.413 1715.71 336.744 1703.43 324.692C1691.39 312.157 1675.98 306.13 1657.68 306.13C1639.15 306.13 1623.98 312.398 1611.94 324.692C1599.9 336.744 1593.89 352.413 1593.89 371.697C1593.89 390.982 1599.9 406.892 1611.94 419.185Z" fill="#131D2C"/>
<path d="M2052.76 249.486C2079 249.486 2099.94 257.923 2115.83 274.556C2131.48 291.43 2139.43 314.089 2139.43 342.534V487.89H2108.85V342.775C2108.85 323.008 2103.8 307.34 2093.68 296.251C2083.57 285.163 2069.85 279.377 2052.52 279.377C2032.53 279.377 2016.64 286.127 2005.33 299.385C1994.01 312.643 1988.24 332.65 1988.24 358.926V488.131H1957.42V342.775C1957.42 322.526 1952.6 307.099 1942.97 296.251C1933.34 285.163 1920.1 279.377 1903.25 279.377C1883.75 279.377 1867.62 286.127 1855.1 299.867C1842.82 313.607 1836.56 333.374 1836.56 359.167V488.372H1805.99V255.272H1836.56V289.26C1853.17 262.744 1876.77 249.727 1907.34 249.727C1941.05 249.727 1964.4 263.95 1977.64 292.153C1994.5 263.709 2019.53 249.486 2052.76 249.486Z" fill="#131D2C"/>
<path d="M2374.64 300.831V255.271H2405.22V488.372H2374.64V442.813C2353.21 477.042 2322.16 494.157 2280.99 494.157C2248.01 494.157 2219.6 482.346 2196.24 458.722C2173.13 435.099 2161.58 406.172 2161.58 371.942C2161.58 337.712 2173.13 308.786 2196.24 285.162C2219.84 261.539 2248.01 249.727 2280.99 249.727C2322.16 249.486 2353.45 266.601 2374.64 300.831ZM2218.63 437.268C2236.21 454.865 2257.88 463.784 2283.4 463.784C2308.92 463.784 2330.58 454.865 2348.16 437.268C2365.73 418.948 2374.64 397.012 2374.64 371.46C2374.64 345.667 2365.73 323.972 2348.16 306.134C2330.58 288.055 2308.92 279.136 2283.4 279.136C2257.88 279.136 2236.21 288.055 2218.63 306.134C2201.06 323.731 2192.15 345.667 2192.15 371.46C2192.15 397.253 2200.82 418.948 2218.63 437.268Z" fill="#131D2C"/>
<path d="M2465.16 255.27V293.839C2479.37 265.636 2503.68 251.414 2538.35 251.414V281.304C2516.2 281.304 2498.39 287.813 2485.14 300.83C2471.9 313.606 2465.16 332.89 2465.16 358.683V488.371H2434.59V255.27H2465.16Z" fill="#131D2C"/>
<path d="M2620.21 367.118L2744.43 488.369H2703.75L2587.95 376.037V488.369H2557.37V161.98H2587.95V358.199L2698.21 255.268H2739.86L2620.21 367.118Z" fill="#131D2C"/>
<path d="M2846.75 249.486C2881.42 249.486 2908.87 261.78 2929.57 286.368C2951 310.714 2961.59 339.4 2961.59 372.666C2961.59 374.112 2961.35 378.933 2960.63 387.129H2757.19C2760.32 410.511 2770.2 429.073 2786.81 443.054C2803.42 457.035 2824.36 464.026 2849.4 464.026C2884.55 464.026 2909.59 450.768 2924.04 424.493L2951 440.402C2940.89 457.276 2926.68 470.293 2908.87 479.935C2891.29 489.336 2871.31 493.917 2849.16 493.917C2812.81 493.917 2782.95 482.346 2760.32 459.446C2737.45 436.545 2726.14 407.137 2726.14 371.942C2726.14 336.748 2737.45 307.822 2759.84 284.68C2782.23 261.298 2811.36 249.486 2846.75 249.486ZM2846.75 279.377C2822.68 279.377 2802.46 286.609 2786.08 300.831C2769.95 315.053 2760.57 333.856 2757.44 357.238H2930.29C2926.92 332.409 2917.53 313.366 2902.13 299.867C2886 286.127 2867.46 279.377 2846.75 279.377Z" fill="#131D2C"/>
<path d="M3103.16 255.268V284.918H3036.47V426.177C3036.47 438.953 3038.87 448.113 3043.93 453.657C3048.99 458.96 3056.21 461.853 3066.08 462.094C3075.95 462.094 3088.23 461.853 3103.16 461.13V488.128C3070.17 493.19 3045.62 490.779 3029.49 481.137C3013.84 471.254 3005.89 452.934 3005.89 426.177V284.918H2957.26V255.027H3005.89V199.102L3036.47 189.701V255.027H3103.16V255.268Z" fill="#131D2C"/>
<path d="M3151.06 316.256C3151.06 332.889 3172.25 348.798 3198.73 355.789C3207.64 357.959 3213.66 359.405 3216.31 360.369C3219.19 361.092 3224.49 362.78 3232.44 365.431C3240.86 367.842 3246.4 370.011 3249.53 371.94C3252.9 373.868 3257.47 376.761 3263.49 380.859C3269.27 384.475 3273.6 388.573 3276.01 392.429C3278.42 396.045 3280.83 401.107 3282.99 407.375C3285.16 413.16 3286.12 419.669 3286.12 426.418C3286.12 446.185 3278.18 462.577 3262.53 474.87C3247.36 487.405 3227.38 493.432 3202.34 493.432C3180.67 493.432 3162.14 488.611 3146.25 478.968C3130.6 469.085 3119.28 456.068 3112.78 439.917L3138.78 424.49C3143.12 436.543 3150.82 446.185 3161.9 453.416C3173.21 460.166 3186.69 463.782 3202.1 463.782C3217.75 463.782 3230.75 460.648 3240.62 454.381C3250.49 448.113 3255.55 438.953 3255.55 426.418C3255.55 408.339 3239.66 395.081 3207.88 386.885C3198.97 384.716 3192.95 383.269 3190.3 382.787C3187.41 381.823 3181.88 380.136 3173.69 377.725C3165.75 374.832 3159.97 372.663 3156.6 370.734C3153.47 368.806 3149.14 366.154 3143.12 362.298C3137.34 358.2 3133.01 354.343 3130.6 350.727C3128.19 346.629 3125.78 341.808 3123.62 335.781C3121.45 329.514 3120.49 323.005 3120.49 316.256C3120.49 297.213 3127.95 281.544 3142.64 268.768C3158.04 255.992 3177.06 249.725 3199.69 249.725C3218.23 249.725 3234.6 253.823 3248.81 262.26C3263.25 270.696 3274.09 282.267 3280.83 297.213L3255.31 312.158C3246.64 290.463 3228.1 279.616 3199.69 279.616C3185.73 279.616 3174.17 282.99 3165.03 289.499C3155.64 295.766 3151.06 304.685 3151.06 316.256Z" fill="#131D2C"/>
</g>
<defs>
<clipPath id="clip0">
<rect width="3286.12" height="640" fill="white"/>
</clipPath>
</defs>
</svg>
