<svg width="684" height="459" viewBox="0 0 684 459" fill="none" xmlns="http://www.w3.org/2000/svg">
<path fill-rule="evenodd" clip-rule="evenodd" d="M200.836 0L544.759 15.4104L684 325.552L487.557 609L141.764 586.801L0 250.765L200.836 0ZM452.977 178.773L203.724 287.942L416.82 453.11L452.977 178.773ZM424.12 124.069L224.925 38.0898L183.082 218.865L424.12 124.069ZM373.631 494.668L157.145 339.702L162.382 549.69L373.631 494.668ZM649.422 324.868L501.898 174.801L462.96 463.373L649.422 324.868ZM424.387 528.422L241.81 576.259L456.52 590.042L424.387 528.422ZM620.592 392.953L460.772 512.303L492.528 574.519L620.592 392.953ZM544.996 58.7431L513.954 122.625L629.497 240.365L544.996 58.7431ZM506.32 28.1734L303.425 19.9173L470.789 93.3023L506.32 28.1734ZM171.207 57.7149L29.092 237.609L124.107 257.784L171.207 57.7149ZM118.378 293.073L22.9049 272.809L122.524 508.076L118.378 293.073Z" fill="#9013FE" fill-opacity="0.12"/>
</svg>
