<svg width="300" height="300" viewBox="0 0 300 300" fill="none" xmlns="http://www.w3.org/2000/svg">
<path fill-rule="evenodd" clip-rule="evenodd" d="M204.933 125.436C211.889 135.186 215.665 147.026 215.566 158.965C215.566 170.705 211.79 182.445 204.933 191.996L219.441 203.039C228.682 190.304 233.75 174.784 233.75 159.064C233.85 142.449 228.384 126.133 218.348 113L210.028 120.5L204.933 125.436Z" fill="#02E2AC"/>
<path fill-rule="evenodd" clip-rule="evenodd" d="M232.359 212.821L183.569 175.711C187.047 171.134 189.034 165.563 189.332 159.792C189.531 154.022 188.041 148.351 184.96 143.476L208.312 122.384L232.757 99.5007C234.347 98.0083 234.446 95.4216 232.856 93.8297L229.478 90.447C212.088 72.8371 188.637 62.5895 163.993 61.7936L164.093 48.3623C164.192 47.4669 164.093 46.5715 163.894 45.6761C163.596 44.7807 163.198 43.9847 162.602 43.2883C162.006 42.5919 161.31 42.0944 160.416 41.6964C159.621 41.2985 158.727 41.0995 157.832 41.0995C156.938 41.0995 156.044 41.2985 155.249 41.6964C154.454 42.0944 153.659 42.5919 153.063 43.2883C152.466 43.9847 151.969 44.7807 151.771 45.5766C151.473 46.472 151.373 47.3674 151.572 48.2628L151.473 62.0921C145.61 62.689 139.747 63.7834 134.083 65.4748L134.182 48.2628C134.282 47.3674 134.182 46.472 133.984 45.5766C133.686 44.6812 133.288 43.8852 132.692 43.1888C132.096 42.4924 131.4 41.9949 130.506 41.5969C129.711 41.199 128.816 41 127.922 41C127.028 41 126.133 41.199 125.339 41.5969C124.544 41.9949 123.749 42.4924 123.152 43.1888C122.556 43.8852 122.059 44.6812 121.861 45.4771C121.562 46.3725 121.463 47.2679 121.662 48.1634L121.364 70.1509C101.291 79.105 84.7959 94.7251 74.7596 114.325C64.7233 133.925 61.5434 156.41 65.9157 177.999C70.2879 199.589 81.9142 219.089 98.8069 233.217C115.7 247.344 136.965 255.304 158.925 255.702L229.974 256C232.161 256 233.949 254.209 233.949 252.02V216.104C233.949 214.811 233.353 213.617 232.359 212.821ZM160.317 238.39C142.828 238.291 125.835 232.421 112.023 221.775C98.2107 211.03 88.2738 196.007 83.8022 179.093C79.3306 162.18 80.6224 144.172 87.2801 128.055C94.0372 111.937 105.862 98.4063 121.066 89.6511L120.966 115.817C120.867 116.713 120.966 117.608 121.165 118.503C121.463 119.399 121.861 120.195 122.457 120.891C123.053 121.588 123.749 122.085 124.643 122.483C125.438 122.881 126.332 123.08 127.227 123.08C128.121 123.08 129.015 122.881 129.81 122.483C130.605 122.085 131.4 121.588 131.996 120.891C132.592 120.195 133.089 119.399 133.288 118.603C133.586 117.708 133.686 116.812 133.487 115.917L133.586 83.7811C142.331 80.5974 151.572 79.105 160.913 79.105C178.104 79.105 194.798 84.776 208.411 95.1231C209.405 95.919 209.504 97.3119 208.61 98.2073L171.446 132.333C168.067 130.94 164.391 130.144 160.714 130.144C156.64 130.144 152.566 130.94 148.79 132.631C145.014 134.323 141.734 136.81 139.051 139.894C136.369 142.978 134.381 146.659 133.189 150.54C131.996 154.519 131.698 158.598 132.294 162.677C132.891 166.757 134.282 170.637 136.468 174.119C138.654 177.601 141.635 180.486 145.014 182.775C148.492 184.963 152.367 186.456 156.441 187.053C160.515 187.65 164.689 187.351 168.564 186.157L216.063 222.273C216.56 222.671 216.858 223.267 216.858 223.864L216.758 236.599C216.758 237.694 215.864 238.589 214.771 238.589L160.317 238.39ZM171.943 158.797C171.943 160.986 171.247 163.175 170.055 165.065C168.763 166.956 167.074 168.348 164.987 169.244C162.9 170.139 160.615 170.338 158.528 169.841C156.441 169.343 154.354 168.348 152.764 166.757C151.175 165.165 150.081 163.175 149.684 160.986C149.287 158.797 149.485 156.509 150.38 154.519C151.274 152.43 152.665 150.739 154.553 149.445C156.441 148.251 158.627 147.555 160.813 147.555C163.794 147.555 166.676 148.749 168.763 150.938C170.75 152.927 171.943 155.713 171.943 158.797Z" fill="white"/>
</svg>
