<svg width="700" height="700" viewBox="0 0 700 700" fill="none" xmlns="http://www.w3.org/2000/svg">
<path d="M133.3 480.6H172.4C172.4 484.6 172.2 488.3 171.9 491.6C171.6 494.9 170.9 497.9 169.9 500.7C168.5 504.7 166.6 508.2 164.2 511.3C161.8 514.3 158.9 516.9 155.7 518.9C152.5 520.9 148.9 522.5 145 523.5C141.1 524.6 137 525.1 132.7 525.1C126.8 525.1 121.4 524.1 116.5 522.2C111.7 520.3 107.5 517.5 104 514.1C100.5 510.5 97.8 506.3 95.9 501.4C94 496.4 93 491 93 485C93 479.1 93.9 473.7 95.8 468.8C97.7 463.8 100.5 459.6 103.9 456.1C107.5 452.6 111.7 449.9 116.7 448C121.7 446.1 127.2 445.1 133.3 445.1C141.2 445.1 148.1 446.8 154.1 450.2C160.1 453.6 164.8 458.9 168.3 466.1L149.6 473.8C147.9 469.6 145.6 466.7 142.8 464.9C140.1 463.1 136.9 462.2 133.4 462.2C130.5 462.2 127.8 462.8 125.4 463.9C123 465 120.9 466.5 119.2 468.6C117.5 470.6 116.2 473.1 115.2 475.9C114.3 478.8 113.8 482 113.8 485.5C113.8 488.7 114.2 491.7 115 494.4C115.9 497.1 117.1 499.5 118.8 501.5C120.5 503.5 122.6 505.1 125 506.2C127.5 507.3 130.4 507.8 133.6 507.8C135.5 507.8 137.4 507.6 139.2 507.2C141 506.7 142.6 506 144 505.1C145.5 504.1 146.7 502.8 147.6 501.3C148.5 499.8 149.2 497.9 149.5 495.7H133.3V480.6ZM269.6 463.1V525.1H248.6V463.1H231.6V445.1H286.6V463.1H269.6ZM359.6 472.5C355 466.9 349.4 464.1 342.7 464.1C339.7 464.1 337 464.6 334.4 465.7C331.9 466.8 329.8 468.3 327.9 470.1C326.1 471.9 324.6 474.1 323.6 476.7C322.6 479.3 322.1 482 322.1 485C322.1 488 322.6 490.8 323.6 493.4C324.7 496 326.1 498.2 327.9 500.1C329.8 502 332 503.5 334.5 504.5C337 505.6 339.7 506.1 342.6 506.1C348.9 506.1 354.6 503.4 359.6 498V521.4L357.6 522.1C354.6 523.2 351.8 523.9 349.1 524.4C346.5 524.9 343.9 525.2 341.3 525.2C336.1 525.2 331 524.2 326.2 522.3C321.4 520.3 317.2 517.5 313.5 513.9C309.9 510.3 306.9 506 304.7 501.1C302.5 496.1 301.4 490.7 301.4 484.9C301.4 479.1 302.5 473.7 304.6 468.9C306.8 464 309.7 459.8 313.4 456.3C317.1 452.7 321.4 450 326.2 448C331 446 336.1 445 341.4 445C344.4 445 347.4 445.3 350.3 446C353.3 446.6 356.4 447.6 359.6 448.9V472.5ZM400.8 485.1C400.8 488.1 401.4 490.9 402.5 493.5C403.6 496.1 405.2 498.3 407.1 500.2C409 502.1 411.3 503.6 413.9 504.6C416.5 505.6 419.3 506.1 422.2 506.1C425.1 506.1 427.8 505.6 430.4 504.6C433 503.5 435.3 502 437.3 500.2C439.3 498.3 440.9 496.1 442 493.5C443.1 490.9 443.7 488.2 443.7 485.1C443.7 482 443.1 479.3 442 476.7C440.9 474.1 439.3 471.9 437.3 470C435.4 468.1 433.1 466.7 430.4 465.7C427.8 464.6 425.1 464.1 422.2 464.1C419.3 464.1 416.6 464.6 413.9 465.7C411.3 466.7 409.1 468.2 407.1 470C405.2 471.9 403.6 474.1 402.5 476.7C401.4 479.3 400.8 482.1 400.8 485.1ZM380.2 485.1C380.2 479.5 381.2 474.2 383.3 469.4C385.4 464.5 388.3 460.2 392 456.6C395.7 453 400.1 450.1 405.2 448.1C410.4 446 416.1 445 422.2 445C428.3 445 434 446 439.1 448.1C444.3 450.1 448.7 452.9 452.4 456.6C456.2 460.2 459.1 464.5 461.2 469.4C463.3 474.2 464.3 479.5 464.3 485.1C464.3 490.7 463.3 496 461.2 500.9C459.1 505.7 456.2 510 452.4 513.6C448.7 517.2 444.3 520.1 439.1 522.2C433.9 524.2 428.3 525.2 422.2 525.2C416 525.2 410.3 524.2 405.2 522.2C400.1 520.1 395.7 517.3 392 513.6C388.3 510 385.4 505.7 383.3 500.9C381.2 496 380.2 490.8 380.2 485.1ZM505.6 445.1V525.1H484.6V445.1H505.6ZM211.6 445.1V525.1H190.6V445.1H211.6ZM527.6 525.1V445.1H547.6L586.6 494V445.1H607.6V525.1H587.4L548.6 476.2V525.1H527.6Z" fill="white"/>
<path fill-rule="evenodd" clip-rule="evenodd" d="M405.933 258.436C412.889 268.186 416.665 280.026 416.566 291.965C416.566 303.705 412.79 315.445 405.933 324.996L420.441 336.039C429.682 323.304 434.75 307.784 434.75 292.064C434.85 275.449 429.384 259.133 419.348 246L411.028 253.5L405.933 258.436Z" fill="#02E2AC"/>
<path fill-rule="evenodd" clip-rule="evenodd" d="M433.359 345.821L384.569 308.711C388.047 304.134 390.034 298.563 390.332 292.792C390.531 287.022 389.041 281.351 385.96 276.476L409.312 255.384L433.757 232.501C435.347 231.008 435.446 228.422 433.856 226.83L430.478 223.447C413.088 205.837 389.637 195.59 364.993 194.794L365.093 181.362C365.192 180.467 365.093 179.571 364.894 178.676C364.596 177.781 364.198 176.985 363.602 176.288C363.006 175.592 362.31 175.094 361.416 174.696C360.621 174.298 359.727 174.099 358.832 174.099C357.938 174.099 357.044 174.298 356.249 174.696C355.454 175.094 354.659 175.592 354.063 176.288C353.466 176.985 352.969 177.781 352.771 178.577C352.473 179.472 352.373 180.367 352.572 181.263L352.473 195.092C346.61 195.689 340.747 196.783 335.083 198.475L335.182 181.263C335.282 180.367 335.182 179.472 334.984 178.577C334.686 177.681 334.288 176.885 333.692 176.189C333.096 175.492 332.4 174.995 331.506 174.597C330.711 174.199 329.816 174 328.922 174C328.028 174 327.133 174.199 326.339 174.597C325.544 174.995 324.749 175.492 324.152 176.189C323.556 176.885 323.059 177.681 322.861 178.477C322.562 179.373 322.463 180.268 322.662 181.163L322.364 203.151C302.291 212.105 285.796 227.725 275.76 247.325C265.723 266.925 262.543 289.41 266.916 310.999C271.288 332.589 282.914 352.089 299.807 366.217C316.7 380.344 337.965 388.304 359.925 388.702L430.974 389C433.161 389 434.949 387.209 434.949 385.02V349.104C434.949 347.811 434.353 346.617 433.359 345.821ZM361.317 371.39C343.828 371.291 326.835 365.421 313.023 354.775C299.211 344.03 289.274 329.007 284.802 312.093C280.331 295.18 281.622 277.172 288.28 261.055C295.037 244.937 306.862 231.406 322.066 222.651L321.966 248.817C321.867 249.713 321.966 250.608 322.165 251.503C322.463 252.399 322.861 253.195 323.457 253.891C324.053 254.588 324.749 255.085 325.643 255.483C326.438 255.881 327.332 256.08 328.227 256.08C329.121 256.08 330.015 255.881 330.81 255.483C331.605 255.085 332.4 254.588 332.996 253.891C333.592 253.195 334.089 252.399 334.288 251.603C334.586 250.708 334.686 249.812 334.487 248.917L334.586 216.781C343.331 213.597 352.572 212.105 361.913 212.105C379.104 212.105 395.798 217.776 409.411 228.123C410.405 228.919 410.504 230.312 409.61 231.207L372.446 265.333C369.067 263.94 365.391 263.144 361.714 263.144C357.64 263.144 353.566 263.94 349.79 265.631C346.014 267.323 342.734 269.81 340.051 272.894C337.369 275.978 335.381 279.659 334.189 283.54C332.996 287.519 332.698 291.598 333.294 295.677C333.891 299.757 335.282 303.637 337.468 307.119C339.654 310.601 342.635 313.486 346.014 315.775C349.492 317.963 353.367 319.456 357.441 320.053C361.515 320.65 365.689 320.351 369.564 319.157L417.063 355.273C417.56 355.671 417.858 356.267 417.858 356.864L417.758 369.599C417.758 370.694 416.864 371.589 415.771 371.589L361.317 371.39ZM372.943 291.797C372.943 293.986 372.247 296.175 371.055 298.065C369.763 299.956 368.074 301.348 365.987 302.244C363.9 303.139 361.615 303.338 359.528 302.841C357.441 302.343 355.354 301.348 353.764 299.757C352.175 298.165 351.081 296.175 350.684 293.986C350.287 291.797 350.485 289.509 351.38 287.519C352.274 285.43 353.665 283.739 355.553 282.445C357.441 281.251 359.627 280.555 361.813 280.555C364.794 280.555 367.676 281.749 369.763 283.938C371.75 285.927 372.943 288.713 372.943 291.797Z" fill="white"/>
</svg>
